<svg width="1440" height="821" viewBox="0 0 1440 821" fill="none" xmlns="http://www.w3.org/2000/svg">
<mask id="mask0" mask-type="alpha" maskUnits="userSpaceOnUse" x="0" y="0" width="1640" height="821">
<g clip-path="url(#clip0)">
<path d="M359.328 486.038C369.317 481.118 377.494 485.015 386.212 489.028C391.419 491.439 395.912 490.34 396.915 483.838C396.78 480.019 395.044 477.781 391.669 477.048C383.897 475.37 376.723 472.669 369.838 468.386C364.728 465.203 352.462 473.518 352.288 479.729C352.153 484.147 355.297 488.025 359.328 486.038Z" fill="#E3E3E3"/>
<path d="M530.853 430.499C528.635 429.264 526.475 427.895 524.296 426.583C523.698 423.998 523.003 420.275 519.763 421.567C515.675 423.188 518.857 425.773 520.438 427.644C522.984 430.672 520.978 435.322 524.276 438.022C524.218 439.103 523.987 441.09 524.103 441.109C529.541 442.054 536.098 441.881 538.374 437.058C541.093 431.232 533.938 432.216 530.853 430.499Z" fill="#E3E3E3"/>
<path d="M339.888 86.4238C328.722 87.6392 333.099 97.1111 331.692 102.995C330.457 108.165 333.774 113.508 339.656 112.66C348.123 111.444 350.553 103.766 350.977 96.5902C351.382 89.8769 346.291 86.964 339.888 86.4238Z" fill="#E3E3E3"/>
<path d="M326.021 65.2031C319.811 64.9716 317.96 71.1255 317.94 76.5462C317.902 82.5458 320.582 86.5969 327.506 86.2689C333.677 85.9796 336.223 82.7001 335.972 77.3179C336.069 69.9487 331.826 65.4153 326.021 65.2031Z" fill="#E3E3E3"/>
<path d="M336.223 145.975C336.532 148.637 338.499 149.718 340.967 149.602C343.301 149.505 345.422 148.85 345.384 145.763C344.458 143.12 342.664 141.326 339.733 141.384C336.86 141.442 335.934 143.506 336.223 145.975Z" fill="#E3E3E3"/>
<path d="M335.587 123.405C336.165 123.733 337.033 124.485 337.284 124.311C338.055 123.79 338.576 122.922 339.193 122.209C338.634 121.861 338.055 121.514 337.187 120.993C336.647 121.784 336.127 122.594 335.587 123.405Z" fill="#E3E3E3"/>
<path d="M328.471 171.825C328.876 176.86 332.174 181.393 338.017 180.853C344.15 180.293 347.081 175.606 346.831 169.761C346.618 165.304 344.034 162.121 339.406 162.121C333.639 163.549 327.931 165.131 328.471 171.825Z" fill="#E3E3E3"/>
<path d="M969.038 460.766C968.633 459.975 967.322 459.647 966.087 458.933C965.374 460.052 964.834 460.92 964.294 461.789C965.297 462.174 966.28 462.811 967.283 462.85C968.498 462.888 969.732 462.136 969.038 460.766Z" fill="#E3E3E3"/>
<path d="M545.683 457.583C543.214 453.204 540.784 451.024 537.679 449.558C533.88 449.481 529.869 444.967 526.417 449.462C524.353 452.163 528.056 453.937 528.885 456.233C529.117 459.59 531.257 461.307 534.227 462.04C534.806 462.194 536.194 461.229 536.349 460.573C536.927 458.162 536.291 456.31 533.302 456.272C534.054 455.481 534.786 454.69 535.539 453.899C538.547 455.018 541.575 456.098 545.683 457.583Z" fill="#E3E3E3"/>
<path d="M1084.06 449.076C1083.36 446.935 1082.75 445.006 1081.34 440.665C1080.35 445.797 1079.1 448.71 1084.06 449.076Z" fill="#E3E3E3"/>
<path d="M1034.32 389.988C1026.66 384.22 1019.22 387.017 1011.97 387.769C1009.77 388.116 1007.36 382.329 1005.33 388.001C1002.11 388.869 998.025 386.766 994.341 391.57C998.951 391.126 1002.13 390.837 1005.33 390.528C1004.56 391.955 1003.81 393.402 1003.04 394.849C994.611 395.601 986.338 393.942 978.103 393.402C973.069 393.074 964.95 391.685 959.917 397.28H959.897C959.531 392.959 956.368 392.766 953.109 392.669C951.566 391.955 950.023 391.222 948.5 390.509C934.498 393.827 943.003 412.327 930.005 416.59C934.074 416.532 937.545 414.159 940.265 414.815C966.898 421.239 991.391 409.549 1016.83 406.192C1020.18 405.749 1025.99 403.704 1025.37 402.103C1022.09 393.557 1030.37 393.557 1034.32 389.988Z" fill="#E3E3E3"/>
<path d="M1106.6 300.419C1111.29 295.712 1119.52 291.815 1109.51 284.388C1107.89 283.173 1107.97 281.09 1108.95 279.218C1114.8 267.952 1105.71 264.596 1098.58 262.956C1092.25 261.509 1087.55 259.194 1083.25 254.699C1080.68 252.018 1077.73 249.78 1073.55 249.452C1062.42 248.546 1053.43 236.527 1040.63 243.221C1039.18 243.974 1036.33 242.315 1034.2 241.524C1019.93 236.276 1005.84 235.177 991.487 241.639C984.679 244.707 977.466 245.517 969.656 245.536C963.793 245.555 956.522 242.797 951.373 246.867C943.177 253.349 934.98 253.658 925.974 249.742C925.55 252.925 925.125 256.108 924.682 259.406C919.745 259.059 922.31 253.407 919.128 252.076C917.064 257.921 910.545 252.365 907.807 256.493C907.556 264.557 910.218 270.614 918.877 272.524C918.375 281.302 910.931 276.479 907.036 278.582C905.936 278.697 904.856 278.543 903.834 278.099C903.699 277.675 903.564 277.231 903.429 276.788C903.41 276.788 903.41 276.788 903.391 276.788L903.41 276.768C902.388 273.45 901.404 270.113 898.588 267.663L898.666 267.991C896.602 268.242 893.729 268.107 894.037 270.923C894.23 272.775 896.93 272.216 898.627 272.312C899.379 273.064 900.131 273.798 900.883 274.55C898.974 274.955 896.313 274.029 895.734 276.845C895.618 277.444 897.509 278.447 898.492 279.276C901.192 281.9 904.567 281.437 907.865 281.34C922.367 292.278 938.047 291.989 953.976 285.507C957.139 292.163 948.249 294.169 949.406 300.554C955.712 297.988 959.993 297.931 958.142 306.457C957.564 309.139 959.762 312.341 959.434 315.177C958.856 320.135 961.613 331.227 950.389 321.408C948.384 319.652 946.166 321.639 944.16 322.546C944.16 325.478 944.16 328.43 944.179 331.362C950.949 334.95 938.741 334.757 942.945 337.824C954.131 337.728 955.635 337.304 964.275 330.513C965.49 329.549 966.242 328.237 967.958 329.047C969.617 329.838 969.752 331.343 969.308 332.886C968.633 335.22 967.804 337.535 966.975 340.062C977.466 341.548 982.693 335.51 987.186 328.025C988.806 325.343 989.192 323.105 986.453 321.176C980.533 317.029 975.055 310.682 967.457 317.415C963.349 299.435 971.719 294.613 987.475 298.181C987.475 298.162 987.533 299.185 987.475 300.207C986.569 313.267 991.467 323.028 999.895 322.97C1012.47 322.874 1025.26 320.212 1034.26 311.434C1040.05 305.821 1045.87 304.875 1052.45 304.721C1055.26 304.663 1058 304.528 1059.8 302.927C1068.13 295.519 1078.73 299.262 1083.56 303.795C1094.41 314.039 1099.79 307.287 1106.6 300.419ZM925.704 277.038C926.495 267.914 933.534 274.203 937.275 272.351C933.669 274.531 932.145 281.88 925.704 277.038ZM1002.67 243.993C1000.65 245.633 998.738 245.652 996.655 244.07C998.699 242.295 1000.61 242.507 1002.67 243.993ZM1027.18 291.873C1026.22 294.111 1023.92 292.722 1022.25 293.089C1007.13 296.387 996.115 291.989 990.04 276.923C988.401 272.833 985.065 269.438 982.519 265.715C975.595 264.615 976.193 260.699 979.337 256.378C983.329 250.899 987.552 250.378 991.467 256.609C992.258 261.027 994.842 264.615 998.699 266.139C1004.58 268.454 1007.92 271.618 1008.15 278.369C1008.32 283.173 1012.68 283.636 1016.64 283.79C1019.57 283.906 1022.79 283.173 1025.04 285.874C1026.47 287.591 1028.23 289.443 1027.18 291.873Z" fill="#E3E3E3"/>
<path d="M971.642 629.949C967.765 628.81 965.278 627.884 962.751 630.141C965.355 631.608 967.708 631.28 971.642 629.949Z" fill="#E3E3E3"/>
<path d="M627.569 137.873C625.236 131.507 622.574 127.649 615.246 124.678C618.408 131.488 619.623 136.523 627.569 137.873Z" fill="#E3E3E3"/>
<path d="M515.906 559.827C516.099 562.932 518.856 564.109 521.672 563.762C525.664 563.299 529.001 561.775 528.615 556.759C528.345 552.997 526.204 551.28 522.617 552.129C518.741 553.075 515.617 555.409 515.906 559.827Z" fill="#E3E3E3"/>
<path d="M555.712 357.251C561.054 358.62 564.005 359.373 566.955 360.144C564.622 356.151 561.69 355.109 555.712 357.251Z" fill="#E3E3E3"/>
<path d="M573.879 360.009C573.551 360.568 573.204 361.108 572.683 361.976C573.455 362.497 574.226 363.018 574.997 363.539C575.306 362.96 576.039 362.131 575.865 361.88C575.422 361.128 574.573 360.607 573.879 360.009Z" fill="#E3E3E3"/>
<path d="M601.438 533.532C601.225 533.05 600.126 532.587 599.605 532.722C598.641 532.972 597.773 533.667 596.153 534.612C597.889 535.094 598.853 535.577 599.798 535.577C600.917 535.557 602.055 534.979 601.438 533.532Z" fill="#E3E3E3"/>
<path d="M342.51 233.904C342.472 235.023 342.356 236.141 342.414 237.26C342.665 242.334 334.912 250.34 341.739 251.478C348.45 252.597 341.855 242.546 344.96 238.321C347.467 238.823 351.015 245.536 351.671 236.373C352.365 226.65 347.93 218.529 346.367 207.166C339.868 217.101 338.634 225.146 342.51 233.904Z" fill="#E3E3E3"/>
<path d="M391.65 336.783C395.912 330.475 397.995 324.533 389.201 319.247C382.084 314.984 377.533 307.904 373.676 300.496C370.301 294.034 365.692 293.031 360.234 298.49C357.033 301.693 353.677 304.509 353.6 309.737C353.561 312.881 351.536 315.814 348.181 316.006C345.268 316.161 343.822 313.383 342.935 310.798C339.116 299.841 332.424 296.349 321.277 302.503C327.526 308.811 327.294 314.695 320.66 319.942C316.629 323.125 317.922 327.407 317.729 331.42C319.927 333.098 319.966 335.587 320.159 338.018C328.259 342.146 330.708 351.849 338.306 356.479C334.469 356.421 330.631 356.383 326.812 356.325C322.82 356.537 319.214 359.141 319.792 362.421C320.622 367.224 326.272 363.057 329.069 365.353C332.868 363.135 343.359 371.565 340.216 358.331C353.908 360.222 354.352 360.839 349.203 372.684C347.814 375.886 347.062 379.107 347.236 382.561C347.891 394.888 351.71 397.434 362.934 393.055C369.24 390.586 375.624 388.271 381.834 385.531C385.324 383.988 388.815 384.374 388.68 388.097C388.14 404.34 400.888 404.032 410.974 406.057C419.633 407.813 437.53 396.682 437.01 389.891C436.257 380.111 429.218 373.764 420.193 370.967C413.308 368.845 405.941 370.793 399.249 372.896C392.325 375.056 388.989 373.571 388.931 366.26C388.912 362.961 388.41 359.759 384.804 359.218C371.323 357.174 378.632 351.753 382.682 346.93C385.575 343.458 389.143 340.487 391.65 336.783Z" fill="#E3E3E3"/>
<path d="M88.3858 43.2308C88.9451 44.4461 90.083 45.5071 91.2208 46.2788C92.1272 46.8961 93.1879 46.5681 93.4387 45.1792C93.1108 43.2694 92.2044 41.784 90.1794 41.4174C88.9451 41.2052 87.8073 41.9769 88.3858 43.2308Z" fill="#E3E3E3"/>
<path d="M477.065 405.459C477.933 405.247 479.283 404.051 479.187 403.491C478.859 401.331 477.007 400.81 475.156 401.196C474.442 401.35 473.941 402.565 473.478 403.144C474.288 405.035 475.542 405.845 477.065 405.459Z" fill="#E3E3E3"/>
<path d="M56.9504 630.277C53.1126 627.036 48.1755 623.197 43.9134 626.149C38.1085 630.2 34.5021 636.797 34.1356 642.18C33.9235 651.169 42.6213 678.312 46.7869 684.33C50.8562 690.234 54.694 696.002 54.7904 703.814C54.8676 709.409 56.989 715.023 61.7718 718.765C65.2431 721.485 68.9845 725.671 73.7095 722.816C78.9551 719.652 77.4702 714.347 75.4645 709.64C70.5852 698.201 66.0531 686.568 60.5182 675.457C55.369 665.097 52.7269 655.162 59.0718 644.437C62.1189 639.305 61.8296 634.405 56.9504 630.277Z" fill="#E3E3E3"/>
<path d="M465.34 539.531C455.292 532.413 448.658 520.723 435.756 517.443C432.632 514.241 429.642 516.228 426.615 517.636C423.22 515.456 419.44 514.221 417.319 509.939C413.828 502.936 406.77 501.316 399.615 499.695C383.994 496.165 372.924 504.479 362.837 513.932C357.553 518.89 353.657 521.456 347.814 515.919C346.348 514.53 344.902 513.334 342.993 514.974C341.565 516.208 342.221 517.694 343.05 518.967C344.767 521.629 342.742 524.06 342.665 526.606C331.209 531.931 331.19 532.008 340.35 540.342C340.775 547.672 333.118 555.794 339.579 561.967C349.029 570.995 360.002 580.602 374.119 578.345C392.228 575.451 409.373 568.449 428.582 570.301C436.99 571.111 446.44 568.989 453.903 573.059C460.673 576.744 467.056 575.721 473.498 575.432C482.755 575.008 490.7 566.577 489.987 558.533C489.157 549.119 484.413 542.927 473.883 544.142C469.66 544.605 468.001 541.403 465.34 539.531Z" fill="#E3E3E3"/>
<path d="M486.824 395.099C487.364 394 490.489 391.858 486.361 391.839C484.664 391.82 483.719 394.135 483.931 397.935C485.397 396.546 486.4 395.967 486.824 395.099Z" fill="#E3E3E3"/>
<path d="M343.918 475.196C346.907 476.084 346.926 472.766 347.138 470.161C346.251 466.573 346.251 461.808 341.43 460.535C339.251 459.956 338.364 462.734 339.116 464.548C340.601 468.213 338.904 473.73 343.918 475.196Z" fill="#E3E3E3"/>
<path d="M1640 383.988C1638.86 382.618 1637.84 381.113 1636.93 379.435C1635.16 376.136 1631.15 376.908 1627.66 377.544C1612.61 380.245 1596.82 381.499 1582.2 381.248C1563.15 380.92 1544.05 382.136 1525 381.48C1523.5 381.422 1521.97 381.383 1520.47 381.325C1512.25 376.001 1504.13 370.522 1498.12 362.594C1491.08 353.315 1480.2 346.91 1470.81 343.997C1453.26 338.538 1438.02 328.429 1420.43 323.221C1399.61 317.067 1381.13 305.608 1357.68 305.087C1338.01 304.663 1319.3 306.245 1300.98 311.704C1293.71 313.865 1285.63 314.964 1279.03 319.864C1265.07 330.243 1255.31 345.753 1238.44 352.698C1234.46 354.337 1231.13 358.06 1229.18 362.362C1225.75 369.963 1219.4 373.57 1211.63 375.056C1194.29 378.393 1176.92 381.634 1159.56 384.856C1158.06 385.126 1155.49 386.958 1155.47 383.621C1155.43 375.422 1149.99 379.223 1147 380.129C1131.25 384.933 1116.24 392.051 1099.93 395.157C1096.65 395.774 1092.54 396.797 1096.21 401.755C1094.22 409.452 1099.99 411.014 1105.14 413.059C1105.12 413.773 1105.12 414.487 1105.1 415.201C1102.59 415.76 1099.62 416.319 1099.35 419.271C1099.14 421.644 1101.38 420.293 1102.63 420.235C1099.02 429.244 1096.19 438.292 1095.53 448.188C1094.99 456.503 1091.52 466.804 1084.75 469.37C1074.93 473.112 1067.64 481.002 1057.5 483.472C1057.52 483.452 1057.52 483.433 1057.54 483.394C1057.5 483.394 1057.48 483.414 1057.46 483.414C1059.02 472.128 1060.57 460.862 1062.13 449.577C1066.16 449.577 1070.34 453.59 1074.12 448.208C1077.15 443.906 1078.1 438.388 1076.94 434.723C1075.11 428.878 1069.3 435.09 1065.35 433.585C1064.37 433.218 1063.15 433.45 1062.05 433.392C1064.42 419.85 1059.08 414.757 1045.78 417.477C1042.27 418.191 1037.42 422.415 1035.19 416.204C1032.51 408.777 1027.13 410.474 1022.25 411.786C1010.75 414.873 999.394 418.461 988.034 422.01C984.428 423.129 979.259 418.808 977.196 424.692C975.267 430.209 980.127 432.35 983.194 435.553C988.613 441.205 990.985 446.548 987.938 455.712C986.183 460.997 1000.65 466.264 996.385 476.585C995.054 476.913 992.894 477.144 994.051 478.977C994.804 480.153 997.099 480.346 998.718 480.983C1001.73 483.182 1006.43 484.147 1008.23 486.23C1015.27 494.429 1022.52 498.789 1033.97 500.911C1042.77 502.531 1045.99 502.917 1048.55 494.834C1049.29 494.795 1050 494.757 1050.73 494.757C1050.85 501.316 1047.41 506.003 1043.09 510.556C1040.76 513.025 1034.98 513.971 1036.92 518.639C1038.41 522.227 1043.42 521.88 1046.87 523.269C1050.27 524.619 1053.51 523.172 1056.85 522.767C1066.24 521.629 1076.63 521.359 1083.02 528.593C1088.94 535.287 1093.99 536.792 1101.49 533.455C1108.63 530.272 1117.09 528.207 1115.3 517.424C1114.51 512.64 1118.13 512.717 1120.89 512.273C1124.27 511.714 1125.56 514.299 1126 517.057C1128.34 531.448 1133.39 534.438 1145.71 528.13C1148.88 526.51 1151.46 527.089 1154.26 528.497C1157.34 530.04 1160.04 530.098 1161.93 526.664C1162.99 527.744 1164.05 528.844 1165.13 529.924C1165.06 530.812 1165.25 531.41 1166.35 531.159C1170.26 536.155 1173.56 542.271 1181.78 538.702C1183.61 537.911 1185.77 538.605 1186.17 540.901C1187.89 550.238 1194.58 547.344 1200.33 546.843C1201.18 546.881 1202.03 546.939 1202.87 546.978C1203.38 555.852 1207.56 554.038 1213.35 551.26C1221.5 547.325 1229.49 542.406 1239.04 542.29C1239 543.042 1238.96 543.795 1238.88 544.547C1238.51 544.624 1238.13 544.663 1237.78 544.817C1224.22 550.566 1221.56 555.099 1224.46 565.458C1228.06 578.441 1235.95 574.236 1243.86 570.802C1246.25 569.76 1248.72 570.339 1249.95 572.268C1252.07 575.567 1248.79 576.995 1246.73 578.21C1236.99 584.016 1230.84 591.27 1232.42 603.79C1233.25 610.387 1241.25 613.975 1240.94 616.695C1239.05 632.649 1252.59 631.781 1261.71 637.24C1249.78 642.256 1254.66 646.751 1261.43 651.188C1265.51 653.869 1269.24 658.21 1273.65 659.078C1285.86 661.47 1293.77 669.244 1300.09 678.658C1305.15 686.182 1310.53 687.397 1318.16 683.655C1328.31 678.697 1338.28 673.218 1349.29 670.382C1357.6 668.241 1364.41 668.53 1367.94 678.986C1371.37 689.191 1383.1 691.506 1392.3 685.507C1401.11 679.758 1409.5 676.613 1420.47 683.134C1427.92 687.571 1438.18 690.214 1446.3 681.494C1449.29 678.272 1453.78 678.195 1457.62 676.748C1469.32 672.331 1481.05 668.646 1493.82 671.328C1502.51 673.16 1512.29 670.633 1519.93 673.006C1530.86 676.421 1541.32 675.996 1552.1 676.17C1554.45 676.208 1556.78 676.247 1559.14 676.266C1562.11 676.247 1565.08 676.247 1568.05 676.228C1569.57 674.723 1571.11 673.237 1572.64 671.733C1580.85 665.984 1589.39 660.988 1599.75 660.293C1600.56 661.065 1601.35 661.836 1602.14 662.627C1601.58 664.711 1596.45 665.984 1600.1 668.492C1603.63 670.923 1606.96 668.473 1609.18 665.097C1615.45 667.469 1608.89 669.379 1608.95 671.54C1603.8 673.874 1595.18 673.778 1596.3 681.533C1597.4 689.172 1605.4 687.455 1611.23 687.725C1611.98 687.764 1612.73 687.764 1613.48 687.802C1613.48 688.477 1613.5 689.153 1613.48 689.828C1610.98 691.834 1607.99 693.435 1606.1 695.904C1602.41 700.727 1607.79 698.142 1608.99 699.03C1613.69 703.949 1608.12 706.842 1606.71 710.566C1601.97 711.337 1597.21 711.993 1592.48 712.919C1586.83 714.038 1584.98 718.224 1589.61 721.234C1597.05 726.056 1595.33 731.458 1593.16 737.631C1592.48 738.325 1591.81 739.02 1591.11 739.734C1591.05 738.981 1590.98 738.248 1590.94 737.496C1590.65 733.059 1589.53 728.719 1584.13 729.027C1577.48 729.413 1581.56 734.834 1581.06 737.843C1580.35 742.126 1583.15 747.431 1575.51 750.575C1577.65 744.229 1576.18 739.522 1572.66 735.413C1563.57 732.731 1556.63 741.605 1547.76 740.062C1546.21 740.795 1544.67 741.509 1543.15 742.242C1538.31 732.77 1538.31 732.77 1534.08 737.65C1530.38 735.007 1534.01 728.275 1527.8 726.674C1526.06 730.339 1524.36 733.946 1522.67 737.554C1521.28 736.088 1519.87 734.602 1518.48 733.136C1514.93 726.828 1519.06 715.543 1506.7 714.945C1506.37 714.983 1506.24 715.215 1506.18 715.504C1505.66 716.064 1505.14 716.642 1504.62 717.202C1498.17 715.35 1491.23 710.99 1485.37 712.148C1469.5 715.253 1454.96 721.272 1445.29 736.319C1435.94 750.884 1424.56 764.311 1411.08 775.287C1390.72 791.897 1388.34 790.006 1373.4 775.441C1363.29 765.603 1351.74 760.78 1337.91 768.207C1336.43 768.998 1335.39 768.709 1333.88 767.995C1317.32 760.047 1299.77 758.427 1281.71 759.989C1276.24 760.472 1271.2 761.494 1268.64 767.146C1267.83 767.976 1267.02 768.805 1266.21 769.635C1266.52 769.789 1266.84 769.905 1267.15 770.04C1266.84 769.963 1266.54 769.847 1266.21 769.635C1258.96 778.104 1246 773.879 1238.28 781.943C1242.01 786.707 1246.44 785.106 1250.8 784.142C1252.71 783.717 1254.75 783.563 1255.33 786.013C1255.72 787.653 1254.62 788.926 1253.06 789.37C1247.96 790.836 1243.28 792.012 1249.55 798.282C1251.28 800.018 1249.43 802.584 1246.77 803.182C1243.49 803.934 1241 805.13 1242.22 810.358C1246.34 807.561 1250.38 807.484 1253.9 811.226C1263.87 821.798 1275 816.512 1286.03 813.58C1294.48 811.342 1303.31 812.924 1310.12 816.956C1326.82 826.871 1344.1 836.324 1357.31 851.197C1348.75 856.869 1342.64 844.503 1333.65 848.284C1340.19 855.48 1348.9 856.174 1357.16 857.911C1361.67 862.695 1370.37 861.692 1372.86 869.273C1362.46 869.35 1358.24 869.717 1357.16 873.884H1640.06V383.988H1640Z" fill="#E3E3E3"/>
<path d="M958.74 848.71C950.1 845.99 943.909 841.051 938.104 834.415C926.224 820.834 914.557 818.77 897.508 826.39C894.673 827.663 891.8 829.38 888.926 827.875C881.193 823.805 873.421 826.371 865.707 827.277C862.659 827.644 860.037 827.239 857.047 826.737C841.619 824.171 833.076 805.748 815.294 808.835C814.504 808.97 813.057 806.925 812.382 805.633C810.049 801.254 805.902 799.73 801.679 797.897C788.082 791.975 773.252 788.425 759.289 785.956C747.834 783.93 728.799 777.024 722.647 798.398C722.242 799.826 719.889 800.868 718.23 801.736C707.816 807.157 697.46 812.751 686.834 817.747C677.75 822.011 670.807 817.747 669.612 807.581C669.129 803.472 669.727 799.209 668.995 795.158C667.972 789.505 664.443 785.435 658.657 789.12C640.028 801.003 619.45 802.527 598.988 798.534C587.899 796.373 577.176 801.697 566.743 797.492C561.613 795.408 556.849 795.929 551.546 795.987C543.735 796.084 537.834 801.89 529.83 800.791C519.918 799.44 509.793 801.234 499.745 799.286C491.876 797.762 485.994 803.395 483.661 809.337C481.501 814.834 479.322 818.23 473.883 820.236C470.412 821.509 470.238 825.097 474.192 825.252C489.041 825.83 472.398 833.2 476.93 837.617C480.44 841.032 473.806 842.421 470.952 841.977C460.692 840.357 452.09 844.157 445.765 851.217C440.828 856.715 435.601 858.432 428.948 858.355C415.043 857.699 400.849 855.924 390.126 868.097C388.718 869.698 385.575 870.991 387.484 873.402C387.658 873.634 387.85 873.826 388.043 874.039H417.164C417.531 872.881 417.704 871.512 417.647 869.814C417.415 861.461 421.079 858.606 428.909 862.696C430.163 866.38 430.973 870.277 432.053 874.058H475.407C476.043 870.508 476.853 866.997 477.798 863.506C479.36 857.815 482.407 853.32 487.981 850.851C486.477 856.137 483.873 860.844 484.49 866.342C484.799 869.139 485.512 872.09 487.016 874.058H975.653C973.532 863.486 971.622 852.761 958.74 848.71Z" fill="#E3E3E3"/>
<path d="M305.482 342.821C305.405 343.052 305.772 343.612 306.042 343.689C308.857 344.518 309.687 342.242 310.863 340.525C308.896 340.892 306.37 339.946 305.482 342.821Z" fill="#E3E3E3"/>
<path d="M301.413 389.178C307.179 389.043 312.386 388.329 317.42 391.994C318.5 392.785 321.161 392.206 322.646 391.396C324.652 390.316 324.44 387.789 323.128 386.496C318.673 382.117 318.924 376.928 318.461 371.179C317.998 365.527 306.408 364.427 310.303 355.515C308.915 355.032 307.526 354.569 305.829 353.991C304.248 354.975 301.316 356.074 301.393 356.846C302.319 365.546 295.473 371.005 292.946 378.201C290.189 386.033 295.608 389.313 301.413 389.178Z" fill="#E3E3E3"/>
<path d="M310.901 340.525L310.882 340.506L310.863 340.525C310.882 340.525 310.901 340.525 310.901 340.525Z" fill="#E3E3E3"/>
<path d="M324.228 520.916C329.435 519.103 336.3 518.524 337.92 511.618C337.187 505.175 331.98 505.29 328.432 505.599C322.55 506.081 317.844 510.287 316.803 515.881C316.185 519.276 321.528 521.861 324.228 520.916Z" fill="#E3E3E3"/>
<path d="M336.841 496.667C338.518 496.783 340.196 496.918 341.874 497.034C341.932 496.378 341.99 495.741 342.067 495.085C340.389 495.085 338.731 495.066 337.053 495.143C336.956 495.162 336.918 496.146 336.841 496.667Z" fill="#E3E3E3"/>
<path d="M285.136 329.086C282.436 335.876 285.927 341.008 293.082 339.677C298.443 338.673 303.438 335.799 308.607 333.754C314.547 334.429 310.458 328.391 313.197 326.906C311.403 319.768 317.517 311.84 313.332 305.859C307.411 297.41 310.535 293.764 319.175 290.658C316.572 290.156 314.392 290.774 313.814 290.06C307.469 282.344 299.407 286.356 292.079 286.954C285.869 287.456 281.549 289.771 284.615 297.931C288.164 307.422 276.728 318.302 286.775 327.581C286.197 328.083 285.387 328.468 285.136 329.086Z" fill="#E3E3E3"/>
<path d="M430.221 826.331C426.151 833.836 424.377 836.575 433.538 835.437C444.318 835.244 455.311 826.158 456.584 817.438C457.027 814.448 455.272 813.734 453.016 812.808C441.676 808.217 438.533 811.034 430.221 826.331Z" fill="#E3E3E3"/>
<path d="M312.887 254.178C312.868 252.076 312 250.359 309.474 250.976C305 252.076 302.531 255.529 301.335 259.541C300.738 261.509 302.898 262.628 305.193 262.473C309.165 261.104 312.926 259.368 312.887 254.178Z" fill="#E3E3E3"/>
<path d="M381.14 594.8C377.302 594.897 373.31 595.244 372.885 600.221C372.692 602.613 374.756 603.269 376.781 602.459C380.021 601.186 384.63 602.459 386.173 597.347C385.672 594.588 383.3 594.743 381.14 594.8Z" fill="#E3E3E3"/>
<path d="M266.931 285.43C264.848 286.202 264.443 288.227 265.658 290.079C267.22 292.452 269.959 292.105 271.617 290.966C278.868 286.067 287.566 282.228 287.123 270.113C280.508 275.418 275.166 282.421 266.931 285.43Z" fill="#E3E3E3"/>
<path d="M864.82 201.938C861.638 198.176 857.433 198.157 852.477 198.929C855.293 203.539 858.629 206.086 863.528 205.391C865.051 205.179 865.938 203.25 864.82 201.938Z" fill="#E3E3E3"/>
<path d="M755.239 272.698C755.818 273.123 756.165 273.875 756.666 274.434C758.749 276.769 760.967 278.929 764.342 276.749C767.447 274.743 767.486 271.734 766.116 268.801C764.863 266.12 763.706 262.551 761.449 261.297C748.2 253.986 739.522 240.945 726.215 233.788C721.432 229.969 716.533 226.419 708.491 226.515C712.85 233.094 720.275 231.531 724.055 235.93C728.259 242.681 732.675 255.24 736.648 255.105C750.669 254.642 748.431 267.875 755.239 272.698Z" fill="#E3E3E3"/>
<path d="M1058.18 163.877C1059.78 164.455 1061.03 163.163 1060.39 161.446C1059.93 160.231 1058.68 159.324 1057.33 157.781C1056.54 159.15 1055.53 160.154 1055.75 160.674C1056.23 161.909 1057.08 163.491 1058.18 163.877Z" fill="#E3E3E3"/>
<path d="M1100.72 27.4315C1101.22 26.5827 1101.55 25.6182 1101.93 24.6922C1101.32 24.4607 1100.68 24.2099 1099.74 23.8434C1099.49 24.8658 1099.12 25.8111 1099.08 26.7949C1099.06 26.9878 1100.66 27.528 1100.72 27.4315Z" fill="#E3E3E3"/>
<path d="M726.022 467.807C726.6 468.444 727.16 469.08 727.584 469.563C729.474 469.177 730.862 468.695 730.843 466.939C730.843 466.553 729.686 465.762 729.358 465.878C728.182 466.36 727.121 467.132 726.022 467.807Z" fill="#E3E3E3"/>
<path d="M741.566 468.482C741.373 470.122 742.511 471.01 744.054 471.376C745.693 471.434 746.985 470.759 747.178 469.1C747.371 467.46 746.233 466.457 744.671 466.264C743.07 466.032 741.759 466.823 741.566 468.482Z" fill="#E3E3E3"/>
<path d="M715.511 466.689C717.382 468.56 720.371 467.865 722.28 463.795C720.159 463.583 719.021 463.197 718.037 463.409C716.34 463.795 713.467 464.644 715.511 466.689Z" fill="#E3E3E3"/>
<path d="M946.262 672.833C942.231 672.929 939.03 668.627 932.145 672.505C938.066 673.836 942 674.724 945.934 675.611C946.05 674.685 946.146 673.759 946.262 672.833Z" fill="#E3E3E3"/>
<path d="M946.416 656.262C945.394 656.339 943.986 656.706 943.523 657.458C942.733 658.693 943.736 659.426 945.336 659.58C946.108 659.175 947.419 658.905 947.959 658.095C948.981 656.532 947.419 656.185 946.416 656.262Z" fill="#E3E3E3"/>
<path d="M1029.06 231.203C1029.42 229.64 1028.28 228.637 1026.47 227.904C1025.93 228.367 1024.77 228.849 1024.62 229.563C1024.31 231.126 1025.33 232.38 1026.84 232.611C1027.53 232.708 1028.9 231.84 1029.06 231.203Z" fill="#E3E3E3"/>
<path d="M962.096 353.797C962.481 354.82 962.867 355.823 963.272 356.845C968.961 354.357 974.67 351.849 980.359 349.36C973.223 347.952 967.669 350.923 962.096 353.797Z" fill="#E3E3E3"/>
<path d="M932.647 651.96C935.52 652.095 934.595 648.932 935.096 647.099C937.95 645.961 940.824 644.823 944.064 643.53C937.854 639.537 934.228 643.414 930.506 646.906C930.776 648.816 929.908 651.825 932.647 651.96Z" fill="#E3E3E3"/>
<path d="M339.366 21.1427C337.534 24.345 336.377 31.3477 342.221 30.6339C350.186 29.6308 358.845 23.4191 354.428 39.1027C354.313 39.5464 355.991 40.5688 356.916 41.2054C360.6 43.7133 359.906 46.3947 358.054 49.925C352.982 59.5898 360.06 62.5992 367.176 64.8369C370.705 65.9365 374.717 65.3771 378.362 66.2645C385.035 67.8656 387.715 71.338 382.219 77.3375C377.667 82.3146 371.188 86.4622 368.796 92.3074C360.156 113.47 365.344 134.381 375.122 153.518C378.111 159.402 382.701 168.391 393.192 168.005C403.761 167.62 405.246 173.542 401.504 182.146C397.184 192.081 394.581 203.347 397.165 213.108C401.601 229.853 398.264 245.883 393.944 260.815C389.297 276.903 391.572 287.513 406.249 297.39C407.001 298.162 407.772 298.934 408.524 299.725C418.148 302.136 427.868 304.663 432.843 314.444C438.07 324.726 443.103 335.143 447.577 345.753C455.407 364.33 464.761 380.901 487.46 384.027C491.838 384.625 496.08 386.727 500.246 388.483C503.795 389.987 508.25 393.325 505.685 396.662C498.028 406.616 508.52 407.562 512.165 408.217C523.234 410.147 534.516 410.957 545.991 413.233C537.968 405.71 528.364 400.771 520.785 392.978C506.9 378.702 494.557 363.578 484.663 346.139C476.679 332.056 469.196 317.839 461.907 303.39C451.473 282.729 450.567 258.751 437.645 239.074C433.692 233.055 433.904 224.625 437.549 218.355C445.9 203.945 445.475 190.692 435.543 177.477C432.419 173.31 433.036 169.009 435.813 164.861C438.359 161.041 440.422 157.28 439.535 152.245C438.706 147.518 442.235 145.589 446.15 144.567C460.904 140.728 476.158 141.731 489.176 148.02C500.844 153.672 511.914 156.585 524.642 156.932C536.619 157.26 550.08 154.27 558.623 167.678C560.745 170.996 566.26 171.883 570.85 172.848C585.989 175.973 600.974 179.812 616.075 183.091C620.819 184.113 624.637 185.869 626.508 190.595C628.379 192.717 630.211 194.897 633.605 193.875C633.239 190.807 630.77 189.766 628.88 188.261C627.067 175.838 617.193 174.236 607.531 172.365C591.524 169.279 591.698 169.317 592.334 153.576C592.566 147.692 591.351 141.75 591.64 135.867C591.833 132.008 593.279 128.304 587.918 127.07C584.582 127.359 581.573 126.337 578.699 124.774C557.678 120.665 539.569 108.84 519.416 102.262C513.997 100.487 512.01 92.3074 506.34 88.6035C495.405 81.4465 496.177 80.2891 506.09 72.8813C510.718 69.4282 512.743 76.3344 515.983 73.2478C512.994 62.8693 515.617 59.5512 526.706 56.6768C543.349 52.3556 559.915 47.6293 572.702 34.8587C574.997 32.563 578.256 30.576 581.38 29.8623C592.18 27.393 596.211 20.9305 594.687 10.224C594.205 6.88665 594.61 3.43355 594.61 0.0383301C561.323 0.0383301 528.036 0.0383301 494.75 0.0383301C488.868 6.61658 481.809 9.72243 472.706 9.3752C463.584 9.02796 455.484 12.809 449.853 20.0431C443.103 28.7627 437.298 38.1188 437.973 49.9443C438.571 60.6508 431.821 66.9782 423.49 71.0101C415.718 74.7718 409.951 69.2353 404.956 63.7181C401.871 60.3228 397.763 58.1622 394.523 55.0371C389.219 49.8864 388.409 40.6074 394.157 38.2732C409.141 32.1965 418.726 18.2491 433.846 12.674C439.497 10.5905 444.26 7.34964 440.268 0.0383301C406.229 0.0383301 372.19 0.0383301 338.151 0.0383301C342.799 6.7902 343.725 13.5228 339.366 21.1427Z" fill="#E3E3E3"/>
<path d="M523.524 78.186C522.617 78.4561 521.557 79.4785 521.364 80.3466C521.229 80.9832 522.405 81.8899 523.234 83.0281C524.237 81.7934 525.259 81.0604 525.491 80.1151C525.799 78.8226 524.777 77.8002 523.524 78.186Z" fill="#E3E3E3"/>
<path d="M46.6709 618.085C47.4616 618.78 50.6823 616.619 52.823 615.983C64.9728 612.356 76.6791 608.112 89.9668 607.919C103.486 607.726 117.777 606.279 129.194 596.827C135.905 597.444 142.597 598.042 149.308 598.659C152.201 598.929 156.309 600.164 156.444 595.997C156.521 593.258 152.413 590.441 149.694 591.29C142.732 593.489 135.538 593.161 128.499 593.991C127.651 593.296 126.166 593.894 124.623 594.57C83.0819 591.502 41.541 586.294 0 594.724C0 602.286 0 609.848 0 617.429C15.4477 620.96 31.2039 604.215 46.6709 618.085Z" fill="#E3E3E3"/>
<path d="M521.326 345.117C530.101 343.573 536.388 347.162 544.757 352.447C533.996 338.963 530.814 338.037 521.326 345.117Z" fill="#E3E3E3"/>
<path d="M1298.07 823.901C1300.71 826.293 1303.55 827.296 1306.96 825.059C1304.63 821.664 1301.21 821.972 1297.93 821.934C1294.42 822.107 1290.78 820.718 1287.21 822.956C1290.86 824.982 1294.54 823.651 1298.07 823.901Z" fill="#E3E3E3"/>
<path d="M1347.48 756.672C1342.56 754.318 1338.7 752.987 1335 756.112C1332.96 757.849 1334.58 759.681 1336.08 760.646C1340.55 763.482 1343.66 760.954 1347.48 756.672Z" fill="#E3E3E3"/>
<path d="M1164.88 760.955C1171.38 759.026 1175.72 758.138 1180.25 752.197C1174 754.338 1169.8 755.534 1164.88 760.955Z" fill="#E3E3E3"/>
<path d="M1357.43 759.122C1357.12 758.485 1356.87 757.405 1356.52 757.366C1355.64 757.27 1354.71 757.656 1353.8 757.829C1354.4 758.543 1354.88 759.411 1355.64 759.894C1355.93 760.086 1356.79 759.411 1357.43 759.122Z" fill="#E3E3E3"/>
<path d="M894.114 527.803C897.316 529.655 899.591 528.883 901.462 525.835C898.203 523.694 896.139 525.257 894.114 527.803Z" fill="#E3E3E3"/>
<path d="M821.639 322.739C821.543 327.253 822.257 333.194 827.869 332.674C834.561 332.037 833.018 323.549 836.779 320.424C836.875 315.91 834.889 313.556 831.436 313.923C826.345 314.443 821.774 316.643 821.639 322.739Z" fill="#E3E3E3"/>
<path d="M781.236 475.273C781.063 475.563 781.718 476.392 782.181 477.337C782.933 476.508 783.724 475.91 784.09 475.119C784.245 474.772 783.55 474.039 783.242 473.479C782.547 474.077 781.699 474.559 781.236 475.273Z" fill="#E3E3E3"/>
<path d="M786.076 486.095C786.983 485.748 787.716 484.918 788.584 484.263C787.909 483.742 787.311 483.009 787.002 483.105C786.019 483.452 784.688 483.896 784.341 484.687C783.704 486.153 784.977 486.52 786.076 486.095Z" fill="#E3E3E3"/>
<path d="M790.319 584.904C790.57 585.734 791.746 586.853 792.479 586.853C793.231 586.833 794.485 585.637 794.562 584.866C794.639 583.94 793.713 582.917 793.733 582.975C790.821 582.821 789.972 583.708 790.319 584.904Z" fill="#E3E3E3"/>
<path d="M784.38 598.428C784.939 593.2 785.942 589.226 781.931 586.544C781.044 585.966 777.9 586.795 777.842 587.258C777.225 592.062 780.369 594.743 784.38 598.428Z" fill="#E3E3E3"/>
<path d="M772.114 237.029C768.778 237.106 769.106 240.926 770.012 243.318C772.596 250.263 778.131 249.26 785.537 247.89C781.024 242.392 778.421 236.875 772.114 237.029Z" fill="#E3E3E3"/>
<path d="M897.547 667.181C896.776 669.708 899.052 670.846 900.961 671.888C904.124 671.425 907.286 670.962 910.083 667.702C906.631 667.509 903.777 667.335 900.922 667.181C899.765 666.139 898.145 665.252 897.547 667.181Z" fill="#E3E3E3"/>
<path d="M925.415 636.083C927.613 638.803 930.159 638.842 933.341 637.125C936.6 635.37 940.361 634.521 943.89 633.286C951.199 626.148 946.744 623.525 939.532 621.962C936.427 618.991 932.319 620.38 928.77 619.435C926.63 618.876 923.91 618.374 923.525 615.886C923.1 613.223 925.8 612.355 927.671 611.159C942.964 601.437 944.179 595.302 927.825 582.223C924.663 579.696 921.596 578.943 924.682 573.773C929.079 566.423 923.37 564.128 918.202 566.327C903.757 572.5 888.946 574.892 873.382 575.124C866.767 575.22 859.825 576.86 853.653 579.329C837.068 585.965 821.948 596.112 804.051 599.662C800.927 600.279 798.304 602.208 797.571 605.333C796.8 608.613 798.709 611.294 801.544 612.78C816.76 620.766 830.954 630.682 848.581 633.672C857.915 635.254 867.577 634.964 876.507 640.868C885.262 646.655 900.922 641.967 907.865 634.154C914.055 627.229 918.703 627.788 925.415 636.083Z" fill="#E3E3E3"/>
<path d="M886.535 659.734C888.599 660.14 889.698 660.66 890.682 660.467C891.839 660.255 895.638 661.355 892.745 658.037C891.492 656.59 889.293 657.246 886.535 659.734Z" fill="#E3E3E3"/>
<path d="M798.612 470.296C798.786 473.016 799.48 475.1 802.257 476.643C816.239 484.456 828.987 478.842 841.677 473.19C843.567 472.341 845.495 470.335 845.129 467.885C844.994 466.94 843.123 465.975 841.87 465.493C828.061 460.342 814.581 462.406 801.254 467.499C797.667 459.898 793.926 466.38 790.435 467.557C788.429 468.232 788.005 471.145 789.124 472.36C793.154 476.72 795.411 470.991 798.612 470.296Z" fill="#E3E3E3"/>
<path d="M855.08 249.086C857.51 252.442 860.095 252.327 864.318 249.935C860.654 247.735 858.05 248.237 855.08 249.086Z" fill="#E3E3E3"/>
<path d="M904.682 367.089C908.829 367.609 911.278 366.741 913.573 362.748C909.041 362.112 906.611 363.018 904.682 367.089Z" fill="#E3E3E3"/>
<path d="M831.629 181.142C834.001 181.2 835.911 180.139 835.718 177.496C834.889 173.021 831.591 172.558 828.235 172.133C826.249 171.883 824.147 171.863 825.13 174.661C826.191 177.728 827.579 181.065 831.629 181.142Z" fill="#E3E3E3"/>
<path d="M906.322 308.869C907.306 309.389 908.135 310.103 908.386 309.93C909.138 309.428 909.658 308.56 910.276 307.846C909.697 307.538 908.964 306.862 908.578 307.017C907.788 307.364 907.171 308.136 906.322 308.869Z" fill="#E3E3E3"/>
<path d="M955.847 673.874C954.94 674.202 954.188 674.916 953.378 675.475C954.342 675.745 955.326 676.305 956.232 676.208C957.1 676.112 957.891 675.302 958.624 674.858C957.949 673.045 956.753 673.546 955.847 673.874Z" fill="#E3E3E3"/>
<path d="M898.029 373.088C898.473 373.86 899.861 374.092 900.575 374.439C902.002 374.15 903.545 374.092 902.523 372.51C902.002 371.719 900.671 371.198 899.63 371.044C898.319 370.851 897.316 371.854 898.029 373.088Z" fill="#E3E3E3"/>
<path d="M901.385 343.245C902.619 348.956 903.757 352.216 908.52 355.823C908.404 349.476 906.437 346.602 901.385 343.245Z" fill="#E3E3E3"/>
<path d="M881.155 251.787C882.273 250.436 877.24 233.151 875.639 233.344C873.402 233.614 869.757 233.074 870.432 237.28C870.76 239.363 873.132 241.061 871.377 243.897C869.564 248.507 872.9 251.189 876.295 253.446C877.915 254.526 879.862 253.349 881.155 251.787Z" fill="#E3E3E3"/>
<path d="M922.772 298.49C923.64 298.104 924.238 296.985 924.797 296.079C924.893 295.924 924.103 295.23 923.582 294.632C922.791 295.365 921.75 295.963 921.287 296.87C920.612 298.181 921.384 299.107 922.772 298.49Z" fill="#E3E3E3"/>
<path d="M872.322 523.231C873.19 523.231 874.077 522.17 874.887 521.63C874.694 520.742 874.54 520.106 874.405 519.45C873.498 519.971 872.399 520.337 871.705 521.07C870.953 521.861 870.741 523.231 872.322 523.231Z" fill="#E3E3E3"/>
<path d="M888.965 299.802C888.328 299.84 891.472 302.213 893.343 303.255C897.45 302.522 897.855 298.953 898.357 295.828C898.704 293.571 897.797 291.43 894.963 291.082C888.02 290.253 895.29 299.493 888.965 299.802Z" fill="#E3E3E3"/>
</g>
</mask>
<g mask="url(#mask0)">
<rect y="44" width="1440" height="691.368" fill="#EDEDED"/>
</g>
<path d="M964.5 322C956.302 322 949.682 328.62 949.682 336.818C949.682 339.676 950.595 342.406 951.866 344.649L961.523 361.362C962.128 362.454 963.349 363 964.5 363C965.652 363 966.813 362.454 967.478 361.362L977.135 344.659C978.415 342.415 979.318 339.736 979.318 336.828C979.318 328.63 972.698 322 964.5 322ZM964.5 341.195C961.523 341.195 959.091 338.763 959.091 335.786C959.091 332.808 961.523 330.377 964.5 330.377C967.478 330.377 969.909 332.808 969.909 335.786C969.909 338.773 967.478 341.195 964.5 341.195Z" fill="#BB0909"/>
<defs>
<clipPath id="clip0">
<rect width="1640" height="821" fill="white"/>
</clipPath>
</defs>
</svg>
