<svg width="375" height="188" viewBox="0 0 375 188" fill="none" xmlns="http://www.w3.org/2000/svg">
<mask id="mask0" mask-type="alpha" maskUnits="userSpaceOnUse" x="0" y="0" width="375" height="188">
<g clip-path="url(#clip0)">
<path d="M82.1633 111.137C84.4475 110.012 86.3173 110.903 88.3105 111.821C89.5012 112.372 90.5286 112.121 90.7579 110.634C90.7271 109.761 90.3302 109.249 89.5585 109.081C87.7813 108.698 86.1409 108.08 84.5666 107.101C83.398 106.373 80.5934 108.274 80.5537 109.695C80.5228 110.705 81.2416 111.591 82.1633 111.137Z" fill="#E3E3E3"/>
<path d="M121.384 98.4376C120.877 98.1553 120.383 97.8421 119.885 97.5422C119.748 96.9511 119.589 96.0997 118.848 96.3953C117.913 96.7658 118.641 97.3569 119.003 97.7848C119.585 98.4773 119.126 99.5404 119.88 100.158C119.867 100.405 119.814 100.859 119.841 100.864C121.084 101.08 122.583 101.04 123.104 99.9374C123.726 98.6052 122.09 98.8302 121.384 98.4376Z" fill="#E3E3E3"/>
<path d="M77.7181 19.7615C75.1649 20.0394 76.1659 22.2052 75.844 23.5506C75.5618 24.7327 76.3202 25.9546 77.6652 25.7605C79.6011 25.4826 80.1568 23.727 80.2538 22.0861C80.3464 20.5511 79.1822 19.885 77.7181 19.7615Z" fill="#E3E3E3"/>
<path d="M74.5475 14.9097C73.1276 14.8567 72.7042 16.2638 72.6998 17.5034C72.691 18.8752 73.3039 19.8015 74.8871 19.7265C76.2982 19.6604 76.8803 18.9105 76.823 17.6798C76.845 15.9948 75.8748 14.9582 74.5475 14.9097Z" fill="#E3E3E3"/>
<path d="M76.8802 33.3783C76.9508 33.987 77.4006 34.234 77.965 34.2075C78.4986 34.1855 78.9837 34.0355 78.9748 33.3297C78.7632 32.7254 78.3531 32.3152 77.6828 32.3284C77.0257 32.3417 76.814 32.8137 76.8802 33.3783Z" fill="#E3E3E3"/>
<path d="M76.7349 28.2175C76.8672 28.2925 77.0656 28.4645 77.1229 28.4248C77.2993 28.3057 77.4184 28.1072 77.5595 27.944C77.4316 27.8646 77.2993 27.7852 77.1009 27.6661C76.9774 27.847 76.8583 28.0323 76.7349 28.2175Z" fill="#E3E3E3"/>
<path d="M75.1075 39.2893C75.2001 40.4406 75.9542 41.4772 77.2903 41.3537C78.6926 41.2258 79.3629 40.1539 79.3056 38.8173C79.2571 37.7984 78.6662 37.0706 77.6078 37.0706C76.2893 37.397 74.984 37.7587 75.1075 39.2893Z" fill="#E3E3E3"/>
<path d="M221.579 105.358C221.486 105.177 221.186 105.102 220.904 104.939C220.741 105.195 220.617 105.393 220.494 105.592C220.723 105.68 220.948 105.826 221.177 105.834C221.455 105.843 221.738 105.671 221.579 105.358Z" fill="#E3E3E3"/>
<path d="M124.775 104.63C124.211 103.629 123.655 103.131 122.945 102.795C122.076 102.778 121.159 101.746 120.37 102.773C119.898 103.391 120.744 103.797 120.934 104.322C120.987 105.089 121.477 105.482 122.156 105.649C122.288 105.685 122.605 105.464 122.641 105.314C122.773 104.763 122.627 104.339 121.944 104.33C122.116 104.15 122.284 103.969 122.455 103.788C123.143 104.044 123.836 104.291 124.775 104.63Z" fill="#E3E3E3"/>
<path d="M247.879 102.685C247.72 102.195 247.579 101.754 247.257 100.762C247.032 101.935 246.746 102.601 247.879 102.685Z" fill="#E3E3E3"/>
<path d="M236.506 89.174C234.756 87.8551 233.053 88.4947 231.395 88.6667C230.893 88.7461 230.341 87.4228 229.878 88.7197C229.142 88.9182 228.207 88.4374 227.365 89.5357C228.419 89.4343 229.146 89.3681 229.878 89.2975C229.702 89.6239 229.53 89.9548 229.353 90.2856C227.426 90.4576 225.535 90.0783 223.652 89.9548C222.501 89.8798 220.644 89.5622 219.493 90.8414H219.489C219.405 89.8533 218.682 89.8092 217.937 89.7872C217.584 89.6239 217.231 89.4563 216.883 89.2931C213.681 90.0518 215.626 94.282 212.654 95.2569C213.584 95.2436 214.378 94.7011 215 94.8511C221.09 96.3199 226.69 93.6468 232.506 92.8793C233.274 92.7779 234.601 92.3103 234.46 91.9442C233.71 89.9901 235.602 89.9901 236.506 89.174Z" fill="#E3E3E3"/>
<path d="M253.034 68.6933C254.106 67.617 255.989 66.726 253.7 65.0277C253.33 64.7498 253.347 64.2734 253.572 63.8456C254.908 61.2695 252.831 60.502 251.2 60.127C249.753 59.7962 248.677 59.2669 247.694 58.2391C247.107 57.626 246.433 57.1143 245.476 57.0393C242.931 56.832 240.876 54.0839 237.948 55.6145C237.617 55.7866 236.965 55.4072 236.48 55.2264C233.216 54.0266 229.993 53.7751 226.712 55.2528C225.155 55.9542 223.506 56.1395 221.72 56.1439C220.38 56.1483 218.717 55.5175 217.54 56.4482C215.665 57.9303 213.791 58.0009 211.732 57.1055C211.635 57.8333 211.538 58.5611 211.436 59.3154C210.308 59.236 210.894 57.9436 210.166 57.6392C209.695 58.9758 208.204 57.7054 207.578 58.6493C207.521 60.4932 208.129 61.8782 210.109 62.3149C209.994 64.322 208.292 63.2192 207.402 63.7C207.15 63.7265 206.903 63.6912 206.669 63.5897C206.639 63.4927 206.608 63.3912 206.577 63.2898C206.572 63.2898 206.572 63.2898 206.568 63.2898L206.572 63.2854C206.339 62.5267 206.114 61.7636 205.47 61.2033L205.488 61.2783C205.016 61.3357 204.359 61.3048 204.429 61.9488C204.473 62.3723 205.091 62.2444 205.479 62.2664C205.651 62.4384 205.823 62.6061 205.995 62.7781C205.558 62.8707 204.95 62.659 204.817 63.303C204.791 63.4398 205.223 63.6691 205.448 63.8588C206.065 64.4587 206.837 64.3528 207.591 64.3308C210.907 66.8319 214.492 66.7657 218.135 65.2836C218.858 66.8054 216.825 67.2641 217.09 68.7242C218.532 68.1375 219.511 68.1243 219.087 70.074C218.955 70.6871 219.458 71.4194 219.383 72.0678C219.251 73.2014 219.881 75.7378 217.315 73.4926C216.856 73.0912 216.349 73.5455 215.89 73.7528C215.89 74.4233 215.89 75.0982 215.895 75.7687C217.443 76.5891 214.651 76.545 215.613 77.2464C218.17 77.2243 218.514 77.1273 220.49 75.5746C220.768 75.354 220.94 75.0541 221.332 75.2393C221.711 75.4202 221.742 75.7643 221.641 76.1171C221.486 76.6509 221.297 77.1802 221.107 77.7581C223.506 78.0977 224.701 76.717 225.729 75.0056C226.099 74.3924 226.187 73.8807 225.561 73.4396C224.207 72.4913 222.955 71.04 221.217 72.5795C220.278 68.4684 222.192 67.3656 225.795 68.1816C225.795 68.1772 225.808 68.411 225.795 68.6448C225.588 71.6311 226.708 73.8631 228.635 73.8499C231.51 73.8278 234.434 73.2191 236.493 71.212C237.816 69.9284 239.148 69.7123 240.651 69.677C241.295 69.6638 241.921 69.6329 242.331 69.2668C244.237 67.5729 246.662 68.4287 247.764 69.4653C250.247 71.8075 251.477 70.2637 253.034 68.6933ZM211.67 63.3471C211.851 61.2607 213.461 62.6987 214.316 62.2752C213.491 62.7737 213.143 64.4543 211.67 63.3471ZM229.27 55.791C228.807 56.1659 228.37 56.1703 227.894 55.8086C228.361 55.4028 228.798 55.4513 229.27 55.791ZM234.875 66.7392C234.654 67.2509 234.129 66.9333 233.746 67.0171C230.288 67.7714 227.77 66.7657 226.381 63.3207C226.006 62.3855 225.244 61.6092 224.661 60.7578C223.078 60.5064 223.215 59.611 223.934 58.6229C224.847 57.3701 225.812 57.251 226.708 58.6758C226.888 59.6859 227.479 60.5064 228.361 60.8549C229.706 61.3842 230.469 62.1076 230.522 63.6515C230.562 64.7498 231.558 64.8557 232.462 64.891C233.133 64.9175 233.869 64.7498 234.385 65.3674C234.711 65.76 235.113 66.1834 234.875 66.7392Z" fill="#E3E3E3"/>
<path d="M222.174 144.043C221.288 143.783 220.719 143.571 220.141 144.088C220.737 144.423 221.275 144.348 222.174 144.043Z" fill="#E3E3E3"/>
<path d="M143.499 31.5261C142.965 30.0704 142.357 29.1882 140.681 28.5089C141.404 30.066 141.682 31.2173 143.499 31.5261Z" fill="#E3E3E3"/>
<path d="M117.966 128.009C118.011 128.719 118.641 128.988 119.285 128.909C120.198 128.803 120.961 128.455 120.872 127.308C120.811 126.448 120.321 126.055 119.501 126.249C118.615 126.465 117.9 126.999 117.966 128.009Z" fill="#E3E3E3"/>
<path d="M127.068 81.6885C128.29 82.0017 128.965 82.1738 129.639 82.3502C129.106 81.4371 128.435 81.1989 127.068 81.6885Z" fill="#E3E3E3"/>
<path d="M131.222 82.3191C131.147 82.447 131.068 82.5705 130.949 82.769C131.125 82.8881 131.302 83.0072 131.478 83.1263C131.548 82.994 131.716 82.8043 131.676 82.747C131.575 82.5749 131.381 82.4558 131.222 82.3191Z" fill="#E3E3E3"/>
<path d="M137.524 121.997C137.475 121.887 137.224 121.781 137.105 121.812C136.884 121.869 136.686 122.028 136.315 122.244C136.712 122.354 136.933 122.465 137.149 122.465C137.405 122.46 137.665 122.328 137.524 121.997Z" fill="#E3E3E3"/>
<path d="M78.318 53.4842C78.3092 53.7401 78.2827 53.9959 78.2959 54.2517C78.3533 55.4118 76.5805 57.2424 78.1416 57.5027C79.6762 57.7585 78.1681 55.4604 78.878 54.4943C79.4513 54.609 80.2627 56.1441 80.4127 54.0488C80.5714 51.8257 79.5572 49.9686 79.2 47.3705C77.7139 49.6422 77.4316 51.4816 78.318 53.4842Z" fill="#E3E3E3"/>
<path d="M89.5542 77.0087C90.5287 75.5663 91.005 74.2077 88.9941 72.999C87.3669 72.0242 86.3262 70.4053 85.4442 68.7115C84.6725 67.2338 83.6186 67.0044 82.3706 68.2527C81.6386 68.985 80.8713 69.629 80.8536 70.8244C80.8448 71.5434 80.3818 72.2139 79.6145 72.258C78.9486 72.2933 78.6179 71.6581 78.415 71.067C77.5419 68.5615 76.0117 67.7631 73.4628 69.1702C74.8916 70.6126 74.8387 71.958 73.3217 73.1578C72.4001 73.8856 72.6955 74.8649 72.6514 75.7824C73.1541 76.1662 73.163 76.7352 73.2071 77.291C75.0592 78.235 75.6192 80.4537 77.3567 81.5124C76.4791 81.4991 75.6016 81.4903 74.7284 81.4771C73.8156 81.5256 72.991 82.1211 73.1233 82.871C73.3129 83.9693 74.605 83.0165 75.2444 83.5415C76.1131 83.0342 78.512 84.9618 77.7932 81.9358C80.9242 82.3681 81.0256 82.5093 79.8482 85.2177C79.5307 85.9499 79.3587 86.6866 79.3984 87.4761C79.5483 90.2948 80.4215 90.8771 82.988 89.8758C84.43 89.3111 85.8896 88.7818 87.3096 88.1554C88.1078 87.8026 88.9059 87.8908 88.8751 88.7421C88.7516 92.4562 91.6665 92.3856 93.9728 92.8488C95.9528 93.2502 100.045 90.705 99.926 89.1523C99.754 86.9159 98.1445 85.4647 96.0807 84.8251C94.5064 84.3399 92.8218 84.7854 91.2916 85.2662C89.7085 85.7602 88.9456 85.4206 88.9324 83.7488C88.928 82.9945 88.8133 82.2623 87.9887 82.1387C84.9062 81.6712 86.5776 80.4317 87.5036 79.3289C88.1651 78.5349 88.9809 77.8556 89.5542 77.0087Z" fill="#E3E3E3"/>
<path d="M20.21 9.88553C20.3379 10.1634 20.5981 10.406 20.8583 10.5825C21.0655 10.7236 21.3081 10.6486 21.3654 10.331C21.2904 9.89435 21.0832 9.5547 20.6201 9.47089C20.3379 9.42237 20.0777 9.59881 20.21 9.88553Z" fill="#E3E3E3"/>
<path d="M109.085 92.7114C109.283 92.6629 109.592 92.3894 109.57 92.2615C109.495 91.7674 109.072 91.6483 108.648 91.7366C108.485 91.7718 108.37 92.0497 108.265 92.1821C108.45 92.6144 108.736 92.7996 109.085 92.7114Z" fill="#E3E3E3"/>
<path d="M13.0221 144.118C12.1446 143.377 11.0156 142.499 10.0411 143.174C8.71373 144.1 7.8891 145.609 7.80531 146.84C7.75681 148.895 9.74562 155.102 10.6981 156.478C11.6286 157.828 12.5062 159.147 12.5282 160.933C12.5458 162.212 13.0309 163.496 14.1245 164.352C14.9183 164.974 15.7738 165.931 16.8542 165.278C18.0537 164.554 17.7141 163.341 17.2555 162.265C16.1398 159.649 15.1035 156.99 13.8379 154.449C12.6605 152.08 12.0564 149.808 13.5072 147.356C14.2039 146.182 14.1378 145.062 13.0221 144.118Z" fill="#E3E3E3"/>
<path d="M106.404 123.369C104.106 121.741 102.589 119.068 99.6393 118.318C98.9249 117.586 98.2414 118.04 97.5491 118.362C96.7729 117.864 95.9086 117.581 95.4235 116.602C94.6254 115.001 93.0114 114.63 91.3754 114.26C87.8034 113.453 85.2722 115.354 82.9659 117.515C81.7576 118.649 80.8668 119.236 79.5306 117.97C79.1955 117.652 78.8648 117.378 78.4282 117.753C78.1019 118.036 78.2518 118.375 78.4414 118.666C78.8339 119.275 78.3709 119.831 78.3532 120.413C75.7338 121.631 75.7294 121.648 77.824 123.554C77.9211 125.23 76.1704 127.087 77.6477 128.499C79.8085 130.563 82.3176 132.76 85.5456 132.244C89.6864 131.582 93.6067 129.981 97.9989 130.404C99.9215 130.59 102.082 130.104 103.789 131.035C105.337 131.878 106.796 131.644 108.269 131.578C110.386 131.481 112.203 129.553 112.04 127.714C111.85 125.561 110.765 124.145 108.357 124.423C107.392 124.529 107.012 123.797 106.404 123.369Z" fill="#E3E3E3"/>
<path d="M359.61 168.167C359.605 168.167 359.597 168.172 359.592 168.172C359.597 168.176 359.597 168.18 359.601 168.185C359.605 168.185 359.61 168.185 359.619 168.189C359.614 168.18 359.61 168.176 359.61 168.167Z" fill="#E3E3E3"/>
<path d="M111.316 90.3429C111.44 90.0915 112.154 89.6019 111.211 89.5974C110.823 89.593 110.606 90.1224 110.655 90.9913C110.99 90.6737 111.219 90.5414 111.316 90.3429Z" fill="#E3E3E3"/>
<path d="M78.6397 108.658C79.3232 108.861 79.3276 108.102 79.3761 107.507C79.1733 106.686 79.1733 105.597 78.0708 105.305C77.5725 105.173 77.3696 105.808 77.5416 106.223C77.8812 107.061 77.4931 108.323 78.6397 108.658Z" fill="#E3E3E3"/>
<path d="M375 87.8024C374.74 87.4892 374.506 87.1451 374.299 86.7614C373.893 86.0071 372.976 86.1835 372.178 86.3291C368.738 86.9466 365.127 87.2334 361.784 87.176C357.427 87.101 353.061 87.3789 348.704 87.229C348.36 87.2157 348.012 87.2069 347.668 87.1937C345.79 85.9762 343.933 84.7235 342.557 82.9105C340.948 80.7888 338.461 79.3243 336.313 78.6583C332.3 77.4099 328.816 75.0985 324.795 73.9075C320.032 72.5004 315.807 69.8802 310.445 69.7611C305.947 69.6641 301.67 70.0258 297.48 71.2741C295.818 71.7682 293.97 72.0196 292.462 73.14C289.269 75.5132 287.038 79.0597 283.179 80.6476C282.271 81.0226 281.508 81.8739 281.063 82.8576C280.278 84.5955 278.827 85.4204 277.05 85.7601C273.085 86.5232 269.112 87.2642 265.143 88.0009C264.799 88.0626 264.213 88.4817 264.208 87.7186C264.2 85.8439 262.956 86.7129 262.272 86.9202C258.67 88.0185 255.239 89.6462 251.508 90.3564C250.759 90.4976 249.819 90.7313 250.657 91.865C250.203 93.625 251.521 93.9823 252.699 94.4499C252.694 94.6131 252.694 94.7763 252.69 94.9395C252.117 95.0674 251.438 95.1953 251.376 95.8702C251.327 96.4128 251.839 96.104 252.126 96.0908C251.301 98.1507 250.653 100.22 250.503 102.482C250.379 104.384 249.586 106.739 248.038 107.326C245.793 108.182 244.126 109.986 241.807 110.55C241.811 110.546 241.811 110.541 241.815 110.533C241.807 110.533 241.802 110.537 241.798 110.537C242.155 107.957 242.508 105.38 242.865 102.8C243.787 102.8 244.744 103.718 245.608 102.487C246.3 101.503 246.516 100.242 246.252 99.4035C245.833 98.0669 244.505 99.4873 243.601 99.1432C243.377 99.0594 243.099 99.1124 242.847 99.0991C243.39 96.0026 242.168 94.838 239.125 95.46C238.323 95.6232 237.216 96.5892 236.705 95.1689C236.092 93.4706 234.861 93.8588 233.746 94.1587C231.117 94.8645 228.52 95.685 225.923 96.4966C225.098 96.7524 223.916 95.7644 223.444 97.1097C223.003 98.3713 224.115 98.8609 224.816 99.5932C226.055 100.886 226.597 102.107 225.901 104.203C225.499 105.411 228.807 106.616 227.832 108.975C227.528 109.05 227.034 109.103 227.298 109.522C227.47 109.792 227.995 109.836 228.366 109.981C229.054 110.484 230.129 110.705 230.54 111.181C232.149 113.056 233.807 114.053 236.427 114.538C238.438 114.908 239.174 114.997 239.76 113.148C239.928 113.14 240.091 113.131 240.259 113.131C240.285 114.63 239.5 115.702 238.513 116.743C237.979 117.308 236.656 117.524 237.101 118.592C237.441 119.412 238.587 119.333 239.377 119.65C240.153 119.959 240.894 119.628 241.657 119.536C243.804 119.275 246.181 119.214 247.641 120.868C248.995 122.398 250.15 122.742 251.865 121.979C253.497 121.251 255.433 120.78 255.023 118.314C254.842 117.22 255.671 117.237 256.302 117.136C257.073 117.008 257.369 117.599 257.47 118.23C258.004 121.521 259.159 122.204 261.977 120.762C262.7 120.391 263.291 120.524 263.931 120.846C264.636 121.199 265.254 121.212 265.686 120.427C265.928 120.674 266.171 120.925 266.418 121.172C266.4 121.375 266.444 121.512 266.696 121.454C267.591 122.597 268.345 123.995 270.223 123.179C270.642 122.998 271.136 123.157 271.229 123.682C271.621 125.817 273.151 125.155 274.466 125.041C274.66 125.049 274.854 125.063 275.048 125.071C275.162 127.101 276.119 126.686 277.442 126.051C279.308 125.151 281.133 124.026 283.316 124C283.307 124.172 283.298 124.344 283.281 124.516C283.197 124.533 283.109 124.542 283.029 124.577C279.929 125.892 279.321 126.929 279.982 129.297C280.807 132.266 282.61 131.304 284.418 130.519C284.965 130.281 285.53 130.413 285.812 130.854C286.297 131.609 285.547 131.935 285.076 132.213C282.849 133.541 281.442 135.199 281.803 138.062C281.993 139.571 283.823 140.391 283.753 141.013C283.32 144.661 286.416 144.462 288.502 145.711C285.772 146.858 286.888 147.885 288.436 148.9C289.371 149.513 290.222 150.506 291.232 150.704C294.023 151.251 295.831 153.029 297.277 155.181C298.433 156.902 299.663 157.18 301.409 156.324C303.729 155.19 306.009 153.937 308.527 153.289C310.427 152.799 311.984 152.866 312.791 155.256C313.576 157.59 316.257 158.119 318.361 156.747C320.376 155.433 322.294 154.714 324.803 156.205C326.506 157.219 328.852 157.824 330.708 155.83C331.392 155.093 332.419 155.076 333.297 154.745C335.973 153.735 338.655 152.892 341.574 153.505C343.563 153.924 345.798 153.346 347.545 153.889C350.045 154.67 352.435 154.573 354.9 154.612C355.438 154.621 355.972 154.63 356.51 154.634C357.189 154.63 357.868 154.63 358.547 154.626C358.895 154.282 359.248 153.942 359.597 153.598C361.475 152.283 363.429 151.141 365.797 150.982C365.982 151.158 366.163 151.335 366.344 151.516C366.216 151.992 365.043 152.283 365.876 152.857C366.683 153.413 367.446 152.852 367.953 152.08C369.386 152.623 367.887 153.06 367.9 153.554C366.723 154.087 364.752 154.065 365.007 155.839C365.259 157.585 367.089 157.193 368.421 157.255C368.593 157.263 368.765 157.263 368.937 157.272C368.937 157.427 368.941 157.581 368.937 157.735C368.363 158.194 367.68 158.56 367.248 159.125C366.405 160.228 367.636 159.637 367.909 159.839C368.985 160.964 367.711 161.626 367.389 162.477C366.304 162.654 365.215 162.804 364.134 163.015C362.842 163.271 362.419 164.228 363.477 164.917C365.179 166.019 364.787 167.254 364.289 168.666C364.134 168.825 363.98 168.984 363.821 169.147C363.808 168.975 363.79 168.807 363.782 168.635C363.715 167.621 363.46 166.628 362.225 166.699C360.703 166.787 361.638 168.026 361.524 168.715C361.361 169.694 362 170.907 360.254 171.626C360.743 170.175 360.408 169.098 359.601 168.159C357.524 167.546 355.937 169.575 353.908 169.222C353.555 169.389 353.202 169.553 352.854 169.72C351.747 167.554 351.747 167.554 350.781 168.67C349.935 168.066 350.764 166.527 349.344 166.161C348.947 166.999 348.559 167.823 348.171 168.648C347.853 168.313 347.531 167.973 347.214 167.638C346.403 166.196 347.346 163.615 344.52 163.479C344.445 163.487 344.414 163.54 344.4 163.607C344.281 163.734 344.162 163.867 344.043 163.995C342.57 163.571 340.983 162.574 339.642 162.839C336.013 163.549 332.688 164.925 330.479 168.366C328.34 171.696 325.738 174.767 322.656 177.276C317.999 181.074 317.457 180.642 314.039 177.312C311.728 175.062 309.087 173.959 305.925 175.658C305.585 175.838 305.347 175.772 305.003 175.609C301.215 173.792 297.202 173.421 293.075 173.778C291.823 173.889 290.672 174.122 290.085 175.415C289.9 175.605 289.715 175.794 289.529 175.984C289.6 176.019 289.675 176.046 289.746 176.077C289.675 176.059 289.604 176.032 289.529 175.984C287.871 177.92 284.908 176.954 283.144 178.798C283.995 179.888 285.009 179.522 286.006 179.301C286.443 179.204 286.91 179.169 287.042 179.729C287.13 180.104 286.879 180.395 286.522 180.496C285.358 180.832 284.286 181.101 285.719 182.534C286.116 182.931 285.693 183.518 285.084 183.655C284.335 183.827 283.766 184.1 284.044 185.296C284.987 184.656 285.909 184.638 286.716 185.494C288.996 187.911 291.54 186.703 294.063 186.032C295.994 185.521 298.014 185.882 299.571 186.804C303.389 189.072 307.341 191.233 310.361 194.634C308.403 195.931 307.005 193.103 304.95 193.968C306.445 195.613 308.439 195.772 310.326 196.169C311.358 197.263 313.347 197.034 313.916 198.767C311.539 198.785 310.573 198.869 310.326 199.821H375.013V87.8024H375Z" fill="#E3E3E3"/>
<path d="M219.224 194.065C217.248 193.443 215.833 192.313 214.506 190.796C211.789 187.691 209.121 187.219 205.223 188.961C204.575 189.252 203.918 189.645 203.261 189.301C201.492 188.37 199.715 188.957 197.951 189.164C197.254 189.248 196.655 189.155 195.971 189.04C192.443 188.454 190.49 184.241 186.424 184.947C186.243 184.978 185.912 184.51 185.758 184.215C185.225 183.213 184.276 182.865 183.311 182.446C180.202 181.092 176.811 180.28 173.618 179.715C170.999 179.252 166.646 177.673 165.239 182.56C165.147 182.887 164.609 183.125 164.229 183.324C161.848 184.563 159.48 185.842 157.05 186.985C154.973 187.96 153.386 186.985 153.112 184.66C153.002 183.721 153.139 182.746 152.971 181.819C152.738 180.527 151.931 179.596 150.608 180.439C146.348 183.156 141.643 183.504 136.964 182.591C134.428 182.097 131.976 183.315 129.591 182.353C128.418 181.877 127.328 181.996 126.116 182.009C124.33 182.031 122.98 183.359 121.15 183.107C118.884 182.799 116.568 183.209 114.271 182.763C112.472 182.415 111.127 183.703 110.593 185.062C110.099 186.319 109.601 187.095 108.357 187.554C107.564 187.845 107.524 188.665 108.428 188.701C111.823 188.833 108.018 190.518 109.054 191.528C109.857 192.309 108.34 192.627 107.687 192.525C105.341 192.155 103.374 193.024 101.928 194.638C100.799 195.895 99.604 196.288 98.0826 196.27C94.9031 196.12 91.6575 195.714 89.2057 198.498C88.8837 198.864 88.1649 199.159 88.6015 199.711C88.6412 199.764 88.6853 199.808 88.7294 199.856H95.3882C95.472 199.592 95.5117 199.278 95.4984 198.89C95.4455 196.98 96.2834 196.327 98.0738 197.263C98.3604 198.105 98.5456 198.996 98.7925 199.861H108.706C108.851 199.049 109.037 198.246 109.253 197.448C109.61 196.147 110.307 195.119 111.581 194.554C111.237 195.763 110.642 196.839 110.783 198.096C110.853 198.736 111.016 199.411 111.36 199.861H223.091C222.606 197.443 222.17 194.991 219.224 194.065Z" fill="#E3E3E3"/>
<path d="M360.342 166.787C360.157 166.452 359.804 166.363 359.508 166.624C358.895 167.162 359.451 167.66 359.61 168.168C360.408 168.009 360.792 167.603 360.342 166.787Z" fill="#E3E3E3"/>
<path d="M69.8513 78.3887C69.8336 78.4416 69.9174 78.5695 69.9792 78.5872C70.623 78.7769 70.8126 78.2564 71.0816 77.8638C70.6318 77.9476 70.0541 77.7314 69.8513 78.3887Z" fill="#E3E3E3"/>
<path d="M68.9206 88.9891C70.2391 88.9583 71.4298 88.7951 72.5808 89.6332C72.8277 89.814 73.4363 89.6817 73.7758 89.4964C74.2344 89.2494 74.1859 88.6715 73.8861 88.376C72.8674 87.3747 72.9247 86.1881 72.8189 84.8736C72.713 83.5812 70.0628 83.3297 70.9535 81.2918C70.636 81.1816 70.3185 81.0757 69.9305 80.9434C69.5689 81.1683 68.8986 81.4198 68.9162 81.5962C69.1279 83.5856 67.5624 84.8339 66.9847 86.4792C66.3541 88.2701 67.5933 89.02 68.9206 88.9891Z" fill="#E3E3E3"/>
<path d="M71.0903 77.8641L71.0859 77.8597L71.0815 77.8641C71.0859 77.8641 71.0903 77.8641 71.0903 77.8641Z" fill="#E3E3E3"/>
<path d="M74.1375 119.112C75.3281 118.698 76.898 118.565 77.2684 116.986C77.1009 115.513 75.9102 115.539 75.0988 115.61C73.7538 115.72 72.6778 116.682 72.4397 117.961C72.2986 118.737 73.5201 119.328 74.1375 119.112Z" fill="#E3E3E3"/>
<path d="M77.0215 113.567C77.4051 113.594 77.7888 113.625 78.1725 113.651C78.1857 113.501 78.1989 113.355 78.2165 113.205C77.8329 113.205 77.4536 113.201 77.07 113.219C77.0479 113.223 77.0391 113.448 77.0215 113.567Z" fill="#E3E3E3"/>
<path d="M65.1987 75.2483C64.5813 76.801 65.3795 77.9743 67.0155 77.67C68.2414 77.4406 69.3836 76.7833 70.5654 76.3158C71.9236 76.4702 70.9887 75.0895 71.6149 74.7499C71.2048 73.1178 72.6027 71.3048 71.6458 69.9374C70.292 68.0053 71.0064 67.1716 72.982 66.4615C72.3866 66.3468 71.8883 66.4879 71.756 66.3247C70.3052 64.5603 68.4619 65.4778 66.7862 65.6145C65.3662 65.7292 64.3785 66.2586 65.0796 68.1244C65.891 70.2947 63.276 72.7825 65.5735 74.9042C65.4412 75.0189 65.256 75.1071 65.1987 75.2483Z" fill="#E3E3E3"/>
<path d="M98.3736 188.948C97.4431 190.664 97.0374 191.29 99.1321 191.03C101.597 190.986 104.111 188.908 104.402 186.915C104.503 186.231 104.102 186.068 103.586 185.856C100.993 184.806 100.274 185.45 98.3736 188.948Z" fill="#E3E3E3"/>
<path d="M71.5444 58.12C71.54 57.6392 71.3416 57.2466 70.7639 57.3878C69.7408 57.6392 69.1763 58.4288 68.9029 59.3463C68.7662 59.7962 69.2601 60.052 69.7849 60.0168C70.6933 59.7036 71.5532 59.3066 71.5444 58.12Z" fill="#E3E3E3"/>
<path d="M87.1508 136.006C86.2732 136.028 85.3604 136.108 85.2634 137.246C85.2193 137.793 85.6911 137.943 86.1541 137.757C86.895 137.466 87.9489 137.757 88.3017 136.588C88.1871 135.958 87.6447 135.993 87.1508 136.006Z" fill="#E3E3E3"/>
<path d="M61.036 65.2663C60.5597 65.4427 60.4671 65.9059 60.7449 66.3294C61.1021 66.8719 61.7283 66.7925 62.1076 66.5323C63.7656 65.4119 65.7545 64.5341 65.653 61.7639C64.1405 62.977 62.919 64.5782 61.036 65.2663Z" fill="#E3E3E3"/>
<path d="M197.748 46.1746C197.021 45.3145 196.059 45.3101 194.926 45.4865C195.57 46.5407 196.333 47.123 197.453 46.9642C197.801 46.9157 198.004 46.4746 197.748 46.1746Z" fill="#E3E3E3"/>
<path d="M172.692 62.3546C172.824 62.4516 172.904 62.6237 173.018 62.7516C173.495 63.2853 174.002 63.7794 174.773 63.2809C175.483 62.8222 175.492 62.134 175.179 61.4635C174.893 60.8504 174.628 60.0344 174.112 59.7476C171.082 58.0759 169.098 55.094 166.055 53.4575C164.962 52.5841 163.842 51.7725 162.003 51.7945C162.999 53.2987 164.697 52.9414 165.561 53.9471C166.523 55.491 167.533 58.3626 168.441 58.3317C171.647 58.2258 171.135 61.2518 172.692 62.3546Z" fill="#E3E3E3"/>
<path d="M241.961 37.4721C242.327 37.6045 242.614 37.3089 242.468 36.9163C242.362 36.6385 242.076 36.4311 241.767 36.0782C241.586 36.3914 241.357 36.6208 241.405 36.7399C241.516 37.0222 241.71 37.3839 241.961 37.4721Z" fill="#E3E3E3"/>
<path d="M251.689 6.27285C251.804 6.07876 251.879 5.85821 251.967 5.64648C251.826 5.59355 251.68 5.5362 251.464 5.45239C251.407 5.68618 251.323 5.90232 251.314 6.12729C251.31 6.1714 251.676 6.29491 251.689 6.27285Z" fill="#E3E3E3"/>
<path d="M166.011 106.968C166.143 107.114 166.271 107.26 166.368 107.37C166.8 107.282 167.118 107.171 167.113 106.77C167.113 106.682 166.849 106.501 166.774 106.527C166.505 106.638 166.262 106.814 166.011 106.968Z" fill="#E3E3E3"/>
<path d="M169.565 107.122C169.521 107.497 169.782 107.7 170.134 107.784C170.509 107.797 170.805 107.643 170.849 107.263C170.893 106.888 170.633 106.659 170.275 106.615C169.909 106.562 169.61 106.743 169.565 107.122Z" fill="#E3E3E3"/>
<path d="M163.608 106.713C164.035 107.141 164.719 106.982 165.155 106.051C164.67 106.003 164.41 105.914 164.185 105.963C163.797 106.051 163.14 106.245 163.608 106.713Z" fill="#E3E3E3"/>
<path d="M216.371 153.849C215.449 153.871 214.717 152.888 213.143 153.774C214.497 154.079 215.396 154.282 216.296 154.485C216.322 154.273 216.344 154.061 216.371 153.849Z" fill="#E3E3E3"/>
<path d="M216.406 150.06C216.172 150.078 215.851 150.161 215.745 150.333C215.564 150.616 215.793 150.783 216.159 150.819C216.336 150.726 216.636 150.664 216.759 150.479C216.993 150.122 216.635 150.042 216.406 150.06Z" fill="#E3E3E3"/>
<path d="M235.302 52.8664C235.386 52.5091 235.126 52.2797 234.711 52.1121C234.588 52.2179 234.323 52.3282 234.288 52.4914C234.217 52.8487 234.451 53.1354 234.795 53.1884C234.954 53.2104 235.267 53.0119 235.302 52.8664Z" fill="#E3E3E3"/>
<path d="M219.991 80.8988C220.08 81.1326 220.168 81.362 220.26 81.5958C221.561 81.0268 222.867 80.4533 224.168 79.8843C222.536 79.5623 221.266 80.2416 219.991 80.8988Z" fill="#E3E3E3"/>
<path d="M213.258 149.076C213.915 149.107 213.703 148.384 213.818 147.965C214.47 147.705 215.127 147.444 215.868 147.149C214.448 146.236 213.619 147.122 212.768 147.921C212.83 148.357 212.631 149.046 213.258 149.076Z" fill="#E3E3E3"/>
<path d="M77.5992 4.83461C77.1802 5.56685 76.9157 7.16806 78.2518 7.00485C80.0731 6.77548 82.0531 5.35512 81.0432 8.94131C81.0168 9.04276 81.4004 9.27655 81.6121 9.42212C82.4544 9.99555 82.2956 10.6087 81.8723 11.4159C80.7125 13.6259 82.3309 14.314 83.9581 14.8257C84.7651 15.0771 85.6823 14.9492 86.5158 15.1521C88.0416 15.5182 88.6545 16.3122 87.3977 17.684C86.357 18.8221 84.8753 19.7705 84.3285 21.107C82.3529 25.946 83.5392 30.7275 85.7749 35.1033C86.4584 36.4487 87.508 38.5042 89.9069 38.416C92.3235 38.3278 92.663 39.682 91.8075 41.6493C90.8197 43.921 90.2244 46.4971 90.8153 48.7291C91.8296 52.5579 91.0667 56.2235 90.0789 59.6376C89.0161 63.3165 89.5365 65.7425 92.8923 68.001C93.0643 68.1775 93.2407 68.3539 93.4127 68.5347C95.6132 69.0861 97.8357 69.664 98.9734 71.9004C100.169 74.2515 101.319 76.6335 102.343 79.0595C104.133 83.3074 106.272 87.0965 111.462 87.8111C112.463 87.9478 113.433 88.4286 114.386 88.83C115.197 89.1741 116.216 89.9372 115.629 90.7003C113.879 92.9764 116.277 93.1926 117.111 93.3426C119.642 93.7837 122.222 93.9689 124.846 94.4894C123.011 92.7691 120.815 91.6399 119.082 89.8578C115.907 86.5936 113.085 83.1354 110.823 79.1478C108.997 75.9277 107.286 72.6767 105.619 69.3728C103.233 64.6486 103.026 59.1657 100.071 54.6664C99.1675 53.2901 99.216 51.3625 100.049 49.9289C101.959 46.6338 101.862 43.6034 99.5908 40.5819C98.8764 39.6291 99.0175 38.6454 99.6526 37.697C100.235 36.8236 100.706 35.9635 100.504 34.8122C100.314 33.7315 101.121 33.2904 102.016 33.0566C105.39 32.1788 108.878 32.4082 111.854 33.8462C114.522 35.1386 117.054 35.8047 119.964 35.8841C122.703 35.9591 125.781 35.2753 127.734 38.341C128.219 39.0997 129.48 39.3026 130.53 39.5232C133.992 40.2378 137.418 41.1156 140.871 41.8655C141.956 42.0993 142.829 42.5007 143.257 43.5814C143.684 44.0666 144.103 44.565 144.879 44.3313C144.796 43.6299 144.231 43.3917 143.799 43.0476C143.384 40.2069 141.127 39.8408 138.917 39.4129C135.257 38.7072 135.297 38.716 135.442 35.1166C135.495 33.7712 135.218 32.4126 135.284 31.0672C135.328 30.185 135.659 29.3381 134.433 29.0558C133.67 29.1219 132.982 28.8881 132.325 28.5308C127.518 27.5913 123.377 24.8873 118.769 23.3831C117.53 22.9773 117.076 21.107 115.779 20.2601C113.279 18.6236 113.455 18.3589 115.722 16.6651C116.78 15.8755 117.243 17.4547 117.984 16.7489C117.301 14.3757 117.9 13.617 120.436 12.9598C124.242 11.9717 128.03 10.891 130.953 7.97088C131.478 7.44596 132.223 6.99162 132.938 6.82841C135.407 6.2638 136.329 4.78609 135.98 2.33795C135.87 1.57484 135.963 0.785258 135.963 0.00891113C128.351 0.00891113 120.74 0.00891113 113.129 0.00891113C111.784 1.51308 110.17 2.22326 108.088 2.14386C106.003 2.06447 104.151 2.92903 102.863 4.58318C101.319 6.57698 99.9921 8.71635 100.146 11.4203C100.283 13.8685 98.7397 15.3153 96.8347 16.2372C95.0575 17.0974 93.739 15.8314 92.5969 14.5698C91.8913 13.7935 90.952 13.2994 90.2112 12.5848C88.9985 11.4071 88.8133 9.28537 90.1274 8.75163C93.5538 7.36215 95.7455 4.17295 99.2028 2.89816C100.495 2.42176 101.584 1.6807 100.671 0.00891113C92.8879 0.00891113 85.1046 0.00891113 77.3214 0.00891113C78.3841 1.55278 78.5958 3.09224 77.5992 4.83461Z" fill="#E3E3E3"/>
<path d="M362.503 156.002C364.02 156.35 363.645 155.005 363.755 154.158C363.521 153.531 364.888 152.102 363.257 152.354C362.097 152.535 360.673 153.47 360.655 155.19C360.399 157.263 361.934 155.874 362.503 156.002Z" fill="#E3E3E3"/>
<path d="M119.708 17.8779C119.501 17.9396 119.258 18.1734 119.214 18.3719C119.183 18.5175 119.452 18.7248 119.642 18.985C119.871 18.7027 120.105 18.5351 120.158 18.319C120.229 18.0234 119.995 17.7896 119.708 17.8779Z" fill="#E3E3E3"/>
<path d="M10.6717 141.331C10.8525 141.49 11.5889 140.996 12.0784 140.85C14.8566 140.021 17.5333 139.05 20.5717 139.006C23.663 138.962 26.9306 138.631 29.5412 136.47C31.0758 136.611 32.606 136.748 34.1406 136.889C34.8021 136.951 35.7414 137.233 35.7722 136.28C35.7899 135.654 34.8506 135.01 34.2288 135.204C32.6369 135.707 30.992 135.632 29.3825 135.822C29.1884 135.663 28.8489 135.8 28.4961 135.954C18.9974 135.253 9.4987 134.062 0 135.989C0 137.718 0 139.447 0 141.181C3.53224 141.988 7.13505 138.159 10.6717 141.331Z" fill="#E3E3E3"/>
<path d="M119.206 78.9138C121.212 78.5609 122.65 79.3813 124.563 80.59C122.103 77.5066 121.375 77.2949 119.206 78.9138Z" fill="#E3E3E3"/>
<path d="M296.814 188.392C297.418 188.939 298.067 189.168 298.847 188.657C298.314 187.88 297.533 187.951 296.783 187.942C295.981 187.982 295.147 187.664 294.332 188.176C295.165 188.639 296.007 188.335 296.814 188.392Z" fill="#E3E3E3"/>
<path d="M308.112 173.02C306.988 172.481 306.106 172.177 305.259 172.892C304.792 173.289 305.162 173.708 305.506 173.928C306.529 174.577 307.239 173.999 308.112 173.02Z" fill="#E3E3E3"/>
<path d="M266.36 173.999C267.846 173.558 268.839 173.355 269.875 171.996C268.446 172.486 267.485 172.759 266.36 173.999Z" fill="#E3E3E3"/>
<path d="M355.31 167.166C356.271 167.863 357.202 167.678 357.731 166.743C358.278 165.777 357.484 165.115 356.69 164.74C355.319 164.096 353.89 163.571 352.056 162.821C352.572 165.168 353.93 166.169 355.31 167.166Z" fill="#E3E3E3"/>
<path d="M310.388 173.58C310.317 173.435 310.26 173.187 310.181 173.179C309.978 173.157 309.766 173.245 309.559 173.285C309.696 173.448 309.806 173.646 309.978 173.757C310.044 173.801 310.242 173.646 310.388 173.58Z" fill="#E3E3E3"/>
<path d="M204.447 120.687C205.179 121.111 205.699 120.934 206.127 120.237C205.382 119.748 204.91 120.105 204.447 120.687Z" fill="#E3E3E3"/>
<path d="M187.875 73.7973C187.853 74.8295 188.016 76.1881 189.299 76.069C190.829 75.9235 190.477 73.9826 191.337 73.268C191.359 72.2358 190.904 71.6976 190.115 71.7815C188.951 71.9006 187.906 72.4034 187.875 73.7973Z" fill="#E3E3E3"/>
<path d="M178.636 108.676C178.597 108.742 178.747 108.931 178.852 109.148C179.024 108.958 179.205 108.821 179.289 108.64C179.324 108.561 179.166 108.393 179.095 108.265C178.936 108.402 178.742 108.512 178.636 108.676Z" fill="#E3E3E3"/>
<path d="M179.743 111.15C179.95 111.071 180.118 110.881 180.316 110.731C180.162 110.612 180.025 110.445 179.955 110.467C179.73 110.546 179.426 110.647 179.346 110.828C179.201 111.163 179.492 111.247 179.743 111.15Z" fill="#E3E3E3"/>
<path d="M180.713 133.744C180.771 133.933 181.04 134.189 181.207 134.189C181.379 134.185 181.666 133.911 181.683 133.735C181.701 133.523 181.489 133.289 181.494 133.303C180.828 133.267 180.634 133.47 180.713 133.744Z" fill="#E3E3E3"/>
<path d="M179.355 136.836C179.483 135.641 179.712 134.732 178.795 134.119C178.592 133.986 177.874 134.176 177.86 134.282C177.719 135.38 178.438 135.993 179.355 136.836Z" fill="#E3E3E3"/>
<path d="M176.551 54.199C175.788 54.2166 175.863 55.09 176.07 55.637C176.661 57.2249 177.927 56.9956 179.62 56.6824C178.588 55.4252 177.993 54.1637 176.551 54.199Z" fill="#E3E3E3"/>
<path d="M205.232 152.556C205.055 153.134 205.576 153.395 206.012 153.633C206.736 153.527 207.459 153.421 208.098 152.676C207.309 152.631 206.656 152.592 206.004 152.556C205.739 152.318 205.369 152.115 205.232 152.556Z" fill="#E3E3E3"/>
<path d="M211.604 145.446C212.107 146.068 212.689 146.077 213.416 145.684C214.162 145.283 215.021 145.089 215.828 144.807C217.5 143.175 216.481 142.575 214.832 142.217C214.122 141.538 213.183 141.856 212.371 141.639C211.882 141.512 211.26 141.397 211.172 140.828C211.075 140.219 211.692 140.021 212.12 139.747C215.617 137.524 215.895 136.121 212.155 133.131C211.432 132.553 210.731 132.381 211.436 131.198C212.442 129.518 211.136 128.993 209.955 129.496C206.652 130.907 203.265 131.454 199.706 131.507C198.194 131.529 196.606 131.904 195.195 132.469C191.403 133.986 187.945 136.306 183.853 137.118C183.139 137.259 182.539 137.7 182.371 138.415C182.195 139.165 182.632 139.778 183.28 140.118C186.759 141.944 190.005 144.211 194.035 144.895C196.17 145.257 198.379 145.19 200.421 146.54C202.423 147.863 206.003 146.792 207.591 145.005C209.007 143.422 210.069 143.549 211.604 145.446Z" fill="#E3E3E3"/>
<path d="M202.714 150.854C203.186 150.947 203.437 151.066 203.662 151.022C203.927 150.973 204.795 151.225 204.134 150.466C203.847 150.135 203.344 150.285 202.714 150.854Z" fill="#E3E3E3"/>
<path d="M182.61 107.537C182.649 108.159 182.808 108.636 183.443 108.988C186.64 110.775 189.555 109.491 192.457 108.199C192.889 108.005 193.33 107.546 193.246 106.986C193.215 106.77 192.787 106.549 192.501 106.439C189.343 105.261 186.261 105.733 183.214 106.898C182.393 105.16 181.538 106.642 180.74 106.911C180.281 107.065 180.184 107.731 180.44 108.009C181.362 109.006 181.878 107.696 182.61 107.537Z" fill="#E3E3E3"/>
<path d="M195.521 56.9556C196.077 57.7231 196.668 57.6966 197.634 57.1497C196.796 56.6468 196.201 56.7615 195.521 56.9556Z" fill="#E3E3E3"/>
<path d="M206.863 83.9379C207.811 84.057 208.371 83.8585 208.896 82.9454C207.86 82.7999 207.304 83.0072 206.863 83.9379Z" fill="#E3E3E3"/>
<path d="M190.159 41.4199C190.702 41.4331 191.138 41.1905 191.094 40.5862C190.904 39.5628 190.15 39.457 189.383 39.3599C188.929 39.3026 188.448 39.2982 188.673 39.9378C188.916 40.6391 189.233 41.4022 190.159 41.4199Z" fill="#E3E3E3"/>
<path d="M207.238 70.6253C207.463 70.7444 207.653 70.9076 207.71 70.8679C207.882 70.7532 208.001 70.5547 208.142 70.3915C208.01 70.3209 207.842 70.1665 207.754 70.2018C207.573 70.2812 207.432 70.4577 207.238 70.6253Z" fill="#E3E3E3"/>
<path d="M218.562 154.087C218.355 154.162 218.183 154.325 217.998 154.453C218.219 154.515 218.443 154.643 218.651 154.621C218.849 154.599 219.03 154.413 219.197 154.312C219.043 153.897 218.77 154.012 218.562 154.087Z" fill="#E3E3E3"/>
<path d="M205.342 85.3101C205.443 85.4865 205.761 85.5395 205.924 85.6189C206.251 85.5527 206.603 85.5395 206.37 85.1777C206.251 84.9969 205.946 84.8778 205.708 84.8425C205.408 84.7984 205.179 85.0278 205.342 85.3101Z" fill="#E3E3E3"/>
<path d="M206.109 78.4862C206.392 79.7919 206.652 80.5374 207.741 81.3622C207.715 79.911 207.265 79.2537 206.109 78.4862Z" fill="#E3E3E3"/>
<path d="M201.484 57.5732C201.739 57.2644 200.588 53.3121 200.222 53.3562C199.711 53.418 198.877 53.2944 199.032 54.2561C199.107 54.7325 199.649 55.1206 199.248 55.7691C198.833 56.8233 199.596 57.4364 200.372 57.9525C200.743 58.1995 201.188 57.9305 201.484 57.5732Z" fill="#E3E3E3"/>
<path d="M211 68.2522C211.198 68.164 211.335 67.9081 211.463 67.7008C211.485 67.6655 211.304 67.5067 211.185 67.37C211.004 67.5376 210.766 67.6744 210.66 67.8817C210.506 68.1816 210.682 68.3934 211 68.2522Z" fill="#E3E3E3"/>
<path d="M199.464 119.642C199.662 119.642 199.865 119.399 200.05 119.276C200.006 119.073 199.971 118.927 199.94 118.777C199.733 118.896 199.481 118.98 199.323 119.148C199.151 119.328 199.102 119.642 199.464 119.642Z" fill="#E3E3E3"/>
<path d="M203.269 68.5525C203.124 68.5613 203.843 69.1038 204.27 69.342C205.21 69.1744 205.302 68.3584 205.417 67.6438C205.496 67.1277 205.289 66.6381 204.641 66.5587C203.053 66.369 204.716 68.4819 203.269 68.5525Z" fill="#E3E3E3"/>
</g>
</mask>
<g mask="url(#mask0)">
<rect y="-12" width="376" height="180" fill="#EDEDED"/>
</g>
<defs>
<clipPath id="clip0">
<rect width="375" height="187.729" fill="white"/>
</clipPath>
</defs>
</svg>
