<svg width="810" height="202" viewBox="0 0 810 202" fill="none" xmlns="http://www.w3.org/2000/svg">
<path d="M745.721 155.384C745.721 175.824 729.652 192.648 709.245 193.587L542.23 201.314L342.731 200.688C328.615 200.612 323.586 185.126 323.586 175.316L324.072 23.1723C324.072 13.3733 328.615 1.84758 346.141 1.10294H546.417L708.899 7.09243C729.458 7.84786 745.732 24.7372 745.732 45.3173V155.384H745.721Z" fill="white"/>
<path d="M346.131 201.702C333.752 201.702 323.684 191.634 323.684 179.255V23.1723C323.684 10.794 333.752 0.72522 346.131 0.72522H534.892L710.4 7.35144C730.419 8.10687 746.1 24.3918 746.1 44.4216V156.841C746.1 176.741 730.527 193.026 710.648 193.9L535.01 201.702H346.131ZM534.881 1.48065H346.131C334.173 1.48065 324.439 11.2149 324.439 23.1723V179.255C324.439 191.213 334.173 200.947 346.131 200.947H534.989L710.605 193.145C730.074 192.281 745.333 176.331 745.333 156.841V44.4216C745.333 24.8019 729.976 8.84072 710.368 8.10687L534.881 1.48065ZM346.131 197.159C336.256 197.159 328.227 189.13 328.227 179.255V23.1723C328.227 13.2978 336.256 5.26861 346.131 5.26861H534.805L710.227 11.8948C727.797 12.5531 741.556 26.8416 741.556 44.4216V156.841C741.556 174.302 727.894 188.59 710.443 189.367L534.902 197.159H346.131ZM534.794 6.02403H346.131C336.677 6.02403 328.982 13.7186 328.982 23.1723V179.255C328.982 188.709 336.677 196.404 346.131 196.404H534.892L710.411 188.612C727.451 187.856 740.801 173.903 740.801 156.841V44.4216C740.801 27.2517 727.365 13.2978 710.206 12.6503L534.794 6.02403Z" fill="#8FBAB8"/>
<path d="M631.457 201.357C630.033 201.357 628.608 201.346 627.184 201.325L394.273 200.505C387.787 200.483 381.215 200.17 374.729 199.576L256.04 188.709C213.099 185.795 171.464 175.187 132.311 157.197L78.848 132.624L22.1691 107.457H0.725586V94.7441H22.1906L79.1502 70.0846L132.473 45.3712C171.518 27.2732 213.067 16.5353 255.997 13.4596L379.251 3.11022C382.737 2.86201 386.255 2.71092 389.719 2.66775L628.684 1.10293C636.141 1.0058 643.706 1.22164 651.163 1.75044L779.533 9.29397C796.217 10.4703 809.275 24.4781 809.275 41.184V160.218C809.275 176.795 796.336 190.792 779.813 192.087L652.62 200.559C645.616 201.077 638.515 201.357 631.457 201.357ZM1.48102 106.702L22.4065 106.734L79.161 131.933L132.624 156.506C171.691 174.464 213.239 185.04 256.105 187.954L374.794 198.821C381.258 199.415 387.809 199.717 394.273 199.749L627.184 200.569C635.634 200.699 644.159 200.44 652.555 199.782L779.749 191.31C795.872 190.047 808.509 176.385 808.509 160.197V41.1624C808.509 24.8559 795.753 11.1825 779.468 10.0278L651.099 2.48429C643.663 1.95549 636.119 1.73965 628.673 1.83678L389.708 3.4016C386.255 3.44477 382.747 3.59585 379.283 3.84406L256.029 14.1935C213.185 17.2692 171.723 27.9747 132.764 46.0403L79.4308 70.7645L22.3202 95.4887H1.48102V106.702ZM631.436 196.814C630.033 196.814 628.63 196.803 627.227 196.781L394.295 195.961C387.917 195.94 381.474 195.627 375.15 195.055L256.407 184.187C213.984 181.306 172.867 170.838 134.21 153.074L80.7258 128.49L23.1403 102.924H5.26897V99.2983H23.1295L80.9956 74.2395L134.372 49.4937C172.91 31.6224 213.952 21.0247 256.342 17.9814L379.596 7.63202C382.985 7.3946 386.395 7.24351 389.762 7.20034L628.727 5.63552C636.065 5.53839 643.523 5.75423 650.861 6.27224L779.231 13.805C793.53 14.8086 804.721 26.8308 804.721 41.1624V160.197C804.721 174.41 793.627 186.421 779.468 187.533L652.275 196.004C645.39 196.544 638.396 196.814 631.436 196.814ZM6.0244 102.158L23.367 102.19L81.028 127.789L134.523 152.373C173.094 170.093 214.124 180.54 256.472 183.421L375.215 194.288C381.528 194.871 387.938 195.173 394.295 195.195L627.238 196.026C635.558 196.155 643.965 195.896 652.232 195.249L779.425 186.777C793.184 185.698 803.976 174.021 803.976 160.197V41.1624C803.976 27.2301 793.087 15.5425 779.187 14.5604L650.818 7.02767C643.49 6.50966 636.065 6.29382 628.738 6.39095L389.773 7.95577C386.438 7.99894 383.028 8.13924 379.661 8.37666L256.407 18.7261C214.103 21.7586 173.158 32.3346 134.696 50.1628L81.3194 74.9086L23.2914 100.043H6.0244V102.158Z" fill="#8FBAB8"/>
<path d="M81.1793 127.778L90.5682 132.095V70.2141L81.1793 74.2179V100.021H39.868L41.3249 91.4634L28.6012 96.5356L20.9066 98.586H1.10352V103.486H20.9066L29.13 105.406L40.9256 110.036L39.868 101.662H81.1793V127.778Z" fill="#8FBAB8"/>
<path d="M658.825 120.947L658.685 33.9426L598.272 26.9927L393.464 26.9819V174.291L447.391 175.262L446.657 175.446H598.1L658.901 167.503V120.936L658.825 120.947Z" fill="white"/>
<path d="M658.825 120.947L658.685 33.9426L598.272 26.9927L393.464 26.9819V174.291L447.391 175.262L446.657 175.446H598.1L658.901 167.503V120.936L658.825 120.947Z" stroke="#0D3F57" stroke-width="0.702" stroke-miterlimit="10"/>
<path d="M654.422 119.522L654.282 38.799L595.758 32.3562L397.306 32.3454V169.014L449.549 169.91L448.848 170.082H595.585L654.498 162.711V119.501L654.422 119.522Z" fill="white"/>
<path d="M654.422 119.522L654.282 38.799L595.758 32.3562L397.306 32.3454V169.014L449.549 169.91L448.848 170.082H595.585L654.498 162.711V119.501L654.422 119.522Z" stroke="#0D3F57" stroke-width="0.665" stroke-miterlimit="10"/>
<path d="M449.344 65.5952V39.1012H464.269V65.401C464.269 66.2643 463.567 66.9766 462.693 66.9766H450.714C449.959 66.9658 449.344 66.3507 449.344 65.5952Z" fill="white"/>
<path d="M449.344 65.5952V39.1012H464.269V65.401C464.269 66.2643 463.567 66.9766 462.693 66.9766H450.714C449.959 66.9658 449.344 66.3507 449.344 65.5952Z" stroke="#02435F" stroke-width="0.282" stroke-miterlimit="10"/>
<path d="M458.441 47.508H452.657C451.75 47.508 451.017 46.7742 451.017 45.8677V43.7201C451.017 42.8136 451.75 42.0797 452.657 42.0797H458.441C459.348 42.0797 460.082 42.8136 460.082 43.7201V45.8677C460.082 46.7742 459.348 47.508 458.441 47.508Z" fill="#8FBAB8"/>
<path d="M458.441 47.508H452.657C451.75 47.508 451.017 46.7742 451.017 45.8677V43.7201C451.017 42.8136 451.75 42.0797 452.657 42.0797H458.441C459.348 42.0797 460.082 42.8136 460.082 43.7201V45.8677C460.082 46.7742 459.348 47.508 458.441 47.508Z" stroke="#02435F" stroke-width="0.279" stroke-miterlimit="10"/>
<path d="M460.611 48.7599L454.838 49.5477C453.953 49.6664 453.132 49.0297 453.014 48.1232L452.744 46.0295C452.625 45.123 453.251 44.2813 454.136 44.1626L459.899 43.3747C460.784 43.256 461.604 43.8928 461.723 44.7993L461.993 46.8929C462.133 47.7994 461.507 48.6412 460.611 48.7599Z" fill="#8FBAB8"/>
<path d="M460.611 48.7599L454.838 49.5477C453.953 49.6664 453.132 49.0297 453.014 48.1232L452.744 46.0295C452.625 45.123 453.251 44.2813 454.136 44.1626L459.899 43.3747C460.784 43.256 461.604 43.8928 461.723 44.7993L461.993 46.8929C462.133 47.7994 461.507 48.6412 460.611 48.7599Z" stroke="#02435F" stroke-width="0.279" stroke-miterlimit="10"/>
<path d="M467.561 65.5952V39.1012H482.486V65.401C482.486 66.2643 481.784 66.9766 480.91 66.9766H468.931C468.176 66.9658 467.561 66.3507 467.561 65.5952Z" fill="white"/>
<path d="M467.561 65.5952V39.1012H482.486V65.401C482.486 66.2643 481.784 66.9766 480.91 66.9766H468.931C468.176 66.9658 467.561 66.3507 467.561 65.5952Z" stroke="#02435F" stroke-width="0.282" stroke-miterlimit="10"/>
<path d="M476.647 47.508H470.863C469.957 47.508 469.223 46.7742 469.223 45.8677V43.7201C469.223 42.8136 469.957 42.0797 470.863 42.0797H476.647C477.554 42.0797 478.288 42.8136 478.288 43.7201V45.8677C478.299 46.7742 477.554 47.508 476.647 47.508Z" fill="#8FBAB8"/>
<path d="M476.647 47.508H470.863C469.957 47.508 469.223 46.7742 469.223 45.8677V43.7201C469.223 42.8136 469.957 42.0797 470.863 42.0797H476.647C477.554 42.0797 478.288 42.8136 478.288 43.7201V45.8677C478.299 46.7742 477.554 47.508 476.647 47.508Z" stroke="#02435F" stroke-width="0.279" stroke-miterlimit="10"/>
<path d="M478.828 48.7599L473.054 49.5477C472.169 49.6664 471.349 49.0297 471.231 48.1232L470.961 46.0295C470.842 45.123 471.468 44.2813 472.353 44.1626L478.116 43.3747C479.001 43.256 479.821 43.8928 479.94 44.7993L480.209 46.8929C480.339 47.7994 479.724 48.6412 478.828 48.7599Z" fill="#8FBAB8"/>
<path d="M478.828 48.7599L473.054 49.5477C472.169 49.6664 471.349 49.0297 471.231 48.1232L470.961 46.0295C470.842 45.123 471.468 44.2813 472.353 44.1626L478.116 43.3747C479.001 43.256 479.821 43.8928 479.94 44.7993L480.209 46.8929C480.339 47.7994 479.724 48.6412 478.828 48.7599Z" stroke="#02435F" stroke-width="0.279" stroke-miterlimit="10"/>
<path d="M487.634 65.5952V39.1012H502.559V65.401C502.559 66.2643 501.857 66.9766 500.983 66.9766H489.004C488.249 66.9658 487.634 66.3507 487.634 65.5952Z" fill="white"/>
<path d="M487.634 65.5952V39.1012H502.559V65.401C502.559 66.2643 501.857 66.9766 500.983 66.9766H489.004C488.249 66.9658 487.634 66.3507 487.634 65.5952Z" stroke="#02435F" stroke-width="0.282" stroke-miterlimit="10"/>
<path d="M496.731 47.508H490.947C490.04 47.508 489.307 46.7742 489.307 45.8677V43.7201C489.307 42.8136 490.04 42.0797 490.947 42.0797H496.731C497.638 42.0797 498.372 42.8136 498.372 43.7201V45.8677C498.372 46.7742 497.638 47.508 496.731 47.508Z" fill="#8FBAB8"/>
<path d="M496.731 47.508H490.947C490.04 47.508 489.307 46.7742 489.307 45.8677V43.7201C489.307 42.8136 490.04 42.0797 490.947 42.0797H496.731C497.638 42.0797 498.372 42.8136 498.372 43.7201V45.8677C498.372 46.7742 497.638 47.508 496.731 47.508Z" stroke="#02435F" stroke-width="0.279" stroke-miterlimit="10"/>
<path d="M498.911 48.7599L493.137 49.5477C492.252 49.6664 491.432 49.0297 491.314 48.1232L491.044 46.0295C490.925 45.123 491.551 44.2813 492.436 44.1626L498.199 43.3747C499.084 43.256 499.904 43.8928 500.023 44.7993L500.292 46.8929C500.422 47.7994 499.796 48.6412 498.911 48.7599Z" fill="#8FBAB8"/>
<path d="M498.911 48.7599L493.137 49.5477C492.252 49.6664 491.432 49.0297 491.314 48.1232L491.044 46.0295C490.925 45.123 491.551 44.2813 492.436 44.1626L498.199 43.3747C499.084 43.256 499.904 43.8928 500.023 44.7993L500.292 46.8929C500.422 47.7994 499.796 48.6412 498.911 48.7599Z" stroke="#02435F" stroke-width="0.279" stroke-miterlimit="10"/>
<path d="M506.692 65.5952V39.1012H521.617V65.401C521.617 66.2643 520.916 66.9766 520.042 66.9766H508.063C507.308 66.9658 506.692 66.3507 506.692 65.5952Z" fill="white"/>
<path d="M506.692 65.5952V39.1012H521.617V65.401C521.617 66.2643 520.916 66.9766 520.042 66.9766H508.063C507.308 66.9658 506.692 66.3507 506.692 65.5952Z" stroke="#02435F" stroke-width="0.282" stroke-miterlimit="10"/>
<path d="M515.779 47.508H509.995C509.088 47.508 508.354 46.7742 508.354 45.8677V43.7201C508.354 42.8136 509.088 42.0797 509.995 42.0797H515.779C516.686 42.0797 517.42 42.8136 517.42 43.7201V45.8677C517.43 46.7742 516.686 47.508 515.779 47.508Z" fill="#8FBAB8"/>
<path d="M515.779 47.508H509.995C509.088 47.508 508.354 46.7742 508.354 45.8677V43.7201C508.354 42.8136 509.088 42.0797 509.995 42.0797H515.779C516.686 42.0797 517.42 42.8136 517.42 43.7201V45.8677C517.43 46.7742 516.686 47.508 515.779 47.508Z" stroke="#02435F" stroke-width="0.279" stroke-miterlimit="10"/>
<path d="M517.959 48.7599L512.185 49.5477C511.3 49.6664 510.48 49.0297 510.361 48.1232L510.092 46.0295C509.973 45.123 510.599 44.2813 511.484 44.1626L517.247 43.3747C518.132 43.256 518.952 43.8928 519.07 44.7993L519.34 46.8929C519.47 47.7994 518.855 48.6412 517.959 48.7599Z" fill="#8FBAB8"/>
<path d="M517.959 48.7599L512.185 49.5477C511.3 49.6664 510.48 49.0297 510.361 48.1232L510.092 46.0295C509.973 45.123 510.599 44.2813 511.484 44.1626L517.247 43.3747C518.132 43.256 518.952 43.8928 519.07 44.7993L519.34 46.8929C519.47 47.7994 518.855 48.6412 517.959 48.7599Z" stroke="#02435F" stroke-width="0.279" stroke-miterlimit="10"/>
<path d="M521.607 138.171V164.665H506.682V138.365C506.682 137.502 507.383 136.789 508.257 136.789H520.236C520.992 136.8 521.607 137.415 521.607 138.171Z" fill="white"/>
<path d="M521.607 138.171V164.665H506.682V138.365C506.682 137.502 507.383 136.789 508.257 136.789H520.236C520.992 136.8 521.607 137.415 521.607 138.171Z" stroke="#02435F" stroke-width="0.282" stroke-miterlimit="10"/>
<path d="M512.52 156.258H518.305C519.211 156.258 519.945 156.992 519.945 157.898V160.046C519.945 160.952 519.211 161.686 518.305 161.686H512.52C511.614 161.686 510.88 160.952 510.88 160.046V157.898C510.88 157.002 511.614 156.258 512.52 156.258Z" fill="#8FBAB8"/>
<path d="M512.52 156.258H518.305C519.211 156.258 519.945 156.992 519.945 157.898V160.046C519.945 160.952 519.211 161.686 518.305 161.686H512.52C511.614 161.686 510.88 160.952 510.88 160.046V157.898C510.88 157.002 511.614 156.258 512.52 156.258Z" stroke="#02435F" stroke-width="0.279" stroke-miterlimit="10"/>
<path d="M510.34 155.006L516.103 154.218C516.988 154.099 517.808 154.736 517.927 155.643L518.197 157.736C518.315 158.643 517.689 159.485 516.805 159.603L511.042 160.391C510.157 160.51 509.337 159.873 509.218 158.967L508.948 156.873C508.829 155.966 509.455 155.125 510.34 155.006Z" fill="#8FBAB8"/>
<path d="M510.34 155.006L516.103 154.218C516.988 154.099 517.808 154.736 517.927 155.643L518.197 157.736C518.315 158.643 517.689 159.485 516.805 159.603L511.042 160.391C510.157 160.51 509.337 159.873 509.218 158.967L508.948 156.873C508.829 155.966 509.455 155.125 510.34 155.006Z" stroke="#02435F" stroke-width="0.279" stroke-miterlimit="10"/>
<path d="M503.401 138.171V164.665H488.476V138.365C488.476 137.502 489.177 136.789 490.051 136.789H502.03C502.786 136.8 503.401 137.415 503.401 138.171Z" fill="white"/>
<path d="M503.401 138.171V164.665H488.476V138.365C488.476 137.502 489.177 136.789 490.051 136.789H502.03C502.786 136.8 503.401 137.415 503.401 138.171Z" stroke="#02435F" stroke-width="0.282" stroke-miterlimit="10"/>
<path d="M494.303 156.258H500.088C500.994 156.258 501.728 156.992 501.728 157.898V160.046C501.728 160.952 500.994 161.686 500.088 161.686H494.303C493.397 161.686 492.663 160.952 492.663 160.046V157.898C492.663 157.002 493.397 156.258 494.303 156.258Z" fill="#8FBAB8"/>
<path d="M494.303 156.258H500.088C500.994 156.258 501.728 156.992 501.728 157.898V160.046C501.728 160.952 500.994 161.686 500.088 161.686H494.303C493.397 161.686 492.663 160.952 492.663 160.046V157.898C492.663 157.002 493.397 156.258 494.303 156.258Z" stroke="#02435F" stroke-width="0.279" stroke-miterlimit="10"/>
<path d="M492.123 155.006L497.886 154.218C498.771 154.099 499.591 154.736 499.71 155.643L499.98 157.736C500.099 158.643 499.473 159.485 498.588 159.603L492.825 160.391C491.94 160.51 491.12 159.873 491.001 158.967L490.731 156.873C490.613 155.966 491.238 155.125 492.123 155.006Z" fill="#8FBAB8"/>
<path d="M492.123 155.006L497.886 154.218C498.771 154.099 499.591 154.736 499.71 155.643L499.98 157.736C500.099 158.643 499.473 159.485 498.588 159.603L492.825 160.391C491.94 160.51 491.12 159.873 491.001 158.967L490.731 156.873C490.613 155.966 491.238 155.125 492.123 155.006Z" stroke="#02435F" stroke-width="0.279" stroke-miterlimit="10"/>
<path d="M483.317 138.171V164.665H468.392V138.365C468.392 137.502 469.093 136.789 469.967 136.789H481.946C482.702 136.8 483.317 137.415 483.317 138.171Z" fill="white"/>
<path d="M483.317 138.171V164.665H468.392V138.365C468.392 137.502 469.093 136.789 469.967 136.789H481.946C482.702 136.8 483.317 137.415 483.317 138.171Z" stroke="#02435F" stroke-width="0.282" stroke-miterlimit="10"/>
<path d="M474.23 156.258H480.015C480.921 156.258 481.655 156.992 481.655 157.898V160.046C481.655 160.952 480.921 161.686 480.015 161.686H474.23C473.324 161.686 472.59 160.952 472.59 160.046V157.898C472.579 157.002 473.324 156.258 474.23 156.258Z" fill="#8FBAB8"/>
<path d="M474.23 156.258H480.015C480.921 156.258 481.655 156.992 481.655 157.898V160.046C481.655 160.952 480.921 161.686 480.015 161.686H474.23C473.324 161.686 472.59 160.952 472.59 160.046V157.898C472.579 157.002 473.324 156.258 474.23 156.258Z" stroke="#02435F" stroke-width="0.279" stroke-miterlimit="10"/>
<path d="M472.05 155.006L477.813 154.218C478.698 154.099 479.518 154.736 479.637 155.643L479.907 157.736C480.025 158.643 479.399 159.485 478.514 159.603L472.752 160.391C471.867 160.51 471.047 159.873 470.928 158.967L470.658 156.873C470.539 155.966 471.165 155.125 472.05 155.006Z" fill="#8FBAB8"/>
<path d="M472.05 155.006L477.813 154.218C478.698 154.099 479.518 154.736 479.637 155.643L479.907 157.736C480.025 158.643 479.399 159.485 478.514 159.603L472.752 160.391C471.867 160.51 471.047 159.873 470.928 158.967L470.658 156.873C470.539 155.966 471.165 155.125 472.05 155.006Z" stroke="#02435F" stroke-width="0.279" stroke-miterlimit="10"/>
<path d="M464.269 138.171V164.665H449.344V138.365C449.344 137.502 450.045 136.789 450.919 136.789H462.898C463.654 136.8 464.269 137.415 464.269 138.171Z" fill="white"/>
<path d="M464.269 138.171V164.665H449.344V138.365C449.344 137.502 450.045 136.789 450.919 136.789H462.898C463.654 136.8 464.269 137.415 464.269 138.171Z" stroke="#02435F" stroke-width="0.282" stroke-miterlimit="10"/>
<path d="M455.172 156.258H460.956C461.863 156.258 462.596 156.992 462.596 157.898V160.046C462.596 160.952 461.863 161.686 460.956 161.686H455.172C454.265 161.686 453.531 160.952 453.531 160.046V157.898C453.531 157.002 454.265 156.258 455.172 156.258Z" fill="#8FBAB8"/>
<path d="M455.172 156.258H460.956C461.863 156.258 462.596 156.992 462.596 157.898V160.046C462.596 160.952 461.863 161.686 460.956 161.686H455.172C454.265 161.686 453.531 160.952 453.531 160.046V157.898C453.531 157.002 454.265 156.258 455.172 156.258Z" stroke="#02435F" stroke-width="0.279" stroke-miterlimit="10"/>
<path d="M453.003 155.006L458.766 154.218C459.651 154.099 460.471 154.736 460.59 155.643L460.859 157.736C460.978 158.643 460.352 159.485 459.467 159.603L453.704 160.391C452.819 160.51 451.999 159.873 451.881 158.967L451.611 156.873C451.481 155.966 452.107 155.125 453.003 155.006Z" fill="#8FBAB8"/>
<path d="M453.003 155.006L458.766 154.218C459.651 154.099 460.471 154.736 460.59 155.643L460.859 157.736C460.978 158.643 460.352 159.485 459.467 159.603L453.704 160.391C452.819 160.51 451.999 159.873 451.881 158.967L451.611 156.873C451.481 155.966 452.107 155.125 453.003 155.006Z" stroke="#02435F" stroke-width="0.279" stroke-miterlimit="10"/>
<path d="M431.926 133.951H405.432V119.026H431.731C432.595 119.026 433.307 119.727 433.307 120.601V132.58C433.296 133.336 432.681 133.951 431.926 133.951Z" fill="white"/>
<path d="M431.926 133.951H405.432V119.026H431.731C432.595 119.026 433.307 119.727 433.307 120.601V132.58C433.296 133.336 432.681 133.951 431.926 133.951Z" stroke="#02435F" stroke-width="0.282" stroke-miterlimit="10"/>
<path d="M413.839 124.853V130.638C413.839 131.544 413.106 132.278 412.199 132.278H410.051C409.145 132.278 408.411 131.544 408.411 130.638V124.853C408.411 123.947 409.145 123.213 410.051 123.213H412.199C413.095 123.213 413.839 123.947 413.839 124.853Z" fill="#8FBAB8"/>
<path d="M413.839 124.853V130.638C413.839 131.544 413.106 132.278 412.199 132.278H410.051C409.145 132.278 408.411 131.544 408.411 130.638V124.853C408.411 123.947 409.145 123.213 410.051 123.213H412.199C413.095 123.213 413.839 123.947 413.839 124.853Z" stroke="#02435F" stroke-width="0.279" stroke-miterlimit="10"/>
<path d="M415.091 122.684L415.879 128.458C415.997 129.343 415.361 130.163 414.454 130.282L412.36 130.552C411.454 130.67 410.612 130.044 410.493 129.159L409.706 123.397C409.587 122.512 410.224 121.691 411.13 121.573L413.224 121.303C414.13 121.163 414.972 121.789 415.091 122.684Z" fill="#8FBAB8"/>
<path d="M415.091 122.684L415.879 128.458C415.997 129.343 415.361 130.163 414.454 130.282L412.36 130.552C411.454 130.67 410.612 130.044 410.493 129.159L409.706 123.397C409.587 122.512 410.224 121.691 411.13 121.573L413.224 121.303C414.13 121.163 414.972 121.789 415.091 122.684Z" stroke="#02435F" stroke-width="0.279" stroke-miterlimit="10"/>
<path d="M431.926 115.734H405.432V100.82H431.731C432.595 100.82 433.307 101.521 433.307 102.385V114.364C433.296 115.119 432.681 115.734 431.926 115.734Z" fill="white"/>
<path d="M431.926 115.734H405.432V100.82H431.731C432.595 100.82 433.307 101.521 433.307 102.385V114.364C433.296 115.119 432.681 115.734 431.926 115.734Z" stroke="#02435F" stroke-width="0.282" stroke-miterlimit="10"/>
<path d="M413.839 106.648V112.432C413.839 113.339 413.106 114.072 412.199 114.072H410.051C409.145 114.072 408.411 113.339 408.411 112.432V106.648C408.411 105.741 409.145 105.007 410.051 105.007H412.199C413.095 104.996 413.839 105.741 413.839 106.648Z" fill="#8FBAB8"/>
<path d="M413.839 106.648V112.432C413.839 113.339 413.106 114.072 412.199 114.072H410.051C409.145 114.072 408.411 113.339 408.411 112.432V106.648C408.411 105.741 409.145 105.007 410.051 105.007H412.199C413.095 104.996 413.839 105.741 413.839 106.648Z" stroke="#02435F" stroke-width="0.279" stroke-miterlimit="10"/>
<path d="M415.091 104.468L415.879 110.241C415.997 111.126 415.361 111.946 414.454 112.065L412.36 112.335C411.454 112.454 410.612 111.828 410.493 110.943L409.706 105.18C409.587 104.295 410.224 103.475 411.13 103.356L413.224 103.086C414.13 102.957 414.972 103.572 415.091 104.468Z" fill="#8FBAB8"/>
<path d="M415.091 104.468L415.879 110.241C415.997 111.126 415.361 111.946 414.454 112.065L412.36 112.335C411.454 112.454 410.612 111.828 410.493 110.943L409.706 105.18C409.587 104.295 410.224 103.475 411.13 103.356L413.224 103.086C414.13 102.957 414.972 103.572 415.091 104.468Z" stroke="#02435F" stroke-width="0.279" stroke-miterlimit="10"/>
<path d="M431.926 95.6614H405.432V80.747H431.731C432.595 80.747 433.307 81.4485 433.307 82.3118V94.2909C433.296 95.0463 432.681 95.6614 431.926 95.6614Z" fill="white"/>
<path d="M431.926 95.6614H405.432V80.747H431.731C432.595 80.747 433.307 81.4485 433.307 82.3118V94.2909C433.296 95.0463 432.681 95.6614 431.926 95.6614Z" stroke="#02435F" stroke-width="0.282" stroke-miterlimit="10"/>
<path d="M413.839 86.5639V92.3483C413.839 93.2548 413.106 93.9887 412.199 93.9887H410.051C409.145 93.9887 408.411 93.2548 408.411 92.3483V86.5639C408.411 85.6574 409.145 84.9235 410.051 84.9235H412.199C413.095 84.9235 413.839 85.6574 413.839 86.5639Z" fill="#8FBAB8"/>
<path d="M413.839 86.5639V92.3483C413.839 93.2548 413.106 93.9887 412.199 93.9887H410.051C409.145 93.9887 408.411 93.2548 408.411 92.3483V86.5639C408.411 85.6574 409.145 84.9235 410.051 84.9235H412.199C413.095 84.9235 413.839 85.6574 413.839 86.5639Z" stroke="#02435F" stroke-width="0.279" stroke-miterlimit="10"/>
<path d="M415.091 84.3839L415.879 90.1576C415.997 91.0425 415.361 91.8627 414.454 91.9814L412.36 92.2512C411.454 92.3699 410.612 91.744 410.493 90.859L409.706 85.0962C409.587 84.2112 410.224 83.3911 411.13 83.2723L413.224 83.0025C414.13 82.873 414.972 83.499 415.091 84.3839Z" fill="#8FBAB8"/>
<path d="M415.091 84.3839L415.879 90.1576C415.997 91.0425 415.361 91.8627 414.454 91.9814L412.36 92.2512C411.454 92.3699 410.612 91.744 410.493 90.859L409.706 85.0962C409.587 84.2112 410.224 83.3911 411.13 83.2723L413.224 83.0025C414.13 82.873 414.972 83.499 415.091 84.3839Z" stroke="#02435F" stroke-width="0.279" stroke-miterlimit="10"/>
<path d="M431.926 76.603H405.432V61.6886H431.731C432.595 61.6886 433.307 62.39 433.307 63.2642V75.2432C433.296 75.9878 432.681 76.603 431.926 76.603Z" fill="white"/>
<path d="M431.926 76.603H405.432V61.6886H431.731C432.595 61.6886 433.307 62.39 433.307 63.2642V75.2432C433.296 75.9878 432.681 76.603 431.926 76.603Z" stroke="#02435F" stroke-width="0.282" stroke-miterlimit="10"/>
<path d="M413.839 67.5162V73.3006C413.839 74.2072 413.106 74.941 412.199 74.941H410.051C409.145 74.941 408.411 74.2072 408.411 73.3006V67.5162C408.411 66.6097 409.145 65.8758 410.051 65.8758H412.199C413.095 65.865 413.839 66.6097 413.839 67.5162Z" fill="#8FBAB8"/>
<path d="M413.839 67.5162V73.3006C413.839 74.2072 413.106 74.941 412.199 74.941H410.051C409.145 74.941 408.411 74.2072 408.411 73.3006V67.5162C408.411 66.6097 409.145 65.8758 410.051 65.8758H412.199C413.095 65.865 413.839 66.6097 413.839 67.5162Z" stroke="#02435F" stroke-width="0.279" stroke-miterlimit="10"/>
<path d="M415.091 65.3362L415.879 71.1099C415.997 71.9948 415.361 72.815 414.454 72.9337L412.36 73.2035C411.454 73.3222 410.612 72.6963 410.493 71.8114L409.706 66.0485C409.587 65.1636 410.224 64.3434 411.13 64.2247L413.224 63.9549C414.13 63.8254 414.972 64.4405 415.091 65.3362Z" fill="#8FBAB8"/>
<path d="M415.091 65.3362L415.879 71.1099C415.997 71.9948 415.361 72.815 414.454 72.9337L412.36 73.2035C411.454 73.3222 410.612 72.6963 410.493 71.8114L409.706 66.0485C409.587 65.1636 410.224 64.3434 411.13 64.2247L413.224 63.9549C414.13 63.8254 414.972 64.4405 415.091 65.3362Z" stroke="#02435F" stroke-width="0.279" stroke-miterlimit="10"/>
<path d="M537.589 61.6886H564.083V76.6137H537.784C536.92 76.6137 536.208 75.9123 536.208 75.0381V63.0591C536.219 62.3037 536.834 61.6886 537.589 61.6886Z" fill="white"/>
<path d="M537.589 61.6886H564.083V76.6137H537.784C536.92 76.6137 536.208 75.9123 536.208 75.0381V63.0591C536.219 62.3037 536.834 61.6886 537.589 61.6886Z" stroke="#02435F" stroke-width="0.282" stroke-miterlimit="10"/>
<path d="M555.688 70.7753V64.9909C555.688 64.0844 556.421 63.3505 557.328 63.3505H559.475C560.382 63.3505 561.116 64.0844 561.116 64.9909V70.7753C561.116 71.6819 560.382 72.4157 559.475 72.4157H557.328C556.421 72.4157 555.688 71.6819 555.688 70.7753Z" fill="#8FBAB8"/>
<path d="M555.688 70.7753V64.9909C555.688 64.0844 556.421 63.3505 557.328 63.3505H559.475C560.382 63.3505 561.116 64.0844 561.116 64.9909V70.7753C561.116 71.6819 560.382 72.4157 559.475 72.4157H557.328C556.421 72.4157 555.688 71.6819 555.688 70.7753Z" stroke="#02435F" stroke-width="0.279" stroke-miterlimit="10"/>
<path d="M554.425 72.9553L553.637 67.1924C553.519 66.3075 554.155 65.4873 555.062 65.3686L557.155 65.0988C558.062 64.9801 558.904 65.606 559.022 66.491L559.81 72.2538C559.929 73.1388 559.292 73.9589 558.386 74.0776L556.292 74.3474C555.386 74.4662 554.555 73.8402 554.425 72.9553Z" fill="#8FBAB8"/>
<path d="M554.425 72.9553L553.637 67.1924C553.519 66.3075 554.155 65.4873 555.062 65.3686L557.155 65.0988C558.062 64.9801 558.904 65.606 559.022 66.491L559.81 72.2538C559.929 73.1388 559.292 73.9589 558.386 74.0776L556.292 74.3474C555.386 74.4662 554.555 73.8402 554.425 72.9553Z" stroke="#02435F" stroke-width="0.279" stroke-miterlimit="10"/>
<path d="M537.589 79.8945H564.083V94.8196H537.784C536.92 94.8196 536.208 94.1182 536.208 93.244V81.265C536.219 80.5096 536.834 79.8945 537.589 79.8945Z" fill="white"/>
<path d="M537.589 79.8945H564.083V94.8196H537.784C536.92 94.8196 536.208 94.1182 536.208 93.244V81.265C536.219 80.5096 536.834 79.8945 537.589 79.8945Z" stroke="#02435F" stroke-width="0.282" stroke-miterlimit="10"/>
<path d="M555.688 88.992V83.2076C555.688 82.3011 556.421 81.5672 557.328 81.5672H559.475C560.382 81.5672 561.116 82.3011 561.116 83.2076V88.992C561.116 89.8986 560.382 90.6324 559.475 90.6324H557.328C556.421 90.6324 555.688 89.8986 555.688 88.992Z" fill="#8FBAB8"/>
<path d="M555.688 88.992V83.2076C555.688 82.3011 556.421 81.5672 557.328 81.5672H559.475C560.382 81.5672 561.116 82.3011 561.116 83.2076V88.992C561.116 89.8986 560.382 90.6324 559.475 90.6324H557.328C556.421 90.6324 555.688 89.8986 555.688 88.992Z" stroke="#02435F" stroke-width="0.279" stroke-miterlimit="10"/>
<path d="M554.425 91.172L553.637 85.4091C553.519 84.5242 554.155 83.704 555.062 83.5853L557.155 83.3155C558.062 83.1968 558.904 83.8227 559.022 84.7077L559.81 90.4705C559.929 91.3554 559.292 92.1756 558.386 92.2943L556.292 92.5641C555.386 92.6829 554.555 92.0569 554.425 91.172Z" fill="#8FBAB8"/>
<path d="M554.425 91.172L553.637 85.4091C553.519 84.5242 554.155 83.704 555.062 83.5853L557.155 83.3155C558.062 83.1968 558.904 83.8227 559.022 84.7077L559.81 90.4705C559.929 91.3554 559.292 92.1756 558.386 92.2943L556.292 92.5641C555.386 92.6829 554.555 92.0569 554.425 91.172Z" stroke="#02435F" stroke-width="0.279" stroke-miterlimit="10"/>
<path d="M537.589 99.9782H564.083V114.903H537.784C536.92 114.903 536.208 114.202 536.208 113.328V101.349C536.219 100.593 536.834 99.9782 537.589 99.9782Z" fill="white"/>
<path d="M537.589 99.9782H564.083V114.903H537.784C536.92 114.903 536.208 114.202 536.208 113.328V101.349C536.219 100.593 536.834 99.9782 537.589 99.9782Z" stroke="#02435F" stroke-width="0.282" stroke-miterlimit="10"/>
<path d="M555.688 109.065V103.28C555.688 102.374 556.421 101.64 557.328 101.64H559.475C560.382 101.64 561.116 102.374 561.116 103.28V109.065C561.116 109.971 560.382 110.705 559.475 110.705H557.328C556.421 110.716 555.688 109.971 555.688 109.065Z" fill="#8FBAB8"/>
<path d="M555.688 109.065V103.28C555.688 102.374 556.421 101.64 557.328 101.64H559.475C560.382 101.64 561.116 102.374 561.116 103.28V109.065C561.116 109.971 560.382 110.705 559.475 110.705H557.328C556.421 110.716 555.688 109.971 555.688 109.065Z" stroke="#02435F" stroke-width="0.279" stroke-miterlimit="10"/>
<path d="M554.425 111.245L553.637 105.482C553.519 104.597 554.155 103.777 555.062 103.658L557.155 103.388C558.062 103.27 558.904 103.896 559.022 104.781L559.81 110.543C559.929 111.428 559.292 112.249 558.386 112.367L556.292 112.637C555.386 112.756 554.555 112.13 554.425 111.245Z" fill="#8FBAB8"/>
<path d="M554.425 111.245L553.637 105.482C553.519 104.597 554.155 103.777 555.062 103.658L557.155 103.388C558.062 103.27 558.904 103.896 559.022 104.781L559.81 110.543C559.929 111.428 559.292 112.249 558.386 112.367L556.292 112.637C555.386 112.756 554.555 112.13 554.425 111.245Z" stroke="#02435F" stroke-width="0.279" stroke-miterlimit="10"/>
<path d="M537.589 119.026H564.083V133.951H537.784C536.92 133.951 536.208 133.25 536.208 132.375V120.396C536.219 119.641 536.834 119.026 537.589 119.026Z" fill="white"/>
<path d="M537.589 119.026H564.083V133.951H537.784C536.92 133.951 536.208 133.25 536.208 132.375V120.396C536.219 119.641 536.834 119.026 537.589 119.026Z" stroke="#02435F" stroke-width="0.282" stroke-miterlimit="10"/>
<path d="M555.688 128.123V122.339C555.688 121.432 556.421 120.699 557.328 120.699H559.475C560.382 120.699 561.116 121.432 561.116 122.339V128.123C561.116 129.03 560.382 129.764 559.475 129.764H557.328C556.421 129.764 555.688 129.03 555.688 128.123Z" fill="#8FBAB8"/>
<path d="M555.688 128.123V122.339C555.688 121.432 556.421 120.699 557.328 120.699H559.475C560.382 120.699 561.116 121.432 561.116 122.339V128.123C561.116 129.03 560.382 129.764 559.475 129.764H557.328C556.421 129.764 555.688 129.03 555.688 128.123Z" stroke="#02435F" stroke-width="0.279" stroke-miterlimit="10"/>
<path d="M554.425 130.303L553.637 124.541C553.519 123.656 554.155 122.835 555.062 122.717L557.155 122.447C558.062 122.328 558.904 122.954 559.022 123.839L559.81 129.602C559.929 130.487 559.292 131.307 558.386 131.426L556.292 131.696C555.386 131.814 554.555 131.188 554.425 130.303Z" fill="#8FBAB8"/>
<path d="M554.425 130.303L553.637 124.541C553.519 123.656 554.155 122.835 555.062 122.717L557.155 122.447C558.062 122.328 558.904 122.954 559.022 123.839L559.81 129.602C559.929 130.487 559.292 131.307 558.386 131.426L556.292 131.696C555.386 131.814 554.555 131.188 554.425 130.303Z" stroke="#02435F" stroke-width="0.279" stroke-miterlimit="10"/>
<path d="M515.402 82.9809H456.802V115.734H515.402V82.9809Z" fill="#8FBAB8"/>
<path d="M595.585 170.082H569.155L567.86 32.3454L595.585 32.3562L654.282 38.799V162.711L595.585 170.082Z" fill="#8FBAB8"/>
<path d="M397.22 47.7455V44.0654H364.369L397.22 47.7455Z" fill="#02435F"/>
<path d="M397.22 35.7665V32.0756H364.369L397.22 35.7665Z" fill="#02435F"/>
<path d="M367.153 32.0756V44.0654" stroke="#02435F" stroke-width="0.261" stroke-miterlimit="10"/>
<path d="M364.379 32.0756V44.0654" stroke="#02435F" stroke-width="0.261" stroke-miterlimit="10"/>
<path d="M371.47 32.0756V44.0654" stroke="#02435F" stroke-width="0.261" stroke-miterlimit="10"/>
<path d="M375.507 32.0756V44.0654" stroke="#02435F" stroke-width="0.261" stroke-miterlimit="10"/>
<path d="M379.823 32.0756V44.0654" stroke="#02435F" stroke-width="0.261" stroke-miterlimit="10"/>
<path d="M384.28 32.0756V44.0654" stroke="#02435F" stroke-width="0.261" stroke-miterlimit="10"/>
<path d="M388.727 32.0756V44.0654" stroke="#02435F" stroke-width="0.261" stroke-miterlimit="10"/>
<path d="M392.773 32.0756V44.0654" stroke="#02435F" stroke-width="0.261" stroke-miterlimit="10"/>
<path d="M397.22 32.0756V47.7455" stroke="#02435F" stroke-width="0.261" stroke-miterlimit="10"/>
</svg>
