<svg width="810" height="202" viewBox="0 0 810 202" fill="none" xmlns="http://www.w3.org/2000/svg">
<path d="M163.586 113.231V92.985L167.374 90.6648C215.365 61.2461 269.066 42.3819 324.914 35.3132L462.489 17.9059V184.23L319.777 166.812C267.555 160.434 217.135 143.739 171.432 117.698L163.586 113.231Z" fill="white"/>
<path d="M163.586 113.231V92.985L167.374 90.6648C215.365 61.2461 269.066 42.3819 324.914 35.3132L462.489 17.9059V184.23L319.777 166.812C267.555 160.434 217.135 143.739 171.432 117.698L163.586 113.231Z" stroke="#0D3F57" stroke-width="0.702" stroke-miterlimit="10"/>
<path d="M462.78 110.101V106.755H418.717L462.78 110.101Z" fill="#02435F"/>
<path d="M462.78 99.2119V95.8665H418.717L462.78 99.2119Z" fill="#02435F"/>
<path d="M420.983 95.8665V106.755" stroke="#02435F" stroke-width="0.544" stroke-miterlimit="10"/>
<path d="M418.717 95.8665V106.755" stroke="#02435F" stroke-width="0.544" stroke-miterlimit="10"/>
<path d="M424.501 95.8665V106.755" stroke="#02435F" stroke-width="0.544" stroke-miterlimit="10"/>
<path d="M427.782 95.8665V106.755" stroke="#02435F" stroke-width="0.544" stroke-miterlimit="10"/>
<path d="M431.289 95.8665V106.755" stroke="#02435F" stroke-width="0.544" stroke-miterlimit="10"/>
<path d="M434.915 95.8665V106.755" stroke="#02435F" stroke-width="0.544" stroke-miterlimit="10"/>
<path d="M439.017 95.8665V106.755" stroke="#02435F" stroke-width="0.544" stroke-miterlimit="10"/>
<path d="M442.955 95.8665V106.755" stroke="#02435F" stroke-width="0.544" stroke-miterlimit="10"/>
<path d="M447.002 96.5355V107.997" stroke="#02435F" stroke-width="0.544" stroke-miterlimit="10"/>
<path d="M450.606 96.5355V107.997" stroke="#02435F" stroke-width="0.544" stroke-miterlimit="10"/>
<path d="M454.6 96.5355V107.997" stroke="#02435F" stroke-width="0.544" stroke-miterlimit="10"/>
<path d="M457.988 96.5355V107.997" stroke="#02435F" stroke-width="0.544" stroke-miterlimit="10"/>
<path d="M462.349 96.5571V108.029" stroke="#02435F" stroke-width="0.544" stroke-miterlimit="10"/>
<path d="M462.294 132.667H448.254V161.719H462.294V132.667Z" stroke="#02435F" stroke-width="0.342" stroke-miterlimit="10"/>
<path d="M449.765 144.149V136.843C449.765 135.689 450.704 134.75 451.858 134.75H456.423C457.578 134.75 458.517 135.689 458.517 136.843V144.149C458.517 145.304 457.578 146.243 456.423 146.243H451.858C450.704 146.232 449.765 145.304 449.765 144.149Z" stroke="#02435F" stroke-width="0.342" stroke-miterlimit="10"/>
<path d="M449.765 157.639V150.333C449.765 149.178 450.704 148.24 451.858 148.24H456.423C457.578 148.24 458.517 149.178 458.517 150.333V157.639C458.517 158.794 457.578 159.733 456.423 159.733H451.858C450.704 159.733 449.765 158.794 449.765 157.639Z" stroke="#02435F" stroke-width="0.342" stroke-miterlimit="10"/>
<path d="M460.212 139.779H455.83V141.192H460.212V139.779Z" fill="white"/>
<path d="M460.212 139.779H455.83V141.192H460.212V139.779Z" stroke="#02435F" stroke-width="0.342" stroke-miterlimit="10"/>
<path d="M460.212 153.279H455.83V154.693H460.212V153.279Z" fill="white"/>
<path d="M460.212 153.279H455.83V154.693H460.212V153.279Z" stroke="#02435F" stroke-width="0.342" stroke-miterlimit="10"/>
<path d="M453.542 141.419C453.067 141.419 452.679 141.052 452.679 140.599C452.679 140.146 453.067 139.779 453.542 139.779C454.017 139.779 454.405 140.146 454.405 140.599C454.405 141.052 454.028 141.419 453.542 141.419Z" fill="white"/>
<path d="M453.542 141.419C453.067 141.419 452.679 141.052 452.679 140.599C452.679 140.146 453.067 139.779 453.542 139.779C454.017 139.779 454.405 140.146 454.405 140.599C454.405 141.052 454.028 141.419 453.542 141.419Z" stroke="#02435F" stroke-width="0.342" stroke-miterlimit="10"/>
<path d="M453.542 154.801C453.067 154.801 452.679 154.434 452.679 153.981C452.679 153.528 453.067 153.161 453.542 153.161C454.017 153.161 454.405 153.528 454.405 153.981C454.405 154.434 454.028 154.801 453.542 154.801Z" fill="white"/>
<path d="M453.542 154.801C453.067 154.801 452.679 154.434 452.679 153.981C452.679 153.528 453.067 153.161 453.542 153.161C454.017 153.161 454.405 153.528 454.405 153.981C454.405 154.434 454.028 154.801 453.542 154.801Z" stroke="#02435F" stroke-width="0.342" stroke-miterlimit="10"/>
<path d="M462.294 40.2451H448.254V70.8725H462.294V40.2451Z" fill="white"/>
<path d="M462.294 40.2451H448.254V70.8725H462.294V40.2451Z" stroke="#02435F" stroke-width="0.351" stroke-miterlimit="10"/>
<path d="M449.765 52.4075V44.5834C449.765 43.3963 450.725 42.4358 451.912 42.4358H456.369C457.556 42.4358 458.517 43.3963 458.517 44.5834V52.4075C458.517 53.5946 457.556 54.5551 456.369 54.5551H451.912C450.725 54.5551 449.765 53.5946 449.765 52.4075Z" fill="white"/>
<path d="M449.765 52.4075V44.5834C449.765 43.3963 450.725 42.4358 451.912 42.4358H456.369C457.556 42.4358 458.517 43.3963 458.517 44.5834V52.4075C458.517 53.5946 457.556 54.5551 456.369 54.5551H451.912C450.725 54.5551 449.765 53.5946 449.765 52.4075Z" stroke="#02435F" stroke-width="0.351" stroke-miterlimit="10"/>
<path d="M449.765 66.642V58.8179C449.765 57.6308 450.725 56.6703 451.912 56.6703H456.369C457.556 56.6703 458.517 57.6308 458.517 58.8179V66.642C458.517 67.8291 457.556 68.7896 456.369 68.7896H451.912C450.725 68.7896 449.765 67.8291 449.765 66.642Z" fill="white"/>
<path d="M449.765 66.642V58.8179C449.765 57.6308 450.725 56.6703 451.912 56.6703H456.369C457.556 56.6703 458.517 57.6308 458.517 58.8179V66.642C458.517 67.8291 457.556 68.7896 456.369 68.7896H451.912C450.725 68.7896 449.765 67.8291 449.765 66.642Z" stroke="#02435F" stroke-width="0.351" stroke-miterlimit="10"/>
<path d="M460.212 47.7562H455.83V49.2455H460.212V47.7562Z" fill="white"/>
<path d="M460.212 47.7562H455.83V49.2455H460.212V47.7562Z" stroke="#02435F" stroke-width="0.351" stroke-miterlimit="10"/>
<path d="M460.212 61.98H455.83V63.4693H460.212V61.98Z" fill="white"/>
<path d="M460.212 61.98H455.83V63.4693H460.212V61.98Z" stroke="#02435F" stroke-width="0.351" stroke-miterlimit="10"/>
<path d="M453.542 49.4722C453.067 49.4722 452.679 49.0837 452.679 48.6088C452.679 48.134 453.067 47.7455 453.542 47.7455C454.017 47.7455 454.405 48.134 454.405 48.6088C454.405 49.0837 454.028 49.4722 453.542 49.4722Z" fill="white"/>
<path d="M453.542 49.4722C453.067 49.4722 452.679 49.0837 452.679 48.6088C452.679 48.134 453.067 47.7455 453.542 47.7455C454.017 47.7455 454.405 48.134 454.405 48.6088C454.405 49.0837 454.028 49.4722 453.542 49.4722Z" stroke="#02435F" stroke-width="0.351" stroke-miterlimit="10"/>
<path d="M453.542 63.5879C453.067 63.5879 452.679 63.1994 452.679 62.7246C452.679 62.2497 453.067 61.8612 453.542 61.8612C454.017 61.8612 454.405 62.2497 454.405 62.7246C454.405 63.1994 454.028 63.5879 453.542 63.5879Z" fill="white"/>
<path d="M453.542 63.5879C453.067 63.5879 452.679 63.1994 452.679 62.7246C452.679 62.2497 453.067 61.8612 453.542 61.8612C454.017 61.8612 454.405 62.2497 454.405 62.7246C454.405 63.1994 454.028 63.5879 453.542 63.5879Z" stroke="#02435F" stroke-width="0.351" stroke-miterlimit="10"/>
<path d="M462.003 172.176V177.604L461.075 176.611V173.104L462.003 172.176Z" fill="white"/>
<path d="M462.003 172.176V177.604L461.075 176.611V173.104L462.003 172.176Z" stroke="#02435F" stroke-width="0.351" stroke-miterlimit="10"/>
<path d="M458.647 173.816C459.208 173.816 462.004 174.27 462.004 174.831C462.004 175.392 459.208 175.845 458.647 175.845C458.086 175.845 457.633 175.392 457.633 174.831C457.633 174.27 458.086 173.816 458.647 173.816Z" fill="white"/>
<path d="M458.647 173.816C459.208 173.816 462.004 174.27 462.004 174.831C462.004 175.392 459.208 175.845 458.647 175.845C458.086 175.845 457.633 175.392 457.633 174.831C457.633 174.27 458.086 173.816 458.647 173.816Z" stroke="#02435F" stroke-width="0.351" stroke-miterlimit="10"/>
<path d="M462.003 26.6904V32.108L461.075 31.1151V27.6077L462.003 26.6904Z" fill="white"/>
<path d="M462.003 26.6904V32.108L461.075 31.1151V27.6077L462.003 26.6904Z" stroke="#02435F" stroke-width="0.351" stroke-miterlimit="10"/>
<path d="M458.647 28.3308C459.208 28.3308 462.004 28.7841 462.004 29.3453C462.004 29.9064 459.208 30.3597 458.647 30.3597C458.086 30.3597 457.633 29.9064 457.633 29.3453C457.633 28.7841 458.086 28.3308 458.647 28.3308Z" fill="white"/>
<path d="M458.647 28.3308C459.208 28.3308 462.004 28.7841 462.004 29.3453C462.004 29.9064 459.208 30.3597 458.647 30.3597C458.086 30.3597 457.633 29.9064 457.633 29.3453C457.633 28.7841 458.086 28.3308 458.647 28.3308Z" stroke="#02435F" stroke-width="0.351" stroke-miterlimit="10"/>
<path d="M244.353 68.4443V63.016L245.281 64.0089V67.5162L244.353 68.4443Z" fill="white"/>
<path d="M244.353 68.4443V63.016L245.281 64.0089V67.5162L244.353 68.4443Z" stroke="#02435F" stroke-width="0.351" stroke-miterlimit="10"/>
<path d="M247.709 66.8039C247.148 66.8039 244.353 66.3506 244.353 65.7895C244.353 65.2283 247.148 64.775 247.709 64.775C248.27 64.775 248.723 65.2283 248.723 65.7895C248.723 66.3506 248.259 66.8039 247.709 66.8039Z" fill="white"/>
<path d="M247.709 66.8039C247.148 66.8039 244.353 66.3506 244.353 65.7895C244.353 65.2283 247.148 64.775 247.709 64.775C248.27 64.775 248.723 65.2283 248.723 65.7895C248.723 66.3506 248.259 66.8039 247.709 66.8039Z" stroke="#02435F" stroke-width="0.351" stroke-miterlimit="10"/>
<path d="M244.353 141.149V135.721L245.281 136.714V140.221L244.353 141.149Z" fill="white"/>
<path d="M244.353 141.149V135.721L245.281 136.714V140.221L244.353 141.149Z" stroke="#02435F" stroke-width="0.351" stroke-miterlimit="10"/>
<path d="M247.709 139.509C247.148 139.509 244.353 139.056 244.353 138.494C244.353 137.933 247.148 137.48 247.709 137.48C248.27 137.48 248.723 137.933 248.723 138.494C248.713 139.056 248.259 139.509 247.709 139.509Z" fill="white"/>
<path d="M247.709 139.509C247.148 139.509 244.353 139.056 244.353 138.494C244.353 137.933 247.148 137.48 247.709 137.48C248.27 137.48 248.723 137.933 248.723 138.494C248.713 139.056 248.259 139.509 247.709 139.509Z" stroke="#02435F" stroke-width="0.351" stroke-miterlimit="10"/>
<path d="M163.586 103.529V98.1003L164.514 99.0932V102.601L163.586 103.529Z" fill="white"/>
<path d="M163.586 103.529V98.1003L164.514 99.0932V102.601L163.586 103.529Z" stroke="#02435F" stroke-width="0.351" stroke-miterlimit="10"/>
<path d="M166.942 101.888C166.381 101.888 163.586 101.435 163.586 100.874C163.586 100.313 166.381 99.8595 166.942 99.8595C167.503 99.8595 167.957 100.313 167.957 100.874C167.957 101.424 167.503 101.888 166.942 101.888Z" fill="white"/>
<path d="M166.942 101.888C166.381 101.888 163.586 101.435 163.586 100.874C163.586 100.313 166.381 99.8595 166.942 99.8595C167.503 99.8595 167.957 100.313 167.957 100.874C167.957 101.424 167.503 101.888 166.942 101.888Z" stroke="#02435F" stroke-width="0.351" stroke-miterlimit="10"/>
<path d="M458.69 124.4V119.004C458.69 118.583 459.036 118.238 459.457 118.238H461.237C461.658 118.238 462.003 118.583 462.003 119.004V124.4C462.003 124.821 461.658 125.166 461.237 125.166H459.457C459.036 125.166 458.69 124.821 458.69 124.4Z" fill="white"/>
<path d="M458.69 124.4V119.004C458.69 118.583 459.036 118.238 459.457 118.238H461.237C461.658 118.238 462.003 118.583 462.003 119.004V124.4C462.003 124.821 461.658 125.166 461.237 125.166H459.457C459.036 125.166 458.69 124.821 458.69 124.4Z" stroke="#02435F" stroke-width="0.351" stroke-miterlimit="10"/>
<path d="M454.168 124.648C451.675 124.648 449.646 123.332 449.646 121.702C449.646 120.073 451.675 118.756 454.168 118.756C456.661 118.756 458.69 120.073 458.69 121.702C458.69 123.332 456.672 124.648 454.168 124.648Z" fill="white"/>
<path d="M454.168 124.648C451.675 124.648 449.646 123.332 449.646 121.702C449.646 120.073 451.675 118.756 454.168 118.756C456.661 118.756 458.69 120.073 458.69 121.702C458.69 123.332 456.672 124.648 454.168 124.648Z" stroke="#02435F" stroke-width="0.351" stroke-miterlimit="10"/>
<path d="M455.604 118.907V124.573" stroke="#02435F" stroke-width="0.351" stroke-miterlimit="10"/>
<path d="M458.69 85.3875V79.9916C458.69 79.5707 459.036 79.2253 459.457 79.2253H461.237C461.658 79.2253 462.003 79.5707 462.003 79.9916V85.3875C462.003 85.8084 461.658 86.1537 461.237 86.1537H459.457C459.036 86.1429 458.69 85.8084 458.69 85.3875Z" fill="white"/>
<path d="M458.69 85.3875V79.9916C458.69 79.5707 459.036 79.2253 459.457 79.2253H461.237C461.658 79.2253 462.003 79.5707 462.003 79.9916V85.3875C462.003 85.8084 461.658 86.1537 461.237 86.1537H459.457C459.036 86.1429 458.69 85.8084 458.69 85.3875Z" stroke="#02435F" stroke-width="0.351" stroke-miterlimit="10"/>
<path d="M454.168 85.6358C451.675 85.6358 449.646 84.3192 449.646 82.6896C449.646 81.06 451.675 79.7434 454.168 79.7434C456.661 79.7434 458.69 81.06 458.69 82.6896C458.69 84.3084 456.672 85.6358 454.168 85.6358Z" fill="white"/>
<path d="M454.168 85.6358C451.675 85.6358 449.646 84.3192 449.646 82.6896C449.646 81.06 451.675 79.7434 454.168 79.7434C456.661 79.7434 458.69 81.06 458.69 82.6896C458.69 84.3084 456.672 85.6358 454.168 85.6358Z" stroke="#02435F" stroke-width="0.351" stroke-miterlimit="10"/>
<path d="M455.604 79.8837V85.5602" stroke="#02435F" stroke-width="0.351" stroke-miterlimit="10"/>
<path d="M247.655 79.9808V85.3876C247.655 85.8085 247.31 86.1538 246.889 86.1538H245.108C244.687 86.1538 244.342 85.8085 244.342 85.3876V79.9808C244.342 79.5599 244.687 79.2146 245.108 79.2146H246.889C247.32 79.2254 247.655 79.5599 247.655 79.9808Z" fill="white"/>
<path d="M247.655 79.9808V85.3876C247.655 85.8085 247.31 86.1538 246.889 86.1538H245.108C244.687 86.1538 244.342 85.8085 244.342 85.3876V79.9808C244.342 79.5599 244.687 79.2146 245.108 79.2146H246.889C247.32 79.2254 247.655 79.5599 247.655 79.9808Z" stroke="#02435F" stroke-width="0.351" stroke-miterlimit="10"/>
<path d="M252.176 79.7325C254.669 79.7325 256.698 81.0492 256.698 82.6787C256.698 84.3083 254.669 85.6249 252.176 85.6249C249.683 85.6249 247.654 84.3083 247.654 82.6787C247.654 81.0599 249.683 79.7325 252.176 79.7325Z" fill="white"/>
<path d="M252.176 79.7325C254.669 79.7325 256.698 81.0492 256.698 82.6787C256.698 84.3083 254.669 85.6249 252.176 85.6249C249.683 85.6249 247.654 84.3083 247.654 82.6787C247.654 81.0599 249.683 79.7325 252.176 79.7325Z" stroke="#02435F" stroke-width="0.351" stroke-miterlimit="10"/>
<path d="M250.741 85.4846V79.8081" stroke="#02435F" stroke-width="0.351" stroke-miterlimit="10"/>
<path d="M183.324 112.95V107.554C183.324 107.133 183.67 106.788 184.09 106.788H185.871C186.292 106.788 186.637 107.133 186.637 107.554V112.95C186.637 113.371 186.292 113.716 185.871 113.716H184.09C183.67 113.716 183.324 113.371 183.324 112.95Z" fill="white"/>
<path d="M183.324 112.95V107.554C183.324 107.133 183.67 106.788 184.09 106.788H185.871C186.292 106.788 186.637 107.133 186.637 107.554V112.95C186.637 113.371 186.292 113.716 185.871 113.716H184.09C183.67 113.716 183.324 113.371 183.324 112.95Z" stroke="#02435F" stroke-width="0.351" stroke-miterlimit="10"/>
<path d="M178.802 113.198C176.309 113.198 174.28 111.882 174.28 110.252C174.28 108.623 176.309 107.306 178.802 107.306C181.295 107.306 183.324 108.623 183.324 110.252C183.324 111.882 181.306 113.198 178.802 113.198Z" fill="white"/>
<path d="M178.802 113.198C176.309 113.198 174.28 111.882 174.28 110.252C174.28 108.623 176.309 107.306 178.802 107.306C181.295 107.306 183.324 108.623 183.324 110.252C183.324 111.882 181.306 113.198 178.802 113.198Z" stroke="#02435F" stroke-width="0.351" stroke-miterlimit="10"/>
<path d="M180.238 107.457V113.123" stroke="#02435F" stroke-width="0.351" stroke-miterlimit="10"/>
<path d="M247.655 119.004V124.411C247.655 124.832 247.31 125.177 246.889 125.177H245.108C244.687 125.177 244.342 124.832 244.342 124.411V119.004C244.342 118.583 244.687 118.238 245.108 118.238H246.889C247.32 118.238 247.655 118.583 247.655 119.004Z" fill="white"/>
<path d="M247.655 119.004V124.411C247.655 124.832 247.31 125.177 246.889 125.177H245.108C244.687 125.177 244.342 124.832 244.342 124.411V119.004C244.342 118.583 244.687 118.238 245.108 118.238H246.889C247.32 118.238 247.655 118.583 247.655 119.004Z" stroke="#02435F" stroke-width="0.351" stroke-miterlimit="10"/>
<path d="M252.176 118.756C254.669 118.756 256.698 120.073 256.698 121.702C256.698 123.332 254.669 124.648 252.176 124.648C249.683 124.648 247.654 123.332 247.654 121.702C247.654 120.073 249.683 118.756 252.176 118.756Z" fill="white"/>
<path d="M252.176 124.648C254.673 124.648 256.698 123.329 256.698 121.702C256.698 120.075 254.673 118.756 252.176 118.756C249.679 118.756 247.654 120.075 247.654 121.702C247.654 123.329 249.679 124.648 252.176 124.648Z" stroke="#02435F" stroke-width="0.351" stroke-miterlimit="10"/>
<path d="M250.741 124.497V118.832" stroke="#02435F" stroke-width="0.351" stroke-miterlimit="10"/>
<path d="M393.169 106.812L393.096 123.572L394.531 123.578L394.604 106.818L393.169 106.812Z" stroke="#02435F" stroke-width="0.351" stroke-miterlimit="10"/>
<path d="M393.345 123.58C393.593 123.58 393.852 123.58 394.1 123.558" stroke="#02435F" stroke-width="0.351" stroke-miterlimit="10"/>
<path d="M395.697 123.397C401.946 122.382 406.845 117.31 407.568 110.953" stroke="#02435F" stroke-width="0.351" stroke-miterlimit="10" stroke-dasharray="1.49 1.49"/>
<path d="M407.634 110.155C407.645 109.907 407.655 109.648 407.655 109.4" stroke="#02435F" stroke-width="0.351" stroke-miterlimit="10"/>
<path d="M395.784 107.058L407.806 107.112" stroke="#02435F" stroke-width="0.351" stroke-miterlimit="10" stroke-dasharray="1.4 1.4"/>
<path d="M425.948 38.7983L425.887 52.299L427.085 52.3044L427.146 38.8038L425.948 38.7983Z" stroke="#02435F" stroke-width="0.351" stroke-miterlimit="10"/>
<path d="M426.109 52.2997C426.358 52.2997 426.617 52.2997 426.865 52.2781" stroke="#02435F" stroke-width="0.351" stroke-miterlimit="10"/>
<path d="M428.387 52.0945C433.383 51.188 437.29 47.2706 437.981 42.3818" stroke="#02435F" stroke-width="0.351" stroke-miterlimit="10" stroke-dasharray="1.42 1.42"/>
<path d="M438.056 41.6264C438.077 41.3782 438.088 41.1192 438.088 40.871" stroke="#02435F" stroke-width="0.351" stroke-miterlimit="10"/>
<path d="M428.148 38.9933L438.207 39.0365" stroke="#02435F" stroke-width="0.351" stroke-miterlimit="10" stroke-dasharray="1.4 1.4"/>
<path d="M279.869 131.386L267.588 131.448L267.594 132.635L279.875 132.573L279.869 131.386Z" stroke="#02435F" stroke-width="0.351" stroke-miterlimit="10"/>
<path d="M279.857 131.598C279.857 131.857 279.847 132.106 279.836 132.354" stroke="#02435F" stroke-width="0.281" stroke-miterlimit="10"/>
<path d="M279.674 133.843C278.8 138.786 275.033 142.649 270.317 143.34" stroke="#02435F" stroke-width="0.281" stroke-miterlimit="10" stroke-dasharray="1.39 1.39"/>
<path d="M269.573 143.426C269.325 143.448 269.066 143.459 268.817 143.459" stroke="#02435F" stroke-width="0.281" stroke-miterlimit="10"/>
<path d="M267.587 133.616L267.63 143.577" stroke="#02435F" stroke-width="0.281" stroke-miterlimit="10" stroke-dasharray="1.4 1.4"/>
<path d="M279.869 117.907L267.588 117.969L267.594 119.156L279.875 119.094L279.869 117.907Z" stroke="#02435F" stroke-width="0.351" stroke-miterlimit="10"/>
<path d="M279.857 118.119C279.857 118.378 279.847 118.627 279.836 118.875" stroke="#02435F" stroke-width="0.281" stroke-miterlimit="10"/>
<path d="M279.674 120.364C278.8 125.307 275.033 129.17 270.317 129.861" stroke="#02435F" stroke-width="0.281" stroke-miterlimit="10" stroke-dasharray="1.39 1.39"/>
<path d="M269.573 129.947C269.325 129.969 269.066 129.98 268.817 129.98" stroke="#02435F" stroke-width="0.281" stroke-miterlimit="10"/>
<path d="M267.587 120.137L267.63 130.098" stroke="#02435F" stroke-width="0.281" stroke-miterlimit="10" stroke-dasharray="1.4 1.4"/>
<path d="M267.595 71.8523L267.589 73.0394L279.87 73.101L279.876 71.9138L267.595 71.8523Z" stroke="#02435F" stroke-width="0.351" stroke-miterlimit="10"/>
<path d="M279.857 72.8906C279.857 72.6316 279.847 72.3833 279.836 72.1351" stroke="#02435F" stroke-width="0.281" stroke-miterlimit="10"/>
<path d="M279.674 70.6458C278.8 65.7031 275.033 61.8396 270.317 61.1489" stroke="#02435F" stroke-width="0.281" stroke-miterlimit="10" stroke-dasharray="1.39 1.39"/>
<path d="M269.573 61.0626C269.325 61.0411 269.066 61.0303 268.817 61.0303" stroke="#02435F" stroke-width="0.281" stroke-miterlimit="10"/>
<path d="M267.587 70.8725L267.63 60.9116" stroke="#02435F" stroke-width="0.281" stroke-miterlimit="10" stroke-dasharray="1.4 1.4"/>
<path d="M267.586 85.3299L267.58 86.517L279.861 86.5785L279.867 85.3914L267.586 85.3299Z" stroke="#02435F" stroke-width="0.351" stroke-miterlimit="10"/>
<path d="M279.857 86.3696C279.857 86.1214 279.847 85.8623 279.836 85.6141" stroke="#02435F" stroke-width="0.281" stroke-miterlimit="10"/>
<path d="M279.674 84.1249C278.8 79.1822 275.033 75.3187 270.317 74.6281" stroke="#02435F" stroke-width="0.281" stroke-miterlimit="10" stroke-dasharray="1.39 1.39"/>
<path d="M269.573 74.5416C269.325 74.5201 269.066 74.5093 268.817 74.5093" stroke="#02435F" stroke-width="0.281" stroke-miterlimit="10"/>
<path d="M267.587 84.3515L267.63 74.3906" stroke="#02435F" stroke-width="0.281" stroke-miterlimit="10" stroke-dasharray="1.4 1.4"/>
<path d="M173.72 90.2115L186.756 90.2762V89.0676L173.72 89.0028V90.2115Z" stroke="#02435F" stroke-width="0.351" stroke-miterlimit="10"/>
<path d="M173.72 89.2295C173.72 89.4885 173.72 89.7367 173.741 89.9849" stroke="#02435F" stroke-width="0.351" stroke-miterlimit="10"/>
<path d="M173.903 91.485C174.767 96.5032 178.533 100.431 183.26 101.144" stroke="#02435F" stroke-width="0.351" stroke-miterlimit="10" stroke-dasharray="1.4 1.4"/>
<path d="M183.993 101.219C184.241 101.241 184.5 101.252 184.749 101.252" stroke="#02435F" stroke-width="0.351" stroke-miterlimit="10"/>
<path d="M186.572 91.2799L186.54 101.381" stroke="#02435F" stroke-width="0.351" stroke-miterlimit="10" stroke-dasharray="1.4 1.4"/>
<path d="M434.663 59.4532L433.465 59.4586L433.526 72.9593L434.724 72.9538L434.663 59.4532Z" stroke="#02435F" stroke-width="0.351" stroke-miterlimit="10"/>
<path d="M433.675 59.4546C433.934 59.4546 434.182 59.4654 434.43 59.4762" stroke="#02435F" stroke-width="0.351" stroke-miterlimit="10"/>
<path d="M435.962 59.6489C440.959 60.5554 444.865 64.4729 445.556 69.3724" stroke="#02435F" stroke-width="0.351" stroke-miterlimit="10" stroke-dasharray="1.42 1.42"/>
<path d="M445.632 70.1278C445.653 70.376 445.664 70.635 445.664 70.8832" stroke="#02435F" stroke-width="0.351" stroke-miterlimit="10"/>
<path d="M435.714 72.7611L445.783 72.7179" stroke="#02435F" stroke-width="0.351" stroke-miterlimit="10" stroke-dasharray="1.4 1.4"/>
<path d="M426.251 161.708L426.189 175.209L427.387 175.214L427.449 161.714L426.251 161.708Z" stroke="#02435F" stroke-width="0.351" stroke-miterlimit="10"/>
<path d="M426.411 175.219C426.67 175.219 426.918 175.219 427.167 175.198" stroke="#02435F" stroke-width="0.351" stroke-miterlimit="10"/>
<path d="M428.688 175.025C433.685 174.118 437.592 170.201 438.283 165.302" stroke="#02435F" stroke-width="0.351" stroke-miterlimit="10" stroke-dasharray="1.42 1.42"/>
<path d="M438.369 164.546C438.391 164.298 438.391 164.039 438.402 163.791" stroke="#02435F" stroke-width="0.351" stroke-miterlimit="10"/>
<path d="M428.451 161.913L438.509 161.956" stroke="#02435F" stroke-width="0.351" stroke-miterlimit="10" stroke-dasharray="1.4 1.4"/>
<path d="M433.519 130.901L433.458 144.401L434.656 144.407L434.717 130.906L433.519 130.901Z" stroke="#02435F" stroke-width="0.351" stroke-miterlimit="10"/>
<path d="M433.675 144.408C433.934 144.408 434.182 144.398 434.43 144.387" stroke="#02435F" stroke-width="0.351" stroke-miterlimit="10"/>
<path d="M435.962 144.203C440.959 143.297 444.865 139.379 445.556 134.491" stroke="#02435F" stroke-width="0.351" stroke-miterlimit="10" stroke-dasharray="1.42 1.42"/>
<path d="M445.632 133.735C445.653 133.487 445.664 133.239 445.664 132.98" stroke="#02435F" stroke-width="0.351" stroke-miterlimit="10"/>
<path d="M435.714 131.102L445.783 131.145" stroke="#02435F" stroke-width="0.351" stroke-miterlimit="10" stroke-dasharray="1.4 1.4"/>
<path d="M394.37 79.1048L392.935 79.1111L393.008 95.8709L394.443 95.8646L394.37 79.1048Z" stroke="#02435F" stroke-width="0.351" stroke-miterlimit="10"/>
<path d="M393.194 79.1067C393.443 79.1067 393.702 79.1067 393.95 79.1283" stroke="#02435F" stroke-width="0.351" stroke-miterlimit="10"/>
<path d="M395.547 79.2902C401.795 80.3046 406.695 85.3876 407.418 91.7332" stroke="#02435F" stroke-width="0.351" stroke-miterlimit="10" stroke-dasharray="1.49 1.49"/>
<path d="M407.482 92.5426C407.493 92.7908 407.504 93.0498 407.504 93.298" stroke="#02435F" stroke-width="0.351" stroke-miterlimit="10"/>
<path d="M395.633 95.629L407.644 95.5751" stroke="#02435F" stroke-width="0.351" stroke-miterlimit="10" stroke-dasharray="1.4 1.4"/>
<path d="M304.744 106.66L304.671 123.42L306.106 123.426L306.18 106.666L304.744 106.66Z" stroke="#02435F" stroke-width="0.351" stroke-miterlimit="10"/>
<path d="M304.927 123.418C305.175 123.418 305.434 123.418 305.682 123.396" stroke="#02435F" stroke-width="0.351" stroke-miterlimit="10"/>
<path d="M307.28 123.235C313.529 122.22 318.428 117.148 319.151 110.792" stroke="#02435F" stroke-width="0.351" stroke-miterlimit="10" stroke-dasharray="1.49 1.49"/>
<path d="M319.216 109.993C319.227 109.745 319.237 109.486 319.237 109.238" stroke="#02435F" stroke-width="0.351" stroke-miterlimit="10"/>
<path d="M307.366 106.896L319.388 106.95" stroke="#02435F" stroke-width="0.351" stroke-miterlimit="10" stroke-dasharray="1.4 1.4"/>
<path d="M306.102 79.1048L304.667 79.1111L304.74 95.8709L306.176 95.8646L306.102 79.1048Z" stroke="#02435F" stroke-width="0.351" stroke-miterlimit="10"/>
<path d="M304.927 79.1067C305.175 79.1067 305.434 79.1067 305.682 79.1283" stroke="#02435F" stroke-width="0.351" stroke-miterlimit="10"/>
<path d="M307.28 79.2902C313.529 80.3046 318.428 85.3876 319.151 91.7332" stroke="#02435F" stroke-width="0.351" stroke-miterlimit="10" stroke-dasharray="1.49 1.49"/>
<path d="M319.216 92.5426C319.227 92.7908 319.237 93.0498 319.237 93.298" stroke="#02435F" stroke-width="0.351" stroke-miterlimit="10"/>
<path d="M307.366 95.629L319.388 95.5751" stroke="#02435F" stroke-width="0.351" stroke-miterlimit="10" stroke-dasharray="1.4 1.4"/>
<path d="M433.037 118.314H421.771V128.609H433.037V118.314Z" stroke="#02435F" stroke-width="0.351" stroke-miterlimit="10"/>
<path d="M433.037 108.191H421.771V118.745H433.037V108.191Z" stroke="#02435F" stroke-width="0.351" stroke-miterlimit="10"/>
<path d="M427.404 118.314V108.191" stroke="#02435F" stroke-width="0.351" stroke-miterlimit="10"/>
<path d="M424.178 118.411H430.631" stroke="#02435F" stroke-width="0.351" stroke-miterlimit="10"/>
<path d="M424.178 117.332H430.631" stroke="#02435F" stroke-width="0.351" stroke-miterlimit="10"/>
<path d="M424.178 116.252H430.631" stroke="#02435F" stroke-width="0.351" stroke-miterlimit="10"/>
<path d="M424.178 112.896H430.631" stroke="#02435F" stroke-width="0.351" stroke-miterlimit="10"/>
<path d="M424.178 112.097H430.631" stroke="#02435F" stroke-width="0.351" stroke-miterlimit="10"/>
<path d="M424.178 110.975H430.631" stroke="#02435F" stroke-width="0.351" stroke-miterlimit="10"/>
<path d="M424.178 109.982H430.631" stroke="#02435F" stroke-width="0.351" stroke-miterlimit="10"/>
<path d="M421.152 108.19L412.435 114.625L413.005 115.398L421.723 108.963L421.152 108.19Z" stroke="#02435F" stroke-width="0.282" stroke-miterlimit="10"/>
<path d="M413.526 116.004C413.677 116.144 413.829 116.274 413.98 116.403" stroke="#02435F" stroke-width="0.282" stroke-miterlimit="10"/>
<path d="M414.875 117.062C415.954 117.752 417.174 118.217 418.479 118.389" stroke="#02435F" stroke-width="0.282" stroke-miterlimit="10" stroke-dasharray="1.02 1.02"/>
<path d="M419.041 118.443C419.246 118.454 419.44 118.465 419.645 118.465" stroke="#02435F" stroke-width="0.282" stroke-miterlimit="10"/>
<path d="M413.01 121.313L412.439 122.086L421.157 128.521L421.728 127.748L413.01 121.313Z" stroke="#02435F" stroke-width="0.282" stroke-miterlimit="10"/>
<path d="M413.526 120.72C413.677 120.58 413.829 120.45 413.98 120.321" stroke="#02435F" stroke-width="0.282" stroke-miterlimit="10"/>
<path d="M414.875 119.673C415.954 118.983 417.174 118.529 418.479 118.346" stroke="#02435F" stroke-width="0.282" stroke-miterlimit="10" stroke-dasharray="1.02 1.02"/>
<path d="M419.041 118.281C419.246 118.27 419.44 118.26 419.645 118.26" stroke="#02435F" stroke-width="0.282" stroke-miterlimit="10"/>
<path d="M294.47 106.065H284.175V117.332H294.47V106.065Z" stroke="#02435F" stroke-width="0.351" stroke-miterlimit="10"/>
<path d="M304.593 106.065H294.038V117.332H304.593V106.065Z" stroke="#02435F" stroke-width="0.351" stroke-miterlimit="10"/>
<path d="M294.47 111.698H304.592" stroke="#02435F" stroke-width="0.351" stroke-miterlimit="10"/>
<path d="M294.384 114.914V108.461" stroke="#02435F" stroke-width="0.351" stroke-miterlimit="10"/>
<path d="M295.463 114.914V108.461" stroke="#02435F" stroke-width="0.351" stroke-miterlimit="10"/>
<path d="M296.531 114.914V108.461" stroke="#02435F" stroke-width="0.351" stroke-miterlimit="10"/>
<path d="M299.888 114.914V108.461" stroke="#02435F" stroke-width="0.351" stroke-miterlimit="10"/>
<path d="M300.686 114.914V108.461" stroke="#02435F" stroke-width="0.351" stroke-miterlimit="10"/>
<path d="M301.809 114.914V108.461" stroke="#02435F" stroke-width="0.351" stroke-miterlimit="10"/>
<path d="M302.812 114.914V108.461" stroke="#02435F" stroke-width="0.351" stroke-miterlimit="10"/>
<path d="M303.833 117.384L297.398 126.101L298.171 126.672L304.606 117.954L303.833 117.384Z" stroke="#02435F" stroke-width="0.282" stroke-miterlimit="10"/>
<path d="M296.779 125.577C296.639 125.425 296.509 125.274 296.38 125.123" stroke="#02435F" stroke-width="0.282" stroke-miterlimit="10"/>
<path d="M295.733 124.228C295.042 123.148 294.578 121.929 294.405 120.623" stroke="#02435F" stroke-width="0.282" stroke-miterlimit="10" stroke-dasharray="1.02 1.02"/>
<path d="M294.351 120.062C294.34 119.857 294.329 119.663 294.329 119.458" stroke="#02435F" stroke-width="0.282" stroke-miterlimit="10"/>
<path d="M285.046 117.388L284.273 117.959L290.708 126.677L291.481 126.106L285.046 117.388Z" stroke="#02435F" stroke-width="0.282" stroke-miterlimit="10"/>
<path d="M292.074 125.577C292.215 125.425 292.344 125.274 292.474 125.123" stroke="#02435F" stroke-width="0.282" stroke-miterlimit="10"/>
<path d="M293.121 124.228C293.812 123.148 294.265 121.929 294.448 120.623" stroke="#02435F" stroke-width="0.282" stroke-miterlimit="10" stroke-dasharray="1.02 1.02"/>
<path d="M294.502 120.062C294.513 119.857 294.524 119.663 294.524 119.458" stroke="#02435F" stroke-width="0.282" stroke-miterlimit="10"/>
<path d="M294.47 84.373H284.175V95.6398H294.47V84.373Z" stroke="#02435F" stroke-width="0.351" stroke-miterlimit="10"/>
<path d="M304.593 84.373H294.038V95.6398H304.593V84.373Z" stroke="#02435F" stroke-width="0.351" stroke-miterlimit="10"/>
<path d="M294.47 90.0065H304.592" stroke="#02435F" stroke-width="0.351" stroke-miterlimit="10"/>
<path d="M294.384 86.7797V93.2332" stroke="#02435F" stroke-width="0.351" stroke-miterlimit="10"/>
<path d="M295.463 86.7797V93.2332" stroke="#02435F" stroke-width="0.351" stroke-miterlimit="10"/>
<path d="M296.531 86.7797V93.2332" stroke="#02435F" stroke-width="0.351" stroke-miterlimit="10"/>
<path d="M299.888 86.7797V93.2332" stroke="#02435F" stroke-width="0.351" stroke-miterlimit="10"/>
<path d="M300.686 86.7797V93.2332" stroke="#02435F" stroke-width="0.351" stroke-miterlimit="10"/>
<path d="M301.809 86.7797V93.2332" stroke="#02435F" stroke-width="0.351" stroke-miterlimit="10"/>
<path d="M302.812 86.7797V93.2332" stroke="#02435F" stroke-width="0.351" stroke-miterlimit="10"/>
<path d="M298.166 75.0092L297.394 75.5796L303.828 84.2975L304.601 83.727L298.166 75.0092Z" stroke="#02435F" stroke-width="0.282" stroke-miterlimit="10"/>
<path d="M296.779 76.1282C296.639 76.2793 296.509 76.4304 296.38 76.5814" stroke="#02435F" stroke-width="0.282" stroke-miterlimit="10"/>
<path d="M295.733 77.4771C295.042 78.5562 294.578 79.7757 294.405 81.0815" stroke="#02435F" stroke-width="0.282" stroke-miterlimit="10" stroke-dasharray="1.02 1.02"/>
<path d="M294.351 81.6428C294.34 81.8479 294.329 82.0421 294.329 82.2472" stroke="#02435F" stroke-width="0.282" stroke-miterlimit="10"/>
<path d="M290.71 75.0077L284.275 83.7256L285.048 84.296L291.483 75.5781L290.71 75.0077Z" stroke="#02435F" stroke-width="0.282" stroke-miterlimit="10"/>
<path d="M292.074 76.1282C292.215 76.2793 292.344 76.4304 292.474 76.5814" stroke="#02435F" stroke-width="0.282" stroke-miterlimit="10"/>
<path d="M293.121 77.4771C293.812 78.5562 294.265 79.7757 294.448 81.0815" stroke="#02435F" stroke-width="0.282" stroke-miterlimit="10" stroke-dasharray="1.02 1.02"/>
<path d="M294.502 81.6428C294.513 81.8479 294.524 82.0421 294.524 82.2472" stroke="#02435F" stroke-width="0.282" stroke-miterlimit="10"/>
<path d="M433.037 84.8911H421.771V95.1866H433.037V84.8911Z" stroke="#02435F" stroke-width="0.351" stroke-miterlimit="10"/>
<path d="M433.037 74.7683H421.771V85.3228H433.037V74.7683Z" stroke="#02435F" stroke-width="0.351" stroke-miterlimit="10"/>
<path d="M427.404 84.8911V74.7683" stroke="#02435F" stroke-width="0.351" stroke-miterlimit="10"/>
<path d="M424.178 84.9883H430.631" stroke="#02435F" stroke-width="0.351" stroke-miterlimit="10"/>
<path d="M424.178 83.9091H430.631" stroke="#02435F" stroke-width="0.351" stroke-miterlimit="10"/>
<path d="M424.178 82.8298H430.631" stroke="#02435F" stroke-width="0.351" stroke-miterlimit="10"/>
<path d="M424.178 79.4736H430.631" stroke="#02435F" stroke-width="0.351" stroke-miterlimit="10"/>
<path d="M424.178 78.675H430.631" stroke="#02435F" stroke-width="0.351" stroke-miterlimit="10"/>
<path d="M424.178 77.5526H430.631" stroke="#02435F" stroke-width="0.351" stroke-miterlimit="10"/>
<path d="M424.178 76.5598H430.631" stroke="#02435F" stroke-width="0.351" stroke-miterlimit="10"/>
<path d="M421.147 74.7569L412.429 81.1919L412.999 81.9647L421.717 75.5297L421.147 74.7569Z" stroke="#02435F" stroke-width="0.282" stroke-miterlimit="10"/>
<path d="M413.526 82.5817C413.677 82.722 413.829 82.8515 413.98 82.981" stroke="#02435F" stroke-width="0.282" stroke-miterlimit="10"/>
<path d="M414.875 83.6284C415.954 84.3191 417.174 84.7832 418.479 84.9558" stroke="#02435F" stroke-width="0.282" stroke-miterlimit="10" stroke-dasharray="1.02 1.02"/>
<path d="M419.041 85.0206C419.246 85.0314 419.44 85.0422 419.645 85.0422" stroke="#02435F" stroke-width="0.282" stroke-miterlimit="10"/>
<path d="M413.002 87.8821L412.432 88.6549L421.15 95.0898L421.72 94.317L413.002 87.8821Z" stroke="#02435F" stroke-width="0.282" stroke-miterlimit="10"/>
<path d="M413.526 87.2977C413.677 87.1574 413.829 87.0279 413.98 86.8984" stroke="#02435F" stroke-width="0.282" stroke-miterlimit="10"/>
<path d="M414.875 86.2401C415.954 85.5494 417.174 85.0962 418.479 84.9127" stroke="#02435F" stroke-width="0.282" stroke-miterlimit="10" stroke-dasharray="1.02 1.02"/>
<path d="M419.041 84.8587C419.246 84.8479 419.44 84.8372 419.645 84.8372" stroke="#02435F" stroke-width="0.282" stroke-miterlimit="10"/>
<path d="M243.932 105.806V149.362" stroke="#0D3F57" stroke-width="0.702" stroke-miterlimit="10"/>
<path d="M243.932 54.3501V95.7694" stroke="#0D3F57" stroke-width="0.702" stroke-miterlimit="10"/>
<path d="M186.572 101.381V125.879" stroke="#0D3F57" stroke-width="0.702" stroke-miterlimit="10"/>
<path d="M186.572 79.8081V89.0676" stroke="#0D3F57" stroke-width="0.702" stroke-miterlimit="10"/>
<path d="M392.73 95.8017H358.239V30.8885" stroke="#0D3F57" stroke-width="0.729" stroke-miterlimit="10"/>
<path d="M304.669 95.7694H267.609V86.5208" stroke="#0D3F57" stroke-width="0.948" stroke-miterlimit="10"/>
<path d="M462.489 17.9059V95.7693H407.375" stroke="#0D3F57" stroke-width="0.725" stroke-miterlimit="10"/>
<path d="M392.73 107.23H358.239V171.712" stroke="#0D3F57" stroke-width="0.722" stroke-miterlimit="10"/>
<path d="M462.489 184.241V107.845H407.375" stroke="#0D3F57" stroke-width="0.716" stroke-miterlimit="10"/>
<path d="M438.207 39.4141H462.489" stroke="#0D3F57" stroke-width="0.702" stroke-miterlimit="10"/>
<path d="M447.649 72.3186H462.488" stroke="#0D3F57" stroke-width="0.702" stroke-miterlimit="10"/>
<path d="M447.649 131.49H462.488" stroke="#0D3F57" stroke-width="0.702" stroke-miterlimit="10"/>
<path d="M439.179 161.805H462.489" stroke="#0D3F57" stroke-width="0.702" stroke-miterlimit="10"/>
<path d="M424.922 23.2155V40.2882" stroke="#0D3F57" stroke-width="0.702" stroke-miterlimit="10"/>
<path d="M425.43 161.211V179.061" stroke="#0D3F57" stroke-width="0.702" stroke-miterlimit="10"/>
<path d="M433.459 73.3007V96.3306" stroke="#0D3F57" stroke-width="0.702" stroke-miterlimit="10"/>
<path d="M433.459 108.353V132.397" stroke="#0D3F57" stroke-width="0.702" stroke-miterlimit="10"/>
<path d="M379.78 73.0956H405.259V25.1472L360.635 30.8885V70.8724V75.0381V95.7909H374.837V78.2972C374.837 75.4266 377.049 73.0956 379.78 73.0956Z" fill="white"/>
<path d="M379.78 73.0956H405.259V25.1472L360.635 30.8885V70.8724V75.0381V95.7909H374.837V78.2972C374.837 75.4266 377.049 73.0956 379.78 73.0956Z" stroke="#02435F" stroke-width="0.684" stroke-miterlimit="10"/>
<path d="M379.089 129.116H404.569V177.021L359.944 171.712V131.285V127.12V106.928H374.146V123.904C374.136 126.774 376.359 129.116 379.089 129.116Z" fill="white"/>
<path d="M379.089 129.116H404.569V177.021L359.944 171.712V131.285V127.12V106.928H374.146V123.904C374.136 126.774 376.359 129.116 379.089 129.116Z" stroke="#02435F" stroke-width="0.684" stroke-miterlimit="10"/>
<path d="M361.876 166.823V130.454H401.547C402.4 130.454 403.079 131.145 403.079 131.987V165.28C403.079 166.132 402.389 166.812 401.547 166.812H361.876V166.823Z" fill="white"/>
<path d="M361.876 166.823V130.454H401.547C402.4 130.454 403.079 131.145 403.079 131.987V165.28C403.079 166.132 402.389 166.812 401.547 166.812H361.876V166.823Z" stroke="#02435F" stroke-width="0.351" stroke-miterlimit="10"/>
<path d="M395.309 130.465H377.006V166.834H395.309V130.465Z" stroke="#02435F" stroke-width="0.351" stroke-miterlimit="10"/>
<path d="M400.64 130.66H382.952V166.618H400.64V130.66Z" fill="#8FBAB8"/>
<path d="M367.855 134.091H370.575C371.934 134.091 373.035 135.192 373.035 136.541V143.005C373.035 144.365 371.934 145.455 370.575 145.455H367.855C366.495 145.455 365.405 144.354 365.405 143.005V136.541C365.405 135.192 366.506 134.091 367.855 134.091Z" stroke="#02435F" stroke-width="0.351" stroke-miterlimit="10"/>
<path d="M372.841 144.149H365.61" stroke="#02435F" stroke-width="0.351" stroke-miterlimit="10"/>
<path d="M367.855 150.463H370.575C371.934 150.463 373.035 151.563 373.035 152.912V159.366C373.035 160.726 371.934 161.816 370.575 161.816H367.855C366.495 161.816 365.405 160.715 365.405 159.366V152.912C365.405 151.563 366.506 150.463 367.855 150.463Z" stroke="#02435F" stroke-width="0.351" stroke-miterlimit="10"/>
<path d="M372.841 160.531H365.61" stroke="#02435F" stroke-width="0.351" stroke-miterlimit="10"/>
<path d="M361.822 71.93V35.5614H401.493C402.346 35.5614 403.026 36.2521 403.026 37.0938V70.3868C403.026 71.2394 402.335 71.9193 401.493 71.9193H361.822V71.93Z" fill="white"/>
<path d="M361.822 71.93V35.5614H401.493C402.346 35.5614 403.026 36.2521 403.026 37.0938V70.3868C403.026 71.2394 402.335 71.9193 401.493 71.9193H361.822V71.93Z" stroke="#02435F" stroke-width="0.351" stroke-miterlimit="10"/>
<path d="M395.266 35.5614H376.963V71.93H395.266V35.5614Z" stroke="#02435F" stroke-width="0.351" stroke-miterlimit="10"/>
<path d="M400.597 35.7665H382.909V71.6495H400.597V35.7665Z" fill="#8FBAB8"/>
<path d="M367.811 39.1875H370.531C371.891 39.1875 372.98 40.2883 372.98 41.6373V48.0908C372.98 49.4506 371.88 50.5406 370.531 50.5406H367.811C366.451 50.5406 365.361 49.4398 365.361 48.0908V41.6373C365.351 40.2883 366.451 39.1875 367.811 39.1875Z" stroke="#02435F" stroke-width="0.351" stroke-miterlimit="10"/>
<path d="M372.797 49.2455H365.556" stroke="#02435F" stroke-width="0.351" stroke-miterlimit="10"/>
<path d="M367.811 55.5696H370.531C371.891 55.5696 372.98 56.6703 372.98 58.0193V64.4729C372.98 65.8327 371.88 66.9226 370.531 66.9226H367.811C366.451 66.9226 365.361 65.8219 365.361 64.4729V58.0193C365.351 56.6596 366.451 55.5696 367.811 55.5696Z" stroke="#02435F" stroke-width="0.351" stroke-miterlimit="10"/>
<path d="M372.797 65.6276H365.556" stroke="#02435F" stroke-width="0.351" stroke-miterlimit="10"/>
<path d="M416.817 34.9031V23.604L424.404 22.7299V37.7198H419.893C418.199 37.7198 416.817 36.4571 416.817 34.9031Z" fill="white"/>
<path d="M416.817 34.9031V23.604L424.404 22.7299V37.7198H419.893C418.199 37.7198 416.817 36.4571 416.817 34.9031Z" stroke="#02435F" stroke-width="0.671" stroke-miterlimit="10"/>
<path d="M416.817 167.676V178.716L425.429 179.719V164.589H419.904C418.199 164.589 416.817 165.971 416.817 167.676Z" fill="white"/>
<path d="M416.817 167.676V178.716L425.429 179.719V164.589H419.904C418.199 164.589 416.817 165.971 416.817 167.676Z" stroke="#02435F" stroke-width="0.702" stroke-miterlimit="10"/>
<path d="M358.239 95.8018H320.079" stroke="#0D3F57" stroke-width="0.729" stroke-miterlimit="10"/>
<path d="M304.669 106.151H267.609V117.957" stroke="#0D3F57" stroke-width="0.702" stroke-miterlimit="10"/>
<path d="M358.239 107.09H320.079" stroke="#0D3F57" stroke-width="0.722" stroke-miterlimit="10"/>
<path d="M267.716 73.7432H244.244" stroke="#0D3F57" stroke-width="0.702" stroke-miterlimit="10"/>
<path d="M267.716 130.951H244.244" stroke="#0D3F57" stroke-width="0.702" stroke-miterlimit="10"/>
<path d="M267.609 46.9037V60.9115" stroke="#0D3F57" stroke-width="0.948" stroke-miterlimit="10"/>
<path d="M267.609 143.577V156.916" stroke="#0D3F57" stroke-width="0.702" stroke-miterlimit="10"/>
<path d="M267.608 95.7693H243.65" stroke="#0D3F57" stroke-width="0.702" stroke-miterlimit="10"/>
<path d="M267.609 106.151H243.932" stroke="#0D3F57" stroke-width="0.702" stroke-miterlimit="10"/>
<path d="M293.294 65.1527V40.4825L303.525 38.6155V62.9512C303.525 64.1599 302.543 65.1527 301.323 65.1527H293.294Z" fill="white"/>
<path d="M293.294 65.1527V40.4825L303.525 38.6155V62.9512C303.525 64.1599 302.543 65.1527 301.323 65.1527H293.294Z" stroke="#02435F" stroke-width="0.702" stroke-miterlimit="10"/>
<path d="M293.294 138.592V162.442L303.525 164.309V140.793C303.525 139.584 302.543 138.592 301.323 138.592H293.294Z" fill="white"/>
<path d="M293.294 138.592V162.442L303.525 164.309V140.793C303.525 139.584 302.543 138.592 301.323 138.592H293.294Z" stroke="#02435F" stroke-width="0.702" stroke-miterlimit="10"/>
<path d="M293.293 52.0406L267.587 58.4079" stroke="#02435F" stroke-width="0.351" stroke-miterlimit="10"/>
<path d="M267.717 145.078L293.294 151.078" stroke="#02435F" stroke-width="0.351" stroke-miterlimit="10"/>
<path d="M277.905 149.006L283.808 150.506C284.963 150.797 285.653 151.963 285.362 153.117L284.574 156.225C284.283 157.38 283.117 158.071 281.962 157.78L276.048 156.279C274.894 155.988 274.203 154.823 274.494 153.668L275.282 150.56C275.584 149.405 276.75 148.714 277.905 149.006Z" stroke="#02435F" stroke-width="0.351" stroke-miterlimit="10"/>
<path d="M278.942 154.641L278.022 158.282L279.257 158.593L280.177 154.952L278.942 154.641Z" fill="white"/>
<path d="M278.942 154.641L278.022 158.282L279.257 158.593L280.177 154.952L278.942 154.641Z" stroke="#02435F" stroke-width="0.351" stroke-miterlimit="10"/>
<path d="M279.35 152.707C279.448 152.308 279.847 152.071 280.246 152.168C280.646 152.265 280.883 152.675 280.786 153.063C280.689 153.463 280.279 153.7 279.89 153.603C279.491 153.506 279.243 153.107 279.35 152.707Z" stroke="#02435F" stroke-width="0.351" stroke-miterlimit="10"/>
<path d="M277.905 54.4148L283.808 52.9147C284.963 52.6233 285.653 51.4578 285.362 50.3031L284.574 47.195C284.283 46.0403 283.117 45.3496 281.962 45.641L276.048 47.1411C274.894 47.4324 274.203 48.598 274.494 49.7527L275.282 52.8608C275.584 54.0047 276.75 54.7062 277.905 54.4148Z" stroke="#02435F" stroke-width="0.351" stroke-miterlimit="10"/>
<path d="M279.266 44.8274L278.031 45.1403L278.954 48.7805L280.188 48.4677L279.266 44.8274Z" fill="white"/>
<path d="M279.266 44.8274L278.031 45.1403L278.954 48.7805L280.188 48.4677L279.266 44.8274Z" stroke="#02435F" stroke-width="0.351" stroke-miterlimit="10"/>
<path d="M279.35 50.7025C279.448 51.1018 279.847 51.3392 280.246 51.2421C280.646 51.1449 280.883 50.7348 280.786 50.3463C280.689 49.947 280.279 49.7096 279.89 49.8067C279.491 49.9039 279.243 50.3032 279.35 50.7025Z" fill="white"/>
<path d="M279.35 50.7025C279.448 51.1018 279.847 51.3392 280.246 51.2421C280.646 51.1449 280.883 50.7348 280.786 50.3463C280.689 49.947 280.279 49.7096 279.89 49.8067C279.491 49.9039 279.243 50.3032 279.35 50.7025Z" stroke="#02435F" stroke-width="0.351" stroke-miterlimit="10"/>
<path d="M358.239 95.8017V30.8885L313.917 37.3745V76.7756H338.749C341.501 76.7756 343.724 78.9988 343.724 81.7507V95.7802H358.239V95.8017Z" fill="white"/>
<path d="M358.239 95.8017V30.8885L313.917 37.3745V76.7756H338.749C341.501 76.7756 343.724 78.9988 343.724 81.7507V95.7801H358.239V95.8017Z" stroke="#02435F" stroke-width="0.702" stroke-miterlimit="10"/>
<path d="M358.239 107.23V171.723L313.917 165.787V125.684L338.749 125.954C341.501 125.954 343.724 123.72 343.724 120.979V107.23H358.239Z" fill="white"/>
<path d="M358.239 107.23V171.723L313.917 165.787V125.684L338.749 125.954C341.501 125.954 343.724 123.72 343.724 120.979V107.23H358.239V107.23Z" stroke="#02435F" stroke-width="0.702" stroke-miterlimit="10"/>
<path d="M356.717 39.1875V75.4482H317.046C316.194 75.4482 315.514 74.7576 315.514 73.9158V40.7199C315.514 39.8674 316.204 39.1875 317.046 39.1875H356.717Z" fill="white"/>
<path d="M356.717 39.1875V75.4482H317.046C316.194 75.4482 315.514 74.7576 315.514 73.9158V40.7199C315.514 39.8674 316.204 39.1875 317.046 39.1875H356.717Z" stroke="#02435F" stroke-width="0.35" stroke-miterlimit="10"/>
<path d="M341.587 39.1875H323.284V75.4482H341.587V39.1875Z" stroke="#02435F" stroke-width="0.35" stroke-miterlimit="10"/>
<path d="M335.641 39.3926H317.953V75.2216H335.641V39.3926Z" fill="#8FBAB8"/>
<path d="M350.739 71.8329H348.019C346.659 71.8329 345.569 70.7322 345.569 69.3832V62.9512C345.569 61.6022 346.67 60.5015 348.019 60.5015H350.739C352.088 60.5015 353.188 61.6022 353.188 62.9512V69.3832C353.188 70.7322 352.098 71.8329 350.739 71.8329Z" stroke="#02435F" stroke-width="0.35" stroke-miterlimit="10"/>
<path d="M345.753 61.7965H352.983" stroke="#02435F" stroke-width="0.35" stroke-miterlimit="10"/>
<path d="M350.739 55.5048H348.019C346.659 55.5048 345.569 54.4041 345.569 53.0551V46.6231C345.569 45.2741 346.67 44.1733 348.019 44.1733H350.739C352.088 44.1733 353.188 45.2741 353.188 46.6231V53.0551C353.188 54.4041 352.098 55.5048 350.739 55.5048Z" stroke="#02435F" stroke-width="0.35" stroke-miterlimit="10"/>
<path d="M345.753 45.4684H352.983" stroke="#02435F" stroke-width="0.35" stroke-miterlimit="10"/>
<path d="M357.031 127.584V163.844H317.36C316.507 163.844 315.827 163.154 315.827 162.312V129.116C315.827 128.274 316.518 127.584 317.36 127.584H357.031Z" fill="white"/>
<path d="M357.031 127.584V163.844H317.36C316.507 163.844 315.827 163.154 315.827 162.312V129.116C315.827 128.274 316.518 127.584 317.36 127.584H357.031V127.584Z" stroke="#02435F" stroke-width="0.35" stroke-miterlimit="10"/>
<path d="M341.9 127.584H323.597V163.844H341.9V127.584Z" stroke="#02435F" stroke-width="0.35" stroke-miterlimit="10"/>
<path d="M335.954 127.767H318.266V163.65H335.954V127.767Z" fill="#8FBAB8"/>
<path d="M351.052 160.229H348.333C346.973 160.229 345.883 159.129 345.883 157.78V151.348C345.883 149.988 346.984 148.898 348.333 148.898H351.052C352.401 148.898 353.502 149.999 353.502 151.348V157.78C353.502 159.129 352.412 160.229 351.052 160.229Z" stroke="#02435F" stroke-width="0.35" stroke-miterlimit="10"/>
<path d="M346.065 150.193H353.296" stroke="#02435F" stroke-width="0.35" stroke-miterlimit="10"/>
<path d="M351.052 143.901H348.333C346.973 143.901 345.883 142.8 345.883 141.451V135.019C345.883 133.67 346.984 132.57 348.333 132.57H351.052C352.401 132.57 353.502 133.67 353.502 135.019V141.451C353.502 142.8 352.412 143.901 351.052 143.901Z" stroke="#02435F" stroke-width="0.35" stroke-miterlimit="10"/>
<path d="M346.065 133.865H353.296" stroke="#02435F" stroke-width="0.35" stroke-miterlimit="10"/>
<path d="M423.853 24.1544H423.022V40.0724H423.853V24.1544Z" fill="white"/>
<path d="M423.853 24.1544H423.022V40.0724H423.853V24.1544Z" stroke="#02435F" stroke-width="0.424" stroke-miterlimit="10"/>
<path d="M294.945 43.774H294.114V59.6921H294.945V43.774Z" fill="white"/>
<path d="M294.945 43.774H294.114V59.6921H294.945V43.774Z" stroke="#02435F" stroke-width="0.424" stroke-miterlimit="10"/>
<path d="M294.945 143.005H294.114V158.923H294.945V143.005Z" fill="white"/>
<path d="M294.945 143.005H294.114V158.923H294.945V143.005Z" stroke="#02435F" stroke-width="0.424" stroke-miterlimit="10"/>
<path d="M187.598 109.281H186.767V125.199H187.598V109.281Z" fill="white"/>
<path d="M187.598 109.281H186.767V125.199H187.598V109.281Z" stroke="#02435F" stroke-width="0.424" stroke-miterlimit="10"/>
<path d="M424.911 161.719H424.08V177.637H424.911V161.719Z" fill="white"/>
<path d="M424.911 161.719H424.08V177.637H424.911V161.719Z" stroke="#02435F" stroke-width="0.424" stroke-miterlimit="10"/>
<path d="M186.486 125.717V100.367H188.979H192.12C193.803 100.367 195.163 101.726 195.163 103.41V130.185" stroke="#02435F" stroke-width="0.356" stroke-miterlimit="10"/>
<path d="M192.238 106.443H186.767V108.461H192.238V106.443Z" stroke="#02435F" stroke-width="0.28" stroke-miterlimit="10"/>
<path d="M192.238 100.367H186.767V102.385H192.238V100.367Z" stroke="#02435F" stroke-width="0.28" stroke-miterlimit="10"/>
<path d="M293.305 40.8818H292.074V65.4873H293.305V40.8818Z" fill="#02435F"/>
<path d="M293.294 163.089L292.074 162.798V138.192H293.294V163.089Z" fill="#02435F"/>
<path d="M356.718 164.924H316.626L356.718 170.471V164.924Z" stroke="#02435F" stroke-width="0.35" stroke-miterlimit="10"/>
<path d="M348.591 164.924V169.348" stroke="#02435F" stroke-width="0.35" stroke-miterlimit="10"/>
<path d="M336.116 164.924V167.622" stroke="#02435F" stroke-width="0.35" stroke-miterlimit="10"/>
<path d="M356.718 38.022H316.626L356.718 32.4857V38.022Z" stroke="#02435F" stroke-width="0.35" stroke-miterlimit="10"/>
<path d="M348.591 38.0219V33.608" stroke="#02435F" stroke-width="0.35" stroke-miterlimit="10"/>
<path d="M336.116 38.022V35.3348" stroke="#02435F" stroke-width="0.35" stroke-miterlimit="10"/>
<path d="M401.795 175.219V167.697H361.876L361.822 170.525L401.795 175.219Z" stroke="#02435F" stroke-width="0.35" stroke-miterlimit="10"/>
<path d="M373.024 167.697V171.841" stroke="#02435F" stroke-width="0.35" stroke-miterlimit="10"/>
<path d="M389.309 167.697V173.698" stroke="#02435F" stroke-width="0.35" stroke-miterlimit="10"/>
<path d="M401.795 27.1329V34.6549H361.876L361.822 31.8274L401.795 27.1329Z" stroke="#02435F" stroke-width="0.35" stroke-miterlimit="10"/>
<path d="M373.024 34.6549V30.5109" stroke="#02435F" stroke-width="0.35" stroke-miterlimit="10"/>
<path d="M389.309 34.6549V28.6547" stroke="#02435F" stroke-width="0.35" stroke-miterlimit="10"/>
<path d="M200.829 72.8149H243.651V96.0607H203.009C201.8 96.0607 200.829 95.0786 200.829 93.8807V72.8149Z" fill="white"/>
<path d="M200.829 72.8149H243.651V96.0607H203.009C201.8 96.0607 200.829 95.0786 200.829 93.8807V72.8149V72.8149Z" stroke="#02435F" stroke-width="0.393" stroke-miterlimit="10"/>
<path d="M221.894 72.8149H217.07V96.0607H221.894V72.8149Z" fill="white"/>
<path d="M221.894 72.8149H217.07V96.0607H221.894V72.8149Z" stroke="#02435F" stroke-width="0.393" stroke-miterlimit="10"/>
<path d="M234.035 76.3979H237.143C238.665 76.3979 239.895 77.6282 239.895 79.1499V89.7367C239.895 91.2584 238.665 92.4886 237.143 92.4886H234.035C232.513 92.4886 231.283 91.2584 231.283 89.7367V79.1499C231.294 77.6282 232.524 76.3979 234.035 76.3979Z" stroke="#02435F" stroke-width="0.393" stroke-miterlimit="10"/>
<path d="M239.679 90.6324H231.521" stroke="#02435F" stroke-width="0.393" stroke-miterlimit="10"/>
<path d="M217.405 73.0632H203.947V95.8341H217.405V73.0632Z" fill="#8FBAB8"/>
<path d="M631.457 201.012C630.033 201.012 628.608 201.001 627.184 200.979L394.273 200.159C387.787 200.138 381.215 199.825 374.729 199.231L256.04 188.364C213.099 185.45 171.464 174.841 132.311 156.851L78.848 132.278L22.1691 107.112H0.725586V94.3988H22.1906L79.1502 69.7393L132.473 45.0259C171.518 26.9279 213.067 16.19 255.997 13.1143L379.251 2.76488C382.737 2.51667 386.255 2.36558 389.719 2.32241L628.684 0.757593C636.141 0.660466 643.706 0.876302 651.163 1.4051L779.533 8.94863C796.217 10.1249 809.275 24.1328 809.275 40.8386V159.873C809.275 176.449 796.336 190.447 779.813 191.742L652.62 200.213C645.616 200.731 638.515 201.012 631.457 201.012ZM1.48102 106.356L22.4065 106.389L79.161 131.588L132.624 156.161C171.691 174.118 213.239 184.694 256.105 187.608L374.794 198.476C381.258 199.069 387.809 199.382 394.273 199.404L627.184 200.224C635.634 200.353 644.159 200.094 652.555 199.436L779.749 190.965C795.872 189.702 808.509 176.039 808.509 159.852V40.8171C808.509 24.5105 795.753 10.8372 779.468 9.68248L651.099 2.13895C643.663 1.61015 636.119 1.39431 628.673 1.49144L389.708 3.05626C386.255 3.09943 382.747 3.25051 379.283 3.49873L256.029 13.8481C213.185 16.9238 171.723 27.6294 132.764 45.695L79.4308 70.4192L22.3202 95.1434H1.48102V106.356ZM631.436 196.468C630.033 196.468 628.63 196.458 627.227 196.436L394.295 195.616C387.917 195.594 381.474 195.281 375.15 194.709L256.407 183.842C213.984 180.96 172.867 170.492 134.21 152.729L80.7258 128.145L23.1403 102.579H5.26897V98.9529H23.1295L80.9956 73.8942L134.372 49.1484C172.91 31.277 213.952 20.6794 256.342 17.6361L379.596 7.28668C382.985 7.03847 386.395 6.89817 389.762 6.855L628.727 5.29018C636.065 5.19305 643.523 5.40889 650.861 5.9269L779.231 13.4704C793.53 14.4741 804.721 26.4962 804.721 40.8279V159.862C804.721 174.075 793.627 186.087 779.468 187.198L652.286 195.659C645.39 196.199 638.396 196.468 631.436 196.468ZM6.0244 101.813L23.367 101.845L81.028 127.444L134.523 152.027C173.094 169.748 214.124 180.194 256.472 183.076L375.215 193.943C381.528 194.515 387.938 194.828 394.295 194.85L627.238 195.67C635.558 195.799 643.965 195.54 652.232 194.893L779.425 186.421C793.184 185.342 803.976 173.665 803.976 159.841V40.8171C803.976 26.8847 793.087 15.1971 779.187 14.2151L650.818 6.68233C643.49 6.16432 636.065 5.94849 628.738 6.04561L389.773 7.61044C386.438 7.65361 383.028 7.7939 379.661 8.03132L256.407 18.3807C214.103 21.4133 173.158 31.9893 134.696 49.8175L81.3194 74.5633L23.2914 99.6868H6.0244V101.813Z" fill="#8FBAB8"/>
<path d="M81.1793 127.443L90.5682 131.749V69.8688L81.1793 73.8726V99.676H39.868L41.3249 91.118L28.6012 96.201L20.9066 98.2514H1.10352V103.14H20.9066L29.13 105.061L40.9256 109.691L39.868 101.316H81.1793V127.443Z" fill="#8FBAB8"/>
<path d="M200.829 132.008H243.651V106.766H203.106C201.844 106.766 200.829 107.791 200.829 109.043V132.008Z" fill="white"/>
<path d="M200.829 132.008H243.651V106.766H203.106C201.844 106.766 200.829 107.791 200.829 109.043V132.008Z" stroke="#02435F" stroke-width="0.409" stroke-miterlimit="10"/>
<path d="M221.894 106.755H217.07V131.998H221.894V106.755Z" fill="white"/>
<path d="M221.894 106.755H217.07V131.998H221.894V106.755Z" stroke="#02435F" stroke-width="0.409" stroke-miterlimit="10"/>
<path d="M234.154 128.113H237.024C238.611 128.113 239.884 126.828 239.884 125.253V113.511C239.884 111.925 238.6 110.651 237.024 110.651H234.154C232.567 110.651 231.294 111.936 231.294 113.511V125.253C231.294 126.828 232.567 128.113 234.154 128.113Z" stroke="#02435F" stroke-width="0.409" stroke-miterlimit="10"/>
<path d="M239.679 112.648H231.521" stroke="#02435F" stroke-width="0.409" stroke-miterlimit="10"/>
<path d="M217.405 106.755H203.947V132.008H217.405V106.755Z" fill="#8FBAB8"/>
<path d="M237.47 95.8312L237.468 96.3169L243.274 96.3417L243.276 95.8561L237.47 95.8312Z" stroke="#02435F" stroke-width="0.227" stroke-miterlimit="10"/>
<path d="M237.478 95.9204C237.467 98.5644 240.456 100.723 243.186 100.734" stroke="#02435F" stroke-width="0.227" stroke-miterlimit="10" stroke-dasharray="0.55 0.55"/>
<path d="M243.197 96.7406L243.176 100.788" stroke="#02435F" stroke-width="0.227" stroke-miterlimit="10" stroke-dasharray="0.55 0.55"/>
<path d="M243.275 105.935L237.469 105.96L237.471 106.446L243.277 106.421L243.275 105.935Z" stroke="#02435F" stroke-width="0.227" stroke-miterlimit="10"/>
<path d="M237.478 106.356C237.467 103.712 240.456 101.554 243.186 101.543" stroke="#02435F" stroke-width="0.227" stroke-miterlimit="10" stroke-dasharray="0.55 0.55"/>
<path d="M243.197 105.536L243.176 101.489" stroke="#02435F" stroke-width="0.227" stroke-miterlimit="10" stroke-dasharray="0.55 0.55"/>
</svg>
