<svg width="810" height="201" viewBox="0 0 810 201" fill="none" xmlns="http://www.w3.org/2000/svg">
<path d="M0.763672 106.483V94.5258H21.9443L79.0166 69.8133L132.395 45.0683C171.43 26.9767 212.981 16.2406 255.893 13.1623L379.251 2.80418C382.739 2.55576 386.239 2.40455 389.706 2.36134L628.871 0.795209C636.324 0.698001 643.885 0.914018 651.337 1.44326L779.825 8.99313C796.329 10.1596 809.236 24.0065 809.236 40.5319V159.666C809.236 176.051 796.437 189.898 780.095 191.184L652.795 199.662C644.392 200.321 635.827 200.591 627.37 200.451L394.264 199.63C387.773 199.608 381.206 199.295 374.736 198.701L255.947 187.824C213.013 184.908 171.375 174.302 132.233 156.318L78.7249 131.724L21.9227 106.504H0.763672V106.483Z" fill="white"/>
<path d="M0.763672 106.483V94.5259H21.9443L79.0166 69.8133L132.395 45.0683C171.43 26.9767 212.981 16.2406 255.893 13.1623L379.251 2.80418C382.739 2.55576 386.239 2.40455 389.706 2.36134L628.871 0.795209C636.324 0.698001 643.885 0.914018 651.337 1.44326L779.825 8.99313C796.329 10.1596 809.236 24.0065 809.236 40.5319V159.666C809.236 176.051 796.437 189.898 780.095 191.184L652.795 199.662C644.392 200.321 635.827 200.591 627.37 200.451L394.264 199.63C387.773 199.608 381.206 199.295 374.736 198.701L255.947 187.824C213.013 184.908 171.375 174.302 132.233 156.318L78.7249 131.724L21.9227 106.504H0.763672V106.483Z" stroke="#0D3F57" stroke-width="0.702" stroke-miterlimit="10"/>
<path d="M117.447 89.2126H110.923V113.32H117.447V89.2126Z" stroke="#02435F" stroke-miterlimit="10"/>
<path d="M666.059 149.482L673.123 148.11C674.138 147.916 675.121 148.575 675.327 149.59L676.731 156.827C676.914 157.745 676.309 158.63 675.391 158.814L667.982 160.25C667.064 160.423 666.167 159.829 665.995 158.911L664.59 151.674C664.374 150.67 665.044 149.687 666.059 149.482Z" stroke="#0D3F57" stroke-width="0.351" stroke-miterlimit="10"/>
<path d="M667.949 150.724L672.129 149.914C673.144 149.719 674.127 150.378 674.322 151.394L675.747 158.76L667.884 160.283L666.458 152.917C666.264 151.901 666.934 150.918 667.949 150.724Z" stroke="#0D3F57" stroke-width="0.351" stroke-miterlimit="10"/>
<path d="M667.679 152.16L672.917 151.145C673.641 151.005 674.343 151.48 674.483 152.204L675.758 158.76L667.895 160.283L666.62 153.727C666.48 153.003 666.955 152.301 667.679 152.16Z" stroke="#0D3F57" stroke-width="0.351" stroke-miterlimit="10"/>
<path d="M682.422 146.533L689.486 145.161C690.501 144.967 691.484 145.626 691.678 146.641L693.082 153.878C693.266 154.796 692.661 155.682 691.743 155.865L684.334 157.302C683.416 157.485 682.519 156.88 682.346 155.962L680.942 148.726C680.748 147.71 681.407 146.728 682.422 146.533Z" stroke="#0D3F57" stroke-width="0.351" stroke-miterlimit="10"/>
<path d="M684.313 147.764L688.493 146.954C689.508 146.76 690.491 147.419 690.696 148.434L692.122 155.8L684.259 157.323L682.833 149.957C682.638 148.942 683.297 147.959 684.313 147.764Z" stroke="#0D3F57" stroke-width="0.351" stroke-miterlimit="10"/>
<path d="M684.043 149.212L689.282 148.197C690.005 148.056 690.707 148.531 690.848 149.255L692.122 155.811L684.259 157.334L682.985 150.778C682.844 150.044 683.319 149.352 684.043 149.212Z" stroke="#0D3F57" stroke-width="0.351" stroke-miterlimit="10"/>
<path d="M808.632 159.105V43.1573V42.304C808.632 25.2817 794.839 11.4889 777.817 11.4889H757.813V43.1573H775.041C776.575 43.1573 777.817 44.3994 777.817 45.9331V156.33C777.817 157.863 776.575 159.105 775.041 159.105H757.813V190.093H777.817C794.839 190.093 808.632 176.301 808.632 159.278V159.105Z" fill="#02435F"/>
<path d="M806.958 157.312V43.9349V43.0925C806.958 26.0702 794.061 12.2773 778.141 12.2773H759.444V41.5263L775.3 41.7747C777.633 41.7747 779.534 43.8053 779.534 46.3003V156.459C779.534 158.954 777.644 160.985 775.3 160.985L759.444 160.736V188.311H778.141C794.051 188.311 806.958 174.518 806.958 157.496V157.312Z" fill="white"/>
<path d="M808.632 98.9442H778.162V101.072H808.632V98.9442Z" fill="#02435F"/>
<path d="M642.297 169.291L642.47 156.643C642.48 155.595 643.269 154.731 644.295 154.591L661.101 152.474C662.084 152.344 662.937 153.143 662.883 154.137L662.84 154.904C662.786 155.876 663.607 156.665 664.579 156.567L692.208 153.867C694.53 153.64 696.291 151.696 696.291 149.363V134.371C696.291 132.136 694.476 130.321 692.24 130.321H664.784C662.981 130.321 661.523 128.863 661.523 127.059V89.5367C661.523 87.7329 662.981 86.2748 664.784 86.2748H692.24C694.476 86.2748 696.291 84.4602 696.291 82.2244V61.3354C696.291 59.024 694.552 57.0906 692.251 56.8422L662.149 53.5695V33.4581L707.621 36.1044V163.88L642.297 169.291Z" fill="white"/>
<path d="M642.297 169.291L642.47 156.643C642.48 155.595 643.269 154.731 644.295 154.591L661.101 152.474C662.084 152.344 662.937 153.143 662.883 154.137L662.84 154.904C662.786 155.876 663.607 156.665 664.579 156.567L692.208 153.867C694.53 153.64 696.291 151.696 696.291 149.363V134.371C696.291 132.136 694.476 130.321 692.24 130.321H664.784C662.981 130.321 661.523 128.863 661.523 127.059V89.5367C661.523 87.7329 662.981 86.2748 664.784 86.2748H692.24C694.476 86.2748 696.291 84.4602 696.291 82.2244V61.3354C696.291 59.024 694.552 57.0906 692.251 56.8422L662.149 53.5695V33.4581L707.621 36.1044V163.88L642.297 169.291Z" stroke="#02435F" stroke-width="0.702" stroke-miterlimit="10"/>
<path d="M582.287 189.521L581.391 172.736L582.903 172.618L583.799 189.391L582.287 189.521Z" stroke="#02435F" stroke-width="0.351" stroke-miterlimit="10"/>
<path d="M658.488 32.2591L647.795 19.3088L648.94 18.3043L659.633 31.2655L658.488 32.2591Z" stroke="#02435F" stroke-width="0.351" stroke-miterlimit="10"/>
<path d="M589.826 27.4419L581.434 17.3214L582.449 16.2845L590.841 26.405L589.826 27.4419Z" stroke="#02435F" stroke-width="0.351" stroke-miterlimit="10"/>
<path d="M582.589 189.856C582.33 189.856 582.081 189.845 581.833 189.834" stroke="#02435F" stroke-width="0.281" stroke-miterlimit="10"/>
<path d="M580.365 189.694C573.571 188.689 568.257 183.159 567.576 176.268" stroke="#02435F" stroke-width="0.281" stroke-miterlimit="10" stroke-dasharray="1.37 1.37"/>
<path d="M567.521 175.523C567.511 175.274 567.5 175.015 567.5 174.767" stroke="#02435F" stroke-width="0.281" stroke-miterlimit="10"/>
<path d="M581.434 17.2566C581.239 17.4186 581.056 17.5914 580.872 17.7642" stroke="#02435F" stroke-width="0.281" stroke-miterlimit="10"/>
<path d="M579.781 18.9417C577.891 21.2315 576.811 24.0937 576.605 27.0424" stroke="#02435F" stroke-width="0.281" stroke-miterlimit="10" stroke-dasharray="1.49 1.49"/>
<path d="M576.562 27.8632C576.562 28.1116 576.562 28.3708 576.562 28.6192" stroke="#02435F" stroke-width="0.281" stroke-miterlimit="10"/>
<path d="M609.44 115.297L601.556 107.52L602.409 106.635L610.294 114.4L609.44 115.297Z" stroke="#0D3F57" stroke-width="0.351" stroke-miterlimit="10"/>
<path d="M601.556 107.466C601.361 107.639 601.178 107.812 601.005 107.985" stroke="#02435F" stroke-width="0.281" stroke-miterlimit="10"/>
<path d="M600.141 108.957C598.629 110.868 597.819 113.191 597.754 115.534" stroke="#02435F" stroke-width="0.281" stroke-miterlimit="10" stroke-dasharray="1.2 1.2"/>
<path d="M597.754 116.183C597.765 116.431 597.775 116.69 597.797 116.939" stroke="#02435F" stroke-width="0.281" stroke-miterlimit="10"/>
<path d="M609.44 144.416L601.556 152.182L602.409 153.079L610.294 145.302L609.44 144.416Z" stroke="#0D3F57" stroke-width="0.351" stroke-miterlimit="10"/>
<path d="M601.556 152.236C601.361 152.074 601.178 151.901 601.005 151.718" stroke="#02435F" stroke-width="0.281" stroke-miterlimit="10"/>
<path d="M600.141 150.746C598.629 148.834 597.819 146.512 597.754 144.168" stroke="#02435F" stroke-width="0.281" stroke-miterlimit="10" stroke-dasharray="1.2 1.2"/>
<path d="M597.754 143.531C597.765 143.282 597.775 143.023 597.797 142.775" stroke="#02435F" stroke-width="0.281" stroke-miterlimit="10"/>
<path d="M647.395 19.8812C647.233 20.0756 647.082 20.2809 646.931 20.4753" stroke="#02435F" stroke-width="0.281" stroke-miterlimit="10"/>
<path d="M646.034 21.847C644.5 24.5473 643.96 27.6148 644.371 30.5526" stroke="#02435F" stroke-width="0.281" stroke-miterlimit="10" stroke-dasharray="1.52 1.52"/>
<path d="M644.511 31.3735C644.565 31.622 644.619 31.8704 644.684 32.108" stroke="#02435F" stroke-width="0.281" stroke-miterlimit="10"/>
<path d="M486.72 24.3529L477.593 14.2432L478.694 13.2063L487.821 23.316L486.72 24.3529Z" stroke="#02435F" stroke-width="0.351" stroke-miterlimit="10"/>
<path d="M477.593 14.1783C477.388 14.3404 477.193 14.4916 477.01 14.6644" stroke="#02435F" stroke-width="0.281" stroke-miterlimit="10"/>
<path d="M475.962 15.6689C474.094 17.6779 472.916 20.1405 472.484 22.7328" stroke="#02435F" stroke-width="0.281" stroke-miterlimit="10" stroke-dasharray="1.34 1.34"/>
<path d="M472.376 23.4456C472.344 23.694 472.322 23.9532 472.312 24.2016" stroke="#02435F" stroke-width="0.281" stroke-miterlimit="10"/>
<path d="M475.023 117.479H470.26V148.737L475.023 117.479Z" fill="#02435F"/>
<path d="M459.523 117.479H454.76V148.737L459.523 117.479Z" fill="#02435F"/>
<path d="M454.76 146.09H470.259" stroke="#02435F" stroke-width="0.351" stroke-miterlimit="10"/>
<path d="M454.76 148.737H470.259" stroke="#02435F" stroke-width="0.351" stroke-miterlimit="10"/>
<path d="M454.76 141.986H470.259" stroke="#02435F" stroke-width="0.351" stroke-miterlimit="10"/>
<path d="M454.76 138.141H470.259" stroke="#02435F" stroke-width="0.351" stroke-miterlimit="10"/>
<path d="M454.76 134.036H470.259" stroke="#02435F" stroke-width="0.351" stroke-miterlimit="10"/>
<path d="M454.76 129.802H470.259" stroke="#02435F" stroke-width="0.351" stroke-miterlimit="10"/>
<path d="M454.76 125.558H470.259" stroke="#02435F" stroke-width="0.351" stroke-miterlimit="10"/>
<path d="M454.76 121.723H470.259" stroke="#02435F" stroke-width="0.351" stroke-miterlimit="10"/>
<path d="M454.76 117.479H475.022" stroke="#02435F" stroke-width="0.351" stroke-miterlimit="10"/>
<path d="M403.239 82.7321V87.5061H454.76L403.239 82.7321Z" fill="#02435F"/>
<path d="M403.239 98.2314V102.995H454.76L403.239 98.2314Z" fill="#02435F"/>
<path d="M452.113 102.995V87.506" stroke="#02435F" stroke-width="0.351" stroke-miterlimit="10"/>
<path d="M454.76 102.995V87.506" stroke="#02435F" stroke-width="0.351" stroke-miterlimit="10"/>
<path d="M448.01 102.995V87.506" stroke="#02435F" stroke-width="0.351" stroke-miterlimit="10"/>
<path d="M444.164 102.995V87.506" stroke="#02435F" stroke-width="0.351" stroke-miterlimit="10"/>
<path d="M440.06 102.995V87.506" stroke="#02435F" stroke-width="0.351" stroke-miterlimit="10"/>
<path d="M435.826 102.995V87.506" stroke="#02435F" stroke-width="0.351" stroke-miterlimit="10"/>
<path d="M431.03 102.995V87.506" stroke="#02435F" stroke-width="0.351" stroke-miterlimit="10"/>
<path d="M426.418 102.995V87.506" stroke="#02435F" stroke-width="0.351" stroke-miterlimit="10"/>
<path d="M421.688 102.055V85.7346" stroke="#02435F" stroke-width="0.351" stroke-miterlimit="10"/>
<path d="M417.464 102.055V85.7346" stroke="#02435F" stroke-width="0.351" stroke-miterlimit="10"/>
<path d="M412.81 102.055V85.7346" stroke="#02435F" stroke-width="0.351" stroke-miterlimit="10"/>
<path d="M408.845 102.055V85.7346" stroke="#02435F" stroke-width="0.351" stroke-miterlimit="10"/>
<path d="M403.736 102.012V85.6914" stroke="#02435F" stroke-width="0.702" stroke-miterlimit="10"/>
<path d="M346.103 114.336V108.201H305.869L346.103 114.336Z" fill="#02435F"/>
<path d="M346.103 94.397V88.2621H305.869L346.103 94.397Z" fill="#02435F"/>
<path d="M309.282 88.2621V108.201" stroke="#02435F" stroke-width="0.702" stroke-miterlimit="10"/>
<path d="M305.869 88.2621V108.201" stroke="#02435F" stroke-width="0.702" stroke-miterlimit="10"/>
<path d="M314.563 88.2621V108.201" stroke="#02435F" stroke-width="0.702" stroke-miterlimit="10"/>
<path d="M319.511 88.2621V108.201" stroke="#02435F" stroke-width="0.702" stroke-miterlimit="10"/>
<path d="M324.792 88.2621V108.201" stroke="#02435F" stroke-width="0.702" stroke-miterlimit="10"/>
<path d="M330.247 88.2621V108.201" stroke="#02435F" stroke-width="0.702" stroke-miterlimit="10"/>
<path d="M335.701 88.2621V108.201" stroke="#02435F" stroke-width="0.702" stroke-miterlimit="10"/>
<path d="M340.647 88.2621V108.201" stroke="#02435F" stroke-width="0.702" stroke-miterlimit="10"/>
<path d="M346.103 88.2621V114.336" stroke="#02435F" stroke-width="0.702" stroke-miterlimit="10"/>
<g opacity="0.5">
<g opacity="0.5">
<path opacity="0.5" d="M575.406 53.5587V47.413H535.173L575.406 53.5587Z" fill="#02435F"/>
<path opacity="0.5" d="M575.406 33.6093V27.4744H535.173L575.406 33.6093Z" fill="#02435F"/>
<path opacity="0.5" d="M539.536 27.4744V47.4129" stroke="#02435F" stroke-width="0.351" stroke-miterlimit="10"/>
<path opacity="0.5" d="M535.173 27.4744V47.4129" stroke="#02435F" stroke-width="0.702" stroke-miterlimit="10"/>
<path opacity="0.5" d="M543.867 27.4744V47.4129" stroke="#02435F" stroke-width="0.351" stroke-miterlimit="10"/>
<path opacity="0.5" d="M548.804 27.4744V47.4129" stroke="#02435F" stroke-width="0.351" stroke-miterlimit="10"/>
<path opacity="0.5" d="M554.096 27.4744V47.4129" stroke="#02435F" stroke-width="0.351" stroke-miterlimit="10"/>
<path opacity="0.5" d="M559.551 27.4744V47.4129" stroke="#02435F" stroke-width="0.351" stroke-miterlimit="10"/>
<path opacity="0.5" d="M565.005 27.4744V47.4129" stroke="#02435F" stroke-width="0.351" stroke-miterlimit="10"/>
<path opacity="0.5" d="M569.952 27.4744V47.4129" stroke="#02435F" stroke-width="0.351" stroke-miterlimit="10"/>
<path opacity="0.5" d="M575.406 27.4744V53.5587" stroke="#02435F" stroke-width="0.702" stroke-miterlimit="10"/>
</g>
</g>
<path d="M557.585 158.328H563.731V118.094L557.585 158.328Z" fill="#02435F"/>
<path d="M577.534 158.328H583.669V118.094L577.534 158.328Z" fill="#02435F"/>
<path d="M583.669 121.497H563.73" stroke="#0D3F57" stroke-width="0.351" stroke-miterlimit="10"/>
<path d="M583.669 118.094H563.73" stroke="#0D3F57" stroke-width="0.351" stroke-miterlimit="10"/>
<path d="M583.669 126.789H563.73" stroke="#0D3F57" stroke-width="0.351" stroke-miterlimit="10"/>
<path d="M583.669 131.736H563.73" stroke="#0D3F57" stroke-width="0.351" stroke-miterlimit="10"/>
<path d="M583.669 137.018H563.73" stroke="#0D3F57" stroke-width="0.351" stroke-miterlimit="10"/>
<path d="M583.669 142.472H563.73" stroke="#0D3F57" stroke-width="0.351" stroke-miterlimit="10"/>
<path d="M583.669 147.927H563.73" stroke="#0D3F57" stroke-width="0.351" stroke-miterlimit="10"/>
<path d="M583.669 152.873H563.73" stroke="#0D3F57" stroke-width="0.351" stroke-miterlimit="10"/>
<path d="M583.669 158.328H557.585" stroke="#0D3F57" stroke-width="0.351" stroke-miterlimit="10"/>
<path d="M597.235 116.831H584.004V143.444H597.235V116.831Z" stroke="#0D3F57" stroke-width="0.351" stroke-miterlimit="10"/>
<path d="M594.578 134.145V140.074C594.578 141.262 593.617 142.224 592.429 142.224H589.34C588.152 142.224 587.19 141.262 587.19 140.074V134.145C587.19 132.956 588.152 131.995 589.34 131.995H592.429C593.617 131.995 594.578 132.956 594.578 134.145Z" stroke="#0D3F57" stroke-width="0.351" stroke-miterlimit="10"/>
<path d="M594.578 120.87V126.8C594.578 127.988 593.617 128.949 592.429 128.949H589.34C588.152 128.949 587.19 127.988 587.19 126.8V120.87C587.19 119.682 588.152 118.721 589.34 118.721H592.429C593.617 118.721 594.578 119.682 594.578 120.87Z" stroke="#0D3F57" stroke-width="0.351" stroke-miterlimit="10"/>
<path d="M589.459 136.478H585.754V137.741H589.459V136.478Z" stroke="#0D3F57" stroke-width="0.351" stroke-miterlimit="10"/>
<path d="M589.459 123.203H585.754V124.467H589.459V123.203Z" stroke="#0D3F57" stroke-width="0.351" stroke-miterlimit="10"/>
<path d="M591.814 136.575C592.213 136.575 592.537 136.899 592.537 137.298C592.537 137.698 592.213 138.022 591.814 138.022C591.414 138.022 591.09 137.698 591.09 137.298C591.09 136.899 591.414 136.575 591.814 136.575Z" stroke="#0D3F57" stroke-width="0.351" stroke-miterlimit="10"/>
<path d="M591.814 123.398C592.213 123.398 592.537 123.722 592.537 124.121C592.537 124.521 592.213 124.845 591.814 124.845C591.414 124.845 591.09 124.521 591.09 124.121C591.09 123.722 591.414 123.398 591.814 123.398Z" stroke="#0D3F57" stroke-width="0.351" stroke-miterlimit="10"/>
<path d="M582.049 40.9108H587.979C589.167 40.9108 590.128 41.872 590.128 43.0602V46.1492C590.128 47.3373 589.167 48.2986 587.979 48.2986H582.049C580.861 48.2986 579.899 47.3373 579.899 46.1492V43.0602C579.899 41.872 580.861 40.9108 582.049 40.9108Z" stroke="#02435F" stroke-width="0.351" stroke-miterlimit="10"/>
<path d="M585.646 46.0195H584.382V49.7243H585.646V46.0195Z" fill="white"/>
<path d="M585.646 46.0195H584.382V49.7243H585.646V46.0195Z" stroke="#02435F" stroke-width="0.351" stroke-miterlimit="10"/>
<path d="M584.285 44.097C584.285 43.6973 584.609 43.3733 585.009 43.3733C585.408 43.3733 585.732 43.6973 585.732 44.097C585.732 44.4966 585.408 44.8206 585.009 44.8206C584.609 44.8314 584.285 44.4966 584.285 44.097Z" fill="white"/>
<path d="M584.285 44.097C584.285 43.6973 584.609 43.3733 585.009 43.3733C585.408 43.3733 585.732 43.6973 585.732 44.097C585.732 44.4966 585.408 44.8206 585.009 44.8206C584.609 44.8314 584.285 44.4966 584.285 44.097Z" stroke="#02435F" stroke-width="0.351" stroke-miterlimit="10"/>
<path d="M584.426 160.78V155.358L585.344 156.351V159.862L584.426 160.78Z" stroke="#0D3F57" stroke-width="0.351" stroke-miterlimit="10"/>
<path d="M587.774 159.138C587.212 159.138 584.415 158.684 584.415 158.123C584.415 157.561 587.212 157.107 587.774 157.107C588.336 157.107 588.789 157.561 588.789 158.123C588.789 158.684 588.336 159.138 587.774 159.138Z" stroke="#0D3F57" stroke-width="0.351" stroke-miterlimit="10"/>
<path d="M588.098 98.5986V104.01C588.098 104.431 587.752 104.777 587.331 104.777H585.549C585.128 104.777 584.782 104.431 584.782 104.01V98.5986C584.782 98.1774 585.128 97.8318 585.549 97.8318H587.331C587.752 97.8318 588.098 98.1774 588.098 98.5986Z" stroke="#0D3F57" stroke-width="0.351" stroke-miterlimit="10"/>
<path d="M592.612 98.3502C595.107 98.3502 597.138 99.6679 597.138 101.299C597.138 102.93 595.107 104.248 592.612 104.248C590.117 104.248 588.087 102.93 588.087 101.299C588.098 99.6679 590.117 98.3502 592.612 98.3502Z" stroke="#0D3F57" stroke-width="0.351" stroke-miterlimit="10"/>
<path d="M591.187 104.096V98.4258" stroke="#0D3F57" stroke-width="0.351" stroke-miterlimit="10"/>
<path d="M556.851 38.4265V43.827C556.851 44.2482 556.505 44.5939 556.084 44.5939H554.302C553.881 44.5939 553.535 44.2482 553.535 43.827V38.4265C553.535 38.0053 553.881 37.6597 554.302 37.6597H556.084C556.505 37.6597 556.851 37.9945 556.851 38.4265Z" fill="white"/>
<path d="M556.851 38.4265V43.827C556.851 44.2482 556.505 44.5939 556.084 44.5939H554.302C553.881 44.5939 553.535 44.2482 553.535 43.827V38.4265C553.535 38.0053 553.881 37.6597 554.302 37.6597H556.084C556.505 37.6597 556.851 37.9945 556.851 38.4265Z" stroke="#02435F" stroke-width="0.351" stroke-miterlimit="10"/>
<path d="M561.376 38.1781C563.871 38.1781 565.902 39.4958 565.902 41.1268C565.902 42.7577 563.871 44.0754 561.376 44.0754C558.881 44.0754 556.851 42.7577 556.851 41.1268C556.851 39.4958 558.87 38.1781 561.376 38.1781Z" fill="white"/>
<path d="M561.376 38.1781C563.871 38.1781 565.902 39.4958 565.902 41.1268C565.902 42.7577 563.871 44.0754 561.376 44.0754C558.881 44.0754 556.851 42.7577 556.851 41.1268C556.851 39.4958 558.87 38.1781 561.376 38.1781Z" stroke="#02435F" stroke-width="0.351" stroke-miterlimit="10"/>
<path d="M559.939 43.9242V38.2537" stroke="#02435F" stroke-width="0.351" stroke-miterlimit="10"/>
<path d="M664.18 33.7928L663.326 48.5361C663.218 50.4155 664.611 52.0573 666.48 52.2625L705.925 56.464V37.0979L664.18 33.7928Z" fill="white"/>
<path d="M664.18 33.7928L663.326 48.5361C663.218 50.4155 664.611 52.0573 666.48 52.2625L705.925 56.464V37.0979L664.18 33.7928Z" stroke="#02435F" stroke-width="0.351" stroke-miterlimit="10"/>
<path d="M693.169 55.1032L694.271 36.0612" stroke="#02435F" stroke-width="0.351" stroke-miterlimit="10"/>
<path d="M678.146 53.5047L679.204 35.1863" stroke="#02435F" stroke-width="0.351" stroke-miterlimit="10"/>
<path d="M610.434 85.0542H592.688V86.5663H610.434V85.0542Z" stroke="#02435F" stroke-width="0.702" stroke-miterlimit="10"/>
<path d="M610.434 86.2963C610.434 86.0479 610.423 85.7887 610.412 85.5403" stroke="#02435F" stroke-width="0.281" stroke-miterlimit="10"/>
<path d="M610.262 84.0605C609.257 77.2667 603.727 71.9527 596.836 71.2722" stroke="#02435F" stroke-width="0.281" stroke-miterlimit="10" stroke-dasharray="1.37 1.37"/>
<path d="M596.102 71.2182C595.853 71.2074 595.594 71.1967 595.346 71.1967" stroke="#02435F" stroke-width="0.281" stroke-miterlimit="10"/>
<path d="M592.926 83.7905V71.0562" stroke="#02435F" stroke-width="0.281" stroke-miterlimit="10" stroke-dasharray="1.4 1.4"/>
<path d="M512.092 173.212H494.346V174.724H512.092V173.212Z" stroke="#02435F" stroke-width="0.351" stroke-miterlimit="10"/>
<path d="M512.091 174.454C512.091 174.205 512.08 173.946 512.069 173.698" stroke="#02435F" stroke-width="0.351" stroke-miterlimit="10"/>
<path d="M511.929 172.218C510.925 165.424 505.395 160.11 498.504 159.43" stroke="#02435F" stroke-width="0.351" stroke-miterlimit="10" stroke-dasharray="1.37 1.37"/>
<path d="M497.759 159.376C497.511 159.365 497.251 159.354 497.003 159.354" stroke="#02435F" stroke-width="0.351" stroke-miterlimit="10"/>
<path d="M494.583 171.948V159.214" stroke="#02435F" stroke-width="0.351" stroke-miterlimit="10" stroke-dasharray="1.4 1.4"/>
<path d="M439.926 171.857L439.889 173.206L455.706 173.645L455.743 172.295L439.926 171.857Z" stroke="#02435F" stroke-width="0.351" stroke-miterlimit="10"/>
<path d="M439.876 172.942C439.887 172.693 439.898 172.434 439.919 172.186" stroke="#02435F" stroke-width="0.351" stroke-miterlimit="10"/>
<path d="M440.125 170.684C441.281 164.852 446.195 160.402 452.179 159.905" stroke="#02435F" stroke-width="0.351" stroke-miterlimit="10" stroke-dasharray="1.4 1.4"/>
<path d="M452.935 159.862C453.183 159.851 453.442 159.851 453.691 159.862" stroke="#02435F" stroke-width="0.351" stroke-miterlimit="10"/>
<path d="M455.538 171.138L455.851 159.797" stroke="#02435F" stroke-width="0.351" stroke-miterlimit="10" stroke-dasharray="1.4 1.4"/>
<path d="M533.91 50.0916H515.861V51.7009H533.91V50.0916Z" stroke="#02435F" stroke-width="0.702" stroke-miterlimit="10"/>
<path d="M533.909 51.4093C533.909 51.1608 533.899 50.9016 533.888 50.6532" stroke="#02435F" stroke-width="0.281" stroke-miterlimit="10"/>
<path d="M533.758 49.1195C532.764 41.8505 527.126 36.1367 520.095 35.4131" stroke="#02435F" stroke-width="0.281" stroke-miterlimit="10" stroke-dasharray="1.43 1.43"/>
<path d="M519.328 35.3483C519.08 35.3375 518.821 35.3267 518.572 35.3267" stroke="#02435F" stroke-width="0.281" stroke-miterlimit="10"/>
<path d="M516.109 48.7414V35.1754" stroke="#02435F" stroke-width="0.281" stroke-miterlimit="10" stroke-dasharray="1.4 1.4"/>
<path d="M612.476 155.79V144.416H622.477C623.179 144.416 623.741 144.978 623.741 145.68V155.79H612.476V155.79Z" stroke="#0D3F57" stroke-width="0.351" stroke-miterlimit="10"/>
<path d="M612.476 166.969V155.79H623.752V165.705C623.752 166.407 623.179 166.969 622.488 166.969H612.476Z" stroke="#0D3F57" stroke-width="0.351" stroke-miterlimit="10"/>
<path d="M618.113 155.79V166.969" stroke="#0D3F57" stroke-width="0.351" stroke-miterlimit="10"/>
<path d="M621.343 157.075H614.884" stroke="#0D3F57" stroke-width="0.351" stroke-miterlimit="10"/>
<path d="M621.343 158.263H614.884" stroke="#0D3F57" stroke-width="0.351" stroke-miterlimit="10"/>
<path d="M621.343 159.451H614.884" stroke="#0D3F57" stroke-width="0.351" stroke-miterlimit="10"/>
<path d="M621.343 161.773H614.884" stroke="#0D3F57" stroke-width="0.351" stroke-miterlimit="10"/>
<path d="M621.343 162.659H614.884" stroke="#0D3F57" stroke-width="0.351" stroke-miterlimit="10"/>
<path d="M621.343 163.89H614.884" stroke="#0D3F57" stroke-width="0.351" stroke-miterlimit="10"/>
<path d="M621.343 165.003H614.884" stroke="#0D3F57" stroke-width="0.351" stroke-miterlimit="10"/>
<path d="M661.587 125.752V90.876H649.522C648.151 90.876 647.027 91.9885 647.027 93.371V123.268C647.027 124.64 648.14 125.763 649.522 125.763H661.587V125.752Z" stroke="#0D3F57" stroke-width="0.351" stroke-miterlimit="10"/>
<path d="M661.674 94.7751V92.0209H648.637C647.795 92.0209 647.114 92.7013 647.114 93.5438V94.7751H661.674Z" stroke="#0D3F57" stroke-width="0.351" stroke-miterlimit="10"/>
<path d="M453.323 50.6855L453.41 57.879C453.421 58.9159 451.703 58.8727 450.666 58.8835L444.186 59.8771C443.246 59.888 442.479 59.1427 442.468 58.203L442.371 50.6531C442.36 49.7135 443.106 48.9466 444.045 48.9358L450.548 49.9187C451.595 49.8971 453.313 49.6486 453.323 50.6855Z" stroke="#02435F" stroke-width="0.351" stroke-miterlimit="10"/>
<path d="M449.251 52.2626L449.305 56.4426C449.316 57.177 448.722 57.7819 447.987 57.7927L442.479 57.8683L442.393 51.0205L447.901 50.9557C448.636 50.9341 449.24 51.5173 449.251 52.2626Z" stroke="#02435F" stroke-width="0.351" stroke-miterlimit="10"/>
<path d="M366.041 58.0194L365.954 50.826C365.943 49.7891 367.661 49.8323 368.698 49.8215L375.178 48.8386C376.118 48.8278 376.885 49.5731 376.896 50.5128L376.993 58.0626C377.004 59.0023 376.258 59.7692 375.319 59.78L368.816 58.7971C367.769 58.8079 366.051 59.0563 366.041 58.0194Z" stroke="#02435F" stroke-width="0.351" stroke-miterlimit="10"/>
<path d="M370.113 56.4426L370.059 52.2734C370.048 51.5389 370.642 50.9341 371.376 50.9233L376.885 50.8477L376.971 57.6955L371.463 57.7711C370.728 57.7711 370.124 57.177 370.113 56.4426Z" stroke="#02435F" stroke-width="0.351" stroke-miterlimit="10"/>
<path d="M433.19 34.6786L440.384 34.5922C441.421 34.5814 441.377 36.2988 441.388 37.3357L442.371 43.8162C442.382 44.7559 441.637 45.5228 440.697 45.5336L433.147 45.6308C432.207 45.6416 431.44 44.8963 431.43 43.9566L432.413 37.4545C432.413 36.4068 432.153 34.6894 433.19 34.6786Z" stroke="#02435F" stroke-width="0.351" stroke-miterlimit="10"/>
<path d="M434.767 38.7506L438.936 38.6966C439.671 38.6858 440.275 39.2798 440.286 40.0143L440.362 45.5228L433.514 45.6092L433.438 40.1007C433.438 39.3662 434.033 38.7614 434.767 38.7506Z" stroke="#02435F" stroke-width="0.351" stroke-miterlimit="10"/>
<path d="M420.477 34.6786L427.671 34.5922C428.708 34.5814 428.664 36.2988 428.675 37.3357L429.658 43.8162C429.669 44.7559 428.924 45.5228 427.984 45.5336L420.434 45.6308C419.494 45.6416 418.728 44.8963 418.717 43.9566L419.7 37.4545C419.689 36.4068 419.44 34.6894 420.477 34.6786Z" stroke="#02435F" stroke-width="0.351" stroke-miterlimit="10"/>
<path d="M422.055 38.7506L426.224 38.6966C426.959 38.6858 427.564 39.2798 427.574 40.0143L427.65 45.5228L420.802 45.6092L420.727 40.1007C420.727 39.3662 421.321 38.7614 422.055 38.7506Z" stroke="#02435F" stroke-width="0.351" stroke-miterlimit="10"/>
<path d="M405.638 34.6786L412.831 34.5922C413.868 34.5814 413.825 36.2988 413.835 37.3357L414.818 43.8162C414.829 44.7559 414.084 45.5228 413.144 45.5336L405.594 45.6308C404.655 45.6416 403.888 44.8963 403.877 43.9566L404.86 37.4545C404.86 36.4068 404.611 34.6894 405.638 34.6786Z" stroke="#02435F" stroke-width="0.351" stroke-miterlimit="10"/>
<path d="M407.214 38.7506L411.383 38.6966C412.118 38.6858 412.723 39.2798 412.734 40.0143L412.809 45.5228L405.961 45.6092L405.886 40.1007C405.886 39.3662 406.48 38.7614 407.214 38.7506Z" stroke="#02435F" stroke-width="0.351" stroke-miterlimit="10"/>
<path d="M391.196 34.6786L398.39 34.5922C399.426 34.5814 399.383 36.2988 399.394 37.3357L400.377 43.8162C400.388 44.7559 399.642 45.5228 398.703 45.5336L391.153 45.6308C390.213 45.6416 389.446 44.8963 389.436 43.9566L390.418 37.4545C390.408 36.4068 390.159 34.6894 391.196 34.6786Z" stroke="#02435F" stroke-width="0.351" stroke-miterlimit="10"/>
<path d="M392.774 38.7506L396.943 38.6966C397.677 38.6858 398.282 39.2798 398.293 40.0143L398.369 45.5228L391.521 45.6092L391.445 40.1007C391.445 39.3662 392.039 38.7614 392.774 38.7506Z" stroke="#02435F" stroke-width="0.351" stroke-miterlimit="10"/>
<path d="M433.19 73.9293L440.384 74.0265C441.421 74.0373 441.377 72.3199 441.388 71.283L442.371 64.8025C442.382 63.8628 441.637 63.0959 440.697 63.0851L433.147 62.9879C432.207 62.9771 431.44 63.7224 431.43 64.6621L432.413 71.1642C432.413 72.1903 432.153 73.9077 433.19 73.9293Z" stroke="#02435F" stroke-width="0.351" stroke-miterlimit="10"/>
<path d="M434.767 69.8465L438.936 69.9005C439.671 69.9113 440.275 69.3173 440.286 68.5828L440.362 63.0743L433.514 62.9879L433.438 68.4964C433.438 69.2417 434.033 69.8465 434.767 69.8465Z" stroke="#02435F" stroke-width="0.351" stroke-miterlimit="10"/>
<path d="M420.477 73.9293L427.671 74.0265C428.708 74.0373 428.664 72.3199 428.675 71.283L429.658 64.8025C429.669 63.8628 428.924 63.0959 427.984 63.0851L420.434 62.9879C419.494 62.9771 418.728 63.7224 418.717 64.6621L419.7 71.1642C419.689 72.1903 419.44 73.9077 420.477 73.9293Z" stroke="#02435F" stroke-width="0.351" stroke-miterlimit="10"/>
<path d="M422.055 69.8465L426.224 69.9005C426.959 69.9113 427.564 69.3173 427.574 68.5828L427.65 63.0743L420.802 62.9879L420.727 68.4964C420.727 69.2417 421.321 69.8465 422.055 69.8465Z" stroke="#02435F" stroke-width="0.351" stroke-miterlimit="10"/>
<path d="M405.638 73.9293L412.831 74.0265C413.868 74.0373 413.825 72.3199 413.835 71.283L414.818 64.8025C414.829 63.8628 414.084 63.0959 413.144 63.0851L405.594 62.9879C404.655 62.9771 403.888 63.7224 403.877 64.6621L404.86 71.1642C404.86 72.1903 404.611 73.9077 405.638 73.9293Z" stroke="#02435F" stroke-width="0.351" stroke-miterlimit="10"/>
<path d="M407.214 69.8465L411.383 69.9005C412.118 69.9113 412.723 69.3173 412.734 68.5828L412.809 63.0743L405.961 62.9879L405.886 68.4964C405.886 69.2417 406.48 69.8465 407.214 69.8465Z" stroke="#02435F" stroke-width="0.351" stroke-miterlimit="10"/>
<path d="M391.196 73.9293L398.39 74.0265C399.426 74.0373 399.383 72.3199 399.394 71.283L400.377 64.8025C400.388 63.8628 399.642 63.0959 398.703 63.0851L391.153 62.9879C390.213 62.9771 389.446 63.7224 389.436 64.6621L390.418 71.1642C390.408 72.1903 390.159 73.9077 391.196 73.9293Z" stroke="#02435F" stroke-width="0.351" stroke-miterlimit="10"/>
<path d="M392.774 69.8465L396.943 69.9005C397.677 69.9113 398.282 69.3173 398.293 68.5828L398.369 63.0743L391.521 62.9879L391.445 68.4964C391.445 69.2417 392.039 69.8465 392.774 69.8465Z" stroke="#02435F" stroke-width="0.351" stroke-miterlimit="10"/>
<path d="M376.756 34.6786L383.949 34.5922C384.986 34.5814 384.943 36.2988 384.954 37.3357L385.936 43.8162C385.947 44.7559 385.202 45.5228 384.262 45.5336L376.712 45.6308C375.773 45.6416 375.006 44.8963 374.995 43.9566L375.978 37.4545C375.967 36.4068 375.719 34.6894 376.756 34.6786Z" stroke="#02435F" stroke-width="0.351" stroke-miterlimit="10"/>
<path d="M378.332 38.7506L382.502 38.6966C383.236 38.6858 383.841 39.2798 383.852 40.0143L383.927 45.5228L377.08 45.6092L377.004 40.1007C377.004 39.3662 377.598 38.7614 378.332 38.7506Z" stroke="#02435F" stroke-width="0.351" stroke-miterlimit="10"/>
<path d="M376.756 73.9293L383.949 74.0265C384.986 74.0373 384.943 72.3199 384.954 71.283L385.936 64.8025C385.947 63.8628 385.202 63.0959 384.262 63.0851L376.712 62.9879C375.773 62.9771 375.006 63.7224 374.995 64.6621L375.978 71.1642C375.967 72.1903 375.719 73.9077 376.756 73.9293Z" stroke="#02435F" stroke-width="0.351" stroke-miterlimit="10"/>
<path d="M378.332 69.8465L382.502 69.9005C383.236 69.9113 383.841 69.3173 383.852 68.5828L383.927 63.0743L377.08 62.9879L377.004 68.4964C377.004 69.2417 377.598 69.8465 378.332 69.8465Z" stroke="#02435F" stroke-width="0.351" stroke-miterlimit="10"/>
<path d="M703.635 87.7869V128.841H664.115C663.262 128.841 662.581 128.15 662.581 127.308V89.3314C662.581 88.4781 663.272 87.7977 664.115 87.7977H703.635V87.7869Z" fill="white"/>
<path d="M703.635 87.7869V128.841H664.115C663.262 128.841 662.581 128.15 662.581 127.308V89.3314C662.581 88.4781 663.272 87.7977 664.115 87.7977H703.635V87.7869Z" stroke="#02435F" stroke-width="0.351" stroke-miterlimit="10"/>
<path d="M686.549 87.7869H665.887V128.841H686.549V87.7869Z" stroke="#02435F" stroke-width="0.351" stroke-miterlimit="10"/>
<path d="M679.83 88.1757H665.486V128.377H679.83V88.1757Z" fill="#8FBAB8"/>
<path d="M697.198 124.748H693.505C692.144 124.748 691.053 123.646 691.053 122.296V114.379C691.053 113.018 692.154 111.927 693.505 111.927H697.198C698.559 111.927 699.65 113.029 699.65 114.379V122.296C699.65 123.646 698.549 124.748 697.198 124.748Z" stroke="#02435F" stroke-width="0.351" stroke-miterlimit="10"/>
<path d="M691.258 113.385H699.413" stroke="#02435F" stroke-width="0.351" stroke-miterlimit="10"/>
<path d="M697.198 106.257H693.505C692.144 106.257 691.053 105.155 691.053 103.805V95.8876C691.053 94.5267 692.154 93.4358 693.505 93.4358H697.198C698.559 93.4358 699.65 94.5375 699.65 95.8876V103.805C699.65 105.155 698.549 106.257 697.198 106.257Z" stroke="#02435F" stroke-width="0.351" stroke-miterlimit="10"/>
<path d="M691.258 94.8939H699.413" stroke="#02435F" stroke-width="0.351" stroke-miterlimit="10"/>
<path d="M660.054 32.8101L707.621 36.1151V163.89L586.597 173.881L583.043 173.968" stroke="#0D3F57" stroke-width="0.702" stroke-miterlimit="10"/>
<path d="M590.874 27.9928L643.896 31.6759" stroke="#0D3F57" stroke-width="0.702" stroke-miterlimit="10"/>
<path d="M487.821 24.2017L576.638 27.4743" stroke="#0D3F57" stroke-width="0.702" stroke-miterlimit="10"/>
<path d="M401.598 173.212L346.427 170.76V30.0125L472.29 23.3807" stroke="#0D3F57" stroke-width="0.702" stroke-miterlimit="10"/>
<path d="M468.671 176.149L417.107 173.881" stroke="#0D3F57" stroke-width="2.806" stroke-miterlimit="10"/>
<path d="M567.695 174.302L484.182 176.149" stroke="#0D3F57" stroke-width="0.702" stroke-miterlimit="10"/>
<path d="M483.069 176.484L473.942 186.594L475.055 187.631L484.182 177.521L483.069 176.484Z" stroke="#02435F" stroke-width="0.351" stroke-miterlimit="10"/>
<path d="M473.943 186.659C473.737 186.497 473.543 186.346 473.359 186.173" stroke="#02435F" stroke-width="0.351" stroke-miterlimit="10"/>
<path d="M472.323 185.168C470.454 183.159 469.277 180.697 468.845 178.104" stroke="#02435F" stroke-width="0.351" stroke-miterlimit="10" stroke-dasharray="1.34 1.34"/>
<path d="M468.737 177.392C468.704 177.143 468.683 176.884 468.672 176.635" stroke="#02435F" stroke-width="0.351" stroke-miterlimit="10"/>
<path d="M416.006 174.302L406.879 184.423L407.981 185.449L417.107 175.339L416.006 174.302Z" stroke="#02435F" stroke-width="0.351" stroke-miterlimit="10"/>
<path d="M406.879 184.477C406.674 184.326 406.48 184.164 406.296 183.991" stroke="#02435F" stroke-width="0.351" stroke-miterlimit="10"/>
<path d="M405.248 182.986C403.38 180.977 402.203 178.515 401.771 175.923" stroke="#02435F" stroke-width="0.351" stroke-miterlimit="10" stroke-dasharray="1.34 1.34"/>
<path d="M401.673 175.21C401.641 174.961 401.619 174.713 401.608 174.454" stroke="#02435F" stroke-width="0.351" stroke-miterlimit="10"/>
<path d="M495.285 159.235V87.7869H583.799V173.935" stroke="#0D3F57" stroke-width="0.702" stroke-miterlimit="10"/>
<path d="M611.05 143.444V171.797" stroke="#0D3F57" stroke-width="0.702" stroke-miterlimit="10"/>
<path d="M584.004 173.935V143.444H597.419" stroke="#0D3F57" stroke-width="0.702" stroke-miterlimit="10"/>
<path d="M611.05 116.831V87.7869H583.799V116.831H597.937" stroke="#0D3F57" stroke-width="0.702" stroke-miterlimit="10"/>
<path d="M612.562 116.831V86.2855H621.289C622.65 86.2855 623.751 87.3872 623.751 88.7481V114.368C623.751 115.729 622.65 116.831 621.289 116.831H612.562Z" fill="white"/>
<path d="M612.562 116.831V86.2855H621.289C622.65 86.2855 623.751 87.3872 623.751 88.7481V114.368C623.751 115.729 622.65 116.831 621.289 116.831H612.562Z" stroke="#02435F" stroke-width="0.702" stroke-miterlimit="10"/>
<path d="M661.252 31.1898V57.0797C661.252 64.5108 655.225 70.5377 647.794 70.5377H592.612V28.1116" stroke="#0D3F57" stroke-width="0.702" stroke-miterlimit="10"/>
<path d="M618.028 89.0721H616.731V114.033H618.028V89.0721Z" fill="#02435F"/>
<path d="M619.528 95.0343H615.24V108.082H619.528V95.0343Z" fill="#02435F"/>
<path d="M592.926 52.7917H515.386" stroke="#0D3F57" stroke-width="0.702" stroke-miterlimit="10"/>
<path d="M516.109 25.2601V35.3266" stroke="#0D3F57" stroke-width="0.702" stroke-miterlimit="10"/>
<path d="M592.148 38.5237H577.88V51.6576H592.148V38.5237Z" stroke="#02435F" stroke-width="0.351" stroke-miterlimit="10"/>
<path d="M553.794 26.5779H550.759V52.8026H553.794V26.5779Z" stroke="#02435F" stroke-width="0.281" stroke-miterlimit="10" stroke-dasharray="1.4 1.4"/>
<path d="M446.346 42.1853H373.245V66.0986H446.346V42.1853Z" fill="white"/>
<path d="M446.346 42.1853H373.245V66.0986H446.346V42.1853Z" stroke="#02435F" stroke-width="0.702" stroke-miterlimit="10"/>
<path d="M361.958 172.185L383.711 171.926L383.797 158.058C383.797 156.664 382.674 155.541 381.281 155.541H364.788C362.574 155.541 360.781 153.748 360.781 151.534V117.371C360.781 115.988 359.657 114.854 358.264 114.854H345.638V171.591L360.575 172.175H361.958V172.185Z" fill="#02435F"/>
<path d="M362.067 171.451H383.01V158.781C383.01 157.399 381.886 156.265 380.493 156.265H363.989C361.775 156.265 359.982 154.472 359.982 152.258V118.094C359.982 116.712 358.859 115.578 357.465 115.578H346.427V170.9L361.181 171.397L362.067 171.451Z" fill="white"/>
<path d="M362.067 171.451H383.01V158.781C383.01 157.399 381.886 156.265 380.493 156.265H363.989C361.775 156.265 359.982 154.472 359.982 152.258V118.094C359.982 116.712 358.859 115.578 357.465 115.578H346.427V170.9L361.181 171.397L362.067 171.451Z" stroke="#02435F" stroke-width="0.702" stroke-miterlimit="10"/>
<path d="M359.993 147.041H345.163" stroke="#02435F" stroke-width="0.702" stroke-miterlimit="10"/>
<path d="M366.43 156.276V171.084" stroke="#02435F" stroke-width="0.702" stroke-miterlimit="10"/>
<path d="M347.204 82.6887V34.0845H355.51C356.255 34.0845 356.849 34.6893 356.849 35.4238V81.3494C356.849 82.0839 356.255 82.6887 355.51 82.6887H347.204Z" fill="white"/>
<path d="M347.204 82.6887V34.0845H355.51C356.255 34.0845 356.849 34.6893 356.849 35.4238V81.3494C356.849 82.0839 356.255 82.6887 355.51 82.6887H347.204V82.6887Z" stroke="#02435F" stroke-width="0.702" stroke-miterlimit="10"/>
<path d="M455.02 159.84V103.805H495.286V159.84" stroke="#0D3F57" stroke-width="0.702" stroke-miterlimit="10"/>
<path d="M381.151 121.259H368.806V141.705H381.151V121.259Z" fill="white"/>
<path d="M381.151 121.259H368.806V141.705H381.151V121.259Z" stroke="#02435F" stroke-width="0.702" stroke-miterlimit="10"/>
<path d="M320.396 168.772V114.649C320.396 113.245 321.531 112.1 322.935 112.1H346.621V171.311H322.935C321.541 171.311 320.396 170.177 320.396 168.772Z" fill="#02435F"/>
<path d="M344.893 113.472H322.027V170.036H344.893V113.472Z" fill="white"/>
<path d="M344.893 132.276H322.027" stroke="#02435F" stroke-width="0.351" stroke-miterlimit="10"/>
<path d="M344.893 151.037H322.027" stroke="#02435F" stroke-width="0.351" stroke-miterlimit="10"/>
<path d="M320.958 85.7454V32.3888C320.958 31.0062 322.081 29.8829 323.464 29.8829H346.815V88.2621H323.464C322.081 88.2621 320.958 87.1388 320.958 85.7454Z" fill="#02435F"/>
<path d="M345.109 31.233H322.567V86.9983H345.109V31.233Z" fill="white"/>
<path d="M345.109 49.7675H322.567" stroke="#02435F" stroke-width="0.346" stroke-miterlimit="10"/>
<path d="M345.109 68.2588H322.567" stroke="#02435F" stroke-width="0.346" stroke-miterlimit="10"/>
<path d="M269.102 123.959H267.169V164.852H269.102V123.959Z" fill="#02435F"/>
<path d="M224.019 123.959H222.086V164.852H224.019V123.959Z" fill="#02435F"/>
<path d="M252.75 123.959H238.428V164.852H252.75V123.959Z" fill="#02435F"/>
<path d="M269.092 123.959H224.009V164.852H269.092V123.959Z" stroke="#02435F" stroke-width="0.351" stroke-miterlimit="10"/>
<path d="M267.169 137.655H224.44" stroke="#02435F" stroke-width="0.351" stroke-miterlimit="10"/>
<path d="M267.169 151.156H224.44" stroke="#02435F" stroke-width="0.351" stroke-miterlimit="10"/>
<path d="M251.097 125.741H240.404V163.08H251.097V125.741Z" fill="white"/>
<path d="M250.071 126.843L253.679 122.966" stroke="white" stroke-width="0.351" stroke-miterlimit="10"/>
<path d="M241.258 126.519L237.629 123.236" stroke="white" stroke-width="0.351" stroke-miterlimit="10"/>
<path d="M241.29 162.292L237.585 165.608" stroke="white" stroke-width="0.351" stroke-miterlimit="10"/>
<path d="M250.406 162.346L253.398 165.543" stroke="white" stroke-width="0.351" stroke-miterlimit="10"/>
<path d="M269.102 36.7848H267.169V77.6772H269.102V36.7848Z" fill="#02435F"/>
<path d="M224.019 36.7848H222.086V77.6772H224.019V36.7848Z" fill="#02435F"/>
<path d="M252.75 36.7848H238.428V77.6772H252.75V36.7848Z" fill="#02435F"/>
<path d="M269.092 36.7848H224.009V77.6772H269.092V36.7848Z" stroke="#02435F" stroke-width="0.351" stroke-miterlimit="10"/>
<path d="M267.169 50.4696H224.44" stroke="#02435F" stroke-width="0.351" stroke-miterlimit="10"/>
<path d="M267.169 63.9707H224.44" stroke="#02435F" stroke-width="0.351" stroke-miterlimit="10"/>
<path d="M251.097 38.5669H240.404V75.9058H251.097V38.5669Z" fill="white"/>
<path d="M250.071 39.6578L253.679 35.7803" stroke="white" stroke-width="0.351" stroke-miterlimit="10"/>
<path d="M241.258 39.3338L237.629 36.0503" stroke="white" stroke-width="0.351" stroke-miterlimit="10"/>
<path d="M241.29 75.1066L237.585 78.4225" stroke="white" stroke-width="0.351" stroke-miterlimit="10"/>
<path d="M250.406 75.1605L253.398 78.3576" stroke="white" stroke-width="0.351" stroke-miterlimit="10"/>
<path d="M455.019 103.805H403.077" stroke="#0D3F57" stroke-width="2.806" stroke-miterlimit="10"/>
<path d="M454.436 104.68H439.974V155.023H454.436V104.68Z" fill="white"/>
<path d="M454.436 104.68H439.974V155.023H454.436V104.68Z" stroke="#0D3F57" stroke-width="0.702" stroke-miterlimit="10"/>
<path d="M411.427 104.68H403.326V155.023H411.427V104.68Z" fill="white"/>
<path d="M411.427 104.68H403.326V155.023H411.427V104.68Z" stroke="#0D3F57" stroke-width="0.702" stroke-miterlimit="10"/>
<path d="M395.441 114.865C395.441 112.867 396.834 111.203 398.703 110.761C398.282 110.62 397.85 110.534 397.385 110.534C395.052 110.534 393.162 112.424 393.162 114.757C393.162 117.09 395.052 118.98 397.385 118.98C397.72 118.98 398.044 118.937 398.347 118.861C396.662 118.3 395.441 116.733 395.441 114.865Z" stroke="#02435F" stroke-width="0.351" stroke-miterlimit="10" stroke-linecap="round" stroke-linejoin="round"/>
<path d="M395.441 114.865C395.441 116.733 396.662 118.3 398.347 118.861C400.215 118.418 401.609 116.755 401.609 114.757C401.609 112.888 400.388 111.322 398.703 110.76C396.835 111.203 395.441 112.867 395.441 114.865Z" stroke="#02435F" stroke-width="0.351" stroke-miterlimit="10" stroke-linecap="round" stroke-linejoin="round"/>
<path d="M395.441 128.755C395.441 126.757 396.834 125.093 398.703 124.651C398.282 124.51 397.85 124.424 397.385 124.424C395.052 124.424 393.162 126.314 393.162 128.647C393.162 130.98 395.052 132.87 397.385 132.87C397.72 132.87 398.044 132.827 398.347 132.751C396.662 132.19 395.441 130.623 395.441 128.755Z" stroke="#02435F" stroke-width="0.351" stroke-miterlimit="10" stroke-linecap="round" stroke-linejoin="round"/>
<path d="M395.441 128.755C395.441 130.623 396.662 132.19 398.347 132.751C400.215 132.319 401.609 130.645 401.609 128.647C401.609 126.778 400.388 125.212 398.703 124.651C396.835 125.093 395.441 126.757 395.441 128.755Z" stroke="#02435F" stroke-width="0.351" stroke-miterlimit="10" stroke-linecap="round" stroke-linejoin="round"/>
<path d="M395.441 142.472C395.441 140.474 396.834 138.811 398.703 138.368C398.282 138.227 397.85 138.141 397.385 138.141C395.052 138.141 393.162 140.031 393.162 142.364C393.162 144.697 395.052 146.587 397.385 146.587C397.72 146.587 398.044 146.533 398.347 146.468C396.662 145.918 395.441 144.341 395.441 142.472Z" stroke="#02435F" stroke-width="0.351" stroke-miterlimit="10" stroke-linecap="round" stroke-linejoin="round"/>
<path d="M395.441 142.472C395.441 144.341 396.662 145.907 398.347 146.468C400.215 146.036 401.609 144.362 401.609 142.364C401.609 140.495 400.388 138.929 398.703 138.368C396.835 138.811 395.441 140.474 395.441 142.472Z" stroke="#02435F" stroke-width="0.351" stroke-miterlimit="10" stroke-linecap="round" stroke-linejoin="round"/>
<path d="M592.537 53.3534H567.263V62.0482H592.537V53.3534Z" fill="white"/>
<path d="M592.537 53.3534H567.263V62.0482H592.537V53.3534Z" stroke="#02435F" stroke-width="0.702" stroke-miterlimit="10"/>
<path d="M0.763672 106.483V94.5158H21.9443L79.0166 69.8033L132.395 45.0583C171.43 26.9667 212.981 16.2306 255.893 13.1523L379.251 2.79418C382.739 2.54575 386.239 2.39454 389.706 2.35134L628.861 0.785199C636.313 0.687991 643.874 0.904012 651.327 1.43326L779.804 8.98312C796.308 10.1496 809.215 23.9964 809.215 40.5219V159.656C809.215 176.041 796.416 189.888 780.074 191.174L652.774 199.652C644.371 200.311 635.806 200.581 627.348 200.441L394.242 199.62C387.751 199.598 381.184 199.285 374.714 198.691L255.925 187.814C212.992 184.898 171.354 174.292 132.211 156.308L78.7033 131.714L21.9011 106.494H0.763672V106.483ZM5.31088 99.0631V101.936H22.8948L80.6043 127.556L134.134 152.161C172.769 169.917 213.877 180.383 256.314 183.267L375.157 194.144C381.486 194.727 387.924 195.029 394.285 195.051L627.424 195.872C635.773 196.002 644.187 195.742 652.471 195.094L779.771 186.616C793.737 185.525 804.689 173.665 804.689 159.635V40.5111C804.689 26.3618 793.64 14.5132 779.534 13.5087L651.057 5.95886C643.701 5.44041 636.27 5.22439 628.925 5.3216L389.76 6.88774C386.401 6.93094 382.988 7.07135 379.618 7.31977L256.26 17.6779C213.866 20.7238 172.855 31.3195 134.317 49.1735L80.8851 73.94L22.8948 99.0522H5.31088V99.0631Z" fill="white"/>
<path d="M0.763672 106.483V94.5158H21.9443L79.0166 69.8033L132.395 45.0583C171.43 26.9667 212.981 16.2306 255.893 13.1523L379.251 2.79418C382.739 2.54575 386.239 2.39454 389.706 2.35134L628.861 0.785199C636.313 0.687991 643.874 0.904012 651.327 1.43326L779.804 8.98312C796.308 10.1496 809.215 23.9964 809.215 40.5219V159.656C809.215 176.041 796.416 189.888 780.074 191.174L652.774 199.652C644.371 200.311 635.806 200.581 627.348 200.441L394.242 199.62C387.751 199.598 381.184 199.285 374.714 198.691L255.925 187.814C212.992 184.898 171.354 174.292 132.211 156.308L78.7033 131.714L21.9011 106.494H0.763672V106.483ZM5.31088 99.0631V101.936H22.8948L80.6043 127.556L134.134 152.161C172.769 169.917 213.877 180.383 256.314 183.267L375.157 194.144C381.486 194.727 387.924 195.029 394.285 195.051L627.424 195.872C635.773 196.002 644.187 195.742 652.471 195.094L779.771 186.616C793.737 185.525 804.689 173.665 804.689 159.635V40.5111C804.689 26.3618 793.64 14.5132 779.534 13.5087L651.057 5.95886C643.701 5.44041 636.27 5.22439 628.925 5.3216L389.76 6.88774C386.401 6.93094 382.988 7.07135 379.618 7.31977L256.26 17.6779C213.866 20.7238 172.855 31.3195 134.317 49.1735L80.8851 73.94L22.8948 99.0522H5.31088V99.0631Z" stroke="#0D3F57" stroke-width="0.702" stroke-miterlimit="10"/>
<path d="M80.9067 127.567L90.3036 131.887V69.9545L80.9067 73.9616V99.7867H39.5607L41.0188 91.2215L28.2845 96.298L20.5834 98.3502H0.763672V103.254H20.5834L28.8137 105.176L40.6192 109.81L39.5607 101.428H80.9067V127.567Z" fill="white"/>
<path d="M80.9067 127.567L90.3036 131.887V69.9545L80.9067 73.9616V99.7867H39.5607L41.0188 91.2215L28.2845 96.298L20.5834 98.3502H0.763672V103.254H20.5834L28.8137 105.176L40.6192 109.81L39.5607 101.428H80.9067V127.567Z" stroke="#0D3F57" stroke-width="0.702" stroke-miterlimit="10"/>
<path d="M610.294 56.5829V46.7217C610.294 45.2852 611.46 44.1187 612.897 44.1187H631.982C633.419 44.1187 634.585 45.2852 634.585 46.7217V56.5829C634.585 58.0195 633.419 59.186 631.982 59.186H612.897C611.46 59.1752 610.294 58.0195 610.294 56.5829Z" stroke="#0D3F57" stroke-width="0.351" stroke-miterlimit="10"/>
<path d="M634.574 56.6585V46.6136C634.574 45.2311 635.698 44.1078 637.08 44.1078H645.667C647.049 44.1078 648.173 45.2311 648.173 46.6136V56.6585C648.173 58.041 647.049 59.1643 645.667 59.1643H637.08C635.698 59.1643 634.574 58.041 634.574 56.6585Z" stroke="#0D3F57" stroke-width="0.351" stroke-miterlimit="10"/>
<path d="M625.793 44.097H613.556V59.1536H625.793V44.097Z" fill="#02435F"/>
<path d="M628.558 44.097H625.458V59.1536H628.558V44.097Z" stroke="#0D3F57" stroke-width="0.351" stroke-miterlimit="10"/>
<path d="M624.346 68.2155C622.153 68.0859 620.479 66.2065 620.609 64.0139C620.738 61.8214 622.618 60.1472 624.81 60.2768C627.003 60.4064 628.677 62.2858 628.547 64.4784C628.418 66.671 626.538 68.3451 624.346 68.2155Z" stroke="#0D3F57" stroke-width="0.351" stroke-miterlimit="10"/>
<path d="M804.679 43.9458H777.73" stroke="#02435F" stroke-width="0.351" stroke-miterlimit="10"/>
<path d="M804.679 155.293H779.037" stroke="#02435F" stroke-width="0.351" stroke-miterlimit="10"/>
<path d="M804.678 80.8311H778.162" stroke="#02435F" stroke-width="0.351" stroke-miterlimit="10"/>
<path d="M804.678 119.812H778.162" stroke="#02435F" stroke-width="0.351" stroke-miterlimit="10"/>
<path d="M777.071 13.3683V42.7685" stroke="#02435F" stroke-width="0.351" stroke-miterlimit="10"/>
<path d="M777.071 159.16V186.81" stroke="#02435F" stroke-width="0.351" stroke-miterlimit="10"/>
<path d="M759.552 89.245V58.4407H766.551C769.586 58.4407 772.038 60.9033 772.038 63.9276V89.2342H759.552V89.245Z" fill="white"/>
<path d="M759.552 89.245V58.4407H766.551C769.586 58.4407 772.038 60.9033 772.038 63.9276V89.2342H759.552V89.245Z" stroke="#02435F" stroke-width="0.702" stroke-miterlimit="10"/>
<path d="M759.552 110.912V141.716H766.551C769.586 141.716 772.038 139.253 772.038 136.229V110.912H759.552Z" fill="white"/>
<path d="M759.552 110.912V141.716H766.551C769.586 141.716 772.038 139.253 772.038 136.229V110.912H759.552Z" stroke="#02435F" stroke-width="0.702" stroke-miterlimit="10"/>
<path d="M417.108 173.881H401.598" stroke="#02435F" stroke-width="0.281" stroke-miterlimit="10" stroke-dasharray="1.4 1.4"/>
<path d="M484.182 176.149H467.624" stroke="#02435F" stroke-width="0.281" stroke-miterlimit="10" stroke-dasharray="1.4 1.4"/>
<path d="M472.312 24.2017H486.806" stroke="#02435F" stroke-width="0.281" stroke-miterlimit="10" stroke-dasharray="1.4 1.4"/>
<path d="M576.638 27.9928H590.128" stroke="#02435F" stroke-width="0.281" stroke-miterlimit="10" stroke-dasharray="1.4 1.4"/>
<path d="M644.684 32.1079H658.314" stroke="#02435F" stroke-width="0.281" stroke-miterlimit="10" stroke-dasharray="1.4 1.4"/>
<path d="M581.39 172.736H567.5" stroke="#02435F" stroke-width="0.281" stroke-miterlimit="10" stroke-dasharray="1.4 1.4"/>
<path d="M611.05 116.831H597.797" stroke="#02435F" stroke-width="0.281" stroke-miterlimit="10" stroke-dasharray="1.4 1.4"/>
<path d="M611.05 143.444H597.419" stroke="#02435F" stroke-width="0.281" stroke-miterlimit="10" stroke-dasharray="1.4 1.4"/>
<path d="M229.452 49.4651L227.27 41.0727C227.032 40.1438 227.583 39.1933 228.512 38.9557L231.731 38.1241C232.66 37.8864 233.61 38.4373 233.848 39.3662L236.03 47.7585C236.267 48.6874 235.716 49.6379 234.788 49.8755L231.569 50.7072C230.64 50.9556 229.689 50.3939 229.452 49.4651Z" fill="#8FBAB8"/>
<path d="M229.452 49.4651L227.27 41.0727C227.032 40.1438 227.583 39.1933 228.512 38.9557L231.731 38.1241C232.66 37.8864 233.61 38.4373 233.848 39.3662L236.03 47.7585C236.267 48.6874 235.716 49.6379 234.788 49.8755L231.569 50.7072C230.64 50.9556 229.689 50.3939 229.452 49.4651Z" stroke="#02435F" stroke-width="0.351" stroke-miterlimit="10"/>
<path d="M229.452 73.5512L227.27 65.1589C227.032 64.23 227.583 63.2795 228.512 63.0419L231.731 62.2102C232.66 61.9726 233.61 62.5235 233.848 63.4523L236.03 71.8447C236.267 72.7736 235.716 73.724 234.788 73.9617L231.569 74.7933C230.64 75.0418 229.689 74.4801 229.452 73.5512Z" fill="#8FBAB8"/>
<path d="M229.452 73.5512L227.27 65.1589C227.032 64.23 227.583 63.2795 228.512 63.0419L231.731 62.2102C232.66 61.9726 233.61 62.5235 233.848 63.4523L236.03 71.8447C236.267 72.7736 235.716 73.724 234.788 73.9617L231.569 74.7933C230.64 75.0418 229.689 74.4801 229.452 73.5512Z" stroke="#02435F" stroke-width="0.351" stroke-miterlimit="10"/>
<path d="M258.344 49.4651L256.163 41.0727C255.925 40.1438 256.476 39.1933 257.405 38.9557L260.623 38.1241C261.552 37.8864 262.503 38.4373 262.74 39.3662L264.922 47.7585C265.16 48.6874 264.609 49.6379 263.68 49.8755L260.461 50.7072C259.533 50.9556 258.582 50.3939 258.344 49.4651Z" fill="#8FBAB8"/>
<path d="M258.344 49.4651L256.163 41.0727C255.925 40.1438 256.476 39.1933 257.405 38.9557L260.623 38.1241C261.552 37.8864 262.503 38.4373 262.74 39.3662L264.922 47.7585C265.16 48.6874 264.609 49.6379 263.68 49.8755L260.461 50.7072C259.533 50.9556 258.582 50.3939 258.344 49.4651Z" stroke="#02435F" stroke-width="0.351" stroke-miterlimit="10"/>
<path d="M258.344 73.5512L256.163 65.1589C255.925 64.23 256.476 63.2795 257.405 63.0419L260.623 62.2102C261.552 61.9726 262.503 62.5235 262.74 63.4523L264.922 71.8447C265.16 72.7736 264.609 73.724 263.68 73.9617L260.461 74.7933C259.533 75.0418 258.582 74.4801 258.344 73.5512Z" fill="#8FBAB8"/>
<path d="M258.344 73.5512L256.163 65.1589C255.925 64.23 256.476 63.2795 257.405 63.0419L260.623 62.2102C261.552 61.9726 262.503 62.5235 262.74 63.4523L264.922 71.8447C265.16 72.7736 264.609 73.724 263.68 73.9617L260.461 74.7933C259.533 75.0418 258.582 74.4801 258.344 73.5512Z" stroke="#02435F" stroke-width="0.351" stroke-miterlimit="10"/>
<path d="M229.452 137.428L227.27 129.036C227.032 128.107 227.583 127.156 228.512 126.919L231.731 126.087C232.66 125.849 233.61 126.4 233.848 127.329L236.03 135.722C236.267 136.65 235.716 137.601 234.788 137.839L231.569 138.67C230.64 138.908 229.689 138.357 229.452 137.428Z" fill="#8FBAB8"/>
<path d="M229.452 137.428L227.27 129.036C227.032 128.107 227.583 127.156 228.512 126.919L231.731 126.087C232.66 125.849 233.61 126.4 233.848 127.329L236.03 135.722C236.267 136.65 235.716 137.601 234.788 137.839L231.569 138.67C230.64 138.908 229.689 138.357 229.452 137.428Z" stroke="#02435F" stroke-width="0.351" stroke-miterlimit="10"/>
<path d="M229.452 161.514L227.27 153.122C227.032 152.193 227.583 151.242 228.512 151.005L231.731 150.173C232.66 149.936 233.61 150.486 233.848 151.415L236.03 159.808C236.267 160.736 235.716 161.687 234.788 161.925L231.569 162.756C230.64 162.994 229.689 162.443 229.452 161.514Z" fill="#8FBAB8"/>
<path d="M229.452 161.514L227.27 153.122C227.032 152.193 227.583 151.242 228.512 151.005L231.731 150.173C232.66 149.936 233.61 150.486 233.848 151.415L236.03 159.808C236.267 160.736 235.716 161.687 234.788 161.925L231.569 162.756C230.64 162.994 229.689 162.443 229.452 161.514Z" stroke="#02435F" stroke-width="0.351" stroke-miterlimit="10"/>
<path d="M765.698 28.5869L763.516 20.1945C763.279 19.2657 763.829 18.3152 764.758 18.0776L767.977 17.2459C768.906 17.0083 769.856 17.5591 770.094 18.488L772.276 26.8803C772.513 27.8092 771.963 28.7597 771.034 28.9973L767.815 29.829C766.886 30.0774 765.946 29.5158 765.698 28.5869Z" fill="#8FBAB8"/>
<path d="M765.698 28.5869L763.516 20.1945C763.279 19.2657 763.829 18.3152 764.758 18.0776L767.977 17.2459C768.906 17.0083 769.856 17.5591 770.094 18.488L772.276 26.8803C772.513 27.8092 771.963 28.7597 771.034 28.9973L767.815 29.829C766.886 30.0774 765.946 29.5158 765.698 28.5869Z" stroke="#02435F" stroke-width="0.351" stroke-miterlimit="10"/>
<path d="M698.246 48.8171L689.853 50.9989C688.925 51.2365 687.974 50.6856 687.737 49.7567L686.905 46.5381C686.667 45.6092 687.218 44.6587 688.147 44.4211L696.539 42.2393C697.468 42.0017 698.419 42.5525 698.656 43.4814L699.499 46.7001C699.736 47.6182 699.175 48.5686 698.246 48.8171Z" fill="#8FBAB8"/>
<path d="M698.246 48.8171L689.853 50.9989C688.925 51.2365 687.974 50.6856 687.737 49.7567L686.905 46.5381C686.667 45.6092 687.218 44.6587 688.147 44.4211L696.539 42.2393C697.468 42.0017 698.419 42.5525 698.656 43.4814L699.499 46.7001C699.736 47.6182 699.175 48.5686 698.246 48.8171Z" stroke="#02435F" stroke-width="0.351" stroke-miterlimit="10"/>
<path d="M678.923 45.8144L670.293 44.9179C669.332 44.8207 668.64 43.9674 668.748 43.0061L669.094 39.701C669.191 38.7505 670.044 38.0485 671.006 38.1565L679.636 39.053C680.586 39.1502 681.288 40.0034 681.18 40.9647L680.835 44.2698C680.727 45.2203 679.873 45.9224 678.923 45.8144Z" fill="#8FBAB8"/>
<path d="M678.923 45.8144L670.293 44.9179C669.332 44.8207 668.64 43.9674 668.748 43.0061L669.094 39.701C669.191 38.7505 670.044 38.0485 671.006 38.1565L679.636 39.053C680.586 39.1502 681.288 40.0034 681.18 40.9647L680.835 44.2698C680.727 45.2203 679.873 45.9224 678.923 45.8144Z" stroke="#02435F" stroke-width="0.351" stroke-miterlimit="10"/>
<path d="M765.698 181.42L763.516 173.028C763.279 172.099 763.829 171.149 764.758 170.911L767.977 170.079C768.906 169.842 769.856 170.393 770.094 171.321L772.276 179.714C772.513 180.643 771.963 181.593 771.034 181.831L767.815 182.662C766.886 182.911 765.946 182.349 765.698 181.42Z" fill="#8FBAB8"/>
<path d="M765.698 181.42L763.516 173.028C763.279 172.099 763.829 171.149 764.758 170.911L767.977 170.079C768.906 169.842 769.856 170.393 770.094 171.321L772.276 179.714C772.513 180.643 771.963 181.593 771.034 181.831L767.815 182.662C766.886 182.911 765.946 182.349 765.698 181.42Z" stroke="#02435F" stroke-width="0.351" stroke-miterlimit="10"/>
<path d="M258.344 137.428L256.163 129.036C255.925 128.107 256.476 127.156 257.405 126.919L260.623 126.087C261.552 125.849 262.503 126.4 262.74 127.329L264.922 135.722C265.16 136.65 264.609 137.601 263.68 137.839L260.461 138.67C259.533 138.908 258.582 138.357 258.344 137.428Z" fill="#8FBAB8"/>
<path d="M258.344 137.428L256.163 129.036C255.925 128.107 256.476 127.156 257.405 126.919L260.623 126.087C261.552 125.849 262.503 126.4 262.74 127.329L264.922 135.722C265.16 136.65 264.609 137.601 263.68 137.839L260.461 138.67C259.533 138.908 258.582 138.357 258.344 137.428Z" stroke="#02435F" stroke-width="0.351" stroke-miterlimit="10"/>
<path d="M258.344 161.514L256.163 153.122C255.925 152.193 256.476 151.242 257.405 151.005L260.623 150.173C261.552 149.936 262.503 150.486 262.74 151.415L264.922 159.808C265.16 160.736 264.609 161.687 263.68 161.925L260.461 162.756C259.533 162.994 258.582 162.443 258.344 161.514Z" fill="#8FBAB8"/>
<path d="M258.344 161.514L256.163 153.122C255.925 152.193 256.476 151.242 257.405 151.005L260.623 150.173C261.552 149.936 262.503 150.486 262.74 151.415L264.922 159.808C265.16 160.736 264.609 161.687 263.68 161.925L260.461 162.756C259.533 162.994 258.582 162.443 258.344 161.514Z" stroke="#02435F" stroke-width="0.351" stroke-miterlimit="10"/>
<path d="M333.887 41.0836V33.6849C333.887 32.54 334.816 31.6219 335.95 31.6219H338.574C339.719 31.6219 340.637 32.5508 340.637 33.6849V41.0836C340.637 42.2285 339.708 43.1466 338.574 43.1466H335.95C334.816 43.1574 333.887 42.2285 333.887 41.0836Z" fill="#8FBAB8"/>
<path d="M333.887 41.0836V33.6849C333.887 32.54 334.816 31.6219 335.95 31.6219H338.574C339.719 31.6219 340.637 32.5508 340.637 33.6849V41.0836C340.637 42.2285 339.708 43.1466 338.574 43.1466H335.95C334.816 43.1574 333.887 42.2285 333.887 41.0836Z" stroke="#02435F" stroke-width="0.351" stroke-miterlimit="10"/>
<path d="M332.353 43.6326L331.381 36.396C331.23 35.2835 332.018 34.2574 333.131 34.1062L335.69 33.7605C336.803 33.6093 337.829 34.3978 337.98 35.5103L338.952 42.7469C339.104 43.8594 338.315 44.8855 337.203 45.0367L334.643 45.3823C333.53 45.5336 332.504 44.7559 332.353 43.6326Z" fill="#8FBAB8"/>
<path d="M332.353 43.6326L331.381 36.396C331.23 35.2835 332.018 34.2574 333.131 34.1062L335.69 33.7605C336.803 33.6093 337.829 34.3978 337.98 35.5103L338.952 42.7469C339.104 43.8594 338.315 44.8855 337.203 45.0367L334.643 45.3823C333.53 45.5336 332.504 44.7559 332.353 43.6326Z" stroke="#02435F" stroke-width="0.346" stroke-miterlimit="10"/>
<path d="M333.887 60.8493V53.4507C333.887 52.3058 334.816 51.3877 335.95 51.3877H338.574C339.719 51.3877 340.637 52.3166 340.637 53.4507V60.8493C340.637 61.9942 339.708 62.9123 338.574 62.9123H335.95C334.816 62.9231 333.887 61.9942 333.887 60.8493Z" fill="#8FBAB8"/>
<path d="M333.887 60.8493V53.4507C333.887 52.3058 334.816 51.3877 335.95 51.3877H338.574C339.719 51.3877 340.637 52.3166 340.637 53.4507V60.8493C340.637 61.9942 339.708 62.9123 338.574 62.9123H335.95C334.816 62.9231 333.887 61.9942 333.887 60.8493Z" stroke="#02435F" stroke-width="0.351" stroke-miterlimit="10"/>
<path d="M332.353 63.1283L331.381 55.8917C331.23 54.7792 332.018 53.7531 333.131 53.6019L335.69 53.2563C336.803 53.105 337.829 53.8935 337.98 55.006L338.952 62.2426C339.104 63.3551 338.315 64.3812 337.203 64.5325L334.643 64.8781C333.53 65.0293 332.504 64.2408 332.353 63.1283Z" fill="#8FBAB8"/>
<path d="M332.353 63.1283L331.381 55.8917C331.23 54.7792 332.018 53.7531 333.131 53.6019L335.69 53.2563C336.803 53.105 337.829 53.8935 337.98 55.006L338.952 62.2426C339.104 63.3551 338.315 64.3812 337.203 64.5325L334.643 64.8781C333.53 65.0293 332.504 64.2408 332.353 63.1283Z" stroke="#02435F" stroke-width="0.346" stroke-miterlimit="10"/>
<path d="M333.887 79.8698V72.5684C333.887 71.4451 334.794 70.527 335.928 70.527H338.51C339.633 70.527 340.551 71.4451 340.551 72.5684V79.8698C340.551 80.9931 339.644 81.9112 338.51 81.9112H335.928C334.805 81.9112 333.887 80.9931 333.887 79.8698Z" fill="#8FBAB8"/>
<path d="M333.887 79.8698V72.5684C333.887 71.4451 334.794 70.527 335.928 70.527H338.51C339.633 70.527 340.551 71.4451 340.551 72.5684V79.8698C340.551 80.9931 339.644 81.9112 338.51 81.9112H335.928C334.805 81.9112 333.887 80.9931 333.887 79.8698Z" stroke="#02435F" stroke-width="0.346" stroke-miterlimit="10"/>
<path d="M332.353 82.5808L331.381 75.3442C331.23 74.2317 332.018 73.2056 333.131 73.0544L335.69 72.7088C336.803 72.5576 337.829 73.346 337.98 74.4585L338.952 81.6952C339.104 82.8077 338.315 83.8337 337.203 83.985L334.643 84.3306C333.53 84.471 332.504 83.6933 332.353 82.5808Z" fill="#8FBAB8"/>
<path d="M332.353 82.5808L331.381 75.3442C331.23 74.2317 332.018 73.2056 333.131 73.0544L335.69 72.7088C336.803 72.5576 337.829 73.346 337.98 74.4585L338.952 81.6952C339.104 82.8077 338.315 83.8337 337.203 83.985L334.643 84.3306C333.53 84.471 332.504 83.6933 332.353 82.5808Z" stroke="#02435F" stroke-width="0.346" stroke-miterlimit="10"/>
<path d="M332.947 126.033V118.634C332.947 117.489 333.876 116.561 335.01 116.561H337.635C338.78 116.561 339.698 117.489 339.698 118.634V126.033C339.698 127.178 338.769 128.096 337.635 128.096H335.01C333.876 128.096 332.947 127.167 332.947 126.033Z" fill="#8FBAB8"/>
<path d="M332.947 126.033V118.634C332.947 117.489 333.876 116.561 335.01 116.561H337.635C338.78 116.561 339.698 117.489 339.698 118.634V126.033C339.698 127.178 338.769 128.096 337.635 128.096H335.01C333.876 128.096 332.947 127.167 332.947 126.033Z" stroke="#02435F" stroke-width="0.351" stroke-miterlimit="10"/>
<path d="M331.392 128.776L330.409 121.443C330.258 120.308 331.057 119.272 332.18 119.12L334.783 118.775C335.917 118.624 336.954 119.423 337.106 120.546L338.088 127.891C338.24 129.025 337.44 130.062 336.317 130.213L333.714 130.559C332.58 130.699 331.543 129.911 331.392 128.776Z" fill="#8FBAB8"/>
<path d="M331.392 128.776L330.409 121.443C330.258 120.308 331.057 119.272 332.18 119.12L334.783 118.775C335.917 118.624 336.954 119.423 337.106 120.546L338.088 127.891C338.24 129.025 337.44 130.062 336.317 130.213L333.714 130.559C332.58 130.699 331.543 129.911 331.392 128.776Z" stroke="#02435F" stroke-width="0.351" stroke-miterlimit="10"/>
<path d="M348.651 150.173V142.774C348.651 141.63 349.58 140.701 350.714 140.701H353.339C354.484 140.701 355.402 141.63 355.402 142.774V150.173C355.402 151.318 354.473 152.236 353.339 152.236H350.714C349.569 152.236 348.651 151.318 348.651 150.173Z" fill="#8FBAB8"/>
<path d="M348.651 150.173V142.774C348.651 141.63 349.58 140.701 350.714 140.701H353.339C354.484 140.701 355.402 141.63 355.402 142.774V150.173C355.402 151.318 354.473 152.236 353.339 152.236H350.714C349.569 152.236 348.651 151.318 348.651 150.173Z" stroke="#02435F" stroke-width="0.351" stroke-miterlimit="10"/>
<path d="M347.582 128.074L350.11 121.119C350.499 120.049 351.687 119.488 352.756 119.887L355.219 120.784C356.288 121.173 356.85 122.361 356.45 123.43L353.923 130.386C353.534 131.455 352.346 132.017 351.276 131.617L348.814 130.721C347.755 130.332 347.194 129.144 347.582 128.074Z" fill="#8FBAB8"/>
<path d="M347.582 128.074L350.11 121.119C350.499 120.049 351.687 119.488 352.756 119.887L355.219 120.784C356.288 121.173 356.85 122.361 356.45 123.43L353.923 130.386C353.534 131.455 352.346 132.017 351.276 131.617L348.814 130.721C347.755 130.332 347.194 129.144 347.582 128.074Z" stroke="#02435F" stroke-width="0.351" stroke-miterlimit="10"/>
<path d="M377.371 165.781H369.961C368.817 165.781 367.898 164.852 367.898 163.718V161.093C367.898 159.948 368.827 159.03 369.961 159.03H377.371C378.516 159.03 379.434 159.959 379.434 161.093V163.718C379.434 164.852 378.505 165.781 377.371 165.781Z" fill="#8FBAB8"/>
<path d="M377.371 165.781H369.961C368.817 165.781 367.898 164.852 367.898 163.718V161.093C367.898 159.948 368.827 159.03 369.961 159.03H377.371C378.516 159.03 379.434 159.959 379.434 161.093V163.718C379.434 164.852 378.505 165.781 377.371 165.781Z" stroke="#02435F" stroke-width="0.351" stroke-miterlimit="10"/>
<path d="M332.947 144.168V136.769C332.947 135.624 333.876 134.695 335.01 134.695H337.635C338.78 134.695 339.698 135.624 339.698 136.769V144.168C339.698 145.313 338.769 146.231 337.635 146.231H335.01C333.876 146.242 332.947 145.313 332.947 144.168Z" fill="#8FBAB8"/>
<path d="M332.947 144.168V136.769C332.947 135.624 333.876 134.695 335.01 134.695H337.635C338.78 134.695 339.698 135.624 339.698 136.769V144.168C339.698 145.313 338.769 146.231 337.635 146.231H335.01C333.876 146.242 332.947 145.313 332.947 144.168Z" stroke="#02435F" stroke-width="0.351" stroke-miterlimit="10"/>
<path d="M331.392 146.922L330.409 139.588C330.258 138.454 331.057 137.417 332.18 137.266L334.783 136.92C335.917 136.769 336.954 137.568 337.106 138.692L338.088 146.036C338.24 147.17 337.44 148.207 336.317 148.359L333.714 148.704C332.58 148.845 331.543 148.045 331.392 146.922Z" fill="#8FBAB8"/>
<path d="M331.392 146.922L330.409 139.588C330.258 138.454 331.057 137.417 332.18 137.266L334.783 136.92C335.917 136.769 336.954 137.568 337.106 138.692L338.088 146.036C338.24 147.17 337.44 148.207 336.317 148.359L333.714 148.704C332.58 148.845 331.543 148.045 331.392 146.922Z" stroke="#02435F" stroke-width="0.351" stroke-miterlimit="10"/>
<path d="M332.947 164.484V157.086C332.947 155.941 333.876 155.012 335.01 155.012H337.635C338.78 155.012 339.698 155.941 339.698 157.086V164.484C339.698 165.629 338.769 166.547 337.635 166.547H335.01C333.876 166.558 332.947 165.629 332.947 164.484Z" fill="#8FBAB8"/>
<path d="M332.947 164.484V157.086C332.947 155.941 333.876 155.012 335.01 155.012H337.635C338.78 155.012 339.698 155.941 339.698 157.086V164.484C339.698 165.629 338.769 166.547 337.635 166.547H335.01C333.876 166.558 332.947 165.629 332.947 164.484Z" stroke="#02435F" stroke-width="0.351" stroke-miterlimit="10"/>
<path d="M331.392 167.228L330.409 159.894C330.258 158.76 331.057 157.723 332.18 157.572L334.783 157.226C335.917 157.075 336.954 157.874 337.106 158.997L338.088 166.342C338.24 167.476 337.44 168.513 336.317 168.664L333.714 169.01C332.58 169.161 331.543 168.362 331.392 167.228Z" fill="#8FBAB8"/>
<path d="M331.392 167.228L330.409 159.894C330.258 158.76 331.057 157.723 332.18 157.572L334.783 157.226C335.917 157.075 336.954 157.874 337.106 158.997L338.088 166.342C338.24 167.476 337.44 168.513 336.317 168.664L333.714 169.01C332.58 169.161 331.543 168.362 331.392 167.228Z" stroke="#02435F" stroke-width="0.351" stroke-miterlimit="10"/>
<path d="M87.582 83.8554L88.9321 77.0508C89.1373 76.0031 88.4569 74.9878 87.4092 74.7718L85.0006 74.2965C83.9529 74.0913 82.9376 74.7718 82.7216 75.8195L81.3715 82.6241C81.1663 83.6717 81.8467 84.687 82.8944 84.903L85.303 85.3783C86.3507 85.5943 87.3768 84.9031 87.582 83.8554Z" fill="#8FBAB8"/>
<path d="M87.582 83.8554L88.9321 77.0508C89.1373 76.0031 88.4569 74.9878 87.4092 74.7718L85.0006 74.2965C83.9529 74.0913 82.9376 74.7718 82.7216 75.8195L81.3715 82.6241C81.1663 83.6717 81.8467 84.687 82.8944 84.903L85.303 85.3783C86.3507 85.5943 87.3768 84.9031 87.582 83.8554Z" stroke="#02435F" stroke-width="0.351" stroke-miterlimit="10"/>
<path d="M87.582 97.2052L88.9321 90.4006C89.1373 89.3529 88.4569 88.3376 87.4092 88.1216L85.0006 87.6464C83.9529 87.4412 82.9376 88.1216 82.7216 89.1693L81.3715 95.9739C81.1663 97.0216 81.8467 98.0369 82.8944 98.2529L85.303 98.7282C86.3507 98.9334 87.3768 98.2529 87.582 97.2052Z" fill="#8FBAB8"/>
<path d="M87.582 97.2052L88.9321 90.4006C89.1373 89.3529 88.4569 88.3376 87.4092 88.1216L85.0006 87.6464C83.9529 87.4412 82.9376 88.1216 82.7216 89.1693L81.3715 95.9739C81.1663 97.0216 81.8467 98.0369 82.8944 98.2529L85.303 98.7282C86.3507 98.9334 87.3768 98.2529 87.582 97.2052Z" stroke="#02435F" stroke-width="0.351" stroke-miterlimit="10"/>
<path d="M87.582 117.63L88.9321 124.434C89.1373 125.482 88.4569 126.497 87.4092 126.713L85.0006 127.189C83.9529 127.394 82.9376 126.713 82.7216 125.666L81.3715 118.861C81.1663 117.814 81.8467 116.798 82.8944 116.582L85.303 116.107C86.3507 115.902 87.3768 116.582 87.582 117.63Z" fill="#8FBAB8"/>
<path d="M87.582 117.63L88.9321 124.434C89.1373 125.482 88.4569 126.497 87.4092 126.713L85.0006 127.189C83.9529 127.394 82.9376 126.713 82.7216 125.666L81.3715 118.861C81.1663 117.814 81.8467 116.798 82.8944 116.582L85.303 116.107C86.3507 115.902 87.3768 116.582 87.582 117.63Z" stroke="#02435F" stroke-width="0.351" stroke-miterlimit="10"/>
<path d="M87.582 104.474L88.9321 111.279C89.1373 112.327 88.4569 113.342 87.4092 113.558L85.0006 114.033C83.9529 114.238 82.9376 113.558 82.7216 112.51L81.3715 105.706C81.1663 104.658 81.8467 103.643 82.8944 103.427L85.303 102.951C86.3507 102.746 87.3768 103.427 87.582 104.474Z" fill="#8FBAB8"/>
<path d="M87.582 104.474L88.9321 111.279C89.1373 112.327 88.4569 113.342 87.4092 113.558L85.0006 114.033C83.9529 114.238 82.9376 113.558 82.7216 112.51L81.3715 105.706C81.1663 104.658 81.8467 103.643 82.8944 103.427L85.303 102.951C86.3507 102.746 87.3768 103.427 87.582 104.474Z" stroke="#02435F" stroke-width="0.351" stroke-miterlimit="10"/>
<path d="M794.903 61.6486V54.2499C794.903 53.105 795.832 52.1761 796.966 52.1761H799.591C800.736 52.1761 801.654 53.105 801.654 54.2499V61.6486C801.654 62.7935 800.725 63.7116 799.591 63.7116H796.966C795.821 63.7116 794.903 62.7827 794.903 61.6486Z" fill="#8FBAB8"/>
<path d="M794.903 61.6486V54.2499C794.903 53.105 795.832 52.1761 796.966 52.1761H799.591C800.736 52.1761 801.654 53.105 801.654 54.2499V61.6486C801.654 62.7935 800.725 63.7116 799.591 63.7116H796.966C795.821 63.7116 794.903 62.7827 794.903 61.6486Z" stroke="#02435F" stroke-width="0.351" stroke-miterlimit="10"/>
<path d="M793.337 64.392L792.354 57.0582C792.203 55.9241 793.002 54.8872 794.126 54.7359L796.729 54.3903C797.863 54.2391 798.9 55.0384 799.051 56.1617L800.034 63.5063C800.185 64.6404 799.386 65.6773 798.262 65.8285L795.659 66.1742C794.536 66.3146 793.488 65.5261 793.337 64.392Z" fill="#8FBAB8"/>
<path d="M793.337 64.392L792.354 57.0582C792.203 55.9241 793.002 54.8872 794.126 54.7359L796.729 54.3903C797.863 54.2391 798.9 55.0384 799.051 56.1617L800.034 63.5063C800.185 64.6404 799.386 65.6773 798.262 65.8285L795.659 66.1742C794.536 66.3146 793.488 65.5261 793.337 64.392Z" stroke="#02435F" stroke-width="0.351" stroke-miterlimit="10"/>
<path d="M786.576 33.0044V25.6058C786.576 24.4609 787.505 23.532 788.639 23.532H791.264C792.409 23.532 793.327 24.4609 793.327 25.6058V33.0044C793.327 34.1493 792.398 35.0674 791.264 35.0674H788.639C787.505 35.0674 786.576 34.1493 786.576 33.0044Z" fill="#8FBAB8"/>
<path d="M786.576 33.0044V25.6058C786.576 24.4609 787.505 23.532 788.639 23.532H791.264C792.409 23.532 793.327 24.4609 793.327 25.6058V33.0044C793.327 34.1493 792.398 35.0674 791.264 35.0674H788.639C787.505 35.0674 786.576 34.1493 786.576 33.0044Z" stroke="#02435F" stroke-width="0.351" stroke-miterlimit="10"/>
<path d="M785.021 35.7478L784.038 28.414C783.887 27.2799 784.686 26.243 785.809 26.0918L788.412 25.7462C789.546 25.5949 790.583 26.3942 790.734 27.5175L791.717 34.8622C791.869 35.9963 791.069 37.0331 789.946 37.1844L787.343 37.53C786.209 37.6812 785.172 36.8819 785.021 35.7478Z" fill="#8FBAB8"/>
<path d="M785.021 35.7478L784.038 28.414C783.887 27.2799 784.686 26.243 785.809 26.0918L788.412 25.7462C789.546 25.5949 790.583 26.3942 790.734 27.5175L791.717 34.8622C791.869 35.9963 791.069 37.0331 789.946 37.1844L787.343 37.53C786.209 37.6812 785.172 36.8819 785.021 35.7478Z" stroke="#02435F" stroke-width="0.351" stroke-miterlimit="10"/>
<path d="M786.576 174.302V166.904C786.576 165.759 787.505 164.83 788.639 164.83H791.264C792.409 164.83 793.327 165.759 793.327 166.904V174.302C793.327 175.447 792.398 176.365 791.264 176.365H788.639C787.505 176.365 786.576 175.437 786.576 174.302Z" fill="#8FBAB8"/>
<path d="M786.576 174.302V166.904C786.576 165.759 787.505 164.83 788.639 164.83H791.264C792.409 164.83 793.327 165.759 793.327 166.904V174.302C793.327 175.447 792.398 176.365 791.264 176.365H788.639C787.505 176.365 786.576 175.437 786.576 174.302Z" stroke="#02435F" stroke-width="0.351" stroke-miterlimit="10"/>
<path d="M785.021 177.046L784.038 169.712C783.887 168.578 784.686 167.541 785.809 167.39L788.412 167.044C789.546 166.893 790.583 167.692 790.734 168.816L791.717 176.16C791.869 177.294 791.069 178.331 789.946 178.482L787.343 178.828C786.209 178.968 785.172 178.18 785.021 177.046Z" fill="#8FBAB8"/>
<path d="M785.021 177.046L784.038 169.712C783.887 168.578 784.686 167.541 785.809 167.39L788.412 167.044C789.546 166.893 790.583 167.692 790.734 168.816L791.717 176.16C791.869 177.294 791.069 178.331 789.946 178.482L787.343 178.828C786.209 178.968 785.172 178.18 785.021 177.046Z" stroke="#02435F" stroke-width="0.351" stroke-miterlimit="10"/>
<path d="M794.903 140.679V133.281C794.903 132.136 795.832 131.218 796.966 131.218H799.591C800.736 131.218 801.654 132.146 801.654 133.281V140.679C801.654 141.824 800.725 142.742 799.591 142.742H796.966C795.821 142.742 794.903 141.813 794.903 140.679Z" fill="#8FBAB8"/>
<path d="M794.903 140.679V133.281C794.903 132.136 795.832 131.218 796.966 131.218H799.591C800.736 131.218 801.654 132.146 801.654 133.281V140.679C801.654 141.824 800.725 142.742 799.591 142.742H796.966C795.821 142.742 794.903 141.813 794.903 140.679Z" stroke="#02435F" stroke-width="0.351" stroke-miterlimit="10"/>
<path d="M793.337 143.423L792.354 136.089C792.203 134.955 793.002 133.918 794.126 133.766L796.729 133.421C797.863 133.27 798.9 134.069 799.051 135.192L800.034 142.537C800.185 143.671 799.386 144.708 798.262 144.859L795.659 145.205C794.536 145.345 793.488 144.557 793.337 143.423Z" fill="#8FBAB8"/>
<path d="M793.337 143.423L792.354 136.089C792.203 134.955 793.002 133.918 794.126 133.766L796.729 133.421C797.863 133.27 798.9 134.069 799.051 135.192L800.034 142.537C800.185 143.671 799.386 144.708 798.262 144.859L795.659 145.205C794.536 145.345 793.488 144.557 793.337 143.423Z" stroke="#02435F" stroke-width="0.351" stroke-miterlimit="10"/>
<path d="M169.895 78.7573H135.084V123.225H169.895V78.7573Z" stroke="#02435F" stroke-width="0.75" stroke-miterlimit="10"/>
<path d="M191.249 78.7573H169.906V123.225H191.249V78.7573Z" stroke="#02435F" stroke-width="0.587" stroke-miterlimit="10"/>
<path d="M189.208 79.092V123.56" stroke="#02435F" stroke-width="0.587" stroke-miterlimit="10"/>
<path d="M187.048 79.092V123.56" stroke="#02435F" stroke-width="0.587" stroke-miterlimit="10"/>
<path d="M184.888 79.092V123.56" stroke="#02435F" stroke-width="0.587" stroke-miterlimit="10"/>
<path d="M182.728 79.092V123.56" stroke="#02435F" stroke-width="0.587" stroke-miterlimit="10"/>
<path d="M180.567 79.092V123.56" stroke="#02435F" stroke-width="0.587" stroke-miterlimit="10"/>
<path d="M178.407 79.092V123.56" stroke="#02435F" stroke-width="0.587" stroke-miterlimit="10"/>
<path d="M176.247 79.092V123.56" stroke="#02435F" stroke-width="0.587" stroke-miterlimit="10"/>
<path d="M174.087 79.092V123.56" stroke="#02435F" stroke-width="0.587" stroke-miterlimit="10"/>
<path d="M171.927 79.092V123.56" stroke="#02435F" stroke-width="0.587" stroke-miterlimit="10"/>
<path d="M191.249 80.5286H169.906V82.2567H191.249V80.5286Z" fill="white"/>
<path d="M191.249 80.5286H169.906V82.2567H191.249V80.5286Z" stroke="#02435F" stroke-width="0.587" stroke-miterlimit="10"/>
<path d="M191.249 119.39H169.906V121.119H191.249V119.39Z" fill="white"/>
<path d="M191.249 119.39H169.906V121.119H191.249V119.39Z" stroke="#02435F" stroke-width="0.587" stroke-miterlimit="10"/>
<path d="M260.548 90.6274H226.007V111.689H260.548V90.6274Z" stroke="#02435F" stroke-width="0.281" stroke-miterlimit="10" stroke-dasharray="1.4 1.4"/>
<path d="M260.548 101.158H226.007" stroke="#02435F" stroke-width="0.281" stroke-miterlimit="10" stroke-dasharray="1.4 1.4"/>
<path d="M100.565 96.4168C100.565 97.2809 99.8627 97.9721 99.0094 97.9721C98.1562 97.9721 97.4541 97.2809 97.4541 96.4168C97.4541 95.5635 98.1454 94.8615 99.0094 94.8615C99.8735 94.8615 100.565 95.5527 100.565 96.4168Z" stroke="#02435F" stroke-miterlimit="10"/>
<path d="M100.565 106.797C100.565 107.661 99.8627 108.352 99.0094 108.352C98.1562 108.352 97.4541 107.661 97.4541 106.797C97.4541 105.943 98.1454 105.241 99.0094 105.241C99.8735 105.241 100.565 105.943 100.565 106.797Z" stroke="#02435F" stroke-miterlimit="10"/>
<path d="M111.106 95.704H99.6676C99.3112 95.704 99.0195 95.4123 99.0195 95.0559V94.8075C99.0195 94.4511 99.3112 94.1594 99.6676 94.1594H111.106C111.462 94.1594 111.754 94.4511 111.754 94.8075V95.0559C111.754 95.4123 111.462 95.704 111.106 95.704Z" fill="#02435F"/>
<path d="M111.106 109.13H99.6676C99.3112 109.13 99.0195 108.838 99.0195 108.481V108.233C99.0195 107.877 99.3112 107.585 99.6676 107.585H111.106C111.462 107.585 111.754 107.877 111.754 108.233V108.481C111.754 108.838 111.462 109.13 111.106 109.13Z" fill="#02435F"/>
<path d="M121.119 92.7769H95.3691V110.231H121.119V92.7769Z" stroke="#02435F" stroke-width="0.765" stroke-miterlimit="10"/>
<path d="M119.639 97.9722H109.324V104.896H119.639V97.9722Z" fill="white"/>
<path d="M119.639 97.9722H109.324V104.896H119.639V97.9722Z" stroke="#02435F" stroke-miterlimit="10"/>
<path d="M121.119 95.704H107.488V97.9614H121.119V95.704Z" fill="white"/>
<path d="M121.119 95.704H107.488V97.9614H121.119V95.704Z" stroke="#02435F" stroke-miterlimit="10"/>
<path d="M121.119 104.896H107.488V107.153H121.119V104.896Z" fill="white"/>
<path d="M121.119 104.896H107.488V107.153H121.119V104.896Z" stroke="#02435F" stroke-miterlimit="10"/>
<path d="M117.706 95.704H110.188C109.119 95.704 108.244 94.8399 108.244 93.7598V93.4574C108.244 92.3881 109.108 91.5132 110.188 91.5132H117.706C118.775 91.5132 119.639 92.3773 119.639 93.4574V93.7598C119.639 94.8399 118.775 95.704 117.706 95.704Z" fill="#02435F"/>
<path d="M117.706 111.214H110.188C109.119 111.214 108.244 110.35 108.244 109.281V108.978C108.244 107.909 109.108 107.045 110.188 107.045H117.706C118.775 107.045 119.639 107.909 119.639 108.978V109.281C119.639 110.35 118.775 111.214 117.706 111.214Z" fill="#02435F"/>
<path d="M95.3691 134.674V67.6431" stroke="#02435F" stroke-width="0.475" stroke-miterlimit="10"/>
<path d="M95.3691 67.6431V82.732L133.345 63.6683C135.03 62.8258 135.603 60.7089 134.587 59.1211L129.587 51.3768L95.3691 67.6431Z" fill="#02435F"/>
<path d="M96.2549 67.0814V81.3711L132.784 63.0311C134.058 62.3938 134.501 60.7845 133.723 59.5748L128.636 51.6901L96.2549 67.0814Z" fill="white"/>
<path d="M121.324 55.168L127.049 66.6062" stroke="#02435F" stroke-width="0.475" stroke-miterlimit="10"/>
<path d="M109.119 60.5901L114.39 72.4711" stroke="#02435F" stroke-width="0.475" stroke-miterlimit="10"/>
<path d="M95.3691 134.091V119.002L133.345 138.065C135.03 138.908 135.603 141.025 134.587 142.612L129.587 150.357L95.3691 134.091Z" fill="#02435F"/>
<path d="M96.2549 134.652V120.363L132.784 138.703C134.058 139.351 134.501 140.949 133.723 142.159L128.636 150.044L96.2549 134.652Z" fill="white"/>
<path d="M121.324 146.566L127.049 135.127" stroke="#02435F" stroke-width="0.475" stroke-miterlimit="10"/>
<path d="M109.119 141.143L114.39 129.262" stroke="#02435F" stroke-width="0.475" stroke-miterlimit="10"/>
<path d="M495.285 91.3296H477.593V103.815H495.285V91.3296Z" fill="#8FBAB8"/>
<path d="M495.285 91.3296H477.593V103.815H495.285V91.3296Z" stroke="#02435F" stroke-width="0.347" stroke-miterlimit="10"/>
<path d="M479.559 91.3296H477.593V103.815H479.559V91.3296Z" fill="#8FBAB8"/>
<path d="M479.559 91.3296H477.593V103.815H479.559V91.3296Z" stroke="#02435F" stroke-width="0.347" stroke-miterlimit="10"/>
<path d="M538.262 56.8422H536.016V66.9194H538.262V56.8422Z" stroke="#0D3F57" stroke-width="0.702" stroke-miterlimit="10"/>
<path d="M532.084 59.6611V60.7628H528.984L527.407 59.6611H525.031C523.81 59.6611 522.816 60.6548 522.816 61.8753C522.816 63.0958 523.81 64.0895 525.031 64.0895H527.407L528.984 63.2579H532.084V64.0895H536.026C537.246 64.0895 538.24 63.0958 538.24 61.8753C538.24 60.6548 537.246 59.6611 536.026 59.6611H532.084Z" fill="white"/>
<path d="M532.084 59.6611V60.7628H528.984L527.407 59.6611H525.031C523.81 59.6611 522.816 60.6548 522.816 61.8753C522.816 63.0958 523.81 64.0895 525.031 64.0895H527.407L528.984 63.2579H532.084V64.0895H536.026C537.246 64.0895 538.24 63.0958 538.24 61.8753C538.24 60.6548 537.246 59.6611 536.026 59.6611H532.084Z" stroke="#0D3F57" stroke-width="0.702" stroke-miterlimit="10"/>
<path d="M535.173 61.8862C535.173 62.6207 534.006 63.2255 532.57 63.2255C531.133 63.2255 529.967 62.6315 529.967 61.8862C529.967 61.1517 531.133 60.5469 532.57 60.5469C534.006 60.5469 535.173 61.1409 535.173 61.8862Z" fill="#8FBAB8"/>
<path d="M535.173 61.8862C535.173 62.6207 534.006 63.2255 532.57 63.2255C531.133 63.2255 529.967 62.6315 529.967 61.8862C529.967 61.1517 531.133 60.5469 532.57 60.5469C534.006 60.5469 535.173 61.1409 535.173 61.8862Z" stroke="#0B3F57" stroke-width="0.347" stroke-miterlimit="10"/>
<path d="M530.788 58.743H528.844V59.8339H530.788V58.743Z" fill="#8FBAB8"/>
<path d="M530.788 58.743H528.844V59.8339H530.788V58.743Z" stroke="#0B3F57" stroke-width="0.256" stroke-miterlimit="10"/>
<path d="M530.788 64.1003H528.844V65.1912H530.788V64.1003Z" fill="#8FBAB8"/>
<path d="M530.788 64.1003H528.844V65.1912H530.788V64.1003Z" stroke="#0B3F57" stroke-width="0.256" stroke-miterlimit="10"/>
<path d="M521.726 57.1013V58.1922H522.438C523.508 58.1922 524.383 59.0671 524.383 60.1364V63.6359C524.383 64.7052 523.508 65.5801 522.438 65.5801H521.726V66.671H522.374C523.983 66.671 525.29 65.364 525.29 63.7547V60.0176C525.29 58.4082 523.983 57.1013 522.374 57.1013H521.726Z" fill="#02435F"/>
<path d="M530.075 59.834H529.729V60.7629H530.075V59.834Z" fill="#0D3F57"/>
<path d="M530.075 63.3119H529.729V64.2408H530.075V63.3119Z" fill="#0D3F57"/>
<path d="M751.084 87.7869H721.273V110.912H751.084V87.7869Z" fill="white"/>
<path d="M751.084 87.7869H721.273V110.912H751.084V87.7869Z" stroke="#02435F" stroke-width="0.325" stroke-miterlimit="10"/>
<path d="M751.084 110.912L721.651 99.1819L751.084 87.7869" stroke="#02435F" stroke-width="0.26" stroke-miterlimit="10" stroke-dasharray="1.3 1.3"/>
</svg>
