<svg width="943" height="231" viewBox="0 0 943 231" fill="none" xmlns="http://www.w3.org/2000/svg">
<path d="M764.457 201.016C763.033 201.016 761.608 201.005 760.184 200.984L527.273 200.164C520.787 200.142 514.215 199.829 507.729 199.235L389.04 188.368C346.099 185.454 304.464 174.846 265.311 156.856L211.848 132.283L155.169 107.116H133.726V94.4031H155.191L212.15 69.7436L265.473 45.0302C304.518 26.9322 346.067 16.1943 388.997 13.1186L512.251 2.76922C515.737 2.521 519.255 2.36992 522.719 2.32675L761.684 0.761926C769.141 0.664799 776.706 0.880639 784.163 1.40944L912.533 8.94217C929.217 10.1185 942.275 24.1264 942.275 40.8322V159.867C942.275 176.443 929.336 190.44 912.813 191.735L785.62 200.207C778.616 200.746 771.515 201.016 764.457 201.016ZM134.481 106.361L155.406 106.393L212.161 131.592L265.624 156.165C304.691 174.123 346.239 184.699 389.105 187.613L507.794 198.48C514.258 199.074 520.809 199.387 527.273 199.408L760.184 200.228C768.634 200.358 777.159 200.099 785.555 199.441L912.749 190.969C928.872 189.706 941.509 176.044 941.509 159.856V40.8322C941.509 24.5257 928.753 10.8523 912.468 9.69761L784.099 2.15408C776.663 1.62528 769.119 1.40944 761.673 1.50656L522.708 3.07139C519.255 3.11456 515.747 3.26564 512.283 3.51386L389.029 13.8633C346.185 16.939 304.723 27.6553 265.764 45.7101L212.431 70.4343L155.32 95.1585H134.481V106.361ZM764.436 196.473C763.033 196.473 761.63 196.462 760.227 196.44L527.295 195.62C520.917 195.599 514.474 195.296 508.15 194.714L389.407 183.846C346.984 180.965 305.867 170.497 267.21 152.733L213.726 128.149L156.14 102.583H138.269V98.9573H156.13L214.006 73.8985L267.383 49.1527C305.921 31.2814 346.962 20.6837 389.353 17.6404L512.607 7.29101C515.996 7.05359 519.406 6.90251 522.773 6.85934L761.738 5.29452C769.076 5.19739 776.533 5.41323 783.872 5.93124L912.241 13.4748C926.541 14.4784 937.732 26.5006 937.732 40.8322V159.867C937.732 174.08 926.638 186.091 912.479 187.203L785.286 195.674C778.39 196.203 771.396 196.473 764.436 196.473ZM139.024 101.817L156.367 101.849L214.028 127.448L267.523 152.032C306.094 169.752 347.124 180.199 389.472 183.08L508.215 193.947C514.528 194.519 520.938 194.832 527.295 194.854L760.238 195.685C768.558 195.814 776.965 195.555 785.232 194.908L912.425 186.436C926.184 185.357 936.976 173.68 936.976 159.856V40.8322C936.976 26.8999 926.087 15.2123 912.187 14.2302L783.818 6.69746C776.49 6.17945 769.065 5.96361 761.738 6.06074L522.773 7.62556C519.438 7.66873 516.028 7.80903 512.661 8.05724L389.407 18.4067C347.103 21.4392 306.158 32.0152 267.696 49.8434L214.319 74.5892L156.291 99.7127H139.024V101.817Z" fill="#8FBAB8"/>
<path d="M214.179 127.448L223.568 131.765V69.8732L214.179 73.877V99.6911H172.868L174.325 91.1224L161.601 96.2054L153.907 98.2558H134.104V103.145H153.907L162.13 105.076L173.926 109.695L172.868 101.332H214.179V127.448Z" fill="#8FBAB8"/>
<path d="M878.721 155.053C878.721 175.493 862.652 192.318 842.245 193.257L675.23 200.984L475.731 200.358C461.615 200.282 456.586 184.796 456.586 174.986L457.072 22.8421C457.072 13.0431 461.615 1.51735 479.141 0.772705H679.417L841.899 6.7622C862.458 7.51763 878.732 24.4069 878.732 44.987V155.053H878.721Z" fill="white"/>
<path d="M757.928 51.4622L750.773 50.7283C749.748 50.6204 748.992 49.7031 749.1 48.6779L749.855 41.3502C749.953 40.4221 750.784 39.7422 751.712 39.8393L759.223 40.6055C760.151 40.7027 760.831 41.5336 760.734 42.4617L759.978 49.7894C759.881 50.8255 758.964 51.5701 757.928 51.4622Z" stroke="#02435F" stroke-width="0.351" stroke-miterlimit="10"/>
<path d="M756.482 49.7355L752.251 49.3039C751.226 49.1959 750.471 48.2786 750.579 47.2534L751.345 39.7962L759.309 40.6164L758.543 48.0736C758.435 49.0988 757.518 49.8434 756.482 49.7355Z" stroke="#02435F" stroke-width="0.351" stroke-miterlimit="10"/>
<path d="M757.162 48.4405L751.853 47.9009C751.119 47.8254 750.59 47.1671 750.665 46.4332L751.345 39.7962L759.31 40.6164L758.63 47.2534C758.543 47.9765 757.896 48.5161 757.162 48.4405Z" stroke="#02435F" stroke-width="0.351" stroke-miterlimit="10"/>
<path d="M773.403 51.4622L766.248 50.7283C765.223 50.6204 764.468 49.7031 764.576 48.6779L765.331 41.3502C765.428 40.4221 766.259 39.7422 767.187 39.8393L774.698 40.6055C775.627 40.7027 776.306 41.5336 776.209 42.4617L775.454 49.7894C775.346 50.8255 774.429 51.5701 773.403 51.4622Z" stroke="#02435F" stroke-width="0.351" stroke-miterlimit="10"/>
<path d="M771.957 49.7355L767.727 49.3039C766.702 49.1959 765.946 48.2786 766.054 47.2534L766.81 39.7962L774.774 40.6164L774.008 48.0736C773.9 49.0988 772.983 49.8434 771.957 49.7355Z" stroke="#02435F" stroke-width="0.351" stroke-miterlimit="10"/>
<path d="M772.627 48.4405L767.317 47.9009C766.583 47.8254 766.055 47.1671 766.13 46.4332L766.81 39.7962L774.775 40.6164L774.095 47.2534C774.019 47.9765 773.361 48.5161 772.627 48.4405Z" stroke="#02435F" stroke-width="0.351" stroke-miterlimit="10"/>
<path d="M457.072 178.914V22.8421C457.072 10.6689 466.968 0.772705 479.142 0.772705H667.903L843.389 7.38813C863.203 8.13277 878.722 24.2558 878.722 44.0805V156.5C878.722 176.195 863.311 192.307 843.627 193.181L667.989 200.984H479.131C466.968 200.984 457.072 191.088 457.072 178.914ZM874.179 44.0805C874.179 26.7056 860.581 12.579 843.217 11.9315L667.805 5.31609H479.131C469.472 5.31609 461.605 13.1726 461.605 22.8421V178.914C461.605 188.573 469.461 196.44 479.131 196.44H667.892L843.433 188.649C860.678 187.882 874.179 173.767 874.179 156.5V44.0805Z" stroke="#0D3F57" stroke-width="0.702" stroke-miterlimit="10"/>
<path d="M563.793 173.972L526.464 173.831V26.5222L731.272 26.5329L791.674 33.4829L790.574 79.4995L790.39 81.0428" stroke="#0D3F57" stroke-width="0.702" stroke-miterlimit="10"/>
<path d="M791.901 120.465V167.043L731.1 174.986H579.657" stroke="#0D3F57" stroke-width="0.702" stroke-miterlimit="10"/>
<path d="M812.535 80.7729H790.573V82.2838H812.535V80.7729Z" stroke="#02435F" stroke-width="0.351" stroke-miterlimit="10"/>
<path d="M812.535 118.955H790.573V120.465H812.535V118.955Z" stroke="#02435F" stroke-width="0.351" stroke-miterlimit="10"/>
<path d="M639.8 147.154H638.505V162.629H639.8V147.154Z" stroke="#02435F" stroke-width="0.351" stroke-miterlimit="10"/>
<path d="M637.804 147.154H636.509V162.629H637.804V147.154Z" stroke="#02435F" stroke-width="0.351" stroke-miterlimit="10"/>
<path d="M609.346 72.4417H608.051V87.1833H609.346V72.4417Z" stroke="#02435F" stroke-width="0.351" stroke-miterlimit="10"/>
<path d="M792.775 82.2946H790.573V118.955H792.775V82.2946Z" stroke="#02435F" stroke-width="0.351" stroke-miterlimit="10"/>
<path d="M812.546 82.3917C812.546 82.6507 812.546 82.8989 812.535 83.1472" stroke="#02435F" stroke-width="0.281" stroke-miterlimit="10"/>
<path d="M812.394 84.7444C811.304 93.1944 804.43 99.8422 795.872 100.565" stroke="#02435F" stroke-width="0.281" stroke-miterlimit="10" stroke-dasharray="1.48 1.48"/>
<path d="M795.074 100.608C794.826 100.619 794.567 100.619 794.318 100.619" stroke="#02435F" stroke-width="0.281" stroke-miterlimit="10"/>
<path d="M812.546 119.106C812.546 118.858 812.546 118.599 812.535 118.35" stroke="#02435F" stroke-width="0.281" stroke-miterlimit="10"/>
<path d="M812.394 116.753C811.304 108.303 804.43 101.655 795.872 100.932" stroke="#02435F" stroke-width="0.281" stroke-miterlimit="10" stroke-dasharray="1.48 1.48"/>
<path d="M795.074 100.889C794.826 100.878 794.567 100.878 794.318 100.878" stroke="#02435F" stroke-width="0.281" stroke-miterlimit="10"/>
<path d="M637.815 162.629C637.556 162.629 637.308 162.619 637.06 162.608" stroke="#02435F" stroke-width="0.281" stroke-miterlimit="10"/>
<path d="M635.581 162.457C628.814 161.421 623.559 155.755 622.89 148.848" stroke="#02435F" stroke-width="0.281" stroke-miterlimit="10" stroke-dasharray="1.37 1.37"/>
<path d="M622.835 148.114C622.824 147.866 622.813 147.607 622.813 147.359" stroke="#02435F" stroke-width="0.281" stroke-miterlimit="10"/>
<path d="M653.581 147.348C653.581 147.607 653.57 147.855 653.56 148.104" stroke="#02435F" stroke-width="0.281" stroke-miterlimit="10"/>
<path d="M653.419 149.593C652.415 156.402 646.89 161.852 640.005 162.554" stroke="#02435F" stroke-width="0.281" stroke-miterlimit="10" stroke-dasharray="1.38 1.38"/>
<path d="M639.26 162.608C639.012 162.619 638.753 162.629 638.505 162.629" stroke="#02435F" stroke-width="0.281" stroke-miterlimit="10"/>
<path d="M609.108 72.5387C608.849 72.5495 608.601 72.5603 608.353 72.5819" stroke="#02435F" stroke-width="0.281" stroke-miterlimit="10"/>
<path d="M606.82 72.7977C600.841 73.9956 596.309 79.0462 595.823 85.176" stroke="#02435F" stroke-width="0.281" stroke-miterlimit="10" stroke-dasharray="1.43 1.43"/>
<path d="M595.791 85.9531C595.78 86.2013 595.791 86.4603 595.791 86.7085" stroke="#02435F" stroke-width="0.281" stroke-miterlimit="10"/>
<path d="M577.175 156.726H581.945V125.495L577.175 156.726Z" fill="#02435F"/>
<path d="M592.661 156.726H597.42V125.495L592.661 156.726Z" fill="#02435F"/>
<path d="M597.421 128.149H581.945" stroke="#02435F" stroke-width="0.351" stroke-miterlimit="10"/>
<path d="M597.421 125.495H581.945" stroke="#02435F" stroke-width="0.351" stroke-miterlimit="10"/>
<path d="M597.421 132.25H581.945" stroke="#02435F" stroke-width="0.351" stroke-miterlimit="10"/>
<path d="M597.421 136.081H581.945" stroke="#02435F" stroke-width="0.351" stroke-miterlimit="10"/>
<path d="M597.421 140.182H581.945" stroke="#02435F" stroke-width="0.351" stroke-miterlimit="10"/>
<path d="M597.421 144.423H581.945" stroke="#02435F" stroke-width="0.351" stroke-miterlimit="10"/>
<path d="M597.421 148.654H581.945" stroke="#02435F" stroke-width="0.351" stroke-miterlimit="10"/>
<path d="M597.421 152.496H581.945" stroke="#02435F" stroke-width="0.351" stroke-miterlimit="10"/>
<path d="M597.42 156.726H577.175" stroke="#02435F" stroke-width="0.351" stroke-miterlimit="10"/>
<path d="M701.519 53.4048V47.275H661.319L701.519 53.4048Z" fill="#02435F"/>
<path d="M701.519 33.4829V27.3423H661.319L701.519 33.4829Z" fill="#02435F"/>
<path d="M664.719 27.3423V47.275" stroke="#02435F" stroke-width="0.351" stroke-miterlimit="10"/>
<path d="M661.319 27.3423V47.275" stroke="#02435F" stroke-width="0.351" stroke-miterlimit="10"/>
<path d="M670.007 27.3423V47.275" stroke="#02435F" stroke-width="0.351" stroke-miterlimit="10"/>
<path d="M674.938 27.3423V47.275" stroke="#02435F" stroke-width="0.351" stroke-miterlimit="10"/>
<path d="M680.227 27.3423V47.275" stroke="#02435F" stroke-width="0.351" stroke-miterlimit="10"/>
<path d="M685.677 27.3423V47.275" stroke="#02435F" stroke-width="0.351" stroke-miterlimit="10"/>
<path d="M691.126 27.3423V47.275" stroke="#02435F" stroke-width="0.351" stroke-miterlimit="10"/>
<path d="M696.069 27.3423V47.275" stroke="#02435F" stroke-width="0.351" stroke-miterlimit="10"/>
<path d="M701.519 27.3423V53.4047" stroke="#02435F" stroke-width="0.351" stroke-miterlimit="10"/>
<path d="M653.98 147.726H668.377" stroke="#02435F" stroke-width="0.351" stroke-miterlimit="10"/>
<path d="M638.203 147.154V174.986" stroke="#02435F" stroke-width="0.351" stroke-miterlimit="10"/>
<path d="M643.61 70.7473H628.264V72.8949H643.61V70.7473Z" fill="#02435F"/>
<path d="M599.396 175.267V107.58H628.21V107.612H630.357V107.58V105.432V26.5222" stroke="#02435F" stroke-width="0.702" stroke-miterlimit="10"/>
<path d="M609.389 64.7578V85.0358H609.303V87.1834H630.358" stroke="#02435F" stroke-width="0.702" stroke-miterlimit="10"/>
<path d="M579.269 27.3423V85.0358V86.9028V87.1833H595.338" stroke="#02435F" stroke-width="0.702" stroke-miterlimit="10"/>
<path d="M609.303 51.7104V26.5222" stroke="#02435F" stroke-width="0.702" stroke-miterlimit="10"/>
<path d="M581.524 69.4739V26.6517H600.054V67.5313C600.054 68.6105 599.18 69.4847 598.101 69.4847H581.524V69.4739Z" fill="white"/>
<path d="M581.524 69.4739V26.6517H600.054V67.5313C600.054 68.6105 599.18 69.4847 598.101 69.4847H581.524V69.4739Z" stroke="#02435F" stroke-width="0.351" stroke-miterlimit="10"/>
<path d="M600.054 48.4081H581.524V53.2321H600.054V48.4081Z" fill="white"/>
<path d="M600.054 48.4081H581.524V53.2321H600.054V48.4081Z" stroke="#02435F" stroke-width="0.351" stroke-miterlimit="10"/>
<path d="M653.873 147.726V116.883C653.873 115.782 654.769 114.886 655.87 114.886H668.377V147.726H653.873Z" stroke="#02435F" stroke-width="0.351" stroke-miterlimit="10"/>
<path d="M655.438 127.523V119.289C655.438 118.102 656.398 117.142 657.585 117.142H662.334C663.521 117.142 664.481 118.102 664.481 119.289V127.523C664.481 128.71 663.521 129.671 662.334 129.671H657.585C656.398 129.671 655.438 128.71 655.438 127.523Z" stroke="#02435F" stroke-width="0.351" stroke-miterlimit="10"/>
<path d="M655.438 142.233V133.999C655.438 132.811 656.398 131.851 657.585 131.851H662.334C663.521 131.851 664.481 132.811 664.481 133.999V142.233C664.481 143.42 663.521 144.38 662.334 144.38H657.585C656.398 144.38 655.438 143.42 655.438 142.233Z" stroke="#02435F" stroke-width="0.351" stroke-miterlimit="10"/>
<path d="M666.241 122.635H661.708V124.178H666.241V122.635Z" stroke="#02435F" stroke-width="0.351" stroke-miterlimit="10"/>
<path d="M666.241 137.344H661.708V138.887H666.241V137.344Z" stroke="#02435F" stroke-width="0.351" stroke-miterlimit="10"/>
<path d="M659.344 124.415C658.847 124.415 658.448 124.016 658.448 123.53C658.448 123.034 658.847 122.635 659.344 122.635C659.84 122.635 660.229 123.034 660.229 123.53C660.24 124.016 659.84 124.415 659.344 124.415Z" stroke="#02435F" stroke-width="0.351" stroke-miterlimit="10"/>
<path d="M659.344 139.006C658.847 139.006 658.448 138.607 658.448 138.121C658.448 137.625 658.847 137.225 659.344 137.225C659.84 137.225 660.229 137.625 660.229 138.121C660.24 138.607 659.84 139.006 659.344 139.006Z" stroke="#02435F" stroke-width="0.351" stroke-miterlimit="10"/>
<path d="M668.485 71.8157H659.549V88.9748H668.485V71.8157Z" stroke="#02435F" stroke-width="0.351" stroke-miterlimit="10"/>
<path d="M638.796 31.5728H630.454V71.8157H638.796V31.5728Z" stroke="#02435F" stroke-width="0.351" stroke-miterlimit="10"/>
<path d="M668.377 105.562H659.549V114.886H668.377V105.562Z" stroke="#02435F" stroke-width="0.351" stroke-miterlimit="10"/>
<path d="M668.377 104.31H659.549V105.562H668.377V104.31Z" stroke="#02435F" stroke-width="0.351" stroke-miterlimit="10"/>
<path d="M661.027 88.9748H659.549V104.31H661.027V88.9748Z" stroke="#02435F" stroke-width="0.351" stroke-miterlimit="10"/>
<path d="M609.723 124.415C609.226 124.415 608.827 124.016 608.827 123.53C608.827 123.034 609.226 122.635 609.723 122.635C610.219 122.635 610.608 123.034 610.608 123.53C610.608 124.016 610.208 124.415 609.723 124.415Z" stroke="#02435F" stroke-width="0.351" stroke-miterlimit="10"/>
<path d="M621.227 107.58H599.46V147.639H621.227V107.58Z" stroke="#02435F" stroke-width="0.351" stroke-miterlimit="10"/>
<path d="M602.438 135.348V117.746C602.438 113.591 605.806 110.224 609.96 110.224C614.115 110.224 617.482 113.591 617.482 117.746V135.348C617.482 139.502 614.115 142.88 609.96 142.88C605.806 142.88 602.438 139.502 602.438 135.348Z" stroke="#02435F" stroke-width="0.351" stroke-miterlimit="10"/>
<path d="M605.956 125.505H601.424V127.049H605.956V125.505Z" stroke="#02435F" stroke-width="0.351" stroke-miterlimit="10"/>
<path d="M600.107 164V158.582L601.036 159.575V163.083L600.107 164Z" fill="white"/>
<path d="M600.107 164V158.582L601.036 159.575V163.083L600.107 164Z" stroke="#02435F" stroke-width="0.702" stroke-miterlimit="10"/>
<path d="M603.453 162.36C602.892 162.36 600.097 161.906 600.097 161.345C600.097 160.784 602.892 160.331 603.453 160.331C604.014 160.331 604.467 160.784 604.467 161.345C604.467 161.906 604.014 162.36 603.453 162.36Z" fill="white"/>
<path d="M603.453 162.36C602.892 162.36 600.097 161.906 600.097 161.345C600.097 160.784 602.892 160.331 603.453 160.331C604.014 160.331 604.467 160.784 604.467 161.345C604.467 161.906 604.014 162.36 603.453 162.36Z" stroke="#02435F" stroke-width="0.702" stroke-miterlimit="10"/>
<path d="M617.115 27.3747H622.544L621.551 28.3028H618.043L617.115 27.3747Z" fill="white"/>
<path d="M617.115 27.3747H622.544L621.551 28.3028H618.043L617.115 27.3747Z" stroke="#02435F" stroke-width="0.702" stroke-miterlimit="10"/>
<path d="M618.756 30.7202C618.756 30.159 619.209 27.364 619.77 27.364C620.331 27.364 620.785 30.159 620.785 30.7202C620.785 31.2814 620.331 31.7347 619.77 31.7347C619.209 31.7347 618.756 31.2814 618.756 30.7202Z" fill="white"/>
<path d="M618.756 30.7202C618.756 30.159 619.209 27.364 619.77 27.364C620.331 27.364 620.785 30.159 620.785 30.7202C620.785 31.2814 620.331 31.7347 619.77 31.7347C619.209 31.7347 618.756 31.2814 618.756 30.7202Z" stroke="#02435F" stroke-width="0.702" stroke-miterlimit="10"/>
<path d="M663.024 163.924V158.528C663.024 158.108 663.37 157.762 663.791 157.762H665.571C665.992 157.762 666.338 158.108 666.338 158.528V163.924C666.338 164.345 665.992 164.691 665.571 164.691H663.791C663.359 164.691 663.024 164.345 663.024 163.924Z" fill="white"/>
<path d="M663.024 163.924V158.528C663.024 158.108 663.37 157.762 663.791 157.762H665.571C665.992 157.762 666.338 158.108 666.338 158.528V163.924C666.338 164.345 665.992 164.691 665.571 164.691H663.791C663.359 164.691 663.024 164.345 663.024 163.924Z" stroke="#02435F" stroke-width="0.351" stroke-miterlimit="10"/>
<path d="M658.502 164.173C656.009 164.173 653.98 162.856 653.98 161.226C653.98 159.597 656.009 158.28 658.502 158.28C660.995 158.28 663.024 159.597 663.024 161.226C663.024 162.856 660.995 164.173 658.502 164.173Z" fill="white"/>
<path d="M658.502 164.173C656.009 164.173 653.98 162.856 653.98 161.226C653.98 159.597 656.009 158.28 658.502 158.28C660.995 158.28 663.024 159.597 663.024 161.226C663.024 162.856 660.995 164.173 658.502 164.173Z" stroke="#02435F" stroke-width="0.351" stroke-miterlimit="10"/>
<path d="M659.938 158.431V164.097" stroke="#02435F" stroke-width="0.351" stroke-miterlimit="10"/>
<path d="M617.073 81.4852H622.469C622.89 81.4852 623.235 81.8306 623.235 82.2515V84.0321C623.235 84.453 622.89 84.7984 622.469 84.7984H617.073C616.652 84.7984 616.307 84.453 616.307 84.0321V82.2515C616.307 81.8198 616.652 81.4852 617.073 81.4852Z" fill="white"/>
<path d="M617.073 81.4852H622.469C622.89 81.4852 623.235 81.8306 623.235 82.2515V84.0321C623.235 84.453 622.89 84.7984 622.469 84.7984H617.073C616.652 84.7984 616.307 84.453 616.307 84.0321V82.2515C616.307 81.8198 616.652 81.4852 617.073 81.4852Z" stroke="#02435F" stroke-width="0.351" stroke-miterlimit="10"/>
<path d="M616.824 76.9634C616.824 74.4705 618.141 72.4417 619.77 72.4417C621.4 72.4417 622.717 74.4705 622.717 76.9634C622.717 79.4564 621.4 81.4852 619.77 81.4852C618.141 81.4852 616.824 79.4564 616.824 76.9634Z" fill="white"/>
<path d="M616.824 76.9634C616.824 74.4705 618.141 72.4417 619.77 72.4417C621.4 72.4417 622.717 74.4705 622.717 76.9634C622.717 79.4564 621.4 81.4852 619.77 81.4852C618.141 81.4852 616.824 79.4564 616.824 76.9634Z" stroke="#02435F" stroke-width="0.351" stroke-miterlimit="10"/>
<path d="M622.565 78.3879H616.899" stroke="#02435F" stroke-width="0.351" stroke-miterlimit="10"/>
<path d="M713.703 150.769L683.097 152.636C680.896 152.766 679.039 151.017 679.039 148.816V134.376C679.039 132.261 680.755 130.545 682.87 130.545H713.714V85.9315H682.87C680.755 85.9315 679.039 84.2156 679.039 82.1003V71.8157H668.496V85.9315L668.377 150.769V152.884V174.986H713.703V150.769Z" fill="white"/>
<path d="M713.703 150.769L683.097 152.636C680.896 152.766 679.039 151.017 679.039 148.816V134.376C679.039 132.261 680.755 130.545 682.87 130.545H713.714V85.9315H682.87C680.755 85.9315 679.039 84.2156 679.039 82.1003V71.8157H668.496V85.9315L668.377 150.769V152.884V174.986H713.703V150.769Z" stroke="#02435F" stroke-width="0.702" stroke-miterlimit="10"/>
<path d="M670.719 172.472V157.719C670.719 155.83 672.197 154.276 674.086 154.19L708.026 152.55C710.044 152.453 711.739 154.061 711.739 156.079V171.738L670.719 172.472Z" fill="white"/>
<path d="M670.719 172.472V157.719C670.719 155.83 672.197 154.276 674.086 154.19L708.026 152.55C710.044 152.453 711.739 154.061 711.739 156.079V171.738L670.719 172.472Z" stroke="#02435F" stroke-width="0.351" stroke-miterlimit="10"/>
<path d="M700.86 152.884V171.943" stroke="#02435F" stroke-width="0.351" stroke-miterlimit="10"/>
<path d="M685.784 153.618V171.943" stroke="#02435F" stroke-width="0.351" stroke-miterlimit="10"/>
<path d="M653.581 147.726H640.868" stroke="#02435F" stroke-width="0.281" stroke-miterlimit="10" stroke-dasharray="1.4 1.4"/>
<path d="M634.62 147.726H621.907" stroke="#02435F" stroke-width="0.281" stroke-miterlimit="10" stroke-dasharray="1.4 1.4"/>
<path d="M579.657 173.659H578.146V191.39H579.657V173.659Z" stroke="#02435F" stroke-width="0.351" stroke-miterlimit="10"/>
<path d="M579.387 191.39C579.128 191.39 578.88 191.379 578.632 191.368" stroke="#02435F" stroke-width="0.281" stroke-miterlimit="10"/>
<path d="M577.164 191.228C570.376 190.224 565.067 184.699 564.387 177.814" stroke="#02435F" stroke-width="0.281" stroke-miterlimit="10" stroke-dasharray="1.37 1.37"/>
<path d="M564.332 177.069C564.321 176.821 564.311 176.562 564.311 176.313" stroke="#02435F" stroke-width="0.281" stroke-miterlimit="10"/>
<path d="M576.884 173.896H564.171" stroke="#02435F" stroke-width="0.281" stroke-miterlimit="10" stroke-dasharray="1.4 1.4"/>
<path d="M608.806 86.6437H596.082" stroke="#02435F" stroke-width="0.281" stroke-miterlimit="10" stroke-dasharray="1.4 1.4"/>
<path d="M609.368 52.1401L609.04 53.393L623.303 57.1212L623.63 55.8682L609.368 52.1401Z" stroke="#02435F" stroke-width="0.351" stroke-miterlimit="10"/>
<path d="M609.421 64.4233C609.669 64.4557 609.928 64.4772 610.176 64.4988" stroke="#02435F" stroke-width="0.281" stroke-miterlimit="10"/>
<path d="M611.828 64.5096C616.102 64.2937 619.965 62.0814 622.35 58.6927" stroke="#02435F" stroke-width="0.281" stroke-miterlimit="10" stroke-dasharray="1.54 1.54"/>
<path d="M622.813 58.0021C622.943 57.7862 623.072 57.5704 623.191 57.3438" stroke="#02435F" stroke-width="0.281" stroke-miterlimit="10"/>
<path d="M609.011 64.8441V52.1313" stroke="#02435F" stroke-width="0.281" stroke-miterlimit="10" stroke-dasharray="1.4 1.4"/>
<path d="M641.721 72.8949H630.454V86.115H641.721V72.8949Z" stroke="#02435F" stroke-width="0.351" stroke-miterlimit="10"/>
<path d="M641.721 86.1149H630.454V99.335H641.721V86.1149Z" stroke="#02435F" stroke-width="0.351" stroke-miterlimit="10"/>
<path d="M636.088 86.1149V99.335" stroke="#02435F" stroke-width="0.351" stroke-miterlimit="10"/>
<path d="M639.304 88.0575H632.851" stroke="#02435F" stroke-width="0.351" stroke-miterlimit="10"/>
<path d="M639.304 89.2446H632.851" stroke="#02435F" stroke-width="0.351" stroke-miterlimit="10"/>
<path d="M639.304 90.4317H632.851" stroke="#02435F" stroke-width="0.351" stroke-miterlimit="10"/>
<path d="M639.304 94.1441H632.851" stroke="#02435F" stroke-width="0.351" stroke-miterlimit="10"/>
<path d="M639.304 95.0182H632.851" stroke="#02435F" stroke-width="0.351" stroke-miterlimit="10"/>
<path d="M639.304 96.2593H632.851" stroke="#02435F" stroke-width="0.351" stroke-miterlimit="10"/>
<path d="M639.304 97.3601H632.851" stroke="#02435F" stroke-width="0.351" stroke-miterlimit="10"/>
<path d="M729.179 26.5222V38.717C729.179 40.066 730.193 41.1883 731.531 41.3178L790.38 47.275L790.574 33.4829L729.179 26.5222Z" fill="white"/>
<path d="M729.179 26.5222V38.717C729.179 40.066 730.193 41.1883 731.531 41.3178L790.38 47.275L790.574 33.4829L729.179 26.5222Z" stroke="#02435F" stroke-width="0.702" stroke-miterlimit="10"/>
<path d="M713.703 125.365V90.518H725.758C727.128 90.518 728.251 91.6296 728.251 93.0109V122.883C728.251 124.253 727.139 125.376 725.758 125.376H713.703V125.365Z" stroke="#02435F" stroke-width="0.351" stroke-miterlimit="10"/>
<path d="M713.617 94.4139V91.662H726.643C727.485 91.662 728.165 92.3419 728.165 93.1836V94.4139H713.617V94.4139Z" stroke="#02435F" stroke-width="0.351" stroke-miterlimit="10"/>
<path d="M736.183 125.084L745.798 115.469L754.216 123.887C754.874 124.545 754.874 125.624 754.216 126.282L746.996 133.502C746.338 134.16 745.259 134.16 744.6 133.502L736.183 125.084Z" stroke="#02435F" stroke-width="0.351" stroke-miterlimit="10"/>
<path d="M746.014 118.012L738.979 125.048L747.212 133.282L754.248 126.246L746.014 118.012Z" stroke="#02435F" stroke-width="0.351" stroke-miterlimit="10"/>
<path d="M747.216 119.206L740.181 126.242L747.216 133.278L754.252 126.242L747.216 119.206Z" stroke="#02435F" stroke-width="0.351" stroke-miterlimit="10"/>
<path d="M817.435 87.9387L827.05 78.3232L835.468 86.7408C836.126 87.3991 836.126 88.4783 835.468 89.1366L828.248 96.3564C827.59 97.0147 826.511 97.0147 825.852 96.3564L817.435 87.9387Z" stroke="#02435F" stroke-width="0.351" stroke-miterlimit="10"/>
<path d="M827.263 80.8654L820.228 87.9012L828.461 96.135L835.497 89.0992L827.263 80.8654Z" stroke="#02435F" stroke-width="0.351" stroke-miterlimit="10"/>
<path d="M828.464 82.0599L821.429 89.0956L828.464 96.1314L835.5 89.0957L828.464 82.0599Z" stroke="#02435F" stroke-width="0.351" stroke-miterlimit="10"/>
<path d="M851.623 77.8268L861.239 87.4424L852.821 95.86C852.163 96.5184 851.084 96.5184 850.425 95.86L843.206 88.6403C842.547 87.982 842.547 86.9028 843.206 86.2445L851.623 77.8268Z" stroke="#02435F" stroke-width="0.351" stroke-miterlimit="10"/>
<path d="M851.656 80.6295L843.422 88.8632L850.458 95.899L858.691 87.6652L851.656 80.6295Z" stroke="#02435F" stroke-width="0.351" stroke-miterlimit="10"/>
<path d="M850.462 81.831L843.426 88.8668L850.462 95.9025L857.497 88.8667L850.462 81.831Z" stroke="#02435F" stroke-width="0.351" stroke-miterlimit="10"/>
<path d="M861.239 111.551L851.623 121.167L843.206 112.749C842.547 112.091 842.547 111.012 843.206 110.354L850.425 103.134C851.084 102.475 852.163 102.475 852.821 103.134L861.239 111.551Z" stroke="#02435F" stroke-width="0.351" stroke-miterlimit="10"/>
<path d="M850.198 103.367L843.162 110.402L851.396 118.636L858.432 111.6L850.198 103.367Z" stroke="#02435F" stroke-width="0.351" stroke-miterlimit="10"/>
<path d="M850.202 103.363L843.166 110.398L850.202 117.434L857.237 110.398L850.202 103.363Z" stroke="#02435F" stroke-width="0.351" stroke-miterlimit="10"/>
<path d="M827.913 121.804L818.298 112.188L826.716 103.77C827.374 103.112 828.453 103.112 829.111 103.77L836.331 110.99C836.989 111.649 836.989 112.728 836.331 113.386L827.913 121.804Z" stroke="#02435F" stroke-width="0.351" stroke-miterlimit="10"/>
<path d="M829.064 103.742L820.83 111.976L827.866 119.011L836.1 110.778L829.064 103.742Z" stroke="#02435F" stroke-width="0.351" stroke-miterlimit="10"/>
<path d="M829.067 103.745L822.031 110.781L829.067 117.817L836.103 110.781L829.067 103.745Z" stroke="#02435F" stroke-width="0.351" stroke-miterlimit="10"/>
<path d="M551.425 151.967L551.415 159.154C551.415 160.19 550.573 161.021 549.537 161.021L542.166 161.011C541.227 161.011 540.472 160.244 540.472 159.316L540.482 151.773C540.482 150.834 541.249 150.078 542.177 150.078L549.548 150.089C550.584 150.089 551.425 150.931 551.425 151.967Z" stroke="#02435F" stroke-width="0.351" stroke-miterlimit="10"/>
<path d="M549.85 153.575L549.839 157.827C549.839 158.863 548.997 159.694 547.961 159.694L540.472 159.683L540.482 151.676L547.972 151.686C549.019 151.708 549.85 152.55 549.85 153.575Z" stroke="#02435F" stroke-width="0.351" stroke-miterlimit="10"/>
<path d="M548.49 153.035L548.479 158.367C548.479 159.1 547.875 159.705 547.141 159.694L540.472 159.683L540.482 151.686L547.152 151.697C547.897 151.708 548.49 152.302 548.49 153.035Z" stroke="#02435F" stroke-width="0.351" stroke-miterlimit="10"/>
<path d="M745.798 165.144L736.183 155.528L744.6 147.111C745.259 146.452 746.338 146.452 746.996 147.111L754.216 154.33C754.874 154.989 754.874 156.068 754.216 156.726L745.798 165.144Z" stroke="#02435F" stroke-width="0.351" stroke-miterlimit="10"/>
<path d="M746.958 147.076L738.725 155.31L745.76 162.346L753.994 154.112L746.958 147.076Z" stroke="#02435F" stroke-width="0.351" stroke-miterlimit="10"/>
<path d="M746.955 147.073L739.919 154.108L746.955 161.144L753.99 154.108L746.955 147.073Z" stroke="#02435F" stroke-width="0.351" stroke-miterlimit="10"/>
<path d="M759.159 148.719C754.529 148.719 750.773 144.963 750.773 140.344C750.773 135.714 754.529 131.959 759.159 131.959C763.788 131.959 767.533 135.714 767.533 140.344C767.544 144.963 763.788 148.719 759.159 148.719Z" fill="white"/>
<path d="M759.159 148.719C754.529 148.719 750.773 144.963 750.773 140.344C750.773 135.714 754.529 131.959 759.159 131.959C763.788 131.959 767.533 135.714 767.533 140.344C767.544 144.963 763.788 148.719 759.159 148.719Z" stroke="#02435F" stroke-width="0.702" stroke-miterlimit="10"/>
<path d="M839.094 109.997C833.558 109.997 829.068 105.508 829.068 99.9717C829.068 94.4355 833.558 89.946 839.094 89.946C844.63 89.946 849.12 94.4355 849.12 99.9717C849.131 105.508 844.641 109.997 839.094 109.997Z" fill="white"/>
<path d="M839.094 109.997C833.558 109.997 829.068 105.508 829.068 99.9717C829.068 94.4355 833.558 89.946 839.094 89.946C844.63 89.946 849.12 94.4355 849.12 99.9717C849.131 105.508 844.641 109.997 839.094 109.997Z" stroke="#02435F" stroke-width="0.702" stroke-miterlimit="10"/>
<path d="M790.584 121.264H780.526V161.842H790.584V121.264Z" fill="white"/>
<path d="M790.584 121.264H780.526V161.842H790.584V121.264Z" stroke="#02435F" stroke-width="0.702" stroke-miterlimit="10"/>
<path d="M584.373 36.5586V32.8678C584.373 31.508 585.474 30.418 586.823 30.418H594.733C596.093 30.418 597.183 31.5188 597.183 32.8678V36.5586C597.183 37.9184 596.082 39.0084 594.733 39.0084H586.823C585.474 39.0084 584.373 37.9184 584.373 36.5586Z" stroke="#02435F" stroke-width="0.351" stroke-miterlimit="10"/>
<path d="M595.727 30.623V38.7817" stroke="#02435F" stroke-width="0.351" stroke-miterlimit="10"/>
<path d="M671.097 128.678V87.6582H710.573C711.426 87.6582 712.106 88.3489 712.106 89.1906V127.135C712.106 127.987 711.415 128.667 710.573 128.667H671.097V128.678Z" fill="white"/>
<path d="M671.097 128.678V87.6582H710.573C711.426 87.6582 712.106 88.3489 712.106 89.1906V127.135C712.106 127.987 711.415 128.667 710.573 128.667H671.097V128.678Z" stroke="#02435F" stroke-width="0.351" stroke-miterlimit="10"/>
<path d="M708.803 87.6582H688.158V128.678H708.803V87.6582Z" stroke="#02435F" stroke-width="0.351" stroke-miterlimit="10"/>
<path d="M709.44 88.0467H694.871V128.268H709.44V88.0467Z" fill="#8FBAB8"/>
<path d="M677.529 91.7483H681.22C682.58 91.7483 683.67 92.8491 683.67 94.1981V102.109C683.67 103.468 682.569 104.558 681.22 104.558H677.529C676.169 104.558 675.079 103.457 675.079 102.109V94.1981C675.068 92.8491 676.169 91.7483 677.529 91.7483Z" stroke="#02435F" stroke-width="0.351" stroke-miterlimit="10"/>
<path d="M683.464 103.101H675.306" stroke="#02435F" stroke-width="0.351" stroke-miterlimit="10"/>
<path d="M677.529 110.224H681.22C682.58 110.224 683.67 111.325 683.67 112.674V120.584C683.67 121.944 682.569 123.034 681.22 123.034H677.529C676.169 123.034 675.079 121.933 675.079 120.584V112.674C675.068 111.325 676.169 110.224 677.529 110.224Z" stroke="#02435F" stroke-width="0.351" stroke-miterlimit="10"/>
<path d="M683.464 121.566H675.306" stroke="#02435F" stroke-width="0.351" stroke-miterlimit="10"/>
<path d="M542.166 137.225H539.695V64.5312H526.658V137.225V140.182V173.464H544.227V139.297C544.238 138.153 543.31 137.225 542.166 137.225Z" fill="white"/>
<path d="M542.166 137.225H539.695V64.5312H526.658V137.225V140.182V173.464H544.227V139.297C544.238 138.153 543.31 137.225 542.166 137.225Z" stroke="#02435F" stroke-width="0.702" stroke-miterlimit="10"/>
<path d="M477.221 118.998V111.994H446L477.221 118.998Z" fill="#02435F"/>
<path d="M477.221 96.2161V89.2122H446L477.221 96.2161Z" fill="#02435F"/>
<path d="M448.644 89.2122V111.994" stroke="#02435F" stroke-width="0.351" stroke-miterlimit="10"/>
<path d="M446 89.2122V111.994" stroke="#02435F" stroke-width="0.351" stroke-miterlimit="10"/>
<path d="M452.745 89.2122V111.994" stroke="#02435F" stroke-width="0.351" stroke-miterlimit="10"/>
<path d="M456.587 89.2122V111.994" stroke="#02435F" stroke-width="0.351" stroke-miterlimit="10"/>
<path d="M460.688 89.2122V111.994" stroke="#02435F" stroke-width="0.351" stroke-miterlimit="10"/>
<path d="M464.918 89.2122V111.994" stroke="#02435F" stroke-width="0.351" stroke-miterlimit="10"/>
<path d="M469.159 89.2122V111.994" stroke="#02435F" stroke-width="0.351" stroke-miterlimit="10"/>
<path d="M472.99 89.2122V111.994" stroke="#02435F" stroke-width="0.351" stroke-miterlimit="10"/>
<path d="M477.221 89.2122V118.998" stroke="#02435F" stroke-width="0.351" stroke-miterlimit="10"/>
<path d="M526.151 43.3575V39.6667H493.301L526.151 43.3575Z" fill="#02435F"/>
<path d="M526.151 31.3785V27.6877H493.301L526.151 31.3785Z" fill="#02435F"/>
<path d="M496.085 27.6877V39.6667" stroke="#02435F" stroke-width="0.261" stroke-miterlimit="10"/>
<path d="M493.301 27.6877V39.6667" stroke="#02435F" stroke-width="0.261" stroke-miterlimit="10"/>
<path d="M500.401 27.6877V39.6667" stroke="#02435F" stroke-width="0.261" stroke-miterlimit="10"/>
<path d="M504.438 27.6877V39.6667" stroke="#02435F" stroke-width="0.261" stroke-miterlimit="10"/>
<path d="M508.755 27.6877V39.6667" stroke="#02435F" stroke-width="0.261" stroke-miterlimit="10"/>
<path d="M513.212 27.6877V39.6667" stroke="#02435F" stroke-width="0.261" stroke-miterlimit="10"/>
<path d="M517.658 27.6877V39.6667" stroke="#02435F" stroke-width="0.261" stroke-miterlimit="10"/>
<path d="M521.694 27.6877V39.6667" stroke="#02435F" stroke-width="0.261" stroke-miterlimit="10"/>
<path d="M526.151 27.6877V43.3575" stroke="#02435F" stroke-width="0.261" stroke-miterlimit="10"/>
<path d="M564.397 70.9415H579.657V26.6517H562.595V26.8351H527.683V26.5114H526.464V64.747H543.677C544.67 64.747 545.468 63.9268 545.468 62.9124V47.5339C545.468 46.8109 546.04 46.2173 546.753 46.2173H561.311C562.023 46.2173 562.595 46.8109 562.595 47.5339V69.0961C562.606 70.1214 563.404 70.9415 564.397 70.9415Z" fill="#02435F"/>
<path d="M565.358 68.8264H575.966C576.56 68.8264 577.056 68.3299 577.056 67.7148V44.7497V27.569H564.279H543.828H536.749H527.705V62.416C527.705 63.0311 528.191 63.5275 528.795 63.5275H542.76C543.353 63.5275 543.85 63.0311 543.85 62.416V47.5879C543.85 46.0123 545.102 44.7389 546.634 44.7389H561.505C563.049 44.7389 564.29 46.0123 564.29 47.5879V67.704C564.268 68.3299 564.754 68.8264 565.358 68.8264Z" fill="white"/>
<path d="M578.179 47.0807H563.286" stroke="#02435F" stroke-width="0.347" stroke-miterlimit="10"/>
<path d="M545.047 47.0807H526.464" stroke="#02435F" stroke-width="0.347" stroke-miterlimit="10"/>
<path d="M560.523 26.6517V44.7065" stroke="#02435F" stroke-width="0.347" stroke-miterlimit="10"/>
<path d="M547.767 26.3926V44.7065" stroke="#02435F" stroke-width="0.347" stroke-miterlimit="10"/>
<path d="M785.998 129.261H784.703V154.19H785.998V129.261Z" fill="#02435F"/>
<path d="M787.498 135.207H783.214V148.244H787.498V135.207Z" fill="#02435F"/>
<path d="M688.72 164.982L680.334 167.162C679.406 167.399 678.457 166.849 678.219 165.921L677.388 162.705C677.151 161.777 677.701 160.827 678.629 160.59L687.015 158.41C687.943 158.172 688.892 158.723 689.13 159.651L689.971 162.867C690.209 163.795 689.648 164.745 688.72 164.982Z" fill="#8FBAB8"/>
<path d="M688.72 164.982L680.334 167.162C679.406 167.399 678.457 166.849 678.219 165.921L677.388 162.705C677.151 161.777 677.701 160.827 678.629 160.59L687.015 158.41C687.943 158.172 688.892 158.723 689.13 159.651L689.971 162.867C690.209 163.795 689.648 164.745 688.72 164.982Z" stroke="#02435F" stroke-width="0.351" stroke-miterlimit="10"/>
<path d="M706.106 168.522L697.483 167.626C696.523 167.529 695.832 166.676 695.94 165.716L696.285 162.414C696.382 161.464 697.235 160.762 698.195 160.87L706.818 161.766C707.768 161.863 708.469 162.716 708.361 163.676L708.016 166.979C707.919 167.928 707.066 168.619 706.106 168.522Z" fill="#8FBAB8"/>
<path d="M706.106 168.522L697.483 167.626C696.523 167.529 695.832 166.676 695.94 165.716L696.285 162.414C696.382 161.464 697.235 160.762 698.195 160.87L706.818 161.766C707.768 161.863 708.469 162.716 708.361 163.676L708.016 166.979C707.919 167.928 707.066 168.619 706.106 168.522Z" stroke="#02435F" stroke-width="0.351" stroke-miterlimit="10"/>
<path d="M538.842 37.2817H531.666C530.543 37.2817 529.626 36.3643 529.626 35.242V32.5656C529.626 31.4432 530.543 30.5259 531.666 30.5259H538.842C539.965 30.5259 540.882 31.4432 540.882 32.5656V35.2312C540.893 36.3643 539.975 37.2817 538.842 37.2817Z" fill="#8FBAB8"/>
<path d="M538.842 37.2817H531.666C530.543 37.2817 529.626 36.3643 529.626 35.242V32.5656C529.626 31.4432 530.543 30.5259 531.666 30.5259H538.842C539.965 30.5259 540.882 31.4432 540.882 32.5656V35.2312C540.893 36.3643 539.975 37.2817 538.842 37.2817Z" stroke="#02435F" stroke-width="0.347" stroke-miterlimit="10"/>
<path d="M541.551 38.8357L534.385 39.8177C533.285 39.9688 532.27 39.1702 532.119 38.0479L531.774 35.447C531.623 34.3139 532.4 33.2779 533.511 33.1268L540.677 32.1447C541.778 31.9936 542.792 32.7922 542.943 33.9146L543.278 36.5154C543.429 37.6486 542.652 38.6846 541.551 38.8357Z" fill="#8FBAB8"/>
<path d="M541.551 38.8357L534.385 39.8177C533.285 39.9688 532.27 39.1702 532.119 38.0479L531.774 35.447C531.623 34.3139 532.4 33.2779 533.511 33.1268L540.677 32.1447C541.778 31.9936 542.792 32.7922 542.943 33.9146L543.278 36.5154C543.429 37.6486 542.652 38.6846 541.551 38.8357Z" stroke="#02435F" stroke-width="0.347" stroke-miterlimit="10"/>
<path d="M572.287 38.9976H565.11C563.988 38.9976 563.07 38.0802 563.07 36.9579V34.2923C563.07 33.1591 563.988 32.2526 565.11 32.2526H572.287C573.409 32.2526 574.326 33.1699 574.326 34.2923V36.9579C574.326 38.0802 573.409 38.9976 572.287 38.9976Z" fill="#8FBAB8"/>
<path d="M572.287 38.9976H565.11C563.988 38.9976 563.07 38.0802 563.07 36.9579V34.2923C563.07 33.1591 563.988 32.2526 565.11 32.2526H572.287C573.409 32.2526 574.326 33.1699 574.326 34.2923V36.9579C574.326 38.0802 573.409 38.9976 572.287 38.9976Z" stroke="#02435F" stroke-width="0.347" stroke-miterlimit="10"/>
<path d="M574.984 40.5516L567.818 41.5337C566.717 41.6848 565.703 40.8862 565.552 39.7638L565.206 37.163C565.055 36.0298 565.832 34.9938 566.944 34.8427L574.11 33.8606C575.21 33.7096 576.225 34.5082 576.376 35.6305L576.71 38.2314C576.872 39.3645 576.095 40.4005 574.984 40.5516Z" fill="#8FBAB8"/>
<path d="M574.984 40.5516L567.818 41.5337C566.717 41.6848 565.703 40.8862 565.552 39.7638L565.206 37.163C565.055 36.0298 565.832 34.9938 566.944 34.8427L574.11 33.8606C575.21 33.7096 576.225 34.5082 576.376 35.6305L576.71 38.2314C576.872 39.3645 576.095 40.4005 574.984 40.5516Z" stroke="#02435F" stroke-width="0.347" stroke-miterlimit="10"/>
<path d="M599.871 52.8867H581.719V66.3442H599.871V52.8867Z" fill="#8FBAB8"/>
<path d="M539.695 137.225H526.658" stroke="#02435F" stroke-width="0.75" stroke-miterlimit="10"/>
<path d="M491.606 58.887H518.1V73.8122H491.8C490.937 73.8122 490.225 73.1107 490.225 72.2366V60.2576C490.225 59.5022 490.84 58.887 491.606 58.887Z" fill="white"/>
<path d="M491.606 58.887H518.1V73.8122H491.8C490.937 73.8122 490.225 73.1107 490.225 72.2366V60.2576C490.225 59.5022 490.84 58.887 491.606 58.887Z" stroke="#02435F" stroke-width="0.282" stroke-miterlimit="10"/>
<path d="M509.693 67.9846V62.2001C509.693 61.2936 510.427 60.5598 511.334 60.5598H513.481C514.388 60.5598 515.122 61.2936 515.122 62.2001V67.9846C515.122 68.8911 514.388 69.6249 513.481 69.6249H511.334C510.427 69.6249 509.693 68.8911 509.693 67.9846Z" fill="#8FBAB8"/>
<path d="M509.693 67.9846V62.2001C509.693 61.2936 510.427 60.5598 511.334 60.5598H513.481C514.388 60.5598 515.122 61.2936 515.122 62.2001V67.9846C515.122 68.8911 514.388 69.6249 513.481 69.6249H511.334C510.427 69.6249 509.693 68.8911 509.693 67.9846Z" stroke="#02435F" stroke-width="0.279" stroke-miterlimit="10"/>
<path d="M508.442 70.1645L507.654 64.4016C507.535 63.5167 508.172 62.6965 509.078 62.5778L511.172 62.308C512.079 62.1893 512.92 62.8152 513.039 63.7002L513.827 69.463C513.946 70.348 513.309 71.1682 512.402 71.2869L510.309 71.5567C509.402 71.6754 508.56 71.0495 508.442 70.1645Z" fill="#8FBAB8"/>
<path d="M508.442 70.1645L507.654 64.4016C507.535 63.5167 508.172 62.6965 509.078 62.5778L511.172 62.308C512.079 62.1893 512.92 62.8152 513.039 63.7002L513.827 69.463C513.946 70.348 513.309 71.1682 512.402 71.2869L510.309 71.5567C509.402 71.6754 508.56 71.0495 508.442 70.1645Z" stroke="#02435F" stroke-width="0.279" stroke-miterlimit="10"/>
<path d="M491.606 83.0609H518.1V97.986H491.8C490.937 97.986 490.225 97.2846 490.225 96.4104V84.4314C490.225 83.676 490.84 83.0609 491.606 83.0609Z" fill="white"/>
<path d="M491.606 83.0609H518.1V97.986H491.8C490.937 97.986 490.225 97.2846 490.225 96.4104V84.4314C490.225 83.676 490.84 83.0609 491.606 83.0609Z" stroke="#02435F" stroke-width="0.282" stroke-miterlimit="10"/>
<path d="M509.693 92.1476V86.3631C509.693 85.4566 510.427 84.7228 511.334 84.7228H513.481C514.388 84.7228 515.122 85.4566 515.122 86.3631V92.1476C515.122 93.0541 514.388 93.7879 513.481 93.7879H511.334C510.427 93.7879 509.693 93.0541 509.693 92.1476Z" fill="#8FBAB8"/>
<path d="M509.693 92.1476V86.3631C509.693 85.4566 510.427 84.7228 511.334 84.7228H513.481C514.388 84.7228 515.122 85.4566 515.122 86.3631V92.1476C515.122 93.0541 514.388 93.7879 513.481 93.7879H511.334C510.427 93.7879 509.693 93.0541 509.693 92.1476Z" stroke="#02435F" stroke-width="0.279" stroke-miterlimit="10"/>
<path d="M508.442 94.3275L507.654 88.5647C507.535 87.6797 508.172 86.8596 509.078 86.7409L511.172 86.4711C512.079 86.3523 512.92 86.9783 513.039 87.8632L513.827 93.6261C513.946 94.511 513.309 95.3312 512.402 95.4499L510.309 95.7197C509.402 95.8384 508.56 95.2125 508.442 94.3275Z" fill="#8FBAB8"/>
<path d="M508.442 94.3275L507.654 88.5647C507.535 87.6797 508.172 86.8596 509.078 86.7409L511.172 86.4711C512.079 86.3523 512.92 86.9783 513.039 87.8632L513.827 93.6261C513.946 94.511 513.309 95.3312 512.402 95.4499L510.309 95.7197C509.402 95.8384 508.56 95.2125 508.442 94.3275Z" stroke="#02435F" stroke-width="0.279" stroke-miterlimit="10"/>
<path d="M491.606 116.073H518.1V130.998H491.8C490.937 130.998 490.225 130.297 490.225 129.423V117.444C490.225 116.688 490.84 116.073 491.606 116.073Z" fill="white"/>
<path d="M491.606 116.073H518.1V130.998H491.8C490.937 130.998 490.225 130.297 490.225 129.423V117.444C490.225 116.688 490.84 116.073 491.606 116.073Z" stroke="#02435F" stroke-width="0.282" stroke-miterlimit="10"/>
<path d="M509.693 125.16V119.376C509.693 118.469 510.427 117.735 511.334 117.735H513.481C514.388 117.735 515.122 118.469 515.122 119.376V125.16C515.122 126.067 514.388 126.8 513.481 126.8H511.334C510.427 126.8 509.693 126.067 509.693 125.16Z" fill="#8FBAB8"/>
<path d="M509.693 125.16V119.376C509.693 118.469 510.427 117.735 511.334 117.735H513.481C514.388 117.735 515.122 118.469 515.122 119.376V125.16C515.122 126.067 514.388 126.8 513.481 126.8H511.334C510.427 126.8 509.693 126.067 509.693 125.16Z" stroke="#02435F" stroke-width="0.279" stroke-miterlimit="10"/>
<path d="M508.442 127.34L507.654 121.577C507.535 120.692 508.172 119.872 509.078 119.753L511.172 119.483C512.079 119.365 512.92 119.991 513.039 120.876L513.827 126.638C513.946 127.523 513.309 128.344 512.402 128.462L510.309 128.732C509.402 128.851 508.56 128.225 508.442 127.34Z" fill="#8FBAB8"/>
<path d="M508.442 127.34L507.654 121.577C507.535 120.692 508.172 119.872 509.078 119.753L511.172 119.483C512.079 119.365 512.92 119.991 513.039 120.876L513.827 126.638C513.946 127.523 513.309 128.344 512.402 128.462L510.309 128.732C509.402 128.851 508.56 128.225 508.442 127.34Z" stroke="#02435F" stroke-width="0.279" stroke-miterlimit="10"/>
<path d="M491.606 139.891H518.1V154.816H491.8C490.937 154.816 490.225 154.115 490.225 153.24V141.261C490.225 140.506 490.84 139.891 491.606 139.891Z" fill="white"/>
<path d="M491.606 139.891H518.1V154.816H491.8C490.937 154.816 490.225 154.115 490.225 153.24V141.261C490.225 140.506 490.84 139.891 491.606 139.891Z" stroke="#02435F" stroke-width="0.282" stroke-miterlimit="10"/>
<path d="M509.693 148.988V143.204C509.693 142.297 510.427 141.564 511.334 141.564H513.481C514.388 141.564 515.122 142.297 515.122 143.204V148.988C515.122 149.895 514.388 150.629 513.481 150.629H511.334C510.427 150.629 509.693 149.895 509.693 148.988Z" fill="#8FBAB8"/>
<path d="M509.693 148.988V143.204C509.693 142.297 510.427 141.564 511.334 141.564H513.481C514.388 141.564 515.122 142.297 515.122 143.204V148.988C515.122 149.895 514.388 150.629 513.481 150.629H511.334C510.427 150.629 509.693 149.895 509.693 148.988Z" stroke="#02435F" stroke-width="0.279" stroke-miterlimit="10"/>
<path d="M508.442 151.158L507.654 145.395C507.535 144.51 508.172 143.69 509.078 143.571L511.172 143.301C512.079 143.182 512.92 143.808 513.039 144.693L513.827 150.456C513.946 151.341 513.309 152.161 512.402 152.28L510.309 152.55C509.402 152.679 508.56 152.053 508.442 151.158Z" fill="#8FBAB8"/>
<path d="M508.442 151.158L507.654 145.395C507.535 144.51 508.172 143.69 509.078 143.571L511.172 143.301C512.079 143.182 512.92 143.808 513.039 144.693L513.827 150.456C513.946 151.341 513.309 152.161 512.402 152.28L510.309 152.55C509.402 152.679 508.56 152.053 508.442 151.158Z" stroke="#02435F" stroke-width="0.279" stroke-miterlimit="10"/>
<path d="M822.172 50.955C822.172 59.6317 816.442 66.668 809.384 66.668C802.315 66.668 796.596 59.6317 796.596 50.955C796.596 42.2783 802.326 35.242 809.384 35.242C816.442 35.242 822.172 42.2783 822.172 50.955Z" fill="white"/>
<path d="M822.172 50.955C822.172 59.6317 816.442 66.668 809.384 66.668C802.315 66.668 796.596 59.6317 796.596 50.955C796.596 42.2783 802.326 35.242 809.384 35.242C816.442 35.242 822.172 42.2783 822.172 50.955Z" stroke="#02435F" stroke-width="0.351" stroke-miterlimit="10"/>
<path d="M821.579 50.7499C821.579 57.9481 817.446 63.7865 812.352 63.7865C807.258 63.7865 803.125 57.9481 803.125 50.7499C803.125 43.5517 807.258 37.7241 812.352 37.7241C817.446 37.7241 821.579 43.5625 821.579 50.7499Z" fill="#8FBAB8"/>
<path d="M821.579 50.7499C821.579 57.9481 817.446 63.7865 812.352 63.7865C807.258 63.7865 803.125 57.9481 803.125 50.7499C803.125 43.5517 807.258 37.7241 812.352 37.7241C817.446 37.7241 821.579 43.5625 821.579 50.7499Z" stroke="#02435F" stroke-width="0.271" stroke-miterlimit="10"/>
<path d="M822.172 150.467C822.172 159.144 816.442 166.18 809.384 166.18C802.315 166.18 796.596 159.144 796.596 150.467C796.596 141.79 802.326 134.754 809.384 134.754C816.442 134.754 822.172 141.79 822.172 150.467Z" fill="white"/>
<path d="M822.172 150.467C822.172 159.144 816.442 166.18 809.384 166.18C802.315 166.18 796.596 159.144 796.596 150.467C796.596 141.79 802.326 134.754 809.384 134.754C816.442 134.754 822.172 141.79 822.172 150.467Z" stroke="#02435F" stroke-width="0.351" stroke-miterlimit="10"/>
<path d="M821.579 150.262C821.579 157.46 817.446 163.298 812.352 163.298C807.258 163.298 803.125 157.46 803.125 150.262C803.125 143.064 807.258 137.236 812.352 137.236C817.446 137.225 821.579 143.064 821.579 150.262Z" fill="#8FBAB8"/>
<path d="M821.579 150.262C821.579 157.46 817.446 163.298 812.352 163.298C807.258 163.298 803.125 157.46 803.125 150.262C803.125 143.064 807.258 137.236 812.352 137.236C817.446 137.225 821.579 143.064 821.579 150.262Z" stroke="#02435F" stroke-width="0.271" stroke-miterlimit="10"/>
<path d="M652.727 89.9684L641.422 98.3133L642.165 99.3205L653.471 90.9756L652.727 89.9684Z" stroke="#02435F" stroke-width="0.365" stroke-miterlimit="10"/>
<path d="M652.006 89.2014C651.811 89.018 651.617 88.8453 651.412 88.6834" stroke="#02435F" stroke-width="0.365" stroke-miterlimit="10"/>
<path d="M650.258 87.8416C648.866 86.9567 647.269 86.3524 645.574 86.1257" stroke="#02435F" stroke-width="0.365" stroke-miterlimit="10" stroke-dasharray="1.33 1.33"/>
<path d="M644.862 86.0502C644.603 86.0286 644.333 86.0178 644.074 86.0178" stroke="#02435F" stroke-width="0.365" stroke-miterlimit="10"/>
<path d="M642.169 72.9556L641.426 73.9629L652.731 82.3078L653.475 81.3005L642.169 72.9556Z" stroke="#02435F" stroke-width="0.365" stroke-miterlimit="10"/>
<path d="M652.006 83.0932C651.811 83.2767 651.617 83.4493 651.412 83.6112" stroke="#02435F" stroke-width="0.365" stroke-miterlimit="10"/>
<path d="M650.258 84.453C648.866 85.3487 647.269 85.9423 645.574 86.1689" stroke="#02435F" stroke-width="0.365" stroke-miterlimit="10" stroke-dasharray="1.33 1.33"/>
<path d="M644.862 86.2444C644.603 86.266 644.333 86.2768 644.074 86.2768" stroke="#02435F" stroke-width="0.365" stroke-miterlimit="10"/>
<path d="M570.527 117.735H558.624C555.721 117.735 553.368 115.383 553.368 112.48V105.508C553.368 102.605 555.721 100.252 558.624 100.252H570.527V117.735Z" stroke="#02435F" stroke-width="0.365" stroke-miterlimit="10"/>
<path d="M558.613 100.242V117.735" stroke="#02435F" stroke-width="0.365" stroke-miterlimit="10"/>
<path d="M568.692 100.242V117.735" stroke="#02435F" stroke-width="0.365" stroke-miterlimit="10"/>
<path d="M542.382 95.0182H540.893V117.735H542.382V95.0182Z" stroke="#02435F" stroke-width="0.365" stroke-miterlimit="10"/>
<path d="M543.288 105.173H540.882V107.58H543.288V105.173Z" fill="white"/>
<path d="M543.288 105.173H540.882V107.58H543.288V105.173Z" stroke="#02435F" stroke-width="0.365" stroke-miterlimit="10"/>
<path d="M543.288 93.8204H540.882V96.2269H543.288V93.8204Z" fill="white"/>
<path d="M543.288 93.8204H540.882V96.2269H543.288V93.8204Z" stroke="#02435F" stroke-width="0.365" stroke-miterlimit="10"/>
<path d="M543.288 116.019H540.882V118.426H543.288V116.019Z" fill="white"/>
<path d="M543.288 116.019H540.882V118.426H543.288V116.019Z" stroke="#02435F" stroke-width="0.365" stroke-miterlimit="10"/>
<path d="M584.82 229.79C583.5 229.79 582.18 229.78 580.86 229.76L365.04 229C359.03 228.98 352.94 228.69 346.93 228.14L236.95 218.07C197.16 215.37 158.58 205.54 122.3 188.87L72.7601 166.1L20.2401 142.78H0.370117V131H20.2601L73.0401 108.15L122.45 85.25C158.63 68.48 197.13 58.53 236.91 55.68L351.12 46.09C354.35 45.86 357.61 45.72 360.82 45.68L582.25 44.23C589.16 44.14 596.17 44.34 603.08 44.83L722.03 51.81C737.49 52.9 749.59 65.88 749.59 81.36V191.66C749.59 207.02 737.6 219.99 722.29 221.19L604.43 229.04C597.94 229.54 591.36 229.79 584.82 229.79ZM1.07012 142.08L20.4601 142.11L73.0501 165.46L122.59 188.23C158.79 204.87 197.29 214.67 237.01 217.37L346.99 227.44C352.98 227.99 359.05 228.28 365.04 228.3L580.86 229.06C588.69 229.18 596.59 228.94 604.37 228.33L722.23 220.48C737.17 219.31 748.88 206.65 748.88 191.65V81.36C748.88 66.25 737.06 53.58 721.97 52.51L603.02 45.52C596.13 45.03 589.14 44.83 582.24 44.92L360.81 46.37C357.61 46.41 354.36 46.55 351.15 46.78L236.94 56.37C197.24 59.22 158.82 69.15 122.72 85.88L73.3001 108.79L20.3801 131.7H1.07012V142.08ZM584.8 225.58C583.5 225.58 582.2 225.57 580.9 225.55L365.06 224.79C359.15 224.77 353.18 224.49 347.32 223.95L237.29 213.88C197.98 211.21 159.88 201.51 124.06 185.05L74.5001 162.27L21.1401 138.58H4.58012V135.22H21.1301L74.7601 112L124.22 89.07C159.93 72.51 197.96 62.69 237.24 59.87L351.45 50.28C354.59 50.06 357.75 49.92 360.87 49.88L582.3 48.43C589.1 48.34 596.01 48.54 602.81 49.02L721.76 56.01C735.01 56.94 745.38 68.08 745.38 81.36V191.66C745.38 204.83 735.1 215.96 721.98 216.99L604.12 224.84C597.73 225.33 591.25 225.58 584.8 225.58ZM5.28012 137.87L21.3501 137.9L74.7801 161.62L124.35 184.4C160.09 200.82 198.11 210.5 237.35 213.17L347.38 223.24C353.23 223.77 359.17 224.06 365.06 224.08L580.91 224.85C588.62 224.97 596.41 224.73 604.07 224.13L721.93 216.28C734.68 215.28 744.68 204.46 744.68 191.65V81.36C744.68 68.45 734.59 57.62 721.71 56.71L602.76 49.73C595.97 49.25 589.09 49.05 582.3 49.14L360.87 50.59C357.78 50.63 354.62 50.76 351.5 50.99L237.29 60.58C198.09 63.39 160.15 73.19 124.51 89.71L75.0501 112.64L21.2801 135.92H5.28012V137.87Z" fill="#8FBAB8"/>
<path d="M74.9197 161.62L83.6197 165.62V108.27L74.9197 111.98V135.9H36.6397L37.9897 127.96L26.1997 132.67L19.0697 134.57H0.719727V139.1H19.0697L26.6897 140.89L37.6197 145.17L36.6397 137.42H74.9197V161.62Z" fill="#8FBAB8"/>
<path d="M690.7 187.2C690.7 206.14 675.81 221.73 656.9 222.6L502.14 229.76L317.28 229.18C304.2 229.11 299.54 214.76 299.54 205.67L299.99 64.69C299.99 55.61 304.2 44.93 320.44 44.24H506.02L656.58 49.79C675.63 50.49 690.71 66.14 690.71 85.21V187.2H690.7Z" fill="white"/>
<path d="M578.771 91.21L572.141 90.53C571.191 90.43 570.491 89.58 570.591 88.63L571.291 81.84C571.381 80.98 572.151 80.35 573.011 80.44L579.971 81.15C580.831 81.24 581.461 82.01 581.371 82.87L580.671 89.66C580.581 90.62 579.731 91.31 578.771 91.21Z" stroke="#02435F" stroke-width="0.351" stroke-miterlimit="10"/>
<path d="M577.43 89.61L573.51 89.21C572.56 89.11 571.86 88.26 571.96 87.31L572.67 80.4L580.05 81.16L579.34 88.07C579.24 89.02 578.39 89.71 577.43 89.61Z" stroke="#02435F" stroke-width="0.351" stroke-miterlimit="10"/>
<path d="M578.06 88.41L573.14 87.91C572.46 87.84 571.97 87.23 572.04 86.55L572.67 80.4L580.05 81.16L579.42 87.31C579.34 87.98 578.74 88.48 578.06 88.41Z" stroke="#02435F" stroke-width="0.351" stroke-miterlimit="10"/>
<path d="M593.11 91.21L586.48 90.53C585.53 90.43 584.83 89.58 584.93 88.63L585.63 81.84C585.72 80.98 586.49 80.35 587.35 80.44L594.31 81.15C595.17 81.24 595.8 82.01 595.71 82.87L595.01 89.66C594.91 90.62 594.06 91.31 593.11 91.21Z" stroke="#02435F" stroke-width="0.351" stroke-miterlimit="10"/>
<path d="M591.771 89.61L587.851 89.21C586.901 89.11 586.201 88.26 586.301 87.31L587.001 80.4L594.381 81.16L593.671 88.07C593.571 89.02 592.721 89.71 591.771 89.61Z" stroke="#02435F" stroke-width="0.351" stroke-miterlimit="10"/>
<path d="M592.39 88.41L587.47 87.91C586.79 87.84 586.3 87.23 586.37 86.55L587 80.4L594.38 81.16L593.75 87.31C593.68 87.98 593.07 88.48 592.39 88.41Z" stroke="#02435F" stroke-width="0.351" stroke-miterlimit="10"/>
<path d="M299.99 209.31V64.69C299.99 53.41 309.16 44.24 320.44 44.24H495.35L657.96 50.37C676.32 51.06 690.7 66 690.7 84.37V188.54C690.7 206.79 676.42 221.72 658.18 222.53L495.43 229.76H320.43C309.16 229.76 299.99 220.59 299.99 209.31ZM686.49 84.37C686.49 68.27 673.89 55.18 657.8 54.58L495.26 48.45H320.43C311.48 48.45 304.19 55.73 304.19 64.69V209.31C304.19 218.26 311.47 225.55 320.43 225.55H495.34L658 218.33C673.98 217.62 686.49 204.54 686.49 188.54V84.37Z" stroke="#0D3F57" stroke-width="0.702" stroke-miterlimit="10"/>
<path d="M398.88 204.73L364.29 204.6V68.1L554.07 68.11L610.04 74.55L609.02 117.19L608.85 118.62" stroke="#0D3F57" stroke-width="0.702" stroke-miterlimit="10"/>
<path d="M610.25 155.15V198.31L553.91 205.67H413.58" stroke="#0D3F57" stroke-width="0.702" stroke-miterlimit="10"/>
<path d="M629.37 118.37H609.021V119.77H629.37V118.37Z" stroke="#02435F" stroke-width="0.351" stroke-miterlimit="10"/>
<path d="M629.37 153.75H609.021V155.15H629.37V153.75Z" stroke="#02435F" stroke-width="0.351" stroke-miterlimit="10"/>
<path d="M469.31 179.88H468.11V194.22H469.31V179.88Z" stroke="#02435F" stroke-width="0.351" stroke-miterlimit="10"/>
<path d="M467.46 179.88H466.26V194.22H467.46V179.88Z" stroke="#02435F" stroke-width="0.351" stroke-miterlimit="10"/>
<path d="M441.091 110.65H439.891V124.31H441.091V110.65Z" stroke="#02435F" stroke-width="0.351" stroke-miterlimit="10"/>
<path d="M611.06 119.78H609.021V153.75H611.06V119.78Z" stroke="#02435F" stroke-width="0.351" stroke-miterlimit="10"/>
<path d="M629.38 119.87C629.38 120.11 629.38 120.34 629.37 120.57" stroke="#02435F" stroke-width="0.281" stroke-miterlimit="10"/>
<path d="M629.24 122.05C628.23 129.88 621.86 136.04 613.93 136.71" stroke="#02435F" stroke-width="0.281" stroke-miterlimit="10" stroke-dasharray="1.48 1.48"/>
<path d="M613.19 136.75C612.96 136.76 612.72 136.76 612.49 136.76" stroke="#02435F" stroke-width="0.281" stroke-miterlimit="10"/>
<path d="M629.38 153.89C629.38 153.66 629.38 153.42 629.37 153.19" stroke="#02435F" stroke-width="0.281" stroke-miterlimit="10"/>
<path d="M629.24 151.71C628.23 143.88 621.86 137.72 613.93 137.05" stroke="#02435F" stroke-width="0.281" stroke-miterlimit="10" stroke-dasharray="1.48 1.48"/>
<path d="M613.19 137.01C612.96 137 612.72 137 612.49 137" stroke="#02435F" stroke-width="0.281" stroke-miterlimit="10"/>
<path d="M467.471 194.22C467.231 194.22 467.001 194.21 466.771 194.2" stroke="#02435F" stroke-width="0.281" stroke-miterlimit="10"/>
<path d="M465.401 194.06C459.131 193.1 454.261 187.85 453.641 181.45" stroke="#02435F" stroke-width="0.281" stroke-miterlimit="10" stroke-dasharray="1.37 1.37"/>
<path d="M453.59 180.77C453.58 180.54 453.57 180.3 453.57 180.07" stroke="#02435F" stroke-width="0.281" stroke-miterlimit="10"/>
<path d="M482.081 180.06C482.081 180.3 482.071 180.53 482.061 180.76" stroke="#02435F" stroke-width="0.281" stroke-miterlimit="10"/>
<path d="M481.93 182.14C481 188.45 475.88 193.5 469.5 194.15" stroke="#02435F" stroke-width="0.281" stroke-miterlimit="10" stroke-dasharray="1.38 1.38"/>
<path d="M468.81 194.2C468.58 194.21 468.34 194.22 468.11 194.22" stroke="#02435F" stroke-width="0.281" stroke-miterlimit="10"/>
<path d="M440.87 110.74C440.63 110.75 440.4 110.76 440.17 110.78" stroke="#02435F" stroke-width="0.281" stroke-miterlimit="10"/>
<path d="M438.751 110.98C433.211 112.09 429.011 116.77 428.561 122.45" stroke="#02435F" stroke-width="0.281" stroke-miterlimit="10" stroke-dasharray="1.43 1.43"/>
<path d="M428.53 123.17C428.52 123.4 428.53 123.64 428.53 123.87" stroke="#02435F" stroke-width="0.281" stroke-miterlimit="10"/>
<path d="M411.28 188.75H415.7V159.81L411.28 188.75Z" fill="#02435F"/>
<path d="M425.63 188.75H430.04V159.81L425.63 188.75Z" fill="#02435F"/>
<path d="M430.04 162.27H415.7" stroke="#02435F" stroke-width="0.351" stroke-miterlimit="10"/>
<path d="M430.04 159.81H415.7" stroke="#02435F" stroke-width="0.351" stroke-miterlimit="10"/>
<path d="M430.04 166.07H415.7" stroke="#02435F" stroke-width="0.351" stroke-miterlimit="10"/>
<path d="M430.04 169.62H415.7" stroke="#02435F" stroke-width="0.351" stroke-miterlimit="10"/>
<path d="M430.04 173.42H415.7" stroke="#02435F" stroke-width="0.351" stroke-miterlimit="10"/>
<path d="M430.04 177.35H415.7" stroke="#02435F" stroke-width="0.351" stroke-miterlimit="10"/>
<path d="M430.04 181.27H415.7" stroke="#02435F" stroke-width="0.351" stroke-miterlimit="10"/>
<path d="M430.04 184.83H415.7" stroke="#02435F" stroke-width="0.351" stroke-miterlimit="10"/>
<path d="M430.04 188.75H411.28" stroke="#02435F" stroke-width="0.351" stroke-miterlimit="10"/>
<path d="M526.5 93.01V87.33H489.25L526.5 93.01Z" fill="#02435F"/>
<path d="M526.5 74.55V68.86H489.25L526.5 74.55Z" fill="#02435F"/>
<path d="M492.4 68.86V87.33" stroke="#02435F" stroke-width="0.351" stroke-miterlimit="10"/>
<path d="M489.25 68.86V87.33" stroke="#02435F" stroke-width="0.351" stroke-miterlimit="10"/>
<path d="M497.3 68.86V87.33" stroke="#02435F" stroke-width="0.351" stroke-miterlimit="10"/>
<path d="M501.87 68.86V87.33" stroke="#02435F" stroke-width="0.351" stroke-miterlimit="10"/>
<path d="M506.771 68.86V87.33" stroke="#02435F" stroke-width="0.351" stroke-miterlimit="10"/>
<path d="M511.82 68.86V87.33" stroke="#02435F" stroke-width="0.351" stroke-miterlimit="10"/>
<path d="M516.87 68.86V87.33" stroke="#02435F" stroke-width="0.351" stroke-miterlimit="10"/>
<path d="M521.45 68.86V87.33" stroke="#02435F" stroke-width="0.351" stroke-miterlimit="10"/>
<path d="M526.5 68.86V93.01" stroke="#02435F" stroke-width="0.351" stroke-miterlimit="10"/>
<path d="M482.45 180.41H495.79" stroke="#02435F" stroke-width="0.351" stroke-miterlimit="10"/>
<path d="M467.83 179.88V205.67" stroke="#02435F" stroke-width="0.351" stroke-miterlimit="10"/>
<path d="M472.84 109.08H458.62V111.07H472.84V109.08Z" fill="#02435F"/>
<path d="M431.87 205.93V143.21H458.57V143.24H460.56V143.21V141.22V68.1" stroke="#02435F" stroke-width="0.702" stroke-miterlimit="10"/>
<path d="M441.13 103.53V122.32H441.05V124.31H460.56" stroke="#02435F" stroke-width="0.702" stroke-miterlimit="10"/>
<path d="M413.22 68.86V122.32V124.05V124.31H428.11" stroke="#02435F" stroke-width="0.702" stroke-miterlimit="10"/>
<path d="M441.05 91.44V68.1" stroke="#02435F" stroke-width="0.702" stroke-miterlimit="10"/>
<path d="M415.311 107.9V68.22H432.481V106.1C432.481 107.1 431.671 107.91 430.671 107.91H415.311V107.9Z" fill="white"/>
<path d="M415.311 107.9V68.22H432.481V106.1C432.481 107.1 431.671 107.91 430.671 107.91H415.311V107.9Z" stroke="#02435F" stroke-width="0.351" stroke-miterlimit="10"/>
<path d="M432.481 88.38H415.311V92.85H432.481V88.38Z" fill="white"/>
<path d="M432.481 88.38H415.311V92.85H432.481V88.38Z" stroke="#02435F" stroke-width="0.351" stroke-miterlimit="10"/>
<path d="M482.35 180.41V151.83C482.35 150.81 483.18 149.98 484.2 149.98H495.79V180.41H482.35Z" stroke="#02435F" stroke-width="0.351" stroke-miterlimit="10"/>
<path d="M483.8 161.69V154.06C483.8 152.96 484.69 152.07 485.79 152.07H490.19C491.29 152.07 492.18 152.96 492.18 154.06V161.69C492.18 162.79 491.29 163.68 490.19 163.68H485.79C484.69 163.68 483.8 162.79 483.8 161.69Z" stroke="#02435F" stroke-width="0.351" stroke-miterlimit="10"/>
<path d="M483.8 175.32V167.69C483.8 166.59 484.69 165.7 485.79 165.7H490.19C491.29 165.7 492.18 166.59 492.18 167.69V175.32C492.18 176.42 491.29 177.31 490.19 177.31H485.79C484.69 177.31 483.8 176.42 483.8 175.32Z" stroke="#02435F" stroke-width="0.351" stroke-miterlimit="10"/>
<path d="M493.81 157.16H489.61V158.59H493.81V157.16Z" stroke="#02435F" stroke-width="0.351" stroke-miterlimit="10"/>
<path d="M493.81 170.79H489.61V172.22H493.81V170.79Z" stroke="#02435F" stroke-width="0.351" stroke-miterlimit="10"/>
<path d="M487.42 158.81C486.96 158.81 486.59 158.44 486.59 157.99C486.59 157.53 486.96 157.16 487.42 157.16C487.88 157.16 488.24 157.53 488.24 157.99C488.25 158.44 487.88 158.81 487.42 158.81Z" stroke="#02435F" stroke-width="0.351" stroke-miterlimit="10"/>
<path d="M487.42 172.33C486.96 172.33 486.59 171.96 486.59 171.51C486.59 171.05 486.96 170.68 487.42 170.68C487.88 170.68 488.24 171.05 488.24 171.51C488.25 171.96 487.88 172.33 487.42 172.33Z" stroke="#02435F" stroke-width="0.351" stroke-miterlimit="10"/>
<path d="M495.89 110.07H487.61V125.97H495.89V110.07Z" stroke="#02435F" stroke-width="0.351" stroke-miterlimit="10"/>
<path d="M468.38 72.78H460.65V110.07H468.38V72.78Z" stroke="#02435F" stroke-width="0.351" stroke-miterlimit="10"/>
<path d="M495.79 141.34H487.61V149.98H495.79V141.34Z" stroke="#02435F" stroke-width="0.351" stroke-miterlimit="10"/>
<path d="M495.79 140.18H487.61V141.34H495.79V140.18Z" stroke="#02435F" stroke-width="0.351" stroke-miterlimit="10"/>
<path d="M488.98 125.97H487.61V140.18H488.98V125.97Z" stroke="#02435F" stroke-width="0.351" stroke-miterlimit="10"/>
<path d="M441.44 158.81C440.98 158.81 440.61 158.44 440.61 157.99C440.61 157.53 440.98 157.16 441.44 157.16C441.9 157.16 442.26 157.53 442.26 157.99C442.26 158.44 441.89 158.81 441.44 158.81Z" stroke="#02435F" stroke-width="0.351" stroke-miterlimit="10"/>
<path d="M452.1 143.21H431.93V180.33H452.1V143.21Z" stroke="#02435F" stroke-width="0.351" stroke-miterlimit="10"/>
<path d="M434.69 168.94V152.63C434.69 148.78 437.81 145.66 441.66 145.66C445.51 145.66 448.63 148.78 448.63 152.63V168.94C448.63 172.79 445.51 175.92 441.66 175.92C437.81 175.92 434.69 172.79 434.69 168.94Z" stroke="#02435F" stroke-width="0.351" stroke-miterlimit="10"/>
<path d="M437.95 159.82H433.75V161.25H437.95V159.82Z" stroke="#02435F" stroke-width="0.351" stroke-miterlimit="10"/>
<path d="M432.53 195.49V190.47L433.39 191.39V194.64L432.53 195.49Z" fill="white"/>
<path d="M432.53 195.49V190.47L433.39 191.39V194.64L432.53 195.49Z" stroke="#02435F" stroke-width="0.702" stroke-miterlimit="10"/>
<path d="M435.631 193.97C435.111 193.97 432.521 193.55 432.521 193.03C432.521 192.51 435.111 192.09 435.631 192.09C436.151 192.09 436.571 192.51 436.571 193.03C436.571 193.55 436.151 193.97 435.631 193.97Z" fill="white"/>
<path d="M435.631 193.97C435.111 193.97 432.521 193.55 432.521 193.03C432.521 192.51 435.111 192.09 435.631 192.09C436.151 192.09 436.571 192.51 436.571 193.03C436.571 193.55 436.151 193.97 435.631 193.97Z" stroke="#02435F" stroke-width="0.702" stroke-miterlimit="10"/>
<path d="M448.29 68.89H453.32L452.4 69.75H449.15L448.29 68.89Z" fill="white"/>
<path d="M448.29 68.89H453.32L452.4 69.75H449.15L448.29 68.89Z" stroke="#02435F" stroke-width="0.702" stroke-miterlimit="10"/>
<path d="M449.811 71.99C449.811 71.47 450.231 68.88 450.751 68.88C451.271 68.88 451.691 71.47 451.691 71.99C451.691 72.51 451.271 72.93 450.751 72.93C450.231 72.93 449.811 72.51 449.811 71.99Z" fill="white"/>
<path d="M449.811 71.99C449.811 71.47 450.231 68.88 450.751 68.88C451.271 68.88 451.691 71.47 451.691 71.99C451.691 72.51 451.271 72.93 450.751 72.93C450.231 72.93 449.811 72.51 449.811 71.99Z" stroke="#02435F" stroke-width="0.702" stroke-miterlimit="10"/>
<path d="M490.83 195.42V190.42C490.83 190.03 491.15 189.71 491.54 189.71H493.19C493.58 189.71 493.9 190.03 493.9 190.42V195.42C493.9 195.81 493.58 196.13 493.19 196.13H491.54C491.14 196.13 490.83 195.81 490.83 195.42Z" fill="white"/>
<path d="M490.83 195.42V190.42C490.83 190.03 491.15 189.71 491.54 189.71H493.19C493.58 189.71 493.9 190.03 493.9 190.42V195.42C493.9 195.81 493.58 196.13 493.19 196.13H491.54C491.14 196.13 490.83 195.81 490.83 195.42Z" stroke="#02435F" stroke-width="0.351" stroke-miterlimit="10"/>
<path d="M486.64 195.65C484.33 195.65 482.45 194.43 482.45 192.92C482.45 191.41 484.33 190.19 486.64 190.19C488.95 190.19 490.83 191.41 490.83 192.92C490.83 194.43 488.95 195.65 486.64 195.65Z" fill="white"/>
<path d="M486.64 195.65C484.33 195.65 482.45 194.43 482.45 192.92C482.45 191.41 484.33 190.19 486.64 190.19C488.95 190.19 490.83 191.41 490.83 192.92C490.83 194.43 488.95 195.65 486.64 195.65Z" stroke="#02435F" stroke-width="0.351" stroke-miterlimit="10"/>
<path d="M487.97 190.33V195.58" stroke="#02435F" stroke-width="0.351" stroke-miterlimit="10"/>
<path d="M448.25 119.03H453.25C453.64 119.03 453.96 119.35 453.96 119.74V121.39C453.96 121.78 453.64 122.1 453.25 122.1H448.25C447.86 122.1 447.54 121.78 447.54 121.39V119.74C447.54 119.34 447.86 119.03 448.25 119.03Z" fill="white"/>
<path d="M448.25 119.03H453.25C453.64 119.03 453.96 119.35 453.96 119.74V121.39C453.96 121.78 453.64 122.1 453.25 122.1H448.25C447.86 122.1 447.54 121.78 447.54 121.39V119.74C447.54 119.34 447.86 119.03 448.25 119.03Z" stroke="#02435F" stroke-width="0.351" stroke-miterlimit="10"/>
<path d="M448.021 114.84C448.021 112.53 449.241 110.65 450.751 110.65C452.261 110.65 453.481 112.53 453.481 114.84C453.481 117.15 452.261 119.03 450.751 119.03C449.241 119.03 448.021 117.15 448.021 114.84Z" fill="white"/>
<path d="M448.021 114.84C448.021 112.53 449.241 110.65 450.751 110.65C452.261 110.65 453.481 112.53 453.481 114.84C453.481 117.15 452.261 119.03 450.751 119.03C449.241 119.03 448.021 117.15 448.021 114.84Z" stroke="#02435F" stroke-width="0.351" stroke-miterlimit="10"/>
<path d="M453.34 116.16H448.09" stroke="#02435F" stroke-width="0.351" stroke-miterlimit="10"/>
<path d="M537.79 183.23L509.43 184.96C507.39 185.08 505.67 183.46 505.67 181.42V168.04C505.67 166.08 507.26 164.49 509.22 164.49H537.8V123.15H509.22C507.26 123.15 505.67 121.56 505.67 119.6V110.07H495.9V123.15L495.79 183.23V185.19V205.67H537.79V183.23Z" fill="white"/>
<path d="M537.79 183.23L509.43 184.96C507.39 185.08 505.67 183.46 505.67 181.42V168.04C505.67 166.08 507.26 164.49 509.22 164.49H537.8V123.15H509.22C507.26 123.15 505.67 121.56 505.67 119.6V110.07H495.9V123.15L495.79 183.23V185.19V205.67H537.79V183.23Z" stroke="#02435F" stroke-width="0.702" stroke-miterlimit="10"/>
<path d="M497.96 203.34V189.67C497.96 187.92 499.33 186.48 501.08 186.4L532.53 184.88C534.4 184.79 535.97 186.28 535.97 188.15V202.66L497.96 203.34Z" fill="white"/>
<path d="M497.96 203.34V189.67C497.96 187.92 499.33 186.48 501.08 186.4L532.53 184.88C534.4 184.79 535.97 186.28 535.97 188.15V202.66L497.96 203.34Z" stroke="#02435F" stroke-width="0.351" stroke-miterlimit="10"/>
<path d="M525.891 185.19V202.85" stroke="#02435F" stroke-width="0.351" stroke-miterlimit="10"/>
<path d="M511.92 185.87V202.85" stroke="#02435F" stroke-width="0.351" stroke-miterlimit="10"/>
<path d="M482.08 180.41H470.3" stroke="#02435F" stroke-width="0.281" stroke-miterlimit="10" stroke-dasharray="1.4 1.4"/>
<path d="M464.51 180.41H452.73" stroke="#02435F" stroke-width="0.281" stroke-miterlimit="10" stroke-dasharray="1.4 1.4"/>
<path d="M413.58 204.44H412.18V220.87H413.58V204.44Z" stroke="#02435F" stroke-width="0.351" stroke-miterlimit="10"/>
<path d="M413.33 220.87C413.09 220.87 412.86 220.86 412.63 220.85" stroke="#02435F" stroke-width="0.281" stroke-miterlimit="10"/>
<path d="M411.27 220.72C404.98 219.79 400.06 214.67 399.43 208.29" stroke="#02435F" stroke-width="0.281" stroke-miterlimit="10" stroke-dasharray="1.37 1.37"/>
<path d="M399.38 207.6C399.37 207.37 399.36 207.13 399.36 206.9" stroke="#02435F" stroke-width="0.281" stroke-miterlimit="10"/>
<path d="M411.01 204.66H399.23" stroke="#02435F" stroke-width="0.281" stroke-miterlimit="10" stroke-dasharray="1.4 1.4"/>
<path d="M440.59 123.81H428.8" stroke="#02435F" stroke-width="0.281" stroke-miterlimit="10" stroke-dasharray="1.4 1.4"/>
<path d="M441.11 91.8381L440.807 92.9991L454.023 96.4538L454.326 95.2927L441.11 91.8381Z" stroke="#02435F" stroke-width="0.351" stroke-miterlimit="10"/>
<path d="M441.16 103.22C441.39 103.25 441.63 103.27 441.86 103.29" stroke="#02435F" stroke-width="0.281" stroke-miterlimit="10"/>
<path d="M443.391 103.3C447.351 103.1 450.931 101.05 453.141 97.91" stroke="#02435F" stroke-width="0.281" stroke-miterlimit="10" stroke-dasharray="1.54 1.54"/>
<path d="M453.57 97.27C453.69 97.07 453.81 96.87 453.92 96.66" stroke="#02435F" stroke-width="0.281" stroke-miterlimit="10"/>
<path d="M440.78 103.61V91.83" stroke="#02435F" stroke-width="0.281" stroke-miterlimit="10" stroke-dasharray="1.4 1.4"/>
<path d="M471.09 111.07H460.65V123.32H471.09V111.07Z" stroke="#02435F" stroke-width="0.351" stroke-miterlimit="10"/>
<path d="M471.09 123.32H460.65V135.57H471.09V123.32Z" stroke="#02435F" stroke-width="0.351" stroke-miterlimit="10"/>
<path d="M465.87 123.32V135.57" stroke="#02435F" stroke-width="0.351" stroke-miterlimit="10"/>
<path d="M468.85 125.12H462.87" stroke="#02435F" stroke-width="0.351" stroke-miterlimit="10"/>
<path d="M468.85 126.22H462.87" stroke="#02435F" stroke-width="0.351" stroke-miterlimit="10"/>
<path d="M468.85 127.32H462.87" stroke="#02435F" stroke-width="0.351" stroke-miterlimit="10"/>
<path d="M468.85 130.76H462.87" stroke="#02435F" stroke-width="0.351" stroke-miterlimit="10"/>
<path d="M468.85 131.57H462.87" stroke="#02435F" stroke-width="0.351" stroke-miterlimit="10"/>
<path d="M468.85 132.72H462.87" stroke="#02435F" stroke-width="0.351" stroke-miterlimit="10"/>
<path d="M468.85 133.74H462.87" stroke="#02435F" stroke-width="0.351" stroke-miterlimit="10"/>
<path d="M552.13 68.1V79.4C552.13 80.65 553.07 81.69 554.31 81.81L608.84 87.33L609.02 74.55L552.13 68.1Z" fill="white"/>
<path d="M552.13 68.1V79.4C552.13 80.65 553.07 81.69 554.31 81.81L608.84 87.33L609.02 74.55L552.13 68.1Z" stroke="#02435F" stroke-width="0.702" stroke-miterlimit="10"/>
<path d="M537.79 159.69V127.4H548.96C550.23 127.4 551.27 128.43 551.27 129.71V157.39C551.27 158.66 550.24 159.7 548.96 159.7H537.79V159.69Z" stroke="#02435F" stroke-width="0.351" stroke-miterlimit="10"/>
<path d="M537.71 131.01V128.46H549.78C550.56 128.46 551.19 129.09 551.19 129.87V131.01H537.71V131.01Z" stroke="#02435F" stroke-width="0.351" stroke-miterlimit="10"/>
<path d="M558.62 159.43L567.53 150.52L575.33 158.32C575.94 158.93 575.94 159.93 575.33 160.54L568.64 167.23C568.03 167.84 567.03 167.84 566.42 167.23L558.62 159.43Z" stroke="#02435F" stroke-width="0.351" stroke-miterlimit="10"/>
<path d="M567.73 152.877L561.211 159.396L568.841 167.026L575.36 160.506L567.73 152.877Z" stroke="#02435F" stroke-width="0.351" stroke-miterlimit="10"/>
<path d="M568.845 153.983L562.325 160.503L568.845 167.022L575.364 160.503L568.845 153.983Z" stroke="#02435F" stroke-width="0.351" stroke-miterlimit="10"/>
<path d="M633.91 125.01L642.82 116.1L650.62 123.9C651.23 124.51 651.23 125.51 650.62 126.12L643.93 132.81C643.32 133.42 642.32 133.42 641.71 132.81L633.91 125.01Z" stroke="#02435F" stroke-width="0.351" stroke-miterlimit="10"/>
<path d="M643.018 118.456L636.498 124.975L644.128 132.605L650.647 126.085L643.018 118.456Z" stroke="#02435F" stroke-width="0.351" stroke-miterlimit="10"/>
<path d="M644.131 119.563L637.611 126.082L644.131 132.601L650.65 126.082L644.131 119.563Z" stroke="#02435F" stroke-width="0.351" stroke-miterlimit="10"/>
<path d="M665.591 115.64L674.501 124.55L666.701 132.35C666.091 132.96 665.091 132.96 664.481 132.35L657.791 125.66C657.181 125.05 657.181 124.05 657.791 123.44L665.591 115.64Z" stroke="#02435F" stroke-width="0.351" stroke-miterlimit="10"/>
<path d="M665.62 118.237L657.99 125.867L664.51 132.386L672.139 124.757L665.62 118.237Z" stroke="#02435F" stroke-width="0.351" stroke-miterlimit="10"/>
<path d="M664.514 119.35L657.994 125.87L664.514 132.389L671.033 125.87L664.514 119.35Z" stroke="#02435F" stroke-width="0.351" stroke-miterlimit="10"/>
<path d="M674.501 146.89L665.591 155.8L657.791 148C657.181 147.39 657.181 146.39 657.791 145.78L664.481 139.09C665.091 138.48 666.091 138.48 666.701 139.09L674.501 146.89Z" stroke="#02435F" stroke-width="0.351" stroke-miterlimit="10"/>
<path d="M664.269 139.306L657.749 145.825L665.379 153.455L671.898 146.935L664.269 139.306Z" stroke="#02435F" stroke-width="0.351" stroke-miterlimit="10"/>
<path d="M664.272 139.302L657.753 145.821L664.272 152.341L670.792 145.821L664.272 139.302Z" stroke="#02435F" stroke-width="0.351" stroke-miterlimit="10"/>
<path d="M643.62 156.39L634.71 147.48L642.51 139.68C643.12 139.07 644.12 139.07 644.73 139.68L651.42 146.37C652.03 146.98 652.03 147.98 651.42 148.59L643.62 156.39Z" stroke="#02435F" stroke-width="0.351" stroke-miterlimit="10"/>
<path d="M644.685 139.654L637.056 147.283L643.575 153.803L651.205 146.173L644.685 139.654Z" stroke="#02435F" stroke-width="0.351" stroke-miterlimit="10"/>
<path d="M644.689 139.657L638.17 146.176L644.689 152.695L651.209 146.176L644.689 139.657Z" stroke="#02435F" stroke-width="0.351" stroke-miterlimit="10"/>
<path d="M387.421 184.34L387.411 191C387.411 191.96 386.631 192.73 385.671 192.73L378.841 192.72C377.971 192.72 377.271 192.01 377.271 191.15L377.281 184.16C377.281 183.29 377.991 182.59 378.851 182.59L385.681 182.6C386.641 182.6 387.421 183.38 387.421 184.34Z" stroke="#02435F" stroke-width="0.351" stroke-miterlimit="10"/>
<path d="M385.961 185.83L385.951 189.77C385.951 190.73 385.171 191.5 384.211 191.5L377.271 191.49L377.281 184.07L384.221 184.08C385.191 184.1 385.961 184.88 385.961 185.83Z" stroke="#02435F" stroke-width="0.351" stroke-miterlimit="10"/>
<path d="M384.701 185.33L384.691 190.27C384.691 190.95 384.131 191.51 383.451 191.5L377.271 191.49L377.281 184.08L383.461 184.09C384.151 184.1 384.701 184.65 384.701 185.33Z" stroke="#02435F" stroke-width="0.351" stroke-miterlimit="10"/>
<path d="M567.53 196.55L558.62 187.64L566.42 179.84C567.03 179.23 568.03 179.23 568.64 179.84L575.33 186.53C575.94 187.14 575.94 188.14 575.33 188.75L567.53 196.55Z" stroke="#02435F" stroke-width="0.351" stroke-miterlimit="10"/>
<path d="M568.605 179.808L560.976 187.438L567.495 193.957L575.125 186.328L568.605 179.808Z" stroke="#02435F" stroke-width="0.351" stroke-miterlimit="10"/>
<path d="M568.601 179.805L562.082 186.324L568.601 192.844L575.121 186.324L568.601 179.805Z" stroke="#02435F" stroke-width="0.351" stroke-miterlimit="10"/>
<path d="M579.911 181.33C575.621 181.33 572.141 177.85 572.141 173.57C572.141 169.28 575.621 165.8 579.911 165.8C584.201 165.8 587.671 169.28 587.671 173.57C587.681 177.85 584.201 181.33 579.911 181.33Z" fill="white"/>
<path d="M579.911 181.33C575.621 181.33 572.141 177.85 572.141 173.57C572.141 169.28 575.621 165.8 579.911 165.8C584.201 165.8 587.671 169.28 587.671 173.57C587.681 177.85 584.201 181.33 579.911 181.33Z" stroke="#02435F" stroke-width="0.702" stroke-miterlimit="10"/>
<path d="M653.98 145.45C648.85 145.45 644.69 141.29 644.69 136.16C644.69 131.03 648.85 126.87 653.98 126.87C659.11 126.87 663.27 131.03 663.27 136.16C663.28 141.29 659.12 145.45 653.98 145.45Z" fill="white"/>
<path d="M653.98 145.45C648.85 145.45 644.69 141.29 644.69 136.16C644.69 131.03 648.85 126.87 653.98 126.87C659.11 126.87 663.27 131.03 663.27 136.16C663.28 141.29 659.12 145.45 653.98 145.45Z" stroke="#02435F" stroke-width="0.702" stroke-miterlimit="10"/>
<path d="M609.03 155.89H599.71V193.49H609.03V155.89Z" fill="white"/>
<path d="M609.03 155.89H599.71V193.49H609.03V155.89Z" stroke="#02435F" stroke-width="0.702" stroke-miterlimit="10"/>
<path d="M417.95 77.4V73.98C417.95 72.72 418.97 71.71 420.22 71.71H427.55C428.81 71.71 429.82 72.73 429.82 73.98V77.4C429.82 78.66 428.8 79.67 427.55 79.67H420.22C418.97 79.67 417.95 78.66 417.95 77.4Z" stroke="#02435F" stroke-width="0.351" stroke-miterlimit="10"/>
<path d="M428.47 71.9V79.46" stroke="#02435F" stroke-width="0.351" stroke-miterlimit="10"/>
<path d="M498.311 162.76V124.75H534.891C535.681 124.75 536.311 125.39 536.311 126.17V161.33C536.311 162.12 535.671 162.75 534.891 162.75H498.311V162.76Z" fill="white"/>
<path d="M498.311 162.76V124.75H534.891C535.681 124.75 536.311 125.39 536.311 126.17V161.33C536.311 162.12 535.671 162.75 534.891 162.75H498.311V162.76Z" stroke="#02435F" stroke-width="0.351" stroke-miterlimit="10"/>
<path d="M533.25 124.75H514.12V162.76H533.25V124.75Z" stroke="#02435F" stroke-width="0.351" stroke-miterlimit="10"/>
<path d="M533.84 125.11H520.34V162.38H533.84V125.11Z" fill="#8FBAB8"/>
<path d="M504.27 128.54H507.69C508.95 128.54 509.96 129.56 509.96 130.81V138.14C509.96 139.4 508.94 140.41 507.69 140.41H504.27C503.01 140.41 502 139.39 502 138.14V130.81C501.99 129.56 503.01 128.54 504.27 128.54Z" stroke="#02435F" stroke-width="0.351" stroke-miterlimit="10"/>
<path d="M509.77 139.06H502.21" stroke="#02435F" stroke-width="0.351" stroke-miterlimit="10"/>
<path d="M504.27 145.66H507.69C508.95 145.66 509.96 146.68 509.96 147.93V155.26C509.96 156.52 508.94 157.53 507.69 157.53H504.27C503.01 157.53 502 156.51 502 155.26V147.93C501.99 146.68 503.01 145.66 504.27 145.66Z" stroke="#02435F" stroke-width="0.351" stroke-miterlimit="10"/>
<path d="M509.77 156.17H502.21" stroke="#02435F" stroke-width="0.351" stroke-miterlimit="10"/>
<path d="M378.84 170.68H376.55V103.32H364.47V170.68V173.42V204.26H380.75V172.6C380.76 171.54 379.9 170.68 378.84 170.68Z" fill="white"/>
<path d="M378.84 170.68H376.55V103.32H364.47V170.68V173.42V204.26H380.75V172.6C380.76 171.54 379.9 170.68 378.84 170.68Z" stroke="#02435F" stroke-width="0.702" stroke-miterlimit="10"/>
<path d="M318.66 153.79V147.3H289.73L318.66 153.79Z" fill="#02435F"/>
<path d="M318.66 132.68V126.19H289.73L318.66 132.68Z" fill="#02435F"/>
<path d="M292.181 126.19V147.3" stroke="#02435F" stroke-width="0.351" stroke-miterlimit="10"/>
<path d="M289.73 126.19V147.3" stroke="#02435F" stroke-width="0.351" stroke-miterlimit="10"/>
<path d="M295.98 126.19V147.3" stroke="#02435F" stroke-width="0.351" stroke-miterlimit="10"/>
<path d="M299.54 126.19V147.3" stroke="#02435F" stroke-width="0.351" stroke-miterlimit="10"/>
<path d="M303.341 126.19V147.3" stroke="#02435F" stroke-width="0.351" stroke-miterlimit="10"/>
<path d="M307.261 126.19V147.3" stroke="#02435F" stroke-width="0.351" stroke-miterlimit="10"/>
<path d="M311.19 126.19V147.3" stroke="#02435F" stroke-width="0.351" stroke-miterlimit="10"/>
<path d="M314.74 126.19V147.3" stroke="#02435F" stroke-width="0.351" stroke-miterlimit="10"/>
<path d="M318.66 126.19V153.79" stroke="#02435F" stroke-width="0.351" stroke-miterlimit="10"/>
<path d="M364.001 83.7V80.28H333.561L364.001 83.7Z" fill="#02435F"/>
<path d="M364.001 72.6V69.18H333.561L364.001 72.6Z" fill="#02435F"/>
<path d="M336.141 69.18V80.28" stroke="#02435F" stroke-width="0.261" stroke-miterlimit="10"/>
<path d="M333.561 69.18V80.28" stroke="#02435F" stroke-width="0.261" stroke-miterlimit="10"/>
<path d="M340.141 69.18V80.28" stroke="#02435F" stroke-width="0.261" stroke-miterlimit="10"/>
<path d="M343.881 69.18V80.28" stroke="#02435F" stroke-width="0.261" stroke-miterlimit="10"/>
<path d="M347.881 69.18V80.28" stroke="#02435F" stroke-width="0.261" stroke-miterlimit="10"/>
<path d="M352.011 69.18V80.28" stroke="#02435F" stroke-width="0.261" stroke-miterlimit="10"/>
<path d="M356.131 69.18V80.28" stroke="#02435F" stroke-width="0.261" stroke-miterlimit="10"/>
<path d="M359.87 69.18V80.28" stroke="#02435F" stroke-width="0.261" stroke-miterlimit="10"/>
<path d="M364.001 69.18V83.7" stroke="#02435F" stroke-width="0.261" stroke-miterlimit="10"/>
<path d="M399.44 109.26H413.58V68.22H397.77V68.39H365.42V68.09H364.29V103.52H380.24C381.16 103.52 381.9 102.76 381.9 101.82V87.57C381.9 86.9 382.43 86.35 383.09 86.35H396.58C397.24 86.35 397.77 86.9 397.77 87.57V107.55C397.78 108.5 398.52 109.26 399.44 109.26Z" fill="#02435F"/>
<path d="M400.33 107.3H410.16C410.71 107.3 411.17 106.84 411.17 106.27V84.99V69.07H399.33H380.38H373.82H365.44V101.36C365.44 101.93 365.89 102.39 366.45 102.39H379.39C379.94 102.39 380.4 101.93 380.4 101.36V87.62C380.4 86.16 381.56 84.98 382.98 84.98H396.76C398.19 84.98 399.34 86.16 399.34 87.62V106.26C399.32 106.84 399.77 107.3 400.33 107.3Z" fill="white"/>
<path d="M412.21 87.15H398.41" stroke="#02435F" stroke-width="0.347" stroke-miterlimit="10"/>
<path d="M381.51 87.15H364.29" stroke="#02435F" stroke-width="0.347" stroke-miterlimit="10"/>
<path d="M395.851 68.22V84.95" stroke="#02435F" stroke-width="0.347" stroke-miterlimit="10"/>
<path d="M384.03 67.98V84.95" stroke="#02435F" stroke-width="0.347" stroke-miterlimit="10"/>
<path d="M604.78 163.3H603.58V186.4H604.78V163.3Z" fill="#02435F"/>
<path d="M606.17 168.81H602.2V180.89H606.17V168.81Z" fill="#02435F"/>
<path d="M514.64 196.4L506.87 198.42C506.01 198.64 505.13 198.13 504.91 197.27L504.14 194.29C503.92 193.43 504.43 192.55 505.29 192.33L513.06 190.31C513.92 190.09 514.8 190.6 515.02 191.46L515.8 194.44C516.02 195.3 515.5 196.18 514.64 196.4Z" fill="#8FBAB8"/>
<path d="M514.64 196.4L506.87 198.42C506.01 198.64 505.13 198.13 504.91 197.27L504.14 194.29C503.92 193.43 504.43 192.55 505.29 192.33L513.06 190.31C513.92 190.09 514.8 190.6 515.02 191.46L515.8 194.44C516.02 195.3 515.5 196.18 514.64 196.4Z" stroke="#02435F" stroke-width="0.351" stroke-miterlimit="10"/>
<path d="M530.751 199.68L522.761 198.85C521.871 198.76 521.231 197.97 521.331 197.08L521.651 194.02C521.741 193.14 522.531 192.49 523.421 192.59L531.411 193.42C532.291 193.51 532.941 194.3 532.841 195.19L532.521 198.25C532.431 199.13 531.641 199.77 530.751 199.68Z" fill="#8FBAB8"/>
<path d="M530.751 199.68L522.761 198.85C521.871 198.76 521.231 197.97 521.331 197.08L521.651 194.02C521.741 193.14 522.531 192.49 523.421 192.59L531.411 193.42C532.291 193.51 532.941 194.3 532.841 195.19L532.521 198.25C532.431 199.13 531.641 199.77 530.751 199.68Z" stroke="#02435F" stroke-width="0.351" stroke-miterlimit="10"/>
<path d="M375.76 78.07H369.11C368.07 78.07 367.22 77.22 367.22 76.18V73.7C367.22 72.66 368.07 71.81 369.11 71.81H375.76C376.8 71.81 377.65 72.66 377.65 73.7V76.17C377.66 77.22 376.81 78.07 375.76 78.07Z" fill="#8FBAB8"/>
<path d="M375.76 78.07H369.11C368.07 78.07 367.22 77.22 367.22 76.18V73.7C367.22 72.66 368.07 71.81 369.11 71.81H375.76C376.8 71.81 377.65 72.66 377.65 73.7V76.17C377.66 77.22 376.81 78.07 375.76 78.07Z" stroke="#02435F" stroke-width="0.347" stroke-miterlimit="10"/>
<path d="M378.27 79.51L371.63 80.42C370.61 80.56 369.67 79.82 369.53 78.78L369.21 76.37C369.07 75.32 369.79 74.36 370.82 74.22L377.46 73.31C378.48 73.17 379.42 73.91 379.56 74.95L379.87 77.36C380.01 78.41 379.29 79.37 378.27 79.51Z" fill="#8FBAB8"/>
<path d="M378.27 79.51L371.63 80.42C370.61 80.56 369.67 79.82 369.53 78.78L369.21 76.37C369.07 75.32 369.79 74.36 370.82 74.22L377.46 73.31C378.48 73.17 379.42 73.91 379.56 74.95L379.87 77.36C380.01 78.41 379.29 79.37 378.27 79.51Z" stroke="#02435F" stroke-width="0.347" stroke-miterlimit="10"/>
<path d="M406.75 79.66H400.1C399.06 79.66 398.21 78.81 398.21 77.77V75.3C398.21 74.25 399.06 73.41 400.1 73.41H406.75C407.79 73.41 408.64 74.26 408.64 75.3V77.77C408.64 78.81 407.79 79.66 406.75 79.66Z" fill="#8FBAB8"/>
<path d="M406.75 79.66H400.1C399.06 79.66 398.21 78.81 398.21 77.77V75.3C398.21 74.25 399.06 73.41 400.1 73.41H406.75C407.79 73.41 408.64 74.26 408.64 75.3V77.77C408.64 78.81 407.79 79.66 406.75 79.66Z" stroke="#02435F" stroke-width="0.347" stroke-miterlimit="10"/>
<path d="M409.25 81.1L402.61 82.01C401.59 82.15 400.65 81.41 400.51 80.37L400.19 77.96C400.05 76.91 400.77 75.95 401.8 75.81L408.44 74.9C409.46 74.76 410.4 75.5 410.54 76.54L410.85 78.95C411 80 410.28 80.96 409.25 81.1Z" fill="#8FBAB8"/>
<path d="M409.25 81.1L402.61 82.01C401.59 82.15 400.65 81.41 400.51 80.37L400.19 77.96C400.05 76.91 400.77 75.95 401.8 75.81L408.44 74.9C409.46 74.76 410.4 75.5 410.54 76.54L410.85 78.95C411 80 410.28 80.96 409.25 81.1Z" stroke="#02435F" stroke-width="0.347" stroke-miterlimit="10"/>
<path d="M432.31 92.53H415.49V105H432.31V92.53Z" fill="#8FBAB8"/>
<path d="M376.55 170.68H364.47" stroke="#02435F" stroke-width="0.75" stroke-miterlimit="10"/>
<path d="M331.99 98.09H356.54V111.92H332.17C331.37 111.92 330.71 111.27 330.71 110.46V99.36C330.71 98.66 331.28 98.09 331.99 98.09Z" fill="white"/>
<path d="M331.99 98.09H356.54V111.92H332.17C331.37 111.92 330.71 111.27 330.71 110.46V99.36C330.71 98.66 331.28 98.09 331.99 98.09Z" stroke="#02435F" stroke-width="0.282" stroke-miterlimit="10"/>
<path d="M348.75 106.52V101.16C348.75 100.32 349.43 99.64 350.27 99.64H352.26C353.1 99.64 353.78 100.32 353.78 101.16V106.52C353.78 107.36 353.1 108.04 352.26 108.04H350.27C349.43 108.04 348.75 107.36 348.75 106.52Z" fill="#8FBAB8"/>
<path d="M348.75 106.52V101.16C348.75 100.32 349.43 99.64 350.27 99.64H352.26C353.1 99.64 353.78 100.32 353.78 101.16V106.52C353.78 107.36 353.1 108.04 352.26 108.04H350.27C349.43 108.04 348.75 107.36 348.75 106.52Z" stroke="#02435F" stroke-width="0.279" stroke-miterlimit="10"/>
<path d="M347.59 108.54L346.86 103.2C346.75 102.38 347.34 101.62 348.18 101.51L350.12 101.26C350.96 101.15 351.74 101.73 351.85 102.55L352.58 107.89C352.69 108.71 352.1 109.47 351.26 109.58L349.32 109.83C348.48 109.94 347.7 109.36 347.59 108.54Z" fill="#8FBAB8"/>
<path d="M347.59 108.54L346.86 103.2C346.75 102.38 347.34 101.62 348.18 101.51L350.12 101.26C350.96 101.15 351.74 101.73 351.85 102.55L352.58 107.89C352.69 108.71 352.1 109.47 351.26 109.58L349.32 109.83C348.48 109.94 347.7 109.36 347.59 108.54Z" stroke="#02435F" stroke-width="0.279" stroke-miterlimit="10"/>
<path d="M331.99 120.49H356.54V134.32H332.17C331.37 134.32 330.71 133.67 330.71 132.86V121.76C330.71 121.06 331.28 120.49 331.99 120.49Z" fill="white"/>
<path d="M331.99 120.49H356.54V134.32H332.17C331.37 134.32 330.71 133.67 330.71 132.86V121.76C330.71 121.06 331.28 120.49 331.99 120.49Z" stroke="#02435F" stroke-width="0.282" stroke-miterlimit="10"/>
<path d="M348.75 128.91V123.55C348.75 122.71 349.43 122.03 350.27 122.03H352.26C353.1 122.03 353.78 122.71 353.78 123.55V128.91C353.78 129.75 353.1 130.43 352.26 130.43H350.27C349.43 130.43 348.75 129.75 348.75 128.91Z" fill="#8FBAB8"/>
<path d="M348.75 128.91V123.55C348.75 122.71 349.43 122.03 350.27 122.03H352.26C353.1 122.03 353.78 122.71 353.78 123.55V128.91C353.78 129.75 353.1 130.43 352.26 130.43H350.27C349.43 130.43 348.75 129.75 348.75 128.91Z" stroke="#02435F" stroke-width="0.279" stroke-miterlimit="10"/>
<path d="M347.59 130.93L346.86 125.59C346.75 124.77 347.34 124.01 348.18 123.9L350.12 123.65C350.96 123.54 351.74 124.12 351.85 124.94L352.58 130.28C352.69 131.1 352.1 131.86 351.26 131.97L349.32 132.22C348.48 132.33 347.7 131.75 347.59 130.93Z" fill="#8FBAB8"/>
<path d="M347.59 130.93L346.86 125.59C346.75 124.77 347.34 124.01 348.18 123.9L350.12 123.65C350.96 123.54 351.74 124.12 351.85 124.94L352.58 130.28C352.69 131.1 352.1 131.86 351.26 131.97L349.32 132.22C348.48 132.33 347.7 131.75 347.59 130.93Z" stroke="#02435F" stroke-width="0.279" stroke-miterlimit="10"/>
<path d="M331.99 151.08H356.54V164.91H332.17C331.37 164.91 330.71 164.26 330.71 163.45V152.35C330.71 151.65 331.28 151.08 331.99 151.08Z" fill="white"/>
<path d="M331.99 151.08H356.54V164.91H332.17C331.37 164.91 330.71 164.26 330.71 163.45V152.35C330.71 151.65 331.28 151.08 331.99 151.08Z" stroke="#02435F" stroke-width="0.282" stroke-miterlimit="10"/>
<path d="M348.75 159.5V154.14C348.75 153.3 349.43 152.62 350.27 152.62H352.26C353.1 152.62 353.78 153.3 353.78 154.14V159.5C353.78 160.34 353.1 161.02 352.26 161.02H350.27C349.43 161.02 348.75 160.34 348.75 159.5Z" fill="#8FBAB8"/>
<path d="M348.75 159.5V154.14C348.75 153.3 349.43 152.62 350.27 152.62H352.26C353.1 152.62 353.78 153.3 353.78 154.14V159.5C353.78 160.34 353.1 161.02 352.26 161.02H350.27C349.43 161.02 348.75 160.34 348.75 159.5Z" stroke="#02435F" stroke-width="0.279" stroke-miterlimit="10"/>
<path d="M347.59 161.52L346.86 156.18C346.75 155.36 347.34 154.6 348.18 154.49L350.12 154.24C350.96 154.13 351.74 154.71 351.85 155.53L352.58 160.87C352.69 161.69 352.1 162.45 351.26 162.56L349.32 162.81C348.48 162.92 347.7 162.34 347.59 161.52Z" fill="#8FBAB8"/>
<path d="M347.59 161.52L346.86 156.18C346.75 155.36 347.34 154.6 348.18 154.49L350.12 154.24C350.96 154.13 351.74 154.71 351.85 155.53L352.58 160.87C352.69 161.69 352.1 162.45 351.26 162.56L349.32 162.81C348.48 162.92 347.7 162.34 347.59 161.52Z" stroke="#02435F" stroke-width="0.279" stroke-miterlimit="10"/>
<path d="M331.99 173.15H356.54V186.98H332.17C331.37 186.98 330.71 186.33 330.71 185.52V174.42C330.71 173.72 331.28 173.15 331.99 173.15Z" fill="white"/>
<path d="M331.99 173.15H356.54V186.98H332.17C331.37 186.98 330.71 186.33 330.71 185.52V174.42C330.71 173.72 331.28 173.15 331.99 173.15Z" stroke="#02435F" stroke-width="0.282" stroke-miterlimit="10"/>
<path d="M348.75 181.58V176.22C348.75 175.38 349.43 174.7 350.27 174.7H352.26C353.1 174.7 353.78 175.38 353.78 176.22V181.58C353.78 182.42 353.1 183.1 352.26 183.1H350.27C349.43 183.1 348.75 182.42 348.75 181.58Z" fill="#8FBAB8"/>
<path d="M348.75 181.58V176.22C348.75 175.38 349.43 174.7 350.27 174.7H352.26C353.1 174.7 353.78 175.38 353.78 176.22V181.58C353.78 182.42 353.1 183.1 352.26 183.1H350.27C349.43 183.1 348.75 182.42 348.75 181.58Z" stroke="#02435F" stroke-width="0.279" stroke-miterlimit="10"/>
<path d="M347.59 183.59L346.86 178.25C346.75 177.43 347.34 176.67 348.18 176.56L350.12 176.31C350.96 176.2 351.74 176.78 351.85 177.6L352.58 182.94C352.69 183.76 352.1 184.52 351.26 184.63L349.32 184.88C348.48 185 347.7 184.42 347.59 183.59Z" fill="#8FBAB8"/>
<path d="M347.59 183.59L346.86 178.25C346.75 177.43 347.34 176.67 348.18 176.56L350.12 176.31C350.96 176.2 351.74 176.78 351.85 177.6L352.58 182.94C352.69 183.76 352.1 184.52 351.26 184.63L349.32 184.88C348.48 185 347.7 184.42 347.59 183.59Z" stroke="#02435F" stroke-width="0.279" stroke-miterlimit="10"/>
<path d="M638.3 90.74C638.3 98.78 632.99 105.3 626.45 105.3C619.9 105.3 614.6 98.78 614.6 90.74C614.6 82.7 619.91 76.18 626.45 76.18C632.99 76.18 638.3 82.7 638.3 90.74Z" fill="white"/>
<path d="M638.3 90.74C638.3 98.78 632.99 105.3 626.45 105.3C619.9 105.3 614.6 98.78 614.6 90.74C614.6 82.7 619.91 76.18 626.45 76.18C632.99 76.18 638.3 82.7 638.3 90.74Z" stroke="#02435F" stroke-width="0.351" stroke-miterlimit="10"/>
<path d="M637.75 90.55C637.75 97.22 633.92 102.63 629.2 102.63C624.48 102.63 620.65 97.22 620.65 90.55C620.65 83.88 624.48 78.48 629.2 78.48C633.92 78.48 637.75 83.89 637.75 90.55Z" fill="#8FBAB8"/>
<path d="M637.75 90.55C637.75 97.22 633.92 102.63 629.2 102.63C624.48 102.63 620.65 97.22 620.65 90.55C620.65 83.88 624.48 78.48 629.2 78.48C633.92 78.48 637.75 83.89 637.75 90.55Z" stroke="#02435F" stroke-width="0.271" stroke-miterlimit="10"/>
<path d="M638.3 182.95C638.3 190.99 632.99 197.51 626.45 197.51C619.9 197.51 614.6 190.99 614.6 182.95C614.6 174.91 619.91 168.39 626.45 168.39C632.99 168.39 638.3 174.91 638.3 182.95Z" fill="white"/>
<path d="M638.3 182.95C638.3 190.99 632.99 197.51 626.45 197.51C619.9 197.51 614.6 190.99 614.6 182.95C614.6 174.91 619.91 168.39 626.45 168.39C632.99 168.39 638.3 174.91 638.3 182.95Z" stroke="#02435F" stroke-width="0.351" stroke-miterlimit="10"/>
<path d="M637.75 182.76C637.75 189.43 633.92 194.84 629.2 194.84C624.48 194.84 620.65 189.43 620.65 182.76C620.65 176.09 624.48 170.69 629.2 170.69C633.92 170.68 637.75 176.09 637.75 182.76Z" fill="#8FBAB8"/>
<path d="M637.75 182.76C637.75 189.43 633.92 194.84 629.2 194.84C624.48 194.84 620.65 189.43 620.65 182.76C620.65 176.09 624.48 170.69 629.2 170.69C633.92 170.68 637.75 176.09 637.75 182.76Z" stroke="#02435F" stroke-width="0.271" stroke-miterlimit="10"/>
<path d="M481.288 126.891L470.812 134.623L471.501 135.557L481.977 127.824L481.288 126.891Z" stroke="#02435F" stroke-width="0.365" stroke-miterlimit="10"/>
<path d="M480.62 126.18C480.44 126.01 480.26 125.85 480.07 125.7" stroke="#02435F" stroke-width="0.365" stroke-miterlimit="10"/>
<path d="M479 124.92C477.71 124.1 476.23 123.54 474.66 123.33" stroke="#02435F" stroke-width="0.365" stroke-miterlimit="10" stroke-dasharray="1.33 1.33"/>
<path d="M474 123.26C473.76 123.24 473.511 123.23 473.271 123.23" stroke="#02435F" stroke-width="0.365" stroke-miterlimit="10"/>
<path d="M471.505 111.126L470.816 112.06L481.292 119.792L481.981 118.859L471.505 111.126Z" stroke="#02435F" stroke-width="0.365" stroke-miterlimit="10"/>
<path d="M480.62 120.52C480.44 120.69 480.26 120.85 480.07 121" stroke="#02435F" stroke-width="0.365" stroke-miterlimit="10"/>
<path d="M479 121.78C477.71 122.61 476.23 123.16 474.66 123.37" stroke="#02435F" stroke-width="0.365" stroke-miterlimit="10" stroke-dasharray="1.33 1.33"/>
<path d="M474 123.44C473.76 123.46 473.511 123.47 473.271 123.47" stroke="#02435F" stroke-width="0.365" stroke-miterlimit="10"/>
<path d="M405.12 152.62H394.09C391.4 152.62 389.22 150.44 389.22 147.75V141.29C389.22 138.6 391.4 136.42 394.09 136.42H405.12V152.62Z" stroke="#02435F" stroke-width="0.365" stroke-miterlimit="10"/>
<path d="M394.08 136.41V152.62" stroke="#02435F" stroke-width="0.365" stroke-miterlimit="10"/>
<path d="M403.42 136.41V152.62" stroke="#02435F" stroke-width="0.365" stroke-miterlimit="10"/>
<path d="M379.04 131.57H377.66V152.62H379.04V131.57Z" stroke="#02435F" stroke-width="0.365" stroke-miterlimit="10"/>
<path d="M379.88 140.98H377.65V143.21H379.88V140.98Z" fill="white"/>
<path d="M379.88 140.98H377.65V143.21H379.88V140.98Z" stroke="#02435F" stroke-width="0.365" stroke-miterlimit="10"/>
<path d="M379.88 130.46H377.65V132.69H379.88V130.46Z" fill="white"/>
<path d="M379.88 130.46H377.65V132.69H379.88V130.46Z" stroke="#02435F" stroke-width="0.365" stroke-miterlimit="10"/>
<path d="M379.88 151.03H377.65V153.26H379.88V151.03Z" fill="white"/>
<path d="M379.88 151.03H377.65V153.26H379.88V151.03Z" stroke="#02435F" stroke-width="0.365" stroke-miterlimit="10"/>
</svg>
