<svg width="auto" height="auto" viewBox="0 0 13 13" fill="none" xmlns="http://www.w3.org/2000/svg">
<path d="M11.4369 0H1.25989C0.697611 0 0.242188 0.455423 0.242188 1.01771V11.1948C0.242188 11.757 0.697611 12.2125 1.25989 12.2125H6.85727V7.63279H5.33071V5.59738H6.85727V4.28098C6.85727 2.70353 7.82053 1.84459 9.22801 1.84459C9.90224 1.84459 10.4813 1.89497 10.6503 1.91736V3.56604L9.67428 3.56655C8.90896 3.56655 8.76089 3.93038 8.76089 4.46365V5.59738H11.0202L10.5113 7.63279H8.76089V12.2125H11.4369C11.9992 12.2125 12.4546 11.757 12.4546 11.1948V1.01771C12.4546 0.455423 11.9992 0 11.4369 0Z" fill="white"/>
</svg>
