<svg width="93" height="26" viewBox="0 0 93 26" fill="none" xmlns="http://www.w3.org/2000/svg">
<path fill-rule="evenodd" clip-rule="evenodd" d="M36.859 19.0967C36.5983 18.8341 36.1563 18.6768 35.7912 18.6768C35.1226 18.6768 34.653 19.2119 34.653 19.8567C34.653 20.4582 35.061 21.0332 35.8439 21.0332C36.1662 21.0332 36.5455 20.9368 36.7545 20.7795V20.1536H35.7824V19.675H37.2383V21.042C36.8491 21.329 36.2992 21.5106 35.8099 21.5106C34.8278 21.5106 34.0977 20.7695 34.0977 19.8522C34.0977 18.9349 34.8377 18.1982 35.7868 18.1982C36.2805 18.1982 36.8073 18.3988 37.2284 18.7621L36.859 19.0967Z" fill="#FEFEFE"/>
<path fill-rule="evenodd" clip-rule="evenodd" d="M39.693 18.7701V19.7361H40.9642C41.2446 19.7361 41.4822 19.5157 41.4822 19.2487C41.4822 19.1291 41.4338 19.0238 41.3535 18.9374C41.2062 18.7845 41.0357 18.7701 40.8697 18.7701H39.693ZM39.1621 21.4137V18.293H40.8699C41.2823 18.293 41.5682 18.4071 41.7673 18.622C41.9234 18.7904 42.0136 19.0097 42.0136 19.249C42.0136 19.6689 41.7387 19.9902 41.3307 20.1419L42.0708 21.4137H41.4582L40.794 20.2139H39.6933V21.4137H39.1621Z" fill="#FEFEFE"/>
<path fill-rule="evenodd" clip-rule="evenodd" d="M45.3158 21.0336C45.9844 21.0336 46.5112 20.4985 46.5112 19.8482C46.5112 19.2035 45.9844 18.6772 45.3158 18.6772C44.6516 18.6772 44.1348 19.2035 44.1348 19.8482C44.1348 20.4985 44.6516 21.0336 45.3158 21.0336ZM45.317 18.1973C46.2946 18.1973 47.0732 18.934 47.0732 19.8468C47.0732 20.7741 46.2946 21.5108 45.317 21.5108C44.3394 21.5108 43.5762 20.7741 43.5762 19.8468C43.5762 18.934 44.3394 18.1973 45.317 18.1973Z" fill="#FEFEFE"/>
<path fill-rule="evenodd" clip-rule="evenodd" d="M51.5204 18.2949V20.3067C51.5204 21.0767 50.9321 21.512 50.1447 21.512C49.3618 21.512 48.7734 21.0767 48.7734 20.3067V18.2949H49.3046V20.3067C49.3046 20.7753 49.6752 21.0335 50.1447 21.0335C50.6187 21.0335 50.9893 20.7753 50.9893 20.3067V18.2949H51.5204Z" fill="#FEFEFE"/>
<path fill-rule="evenodd" clip-rule="evenodd" d="M54.0348 18.7701V19.7361H55.2114C55.3434 19.7361 55.5293 19.7262 55.681 19.5822C55.7712 19.4969 55.8229 19.3772 55.8229 19.2531C55.8229 19.1291 55.7756 19.0238 55.6953 18.9374C55.5523 18.7845 55.3632 18.7701 55.2114 18.7701H54.0348ZM53.5039 21.4137V18.293H55.2117C55.6483 18.293 55.9188 18.417 56.1079 18.622C56.274 18.8037 56.3554 19.0197 56.3554 19.249C56.3554 19.516 56.2454 19.7509 56.0706 19.9226C55.8858 20.0998 55.6241 20.2139 55.2117 20.2139H54.0351V21.4137H53.5039Z" fill="#FEFEFE"/>
<path fill-rule="evenodd" clip-rule="evenodd" d="M40.4549 5.32244H38.4018V11.9195H36.6049V5.32244H34.0977V4.30434C34.0977 4.05176 34.3011 3.8457 34.5518 3.8457H40.9102V4.8638C40.9102 5.11749 40.7067 5.32244 40.4549 5.32244Z" fill="#FEFEFE"/>
<path fill-rule="evenodd" clip-rule="evenodd" d="M50.3076 4.30324V11.9195H48.5096V8.57391H45.1094V11.9195H43.3125V3.8457H44.6552C44.9059 3.8457 45.1094 4.05065 45.1094 4.30324V7.09717H48.5096V3.8457H49.8523C50.1041 3.8457 50.3076 4.05065 50.3076 4.30324Z" fill="#FEFEFE"/>
<path fill-rule="evenodd" clip-rule="evenodd" d="M55.2656 5.24156V7.09828H59.296V8.44762H55.2656V10.5237H59.1156C59.3674 10.5237 59.5709 10.7286 59.5709 10.9823V11.9195H53.4688V3.8457H59.5709V4.78292C59.5709 5.03551 59.3674 5.24156 59.1156 5.24156H55.2656Z" fill="#FEFEFE"/>
<path fill-rule="evenodd" clip-rule="evenodd" d="M74.3796 3.8457V11.9195H72.6509V6.55545L70.3383 9.71608H70.1546L67.842 6.55545V11.9195H66.1133V3.8457H67.5165C67.6638 3.8457 67.8013 3.9166 67.8871 4.03846L70.247 7.38632L72.6069 4.03846C72.6916 3.9166 72.8301 3.8457 72.9775 3.8457H74.3796Z" fill="#FEFEFE"/>
<path fill-rule="evenodd" clip-rule="evenodd" d="M82.2251 8.84112L81.0573 5.65723L79.8894 8.84112H82.2251ZM82.717 10.2033H79.3959L78.7669 11.9215H76.8887L80.0942 3.84766H81.6987C81.8845 3.84766 82.0517 3.96176 82.121 4.13458L85.2243 11.9215H83.346L82.717 10.2033Z" fill="#FEFEFE"/>
<path fill-rule="evenodd" clip-rule="evenodd" d="M92.1846 9.19031C92.1846 9.56697 92.1527 9.93255 92.0878 10.2859C92.023 10.6393 91.8987 10.9529 91.7151 11.2254C91.5325 11.499 91.2708 11.7184 90.931 11.8834C90.5912 12.0485 90.1469 12.1316 89.5971 12.1316C88.956 12.1316 88.4138 11.9776 87.9717 11.6696C87.6506 11.447 87.412 11.1334 87.2559 10.7291C87.1558 10.4698 87.3053 10.1818 87.5726 10.1153L88.7503 9.82509C88.7734 10.0245 88.8625 10.194 89.0197 10.3325C89.1759 10.471 89.3529 10.5396 89.552 10.5396C89.7576 10.5396 89.9182 10.4876 90.0325 10.3845C90.1469 10.2804 90.2316 10.1519 90.2844 9.99791C90.3372 9.84393 90.3701 9.67665 90.3811 9.49607C90.3932 9.31549 90.3987 9.14821 90.3987 8.99422V3.85059H91.7294C91.9812 3.85059 92.1846 4.05553 92.1846 4.30812V9.19031Z" fill="#FEFEFE"/>
<path fill-rule="evenodd" clip-rule="evenodd" d="M6.13531 19.4466H11.902V13.6372H11.2521V18.4751C11.2521 18.6501 11.1114 18.793 10.9376 18.793H7.09974C6.92489 18.793 6.78413 18.6501 6.78413 18.4751V14.6088C6.78413 14.4337 6.92489 14.2919 7.09974 14.2919H8.37866C8.55241 14.2919 8.69427 14.4337 8.69427 14.6088V16.8687H9.34308V13.6372H6.13531V19.4466ZM12.2192 20.0829H5.82232C5.64857 20.0829 5.50781 19.9411 5.50781 19.7661V13.3219C5.50781 13.1457 5.64857 13.0039 5.82232 13.0039H9.66131C9.83506 13.0039 9.97582 13.1457 9.97582 13.3219V17.1871C9.97582 17.3632 9.83506 17.505 9.66131 17.505H8.38128C8.20753 17.505 8.06567 17.3632 8.06567 17.1871V14.9271H7.41686V18.1586H10.6257V13.3219C10.6257 13.1457 10.7654 13.0039 10.9402 13.0039H12.2192C12.3929 13.0039 12.5348 13.1457 12.5348 13.3219V19.7661C12.5348 19.9411 12.3929 20.0829 12.2192 20.0829Z" fill="#FEFEFE"/>
<path fill-rule="evenodd" clip-rule="evenodd" d="M11.2571 11.7172H11.9059V5.90771H6.14026V11.7172H9.34803V8.48563H8.69812V10.7467C8.69812 10.9217 8.55736 11.0635 8.38361 11.0635H7.10468C6.92983 11.0635 6.78907 10.9217 6.78907 10.7467V6.87928C6.78907 6.70424 6.92983 6.56244 7.10468 6.56244H10.9426C11.1163 6.56244 11.2571 6.70424 11.2571 6.87928V11.7172ZM12.2203 12.3484H10.9413C10.7665 12.3484 10.6257 12.2066 10.6257 12.0316V7.19259H7.41796V10.4252H8.06677V8.16526C8.06677 7.98911 8.20863 7.84731 8.38238 7.84731H9.66131C9.83506 7.84731 9.97692 7.98911 9.97692 8.16526V12.0316C9.97692 12.2066 9.83506 12.3484 9.66131 12.3484H5.82342C5.64967 12.3484 5.50781 12.2066 5.50781 12.0316V5.58735C5.50781 5.41231 5.64967 5.27051 5.82342 5.27051H12.2203C12.394 5.27051 12.5359 5.41231 12.5359 5.58735V12.0316C12.5359 12.2066 12.394 12.3484 12.2203 12.3484Z" fill="#FEFEFE"/>
<path fill-rule="evenodd" clip-rule="evenodd" d="M16.375 11.7172H19.5828V5.90771H13.816V11.7172H14.4649V6.87928C14.4649 6.70424 14.6067 6.56244 14.7805 6.56244H18.6183C18.7921 6.56244 18.9329 6.70424 18.9329 6.87928V10.7467C18.9329 10.9217 18.7921 11.0635 18.6183 11.0635H17.3383C17.1646 11.0635 17.0238 10.9217 17.0238 10.7467V8.48563H16.375V11.7172ZM19.8949 12.3484H16.0571C15.8833 12.3484 15.7426 12.2066 15.7426 12.0316V8.16526C15.7426 7.98911 15.8833 7.84731 16.0571 7.84731H17.336C17.5108 7.84731 17.6516 7.98911 17.6516 8.16526V10.4252H18.3004V7.19259H15.0926V12.0316C15.0926 12.2066 14.9519 12.3484 14.7781 12.3484H13.4981C13.3244 12.3484 13.1836 12.2066 13.1836 12.0316V5.58735C13.1836 5.41231 13.3244 5.27051 13.4981 5.27051H19.8949C20.0698 5.27051 20.2106 5.41231 20.2106 5.58735V12.0316C20.2106 12.2066 20.0698 12.3484 19.8949 12.3484Z" fill="#FEFEFE"/>
<path fill-rule="evenodd" clip-rule="evenodd" d="M13.8125 19.4466H19.5792V13.6372H16.3715V16.8687H17.0203V14.6088C17.0203 14.4337 17.161 14.2919 17.3359 14.2919H18.6148C18.7886 14.2919 18.9293 14.4337 18.9293 14.6088V18.4751C18.9293 18.6501 18.7886 18.793 18.6148 18.793H14.7769C14.6032 18.793 14.4613 18.6501 14.4613 18.4751V13.6372H13.8125V19.4466ZM19.891 20.0829H13.4942C13.3204 20.0829 13.1797 19.9411 13.1797 19.7661V13.3219C13.1797 13.1457 13.3204 13.0039 13.4942 13.0039H14.7742C14.948 13.0039 15.0898 13.1457 15.0898 13.3219V18.1586H18.2976V14.9271H17.6477V17.1871C17.6477 17.3632 17.5069 17.505 17.3332 17.505H16.0543C15.8794 17.505 15.7386 17.3632 15.7386 17.1871V13.3219C15.7386 13.1457 15.8794 13.0039 16.0543 13.0039H19.891C20.0659 13.0039 20.2066 13.1457 20.2066 13.3219V19.7661C20.2066 19.9411 20.0659 20.0829 19.891 20.0829Z" fill="#FEFEFE"/>
<path fill-rule="evenodd" clip-rule="evenodd" d="M13.8125 22.0254H22.1382V3.32861H13.8125V3.98223H21.1738C21.3475 3.98223 21.4883 4.12403 21.4883 4.30018V21.0538C21.4883 21.23 21.3475 21.3718 21.1738 21.3718H13.8125V22.0254ZM22.45 22.6617H13.4942C13.3204 22.6617 13.1797 22.5199 13.1797 22.3448V21.0553C13.1797 20.8803 13.3204 20.7385 13.4942 20.7385H20.8555V4.6185H13.4942C13.3204 4.6185 13.1797 4.4767 13.1797 4.30166V3.01215C13.1797 2.83711 13.3204 2.69531 13.4942 2.69531H22.45C22.6248 2.69531 22.7656 2.83711 22.7656 3.01215V22.3448C22.7656 22.5199 22.6248 22.6617 22.45 22.6617Z" fill="#FEFEFE"/>
<path fill-rule="evenodd" clip-rule="evenodd" d="M3.5824 22.0254H11.9081V21.3718H4.54682C4.37307 21.3718 4.23231 21.23 4.23231 21.0538V4.30018C4.23231 4.12403 4.37307 3.98223 4.54682 3.98223H11.9081V3.32861H3.5824V22.0254ZM12.2195 22.6617H3.26483C3.08998 22.6617 2.94922 22.5199 2.94922 22.3448V3.01215C2.94922 2.83711 3.08998 2.69531 3.26483 2.69531H12.2195C12.3944 2.69531 12.5351 2.83711 12.5351 3.01215V4.30166C12.5351 4.4767 12.3944 4.6185 12.2195 4.6185H4.85936V20.7385H12.2195C12.3944 20.7385 12.5351 20.8803 12.5351 21.0553V22.3448C12.5351 22.5199 12.3944 22.6617 12.2195 22.6617Z" fill="#FEFEFE"/>
<path fill-rule="evenodd" clip-rule="evenodd" d="M1.98148 18.9926C1.80773 18.9926 1.66587 18.8508 1.66587 18.6757V6.68904C1.66587 6.5129 1.80773 6.37109 1.98148 6.37109C2.15633 6.37109 2.29709 6.5129 2.29709 6.68904V18.6757C2.29709 18.8508 2.15633 18.9926 1.98148 18.9926Z" fill="#FEFEFE"/>
<mask id="mask0" mask-type="alpha" maskUnits="userSpaceOnUse" x="0" y="10" width="2" height="6">
<path fill-rule="evenodd" clip-rule="evenodd" d="M0.390773 10.3418H1.25578V15.0179H0.390773V10.3418Z" fill="white"/>
</mask>
<g mask="url(#mask0)">
<path fill-rule="evenodd" clip-rule="evenodd" d="M0.708044 15.0179C0.533194 15.0179 0.392435 14.8761 0.392435 14.7V10.6586C0.392435 10.4836 0.533194 10.3418 0.708044 10.3418C0.881793 10.3418 1.02365 10.4836 1.02365 10.6586V14.7C1.02365 14.8761 0.881793 15.0179 0.708044 15.0179Z" fill="#FEFEFE"/>
</g>
<path fill-rule="evenodd" clip-rule="evenodd" d="M18.8049 2.04416H6.90631C6.73146 2.04416 6.5918 1.90236 6.5918 1.72621C6.5918 1.55117 6.73146 1.40937 6.90631 1.40937H18.8049C18.9797 1.40937 19.1205 1.55117 19.1205 1.72621C19.1205 1.90236 18.9797 2.04416 18.8049 2.04416Z" fill="#FEFEFE"/>
<mask id="mask1" mask-type="alpha" maskUnits="userSpaceOnUse" x="10" y="0" width="6" height="1">
<path fill-rule="evenodd" clip-rule="evenodd" d="M10.5352 0.11826H15.178V0.989566H10.5352V0.11826Z" fill="white"/>
</mask>
<g mask="url(#mask1)">
<path fill-rule="evenodd" clip-rule="evenodd" d="M14.8624 0.751189H10.8508C10.677 0.751189 10.5352 0.609387 10.5352 0.433242C10.5352 0.258206 10.677 0.116404 10.8508 0.116404H14.8624C15.0362 0.116404 15.178 0.258206 15.178 0.433242C15.178 0.609387 15.0362 0.751189 14.8624 0.751189Z" fill="#FEFEFE"/>
</g>
<path fill-rule="evenodd" clip-rule="evenodd" d="M18.8049 23.9533H6.90631C6.73146 23.9533 6.5918 23.8115 6.5918 23.6354C6.5918 23.4604 6.73146 23.3186 6.90631 23.3186H18.8049C18.9797 23.3186 19.1205 23.4604 19.1205 23.6354C19.1205 23.8115 18.9797 23.9533 18.8049 23.9533Z" fill="#FEFEFE"/>
<mask id="mask2" mask-type="alpha" maskUnits="userSpaceOnUse" x="10" y="24" width="6" height="2">
<path fill-rule="evenodd" clip-rule="evenodd" d="M10.5352 24.3683H15.178V25.2396H10.5352V24.3683Z" fill="white"/>
</mask>
<g mask="url(#mask2)">
<path fill-rule="evenodd" clip-rule="evenodd" d="M14.8624 25.2414H10.8508C10.677 25.2414 10.5352 25.0996 10.5352 24.9235C10.5352 24.7484 10.677 24.6066 10.8508 24.6066H14.8624C15.0362 24.6066 15.178 24.7484 15.178 24.9235C15.178 25.0996 15.0362 25.2414 14.8624 25.2414Z" fill="#FEFEFE"/>
</g>
<path fill-rule="evenodd" clip-rule="evenodd" d="M23.7334 18.9877C23.5597 18.9877 23.4178 18.8459 23.4178 18.6708V6.68416C23.4178 6.50801 23.5597 6.36621 23.7334 6.36621C23.9072 6.36621 24.049 6.50801 24.049 6.68416V18.6708C24.049 18.8459 23.9072 18.9877 23.7334 18.9877Z" fill="#FEFEFE"/>
<path fill-rule="evenodd" clip-rule="evenodd" d="M25.0133 15.017C24.8384 15.017 24.6977 14.8752 24.6977 14.699V10.6577C24.6977 10.4826 24.8384 10.3408 25.0133 10.3408C25.187 10.3408 25.3278 10.4826 25.3278 10.6577V14.699C25.3278 14.8752 25.187 15.017 25.0133 15.017Z" fill="#FEFEFE"/>
</svg>
