<svg width="75" height="26" viewBox="0 0 75 26" fill="none" xmlns="http://www.w3.org/2000/svg">
<path d="M4.44859 1.04505H3.04747V5.45667H1.82044V1.04505H0.109375V0.365699C0.109375 0.197957 0.249485 0.0595703 0.419317 0.0595703H4.75429V0.738925C4.75854 0.906667 4.62267 1.04505 4.44859 1.04505Z" fill="white"/>
<path d="M13.7645 0.365699V5.45667H12.5374V3.22151H10.2192V5.45667H8.99219V0.0595703H9.90928C10.0791 0.0595703 10.2192 0.197957 10.2192 0.365699V2.23602H12.5374V0.0595703H13.4545C13.6286 0.0595703 13.7645 0.193764 13.7645 0.365699Z" fill="white"/>
<path d="M19.8227 0.990538V2.23183H22.5698V3.13344H19.8227V4.52151H22.4467C22.6165 4.52151 22.7566 4.65989 22.7566 4.82763V5.45667H18.5957V0.0595703H22.7566V0.688603C22.7566 0.856345 22.6165 0.994731 22.4467 0.994731H19.8227V0.990538Z" fill="white"/>
<path d="M38.3513 0.0595703V5.45667H37.171V1.87118L35.5958 3.98473H35.4727L33.8932 1.87118V5.45667H32.7129V0.0595703H33.6682C33.7701 0.0595703 33.8635 0.105699 33.9229 0.18957L35.5321 2.42893L37.1413 0.18957C37.2007 0.109893 37.2941 0.0595703 37.396 0.0595703H38.3513Z" fill="white"/>
<path d="M46.812 4.30763H44.549L44.1201 5.45667H42.8379L45.0245 0.0595703H46.1199C46.2473 0.0595703 46.3619 0.135054 46.4086 0.252474L48.523 5.46086H47.2408L46.812 4.30763ZM46.4766 3.39763L45.6783 1.26731L44.8801 3.39763H46.4766Z" fill="white"/>
<path d="M55.6456 3.62828C55.6456 3.87989 55.6243 4.12312 55.5776 4.36215C55.5352 4.59699 55.4502 4.80667 55.3229 4.99118C55.1997 5.1757 55.0214 5.31828 54.7879 5.43151C54.5544 5.54054 54.2529 5.59925 53.8793 5.59925C53.442 5.59925 53.0726 5.49441 52.7711 5.28893C52.5504 5.13796 52.389 4.92828 52.2829 4.65989C52.2149 4.48796 52.3168 4.29505 52.4994 4.24892L53.3019 4.05602C53.3189 4.19022 53.3783 4.30344 53.4844 4.3957C53.5906 4.48796 53.7137 4.53409 53.8496 4.53409C53.9897 4.53409 54.1001 4.50054 54.1765 4.42925C54.2529 4.35796 54.3124 4.27409 54.3463 4.16925C54.3846 4.06441 54.4058 3.95538 54.4143 3.83376C54.4228 3.71215 54.427 3.60312 54.427 3.49828V0.0595703H55.3356C55.5054 0.0595703 55.6456 0.197957 55.6456 0.365699V3.62828Z" fill="white"/>
<path d="M2.1562 17.9426C2.10525 18.2697 2.08828 18.5423 2.08828 18.8149C2.08828 19.8759 2.41944 20.9159 3.6295 20.9159C4.52961 20.9159 5.49766 20.3539 5.77364 20.0268C5.87554 20.0772 5.9647 20.1484 6.04962 20.2491C5.3066 21.3101 3.97341 22.0439 2.76336 22.0439C1.26034 22.0439 0.496094 20.9326 0.496094 19.293C0.496094 16.4917 2.79732 13.3633 5.21744 13.3633C6.55062 13.3633 7.06861 14.2859 7.06861 15.0533C7.06436 16.6804 4.71218 17.6197 2.1562 17.9426ZM2.22414 17.4478C4.31732 17.0368 5.54436 16.3197 5.54436 15.2252C5.54436 14.8142 5.3533 14.1978 4.61029 14.1978C3.36627 14.202 2.55107 15.892 2.22414 17.4478Z" fill="white"/>
<path d="M12.8432 15.7012C13.9513 14.2837 14.5373 13.3779 15.3694 13.3779C15.7855 13.3779 16.0105 13.7889 16.0105 14.1453C16.0105 14.4179 15.9596 15.0344 15.3694 15.0344C14.9873 15.0344 14.0362 15.0512 12.9663 16.435L12.4143 17.1689L12.8474 18.5024C13.3994 20.1924 13.7475 21.0982 15.2506 21.2366V21.8531H12.4313L11.3614 18.5402L10.4273 19.7521C9.2682 21.136 8.67803 22.0586 7.8501 22.0586C7.43401 22.0586 7.20898 21.6476 7.20898 21.2912C7.20898 21.0186 7.24295 20.4021 7.8501 20.4021C8.21524 20.4021 9.18329 20.3853 10.2532 19.0015L11.1364 17.8734L10.8094 16.846C10.2575 15.156 10.0155 14.2334 8.4063 14.2837V13.6715L11.2255 13.4995L12.2105 16.5231L12.8432 15.7012Z" fill="white"/>
<path d="M18.293 21.9223C18.0849 23.0168 17.9448 23.7172 17.9448 24.1952C17.9448 25.0842 18.3779 25.1513 19.5879 25.2017L19.4648 25.8181L18.5137 25.7846C17.9618 25.7678 17.2527 25.751 16.6286 25.751C16.0936 25.751 15.6606 25.7678 15.3336 25.7846C15.1426 25.8013 14.9855 25.8013 14.8496 25.8013L14.9727 25.2226C16.2677 25.0842 16.3908 24.6062 17.223 20.3204L17.6391 18.2026C17.9151 16.7181 18.0892 15.8291 18.0892 15.2294C18.0892 14.4075 17.7453 14.2901 16.8961 14.2901L17.0362 13.6736L19.9064 13.5017L19.0402 17.7204C20.0083 15.3972 21.2523 13.3633 23.0016 13.3633C24.3178 13.3633 24.9037 14.5417 24.9037 15.9591C24.9037 18.5213 23.0525 22.0397 19.9403 22.0397C19.537 22.0439 18.968 21.9936 18.293 21.9223ZM18.518 20.7607C19.0699 21.1549 19.6092 21.2388 20.004 21.2388C22.2883 21.2388 23.3412 18.5549 23.3412 16.6594C23.3412 15.4978 22.9634 14.592 22.2161 14.592C20.8022 14.5962 19.1591 17.9762 18.518 20.7607Z" fill="white"/>
<path d="M27.5839 17.9426C27.533 18.2697 27.516 18.5423 27.516 18.8149C27.516 19.8759 27.8472 20.9159 29.0572 20.9159C29.9573 20.9159 30.9254 20.3539 31.2014 20.0268C31.3033 20.0772 31.3924 20.1484 31.4774 20.2491C30.7343 21.3101 29.4011 22.0439 28.1911 22.0439C26.6881 22.0439 25.9238 20.9326 25.9238 19.293C25.9238 16.4917 28.2251 13.3633 30.6452 13.3633C31.9784 13.3633 32.4963 14.2859 32.4963 15.0533C32.4963 16.6804 30.1442 17.6197 27.5839 17.9426ZM27.6519 17.4478C29.7451 17.0368 30.9721 16.3197 30.9721 15.2252C30.9721 14.8142 30.781 14.1978 30.038 14.1978C28.794 14.202 27.983 15.892 27.6519 17.4478Z" fill="white"/>
<path d="M38.6692 13.3633C39.3782 13.3633 39.6372 13.6862 39.6372 14.2188C39.6372 14.8184 39.3103 15.1246 38.8051 15.1246C38.372 15.1246 38.147 14.9023 37.871 14.9023C36.61 14.9023 35.3107 19.5991 34.8947 21.8552H33.4935L34.2196 18.1984C34.5125 16.7139 34.6866 15.8417 34.6866 15.242C34.6866 14.4201 34.3215 14.2859 33.4766 14.2859L33.6167 13.6694L36.5208 13.4975L35.7438 17.2884C36.6482 14.7472 37.4761 13.3633 38.6692 13.3633Z" fill="white"/>
<path d="M41.3202 15.2274C41.3202 14.4054 40.9551 14.288 40.1101 14.288L40.2502 13.6715L43.1544 13.4996L42.3944 17.1564C42.0632 18.729 41.8764 19.7019 41.8764 20.3015C41.8764 21.1025 42.2033 21.2409 43.0185 21.2409L42.8784 21.8574H40.0762L40.8362 18.2006C41.1631 16.7119 41.3202 15.8228 41.3202 15.2274ZM43.0313 9.31445C43.4983 9.31445 43.8252 9.70865 43.8252 10.2538C43.8252 10.8703 43.3922 11.3986 42.8572 11.3986C42.3901 11.3986 42.0802 11.038 42.0802 10.4761C42.0802 9.98123 42.4453 9.31445 43.0313 9.31445Z" fill="white"/>
<path d="M46.0566 17.9426C46.0056 18.2697 45.9887 18.5423 45.9887 18.8149C45.9887 19.8759 46.3198 20.9159 47.5299 20.9159C48.43 20.9159 49.3981 20.3539 49.674 20.0268C49.7759 20.0772 49.8651 20.1484 49.95 20.2491C49.207 21.3101 47.8738 22.0439 46.6637 22.0439C45.1607 22.0439 44.3965 20.9326 44.3965 19.293C44.3965 16.4917 46.6977 13.3633 49.1178 13.3633C50.451 13.3633 50.969 14.2859 50.969 15.0533C50.969 16.6804 48.6168 17.6197 46.0566 17.9426ZM46.1288 17.4478C48.222 17.0368 49.449 16.3197 49.449 15.2252C49.449 14.8142 49.2579 14.1978 48.5149 14.1978C47.2709 14.202 46.4557 15.892 46.1288 17.4478Z" fill="white"/>
<path d="M58.2911 13.3633C59.3611 13.3633 59.8111 14.1475 59.8111 15.0197C59.8111 15.2084 59.7941 15.3972 59.7432 15.5817L59.3993 17.1542C59.0511 18.7101 58.8643 19.6494 58.8643 20.2617C58.8643 21.0626 59.2082 21.2346 60.0234 21.2346L59.8833 21.851H56.9791L57.7052 18.383L58.3293 15.6152C58.4142 15.2042 58.3463 14.6088 57.6712 14.6088C55.888 14.6088 53.867 18.7771 53.3829 21.851H51.9818L52.7079 18.1942C53.0008 16.7097 53.1749 15.8375 53.1749 15.2378C53.1749 14.4159 52.814 14.2817 51.9648 14.2817L52.105 13.6652L55.0091 13.4933L54.126 17.6617C55.4379 14.8184 56.839 13.3633 58.2911 13.3633Z" fill="white"/>
<path d="M62.9443 18.7965C62.9443 20.0084 63.2925 20.9143 64.4856 20.9143C65.4536 20.9143 66.3877 20.3523 66.6637 20.0252C66.7656 20.0588 66.8547 20.1259 66.9396 20.2475C66.1966 21.3084 64.8634 22.0423 63.6534 22.0423C62.2013 22.0423 61.3691 21.0191 61.3691 19.241C61.3691 16.7459 63.0632 13.3994 66.1584 13.3994C67.4194 13.3994 68.0605 14.0159 68.0605 14.5778C68.0605 14.9343 67.8185 15.362 67.2496 15.362C66.3495 15.362 66.5915 14.2339 65.4876 14.2339C63.7553 14.2339 62.9443 16.9513 62.9443 18.7965Z" fill="white"/>
<path d="M70.2246 17.9426C70.1736 18.2697 70.1566 18.5423 70.1566 18.8149C70.1566 19.8759 70.4878 20.9159 71.6979 20.9159C72.598 20.9159 73.566 20.3539 73.842 20.0268C73.9439 20.0772 74.0331 20.1484 74.118 20.2491C73.375 21.3101 72.0418 22.0439 70.8317 22.0439C69.3287 22.0439 68.5645 20.9326 68.5645 19.293C68.5645 16.4917 70.8657 13.3633 73.2858 13.3633C74.619 13.3633 75.137 14.2859 75.137 15.0533C75.137 16.6804 72.7848 17.6197 70.2246 17.9426ZM70.2967 17.4478C72.3899 17.0368 73.617 16.3197 73.617 15.2252C73.617 14.8142 73.4259 14.1978 72.6829 14.1978C71.4346 14.202 70.6237 15.892 70.2967 17.4478Z" fill="white"/>
</svg>
