<svg width="192" height="34" viewBox="0 0 192 34" fill="none" xmlns="http://www.w3.org/2000/svg">
<mask id="mask0" mask-type="alpha" maskUnits="userSpaceOnUse" x="0" y="16" width="17" height="18">
<path fill-rule="evenodd" clip-rule="evenodd" d="M0 16.8809H16.7403V33.7233H0V16.8809Z" fill="white"/>
</mask>
<g mask="url(#mask0)">
<path fill-rule="evenodd" clip-rule="evenodd" d="M14.6545 25.3221C14.6545 26.1782 14.4862 26.9964 14.1545 27.7542C13.8211 28.5154 13.366 29.1894 12.8016 29.7573C12.2376 30.325 11.5665 30.7809 10.8068 31.112C10.0501 31.4421 9.23432 31.6096 8.38267 31.6096C7.51416 31.6096 6.68998 31.4421 5.93324 31.1119C5.17319 30.7809 4.50204 30.325 3.93806 29.7573C3.37383 29.1892 2.91882 28.5153 2.58542 27.7542C2.2538 26.9969 2.08557 26.1787 2.08557 25.3221C2.08557 24.4566 2.25393 23.6294 2.5858 22.8635C2.91946 22.0935 3.37498 21.4108 3.93972 20.8343C4.50293 20.2588 5.17408 19.7968 5.93414 19.4611C6.691 19.127 7.5148 18.9576 8.38267 18.9576C9.23381 18.9576 10.0489 19.127 10.8057 19.4611C11.5656 19.7968 12.2369 20.2588 12.8005 20.8344C13.3647 21.4106 13.8202 22.0933 14.154 22.8635C14.4861 23.63 14.6545 24.4571 14.6545 25.3221ZM15.5974 21.0524C15.24 20.4341 14.8022 19.8622 14.296 19.3526C13.79 18.8442 13.2222 18.4018 12.608 18.0379C11.9929 17.6737 11.321 17.3868 10.6115 17.1854C9.89964 16.9833 9.15428 16.8809 8.39563 16.8809C7.62037 16.8809 6.8644 16.9833 6.14841 17.1853C5.43409 17.3867 4.76013 17.6736 4.14518 18.038C3.53075 18.4018 2.96294 18.8442 2.45696 19.3528C1.95137 19.8618 1.51168 20.4332 1.15005 21.0512C0.787904 21.6699 0.502787 22.3504 0.30249 23.0736C0.101809 23.7974 0 24.5558 0 25.3277C0 26.1085 0.101809 26.8673 0.302618 27.5827C0.50317 28.2976 0.788288 28.9736 1.15005 29.5917C1.51194 30.2104 1.952 30.78 2.45786 31.2843C2.96333 31.7883 3.53126 32.2265 4.14621 32.5864C4.76153 32.9464 5.43549 33.2288 6.14982 33.4259C6.8644 33.6233 7.61999 33.7233 8.39563 33.7233C9.15453 33.7233 9.89952 33.6233 10.6099 33.4259C11.3199 33.2287 11.9915 32.9463 12.607 32.5864C13.2215 32.2265 13.7897 31.7883 14.2952 31.2843C14.8013 30.7795 15.2395 30.2096 15.5974 29.5905C15.9549 28.9719 16.2378 28.2964 16.4378 27.5827C16.6386 26.8666 16.7404 26.1078 16.7404 25.3277C16.7404 24.5564 16.6386 23.798 16.4381 23.0736C16.2381 22.3515 15.9552 21.6715 15.5974 21.0524Z" fill="#232323"/>
</g>
<path fill-rule="evenodd" clip-rule="evenodd" d="M45.9987 17.6553C45.9353 17.8916 45.8702 18.0834 45.8054 18.2246C45.7403 18.3662 45.6769 18.4836 45.6174 18.5728C45.564 18.6527 45.5084 18.7169 45.4528 18.7633C45.4292 18.7829 45.4061 18.8017 45.3835 18.82C45.0324 18.6182 44.6734 18.4493 44.3139 18.3169C43.9028 18.1658 43.4897 18.0518 43.0862 17.9781C42.6836 17.9045 42.2827 17.8608 41.8951 17.8482C41.5105 17.8353 41.1404 17.8419 40.7837 17.8688C40.0757 17.955 39.3879 18.1299 38.7398 18.3887C38.0918 18.6475 37.483 18.984 36.9306 19.3893C36.376 19.7958 35.8759 20.2799 35.4434 20.8281C35.0111 21.3762 34.6519 21.9778 34.3757 22.6159L34.3544 22.6649V22.6848C34.3453 22.7114 34.3235 22.7704 34.272 22.8992C34.2006 23.0773 34.1274 23.3094 34.0478 23.6087C33.9705 23.9005 33.8968 24.2329 33.8293 24.5965C33.7596 24.9702 33.7241 25.3714 33.7241 25.789C33.7241 26.5146 33.8183 27.2217 34.0045 27.8905C34.1901 28.5585 34.4553 29.1927 34.7925 29.7751C35.1296 30.3581 35.5419 30.8965 36.0175 31.3758C36.4936 31.8554 37.0311 32.2715 37.6148 32.6123C38.1976 32.953 38.8302 33.224 39.4944 33.4175C40.1605 33.6121 40.8666 33.7151 41.5965 33.7237C42.5728 33.7237 43.5216 33.5529 44.4167 33.2164C45.3094 32.8805 46.1384 32.3958 46.8802 31.7758L46.9727 31.6986V29.2206L46.5544 29.5512C46.3597 29.705 46.1092 29.8826 45.8099 30.0791C45.506 30.2785 45.1893 30.4753 44.8688 30.664C44.5491 30.8524 44.2228 31.0268 43.8985 31.1822C43.5849 31.3329 43.3045 31.4365 43.0617 31.4911C42.5264 31.6187 41.9885 31.6656 41.4627 31.6292C40.9327 31.5933 40.4095 31.4897 39.9074 31.3212C39.4075 31.1535 38.9332 30.9148 38.4977 30.6116C38.0605 30.3072 37.6635 29.9456 37.3187 29.5369L37.3172 29.5353C36.8853 29.032 36.5468 28.4511 36.3109 27.8083C36.0747 27.1648 35.9548 26.4854 35.9548 25.789C35.9548 24.9878 36.1011 24.2268 36.3893 23.5272C36.6782 22.8263 37.0891 22.1948 37.6144 21.6461C38.1167 21.0967 38.7218 20.6646 39.4122 20.3616C40.1027 20.0586 40.8587 19.9051 41.6595 19.9051C42.0976 19.9051 42.5382 19.9616 42.9686 20.073C43.4035 20.1858 43.8282 20.3427 44.2308 20.5394C44.6343 20.737 45.0202 20.9775 45.3776 21.2544C45.7351 21.5311 46.0551 21.8341 46.3287 22.1552L46.4062 22.246H46.9727V17.4641H46.05L45.9987 17.6553Z" fill="#232323"/>
<mask id="mask1" mask-type="alpha" maskUnits="userSpaceOnUse" x="63" y="16" width="14" height="18">
<path fill-rule="evenodd" clip-rule="evenodd" d="M63.939 16.8801H76.4742V33.7234H63.939V16.8801Z" fill="white"/>
</mask>
<g mask="url(#mask1)">
<path fill-rule="evenodd" clip-rule="evenodd" d="M63.9641 17.8674L64.1644 17.9141C64.5078 17.9942 64.7837 18.0955 64.984 18.2151C65.1895 18.3382 65.3469 18.4538 65.4613 18.568C65.6108 18.7034 65.714 18.8442 65.7679 18.9858C65.8276 19.1431 65.874 19.3787 65.9063 19.6858V33.7235H76.4742V31.6933H68.2688V26.2387H75.5783V24.1956H68.2688V19.0404H76.4742V16.8801H63.939L63.9641 17.8674Z" fill="#232323"/>
</g>
<path fill-rule="evenodd" clip-rule="evenodd" d="M103.562 26.5756H98.7777L101.17 20.994L103.562 26.5756ZM101.847 16.8618H98.2332V17.9319L98.4696 17.9539C98.5416 17.9607 98.6201 17.9785 98.7025 18.0064C98.7748 18.0311 98.8607 18.0642 98.9606 18.1052C99.0499 18.1419 99.1386 18.1903 99.2241 18.2489L99.252 18.2655C99.5554 18.4212 99.5904 18.5829 99.5904 18.6911C99.5904 18.7206 99.5868 18.774 99.57 18.8596C99.5547 18.9382 99.536 19.0278 99.5136 19.1282L93.3408 33.7236H95.7201L97.9017 28.6193H104.45L106.631 33.7236H108.998L101.915 17.0221L101.847 16.8618Z" fill="#232323"/>
<path fill-rule="evenodd" clip-rule="evenodd" d="M139.012 29.1599L129.481 17.4783L125.86 17.4641V18.5521L126.111 18.5626C126.477 18.5778 126.77 18.6436 126.98 18.758C127.199 18.8775 127.365 18.9992 127.465 19.1109C127.579 19.2498 127.663 19.4028 127.714 19.5659V33.7237H129.656V21.7617L139.119 33.5751L139.198 33.6732H140.916V17.4778H139.012V29.1599Z" fill="#232323"/>
<mask id="mask2" mask-type="alpha" maskUnits="userSpaceOnUse" x="157" y="17" width="5" height="17">
<path fill-rule="evenodd" clip-rule="evenodd" d="M157.821 17.4934H161.932V33.7231H157.821V17.4934Z" fill="white"/>
</mask>
<g mask="url(#mask2)">
<path fill-rule="evenodd" clip-rule="evenodd" d="M157.821 18.4191L158.014 18.4672C158.237 18.5229 158.425 18.5845 158.571 18.6503C158.721 18.7177 158.845 18.7828 158.941 18.8435C159.027 18.8985 159.098 18.9574 159.151 19.0184C159.22 19.0986 159.283 19.1722 159.332 19.2288C159.406 19.327 159.477 19.465 159.541 19.6393C159.604 19.8082 159.636 20.0577 159.636 20.3808V33.7231H161.932V17.4934H157.821V18.4191Z" fill="#232323"/>
</g>
<mask id="mask3" mask-type="alpha" maskUnits="userSpaceOnUse" x="178" y="16" width="15" height="18">
<path fill-rule="evenodd" clip-rule="evenodd" d="M178.325 16.9062H192V33.7234H178.325V16.9062Z" fill="white"/>
</mask>
<g mask="url(#mask3)">
<path fill-rule="evenodd" clip-rule="evenodd" d="M182.34 21.2316C182.859 20.6634 183.483 20.2165 184.196 19.9031C184.909 19.5898 185.689 19.4311 186.516 19.4311C186.968 19.4311 187.423 19.4894 187.867 19.6047C188.316 19.7213 188.754 19.8836 189.17 20.0871C189.586 20.2912 189.984 20.5399 190.354 20.8265C190.723 21.1129 191.053 21.4264 191.336 21.7583L191.415 21.8522H192V16.9062H191.048L190.995 17.104C190.929 17.3491 190.862 17.5474 190.796 17.6927C190.728 17.8403 190.662 17.9616 190.601 18.0531C190.546 18.1356 190.489 18.202 190.431 18.25C190.407 18.2702 190.383 18.2898 190.36 18.3087C189.998 18.1 189.627 17.9253 189.256 17.7884C188.831 17.632 188.405 17.5141 187.989 17.4379C187.573 17.3619 187.159 17.3167 186.759 17.3035C186.362 17.2903 185.98 17.2969 185.612 17.3248C184.881 17.4139 184.171 17.5948 183.502 17.8625C182.833 18.1302 182.205 18.4784 181.635 18.8975C181.062 19.3179 180.546 19.8186 180.099 20.3857C179.654 20.952 179.283 21.5742 178.997 22.2347L178.975 22.2854V22.3061C178.966 22.3333 178.944 22.3948 178.89 22.5279C178.817 22.7121 178.741 22.952 178.659 23.2616C178.58 23.5613 178.504 23.9051 178.433 24.2832C178.361 24.6697 178.325 25.0847 178.325 25.5166C178.325 26.2665 178.422 26.9978 178.614 27.6902C178.806 28.3813 179.079 29.037 179.427 29.6395C179.775 30.2421 180.201 30.7989 180.692 31.2951C181.184 31.7913 181.738 32.2216 182.341 32.574C182.942 32.9264 183.595 33.2066 184.281 33.4069C184.969 33.608 185.697 33.7146 186.451 33.7234C187.459 33.7234 188.438 33.547 189.362 33.1988C190.284 32.8513 191.139 32.3501 191.905 31.7088L192 31.6289V29.0659L191.568 29.4079C191.368 29.567 191.109 29.7507 190.8 29.954C190.488 30.1592 190.161 30.3627 189.829 30.5588C189.499 30.7538 189.162 30.9341 188.827 31.095C188.504 31.2505 188.214 31.3578 187.963 31.4143C187.411 31.5464 186.856 31.5948 186.313 31.5573C185.766 31.52 185.226 31.413 184.707 31.2388C184.191 31.0652 183.702 30.8183 183.252 30.5047C182.801 30.1897 182.391 29.8157 182.035 29.3931L182.034 29.3914C181.588 28.8713 181.239 28.2704 180.995 27.6054C180.751 26.9397 180.627 26.2369 180.627 25.5166C180.627 24.688 180.778 23.9009 181.076 23.1774C181.374 22.4523 181.798 21.7992 182.34 21.2316Z" fill="#232323"/>
</g>
<path fill-rule="evenodd" clip-rule="evenodd" d="M78.5277 1.10122H76.8947V6.02206H75.4646V1.10122H73.4697V0.34162C73.4697 0.152975 73.6317 0 73.8316 0H78.8896V0.759602C78.8896 0.948247 78.7276 1.10122 78.5277 1.10122Z" fill="#232323"/>
<path fill-rule="evenodd" clip-rule="evenodd" d="M86.1147 0.34162V6.02206H84.7219V3.52723H82.0875V6.02206H80.6948V0H81.7354C81.9299 0 82.0875 0.152975 82.0875 0.34162V2.42601H84.7219V0H85.7623C85.9569 0 86.1147 0.152975 86.1147 0.34162Z" fill="#232323"/>
<path fill-rule="evenodd" clip-rule="evenodd" d="M89.944 1.04096V2.42606H93.1255V3.4326H89.944V4.9811H92.9835C93.1818 4.9811 93.3425 5.13408 93.3425 5.32273V6.02206H88.5249V0H93.3425V0.699331C93.3425 0.88798 93.1818 1.04096 92.9835 1.04096H89.944Z" fill="#232323"/>
<path fill-rule="evenodd" clip-rule="evenodd" d="M104.783 0V6.02206H103.398V2.02175L101.545 4.37898H101.398L99.5445 2.02175V6.02206H98.1592V0H99.2831C99.401 0 99.5118 0.0536305 99.5801 0.14381L101.471 2.64121L103.363 0.14381C103.431 0.0536305 103.541 0 103.659 0H104.783Z" fill="#232323"/>
<path fill-rule="evenodd" clip-rule="evenodd" d="M110.832 3.72465L109.904 1.35026L108.975 3.72465H110.832ZM111.222 4.74023H108.583L108.083 6.02206H106.59L109.138 0H110.413C110.561 0 110.694 0.0849026 110.749 0.214392L113.215 6.02206H111.722L111.222 4.74023Z" fill="#232323"/>
<path fill-rule="evenodd" clip-rule="evenodd" d="M118.032 4.27183C118.032 4.57328 118.009 4.86543 117.961 5.14815C117.914 5.43114 117.824 5.68194 117.69 5.90015C117.557 6.11849 117.366 6.29373 117.119 6.42599C116.872 6.55813 116.548 6.62427 116.147 6.62427C115.68 6.62427 115.285 6.50115 114.963 6.2552C114.729 6.077 114.556 5.82593 114.442 5.50226C114.369 5.29578 114.478 5.06424 114.672 5.01157L115.53 4.77922C115.547 4.93924 115.612 5.07447 115.726 5.18519C115.84 5.29591 115.969 5.35127 116.114 5.35127C116.264 5.35127 116.381 5.30965 116.464 5.22668C116.548 5.14357 116.609 5.04066 116.648 4.91769C116.687 4.79471 116.71 4.66096 116.719 4.5163C116.727 4.37191 116.731 4.23816 116.731 4.11505V0H117.701C117.884 0 118.032 0.163923 118.032 0.366234V4.27183Z" fill="#232323"/>
</svg>
