<svg
  width="100%"
  height="100%"
  viewBox="0 0 319 57"
  xmlns="http://www.w3.org/2000/svg"
  fill="#232323"
>
  <mask
    id="mask0"
    mask-type="alpha"
    maskUnits="userSpaceOnUse"
    x="0"
    y="28"
    width="28"
    height="28"
  >
    <path
      fill-rule="evenodd"
      clip-rule="evenodd"
      d="M0 28.0312H27.7983V55.9992H0V28.0312Z"
    />
  </mask>
  <g mask="url(#mask0)">
    <path
      fill-rule="evenodd"
      clip-rule="evenodd"
      d="M24.3343 42.0491C24.3343 43.4707 24.055 44.8294 23.5041 46.0877C22.9505 47.3518 22.1947 48.4709 21.2575 49.4139C20.321 50.3567 19.2065 51.1138 17.945 51.6636C16.6884 52.2118 15.3338 52.4899 13.9196 52.4899C12.4774 52.4899 11.1088 52.2118 9.85219 51.6633C8.59007 51.1138 7.47559 50.3567 6.53907 49.4139C5.60213 48.4707 4.84656 47.3516 4.29292 46.0877C3.74225 44.8303 3.46289 43.4715 3.46289 42.0491C3.46289 40.6119 3.74247 39.2382 4.29356 37.9664C4.84762 36.6878 5.60404 35.5541 6.54183 34.5968C7.47707 33.6412 8.59156 32.8741 9.85368 32.3166C11.1105 31.7618 12.4785 31.4805 13.9196 31.4805C15.333 31.4805 16.6865 31.7618 17.9431 32.3166C19.205 32.8741 20.3197 33.6412 21.2556 34.597C22.1926 35.5537 22.949 36.6874 23.5033 37.9664C24.0548 39.2392 24.3343 40.6127 24.3343 42.0491ZM25.9004 34.9584C25.3069 33.9316 24.58 32.9819 23.7393 32.1357C22.8991 31.2914 21.9562 30.5568 20.9364 29.9526C19.915 29.3479 18.7992 28.8715 17.6211 28.537C16.439 28.2014 15.2012 28.0312 13.9415 28.0312C12.6541 28.0312 11.3988 28.2014 10.2098 28.5367C9.02364 28.8713 7.90448 29.3477 6.88333 29.9528C5.86303 30.5568 4.92015 31.2914 4.07994 32.1361C3.24036 32.9813 2.51024 33.9301 1.90973 34.9564C1.30836 35.9837 0.834909 37.1137 0.502303 38.3147C0.169061 39.5166 0 40.776 0 42.0578C0 43.3543 0.169061 44.6143 0.502515 45.8023C0.835545 46.9894 1.309 48.112 1.90973 49.1383C2.51067 50.1658 3.24142 51.1116 4.08142 51.949C4.92079 52.786 5.86388 53.5136 6.88503 54.1112C7.90682 54.7091 9.02597 55.178 10.2122 55.5052C11.3988 55.8331 12.6535 55.9992 13.9415 55.9992C15.2017 55.9992 16.4388 55.8331 17.6184 55.5052C18.7973 55.1778 19.9127 54.7088 20.9347 54.1112C21.9552 53.5136 22.8987 52.786 23.7381 51.949C24.5785 51.1107 25.3061 50.1645 25.9004 49.1364C26.4942 48.1092 26.9638 46.9875 27.296 45.8023C27.6294 44.6132 27.7985 43.3532 27.7985 42.0578C27.7985 40.777 27.6294 39.5177 27.2964 38.3147C26.9644 37.1156 26.4946 35.9865 25.9004 34.9584Z"
    />
  </g>
  <path
    fill-rule="evenodd"
    clip-rule="evenodd"
    d="M76.3827 29.3175C76.2774 29.7099 76.1693 30.0283 76.0617 30.2629C75.9536 30.498 75.8483 30.6929 75.7495 30.8411C75.6608 30.9737 75.5685 31.0803 75.4763 31.1573C75.437 31.1899 75.3987 31.2211 75.3611 31.2516C74.7782 30.9164 74.182 30.636 73.585 30.4161C72.9023 30.1651 72.2164 29.9758 71.5462 29.8535C70.8778 29.7314 70.2121 29.6587 69.5684 29.6378C68.9298 29.6164 68.3152 29.6273 67.7228 29.672C66.5471 29.8151 65.4051 30.1055 64.3288 30.5353C63.2528 30.9651 62.2419 31.524 61.3245 32.197C60.4036 32.8719 59.5731 33.6758 58.855 34.5862C58.1372 35.4963 57.5406 36.4953 57.0819 37.5548L57.0466 37.6362V37.6692C57.0315 37.7135 56.9953 37.8115 56.9098 38.0253C56.7912 38.321 56.6697 38.7065 56.5375 39.2035C56.4091 39.688 56.2867 40.2399 56.1747 40.8437C56.0589 41.4643 56 42.1305 56 42.8239C56 44.0289 56.1564 45.2031 56.4656 46.3136C56.7738 47.4229 57.2142 48.476 57.7741 49.4432C58.3339 50.4113 59.0186 51.3053 59.8083 52.1013C60.5989 52.8977 61.4914 53.5885 62.4607 54.1545C63.4285 54.7203 64.4789 55.1702 65.5818 55.4915C66.6879 55.8147 67.8605 55.9857 69.0725 56C70.6939 56 72.2694 55.7165 73.7557 55.1576C75.2381 54.5998 76.6147 53.795 77.8465 52.7655L78 52.6373V48.5224L77.3055 49.0714C76.9822 49.3268 76.5662 49.6216 76.0693 49.9479C75.5645 50.2791 75.0386 50.6058 74.5064 50.9192C73.9756 51.232 73.4337 51.5217 72.8951 51.7798C72.3745 52.0299 71.9088 52.202 71.5057 52.2927C70.6167 52.5046 69.7235 52.5825 68.8503 52.522C67.9702 52.4624 67.1014 52.2904 66.2677 52.0106C65.4376 51.7321 64.65 51.3357 63.9269 50.8323C63.2008 50.3267 62.5416 49.7263 61.969 49.0476L61.9665 49.0449C61.2493 48.2093 60.6872 47.2446 60.2956 46.1772C59.9033 45.1086 59.7043 43.9804 59.7043 42.8239C59.7043 41.4936 59.947 40.2299 60.4257 39.0681C60.9054 37.9042 61.5877 36.8556 62.4601 35.9444C63.2942 35.0321 64.299 34.3146 65.4454 33.8114C66.5921 33.3084 67.8474 33.0534 69.1772 33.0534C69.9047 33.0534 70.6363 33.1472 71.351 33.3323C72.0732 33.5195 72.7785 33.7801 73.4469 34.1067C74.1171 34.4349 74.7578 34.8342 75.3514 35.294C75.945 35.7534 76.4764 36.2566 76.9307 36.7899L77.0593 36.9406H78V29H76.4678L76.3827 29.3175Z"
  />
  <mask
    id="mask1"
    mask-type="alpha"
    maskUnits="userSpaceOnUse"
    x="106"
    y="28"
    width="21"
    height="29">
    <path
      fill-rule="evenodd"
      clip-rule="evenodd"
      d="M106.176 28.0312H126.991V56.0006H106.176V28.0312Z"
    />
  </mask>
  <g mask="url(#mask1)">
    <path
      fill-rule="evenodd"
      clip-rule="evenodd"
      d="M106.218 29.6707L106.55 29.7481C107.12 29.8812 107.578 30.0494 107.911 30.248C108.252 30.4525 108.514 30.6444 108.704 30.8341C108.952 31.0589 109.123 31.2927 109.213 31.5278C109.312 31.7891 109.389 32.1802 109.443 32.6903V56.0006H126.991V52.6294H113.366V43.5717H125.504V40.1791H113.366V31.6185H126.991V28.0312H106.176L106.218 29.6707Z"
    />
  </g>
  <path
    fill-rule="evenodd"
    clip-rule="evenodd"
    d="M171.972 44.1319H164.027L168 34.8633L171.972 44.1319ZM169.125 28H163.124V29.777L163.517 29.8134C163.636 29.8247 163.767 29.8542 163.903 29.9007C164.023 29.9417 164.166 29.9967 164.332 30.0646C164.48 30.1257 164.628 30.206 164.77 30.3033L164.816 30.3308C165.32 30.5894 165.378 30.858 165.378 31.0376C165.378 31.0866 165.372 31.1752 165.344 31.3175C165.319 31.4479 165.287 31.5967 165.25 31.7634L155 56H158.951L162.574 47.5241H173.447L177.069 56H181L169.237 28.2662L169.125 28Z"
  />
  <path
    fill-rule="evenodd"
    clip-rule="evenodd"
    d="M230.839 48.4215L215.013 29.0236L209 29V30.8067L209.416 30.8242C210.024 30.8494 210.51 30.9587 210.859 31.1485C211.223 31.347 211.499 31.5491 211.665 31.7345C211.854 31.9652 211.993 32.2193 212.078 32.4902V56H215.303V36.1364L231.017 55.7533L231.148 55.9162H234V29.0227H230.839V48.4215Z"
  />
  <mask
    id="mask2"
    mask-type="alpha"
    maskUnits="userSpaceOnUse"
    x="262"
    y="29"
    width="7"
    height="28"
  >
    <path
      fill-rule="evenodd"
      clip-rule="evenodd"
      d="M262.07 29.0508H268.897V56.0012H262.07V29.0508Z"
    />
  </mask>
  <g mask="url(#mask2)">
    <path
      fill-rule="evenodd"
      clip-rule="evenodd"
      d="M262.07 30.5879L262.392 30.6678C262.762 30.7603 263.073 30.8625 263.317 30.9718C263.565 31.0839 263.771 31.1919 263.93 31.2926C264.073 31.384 264.191 31.4818 264.278 31.583C264.394 31.7163 264.499 31.8386 264.579 31.9326C264.703 32.0956 264.82 32.3248 264.928 32.6141C265.032 32.8946 265.084 33.3089 265.084 33.8455V56.0012H268.897V29.0508H262.07V30.5879Z"
    />
  </g>
  <mask
    id="mask3"
    mask-type="alpha"
    maskUnits="userSpaceOnUse"
    x="296"
    y="28"
    width="23"
    height="29">
    <path
      fill-rule="evenodd"
      clip-rule="evenodd"
      d="M296.119 28.0742H318.828V56.0002H296.119V28.0742Z"
    />
  </mask>
  <g mask="url(#mask3)">
    <path
      fill-rule="evenodd"
      clip-rule="evenodd"
      d="M302.787 35.2568C303.649 34.3132 304.685 33.5711 305.869 33.0506C307.053 32.5303 308.349 32.2668 309.721 32.2668C310.472 32.2668 311.227 32.3636 311.965 32.5551C312.71 32.7487 313.438 33.0183 314.129 33.3562C314.819 33.6951 315.481 34.1081 316.094 34.5841C316.707 35.0597 317.256 35.5802 317.725 36.1313L317.857 36.2873H318.828V28.0742H317.247L317.158 28.4026C317.05 28.8096 316.939 29.1389 316.828 29.3802C316.715 29.6253 316.606 29.8267 316.505 29.9787C316.414 30.1156 316.318 30.2259 316.223 30.3055C316.183 30.3392 316.143 30.3717 316.104 30.403C315.503 30.0566 314.888 29.7664 314.271 29.5391C313.566 29.2793 312.858 29.0835 312.167 28.957C311.476 28.8309 310.789 28.7558 310.125 28.7338C309.466 28.7119 308.831 28.723 308.22 28.7692C307.006 28.9173 305.827 29.2177 304.717 29.6622C303.606 30.1067 302.562 30.6849 301.615 31.3808C300.665 32.0789 299.808 32.9104 299.066 33.852C298.326 34.7925 297.71 35.8257 297.236 36.9224L297.199 37.0067V37.0409C297.184 37.0861 297.147 37.1883 297.058 37.4093C296.936 37.7151 296.81 38.1136 296.674 38.6276C296.542 39.1253 296.416 39.6962 296.299 40.3241C296.18 40.9659 296.119 41.6551 296.119 42.3722C296.119 43.6175 296.281 44.8319 296.6 45.9816C296.918 47.1292 297.372 48.2182 297.95 49.2186C298.528 50.2192 299.234 51.1438 300.05 51.9678C300.866 52.7917 301.788 53.5063 302.788 54.0914C303.787 54.6766 304.871 55.142 306.01 55.4745C307.152 55.8085 308.362 55.9854 309.613 56.0002C311.287 56.0002 312.913 55.7072 314.447 55.1289C315.977 54.552 317.398 53.7196 318.67 52.6547L318.828 52.5221V48.2661L318.111 48.8339C317.778 49.0981 317.348 49.4033 316.835 49.7408C316.317 50.0816 315.774 50.4195 315.222 50.7451C314.674 51.0689 314.114 51.3683 313.559 51.6355C313.022 51.8938 312.541 52.072 312.125 52.1657C311.207 52.3852 310.285 52.4655 309.383 52.4032C308.476 52.3413 307.579 52.1636 306.718 51.8742C305.861 51.586 305.048 51.176 304.302 50.6552C303.552 50.1321 302.872 49.5111 302.281 48.8094L302.278 48.8066C301.538 47.9429 300.958 46.9451 300.553 45.8408C300.148 44.7353 299.943 43.5684 299.943 42.3722C299.943 40.9963 300.194 39.6892 300.687 38.4878C301.183 37.2838 301.887 36.1992 302.787 35.2568Z"
    />
  </g>
  <path
    fill-rule="evenodd"
    clip-rule="evenodd"
    d="M130.399 1.82865H127.687V10H125.313V1.82865H122V0.567281C122 0.254025 122.269 0 122.601 0H131V1.26137C131 1.57462 130.731 1.82865 130.399 1.82865Z"
  />
  <path
    fill-rule="evenodd"
    clip-rule="evenodd"
    d="M143 0.567281V10H140.687V5.85718H136.313V10H134V0H135.728C136.051 0 136.313 0.254025 136.313 0.567281V4.02853H140.687V0H142.415C142.738 0 143 0.254025 143 0.567281Z"
  />
  <path
    fill-rule="evenodd"
    clip-rule="evenodd"
    d="M149.356 1.72858V4.02861H154.64V5.70004H149.356V8.27142H154.404C154.733 8.27142 155 8.52545 155 8.83872V10H147V0H155V1.16128C155 1.47454 154.733 1.72858 154.404 1.72858H149.356Z"
  />
  <path
    fill-rule="evenodd"
    clip-rule="evenodd"
    d="M174 0V10H171.699V3.35725L168.622 7.27157H168.378L165.3 3.35725V10H163V0H164.866C165.062 0 165.246 0.0890567 165.36 0.238805L168.5 4.38588L171.64 0.238805C171.754 0.0890567 171.938 0 172.134 0H174Z"
  />
  <path
    fill-rule="evenodd"
    clip-rule="evenodd"
    d="M184.041 6.18566L182.5 2.24285L180.959 6.18566H184.041ZM184.691 7.87144H180.309L179.478 10H177L181.231 0H183.348C183.594 0 183.814 0.140986 183.905 0.356011L188 10H185.522L184.691 7.87144Z"
  />
  <path
    fill-rule="evenodd"
    clip-rule="evenodd"
    d="M196 7.09364C196 7.5942 195.961 8.07934 195.883 8.54882C195.804 9.01875 195.654 9.43522 195.432 9.79756C195.211 10.1601 194.894 10.4511 194.483 10.6708C194.073 10.8902 193.535 11 192.87 11C192.095 11 191.439 10.7956 190.904 10.3871C190.515 10.0912 190.227 9.67432 190.038 9.13684C189.917 8.79396 190.098 8.40948 190.421 8.32202L191.845 7.93619C191.873 8.20191 191.982 8.42647 192.171 8.61033C192.36 8.79418 192.575 8.88611 192.815 8.88611C193.064 8.88611 193.258 8.817 193.397 8.67922C193.535 8.54122 193.637 8.37033 193.701 8.16612C193.766 7.96192 193.805 7.73981 193.819 7.49959C193.833 7.25982 193.839 7.03772 193.839 6.83329V0H195.45C195.754 0 196 0.272204 196 0.608154V7.09364Z"
  />
</svg>
