<svg width="45" height="17" viewBox="0 0 45 17" fill="none" xmlns="http://www.w3.org/2000/svg">
<path d="M9.18488 0.382135C9.222 0.330872 9.29625 0.2771 9.25163 0.210063C9.21675 0.157725 9.13725 0.188554 9.078 0.188554C8.472 0.186762 7.866 0.191422 7.26 0.184252C7.13138 0.182818 7.06125 0.22261 6.99263 0.325495C6.22463 1.47623 5.45138 2.62373 4.67775 3.77124C4.6425 3.82358 4.62375 3.89169 4.5495 3.92037C4.512 3.86408 4.47413 3.8096 4.43813 3.75367C3.699 2.60652 2.95838 1.45974 2.22375 0.31008C2.163 0.214723 2.09925 0.184252 1.98675 0.184969C1.3245 0.18963 0.66225 0.18712 0 0.18712C0 0.222969 0 0.258817 0 0.294665C0.036375 0.342702 0.075 0.389305 0.109125 0.438776C1.25813 2.09282 2.406 3.74794 3.55763 5.40054C3.63113 5.50594 3.65888 5.60918 3.6585 5.73358C3.65513 6.87427 3.65888 8.01532 3.65325 9.15602C3.6525 9.28866 3.68625 9.32881 3.82913 9.3263C4.30988 9.31733 4.79138 9.31375 5.27213 9.32773C5.44913 9.33311 5.47275 9.27467 5.47163 9.12626C5.46525 7.9913 5.47013 6.8567 5.46563 5.72175C5.46525 5.59484 5.50238 5.49554 5.57625 5.39302C6.78188 3.72392 7.98375 2.05303 9.18488 0.382135Z" fill="white"/>
<path d="M42.3205 13.6944C42.2294 13.6941 42.2027 13.722 42.2046 13.8066C42.2099 14.0274 42.2132 14.2486 42.2035 14.4691C42.1982 14.5834 42.2399 14.6075 42.352 14.606C42.8016 14.6003 43.2516 14.6085 43.7012 14.6007C43.8411 14.5981 43.8553 14.6394 43.8216 14.7562C43.7072 15.1534 43.4796 15.4682 43.1117 15.6861C41.7737 16.4788 40.1177 15.7353 39.961 14.2476C39.8774 13.4553 40.129 12.7527 40.8422 12.2741C41.5836 11.7765 42.6745 11.8446 43.4072 12.4175C43.5055 12.4946 43.5621 12.5225 43.6581 12.4139C43.807 12.2458 43.9686 12.0866 44.1385 11.9371C44.2438 11.8446 44.2345 11.797 44.1295 11.7102C43.4597 11.1574 42.6839 10.9 41.8034 10.9448C40.816 10.995 39.9869 11.3521 39.4135 12.1493C38.9222 12.8323 38.785 13.6008 38.8461 14.4164C38.9399 15.6693 39.7765 16.6143 41.0534 16.8993C41.194 16.9308 41.3477 16.9168 41.4752 16.9993C41.5379 16.9993 41.6001 16.9993 41.6627 16.9993C41.7629 16.9993 41.8626 16.9993 41.9627 16.9993C42.0752 16.9993 42.1877 16.9993 42.3002 16.9993C42.3257 16.9756 42.358 16.9831 42.3884 16.9806C43.2958 16.9039 44.0098 16.5056 44.5255 15.7897C44.8067 15.3994 44.9492 14.9591 45.0002 14.4899C45.0002 14.2271 45.0002 13.964 45.0002 13.7012C44.1066 13.7001 43.2137 13.6994 42.3205 13.6944Z" fill="white"/>
<path d="M3.99851 13.588C3.55601 13.4288 3.09439 13.365 2.63014 13.3065C2.29639 13.2642 1.96001 13.2227 1.66414 13.052C1.40501 12.9029 1.32326 12.6627 1.42301 12.3885C1.49126 12.201 1.63339 12.0809 1.81076 11.9956C2.48426 11.6708 3.48214 11.8576 3.97526 12.406C4.03564 12.4731 4.07351 12.472 4.14251 12.4369C4.37351 12.3196 4.60526 12.2028 4.84039 12.0938C4.92664 12.054 4.94426 12.02 4.89326 11.9375C4.76426 11.7299 4.60976 11.5453 4.41026 11.3962C3.59989 10.7907 2.02489 10.7187 1.08326 11.2442C0.491887 11.5744 0.217387 12.0666 0.263887 12.7194C0.308512 13.342 0.651637 13.7575 1.24301 14.0013C1.60151 14.149 1.97876 14.2235 2.36239 14.2766C2.75689 14.3311 3.15851 14.3526 3.52676 14.5207C3.74314 14.6193 3.91751 14.7548 3.97901 14.9896C4.07201 15.3467 3.88001 15.6847 3.48626 15.8511C3.12776 16.0023 2.74826 16.0285 2.36614 15.9898C1.77214 15.9292 1.26926 15.7105 0.982762 15.1725C0.937012 15.0864 0.898012 15.1115 0.841012 15.1402C0.560512 15.2821 0.280012 15.4241 -0.000488281 15.5661C-0.000488281 15.5901 -0.000488281 15.6137 -0.000488281 15.6378C0.0771367 15.9027 0.233137 16.1249 0.434512 16.3139C0.938137 16.7867 1.55426 16.9871 2.25026 16.9814C2.25064 16.9875 2.25064 16.9935 2.24951 17C2.32451 17 2.39951 17 2.47451 17C2.56189 17 2.64964 17 2.73701 17C2.79964 17 2.86189 17 2.92451 17C2.92414 16.9896 2.92451 16.9796 2.92639 16.9695C3.37789 16.9351 3.81551 16.848 4.21601 16.6361C4.88839 16.2798 5.17264 15.7188 5.12839 15C5.08526 14.2906 4.68476 13.835 3.99851 13.588Z" fill="white"/>
<path d="M27.4163 9.18253C27.4163 9.29903 27.4467 9.33309 27.5708 9.3313C28.0643 9.32449 28.5581 9.32269 29.0516 9.33202C29.1986 9.33488 29.2354 9.29617 29.2346 9.15672C29.2283 8.04578 29.2346 6.93484 29.2271 5.82354C29.226 5.6719 29.271 5.63784 29.4244 5.63856C30.8554 5.6443 32.286 5.64465 33.717 5.6382C33.8756 5.63749 33.9105 5.67943 33.9097 5.82569C33.903 6.93053 33.9105 8.03574 33.9015 9.14094C33.9 9.30549 33.9498 9.3356 34.1085 9.33202C34.5832 9.32162 35.0583 9.32198 35.5331 9.33202C35.6786 9.33524 35.7037 9.29294 35.7033 9.16389C35.6984 7.70056 35.7003 6.23687 35.7003 4.77354C35.7003 3.30412 35.6981 1.83469 35.7037 0.36527C35.7041 0.224745 35.6673 0.186387 35.5196 0.189255C35.0448 0.198934 34.5697 0.199651 34.095 0.188896C33.9348 0.185312 33.9018 0.233707 33.9026 0.378534C33.909 1.53142 33.903 2.6843 33.9097 3.83682C33.9105 3.9942 33.8778 4.04582 33.6997 4.0451C32.2815 4.03722 30.8629 4.03793 29.4446 4.04439C29.2789 4.0451 29.2253 4.01176 29.2264 3.84184C29.235 2.68896 29.2271 1.53608 29.2354 0.383553C29.2365 0.22116 29.1893 0.185312 29.0269 0.188896C28.5461 0.199651 28.0646 0.197142 27.5835 0.189972C27.4542 0.18818 27.4155 0.219726 27.4155 0.347705C27.4197 3.293 27.4193 6.23759 27.4163 9.18253Z" fill="white"/>
<path d="M20.1747 8.97642C20.9787 9.3747 21.8453 9.5163 22.7412 9.51343C22.8721 9.51343 23.0033 9.51953 23.1338 9.51236C24.3466 9.44747 25.418 9.05529 26.318 8.25981C26.4042 8.18382 26.408 8.14402 26.3262 8.06623C25.9711 7.73033 25.6205 7.38977 25.2706 7.0485C25.2128 6.99222 25.1746 6.97895 25.1045 7.03846C24.2626 7.75363 23.2748 8.00493 22.1708 7.85688C21.0548 7.70703 20.2265 7.17002 19.7896 6.15731C19.418 5.29515 19.4063 4.41615 19.7495 3.54002C19.9988 2.90371 20.4237 2.40327 21.0432 2.06163C22.2533 1.39378 23.9371 1.54864 24.983 2.42442C25.0463 2.47747 25.0846 2.53053 25.1753 2.44377C25.5151 2.11899 25.8635 1.80173 26.2126 1.48591C26.2835 1.42174 26.2887 1.38195 26.2133 1.31814C25.9471 1.09157 25.6715 0.87756 25.3673 0.698318C24.2446 0.0376328 23.0255 -0.122251 21.7463 0.0849526C20.1672 0.340551 18.9728 1.12671 18.2682 2.51726C17.609 3.8182 17.5602 5.17184 18.0267 6.53802C18.3968 7.62243 19.1078 8.44766 20.1747 8.97642Z" fill="white"/>
<path d="M36.9869 1.76158C37.8618 1.75584 38.7367 1.76337 39.6115 1.75441C39.7919 1.75262 39.8504 1.78345 39.8496 1.97308C39.8414 4.35664 39.8463 6.7402 39.8399 9.12339C39.8395 9.2926 39.8913 9.32988 40.0585 9.3263C40.5269 9.31554 40.996 9.31626 41.4644 9.3263C41.6193 9.32952 41.6609 9.28937 41.6601 9.14024C41.6534 7.93968 41.6564 6.73876 41.6564 5.5382C41.6564 4.34338 41.6605 3.14855 41.6515 1.95408C41.6504 1.78309 41.7059 1.75405 41.8683 1.75549C42.7491 1.76265 43.6304 1.75728 44.5116 1.76122C44.6279 1.76158 44.6744 1.74079 44.6721 1.61639C44.6639 1.18657 44.6654 0.756034 44.6714 0.326212C44.6729 0.220818 44.6515 0.184611 44.5304 0.18497C42.0059 0.188555 39.4814 0.188555 36.9565 0.185687C36.85 0.185687 36.8215 0.214007 36.8227 0.314741C36.8283 0.744921 36.8302 1.1751 36.8219 1.60492C36.8193 1.73003 36.8553 1.76265 36.9869 1.76158Z" fill="white"/>
<path d="M7.23926 9.3227C7.85538 9.3227 8.44188 9.31732 9.02839 9.32664C9.16714 9.32879 9.22189 9.27825 9.27326 9.16604C9.94264 7.70414 10.618 6.24512 11.2896 4.78394C11.6928 3.90673 12.0918 3.02772 12.505 2.12219C12.6689 2.48068 12.8275 2.80475 12.964 3.1367C13.0285 3.29336 13.0773 3.33315 13.2434 3.23098C13.6308 2.99259 14.0339 2.77643 14.4505 2.58679C14.56 2.53696 14.5754 2.49251 14.5251 2.38747C14.1966 1.69954 13.873 1.00982 13.5558 0.317229C13.507 0.211118 13.4478 0.183515 13.333 0.184948C12.7893 0.191043 12.2455 0.193552 11.7021 0.183515C11.5608 0.181005 11.4966 0.223665 11.4408 0.343757C10.1961 3.00729 8.94701 5.66903 7.69901 8.33113C7.54713 8.65484 7.39826 8.97999 7.23926 9.3227Z" fill="white"/>
<path d="M37.9006 11.0832C37.6258 11.089 37.3505 11.0933 37.076 11.0818C36.9361 11.0757 36.9016 11.1119 36.9024 11.2467C36.9091 12.3039 36.9065 13.361 36.9046 14.4182C36.9046 14.4734 36.9268 14.534 36.8803 14.5953C36.8491 14.5594 36.8218 14.529 36.7955 14.4974C36.0099 13.5467 35.225 12.5957 34.439 11.6457C34.2845 11.4589 34.1615 11.2008 33.9582 11.1108C33.7471 11.0173 33.4565 11.0868 33.2004 11.0854C33.194 11.0854 33.1876 11.0861 33.1816 11.0854C33.0732 11.0685 33.047 11.1141 33.0474 11.2144C33.0504 13.042 33.0504 14.8695 33.0474 16.6971C33.047 16.819 33.0875 16.8437 33.266 16.8222C33.4816 16.796 33.6999 16.7993 33.9159 16.8229C34.1446 16.8477 34.2046 16.8243 34.2035 16.6462C34.1964 15.5055 34.1994 14.3648 34.1994 13.2241C34.1994 13.161 34.1994 13.0979 34.1994 13.0305C34.2654 13.0413 34.2815 13.0828 34.3059 13.113C35.1988 14.2106 36.1051 15.2986 36.974 16.4132C37.2249 16.7351 37.4836 16.9043 37.898 16.8272C37.904 16.8261 37.9104 16.8261 37.916 16.8272C38.0248 16.8441 38.051 16.7978 38.051 16.6978C38.048 14.8703 38.0476 13.0427 38.0521 11.2151C38.0529 11.0936 38.0049 11.0811 37.9006 11.0832Z" fill="white"/>
<path d="M24.313 16.6602C23.8589 16.1676 23.4037 15.6765 22.9488 15.1846C22.8352 15.0617 22.7227 14.938 22.6042 14.809C23.7524 14.4558 24.2298 13.7547 24.0734 12.6742C23.9418 11.764 23.0883 11.0983 22.0357 11.0918C21.1109 11.0861 20.1865 11.0904 19.2618 11.0818C19.1178 11.0804 19.0769 11.1126 19.0776 11.2549C19.084 12.5272 19.0814 13.7995 19.0814 15.0717C19.0814 15.6034 19.0874 16.135 19.0773 16.6663C19.0746 16.8057 19.1193 16.8347 19.2546 16.8294C19.5168 16.819 19.78 16.8165 20.0414 16.8301C20.1951 16.838 20.2221 16.7863 20.2214 16.6516C20.2161 15.3556 20.2184 14.0594 20.2184 12.7631C20.2184 12.5838 20.2188 12.4046 20.218 12.2254C20.2176 12.1637 20.2116 12.1038 20.3076 12.1056C20.932 12.1167 21.5583 12.0683 22.1804 12.1304C22.6199 12.1741 22.9315 12.5279 22.9548 12.9477C22.9803 13.4155 22.7332 13.7625 22.2888 13.8844C22.1002 13.9364 21.9063 13.9343 21.7132 13.9346C21.3093 13.9353 20.905 13.935 20.4884 13.935C20.5026 13.9694 20.5056 13.9873 20.5161 13.9995C21.3171 14.9308 22.1392 15.8446 22.9705 16.7512C23.0272 16.8132 23.0868 16.8279 23.1659 16.8272C23.5222 16.8247 23.878 16.8272 24.2343 16.8254C24.2883 16.8251 24.3633 16.8523 24.3918 16.805C24.4297 16.7408 24.3517 16.7021 24.313 16.6602Z" fill="white"/>
<path d="M17.7109 11.0778C17.5016 11.0994 17.2905 11.0951 17.0808 11.075C16.8892 11.0563 16.839 11.0886 16.8401 11.2478C16.8469 12.2931 16.8431 13.3384 16.8442 14.3841C16.8442 14.5401 16.8322 14.6939 16.8007 14.8469C16.6691 15.48 16.215 15.883 15.5677 15.94C14.8072 16.007 14.2065 15.6858 13.9672 15.08C13.8806 14.8602 13.8439 14.6301 13.8439 14.3956C13.8431 13.3442 13.8412 12.2927 13.8468 11.2413C13.8476 11.1112 13.821 11.0639 13.6743 11.0707C13.4062 11.0832 13.137 11.0796 12.8685 11.0717C12.7511 11.0685 12.7091 11.0936 12.7095 11.2166C12.7147 12.2917 12.7038 13.3671 12.7158 14.4422C12.7233 15.1319 12.9236 15.7607 13.4598 16.2576C13.9462 16.7085 14.5447 16.9 15.2062 16.9315C16.7501 17.0057 17.8789 16.1877 17.9636 14.6318C17.9936 14.0841 17.9685 13.5338 17.9685 12.9846C17.9726 12.9846 17.9771 12.9846 17.9812 12.9846C17.9812 12.4053 17.976 11.8256 17.985 11.2463C17.9872 11.0757 17.9209 11.0563 17.7109 11.0778Z" fill="white"/>
<path d="M30.0443 16.0038C29.843 15.8256 29.6532 15.6345 29.4665 15.442C29.3952 15.3685 29.351 15.3692 29.2715 15.4331C28.6287 15.9464 27.8937 16.0543 27.1089 15.8324C25.5909 15.404 25.4341 13.3797 26.4342 12.5057C27.1625 11.8694 28.4011 11.8436 29.1909 12.4652C29.2951 12.5473 29.3446 12.534 29.426 12.4548C29.6011 12.2845 29.7781 12.1153 29.9649 11.9568C30.0571 11.8787 30.062 11.8389 29.9656 11.7575C29.3559 11.241 28.6497 10.9728 27.7137 10.975C26.93 10.9879 26.1192 11.2263 25.4956 11.8837C24.7786 12.6398 24.5742 13.5464 24.7246 14.5308C24.851 15.3578 25.2489 16.0425 26.0064 16.5017C26.6135 16.8699 27.2904 16.9824 27.995 16.9606C28.7611 16.9365 29.4492 16.7039 30.0309 16.211C30.1137 16.1407 30.1463 16.0941 30.0443 16.0038Z" fill="white"/>
<path d="M17.1009 4.37815C16.6752 4.05587 16.2519 3.80529 15.7974 3.60526C15.6976 3.56153 15.686 3.52066 15.7227 3.43319C15.8349 3.16755 15.9526 2.90514 16.1176 2.66424C16.1694 2.5886 16.2504 2.52838 16.28 2.42191C15.8716 2.38606 15.5101 2.49611 15.1591 2.63628C14.2576 2.99656 13.4409 3.50524 12.6065 3.98346C12.5405 4.02146 12.5172 4.08025 12.4899 4.13904C12.0537 5.07433 11.6176 6.00997 11.1845 6.94668C11.1642 6.99042 11.1136 7.03344 11.1489 7.10047C11.5726 6.95242 11.9671 6.75167 12.3579 6.54303C13.3542 6.01033 14.2992 5.39338 15.3144 4.89222C15.863 4.62228 16.4172 4.357 17.1009 4.37815Z" fill="white"/>
<path d="M15.6481 5.09941C15.1928 5.32131 14.7552 5.57261 14.3135 5.8171C14.2227 5.86728 14.2351 5.91747 14.2688 5.99132C14.765 7.06964 15.2596 8.14831 15.7531 9.2277C15.7838 9.2951 15.8224 9.32485 15.9053 9.32449C16.5169 9.32055 17.1286 9.32234 17.7574 9.32234C17.7447 9.27502 17.7417 9.25136 17.7319 9.23021C17.0963 7.873 16.4588 6.5165 15.8254 5.1582C15.7819 5.06536 15.7426 5.05353 15.6481 5.09941Z" fill="white"/>
<path d="M31.9144 11.2202C31.9144 11.1205 31.8885 11.0861 31.7802 11.089C31.5057 11.0961 31.2304 11.1001 30.9563 11.0875C30.8104 11.0807 30.7834 11.1266 30.7842 11.2567C30.7902 12.158 30.7876 13.0592 30.7876 13.9604C30.7876 14.8677 30.7898 15.7751 30.7846 16.682C30.7838 16.7989 30.8153 16.8333 30.9383 16.8293C31.2188 16.8204 31.5004 16.8218 31.7809 16.829C31.8889 16.8319 31.9144 16.7985 31.9144 16.6992C31.9118 14.8728 31.9118 13.0463 31.9144 11.2202Z" fill="white"/>
<path d="M6.97019 11.5051C6.09832 12.1207 5.76045 12.9889 5.73195 13.8062C5.73045 14.5759 5.8617 15.1129 6.13282 15.5736C6.66457 16.4759 7.50907 16.8928 8.55907 16.9552C9.46281 17.0086 10.3066 16.8315 10.9726 16.1991C11.7683 15.4431 11.9959 14.5003 11.8527 13.4668C11.5493 11.2739 8.83769 10.1863 6.97019 11.5051ZM10.7701 13.9636C10.7588 14.5555 10.6148 15.1075 10.1348 15.5141C9.52956 16.0267 8.81182 16.0719 8.07832 15.8446C7.38832 15.6306 7.03732 15.1126 6.90569 14.4565C6.76919 13.7765 6.86594 13.1284 7.34369 12.5838C7.86982 11.9844 8.57519 11.8686 9.33344 12.0264C10.0632 12.1784 10.4809 12.6591 10.6831 13.3262C10.7453 13.5331 10.7746 13.7464 10.7701 13.9636Z" fill="white"/>
</svg>
