<svg width="1440" height="771" viewBox="0 0 1440 771" fill="none" xmlns="http://www.w3.org/2000/svg">
<path d="M1090.55 392.92C1091.55 398.348 1095.83 400.595 1100.18 402.688C1103.16 404.134 1105.52 406.074 1104.95 409.716C1104.3 413.868 1100.88 414.957 1097.41 415.4C1092.39 416.03 1087.08 414.838 1082.49 417.936C1080.82 417.85 1079.18 418.293 1077.52 418.378C1075.64 418.463 1073.13 417.51 1072.29 419.944C1071.19 423.16 1073.72 424.709 1076.04 426.155C1075.97 430.937 1078.69 434.528 1081 438.374C1085.96 446.593 1082.79 454.047 1073.42 454.54C1066.27 454.915 1061.93 457.365 1059.04 463.832C1055.87 470.877 1049.53 470.741 1043.09 469.618C1031.64 468.103 1031.32 476.17 1030.74 483.998C1026.45 496.063 1024.89 495.008 1014.22 490.175C1004.52 485.785 994.343 482.517 985.069 476.868C982.772 475.472 978.637 477.735 976.357 480.952C970.554 489.154 964.293 488.967 958.439 480.033C955.598 475.693 951.616 472.103 949.183 467.899C944.333 459.527 938.633 459.986 932.047 464.104C926.398 467.627 924.339 465.704 922.536 460.105C921.191 455.919 918.792 451.971 916.274 448.312C911.85 441.862 906.456 438.442 899.207 444.823C895.565 448.023 893.319 449.503 888.47 444.551C883.11 439.088 877.92 443.887 875.248 450.082C873.921 453.162 873.394 457.331 868.646 456.463C864.171 455.647 862.912 452.226 862.776 447.989C862.606 442.662 859.338 438.169 859.985 432.145C860.632 426.002 855.17 423.313 849.163 425.832C842.85 428.469 836.792 431.771 830.718 434.936C828.931 435.872 826.072 437.319 826.021 438.595C825.647 450.746 813.651 453.809 807.916 461.739C803.747 467.491 796.55 461.926 794.184 458.506C786 446.661 776.556 435.106 779.806 418.497C781.797 408.321 786.323 401.769 796.754 401.292C805.687 400.884 812.987 395.864 821.342 393.941C828.012 392.392 834.342 391.269 838.035 399.063C846.611 402.858 841.846 409.886 841.063 415.536C848.959 416.966 838.46 400.918 850.49 407.266C854.625 407.368 858.777 407.47 862.912 407.572C871.998 407.555 880.71 404.679 889.712 403.658C900.5 402.432 910.539 403.862 920.868 405.428C932.133 414.379 944.078 414.498 956.533 408.167C958.065 407.385 959.664 406.142 961.247 406.142C979.726 406.023 991.45 395.557 1001.69 381.501C1012.48 366.695 1026.6 354.919 1040.32 342.837C1049.68 334.583 1053.13 325.173 1046.96 312.562C1040.63 299.612 1043.88 286.577 1052.95 278.476C1055.36 276.315 1057.9 274.647 1061.2 274.851C1063.55 274.988 1066.71 274.63 1068.06 275.975C1070.49 278.408 1067.82 281.063 1066.37 283.224C1061.4 290.644 1058.95 297.995 1065.52 305.841C1066.98 307.576 1066.75 309.635 1065.54 311.609C1059.7 321.105 1064.11 326.721 1072.7 331.044C1077.82 333.613 1081.31 337.51 1082.01 343.756C1082.79 350.784 1089.9 350.614 1094.41 352.86C1099.48 355.396 1100.13 358.255 1096.18 361.165C1087.83 367.342 1088.51 375.919 1088.61 384.547C1084.83 388.359 1086.47 390.929 1090.55 392.92Z" fill="#EDEDED"/>
<path d="M864.936 365.879C856.888 365.028 849.145 363.956 840.825 366.559C834.222 368.635 829.611 362.271 825.17 357.676C820.729 353.081 818.04 345.1 808.937 348.708C807.592 349.235 805.517 348.316 805.687 347.057C807.116 336.319 796.209 328.389 799.816 316.459C801.688 310.265 806.606 306.742 808.426 300.854C809.379 297.757 813.48 295.494 813.259 291.222C813.225 290.576 813.684 289.333 813.82 289.35C826.191 290.406 824.983 278.544 830.241 272.741C838.766 263.33 851.851 265.951 858.504 277.098C863.217 284.994 875.384 290.848 883.841 289.078C886.07 288.619 887.959 288.244 888.997 290.695C889.915 292.89 888.895 294.575 887.38 296.209C879.008 305.211 878.94 311.099 887.465 320.493C890.477 323.811 889.337 326.534 887.703 329.801C885.951 333.29 882.65 336.659 885.542 341.101C889.116 351.397 884.521 357.965 875.724 362.594C874.976 363.156 874.159 363.564 873.274 363.837C870.466 364.364 867.131 362.73 864.936 365.879Z" fill="#EDEDED"/>
<path d="M1405.55 548.239C1403.49 553.651 1400.55 558.824 1404.58 564.831C1407.1 568.592 1404.43 572.302 1402.37 575.365C1396.05 584.725 1393.91 593.778 1402.01 603.41C1403.64 605.35 1406.86 608.72 1403.44 611.51C1400.5 613.91 1397.77 611.306 1395.24 609.383C1388.86 604.55 1381.86 601.317 1373.85 599.615C1365.78 597.913 1358.47 594.408 1360.34 583.67C1360.58 582.342 1360.95 580.113 1360.36 579.722C1349.36 572.608 1356.12 559.556 1350.5 550.502C1348.12 546.656 1349.45 541.007 1354.57 539.203C1361.55 536.752 1363.33 531.136 1365.46 525.214C1369.73 513.319 1377.8 511.141 1388.94 517.454C1395.75 521.3 1399.36 529.332 1408.32 530.575C1412.46 531.136 1408.46 534.063 1407.57 535.833C1405.6 539.764 1401.6 543.355 1405.55 548.239Z" fill="#EDEDED"/>
<path d="M176.796 421.85C177 414.787 183.024 411.775 187.55 408.933C195.751 403.777 203.953 398.944 210.419 391.541C212.972 388.614 216.12 387.525 218.859 391.797C222.075 396.817 221.735 427.227 217.447 431.345C208.956 439.463 201.503 448.312 194.526 457.74C191.208 462.215 185.168 463.594 179.74 464.581C169.598 466.419 159.388 468.103 149.128 469.091C140.28 469.941 136.043 462.488 131.142 456.991C129.423 455.051 139.48 444.194 142.151 445.657C149.06 449.469 151.646 444.364 154.624 440.569C157.313 437.131 160.477 436.042 164.493 436.23C171.129 433.609 176.575 429.967 176.796 421.85Z" fill="#EDEDED"/>
<path d="M506.428 313.957C521.607 319.845 524.261 327.588 519.616 342.887C515.804 355.412 508.504 364.568 498.737 372.294C490.825 378.556 483.848 377.773 479.05 368.975C470.355 353.047 463.48 336.182 454.019 320.611C451.195 315.965 453.815 311.013 456.759 307.218C460.587 302.283 461.966 309.465 465.012 309.482C467.751 309.499 470.491 309.839 473.23 310.026C480.513 317.565 489.668 316.357 498.737 315.455C501.324 315.2 503.553 312.936 506.428 313.957Z" fill="#EDEDED"/>
<path d="M910.233 324.339C918.179 311.984 916.086 302.488 903.307 294.405C897.266 290.593 899.53 282.901 900.585 277.098C902.15 268.572 901.486 262.582 891.056 262.224C889.337 262.173 887.346 261.986 887.618 259.604C887.823 257.698 890.375 255.928 891.141 256.694C900.057 265.492 911.883 257.578 921.65 262.394C929.903 266.462 936.148 271.261 937.271 280.91C930.192 286.951 937.492 290.746 939.517 295.375C943.533 304.054 940.555 312.154 937.492 320.254C937.305 322.433 928.865 318.587 934.072 325.019C934.804 325.938 932.677 327.793 931.128 328.661C925.683 331.656 914.997 329.478 910.233 324.339Z" fill="#EDEDED"/>
<path d="M910.234 324.338C915.185 325.751 926.399 326.023 932.048 324.747C928.577 319.659 920.869 321.616 916.802 314.434C924.816 316.697 931.146 318.484 937.493 320.271C942.207 321.667 948.145 322.398 940.522 328.61C939.178 329.699 939.722 333.119 939.45 335.485C937.8 349.167 928.866 354.613 916.376 349.218C913.211 347.857 910.438 348.691 907.409 348.912C902.866 349.252 899.531 346.121 897.131 343.143C894.783 340.233 898.306 337.442 900.024 335.145C902.968 331.145 904.227 325.428 910.234 324.338Z" fill="#D0D0D1"/>
<path d="M506.429 313.958C497.597 324.373 486.435 320.084 475.885 318.518C470.27 317.685 471.342 313.737 473.214 310.027C485.057 304.87 495.675 309.891 506.429 313.958Z" fill="#EDEDED"/>
<path d="M920.8 405.393C902.644 405.733 884.505 406.312 866.502 409.035C865.379 409.205 864.069 408.048 862.843 407.52C881.935 399.981 901.112 395.846 920.8 405.393Z" fill="#EDEDED"/>
<path d="M850.456 407.231C846.797 409.171 846.678 409.494 847.478 409.784C856.649 413.102 851.596 415.842 847.086 418.395C843.99 420.165 840.603 424.981 837.37 421.9C833.933 418.633 835.294 413.255 838.8 409.835C843.105 405.597 840.195 402.466 838 399.029C843.037 400.424 847.171 403.164 850.456 407.231Z" fill="#D0D1D1"/>
<path d="M1076.04 426.138C1074.03 427.482 1072.14 431.277 1069.52 427.669C1066.93 424.113 1065.35 419.909 1068.12 415.417C1070.11 412.183 1072.43 411.503 1075.65 413.783C1077.81 415.315 1080.21 416.54 1082.49 417.901C1080.87 421.084 1076.5 422.071 1076.04 426.138Z" fill="#D1D2D2"/>
<path d="M1036.19 245.955C1032.41 244.219 1033.24 240.322 1032.22 237.31C1031.11 234.06 1026.59 231.371 1030.16 227.355C1031.62 225.704 1033.24 227.049 1034.38 228.41C1037.21 231.814 1042.97 233.873 1039.79 240.067C1038.75 242.075 1039.08 244.917 1036.19 245.955Z" fill="#E0E2E4"/>
<path d="M176.795 421.85C179.671 420.863 184.98 420.131 181.951 424.402C178.071 429.848 175.179 439.718 164.51 436.212C168.594 431.43 172.694 426.648 176.795 421.85Z" fill="#D2D3D4"/>
<path d="M939.517 295.374C936.199 292.72 929.188 294.983 929.273 287.801C929.324 282.543 932.642 280.909 937.288 280.909C938.768 285.606 939.942 290.371 939.517 295.374Z" fill="#D1D2D2"/>
<path d="M873.172 361.743C879.826 356.383 885.951 350.716 885.56 341.135C888.333 343.943 888.742 347.755 889.916 351.244C889.661 353.558 885.934 354.562 887.568 357.574C886.938 358.97 886.309 360.348 885.679 361.743C881.493 362.526 877.341 366.627 873.172 361.743Z" fill="#D3D4D6"/>
<path d="M873.173 361.743C877.342 362.066 881.51 358.884 885.662 361.743C881 370.337 873.921 368.006 866.894 365.912C866.281 360.433 871.913 364.347 873.207 361.709L873.173 361.743Z" fill="#EDEDED"/>
<path d="M1030.74 483.981C1030.71 482.602 1030.77 481.224 1030.64 479.845C1029.38 466.453 1029.72 466.163 1043.09 469.601C1035.81 471.66 1032.37 477.055 1030.74 483.981Z" fill="#D2D3D3"/>
<path d="M1090.55 392.92C1086.13 395.711 1082.54 394.638 1081.52 389.635C1080.34 383.9 1086.04 386.045 1088.58 384.53C1090.09 387.117 1090.94 389.873 1090.55 392.92Z" fill="#D2D3D5"/>
<path d="M1405.55 548.239C1396.94 541.687 1397.04 540.99 1407.56 535.816C1408.24 540.19 1406.52 544.155 1405.55 548.239Z" fill="#D0D3D6"/>
<path d="M873.207 361.726C871.114 363.121 869.004 364.517 866.911 365.929H865.924L864.92 365.878C864.342 357.812 870.654 363.513 873.207 361.726Z" fill="#D3D4D6"/>
<path d="M887.569 357.574C884.659 354.919 884.659 354.919 889.9 351.243C891.703 354.306 888.164 355.395 887.569 357.574Z" fill="#DCDFE2"/>
<path d="M983.826 471.336C982.618 474.519 979.419 473.6 977.003 474.161C975.148 474.587 973.345 473.498 973.974 471.438C974.893 468.443 977.701 467.797 980.525 467.967C982.346 468.069 983.571 469.175 983.826 471.336Z" fill="#D5D5D5"/>
<path d="M1022.5 383C1014.3 383 1007.68 389.62 1007.68 397.818C1007.68 400.676 1008.6 403.406 1009.87 405.649L1019.52 422.362C1020.13 423.454 1021.35 424 1022.5 424C1023.65 424 1024.81 423.454 1025.48 422.362L1035.13 405.659C1036.42 403.415 1037.32 400.736 1037.32 397.828C1037.32 389.63 1030.7 383 1022.5 383ZM1022.5 402.195C1019.52 402.195 1017.09 399.763 1017.09 396.786C1017.09 393.808 1019.52 391.377 1022.5 391.377C1025.48 391.377 1027.91 393.808 1027.91 396.786C1027.91 399.773 1025.48 402.195 1022.5 402.195Z" fill="#BB0909"/>
</svg>
