<svg width="1440" height="745" viewBox="0 0 1440 745" fill="none" xmlns="http://www.w3.org/2000/svg">
<path d="M704.954 481.895C703.702 481.238 702.242 481.073 700.781 480.744C690.767 478.115 688.681 474.006 694.105 467.103C697.443 462.665 696.609 460.857 689.933 461.186C681.796 461.515 674.911 459.214 666.984 456.42C670.113 454.776 672.616 453.461 674.911 452.146C676.163 451.489 677.624 450.667 676.789 449.352C675.329 446.723 671.991 449.517 669.696 448.202C671.782 445.572 673.451 443.271 678.041 444.75C681.587 445.901 683.048 443.271 683.882 441.299C685.343 438.176 682.005 438.833 679.918 438.669C677.624 438.505 676.58 437.683 675.537 436.039C672.408 431.437 670.322 431.437 666.775 436.204C664.271 439.491 662.185 442.778 656.135 442.285C653.631 442.121 649.876 441.299 649.25 444.422C648.833 446.887 646.955 450.01 650.711 451.982C652.588 452.968 652.797 453.297 651.336 454.447C646.955 457.899 648.416 460.693 653.005 463.158C654.883 464.144 655.3 465.788 654.257 467.432C653.631 468.582 652.171 469.075 650.502 468.582C639.653 466.117 635.481 467.76 631.308 475.978C630.474 477.457 629.848 479.594 627.344 478.443C624.423 477.129 621.503 475.321 619.625 473.02C616.913 469.568 613.783 475.978 611.28 472.362C608.568 468.253 604.604 470.39 602.1 472.362C598.553 474.992 596.884 480.744 599.179 482.388C605.855 486.661 608.15 494.715 618.79 495.865C621.92 496.194 624.423 499.481 627.136 501.453C629.222 503.097 628.387 504.741 625.675 504.741C617.33 504.905 610.654 509.014 603.352 511.15C600.014 512.137 596.884 512.137 594.172 510.657C590.208 508.685 588.539 509.671 586.036 512.63C580.194 519.861 570.597 525.121 561 526.764C545.771 529.23 529.706 530.38 515.311 521.505C503.002 514.109 498.829 503.426 507.383 493.4C510.304 489.948 511.973 486.99 507.8 483.374C505.923 481.731 505.923 479.923 508.843 478.443C511.556 477.129 510.93 473.513 509.678 473.348C501.75 472.198 501.959 467.103 499.872 462.83C499.246 461.515 497.577 460.2 494.865 460.529C494.865 461.186 494.657 462.008 494.657 462.665C494.865 463.98 496.534 465.459 494.239 466.281C492.362 466.938 491.319 465.131 490.067 464.309C488.606 463.323 488.189 461.843 489.232 460.529C492.153 456.913 491.319 454.119 486.937 451.653C486.312 450.996 485.268 450.667 484.225 450.996C475.88 453.954 468.37 452.311 461.068 449.024C459.816 448.53 458.355 448.202 456.686 448.53C449.176 452.146 441.456 449.845 440.622 443.6C439.162 441.463 436.658 441.792 434.155 441.463C426.435 440.806 419.342 442.449 412.457 444.915C406.198 447.216 399.522 446.394 394.932 443.107C390.76 439.984 387.213 439.491 382.206 440.806C380.12 441.463 377.825 441.463 375.53 441.299C369.271 441.134 363.221 440.97 358.631 445.572C356.962 447.216 354.25 447.216 351.746 447.216C344.236 447.544 336.725 447.544 330.049 450.503C328.171 451.325 326.085 450.996 324.416 450.01C322.747 449.024 321.287 448.037 318.992 448.366C311.898 449.352 308.56 446.558 306.265 441.627C304.805 438.176 302.302 434.231 296.46 434.56C289.575 434.889 286.237 432.095 282.69 427.986C279.561 424.37 276.64 420.754 277.058 416.152C277.266 414.015 275.806 412.372 273.928 411.057C269.756 407.934 267.878 403.99 266.626 399.716C264.957 394.293 262.662 389.198 260.993 383.774C259.741 379.501 256.195 378.186 251.605 379.172C246.389 380.322 242.634 379.336 238.67 376.542C234.497 373.584 230.325 374.734 226.987 378.021C225.526 379.501 225.109 381.144 223.857 382.788C220.937 386.897 209.253 388.54 207.167 384.924C203.412 378.186 196.11 373.255 192.146 366.516C189.642 362.243 185.678 358.792 178.585 360.599C172.743 364.544 171.909 364.544 168.154 359.449C164.607 354.518 160.017 350.738 154.176 347.615C150.629 345.807 147.291 343.178 142.91 345.479C138.111 348.108 140.406 351.231 142.284 354.354C142.492 354.683 142.284 355.176 140.823 355.833C136.442 351.56 133.73 346.629 131.018 341.698C127.68 335.617 119.961 335.124 114.536 332.001C112.033 332.987 112.033 334.631 112.033 336.603C112.033 343.999 110.155 345.972 100.975 347.944C96.5942 348.93 95.3424 351.231 96.3856 354.19C97.6374 357.805 97.846 361.586 99.515 365.037C101.81 369.803 100.558 373.912 96.3856 377.528C85.7455 386.239 80.3212 397.251 74.6883 408.099C73.0192 411.55 72.3933 415.002 73.8537 418.453C76.1487 423.877 76.3573 429.629 77.609 435.218C79.0694 440.477 82.8247 445.079 82.6161 450.503C82.4075 456.748 83.6593 462.665 88.6663 467.76C91.1699 470.39 89.9181 471.54 86.1628 471.869C74.271 473.02 68.638 470.39 63.2137 460.529C66.1345 459.707 69.2639 460.364 72.1847 459.707C78.4436 458.556 82.8248 454.776 81.1557 450.503C78.8608 444.586 76.3573 438.669 70.5157 434.067C68.0122 433.41 65.5086 433.41 63.2137 433.738C52.7823 435.382 42.3509 436.532 31.7109 437.847C26.2865 438.505 20.8622 439.491 16.2724 435.875C15.2292 435.053 13.5602 435.053 12.0998 435.382C8.55313 433.41 4.79783 431.437 0.208008 428.808C0.208008 517.889 0.208008 606.149 0.208008 694.573C3.33743 692.929 7.09274 691.45 10.848 692.272C18.3587 694.08 23.9916 691.45 29.6246 688.492C38.5956 683.725 47.7752 683.89 57.3721 686.848C59.0411 687.341 61.5447 688.327 62.1706 687.834C68.4294 683.561 75.94 685.369 83.0334 685.04C85.3283 684.876 87.6232 684.547 88.6663 682.739C91.1699 677.809 96.1769 676.329 102.436 676.165C104.105 676.165 106.4 675.836 107.234 674.85C111.824 670.084 114.953 674.193 118.083 676.001C119.543 676.822 119.335 678.959 121.63 679.616C124.759 679.123 121.63 675.508 125.802 675.343C126.011 675.672 126.428 676.001 126.845 676.494C129.766 679.781 133.939 681.424 138.946 681.753C143.953 682.082 143.327 678.137 145.413 676.165C148.96 673.207 153.132 673.207 155.636 676.165C160.434 682.41 168.154 685.04 175.873 687.834C180.254 689.478 183.801 691.614 186.513 694.902C191.103 700.325 196.944 701.476 204.455 699.011C206.541 698.353 208.628 698.353 210.922 698.517C220.311 699.339 225.109 705.914 229.908 710.351C234.289 714.296 238.253 715.939 243.677 716.761C247.224 717.419 251.605 717.254 253.065 720.706C254.943 724.815 258.281 721.692 260.993 722.185C265.166 722.842 265.166 719.884 265.166 718.405C265.374 713.474 269.964 712.159 274.137 712.488C280.604 713.145 287.489 714.296 289.992 720.377C291.244 723.335 293.122 724.65 296.043 721.856C298.755 719.227 302.719 719.062 306.265 719.062C316.488 718.733 327.128 713.145 336.934 720.213C337.142 720.377 337.977 720.377 338.394 720.377C354.459 723.171 369.688 721.527 383.041 713.474C386.17 711.502 390.968 711.337 392.846 708.215C396.601 702.298 403.695 699.175 410.162 695.395C406.616 693.094 403.695 690.135 399.731 687.834C392.012 683.068 397.436 677.48 399.314 672.22C399.939 670.577 402.234 668.44 398.688 667.125C396.184 666.303 393.472 665.153 390.968 666.632C389.508 667.454 388.674 668.769 387.63 669.755C386.587 670.577 385.544 671.727 383.875 671.234C381.997 670.577 382.623 669.262 382.832 668.111C383.458 661.866 383.249 661.537 375.53 664.331C369.271 666.632 365.099 665.153 361.343 661.208C356.962 656.606 352.372 652.169 350.495 646.581C350.077 645.101 349.66 643.129 347.365 642.8C339.02 641.157 330.258 637.048 321.913 639.678C308.352 644.115 292.079 636.391 279.978 645.923C279.561 646.252 278.518 646.088 277.683 645.923C266.418 644.115 254.317 650.032 243.468 643.787C242.634 643.294 240.965 643.458 239.713 643.622C228.864 644.608 217.807 637.705 206.958 643.458C206.541 643.622 205.915 643.458 205.498 643.294C194.649 639.349 183.384 641.979 172.118 641.157C168.362 640.828 165.233 641.486 162.938 644.115C161.269 645.923 159.183 647.731 156.053 645.923C151.672 643.294 145.413 645.101 141.032 641.65C139.363 640.335 134.982 641.157 134.147 642.472C130.809 647.238 123.924 649.703 121.421 654.799C120.378 657.1 120.169 660.222 116.414 659.401C112.45 658.743 111.824 655.62 112.659 652.662C113.493 649.046 113.91 645.266 115.371 641.65C117.04 637.212 114.536 635.076 110.155 633.268C107.443 632.117 104.522 631.624 101.601 631.624C92.4216 631.624 82.6161 634.747 74.6883 628.337C73.8537 627.68 71.7675 628.173 70.3071 628.173C64.4655 628.337 61.336 624.886 60.5015 621.598C59.667 618.311 64.0482 616.01 68.0122 615.353C73.8537 614.367 79.904 614.202 85.7455 613.709C88.875 613.381 92.213 614.202 93.882 616.175C97.6373 620.612 101.393 616.996 105.148 616.668C109.112 616.175 109.529 614.038 109.529 611.408C109.112 606.149 112.033 604.012 118.709 605.656C121.421 606.313 124.968 606.313 124.133 603.683C122.464 598.917 126.428 597.602 129.975 595.959C137.277 592.672 140.406 587.248 143.536 581.495C146.874 575.25 154.593 573.277 160.643 569.826C161.686 569.169 163.772 569.662 163.981 570.319C165.024 575.743 173.369 577.058 174.204 582.481C175.038 587.248 178.585 587.905 182.132 584.454C186.096 580.838 190.06 580.838 194.649 582.975C201.743 586.097 208.836 586.262 216.138 582.975C221.354 580.674 225.318 581.002 230.116 584.454C234.706 587.577 238.461 593.165 247.224 590.371C252.857 588.563 266.417 595.137 268.087 599.739C268.504 600.561 268.295 601.711 268.087 602.533C267.669 604.012 265.166 605.491 267.461 606.806C269.756 608.121 271.633 606.149 273.302 604.998C279.77 600.725 286.654 597.274 295.625 598.588C299.172 599.082 300.633 596.781 302.927 595.137C308.143 591.685 309.812 585.111 319.409 585.111C313.776 582.646 307.309 581.495 305.431 578.537C303.345 575.085 308.56 571.305 311.481 568.018C312.942 566.374 315.236 565.553 317.74 564.895C325.459 562.923 332.97 560.951 340.48 558.978C342.984 558.321 345.488 557.664 347.782 558.65C355.084 561.937 363.638 564.402 368.437 569.99C376.156 578.701 389.091 583.632 394.515 593.822C394.724 594.315 395.558 594.644 396.184 594.973C409.119 600.396 414.961 609.765 419.133 620.119C421.22 624.886 426.644 626.529 432.485 624.557C436.032 623.242 439.37 620.448 443.543 621.434C448.758 622.749 453.348 621.598 458.147 620.448C464.406 618.969 470.247 616.996 476.715 620.448C479.635 621.927 483.182 620.941 485.894 619.297C495.491 613.545 505.088 608.285 517.814 613.545C518.44 613.709 519.275 613.545 520.109 613.545C528.037 613.052 535.548 614.038 541.389 618.476C545.562 621.434 551.404 622.256 555.367 621.434C564.547 619.462 570.597 621.434 577.065 626.365C584.158 631.624 592.086 628.995 594.172 621.598C595.424 617.49 593.129 614.367 590.417 611.244C588.957 609.765 588.122 608.121 590 606.478C591.251 605.491 593.129 604.012 594.381 604.834C599.388 607.957 607.942 607.628 608.359 615.024C608.359 617.49 607.942 621.598 613.157 622.091C617.33 622.42 619.208 624.557 621.294 626.693C624.215 629.488 627.761 631.789 631.934 628.666C635.481 626.036 641.114 623.242 635.481 618.476C634.229 617.489 632.143 616.668 634.855 614.695C645.912 606.806 659.473 603.848 673.66 601.547C675.746 601.218 679.293 603.519 679.293 600.068C679.293 597.438 677.415 595.63 673.451 594.808C666.775 593.329 660.307 591.028 653.84 589.056C650.502 588.07 650.293 586.59 653.423 584.947C658.638 582.153 664.48 580.838 670.113 582.975C673.451 584.289 677.415 585.604 679.71 583.961C682.631 581.66 677.832 579.852 676.58 577.715C676.163 576.729 675.329 575.907 676.372 575.085C677.624 574.099 678.667 575.085 679.71 575.578C680.753 576.072 681.379 577.715 683.674 576.729C682.631 574.757 681.379 572.784 680.753 570.812C680.127 567.854 675.537 562.759 671.991 562.43C668.444 562.101 666.984 560.458 665.523 558.157C661.768 552.733 664.063 546.98 663.437 541.392C662.394 531.531 662.185 531.695 673.034 527.257C674.494 526.764 676.58 526.764 676.58 524.463C672.616 524.463 668.444 524.463 664.48 524.463C662.602 524.463 660.307 523.97 661.559 522.162C664.689 517.56 661.351 516.41 656.552 515.588C655.092 515.259 653.214 514.438 654.883 512.137C658.012 513.123 660.933 516.246 664.897 514.602C668.861 512.958 664.689 508.849 668.444 506.877C670.739 508.521 668.235 512.63 673.868 512.794C679.501 512.958 679.501 509.343 681.17 506.22C684.717 509.343 689.098 511.315 692.645 509.343C697.443 506.877 686.595 501.947 694.105 498.824C693.479 498.166 693.062 497.18 692.227 497.016C687.638 496.358 688.264 491.428 683.256 490.606C680.962 490.277 681.587 487.154 684.508 486.99C690.558 486.497 696.4 483.374 702.659 485.84C703.493 486.168 704.745 486.333 705.162 485.511C706.206 483.538 706.206 482.388 704.954 481.895ZM406.824 519.861C401.191 522.162 395.767 524.463 389.717 525.943C387.839 526.436 387.213 525.614 387.422 524.628C387.839 522.327 389.925 520.19 392.638 520.848C395.767 521.505 397.645 521.505 399.731 519.533C401.609 517.725 403.069 516.41 399.105 515.259C395.976 514.438 393.681 512.794 391.803 509.836C395.558 509.671 407.867 515.424 408.285 517.396C408.493 518.547 408.076 519.368 406.824 519.861Z" fill="#EDEDED"/>
<path d="M112.659 316.552C114.12 308.662 112.659 306.855 101.602 304.389C98.8897 303.732 99.0984 302.088 99.307 300.609C99.7242 298.801 99.9329 296.007 97.4293 296.171C91.5878 296.5 90.7532 291.734 86.372 290.583C82.8254 289.761 80.7391 286.967 81.365 284.009C81.9909 280.722 85.7462 280.229 89.2928 279.736C91.3791 279.407 95.7603 279.571 94.7172 278.585C92.2136 275.955 97.0121 272.175 91.1705 270.039C82.8254 266.916 83.034 262.807 91.3791 259.191C95.7603 257.219 98.8897 254.753 100.559 250.973C103.48 244.563 108.278 239.139 114.954 234.702C117.458 232.894 118.709 230.922 118.084 227.963C115.789 219.088 124.342 210.706 136.234 210.87C139.989 210.87 141.033 208.733 143.119 208.076C153.55 204.46 153.968 195.585 160.018 189.668C164.608 185.23 169.406 181.615 176.499 180.135C189.017 177.67 197.988 171.589 205.916 163.864C211.758 158.276 220.937 156.632 229.074 155.153C238.462 153.509 248.267 153.674 258.073 155.975C269.339 158.769 280.188 162.878 292.705 162.878C301.05 162.878 308.352 160.412 316.072 158.933C319.201 158.44 322.33 157.454 325.46 158.769C334.222 162.056 343.819 162.056 353.207 162.713C359.258 163.042 365.099 163.7 369.272 167.973C371.149 169.945 372.819 170.438 376.157 169.123C382.207 166.987 388.466 166.822 394.933 169.452C400.775 171.753 407.034 173.068 413.084 175.205C420.386 177.834 427.688 178.82 435.616 177.177C442.918 175.533 448.551 179.149 454.601 181.45C468.579 187.038 468.162 186.874 460.234 196.9C452.306 207.254 446.256 217.937 453.766 230.264C456.687 235.195 452.932 240.29 453.349 245.385C453.975 253.932 466.075 269.217 475.881 272.504C477.967 273.161 479.845 272.504 482.557 272.997C479.427 275.298 477.758 278.092 481.097 280.393C489.65 285.981 490.485 295.185 497.578 301.595C500.082 303.896 497.995 307.676 498.413 310.799C498.621 312.278 499.456 315.237 500.29 314.415C506.549 309.32 514.268 318.195 520.319 312.278C520.736 315.237 517.815 316.223 516.772 318.031C515.729 319.839 511.765 321.975 514.06 323.619C516.146 325.098 518.441 328.878 523.031 326.577C524.908 325.591 526.995 326.084 528.246 327.728C529.498 329.371 527.829 330.358 526.577 331.179C523.657 333.152 522.196 334.96 526.786 336.932C527.829 337.425 529.915 338.082 528.664 339.562C527.621 340.712 525.534 341.37 524.074 340.383C518.65 336.932 512.391 338.411 510.722 342.027C509.261 345.314 512.391 349.752 519.275 350.738C524.491 351.56 526.369 358.298 522.822 362.572C520.736 365.201 519.067 367.502 521.362 370.625C523.031 372.926 521.57 374.241 518.441 374.57C516.563 374.734 514.686 375.556 514.686 377.035C514.686 379.336 517.398 378.843 519.275 379.172C519.693 379.172 520.319 379.172 520.736 379.336C525.117 380.322 530.541 381.144 530.541 385.417C530.75 389.362 526.16 391.334 521.362 392.156C517.815 392.813 515.312 393.306 515.103 397.251C514.894 401.689 505.715 404.318 499.039 401.853C494.031 400.045 490.485 398.894 490.693 405.14C490.693 407.112 489.233 406.948 487.147 406.784C482.766 406.455 478.802 411.057 481.722 413.522C486.104 417.138 485.895 419.768 480.471 423.055C485.895 421.74 489.024 423.712 492.362 425.192C494.449 426.178 495.7 427.493 494.866 429.629C494.031 431.766 492.154 432.916 489.233 432.259C486.938 431.766 484.852 431.108 483.183 433.081C481.305 435.382 483.6 436.532 485.06 438.176C487.355 440.641 488.607 443.107 483.6 444.914C480.471 446.065 482.348 448.366 481.931 450.174C478.593 454.118 474.212 454.447 468.996 452.804C464.406 451.324 460.025 449.352 455.435 448.037C453.766 446.887 453.349 444.914 451.471 443.764C445.212 439.655 443.126 434.889 448.551 428.972C440.831 430.122 434.364 433.574 427.479 435.71C425.184 436.368 426.227 438.011 428.522 438.34C430.817 438.669 433.112 438.34 435.198 438.833C437.285 439.326 440.623 439.326 439.371 442.449C429.148 442.449 419.343 443.107 409.537 446.394C403.695 448.202 396.185 447.215 391.595 442.12C390.343 440.641 389.091 439.491 386.797 440.477C379.703 443.6 371.775 440.806 364.265 443.107C361.97 443.764 360.509 443.764 359.675 445.736C359.049 447.544 357.171 448.202 355.085 448.037C349.244 447.544 343.819 449.352 337.978 449.188C335.683 449.188 333.596 449.352 331.719 450.667C328.589 452.968 325.251 453.132 322.748 450.174C320.661 447.873 318.367 449.188 316.072 449.188C311.065 449.188 306.892 449.352 305.64 443.6C304.597 437.683 299.59 435.382 291.454 435.053C288.741 434.889 286.446 434.396 284.986 432.588C280.814 427.657 274.346 423.384 275.598 416.481C275.806 415.495 275.598 414.344 274.555 413.687C264.332 406.784 264.332 396.429 260.577 387.554C259.951 386.239 259.325 384.924 259.116 383.609C258.699 379.993 256.404 378.843 252.023 379.829C247.016 380.98 242.635 380.486 238.253 377.528C231.786 373.09 227.822 374.241 225.318 380.486C223.023 385.91 215.93 388.869 208.628 387.554C206.959 387.225 205.916 386.732 205.29 385.417C202.161 377.364 192.981 372.269 189.017 364.544C186.931 360.435 181.089 361.092 176.708 360.106C173.161 356.162 170.032 351.888 165.859 348.437C164.816 347.615 163.773 346.465 163.773 345.314C164.608 334.467 152.507 332.33 144.371 327.892C138.946 324.769 132.896 322.304 129.349 317.702C127.055 314.579 124.342 314.415 120.587 316.059C118.709 317.373 115.789 319.017 112.659 316.552Z" fill="#EDEDED"/>
<path d="M938.826 614.86C939.035 614.038 938.826 613.216 939.243 612.559C946.754 603.848 945.92 600.889 933.819 594.973C936.949 594.315 939.452 593.822 942.164 593.165C943.625 592.836 945.711 592.343 945.085 591.028C941.747 582.974 953.222 578.537 952.596 570.976C952.387 569.004 954.682 568.84 956.351 569.99C960.106 572.456 962.193 570.319 965.322 568.675C980.135 561.115 976.379 549.774 974.919 539.255C974.293 535.311 973.876 532.517 976.588 529.065C981.804 522.491 978.257 517.396 968.66 515.752C963.653 514.931 964.279 511.643 965.322 508.685C965.739 507.37 967.408 506.548 968.243 505.234C969.494 503.426 968.869 501.782 967.408 500.303C965.322 498.495 963.861 499.81 962.401 500.796C959.689 502.44 956.977 504.083 953.639 502.275C949.258 500.139 947.38 501.946 945.711 504.905C944.459 507.042 942.999 509.507 939.035 508.356C937.157 507.863 935.071 507.041 935.488 505.069C935.697 502.439 937.574 500.796 940.912 500.138C943.833 499.481 947.38 498.659 945.085 495.536C941.538 490.277 944.25 486.333 948.006 481.895C953.847 474.663 951.344 469.075 941.121 465.459C940.287 465.13 939.243 464.966 938.409 464.637C934.862 462.665 933.819 460.693 938.826 459.378C942.164 458.392 944.668 457.241 944.668 454.118C944.668 452.639 945.92 451.653 947.589 450.831C952.178 449.023 957.811 447.38 950.301 442.778C948.84 441.792 950.927 441.299 951.552 440.641C955.308 436.204 959.063 432.423 966.574 437.683C968.869 439.162 981.386 432.423 982.638 428.643C983.681 425.685 984.724 426.013 987.645 426.671C995.782 428.479 997.868 427 997.868 420.261C997.868 417.138 998.911 413.522 997.659 410.893C994.113 404.318 999.12 403.332 1005.17 402.51C1007.88 402.182 1010.39 401.524 1013.72 400.867C1011.64 398.073 1006.63 396.429 1010.59 392.32C1011.85 391.005 1010.39 387.883 1006.63 388.047C1003.71 388.211 1002.46 387.061 1001.21 385.582C999.12 382.623 996.407 380.651 991.609 381.144C988.48 381.473 986.602 379.665 985.767 377.035C995.156 376.542 999.954 370.296 1006.84 366.845C1011.43 364.544 1015.6 362.407 1021.03 365.366C1023.11 366.516 1026.03 369.803 1028.54 366.681C1030.83 364.051 1028.54 359.613 1025.62 359.12C1015.6 356.983 1013.72 347.451 1003.71 345.478C1001.21 344.985 1000.37 342.849 1001.21 341.041C1003.5 336.274 1000.58 332.659 997.451 329.043C994.738 326.084 994.947 323.29 996.616 320.168C997.868 318.031 1000.37 316.552 1002.46 317.538C1009.76 321.154 1020.61 317.045 1026.03 324.441C1027.28 326.084 1030.62 326.249 1032.92 324.934C1035 323.783 1037.09 321.318 1036.05 320.003C1032.92 315.894 1037.72 310.963 1032.71 307.183C1031.04 305.868 1032.92 304.554 1034.38 303.896C1036.67 302.746 1039.18 300.938 1041.89 302.91C1047.52 307.183 1057.54 309.649 1053.78 318.524C1053.36 319.51 1053.78 321.482 1054.61 321.811C1064.84 326.742 1058.37 332.33 1056.08 337.918C1054.2 342.52 1059 344.492 1063.17 347.122C1061.08 348.601 1057.12 348.93 1058.16 352.053C1059 354.682 1061.92 354.847 1064.42 355.669C1066.72 356.49 1069.22 356.983 1071.1 358.134C1074.23 360.271 1076.1 359.449 1078.61 357.312C1084.87 352.217 1091.12 353.203 1094.25 359.449C1098.64 368.16 1106.98 369.968 1116.37 364.38C1116.99 364.051 1117.41 363.558 1118.04 363.229C1121.38 361.914 1126.38 357.805 1126.8 358.791C1129.09 362.572 1134.73 364.051 1135.77 368.16C1136.61 372.104 1138.9 371.94 1142.24 369.968C1149.33 366.023 1156.43 361.914 1161.02 355.504C1159.35 358.956 1157.68 362.407 1155.8 365.694C1154.13 368.653 1154.55 371.447 1157.89 372.926C1161.43 374.405 1162.27 371.283 1163.94 369.639C1166.23 367.502 1168.53 365.366 1170.19 363.065C1173.32 358.627 1177.5 358.134 1182.5 360.599C1187.09 362.9 1188.55 369.146 1185.63 372.597C1185.42 372.926 1185.01 373.09 1184.59 373.419C1178.54 377.528 1189.81 380.158 1186.05 383.938C1182.09 387.883 1181.25 391.17 1187.93 394.293C1179.37 397.415 1183.96 402.675 1183.55 407.605C1178.96 406.619 1175.41 406.126 1176.45 401.031C1176.87 398.895 1174.16 395.772 1173.95 392.813C1173.95 391.498 1173.12 389.526 1170.61 389.362C1168.11 389.197 1167.27 390.841 1166.65 392.32C1165.4 394.786 1164.35 397.087 1164.56 399.716C1164.56 401.524 1165.4 403.661 1161.64 404.318C1159.76 404.647 1159.97 406.291 1160.6 407.277C1161.43 409.085 1162.06 411.221 1163.73 412.536C1172.7 420.754 1171.66 430.451 1169.99 439.984C1169.36 443.6 1168.32 447.051 1173.74 449.023C1176.45 450.01 1176.04 451.16 1174.78 453.132C1169.99 460.693 1170.61 462.008 1177.29 466.281C1179.58 467.76 1181.04 467.103 1183.34 466.774C1186.47 466.117 1188.35 468.089 1188.76 469.732C1189.18 471.705 1186.26 471.705 1184.38 471.869C1175.83 472.691 1167.69 474.663 1158.51 472.527C1153.5 471.376 1148.5 475.649 1142.86 476.635C1139.94 477.129 1137.86 477.128 1135.35 476.471C1132.64 475.649 1130.14 474.334 1126.8 475.156C1124.71 475.649 1121.58 478.772 1120.12 475.649C1118.66 472.526 1115.53 468.911 1119.92 465.295C1122.84 462.994 1127.63 461.35 1125.76 456.584C1123.67 451.653 1119.08 448.859 1113.45 446.887C1111.78 446.394 1110.11 445.901 1108.44 445.572C1095.92 442.449 1089.04 446.722 1091.54 456.913C1092.79 461.843 1091.12 463.98 1085.49 465.13C1079.23 466.445 1076.94 471.047 1073.39 474.334C1070.68 476.8 1068.38 479.265 1064.84 480.744C1060.46 482.552 1056.08 485.182 1051.49 480.909C1050.86 480.251 1049.19 480.416 1047.94 480.087C1044.39 479.43 1040.22 477.786 1037.3 480.251C1034.17 482.881 1038.34 485.182 1039.59 487.647C1041.68 491.756 1044.81 495.536 1046.69 499.645C1048.15 502.933 1051.28 501.289 1053.57 501.618C1057.12 502.275 1060.87 501.125 1066.92 500.303C1073.39 499.481 1076.31 496.687 1077.98 492.085C1078.4 491.099 1079.44 489.948 1080.69 489.291C1082.57 487.976 1084.45 486.004 1087.16 487.483C1089.46 488.798 1088 490.77 1087.16 492.414C1084.87 496.851 1085.28 502.768 1076.31 503.59C1074.23 503.754 1068.38 506.877 1075.06 510.329C1077.77 511.808 1077.56 514.931 1075.48 516.739C1072.97 518.711 1071.93 515.917 1070.47 514.766C1069.22 513.78 1067.97 513.451 1066.51 514.273C1065.25 514.931 1065.46 515.917 1066.09 516.903C1067.34 519.04 1067.76 521.341 1067.55 523.806C1067.34 526.271 1065.88 528.079 1062.96 528.572C1060.04 529.065 1057.33 530.38 1053.99 527.915C1048.77 523.642 1041.89 523.97 1036.46 527.915C1028.33 533.832 1021.65 540.735 1015.39 547.966C1008.93 555.362 1012.05 560.293 1023.11 560.951C1025.62 561.115 1028.74 560.786 1029.79 562.759C1030.62 564.402 1027.7 565.224 1026.66 566.374C1023.32 569.826 1025.2 573.606 1030.41 574.592C1040.64 576.729 1041.26 577.879 1037.72 585.604C1036.26 589.056 1033.13 591.685 1030.83 594.808C1028.33 598.26 1028.74 600.232 1033.96 600.889C1036.67 601.218 1039.18 602.04 1042.31 602.697C1040.64 605.984 1036.46 606.806 1034.17 608.943C1030 612.723 1030.21 616.339 1036.67 620.119C1040.85 622.584 1042.93 619.297 1044.81 616.503C1047.94 611.901 1053.99 615.517 1058.37 613.709C1053.36 619.297 1047.31 622.749 1038.76 625.214C1022.9 629.816 1012.47 624.392 1002.87 616.01C996.825 610.915 989.314 607.792 982.429 603.848C974.919 599.739 967.408 603.848 960.523 601.054C959.063 600.396 958.646 602.369 957.811 603.355C953.639 608.285 950.301 613.874 941.33 614.367C940.078 615.353 939.452 615.353 938.826 614.86Z" fill="#EDEDED"/>
<path d="M1273.88 559.307C1273.67 562.265 1273.05 565.059 1268.46 565.224C1264.7 565.224 1259.9 566.374 1258.86 561.772C1258.44 559.636 1255.94 559.471 1254.27 558.814C1254.9 556.842 1256.57 557.335 1258.03 557.17C1271.8 555.362 1279.1 540.57 1270.96 531.366C1267.62 527.75 1261.99 524.628 1265.54 519.039C1260.32 518.382 1265.95 508.192 1255.52 512.136C1254.48 512.63 1253.44 511.643 1253.44 510.986C1251.77 503.097 1241.75 498.495 1241.13 489.948C1240.71 485.511 1241.34 483.21 1246.97 482.552C1248.43 482.388 1249.89 481.895 1251.14 481.402C1258.23 478.608 1263.45 477.95 1270.13 483.867C1275.97 488.962 1285.15 494.221 1296 489.455C1299.33 487.976 1300.59 489.291 1301 492.249C1301.84 499.645 1304.76 507.206 1298.92 514.273C1297.46 516.081 1299.13 518.053 1299.96 519.861C1301.84 524.299 1301.21 528.243 1296.83 531.531C1294.12 533.503 1295.16 534.818 1298.5 535.639C1301.63 536.461 1305.59 536.297 1307.05 539.42C1304.55 541.228 1301.63 538.927 1298.71 540.077C1300.8 542.378 1300.17 546.487 1306.01 546.323C1307.26 546.323 1308.72 547.473 1308.1 548.295C1305.18 553.554 1311.85 556.348 1312.9 560.457C1313.31 562.101 1314.15 563.745 1316.65 563.252C1319.36 562.594 1321.87 561.608 1321.66 558.814C1321.24 556.348 1319.78 553.883 1321.03 550.432C1323.33 553.226 1325.2 555.691 1327.29 557.828C1328.33 558.978 1329.17 561.279 1331.46 560.622C1333.13 560.129 1334.38 558.485 1335.22 557.17C1337.1 554.047 1347.74 547.473 1352.12 547.309C1357.12 546.98 1361.09 546.487 1357.96 541.392C1357.75 541.063 1357.54 540.57 1357.75 540.242C1359.21 534.16 1356.5 531.037 1348.78 529.723C1345.23 529.065 1332.92 517.396 1333.34 514.93C1333.76 512.958 1335.64 512.794 1337.1 514.109C1341.69 518.053 1347.74 520.026 1353.37 522.491C1354.62 522.984 1356.71 524.135 1357.33 523.806C1363.38 520.026 1363.17 525.285 1366.93 527.093C1366.93 520.683 1366.93 514.109 1366.93 507.699C1366.93 498.33 1373.61 493.893 1385.71 495.701C1391.55 496.523 1397.6 496.029 1399.68 502.768C1400.94 506.877 1410.95 504.576 1412.83 498.824C1414.29 494.55 1416.58 493.235 1420.76 495.372C1427.01 498.495 1431.81 496.029 1436.4 493.728C1439.74 492.085 1442.45 491.756 1446 493.235C1452.05 496.029 1457.89 496.029 1463.32 491.756C1465.61 489.784 1475.83 493.071 1477.71 496.523C1479.8 500.467 1482.93 504.74 1475 507.206C1473.54 507.699 1471.87 508.849 1472.5 509.835C1475 515.095 1470.62 520.847 1473.96 526.107C1475.21 528.079 1477.29 531.531 1470.41 530.709C1466.86 530.38 1468.32 534.16 1466.03 535.968C1463.52 531.695 1460.19 532.024 1455.81 533.832C1450.8 536.133 1445.17 536.626 1439.12 536.626C1428.68 536.626 1411.58 546.816 1408.03 554.376C1406.36 558.156 1411.79 560.622 1410.12 564.402C1409.49 565.717 1410.53 567.196 1407.61 567.525C1406.15 567.689 1404.27 568.511 1404.69 569.826C1406.57 576.729 1400.31 575.414 1395.72 575.578C1394.89 575.578 1394.26 575.743 1393.43 575.578C1389.04 574.921 1384.25 577.879 1380.28 575.743C1375.48 573.113 1381.53 569.497 1380.28 566.046C1379.24 562.923 1379.66 559.8 1373.61 561.772C1370.69 562.758 1371.31 559.8 1369.85 558.978C1368.18 557.828 1366.1 556.513 1363.8 557.17C1360.88 557.992 1363.59 559.8 1363.59 561.279C1363.59 562.265 1364.43 563.58 1364.01 564.073C1355.25 572.127 1356.92 585.275 1343.15 591.028C1339.6 592.507 1341.27 598.424 1334.59 597.766C1342.94 609.436 1355.87 614.695 1371.94 615.846C1373.4 616.01 1375.28 615.681 1375.9 616.996C1378.2 622.913 1381.74 628.337 1389.25 633.268C1382.79 632.61 1378.4 630.309 1373.19 632.281C1369.85 633.432 1367.97 634.582 1371.31 636.555C1374.65 638.527 1371.52 639.842 1371.1 641.485C1375.9 642.143 1380.49 642.636 1386.12 643.458C1381.74 645.266 1377.78 646.909 1379.24 650.854C1379.86 652.333 1378.82 652.333 1377.36 652.497C1374.44 652.99 1369.22 650.525 1370.27 656.278C1370.48 657.592 1366.51 656.113 1363.8 656.771C1365.05 657.921 1365.89 658.579 1366.51 659.4C1368.18 661.208 1371.94 664.331 1370.48 664.989C1366.72 666.796 1367.35 672.549 1360.67 671.398C1357.54 670.905 1356.92 671.891 1356.92 674.686C1356.92 676.658 1350.03 676.329 1351.28 680.274C1343.98 681.095 1340.85 688.985 1331.88 686.848C1329.59 686.355 1326.87 686.848 1324.37 686.684C1316.86 686.684 1311.85 683.232 1313.73 677.644C1316.44 669.262 1313.1 663.838 1304.55 659.4C1302.67 658.414 1301.63 656.278 1300.17 654.634C1295.58 649.703 1290.99 649.046 1284.52 652.826C1282.85 653.812 1281.39 655.127 1279.31 654.47C1272.63 652.169 1270.13 655.291 1267.41 659.4C1263.66 664.989 1256.57 667.783 1250.52 671.563C1249.06 672.385 1246.55 672.22 1246.34 671.563C1245.3 667.618 1237.37 666.796 1239.46 661.701C1239.88 660.715 1240.5 659.565 1240.08 658.907C1235.91 653.483 1239.46 648.06 1239.46 642.8C1239.46 639.678 1236.33 637.048 1232.99 635.076C1231.11 633.925 1229.24 633.103 1227.36 632.117C1225.48 631.131 1224.44 629.816 1225.06 628.173C1225.48 626.365 1227.57 625.543 1229.44 625.543C1238.21 625.214 1237.37 623.571 1230.9 620.283C1227.78 618.64 1228.61 615.024 1227.78 611.408C1232.37 613.873 1235.91 616.01 1240.92 615.517C1241.54 612.559 1236.33 611.901 1236.54 609.107C1240.29 608.285 1242.59 609.929 1244.67 611.901C1246.34 613.545 1248.43 615.024 1250.31 616.668C1251.98 617.982 1253.44 617.161 1254.9 616.174C1255.94 615.517 1256.98 614.531 1255.52 613.873C1249.26 611.244 1247.18 605.984 1242.59 601.875C1249.68 600.889 1256.77 598.26 1263.66 603.355C1261.99 598.753 1259.7 595.465 1253.23 595.465C1248.01 595.465 1244.67 593.329 1243.21 588.891C1242.17 585.44 1243.01 583.632 1246.97 582.481C1250.72 581.495 1254.06 579.852 1256.98 577.715C1263.24 573.113 1268.87 574.263 1272 580.673C1272.84 582.317 1272.63 584.618 1275.55 584.618C1279.72 584.782 1277.22 582.153 1277.85 580.673C1278.47 579.03 1279.93 577.879 1282.02 577.386C1284.31 576.729 1285.36 578.537 1285.77 579.523C1287.86 583.96 1292.87 582.646 1295.37 581.495C1298.29 580.016 1295.58 577.057 1293.7 575.414C1290.57 572.455 1287.65 569.826 1293.08 566.703C1288.28 562.923 1295.58 557.17 1293.49 556.677C1284.73 554.376 1289.74 547.473 1285.36 544.186C1284.31 543.364 1283.06 542.707 1280.35 543.2C1285.15 546.98 1285.57 550.925 1282.64 555.362C1282.44 558.649 1277.01 560.786 1273.88 559.307C1273.26 558.814 1273.05 557.992 1272.84 557.335C1273.26 557.992 1273.26 558.649 1273.88 559.307Z" fill="#EDEDED"/>
<path d="M619.208 68.5369C617.331 77.2478 614.201 86.9449 608.986 96.1489C606.482 100.422 600.223 102.394 595.216 105.024C588.123 108.64 582.073 112.749 578.943 119.159C574.979 128.034 564.965 129.02 555.16 129.349C549.527 129.678 544.102 130.499 539.304 132.307C525.534 137.402 513.225 135.43 501.334 128.856C495.075 125.24 488.607 121.789 480.679 120.967C479.636 120.802 478.802 120.474 477.967 119.981C468.579 115.214 459.399 95.6558 462.737 87.2736C463.989 84.1508 465.45 81.1924 462.32 78.3983C462.111 78.0696 461.694 77.5765 461.903 77.2478C467.119 67.2221 460.442 56.2101 466.493 46.3487C467.953 43.8834 469.831 41.418 471.082 38.9527C475.046 31.0635 481.097 25.311 491.111 21.0378C501.125 16.9288 508.636 9.53276 518.441 4.60206C525.743 0.821845 532.628 -1.80787 541.39 1.15056C547.858 3.2872 554.534 3.12284 561.418 2.95849C570.807 2.79413 578.317 5.5882 584.159 11.505C586.037 13.313 587.706 15.4496 590.001 16.9288C609.194 27.7764 613.158 44.7052 619 60.9765C619.209 62.9488 619 65.2498 619.208 68.5369Z" fill="#EDEDED"/>
<path d="M16.8992 386.403C13.3526 386.075 9.80587 385.746 6.25919 385.253C2.29526 383.774 0.000351667 381.637 0.20898 377.528C0.20898 306.033 0.20898 234.373 0.20898 162.713C9.38862 161.234 17.1079 162.056 20.6545 170.274C20.8632 170.931 21.6977 171.917 22.5322 172.082C31.2946 173.068 31.9205 178.656 33.3808 183.751C33.7981 185.395 35.0499 186.71 36.7189 187.531C41.5173 189.997 46.9417 192.133 44.8554 198.05C44.6468 198.708 45.8985 199.858 46.9417 200.351C58.8335 207.583 65.5096 217.609 70.0994 228.621C70.5166 229.607 71.1425 230.428 71.1425 231.415C71.1425 238.318 73.0202 244.728 77.4014 250.809C77.8186 251.466 78.0273 252.781 77.61 253.11C71.3512 256.726 74.0633 264.122 65.9268 267.902C71.7684 268.066 75.3151 268.888 78.0273 271.353C70.9339 275.134 73.6461 282.365 69.0563 286.967C75.3151 290.09 69.4735 291.405 66.3441 293.87C71.7684 293.706 72.3943 295.514 71.1425 298.637C70.308 300.773 68.2217 303.403 72.1857 305.375C72.6029 305.54 72.3943 307.348 71.7684 308.169C66.7614 316.387 66.5527 325.098 66.3441 333.973C66.3441 335.617 64.8837 336.932 63.6319 338.082C62.3802 339.233 60.2939 340.383 59.8766 341.698C57.1645 350.245 49.4452 355.669 41.726 361.092C40.0569 362.243 39.2224 363.393 39.8483 365.201C41.726 370.625 38.8052 375.884 37.3448 380.815C36.093 385.088 36.9275 387.225 40.4742 390.019C47.5676 395.279 47.1503 398.894 39.6397 403.99C31.0859 410.071 25.453 417.631 20.4459 426.178C24.8271 426.178 25.0357 424.041 26.4961 422.891C30.6687 419.275 34.424 415.33 41.726 416.152C47.1503 416.809 47.9848 413.687 49.8625 410.728C51.9487 407.277 50.2797 401.36 58.2076 401.031C63.8406 400.538 67.3872 403.003 69.0563 406.784C72.1857 413.522 76.1496 420.261 76.7755 427.657C74.272 429.629 73.6461 432.916 70.0994 434.067C55.7041 434.889 41.5173 437.518 27.3306 439.162C20.2373 439.984 16.482 438.34 13.1439 434.067C11.0576 431.437 7.30234 430.451 4.38154 428.643C1.04349 426.506 -0.625533 423.877 -0.416905 420.425C0.000351667 416.974 3.75566 416.809 6.67645 416.316C13.3526 415.001 17.1079 411.714 18.9855 406.455C20.6545 401.36 22.9494 396.429 24.8271 391.334C25.8702 391.005 28.1651 392.485 27.7479 390.348C27.5393 388.54 27.122 386.075 23.784 386.239C22.1149 386.239 19.4028 385.088 16.8992 386.403Z" fill="#EDEDED"/>
<path d="M886.043 303.403C880.41 304.554 876.863 302.417 872.899 299.952C876.655 304.225 870.187 305.868 869.561 309.484C868.518 316.223 863.72 322.633 868.935 329.536C866.849 331.508 864.554 329.372 862.051 331.673C863.094 327.235 864.137 323.783 860.59 321.482C857.878 319.839 857.044 323.783 853.706 323.455C853.08 320.003 852.245 316.387 851.828 312.771C851.619 310.799 851.202 308.663 849.324 307.348C847.655 306.362 846.195 304.389 843.691 305.54C841.605 306.526 842.231 308.334 843.065 309.813C844.526 312.771 844.526 314.908 840.145 316.552C835.346 318.36 835.972 322.633 835.555 325.92C834.303 335.617 834.512 335.781 823.037 338.247C820.325 338.904 818.447 340.383 815.735 341.37C812.189 335.453 817.196 330.193 816.987 324.77C812.814 323.619 811.771 331.508 806.764 327.071C801.34 322.304 800.505 317.373 808.225 312.771C804.887 311.457 801.966 313.758 799.254 311.785C803.635 308.169 804.887 304.389 800.297 300.116C798.836 298.801 799.462 296.993 800.714 295.678C805.512 290.583 803.635 285.16 802.592 279.736C802.592 279.407 802.592 278.75 802.383 278.585C792.369 271.025 804.887 271.354 808.225 268.888C810.728 266.916 812.606 267.738 812.188 271.025C811.354 276.284 810.937 281.544 813.023 286.803C814.692 291.241 818.239 292.884 823.663 292.556C836.389 291.734 846.821 286.803 857.461 281.872C859.964 280.722 860.173 278.257 861.216 276.284C862.051 274.641 862.259 272.504 865.597 273.49C868.309 274.312 869.978 275.956 868.309 278.092C864.554 282.859 868.727 284.502 872.899 286.146C876.237 287.461 878.532 289.104 878.532 292.391C877.489 297.486 883.122 299.459 886.043 303.403Z" fill="#EDEDED"/>
<path d="M13.7696 433.738C20.0284 439.655 27.9563 437.683 35.6755 436.861C47.9846 435.382 60.085 433.081 72.3941 432.423C73.6459 430.78 74.8976 429.136 76.7753 427.986C76.1494 420.261 70.5164 414.015 67.8043 406.948C66.5525 403.661 62.1713 402.675 59.2505 400.702C57.3729 397.58 50.0709 396.429 52.5744 392.485C55.4952 388.047 60.9195 391.991 65.3007 392.156C69.8906 392.32 74.4804 392.649 76.1494 388.047C77.1925 385.582 79.6961 384.924 82.1996 384.102C97.0122 379.172 100.142 374.405 97.2208 361.914C96.8036 359.777 96.3863 357.641 95.7605 355.504C93.4655 347.615 93.4655 347.779 103.48 346.136C109.321 345.314 110.364 341.534 111.199 337.918C108.695 328.221 112.659 324.934 124.134 327.892C137.486 331.508 151.881 333.809 161.687 342.849C167.32 348.108 172.744 353.368 177.543 359.12C185.888 359.613 191.521 362.243 195.067 368.981C197.988 374.898 204.873 379.172 208.837 384.924C210.923 387.883 216.556 386.239 220.729 385.253C225.319 384.102 225.944 380.651 225.11 378.021C223.441 372.433 226.779 372.269 231.786 373.419C234.915 374.077 238.253 374.898 240.548 376.378C244.721 379.172 249.102 379.665 253.692 378.514C258.282 377.364 260.159 378.843 261.203 382.13C262.872 387.554 264.958 392.813 266.418 398.073C267.879 403.168 270.591 407.77 275.181 411.55C276.85 412.865 278.519 414.344 278.101 416.152C277.058 421.904 281.857 425.685 285.403 429.958C287.072 431.93 289.367 433.738 292.705 433.409C303.137 432.423 305.849 438.504 308.561 444.257C309.604 446.229 309.813 447.708 313.151 447.708C317.949 447.708 323.582 445.407 326.92 450.503C327.129 450.831 329.007 450.831 329.633 450.338C337.143 446.229 346.114 447.873 354.251 446.394C355.711 446.065 358.006 446.065 358.423 445.407C362.179 439.326 369.481 440.805 375.531 440.641C383.25 440.312 391.387 436.861 398.689 443.764C401.609 446.558 409.329 446.558 414.961 443.928C423.098 440.148 432.069 442.285 440.623 441.627C448.133 438.998 452.306 443.271 457.104 446.394C461.068 447.873 465.032 449.352 468.996 450.996C474.003 453.297 478.384 451.817 482.766 449.681C485.478 449.188 487.564 447.051 490.693 447.873C491.111 450.009 488.399 450.009 487.355 450.996C476.507 456.584 466.701 452.968 457.104 448.695C450.011 450.667 445.213 447.708 440.831 443.764C432.278 441.299 424.141 442.613 416.213 445.407C407.034 448.53 398.48 448.695 391.178 442.12C390.552 441.627 389.3 440.97 388.674 441.134C380.746 443.764 369.272 440.148 364.473 444.257C356.337 451.16 346.949 447.38 338.604 449.845C336.309 450.503 333.805 450.667 331.927 452.146C330.258 453.297 328.172 453.954 326.503 452.804C322.539 450.009 317.741 450.009 312.734 449.681C308.77 449.352 305.64 448.695 305.432 444.093C305.223 440.477 302.511 436.204 295.626 435.875C286.447 435.546 275.598 426.835 275.389 419.275C275.181 415.33 273.512 412.7 270.382 409.906C263.497 404.154 263.706 396.1 260.994 389.033C258.699 383.281 257.656 378.185 247.642 381.308C244.721 382.294 242.009 380.651 239.714 378.843C234.081 374.898 230.743 375.556 227.613 381.144C226.362 383.281 226.779 386.403 223.441 386.896C218.642 387.718 213.635 387.883 208.628 388.211C207.168 388.376 205.707 387.389 205.29 386.075C202.787 377.692 193.19 372.762 189.226 365.037C187.557 361.75 183.384 360.928 179.003 361.257C174.205 364.051 171.284 361.75 168.572 358.791C165.651 355.504 162.521 352.217 159.183 349.094C149.795 340.383 136.026 338.74 123.717 334.631C121.004 333.645 118.292 332.823 115.789 331.508C113.911 333.152 114.537 335.288 114.328 337.096C113.911 342.849 110.99 346.958 103.48 348.108C99.933 348.766 96.8036 350.08 98.4726 353.203C105.149 365.694 101.185 376.049 90.3361 386.075C83.2428 392.649 80.5306 401.524 76.358 409.413C73.02 415.823 79.6961 421.576 79.0702 427.821C78.8616 429.958 79.4874 432.095 79.9047 434.231C76.9839 437.025 74.0631 435.71 71.1423 434.396C58.2074 434.56 45.4811 437.025 32.9634 438.669C24.8269 439.819 17.9422 439.655 12.5178 434.231C12.7265 434.56 13.1437 434.231 13.7696 433.738Z" fill="#F9F9F9"/>
<path d="M1168.94 569.99C1167.9 566.539 1166.86 563.087 1165.61 559.8C1164.77 557.992 1161.22 556.677 1160.81 556.184C1156.63 550.596 1152.04 552.733 1147.04 554.705C1144.95 551.253 1141.2 547.966 1141.2 544.515C1141.4 541.228 1145.99 539.748 1151.21 540.899C1155.59 541.885 1167.48 535.968 1168.32 532.188C1169.36 528.079 1171.24 528.572 1174.99 529.722C1184.17 532.845 1190.22 529.229 1188.97 521.176C1188.35 517.067 1189.18 514.109 1195.86 516.574C1198.36 517.396 1199.4 516.574 1200.65 514.93C1205.66 508.52 1213.8 507.863 1222.35 508.356C1224.44 508.52 1225.69 509.178 1225.9 510.821C1226.94 518.875 1229.24 526.764 1225.06 534.653C1223.6 537.283 1221.31 537.94 1218.39 539.091C1209.83 542.871 1205.87 539.255 1201.28 534.489C1198.15 531.202 1193.56 529.722 1190.01 534.653C1189.18 535.968 1187.93 536.461 1186.47 535.968C1178.12 533.831 1173.53 538.269 1169.78 542.542C1165.61 547.473 1163.94 553.061 1169.78 558.321C1170.82 559.307 1171.24 560.95 1172.49 561.937C1177.29 566.21 1175.2 568.511 1168.94 569.99Z" fill="#EDEDED"/>
<path d="M1437.45 689.314C1438.49 680.438 1446.63 675.014 1453.51 668.933C1454.35 668.276 1455.6 668.111 1456.22 668.769C1460.4 674.028 1468.12 674.028 1474.37 676.165C1477.5 677.315 1478.55 678.795 1478.13 681.26C1477.3 685.205 1476.88 689.149 1475.42 692.765C1472.71 700.819 1465.61 703.448 1455.81 700.49C1453.09 699.668 1451.01 698.682 1447.46 700.161C1443.29 701.805 1437.66 695.23 1437.45 689.314Z" fill="#EDEDED"/>
<path d="M177.334 359.12C172.953 358.956 171.701 355.833 170.032 353.696C157.931 338.247 137.903 333.645 117.875 328.714C114.745 328.057 113.285 328.878 112.868 331.508C112.659 333.645 111.825 335.781 111.199 337.754C109.53 337.754 108.069 337.589 106.818 336.603C104.731 331.837 105.983 327.235 106.818 322.468C107.235 322.468 107.861 322.304 108.278 322.304C107.861 319.346 109.321 317.538 112.659 316.387C116.414 316.716 118.501 314.415 121.213 313.1C125.803 310.799 129.767 311.128 132.062 315.401C134.148 319.181 137.694 322.304 142.284 323.619C150.421 325.92 155.428 332.001 163.773 333.809C165.859 334.302 167.946 335.946 166.694 338.575C164.399 343.342 167.528 346.958 171.492 350.081C174.622 353.039 177.542 355.504 177.334 359.12Z" fill="#EDEDED"/>
<path d="M1299.33 694.737C1297.25 695.23 1295.79 694.573 1295.37 692.929C1294.74 690.793 1294.12 689.149 1290.57 690.793C1287.44 692.107 1287.65 689.642 1287.44 688.327C1286.82 685.369 1286.4 683.725 1281.39 686.026C1275.13 688.985 1268.25 686.191 1261.99 685.04C1259.28 684.547 1259.7 682.41 1260.95 680.602C1262.62 677.973 1265.33 676.165 1268.25 674.85C1275.34 671.892 1282.23 668.933 1287.65 664.167C1289.53 662.359 1290.57 662.852 1292.24 665.153C1295.16 668.933 1297.87 673.042 1303.92 675.179C1308.93 676.822 1310.39 683.725 1307.68 687.834C1303.72 693.094 1302.05 694.573 1299.33 694.737Z" fill="#EDEDED"/>
<path d="M744.592 561.115C738.959 560.622 733.535 560.457 733.952 554.541C733.952 553.719 732.075 552.733 730.823 552.24C726.65 550.267 727.694 548.952 731.449 547.473C735.621 545.83 740.42 544.515 734.787 539.913C732.701 538.105 735.83 534.982 739.585 534.818C742.506 534.653 742.297 532.352 743.758 531.038C746.887 528.079 749.808 526.764 752.729 531.202C754.815 534.325 758.362 536.626 761.7 538.927C764.621 540.899 768.585 543.857 760.865 545.83C755.232 547.309 758.153 551.418 758.779 554.705C748.765 550.432 745.844 551.747 744.592 561.115Z" fill="#EDEDED"/>
<path d="M1283.9 410.728C1284.94 411.221 1285.98 411.714 1287.03 412.372C1290.57 414.344 1293.91 413.851 1295.79 410.893C1297.25 408.592 1298.5 407.77 1301.42 409.249C1304.34 410.893 1304.34 412.701 1302.05 414.673C1301.84 414.837 1301.84 415.002 1301.63 415.166C1292.66 420.918 1290.16 427.986 1294.74 436.532C1294.95 436.861 1294.95 437.354 1294.95 437.683C1294.74 439.491 1296.41 442.121 1293.28 442.778C1290.57 443.435 1290.16 440.806 1288.9 439.491C1284.94 435.546 1283.69 431.109 1285.57 426.178C1287.23 421.905 1284.73 418.124 1282.64 414.344C1281.81 412.865 1280.35 411.221 1283.9 410.728Z" fill="#EDEDED"/>
<path d="M516.771 450.338C516.98 446.887 519.692 442.942 512.599 441.134C510.93 440.641 514.685 436.532 516.563 434.395C518.858 431.93 521.57 432.423 524.491 433.738C534.505 438.504 535.131 447.708 525.951 453.132C525.117 453.625 524.282 454.118 523.448 454.447C521.57 455.269 520.318 457.734 517.815 456.748C515.728 455.762 516.98 453.461 516.563 451.817C517.189 451.653 517.397 451.324 517.189 450.831C517.397 450.502 517.189 450.338 516.771 450.338Z" fill="#EDEDED"/>
<path d="M1369.02 391.827C1364.22 387.554 1364.64 375.556 1369.64 372.762C1374.23 370.296 1379.87 369.968 1385.5 370.132C1388.21 370.296 1388.42 372.597 1389.05 374.241C1389.67 375.884 1388.42 376.542 1386.54 377.199C1382.79 378.514 1380.49 382.459 1374.86 380.98C1372.98 380.486 1371.73 382.623 1371.31 384.267C1370.48 386.732 1369.85 389.033 1369.02 391.827Z" fill="#EDEDED"/>
<path d="M1176.45 333.974C1174.16 330.851 1175.2 328.55 1174.99 326.249C1174.99 323.783 1173.95 320.989 1180 322.962C1185.01 324.605 1188.97 320.496 1193.35 319.017C1195.65 318.195 1197.94 315.73 1200.45 317.867C1202.53 319.674 1201.91 322.304 1201.49 324.605C1201.07 327.399 1197.94 327.564 1195.86 326.906C1187.09 324.77 1181.04 328.057 1176.45 333.974Z" fill="#EDEDED"/>
<path d="M1375.28 453.954C1372.15 453.79 1369.64 453.79 1367.35 454.94C1365.26 455.926 1363.59 455.598 1362.76 453.625C1362.34 452.475 1362.34 451.16 1360.46 450.996C1358.79 450.831 1355.87 452.311 1355.87 449.681C1355.87 447.215 1359.21 447.215 1361.51 446.887C1365.68 446.394 1369.85 446.065 1374.02 445.736C1378.4 445.408 1383.2 447.051 1383.41 449.845C1383.62 452.804 1379.66 455.269 1375.28 453.954Z" fill="#EDEDED"/>
<path d="M1166.86 351.56C1160.18 352.382 1158.93 350.081 1160.6 346.465C1162.48 342.191 1167.07 339.562 1171.45 336.932C1173.74 335.617 1175.62 336.603 1177.29 338.082C1178.75 339.562 1180.42 341.041 1177.5 342.356C1175.62 343.178 1175.41 344.328 1174.99 345.643C1173.95 349.916 1171.45 352.382 1166.86 351.56Z" fill="#EDEDED"/>
<path d="M699.947 442.449C703.703 443.764 707.458 444.914 711.422 446.229C711.63 446.229 712.048 446.394 712.048 446.558C711.63 451.16 714.343 455.433 714.134 459.706C713.925 462.336 708.71 459.542 705.789 459.706C703.285 459.871 700.365 458.885 701.825 456.091C703.911 451.324 702.451 447.38 699.947 442.449Z" fill="#E2E2E3"/>
<path d="M1000.37 619.955C1002.67 627.186 1004.54 632.61 1006.21 638.034C1006.63 639.513 1006.21 640.499 1003.29 640.17C995.572 639.184 991.608 633.925 994.946 628.172C996.407 625.871 998.076 623.735 1000.37 619.955Z" fill="#EDEDED"/>
<path d="M106.817 322.797C110.99 327.564 108.695 332.166 106.817 336.932C103.27 336.932 99.515 336.768 98.2632 333.48C97.2201 330.851 97.6374 328.385 101.601 327.235C102.853 326.906 103.688 326.084 102.227 325.098C100.975 324.112 99.0978 323.29 101.184 321.811C103.688 319.839 104.731 323.126 106.817 322.797Z" fill="#EDEDED"/>
<path d="M938.826 614.86C939.452 614.86 939.87 614.86 940.495 614.86C937.992 619.133 936.114 623.899 929.021 625.05C927.769 625.214 926.726 626.529 925.057 625.543C923.597 624.557 924.431 623.406 924.848 622.256C927.143 616.832 932.776 615.517 938.826 614.86Z" fill="#DFE1E4"/>
<path d="M1138.48 487.812C1139.73 493.893 1133.48 491.921 1130.55 492.578C1126.8 493.564 1124.5 490.441 1125.13 488.469C1126.38 484.689 1131.81 485.018 1135.56 484.36C1139.73 483.538 1138.07 486.661 1138.48 487.812Z" fill="#DFE1E4"/>
<path d="M1340.02 424.206C1335.85 427.164 1333.55 429.301 1329.8 430.287C1324.58 431.602 1321.87 430.123 1321.87 425.849C1321.87 423.548 1322.7 422.069 1325.83 423.713C1329.8 425.521 1333.76 424.863 1340.02 424.206Z" fill="#DCE0E4"/>
<path d="M1245.72 509.178C1246.34 511.479 1245.3 513.287 1243.01 512.794C1237.58 511.808 1237.79 507.699 1236.75 504.412C1236.33 503.097 1236.96 501.618 1239.46 501.782C1245.72 502.439 1245.51 506.055 1245.72 509.178Z" fill="#E0E2E3"/>
<path d="M1187.93 410.235C1191.27 410.071 1194.4 410.893 1194.6 413.687C1194.81 416.481 1191.06 417.631 1188.55 417.631C1185.22 417.796 1182.71 415.495 1182.71 412.701C1182.5 409.907 1185.63 410.235 1187.93 410.235Z" fill="#EDEDED"/>
<path d="M1359.42 388.869C1355.87 390.019 1352.74 391.334 1349.41 391.992C1346.07 392.649 1344.82 390.184 1344.61 388.376C1344.4 384.76 1348.99 386.075 1351.28 385.582C1354.2 384.924 1357.13 386.075 1359.42 388.869Z" fill="#E0E1E4"/>
<path d="M1277.01 391.005C1273.67 392.32 1273.05 396.1 1269.71 397.087C1267.83 397.58 1267 394.457 1267 392.978C1267 389.362 1271.38 389.197 1274.3 388.376C1276.39 387.718 1276.59 389.362 1277.01 391.005Z" fill="#EDEDED"/>
<path d="M1183.13 569.004C1180.83 567.361 1178.54 565.717 1178.75 563.58C1178.96 561.444 1181.88 561.279 1183.96 561.444C1186.47 561.608 1186.88 563.416 1186.26 565.06C1186.05 566.539 1185.42 568.182 1183.13 569.004Z" fill="#EDEDED"/>
<path d="M1061.29 565.717C1061.08 567.196 1059.83 567.689 1058.58 567.36C1055.45 566.703 1051.9 566.374 1051.07 563.416C1050.86 562.265 1052.74 561.443 1054.41 561.772C1057.33 562.43 1060.04 563.416 1061.29 565.717Z" fill="#DEE0E4"/>
<path d="M1334.59 453.954C1336.68 454.283 1339.39 454.118 1339.18 456.255C1338.97 458.391 1336.05 458.556 1333.97 458.556C1332.09 458.556 1329.38 458.391 1329.59 456.255C1329.59 453.625 1332.51 454.118 1334.59 453.954Z" fill="#EDEDED"/>
<path d="M1145.16 564.566C1143.91 566.867 1142.24 568.675 1139.11 569.004C1137.86 569.168 1137.23 567.689 1137.65 566.703C1138.9 564.073 1141.61 563.909 1145.16 564.566Z" fill="#EDEDED"/>
<path d="M512.807 451.16C509.052 451.324 506.966 450.338 504.045 449.352C509.887 446.887 509.887 446.887 512.807 451.16Z" fill="#D6DCE5"/>
<path d="M140.198 607.792C141.659 608.121 143.536 608.121 143.119 609.765C142.702 610.751 141.45 611.901 140.198 612.23C137.695 612.887 138.321 611.08 138.112 610.093C137.695 608.943 137.903 607.792 140.198 607.792Z" fill="#EDEDED"/>
<path d="M1204.41 363.558C1204.62 362.407 1205.66 361.75 1206.91 362.079C1208.58 362.407 1210.46 362.9 1210.04 364.708C1209.83 365.694 1209.21 366.845 1207.75 366.352C1206.08 365.859 1204.83 364.873 1204.41 363.558Z" fill="#EDEDED"/>
<path d="M1052.53 495.043C1055.24 493.893 1057.54 493.564 1059.62 495.208C1059.83 495.372 1059.62 496.358 1059.2 496.687C1056.49 498.33 1054.62 497.344 1052.53 495.043Z" fill="#D2DAE5"/>
<path d="M112.867 316.552C111.407 318.524 109.947 320.496 108.486 322.468C104.731 318.195 106.191 316.223 112.867 316.552Z" fill="#EDEDED"/>
<path d="M241.381 612.723C238.669 611.901 238.043 610.587 238.461 608.943C238.461 608.614 239.712 608.286 240.13 608.286C242.425 609.107 242.007 610.586 241.381 612.723Z" fill="#CCD8E6"/>
<path d="M1408.03 455.433C1407.61 452.968 1406.78 451.324 1409.28 449.845C1411.37 451.817 1410.33 453.296 1408.03 455.433Z" fill="#D3DBE6"/>
<path d="M1197.53 372.269C1195.86 372.433 1195.44 371.611 1195.02 370.954C1194.6 369.803 1195.02 368.981 1196.48 368.817C1197.73 368.653 1199.19 368.653 1198.99 370.132C1198.99 370.954 1198.15 371.776 1197.53 372.269Z" fill="#EDEDED"/>
<path d="M1382.16 393.142C1381.12 392.978 1380.07 392.649 1380.28 391.827C1380.49 390.677 1381.53 390.183 1382.99 390.348C1383.62 390.348 1384.46 391.005 1384.46 391.334C1384.46 392.32 1383.41 392.978 1382.16 393.142Z" fill="#DBDFE4"/>
<path d="M1421.8 367.995C1423.26 368.488 1423.89 369.31 1423.89 370.296C1423.89 371.282 1422.84 371.775 1422.01 371.118C1421.17 370.625 1420.97 369.474 1420.55 368.653C1420.34 368.653 1421.38 368.16 1421.8 367.995Z" fill="#DADFE4"/>
<path d="M688.681 425.521C686.803 425.685 686.595 425.027 686.803 424.206C686.803 423.713 687.22 423.055 687.638 422.891C688.681 422.562 689.724 423.055 689.724 423.877C689.933 424.534 689.098 425.192 688.681 425.521Z" fill="#D0DAE6"/>
<path d="M1129.93 499.152C1131.39 499.152 1132.22 499.316 1132.22 500.302C1132.22 500.796 1131.6 501.289 1130.97 501.453C1129.93 501.617 1129.1 500.96 1129.1 500.302C1128.89 499.809 1129.51 499.481 1129.93 499.152Z" fill="#DBDFE4"/>
<path d="M1087.16 474.827C1089.25 474.334 1091.12 474.827 1090.92 476.307C1090.71 477.621 1089.25 476.8 1088.2 476.307C1088 475.978 1087.79 475.32 1087.16 474.827Z" fill="#CFD9E6"/>
<path d="M1437.45 480.909C1436.61 481.402 1435.99 481.895 1435.57 482.059C1434.53 482.224 1433.69 481.731 1433.69 480.909C1433.69 480.58 1434.53 479.923 1434.73 479.923C1435.57 479.923 1436.2 480.416 1437.45 480.909Z" fill="#D9DEE5"/>
<path d="M178.584 593.165C178.167 593.329 177.75 593.658 177.124 593.986C176.707 593.493 176.081 593.165 176.081 592.672C176.081 592.178 176.707 591.357 176.915 591.357C178.167 591.192 178.584 592.014 178.584 593.165Z" fill="#CED8E6"/>
<path d="M955.933 429.958C955.515 430.287 955.098 430.78 954.472 430.944C953.22 431.108 952.595 430.451 952.803 429.629C952.803 429.136 953.638 428.643 954.055 428.479C955.098 428.314 955.724 428.807 955.933 429.958Z" fill="#EDEDED"/>
<path d="M1357.96 504.905C1358.38 505.233 1359 505.562 1359.63 506.055C1359.21 506.384 1358.79 506.877 1358.17 506.877C1357.54 506.877 1356.71 506.548 1356.5 506.055C1356.08 505.562 1356.5 505.069 1357.96 504.905Z" fill="#CCD8E6"/>
<path d="M193.607 610.586C192.355 610.586 191.52 610.751 191.103 610.586C190.686 610.258 190.477 609.6 190.06 609.107C190.686 609.107 191.52 608.779 191.937 608.943C192.563 609.107 192.981 609.765 193.607 610.586Z" fill="#CED9E6"/>
<path d="M516.771 450.338C518.232 450.503 519.901 449.352 521.57 450.503C520.318 452.311 518.232 451.325 516.771 451.653C516.98 451.16 516.771 450.831 516.771 450.338Z" fill="#B0CAEA"/>
<path d="M1375.49 490.77C1375.28 491.428 1375.07 491.592 1374.86 491.921C1374.23 491.592 1373.4 491.099 1372.77 490.606C1372.56 490.441 1372.98 489.948 1373.19 489.784C1374.02 490.113 1374.86 490.441 1375.49 490.77Z" fill="#C7D5E7"/>
<path d="M6.05022 385.253C9.80552 388.212 15.4385 386.732 19.611 388.705C19.1938 390.841 20.2369 392.649 21.0714 394.622C20.0283 399.552 17.3161 403.99 15.4385 408.592C14.604 410.728 13.1436 411.715 10.4314 412.536C0.834513 415.659 0 415.166 0 406.948C0 401.196 0.208628 395.443 0 389.855C0 386.568 1.66903 384.924 6.05022 385.253Z" fill="#EDEDED"/>
<path d="M16.8984 386.403C27.3298 383.116 27.5385 383.116 31.9197 389.691C32.9628 391.17 36.0922 393.142 32.3369 394.457C28.9989 395.607 25.8694 394.95 25.6608 391.17C25.6608 386.239 20.2365 387.225 16.8984 386.403Z" fill="#D3D3D3"/>
<path d="M21.0704 394.621C18.3583 393.799 16.272 392.649 16.272 390.184C16.272 388.54 18.3583 389.033 19.61 388.704C24.6171 390.019 22.1136 392.485 21.0704 394.621Z" fill="#D2D2D2"/>
<path d="M70.9337 435.053C73.8545 435.053 76.7753 434.889 79.6961 434.889C83.66 439.984 86.1636 445.408 85.7463 451.489C85.329 457.406 86.7894 462.829 92.631 467.103C94.5087 468.582 95.3432 470.39 94.3001 472.526C93.2569 474.663 90.5448 474.17 88.4585 474.17C83.4514 474.17 78.6529 474.17 73.6459 473.348C68.6388 472.526 65.0921 471.54 64.4662 467.103C64.049 464.802 61.7541 463.487 59.2505 462.501C57.5815 461.843 55.9125 461.021 56.3297 459.378C56.9556 457.241 59.2505 457.734 61.1282 457.57C64.049 457.406 67.1784 457.57 70.0992 457.57C77.8184 457.241 81.7824 452.31 77.1926 447.544C73.6459 443.6 72.6027 439.326 70.9337 435.053Z" fill="#EDEDED"/>
<path d="M115.579 332.001C118.082 330.358 120.377 332.001 122.463 332.494C142.492 336.932 160.851 343.342 171.074 358.956C172.743 361.421 175.663 361.585 178.793 361.75C175.455 366.023 171.282 366.845 168.779 363.065C164.398 356.655 157.721 352.381 151.045 347.779C148.542 345.972 146.038 344.821 143.326 347.122C141.24 348.93 142.074 350.738 144.578 352.217C146.247 353.203 149.168 353.696 148.125 355.997C147.081 358.298 144.161 358.134 141.866 358.134C138.945 358.134 135.607 357.805 135.607 355.011C135.607 348.766 128.096 345.478 127.053 339.726C126.636 337.754 123.924 336.767 121.212 336.767C116.622 336.932 115.579 334.795 115.579 332.001Z" fill="#EDEDED"/>
<path d="M440.413 444.257C446.463 444.586 451.053 448.037 456.686 449.188C456.686 450.996 456.06 452.475 453.557 452.475C448.341 452.475 442.917 451.982 438.744 449.188C436.241 447.544 434.154 444.75 440.413 444.257Z" fill="#D2D2D2"/>
<path d="M456.687 446.722C451.263 445.079 445.63 443.435 440.206 441.956C436.45 439.984 432.486 441.134 428.522 440.805C426.227 440.641 422.889 441.299 422.472 438.504C422.055 436.039 423.515 433.409 426.645 432.916C433.112 431.93 438.745 429.136 444.378 426.671C447.299 425.356 450.637 424.534 453.14 427.164C456.479 430.287 451.889 431.108 450.011 432.423C446.882 434.724 447.299 437.025 450.011 438.998C453.14 441.299 455.853 443.6 456.687 446.722Z" fill="#EDEDED"/>
<path d="M1273.88 559.307C1272.63 558.321 1271.17 557.335 1271.8 555.527C1275.13 555.856 1273.26 557.992 1273.88 559.307Z" fill="#BACFE8"/>
<path d="M76.5658 427.985C76.9831 430.615 76.9831 432.916 72.1846 432.423C69.6811 428.643 72.8105 427.985 76.5658 427.985Z" fill="#EDEDED"/>
<path d="M54.0332 392.32C63.8387 393.635 72.3925 396.758 82.198 390.841C80.529 399.059 75.9392 404.154 72.8097 410.235C72.3925 400.867 60.0834 399.552 54.0332 392.32Z" fill="#EDEDED"/>
<path d="M84.4937 385.582C85.7454 385.582 86.7886 386.075 86.3713 386.897C85.5368 389.198 83.0333 390.184 80.3211 390.512C79.2779 390.677 78.4434 390.019 78.6521 389.198C79.2779 386.568 81.9901 386.075 84.4937 385.582Z" fill="#E6E6E6"/>
<path d="M1030.5 416C1022.3 416 1015.68 422.62 1015.68 430.818C1015.68 433.676 1016.6 436.406 1017.87 438.649L1027.52 455.362C1028.13 456.454 1029.35 457 1030.5 457C1031.65 457 1032.81 456.454 1033.48 455.362L1043.13 438.659C1044.42 436.415 1045.32 433.736 1045.32 430.828C1045.32 422.63 1038.7 416 1030.5 416ZM1030.5 435.195C1027.52 435.195 1025.09 432.763 1025.09 429.786C1025.09 426.808 1027.52 424.377 1030.5 424.377C1033.48 424.377 1035.91 426.808 1035.91 429.786C1035.91 432.773 1033.48 435.195 1030.5 435.195Z" fill="#BB0909"/>
</svg>
