<svg width="185" height="570" viewBox="0 0 185 570" fill="none" xmlns="http://www.w3.org/2000/svg">
<g clip-path="url(#clip0)">
<path d="M84.7873 132.104L97.6095 132.104L99.079 134.503C117.711 164.898 129.658 198.908 134.135 234.279L145.16 321.409L39.8208 321.409L50.8523 231.025C54.8917 197.951 65.4652 166.019 81.9577 137.073L84.7873 132.104Z" fill="white"/>
<path d="M84.7873 132.104L97.6095 132.104L99.079 134.503C117.711 164.898 129.658 198.908 134.135 234.279L145.16 321.409L39.8208 321.409L50.8523 231.025C54.8917 197.951 65.4652 166.019 81.9577 137.073L84.7873 132.104Z" stroke="#0D3F57" stroke-width="0.702" stroke-miterlimit="10"/>
<path d="M86.7694 321.594L88.8882 321.594L88.8882 293.687L86.7694 321.594Z" fill="#02435F"/>
<path d="M93.6657 321.594L95.7845 321.594L95.7845 293.687L93.6657 321.594Z" fill="#02435F"/>
<path d="M95.7845 295.122L88.8882 295.122" stroke="#02435F" stroke-width="0.544" stroke-miterlimit="10"/>
<path d="M95.7845 293.687L88.8882 293.687" stroke="#02435F" stroke-width="0.544" stroke-miterlimit="10"/>
<path d="M95.7845 297.351L88.8882 297.351" stroke="#02435F" stroke-width="0.544" stroke-miterlimit="10"/>
<path d="M95.7845 299.428L88.8882 299.428" stroke="#02435F" stroke-width="0.544" stroke-miterlimit="10"/>
<path d="M95.7845 301.65L88.8882 301.65" stroke="#02435F" stroke-width="0.544" stroke-miterlimit="10"/>
<path d="M95.7845 303.946L88.8882 303.946" stroke="#02435F" stroke-width="0.544" stroke-miterlimit="10"/>
<path d="M95.7845 306.543L88.8882 306.543" stroke="#02435F" stroke-width="0.544" stroke-miterlimit="10"/>
<path d="M95.7845 309.038L88.8882 309.038" stroke="#02435F" stroke-width="0.544" stroke-miterlimit="10"/>
<path d="M95.3608 311.601L88.1022 311.601" stroke="#02435F" stroke-width="0.544" stroke-miterlimit="10"/>
<path d="M95.3608 313.884L88.1022 313.884" stroke="#02435F" stroke-width="0.544" stroke-miterlimit="10"/>
<path d="M95.3608 316.413L88.1022 316.413" stroke="#02435F" stroke-width="0.544" stroke-miterlimit="10"/>
<path d="M95.3608 318.559L88.1022 318.559" stroke="#02435F" stroke-width="0.544" stroke-miterlimit="10"/>
<path d="M95.3472 321.32L88.0817 321.32" stroke="#02435F" stroke-width="0.544" stroke-miterlimit="10"/>
<path d="M72.4777 321.286L72.4777 312.394L54.0782 312.394L54.0782 321.286L72.4777 321.286Z" stroke="#02435F" stroke-width="0.342" stroke-miterlimit="10"/>
<path d="M65.2054 313.351L69.8326 313.351C70.5639 313.351 71.1586 313.946 71.1586 314.677L71.1586 317.568C71.1586 318.299 70.5639 318.894 69.8326 318.894L65.2054 318.894C64.4741 318.894 63.8795 318.299 63.8795 317.568L63.8795 314.677C63.8863 313.946 64.4741 313.351 65.2054 313.351Z" stroke="#02435F" stroke-width="0.342" stroke-miterlimit="10"/>
<path d="M56.6618 313.351L61.289 313.351C62.0204 313.351 62.615 313.946 62.615 314.677L62.615 317.568C62.615 318.299 62.0204 318.894 61.289 318.894L56.6618 318.894C55.9305 318.894 55.3358 318.299 55.3358 317.568L55.3358 314.677C55.3358 313.946 55.9305 313.351 56.6618 313.351Z" stroke="#02435F" stroke-width="0.342" stroke-miterlimit="10"/>
<path d="M67.9735 319.967L67.9735 317.192L67.0781 317.192L67.0781 319.967L67.9735 319.967Z" fill="white"/>
<path d="M67.9735 319.967L67.9735 317.192L67.0781 317.192L67.0781 319.967L67.9735 319.967Z" stroke="#02435F" stroke-width="0.342" stroke-miterlimit="10"/>
<path d="M59.4231 319.967L59.4231 317.192L58.5277 317.192L58.5277 319.967L59.4231 319.967Z" fill="white"/>
<path d="M59.4231 319.967L59.4231 317.192L58.5277 317.192L58.5277 319.967L59.4231 319.967Z" stroke="#02435F" stroke-width="0.342" stroke-miterlimit="10"/>
<path d="M66.9346 315.743C66.9346 315.442 67.167 315.196 67.4541 315.196C67.7411 315.196 67.9735 315.442 67.9735 315.743C67.9735 316.044 67.7411 316.29 67.4541 316.29C67.167 316.29 66.9346 316.051 66.9346 315.743Z" fill="white"/>
<path d="M66.9346 315.743C66.9346 315.442 67.167 315.196 67.4541 315.196C67.7411 315.196 67.9735 315.442 67.9735 315.743C67.9735 316.044 67.7411 316.29 67.4541 316.29C67.167 316.29 66.9346 316.051 66.9346 315.743Z" stroke="#02435F" stroke-width="0.342" stroke-miterlimit="10"/>
<path d="M58.4594 315.743C58.4594 315.442 58.6918 315.196 58.9788 315.196C59.2659 315.196 59.4983 315.442 59.4983 315.743C59.4983 316.044 59.2659 316.29 58.9788 316.29C58.6918 316.29 58.4594 316.051 58.4594 315.743Z" fill="white"/>
<path d="M58.4594 315.743C58.4594 315.442 58.6918 315.196 58.9788 315.196C59.2659 315.196 59.4983 315.442 59.4983 315.743C59.4983 316.044 59.2659 316.29 58.9788 316.29C58.6918 316.29 58.4594 316.051 58.4594 315.743Z" stroke="#02435F" stroke-width="0.342" stroke-miterlimit="10"/>
<path d="M131.011 321.286L131.011 312.394L111.614 312.394L111.614 321.286L131.011 321.286Z" fill="white"/>
<path d="M131.011 321.286L131.011 312.394L111.614 312.394L111.614 321.286L131.011 321.286Z" stroke="#02435F" stroke-width="0.351" stroke-miterlimit="10"/>
<path d="M123.308 313.351L128.264 313.351C129.016 313.351 129.624 313.959 129.624 314.711L129.624 317.534C129.624 318.286 129.016 318.894 128.264 318.894L123.308 318.894C122.557 318.894 121.948 318.286 121.948 317.534L121.948 314.711C121.948 313.959 122.557 313.351 123.308 313.351Z" fill="white"/>
<path d="M123.308 313.351L128.264 313.351C129.016 313.351 129.624 313.959 129.624 314.711L129.624 317.534C129.624 318.286 129.016 318.894 128.264 318.894L123.308 318.894C122.557 318.894 121.948 318.286 121.948 317.534L121.948 314.711C121.948 313.959 122.557 313.351 123.308 313.351Z" stroke="#02435F" stroke-width="0.351" stroke-miterlimit="10"/>
<path d="M114.293 313.351L119.249 313.351C120 313.351 120.609 313.959 120.609 314.711L120.609 317.534C120.609 318.286 120 318.894 119.249 318.894L114.293 318.894C113.542 318.894 112.933 318.286 112.933 317.534L112.933 314.711C112.933 313.959 113.542 313.351 114.293 313.351Z" fill="white"/>
<path d="M114.293 313.351L119.249 313.351C120 313.351 120.609 313.959 120.609 314.711L120.609 317.534C120.609 318.286 120 318.894 119.249 318.894L114.293 318.894C113.542 318.894 112.933 318.286 112.933 317.534L112.933 314.711C112.933 313.959 113.542 313.351 114.293 313.351Z" stroke="#02435F" stroke-width="0.351" stroke-miterlimit="10"/>
<path d="M126.254 319.967L126.254 317.192L125.311 317.192L125.311 319.967L126.254 319.967Z" fill="white"/>
<path d="M126.254 319.967L126.254 317.192L125.311 317.192L125.311 319.967L126.254 319.967Z" stroke="#02435F" stroke-width="0.351" stroke-miterlimit="10"/>
<path d="M117.246 319.967L117.246 317.192L116.303 317.192L116.303 319.967L117.246 319.967Z" fill="white"/>
<path d="M117.246 319.967L117.246 317.192L116.303 317.192L116.303 319.967L117.246 319.967Z" stroke="#02435F" stroke-width="0.351" stroke-miterlimit="10"/>
<path d="M125.168 315.743C125.168 315.442 125.414 315.196 125.714 315.196C126.015 315.196 126.261 315.442 126.261 315.743C126.261 316.044 126.015 316.29 125.714 316.29C125.414 316.29 125.168 316.051 125.168 315.743Z" fill="white"/>
<path d="M125.168 315.743C125.168 315.442 125.414 315.196 125.714 315.196C126.015 315.196 126.261 315.442 126.261 315.743C126.261 316.044 126.015 316.29 125.714 316.29C125.414 316.29 125.168 316.051 125.168 315.743Z" stroke="#02435F" stroke-width="0.351" stroke-miterlimit="10"/>
<path d="M116.228 315.743C116.228 315.442 116.474 315.196 116.774 315.196C117.075 315.196 117.321 315.442 117.321 315.743C117.321 316.044 117.075 316.29 116.774 316.29C116.474 316.29 116.228 316.051 116.228 315.743Z" fill="white"/>
<path d="M116.228 315.743C116.228 315.442 116.474 315.196 116.774 315.196C117.075 315.196 117.321 315.442 117.321 315.743C117.321 316.044 117.075 316.29 116.774 316.29C116.474 316.29 116.228 316.051 116.228 315.743Z" stroke="#02435F" stroke-width="0.351" stroke-miterlimit="10"/>
<path d="M47.4553 321.102L44.0174 321.102L44.6462 320.514L46.8675 320.514L47.4553 321.102Z" fill="white"/>
<path d="M47.4553 321.102L44.0174 321.102L44.6462 320.514L46.8675 320.514L47.4553 321.102Z" stroke="#02435F" stroke-width="0.351" stroke-miterlimit="10"/>
<path d="M46.4164 318.976C46.4164 319.332 46.1293 321.102 45.7739 321.102C45.4185 321.102 45.1314 319.332 45.1314 318.976C45.1314 318.621 45.4185 318.334 45.7739 318.334C46.1293 318.334 46.4164 318.621 46.4164 318.976Z" fill="white"/>
<path d="M46.4164 318.976C46.4164 319.332 46.1293 321.102 45.7739 321.102C45.4185 321.102 45.1314 319.332 45.1314 318.976C45.1314 318.621 45.4185 318.334 45.7739 318.334C46.1293 318.334 46.4164 318.621 46.4164 318.976Z" stroke="#02435F" stroke-width="0.351" stroke-miterlimit="10"/>
<path d="M139.596 321.102L136.165 321.102L136.794 320.514L139.015 320.514L139.596 321.102Z" fill="white"/>
<path d="M139.596 321.102L136.165 321.102L136.794 320.514L139.015 320.514L139.596 321.102Z" stroke="#02435F" stroke-width="0.351" stroke-miterlimit="10"/>
<path d="M138.557 318.976C138.557 319.332 138.27 321.102 137.915 321.102C137.559 321.102 137.272 319.332 137.272 318.976C137.272 318.621 137.559 318.334 137.915 318.334C138.27 318.334 138.557 318.621 138.557 318.976Z" fill="white"/>
<path d="M138.557 318.976C138.557 319.332 138.27 321.102 137.915 321.102C137.559 321.102 137.272 319.332 137.272 318.976C137.272 318.621 137.559 318.334 137.915 318.334C138.27 318.334 138.557 318.621 138.557 318.976Z" stroke="#02435F" stroke-width="0.351" stroke-miterlimit="10"/>
<path d="M113.152 183.256L116.59 183.256L115.961 183.844L113.74 183.844L113.152 183.256Z" fill="white"/>
<path d="M113.152 183.256L116.59 183.256L115.961 183.844L113.74 183.844L113.152 183.256Z" stroke="#02435F" stroke-width="0.351" stroke-miterlimit="10"/>
<path d="M114.191 185.382C114.191 185.026 114.478 183.256 114.833 183.256C115.189 183.256 115.476 185.026 115.476 185.382C115.476 185.737 115.189 186.024 114.833 186.024C114.478 186.024 114.191 185.73 114.191 185.382Z" fill="white"/>
<path d="M114.191 185.382C114.191 185.026 114.478 183.256 114.833 183.256C115.189 183.256 115.476 185.026 115.476 185.382C115.476 185.737 115.189 186.024 114.833 186.024C114.478 186.024 114.191 185.73 114.191 185.382Z" stroke="#02435F" stroke-width="0.351" stroke-miterlimit="10"/>
<path d="M67.1055 183.256L70.5435 183.256L69.9146 183.844L67.6933 183.844L67.1055 183.256Z" fill="white"/>
<path d="M67.1055 183.256L70.5435 183.256L69.9146 183.844L67.6933 183.844L67.1055 183.256Z" stroke="#02435F" stroke-width="0.351" stroke-miterlimit="10"/>
<path d="M68.1445 185.382C68.1445 185.026 68.4316 183.256 68.787 183.256C69.1424 183.256 69.4294 185.026 69.4294 185.382C69.4294 185.737 69.1424 186.024 68.787 186.024C68.4316 186.018 68.1445 185.73 68.1445 185.382Z" fill="white"/>
<path d="M68.1445 185.382C68.1445 185.026 68.4316 183.256 68.787 183.256C69.1424 183.256 69.4294 185.026 69.4294 185.382C69.4294 185.737 69.1424 186.024 68.787 186.024C68.4316 186.018 68.1445 185.73 68.1445 185.382Z" stroke="#02435F" stroke-width="0.351" stroke-miterlimit="10"/>
<path d="M90.9318 132.104L94.3698 132.104L93.7409 132.692L91.5196 132.692L90.9318 132.104Z" fill="white"/>
<path d="M90.9318 132.104L94.3698 132.104L93.7409 132.692L91.5196 132.692L90.9318 132.104Z" stroke="#02435F" stroke-width="0.351" stroke-miterlimit="10"/>
<path d="M91.9708 134.23C91.9708 133.874 92.2579 132.104 92.6133 132.104C92.9687 132.104 93.2557 133.874 93.2557 134.23C93.2557 134.585 92.9687 134.872 92.6133 134.872C92.2647 134.872 91.9708 134.585 91.9708 134.23Z" fill="white"/>
<path d="M91.9708 134.23C91.9708 133.874 92.2579 132.104 92.6133 132.104C92.9687 132.104 93.2557 133.874 93.2557 134.23C93.2557 134.585 92.9687 134.872 92.6133 134.872C92.2647 134.872 91.9708 134.585 91.9708 134.23Z" stroke="#02435F" stroke-width="0.351" stroke-miterlimit="10"/>
<path d="M77.7133 319.003L81.1307 319.003C81.3972 319.003 81.616 319.222 81.616 319.489L81.616 320.616C81.616 320.883 81.3972 321.102 81.1307 321.102L77.7133 321.102C77.4467 321.102 77.228 320.883 77.228 320.616L77.228 319.489C77.228 319.222 77.4467 319.003 77.7133 319.003Z" fill="white"/>
<path d="M77.7133 319.003L81.1307 319.003C81.3972 319.003 81.616 319.222 81.616 319.489L81.616 320.616C81.616 320.883 81.3972 321.102 81.1307 321.102L77.7133 321.102C77.4467 321.102 77.228 320.883 77.228 320.616L77.228 319.489C77.228 319.222 77.4467 319.003 77.7133 319.003Z" stroke="#02435F" stroke-width="0.351" stroke-miterlimit="10"/>
<path d="M77.556 316.14C77.556 314.561 78.3899 313.276 79.4219 313.276C80.454 313.276 81.2878 314.561 81.2878 316.14C81.2878 317.719 80.454 319.003 79.4219 319.003C78.3899 319.003 77.556 317.725 77.556 316.14Z" fill="white"/>
<path d="M77.556 316.14C77.556 314.561 78.3899 313.276 79.4219 313.276C80.454 313.276 81.2878 314.561 81.2878 316.14C81.2878 317.719 80.454 319.003 79.4219 319.003C78.3899 319.003 77.556 317.725 77.556 316.14Z" stroke="#02435F" stroke-width="0.351" stroke-miterlimit="10"/>
<path d="M81.1921 317.049L77.6038 317.049" stroke="#02435F" stroke-width="0.351" stroke-miterlimit="10"/>
<path d="M102.421 319.003L105.839 319.003C106.105 319.003 106.324 319.222 106.324 319.489L106.324 320.616C106.324 320.883 106.105 321.102 105.839 321.102L102.421 321.102C102.155 321.102 101.936 320.883 101.936 320.616L101.936 319.489C101.943 319.222 102.155 319.003 102.421 319.003Z" fill="white"/>
<path d="M102.421 319.003L105.839 319.003C106.105 319.003 106.324 319.222 106.324 319.489L106.324 320.616C106.324 320.883 106.105 321.102 105.839 321.102L102.421 321.102C102.155 321.102 101.936 320.883 101.936 320.616L101.936 319.489C101.943 319.222 102.155 319.003 102.421 319.003Z" stroke="#02435F" stroke-width="0.351" stroke-miterlimit="10"/>
<path d="M102.264 316.14C102.264 314.561 103.098 313.276 104.13 313.276C105.162 313.276 105.996 314.561 105.996 316.14C105.996 317.719 105.162 319.003 104.13 319.003C103.105 319.003 102.264 317.725 102.264 316.14Z" fill="white"/>
<path d="M102.264 316.14C102.264 314.561 103.098 313.276 104.13 313.276C105.162 313.276 105.996 314.561 105.996 316.14C105.996 317.719 105.162 319.003 104.13 319.003C103.105 319.003 102.264 317.725 102.264 316.14Z" stroke="#02435F" stroke-width="0.351" stroke-miterlimit="10"/>
<path d="M105.907 317.049L102.312 317.049" stroke="#02435F" stroke-width="0.351" stroke-miterlimit="10"/>
<path d="M105.846 185.348L102.421 185.348C102.155 185.348 101.936 185.129 101.936 184.863L101.936 183.735C101.936 183.468 102.155 183.25 102.421 183.25L105.846 183.25C106.112 183.25 106.331 183.468 106.331 183.735L106.331 184.863C106.324 185.136 106.112 185.348 105.846 185.348Z" fill="white"/>
<path d="M105.846 185.348L102.421 185.348C102.155 185.348 101.936 185.129 101.936 184.863L101.936 183.735C101.936 183.468 102.155 183.25 102.421 183.25L105.846 183.25C106.112 183.25 106.331 183.468 106.331 183.735L106.331 184.863C106.324 185.136 106.112 185.348 105.846 185.348Z" stroke="#02435F" stroke-width="0.351" stroke-miterlimit="10"/>
<path d="M106.003 188.212C106.003 189.79 105.169 191.075 104.137 191.075C103.105 191.075 102.271 189.79 102.271 188.212C102.271 186.633 103.105 185.348 104.137 185.348C105.162 185.348 106.003 186.633 106.003 188.212Z" fill="white"/>
<path d="M106.003 188.212C106.003 189.79 105.169 191.075 104.137 191.075C103.105 191.075 102.271 189.79 102.271 188.212C102.271 186.633 103.105 185.348 104.137 185.348C105.162 185.348 106.003 186.633 106.003 188.212Z" stroke="#02435F" stroke-width="0.351" stroke-miterlimit="10"/>
<path d="M102.36 187.302L105.955 187.302" stroke="#02435F" stroke-width="0.351" stroke-miterlimit="10"/>
<path d="M84.965 144.605L88.3824 144.605C88.649 144.605 88.8677 144.824 88.8677 145.09L88.8677 146.218C88.8677 146.485 88.649 146.704 88.3824 146.704L84.965 146.704C84.6984 146.704 84.4797 146.485 84.4797 146.218L84.4797 145.09C84.4797 144.824 84.6984 144.605 84.965 144.605Z" fill="white"/>
<path d="M84.965 144.605L88.3824 144.605C88.649 144.605 88.8677 144.824 88.8677 145.09L88.8677 146.218C88.8677 146.485 88.649 146.704 88.3824 146.704L84.965 146.704C84.6984 146.704 84.4797 146.485 84.4797 146.218L84.4797 145.09C84.4797 144.824 84.6984 144.605 84.965 144.605Z" stroke="#02435F" stroke-width="0.351" stroke-miterlimit="10"/>
<path d="M84.8078 141.741C84.8078 140.163 85.6417 138.878 86.6738 138.878C87.7058 138.878 88.5397 140.163 88.5397 141.741C88.5397 143.32 87.7058 144.605 86.6738 144.605C85.6417 144.605 84.8078 143.327 84.8078 141.741Z" fill="white"/>
<path d="M84.8078 141.741C84.8078 140.163 85.6417 138.878 86.6738 138.878C87.7058 138.878 88.5397 140.163 88.5397 141.741C88.5397 143.32 87.7058 144.605 86.6738 144.605C85.6417 144.605 84.8078 143.327 84.8078 141.741Z" stroke="#02435F" stroke-width="0.351" stroke-miterlimit="10"/>
<path d="M88.444 142.65L84.8557 142.65" stroke="#02435F" stroke-width="0.351" stroke-miterlimit="10"/>
<path d="M81.1307 185.348L77.7064 185.348C77.4399 185.348 77.2212 185.129 77.2212 184.863L77.2212 183.735C77.2212 183.468 77.4399 183.25 77.7064 183.25L81.1307 183.25C81.3972 183.25 81.616 183.468 81.616 183.735L81.616 184.863C81.616 185.136 81.3972 185.348 81.1307 185.348Z" fill="white"/>
<path d="M81.1307 185.348L77.7064 185.348C77.4399 185.348 77.2212 185.129 77.2212 184.863L77.2212 183.735C77.2212 183.468 77.4399 183.25 77.7064 183.25L81.1307 183.25C81.3972 183.25 81.616 183.468 81.616 183.735L81.616 184.863C81.616 185.136 81.3972 185.348 81.1307 185.348Z" stroke="#02435F" stroke-width="0.351" stroke-miterlimit="10"/>
<path d="M81.2878 188.212C81.2878 189.79 80.454 191.075 79.4219 191.075C78.3899 191.075 77.556 189.79 77.556 188.212C77.556 186.633 78.3899 185.348 79.4219 185.348C80.454 185.348 81.2878 186.633 81.2878 188.212Z" fill="white"/>
<path d="M77.556 188.212C77.556 189.793 78.3914 191.075 79.4219 191.075C80.4524 191.075 81.2878 189.793 81.2878 188.212C81.2878 186.63 80.4524 185.348 79.4219 185.348C78.3914 185.348 77.556 186.63 77.556 188.212Z" stroke="#02435F" stroke-width="0.351" stroke-miterlimit="10"/>
<path d="M77.6517 187.302L81.24 187.302" stroke="#02435F" stroke-width="0.351" stroke-miterlimit="10"/>
<path d="M88.8526 277.507L78.238 277.461L78.2341 278.37L88.8486 278.416L88.8526 277.507Z" stroke="#02435F" stroke-width="0.351" stroke-miterlimit="10"/>
<path d="M78.2327 277.618C78.2327 277.776 78.2327 277.94 78.2463 278.097" stroke="#02435F" stroke-width="0.351" stroke-miterlimit="10"/>
<path d="M78.3489 279.108C78.9914 283.066 82.2038 286.169 86.2295 286.627" stroke="#02435F" stroke-width="0.351" stroke-miterlimit="10" stroke-dasharray="1.49 1.49"/>
<path d="M86.7353 286.668C86.8925 286.675 87.0565 286.681 87.2137 286.681" stroke="#02435F" stroke-width="0.351" stroke-miterlimit="10"/>
<path d="M88.6968 279.163L88.6626 286.777" stroke="#02435F" stroke-width="0.351" stroke-miterlimit="10" stroke-dasharray="1.4 1.4"/>
<path d="M131.928 298.267L123.377 298.228L123.374 298.987L131.924 299.026L131.928 298.267Z" stroke="#02435F" stroke-width="0.351" stroke-miterlimit="10"/>
<path d="M123.377 298.369C123.377 298.526 123.377 298.69 123.391 298.847" stroke="#02435F" stroke-width="0.351" stroke-miterlimit="10"/>
<path d="M123.507 299.811C124.081 302.976 126.562 305.45 129.658 305.887" stroke="#02435F" stroke-width="0.351" stroke-miterlimit="10" stroke-dasharray="1.42 1.42"/>
<path d="M130.137 305.935C130.294 305.949 130.458 305.956 130.615 305.956" stroke="#02435F" stroke-width="0.351" stroke-miterlimit="10"/>
<path d="M131.804 299.661L131.777 306.031" stroke="#02435F" stroke-width="0.351" stroke-miterlimit="10" stroke-dasharray="1.4 1.4"/>
<path d="M73.2887 205.751L73.2498 197.972L72.4979 197.976L72.5369 205.754L73.2887 205.751Z" stroke="#02435F" stroke-width="0.351" stroke-miterlimit="10"/>
<path d="M73.1544 205.743C72.9904 205.743 72.8332 205.736 72.676 205.729" stroke="#02435F" stroke-width="0.281" stroke-miterlimit="10"/>
<path d="M71.7328 205.627C68.6024 205.073 66.1555 202.688 65.7181 199.701" stroke="#02435F" stroke-width="0.281" stroke-miterlimit="10" stroke-dasharray="1.39 1.39"/>
<path d="M65.6633 199.229C65.6497 199.072 65.6428 198.908 65.6428 198.751" stroke="#02435F" stroke-width="0.281" stroke-miterlimit="10"/>
<path d="M71.8762 197.972L65.5676 197.999" stroke="#02435F" stroke-width="0.281" stroke-miterlimit="10" stroke-dasharray="1.4 1.4"/>
<path d="M81.8255 205.751L81.7865 197.972L81.0347 197.976L81.0736 205.754L81.8255 205.751Z" stroke="#02435F" stroke-width="0.351" stroke-miterlimit="10"/>
<path d="M81.6912 205.743C81.5271 205.743 81.3699 205.736 81.2127 205.729" stroke="#02435F" stroke-width="0.281" stroke-miterlimit="10"/>
<path d="M80.2694 205.627C77.139 205.073 74.6922 202.688 74.2547 199.701" stroke="#02435F" stroke-width="0.281" stroke-miterlimit="10" stroke-dasharray="1.39 1.39"/>
<path d="M74.2001 199.229C74.1864 199.072 74.1796 198.908 74.1796 198.751" stroke="#02435F" stroke-width="0.281" stroke-miterlimit="10"/>
<path d="M80.413 197.972L74.1044 197.999" stroke="#02435F" stroke-width="0.281" stroke-miterlimit="10" stroke-dasharray="1.4 1.4"/>
<path d="M110.994 197.977L110.242 197.973L110.203 205.751L110.955 205.755L110.994 197.977Z" stroke="#02435F" stroke-width="0.351" stroke-miterlimit="10"/>
<path d="M110.336 205.743C110.5 205.743 110.657 205.736 110.814 205.729" stroke="#02435F" stroke-width="0.281" stroke-miterlimit="10"/>
<path d="M111.758 205.627C114.888 205.073 117.335 202.688 117.772 199.701" stroke="#02435F" stroke-width="0.281" stroke-miterlimit="10" stroke-dasharray="1.39 1.39"/>
<path d="M117.827 199.229C117.841 199.072 117.848 198.908 117.848 198.751" stroke="#02435F" stroke-width="0.281" stroke-miterlimit="10"/>
<path d="M111.614 197.972L117.923 197.999" stroke="#02435F" stroke-width="0.281" stroke-miterlimit="10" stroke-dasharray="1.4 1.4"/>
<path d="M102.458 197.971L101.706 197.967L101.667 205.745L102.419 205.749L102.458 197.971Z" stroke="#02435F" stroke-width="0.351" stroke-miterlimit="10"/>
<path d="M101.799 205.743C101.956 205.743 102.121 205.736 102.278 205.729" stroke="#02435F" stroke-width="0.281" stroke-miterlimit="10"/>
<path d="M103.221 205.627C106.351 205.073 108.798 202.688 109.236 199.701" stroke="#02435F" stroke-width="0.281" stroke-miterlimit="10" stroke-dasharray="1.39 1.39"/>
<path d="M109.29 199.229C109.304 199.072 109.311 198.908 109.311 198.751" stroke="#02435F" stroke-width="0.281" stroke-miterlimit="10"/>
<path d="M103.077 197.972L109.386 197.999" stroke="#02435F" stroke-width="0.281" stroke-miterlimit="10" stroke-dasharray="1.4 1.4"/>
<path d="M99.3661 138.522L99.3251 146.779L100.091 146.779L100.132 138.522L99.3661 138.522Z" stroke="#02435F" stroke-width="0.351" stroke-miterlimit="10"/>
<path d="M99.988 138.522C99.824 138.522 99.6668 138.522 99.5096 138.536" stroke="#02435F" stroke-width="0.351" stroke-miterlimit="10"/>
<path d="M98.5596 138.638C95.3814 139.185 92.8935 141.57 92.4424 144.564" stroke="#02435F" stroke-width="0.351" stroke-miterlimit="10" stroke-dasharray="1.4 1.4"/>
<path d="M92.3945 145.029C92.3809 145.186 92.374 145.35 92.374 145.507" stroke="#02435F" stroke-width="0.351" stroke-miterlimit="10"/>
<path d="M98.6895 146.662L92.292 146.642" stroke="#02435F" stroke-width="0.351" stroke-miterlimit="10" stroke-dasharray="1.4 1.4"/>
<path d="M118.846 303.786L118.843 303.028L110.292 303.067L110.296 303.825L118.846 303.786Z" stroke="#02435F" stroke-width="0.351" stroke-miterlimit="10"/>
<path d="M118.845 303.16C118.845 303.324 118.839 303.481 118.832 303.639" stroke="#02435F" stroke-width="0.351" stroke-miterlimit="10"/>
<path d="M118.722 304.609C118.148 307.774 115.667 310.248 112.564 310.685" stroke="#02435F" stroke-width="0.351" stroke-miterlimit="10" stroke-dasharray="1.42 1.42"/>
<path d="M112.086 310.733C111.928 310.747 111.764 310.754 111.607 310.754" stroke="#02435F" stroke-width="0.351" stroke-miterlimit="10"/>
<path d="M110.418 304.452L110.445 310.829" stroke="#02435F" stroke-width="0.351" stroke-miterlimit="10" stroke-dasharray="1.4 1.4"/>
<path d="M54.085 298.459L45.5345 298.42L45.5311 299.179L54.0815 299.217L54.085 298.459Z" stroke="#02435F" stroke-width="0.351" stroke-miterlimit="10"/>
<path d="M45.5278 298.56C45.5278 298.724 45.5278 298.882 45.5415 299.039" stroke="#02435F" stroke-width="0.351" stroke-miterlimit="10"/>
<path d="M45.6509 300.003C46.225 303.167 48.7061 305.641 51.8091 306.079" stroke="#02435F" stroke-width="0.351" stroke-miterlimit="10" stroke-dasharray="1.42 1.42"/>
<path d="M52.2876 306.133C52.4448 306.147 52.6088 306.147 52.766 306.154" stroke="#02435F" stroke-width="0.351" stroke-miterlimit="10"/>
<path d="M53.9553 299.852L53.928 306.222" stroke="#02435F" stroke-width="0.351" stroke-miterlimit="10" stroke-dasharray="1.4 1.4"/>
<path d="M73.5963 303.062L65.0459 303.023L65.0424 303.782L73.5929 303.821L73.5963 303.062Z" stroke="#02435F" stroke-width="0.351" stroke-miterlimit="10"/>
<path d="M65.0414 303.16C65.0414 303.324 65.0482 303.481 65.0551 303.639" stroke="#02435F" stroke-width="0.351" stroke-miterlimit="10"/>
<path d="M65.1712 304.609C65.7454 307.774 68.2264 310.248 71.3226 310.685" stroke="#02435F" stroke-width="0.351" stroke-miterlimit="10" stroke-dasharray="1.42 1.42"/>
<path d="M71.8011 310.733C71.9583 310.747 72.1155 310.754 72.2795 310.754" stroke="#02435F" stroke-width="0.351" stroke-miterlimit="10"/>
<path d="M73.4688 304.452L73.4414 310.829" stroke="#02435F" stroke-width="0.351" stroke-miterlimit="10" stroke-dasharray="1.4 1.4"/>
<path d="M106.4 278.268L106.396 277.359L95.7818 277.405L95.7858 278.314L106.4 278.268Z" stroke="#02435F" stroke-width="0.351" stroke-miterlimit="10"/>
<path d="M106.399 277.523C106.399 277.68 106.399 277.844 106.386 278.001" stroke="#02435F" stroke-width="0.351" stroke-miterlimit="10"/>
<path d="M106.283 279.013C105.64 282.97 102.421 286.073 98.4024 286.531" stroke="#02435F" stroke-width="0.351" stroke-miterlimit="10" stroke-dasharray="1.49 1.49"/>
<path d="M97.8898 286.572C97.7326 286.579 97.5685 286.586 97.4113 286.586" stroke="#02435F" stroke-width="0.351" stroke-miterlimit="10"/>
<path d="M95.9349 279.067L95.9691 286.675" stroke="#02435F" stroke-width="0.351" stroke-miterlimit="10" stroke-dasharray="1.4 1.4"/>
<path d="M88.9486 221.505L78.3341 221.458L78.3301 222.367L88.9447 222.414L88.9486 221.505Z" stroke="#02435F" stroke-width="0.351" stroke-miterlimit="10"/>
<path d="M78.3352 221.62C78.3352 221.778 78.3352 221.942 78.3489 222.099" stroke="#02435F" stroke-width="0.351" stroke-miterlimit="10"/>
<path d="M78.4513 223.11C79.0938 227.068 82.3062 230.171 86.3319 230.629" stroke="#02435F" stroke-width="0.351" stroke-miterlimit="10" stroke-dasharray="1.49 1.49"/>
<path d="M86.8377 230.67C86.9949 230.677 87.159 230.683 87.3162 230.683" stroke="#02435F" stroke-width="0.351" stroke-miterlimit="10"/>
<path d="M88.7993 223.165L88.7651 230.779" stroke="#02435F" stroke-width="0.351" stroke-miterlimit="10" stroke-dasharray="1.4 1.4"/>
<path d="M106.4 222.365L106.396 221.456L95.7817 221.502L95.7857 222.411L106.4 222.365Z" stroke="#02435F" stroke-width="0.351" stroke-miterlimit="10"/>
<path d="M106.399 221.62C106.399 221.778 106.399 221.942 106.386 222.099" stroke="#02435F" stroke-width="0.351" stroke-miterlimit="10"/>
<path d="M106.283 223.11C105.64 227.068 102.421 230.171 98.4024 230.629" stroke="#02435F" stroke-width="0.351" stroke-miterlimit="10" stroke-dasharray="1.49 1.49"/>
<path d="M97.8898 230.67C97.7326 230.677 97.5685 230.683 97.4113 230.683" stroke="#02435F" stroke-width="0.351" stroke-miterlimit="10"/>
<path d="M95.9349 223.165L95.9691 230.779" stroke="#02435F" stroke-width="0.351" stroke-miterlimit="10" stroke-dasharray="1.4 1.4"/>
<path d="M81.5681 302.757L81.5681 295.621L75.0477 295.621L75.0477 302.757L81.5681 302.757Z" stroke="#02435F" stroke-width="0.351" stroke-miterlimit="10"/>
<path d="M87.9791 302.757L87.9791 295.621L81.2946 295.621L81.2946 302.757L87.9791 302.757Z" stroke="#02435F" stroke-width="0.351" stroke-miterlimit="10"/>
<path d="M81.568 299.189L87.9791 299.189" stroke="#02435F" stroke-width="0.351" stroke-miterlimit="10"/>
<path d="M81.5066 297.146L81.5066 301.233" stroke="#02435F" stroke-width="0.351" stroke-miterlimit="10"/>
<path d="M82.1901 297.146L82.1901 301.233" stroke="#02435F" stroke-width="0.351" stroke-miterlimit="10"/>
<path d="M82.8735 297.146L82.8735 301.233" stroke="#02435F" stroke-width="0.351" stroke-miterlimit="10"/>
<path d="M84.9991 297.146L84.9991 301.233" stroke="#02435F" stroke-width="0.351" stroke-miterlimit="10"/>
<path d="M85.5049 297.146L85.5049 301.233" stroke="#02435F" stroke-width="0.351" stroke-miterlimit="10"/>
<path d="M86.2158 297.146L86.2158 301.233" stroke="#02435F" stroke-width="0.351" stroke-miterlimit="10"/>
<path d="M86.8446 297.146L86.8446 301.233" stroke="#02435F" stroke-width="0.351" stroke-miterlimit="10"/>
<path d="M87.9798 295.23L83.9043 289.708L83.4149 290.07L87.4903 295.591L87.9798 295.23Z" stroke="#02435F" stroke-width="0.282" stroke-miterlimit="10"/>
<path d="M83.0308 290.4C82.9419 290.495 82.8599 290.591 82.7779 290.687" stroke="#02435F" stroke-width="0.282" stroke-miterlimit="10"/>
<path d="M82.361 291.254C81.9235 291.937 81.6296 292.71 81.5203 293.537" stroke="#02435F" stroke-width="0.282" stroke-miterlimit="10" stroke-dasharray="1.02 1.02"/>
<path d="M81.4861 293.892C81.4792 294.022 81.4724 294.145 81.4724 294.275" stroke="#02435F" stroke-width="0.282" stroke-miterlimit="10"/>
<path d="M79.6684 290.073L79.179 289.712L75.1035 295.233L75.5929 295.594L79.6684 290.073Z" stroke="#02435F" stroke-width="0.282" stroke-miterlimit="10"/>
<path d="M80.044 290.4C80.1328 290.495 80.2149 290.591 80.2969 290.687" stroke="#02435F" stroke-width="0.282" stroke-miterlimit="10"/>
<path d="M80.7069 291.254C81.1444 291.937 81.4314 292.71 81.5476 293.537" stroke="#02435F" stroke-width="0.282" stroke-miterlimit="10" stroke-dasharray="1.02 1.02"/>
<path d="M81.5886 293.892C81.5955 294.022 81.6023 294.145 81.6023 294.275" stroke="#02435F" stroke-width="0.282" stroke-miterlimit="10"/>
<path d="M89.3257 214.997L89.3257 208.477L82.1901 208.477L82.1901 214.997L89.3257 214.997Z" stroke="#02435F" stroke-width="0.351" stroke-miterlimit="10"/>
<path d="M89.3257 221.408L89.3257 214.724L82.1901 214.724L82.1901 221.408L89.3257 221.408Z" stroke="#02435F" stroke-width="0.351" stroke-miterlimit="10"/>
<path d="M85.7578 214.997L85.7578 221.409" stroke="#02435F" stroke-width="0.351" stroke-miterlimit="10"/>
<path d="M83.7211 214.943L87.8083 214.943" stroke="#02435F" stroke-width="0.351" stroke-miterlimit="10"/>
<path d="M83.7211 215.626L87.8083 215.626" stroke="#02435F" stroke-width="0.351" stroke-miterlimit="10"/>
<path d="M83.7211 216.303L87.8083 216.303" stroke="#02435F" stroke-width="0.351" stroke-miterlimit="10"/>
<path d="M83.7211 218.428L87.8083 218.428" stroke="#02435F" stroke-width="0.351" stroke-miterlimit="10"/>
<path d="M83.7211 218.934L87.8083 218.934" stroke="#02435F" stroke-width="0.351" stroke-miterlimit="10"/>
<path d="M83.7211 219.645L87.8083 219.645" stroke="#02435F" stroke-width="0.351" stroke-miterlimit="10"/>
<path d="M83.7211 220.281L87.8083 220.281" stroke="#02435F" stroke-width="0.351" stroke-miterlimit="10"/>
<path d="M82.1571 220.927L76.6357 216.852L76.2745 217.341L81.7958 221.417L82.1571 220.927Z" stroke="#02435F" stroke-width="0.282" stroke-miterlimit="10"/>
<path d="M76.9682 216.46C77.0639 216.371 77.1596 216.289 77.2552 216.207" stroke="#02435F" stroke-width="0.282" stroke-miterlimit="10"/>
<path d="M77.8226 215.797C78.5061 215.36 79.2784 215.066 80.1055 214.956" stroke="#02435F" stroke-width="0.282" stroke-miterlimit="10" stroke-dasharray="1.02 1.02"/>
<path d="M80.4609 214.922C80.5907 214.915 80.7138 214.909 80.8436 214.909" stroke="#02435F" stroke-width="0.282" stroke-miterlimit="10"/>
<path d="M82.154 209.029L81.7927 208.54L76.2714 212.615L76.6327 213.105L82.154 209.029Z" stroke="#02435F" stroke-width="0.282" stroke-miterlimit="10"/>
<path d="M76.9682 213.48C77.0639 213.569 77.1596 213.651 77.2552 213.733" stroke="#02435F" stroke-width="0.282" stroke-miterlimit="10"/>
<path d="M77.8226 214.143C78.5061 214.58 79.2784 214.868 80.1055 214.984" stroke="#02435F" stroke-width="0.282" stroke-miterlimit="10" stroke-dasharray="1.02 1.02"/>
<path d="M80.4609 215.018C80.5907 215.025 80.7138 215.032 80.8436 215.032" stroke="#02435F" stroke-width="0.282" stroke-miterlimit="10"/>
<path d="M103.064 214.997L103.064 208.477L95.9281 208.477L95.9281 214.997L103.064 214.997Z" stroke="#02435F" stroke-width="0.351" stroke-miterlimit="10"/>
<path d="M103.064 221.408L103.064 214.724L95.9281 214.724L95.9281 221.408L103.064 221.408Z" stroke="#02435F" stroke-width="0.351" stroke-miterlimit="10"/>
<path d="M99.496 214.997L99.496 221.409" stroke="#02435F" stroke-width="0.351" stroke-miterlimit="10"/>
<path d="M101.54 214.943L97.4523 214.943" stroke="#02435F" stroke-width="0.351" stroke-miterlimit="10"/>
<path d="M101.54 215.626L97.4523 215.626" stroke="#02435F" stroke-width="0.351" stroke-miterlimit="10"/>
<path d="M101.54 216.303L97.4523 216.303" stroke="#02435F" stroke-width="0.351" stroke-miterlimit="10"/>
<path d="M101.54 218.428L97.4523 218.428" stroke="#02435F" stroke-width="0.351" stroke-miterlimit="10"/>
<path d="M101.54 218.934L97.4523 218.934" stroke="#02435F" stroke-width="0.351" stroke-miterlimit="10"/>
<path d="M101.54 219.645L97.4523 219.645" stroke="#02435F" stroke-width="0.351" stroke-miterlimit="10"/>
<path d="M101.54 220.281L97.4523 220.281" stroke="#02435F" stroke-width="0.351" stroke-miterlimit="10"/>
<path d="M108.994 217.338L108.633 216.849L103.112 220.924L103.473 221.414L108.994 217.338Z" stroke="#02435F" stroke-width="0.282" stroke-miterlimit="10"/>
<path d="M108.286 216.46C108.19 216.371 108.094 216.289 107.998 216.207" stroke="#02435F" stroke-width="0.282" stroke-miterlimit="10"/>
<path d="M107.431 215.797C106.748 215.36 105.975 215.066 105.148 214.956" stroke="#02435F" stroke-width="0.282" stroke-miterlimit="10" stroke-dasharray="1.02 1.02"/>
<path d="M104.793 214.922C104.663 214.915 104.54 214.909 104.41 214.909" stroke="#02435F" stroke-width="0.282" stroke-miterlimit="10"/>
<path d="M108.995 212.616L103.474 208.541L103.113 209.03L108.634 213.106L108.995 212.616Z" stroke="#02435F" stroke-width="0.282" stroke-miterlimit="10"/>
<path d="M108.286 213.48C108.19 213.569 108.094 213.651 107.998 213.733" stroke="#02435F" stroke-width="0.282" stroke-miterlimit="10"/>
<path d="M107.431 214.143C106.748 214.58 105.975 214.868 105.148 214.984" stroke="#02435F" stroke-width="0.282" stroke-miterlimit="10" stroke-dasharray="1.02 1.02"/>
<path d="M104.793 215.018C104.663 215.025 104.54 215.032 104.41 215.032" stroke="#02435F" stroke-width="0.282" stroke-miterlimit="10"/>
<path d="M102.736 302.757L102.736 295.621L96.2151 295.621L96.2151 302.757L102.736 302.757Z" stroke="#02435F" stroke-width="0.351" stroke-miterlimit="10"/>
<path d="M109.147 302.757L109.147 295.621L102.462 295.621L102.462 302.757L109.147 302.757Z" stroke="#02435F" stroke-width="0.351" stroke-miterlimit="10"/>
<path d="M102.736 299.189L109.147 299.189" stroke="#02435F" stroke-width="0.351" stroke-miterlimit="10"/>
<path d="M102.674 297.146L102.674 301.233" stroke="#02435F" stroke-width="0.351" stroke-miterlimit="10"/>
<path d="M103.358 297.146L103.358 301.233" stroke="#02435F" stroke-width="0.351" stroke-miterlimit="10"/>
<path d="M104.041 297.146L104.041 301.233" stroke="#02435F" stroke-width="0.351" stroke-miterlimit="10"/>
<path d="M106.167 297.146L106.167 301.233" stroke="#02435F" stroke-width="0.351" stroke-miterlimit="10"/>
<path d="M106.673 297.146L106.673 301.233" stroke="#02435F" stroke-width="0.351" stroke-miterlimit="10"/>
<path d="M107.383 297.146L107.383 301.233" stroke="#02435F" stroke-width="0.351" stroke-miterlimit="10"/>
<path d="M108.012 297.146L108.012 301.233" stroke="#02435F" stroke-width="0.351" stroke-miterlimit="10"/>
<path d="M109.154 295.226L105.078 289.705L104.589 290.066L108.665 295.587L109.154 295.226Z" stroke="#02435F" stroke-width="0.282" stroke-miterlimit="10"/>
<path d="M104.198 290.4C104.11 290.495 104.027 290.591 103.945 290.687" stroke="#02435F" stroke-width="0.282" stroke-miterlimit="10"/>
<path d="M103.535 291.254C103.098 291.937 102.804 292.71 102.695 293.537" stroke="#02435F" stroke-width="0.282" stroke-miterlimit="10" stroke-dasharray="1.02 1.02"/>
<path d="M102.654 293.892C102.647 294.022 102.64 294.145 102.64 294.275" stroke="#02435F" stroke-width="0.282" stroke-miterlimit="10"/>
<path d="M100.841 290.068L100.352 289.707L96.2765 295.228L96.7659 295.589L100.841 290.068Z" stroke="#02435F" stroke-width="0.282" stroke-miterlimit="10"/>
<path d="M101.211 290.4C101.3 290.495 101.382 290.591 101.464 290.687" stroke="#02435F" stroke-width="0.282" stroke-miterlimit="10"/>
<path d="M101.881 291.254C102.319 291.937 102.606 292.71 102.722 293.537" stroke="#02435F" stroke-width="0.282" stroke-miterlimit="10" stroke-dasharray="1.02 1.02"/>
<path d="M102.756 293.892C102.763 294.022 102.77 294.145 102.77 294.275" stroke="#02435F" stroke-width="0.282" stroke-miterlimit="10"/>
<path d="M89.4897 182.99L61.9042 182.99" stroke="#0D3F57" stroke-width="0.702" stroke-miterlimit="10"/>
<path d="M122.078 182.99L95.8462 182.99" stroke="#0D3F57" stroke-width="0.702" stroke-miterlimit="10"/>
<path d="M92.292 146.662L76.7769 146.662" stroke="#0D3F57" stroke-width="0.702" stroke-miterlimit="10"/>
<path d="M105.955 146.662L100.091 146.662" stroke="#0D3F57" stroke-width="0.702" stroke-miterlimit="10"/>
<path d="M95.8256 277.229L95.8256 255.385L136.937 255.385" stroke="#0D3F57" stroke-width="0.729" stroke-miterlimit="10"/>
<path d="M95.8461 221.456L95.8461 197.985L101.704 197.985" stroke="#0D3F57" stroke-width="0.948" stroke-miterlimit="10"/>
<path d="M145.16 321.409L95.8461 321.409L95.8461 286.504" stroke="#0D3F57" stroke-width="0.725" stroke-miterlimit="10"/>
<path d="M88.5875 277.229L88.5875 255.385L47.7492 255.385" stroke="#0D3F57" stroke-width="0.722" stroke-miterlimit="10"/>
<path d="M39.8139 321.409L88.1979 321.409L88.1979 286.504" stroke="#0D3F57" stroke-width="0.716" stroke-miterlimit="10"/>
<path d="M131.538 306.031L131.538 321.409" stroke="#0D3F57" stroke-width="0.702" stroke-miterlimit="10"/>
<path d="M110.698 312.011L110.698 321.409" stroke="#0D3F57" stroke-width="0.702" stroke-miterlimit="10"/>
<path d="M73.2228 312.011L73.2228 321.409" stroke="#0D3F57" stroke-width="0.702" stroke-miterlimit="10"/>
<path d="M54.0236 306.646L54.0236 321.409" stroke="#0D3F57" stroke-width="0.702" stroke-miterlimit="10"/>
<path d="M141.797 297.617L130.984 297.617" stroke="#0D3F57" stroke-width="0.702" stroke-miterlimit="10"/>
<path d="M54.3995 297.938L43.0947 297.938" stroke="#0D3F57" stroke-width="0.702" stroke-miterlimit="10"/>
<path d="M110.076 303.024L95.4907 303.024" stroke="#0D3F57" stroke-width="0.702" stroke-miterlimit="10"/>
<path d="M87.8766 303.024L72.6485 303.024" stroke="#0D3F57" stroke-width="0.702" stroke-miterlimit="10"/>
<path d="M110.206 269.027L110.206 285.164L140.573 285.164L136.937 256.902L111.614 256.902L108.976 256.902L95.8324 256.902L95.8324 265.897L106.912 265.897C108.73 265.897 110.206 267.298 110.206 269.027Z" fill="white"/>
<path d="M110.206 269.027L110.206 285.164L140.573 285.164L136.937 256.902L111.614 256.902L108.976 256.902L95.8324 256.902L95.8324 265.897L106.912 265.897C108.73 265.897 110.206 267.298 110.206 269.027Z" stroke="#02435F" stroke-width="0.684" stroke-miterlimit="10"/>
<path d="M74.7263 268.59L74.7263 284.727L44.3864 284.727L47.7491 256.464L73.3525 256.464L75.9908 256.464L88.7788 256.464L88.7788 265.459L78.0276 265.459C76.2095 265.452 74.7263 266.86 74.7263 268.59Z" fill="white"/>
<path d="M74.7263 268.59L74.7263 284.727L44.3864 284.727L47.7491 256.464L73.3525 256.464L75.9908 256.464L88.7788 256.464L88.7788 265.459L78.0276 265.459C76.2095 265.452 74.7263 266.86 74.7263 268.59Z" stroke="#02435F" stroke-width="0.684" stroke-miterlimit="10"/>
<path d="M50.8454 257.688L73.8789 257.688L73.8789 282.813C73.8789 283.353 73.4415 283.784 72.9084 283.784L51.8228 283.784C51.2828 283.784 50.8522 283.346 50.8522 282.813L50.8523 257.688L50.8454 257.688Z" fill="white"/>
<path d="M50.8454 257.688L73.8789 257.688L73.8789 282.813C73.8789 283.353 73.4415 283.784 72.9084 283.784L51.8228 283.784C51.2828 283.784 50.8523 283.346 50.8523 282.813L50.8523 257.688L50.8454 257.688Z" stroke="#02435F" stroke-width="0.351" stroke-miterlimit="10"/>
<path d="M73.8721 278.862L73.8721 267.27L50.8386 267.27L50.8386 278.862L73.8721 278.862Z" stroke="#02435F" stroke-width="0.351" stroke-miterlimit="10"/>
<path d="M73.749 282.239L73.749 271.036L50.9753 271.036L50.9753 282.239L73.749 282.239Z" fill="#8FBAB8"/>
<path d="M71.5756 261.474L71.5756 263.197C71.5756 264.058 70.8784 264.755 70.024 264.755L65.93 264.755C65.0688 264.755 64.3785 264.058 64.3785 263.197L64.3785 261.474C64.3785 260.613 65.0756 259.923 65.93 259.923L70.024 259.923C70.8784 259.923 71.5756 260.62 71.5756 261.474Z" stroke="#02435F" stroke-width="0.351" stroke-miterlimit="10"/>
<path d="M65.2054 264.632L65.2054 260.053" stroke="#02435F" stroke-width="0.351" stroke-miterlimit="10"/>
<path d="M61.207 261.474L61.207 263.197C61.207 264.058 60.5099 264.755 59.6555 264.755L55.5683 264.755C54.7071 264.755 54.0168 264.058 54.0168 263.197L54.0168 261.474C54.0168 260.613 54.7139 259.923 55.5683 259.923L59.6555 259.923C60.5099 259.923 61.207 260.62 61.207 261.474Z" stroke="#02435F" stroke-width="0.351" stroke-miterlimit="10"/>
<path d="M54.8302 264.632L54.8302 260.053" stroke="#02435F" stroke-width="0.351" stroke-miterlimit="10"/>
<path d="M110.944 257.654L133.978 257.654L133.978 282.779C133.978 283.319 133.54 283.749 133.007 283.749L111.922 283.749C111.382 283.749 110.951 283.312 110.951 282.779L110.951 257.654L110.944 257.654Z" fill="white"/>
<path d="M110.944 257.654L133.978 257.654L133.978 282.779C133.978 283.319 133.54 283.749 133.007 283.749L111.922 283.749C111.382 283.749 110.951 283.312 110.951 282.779L110.951 257.654L110.944 257.654Z" stroke="#02435F" stroke-width="0.351" stroke-miterlimit="10"/>
<path d="M133.978 278.835L133.978 267.243L110.944 267.243L110.944 278.835L133.978 278.835Z" stroke="#02435F" stroke-width="0.351" stroke-miterlimit="10"/>
<path d="M133.848 282.211L133.848 271.009L111.122 271.009L111.122 282.211L133.848 282.211Z" fill="#8FBAB8"/>
<path d="M131.681 261.447L131.681 263.169C131.681 264.031 130.984 264.721 130.13 264.721L126.043 264.721C125.181 264.721 124.491 264.024 124.491 263.169L124.491 261.447C124.491 260.586 125.188 259.896 126.043 259.896L130.13 259.896C130.984 259.889 131.681 260.586 131.681 261.447Z" stroke="#02435F" stroke-width="0.351" stroke-miterlimit="10"/>
<path d="M125.311 264.605L125.311 260.019" stroke="#02435F" stroke-width="0.351" stroke-miterlimit="10"/>
<path d="M121.306 261.447L121.306 263.169C121.306 264.031 120.609 264.721 119.754 264.721L115.667 264.721C114.806 264.721 114.116 264.024 114.116 263.169L114.116 261.447C114.116 260.586 114.813 259.896 115.667 259.896L119.754 259.896C120.616 259.889 121.306 260.586 121.306 261.447Z" stroke="#02435F" stroke-width="0.351" stroke-miterlimit="10"/>
<path d="M114.936 264.605L114.936 260.019" stroke="#02435F" stroke-width="0.351" stroke-miterlimit="10"/>
<path d="M134.395 292.484L141.551 292.484L142.104 297.289L132.611 297.289L132.611 294.432C132.611 293.359 133.411 292.484 134.395 292.484Z" fill="white"/>
<path d="M134.395 292.484L141.551 292.484L142.104 297.289L132.611 297.289L132.611 294.432C132.611 293.359 133.411 292.484 134.395 292.484Z" stroke="#02435F" stroke-width="0.671" stroke-miterlimit="10"/>
<path d="M50.3055 292.484L43.3134 292.484L42.6778 297.938L52.2603 297.938L52.2603 294.439C52.2603 293.359 51.3854 292.484 50.3055 292.484Z" fill="white"/>
<path d="M50.3055 292.484L43.3134 292.484L42.6778 297.938L52.2603 297.938L52.2603 294.439C52.2603 293.359 51.3854 292.484 50.3055 292.484Z" stroke="#02435F" stroke-width="0.702" stroke-miterlimit="10"/>
<path d="M95.8257 255.385L95.8257 231.217" stroke="#0D3F57" stroke-width="0.729" stroke-miterlimit="10"/>
<path d="M89.271 221.456L89.271 197.985L81.7937 197.985" stroke="#0D3F57" stroke-width="0.702" stroke-miterlimit="10"/>
<path d="M88.6764 255.385L88.6764 231.217" stroke="#0D3F57" stroke-width="0.722" stroke-miterlimit="10"/>
<path d="M109.796 198.054L109.796 183.188" stroke="#0D3F57" stroke-width="0.702" stroke-miterlimit="10"/>
<path d="M73.5645 198.054L73.5645 183.188" stroke="#0D3F57" stroke-width="0.702" stroke-miterlimit="10"/>
<path d="M126.794 197.985L117.923 197.985" stroke="#0D3F57" stroke-width="0.948" stroke-miterlimit="10"/>
<path d="M65.5676 197.985L57.1197 197.985" stroke="#0D3F57" stroke-width="0.702" stroke-miterlimit="10"/>
<path d="M95.8461 197.985L95.8461 182.812" stroke="#0D3F57" stroke-width="0.702" stroke-miterlimit="10"/>
<path d="M89.271 197.985L89.271 182.99" stroke="#0D3F57" stroke-width="0.702" stroke-miterlimit="10"/>
<path d="M115.237 214.252L130.861 214.252L132.043 220.732L116.631 220.732C115.865 220.732 115.237 220.11 115.237 219.337L115.237 214.252Z" fill="white"/>
<path d="M115.237 214.252L130.861 214.252L132.043 220.732L116.631 220.732C115.865 220.732 115.237 220.11 115.237 219.337L115.237 214.252Z" stroke="#02435F" stroke-width="0.702" stroke-miterlimit="10"/>
<path d="M68.7253 214.252L53.6203 214.252L52.4379 220.732L67.331 220.732C68.0965 220.732 68.7253 220.11 68.7253 219.337L68.7253 214.252Z" fill="white"/>
<path d="M68.7253 214.252L53.6203 214.252L52.4379 220.732L67.331 220.732C68.0965 220.732 68.7253 220.11 68.7253 219.337L68.7253 214.252Z" stroke="#02435F" stroke-width="0.702" stroke-miterlimit="10"/>
<path d="M123.541 214.252L119.508 197.972" stroke="#02435F" stroke-width="0.351" stroke-miterlimit="10"/>
<path d="M64.6177 198.054L60.8175 214.252" stroke="#02435F" stroke-width="0.351" stroke-miterlimit="10"/>
<path d="M62.1298 204.506L61.1797 208.245C60.9952 208.976 60.257 209.413 59.5257 209.229L57.5573 208.73C56.8259 208.545 56.3885 207.807 56.5731 207.076L57.5231 203.33C57.7077 202.599 58.4458 202.161 59.1771 202.346L61.1456 202.845C61.8769 203.036 62.3143 203.775 62.1298 204.506Z" stroke="#02435F" stroke-width="0.351" stroke-miterlimit="10"/>
<path d="M58.561 205.163L56.255 204.581L56.0575 205.363L58.3635 205.945L58.561 205.163Z" fill="white"/>
<path d="M58.561 205.163L56.255 204.581L56.0575 205.363L58.3635 205.945L58.561 205.163Z" stroke="#02435F" stroke-width="0.351" stroke-miterlimit="10"/>
<path d="M59.7854 205.422C60.0383 205.483 60.1886 205.736 60.1271 205.989C60.0656 206.242 59.8059 206.392 59.5598 206.331C59.3069 206.269 59.1566 206.01 59.2181 205.764C59.2796 205.511 59.5325 205.353 59.7854 205.422Z" stroke="#02435F" stroke-width="0.351" stroke-miterlimit="10"/>
<path d="M122.037 204.506L122.987 208.245C123.172 208.976 123.91 209.413 124.641 209.229L126.61 208.73C127.341 208.545 127.779 207.807 127.594 207.076L126.644 203.33C126.459 202.599 125.721 202.161 124.99 202.346L123.021 202.845C122.297 203.036 121.853 203.775 122.037 204.506Z" stroke="#02435F" stroke-width="0.351" stroke-miterlimit="10"/>
<path d="M128.109 205.368L127.911 204.586L125.606 205.17L125.804 205.952L128.109 205.368Z" fill="white"/>
<path d="M128.109 205.368L127.911 204.586L125.606 205.17L125.804 205.952L128.109 205.368Z" stroke="#02435F" stroke-width="0.351" stroke-miterlimit="10"/>
<path d="M124.389 205.422C124.136 205.483 123.985 205.736 124.047 205.989C124.108 206.242 124.368 206.392 124.614 206.331C124.867 206.269 125.017 206.01 124.956 205.764C124.894 205.511 124.641 205.353 124.389 205.422Z" fill="white"/>
<path d="M124.389 205.422C124.136 205.483 123.985 205.736 124.047 205.989C124.108 206.242 124.368 206.392 124.614 206.331C124.867 206.269 125.017 206.01 124.956 205.764C124.894 205.511 124.641 205.353 124.389 205.422Z" stroke="#02435F" stroke-width="0.351" stroke-miterlimit="10"/>
<path d="M95.8256 255.385L136.937 255.385L132.83 227.314L107.875 227.314L107.875 243.041C107.875 244.784 106.467 246.192 104.725 246.192L95.8393 246.192L95.8393 255.385L95.8256 255.385Z" fill="white"/>
<path d="M95.8256 255.385L136.937 255.385L132.83 227.314L107.875 227.314L107.875 243.041C107.875 244.784 106.467 246.192 104.725 246.192L95.8393 246.192L95.8393 255.385L95.8256 255.385Z" stroke="#02435F" stroke-width="0.702" stroke-miterlimit="10"/>
<path d="M88.5875 255.385L47.7424 255.385L51.5016 227.314L76.8999 227.314L76.729 243.041C76.729 244.784 78.1439 246.192 79.8799 246.192L88.5875 246.192L88.5875 255.385Z" fill="white"/>
<path d="M88.5875 255.385L47.7424 255.385L51.5016 227.314L76.8999 227.314L76.729 243.041C76.729 244.784 78.1439 246.192 79.8799 246.192L88.5875 246.192L88.5875 255.385V255.385Z" stroke="#02435F" stroke-width="0.702" stroke-miterlimit="10"/>
<path d="M131.681 254.421L108.716 254.421L108.716 229.296C108.716 228.756 109.154 228.325 109.687 228.325L130.711 228.325C131.251 228.325 131.681 228.763 131.681 229.296L131.681 254.421Z" fill="white"/>
<path d="M131.681 254.421L108.716 254.421L108.716 229.296C108.716 228.756 109.154 228.325 109.687 228.325L130.711 228.325C131.251 228.325 131.681 228.763 131.681 229.296L131.681 254.421Z" stroke="#02435F" stroke-width="0.35" stroke-miterlimit="10"/>
<path d="M131.681 244.838L131.681 233.246L108.716 233.246L108.716 244.838L131.681 244.838Z" stroke="#02435F" stroke-width="0.35" stroke-miterlimit="10"/>
<path d="M131.551 241.072L131.551 229.87L108.86 229.87L108.86 241.072L131.551 241.072Z" fill="#8FBAB8"/>
<path d="M111.006 250.634L111.006 248.912C111.006 248.051 111.703 247.36 112.557 247.36L116.631 247.36C117.485 247.36 118.182 248.058 118.182 248.912L118.182 250.634C118.182 251.489 117.485 252.186 116.631 252.186L112.557 252.186C111.703 252.186 111.006 251.496 111.006 250.634Z" stroke="#02435F" stroke-width="0.35" stroke-miterlimit="10"/>
<path d="M117.362 247.477L117.362 252.056" stroke="#02435F" stroke-width="0.35" stroke-miterlimit="10"/>
<path d="M121.347 250.634L121.347 248.912C121.347 248.051 122.044 247.36 122.898 247.36L126.972 247.36C127.826 247.36 128.524 248.058 128.524 248.912L128.524 250.634C128.524 251.489 127.826 252.186 126.972 252.186L122.898 252.186C122.044 252.186 121.347 251.496 121.347 250.634Z" stroke="#02435F" stroke-width="0.35" stroke-miterlimit="10"/>
<path d="M127.703 247.477L127.703 252.056" stroke="#02435F" stroke-width="0.35" stroke-miterlimit="10"/>
<path d="M75.6969 254.619L52.7318 254.619L52.7318 229.494C52.7318 228.954 53.1692 228.524 53.7023 228.524L74.7264 228.524C75.2595 228.524 75.6969 228.961 75.6969 229.494L75.6969 254.619Z" fill="white"/>
<path d="M75.6969 254.619L52.7318 254.619L52.7318 229.494C52.7318 228.954 53.1692 228.524 53.7023 228.524L74.7264 228.524C75.2595 228.524 75.6969 228.961 75.6969 229.494L75.6969 254.619V254.619Z" stroke="#02435F" stroke-width="0.35" stroke-miterlimit="10"/>
<path d="M75.6969 245.037L75.6969 233.445L52.7318 233.445L52.7318 245.037L75.6969 245.037Z" stroke="#02435F" stroke-width="0.35" stroke-miterlimit="10"/>
<path d="M75.5808 241.271L75.5808 230.068L52.8549 230.068L52.8549 241.271L75.5808 241.271Z" fill="#8FBAB8"/>
<path d="M55.0215 250.833L55.0215 249.11C55.0215 248.249 55.7187 247.559 56.573 247.559L60.6466 247.559C61.5078 247.559 62.1981 248.256 62.1981 249.11L62.1981 250.833C62.1981 251.687 61.501 252.384 60.6466 252.384L56.573 252.384C55.7187 252.384 55.0215 251.694 55.0215 250.833Z" stroke="#02435F" stroke-width="0.35" stroke-miterlimit="10"/>
<path d="M61.3779 247.675L61.3779 252.254" stroke="#02435F" stroke-width="0.35" stroke-miterlimit="10"/>
<path d="M65.3627 250.833L65.3627 249.11C65.3627 248.249 66.0598 247.559 66.9142 247.559L70.9878 247.559C71.8421 247.559 72.5393 248.256 72.5393 249.11L72.5393 250.833C72.5393 251.687 71.8421 252.384 70.9878 252.384L66.9142 252.384C66.0598 252.384 65.3627 251.694 65.3627 250.833Z" stroke="#02435F" stroke-width="0.35" stroke-miterlimit="10"/>
<path d="M71.7191 247.675L71.7191 252.254" stroke="#02435F" stroke-width="0.35" stroke-miterlimit="10"/>
<path d="M141.202 296.94L141.202 296.414L131.121 296.414L131.121 296.94L141.202 296.94Z" fill="white"/>
<path d="M141.202 296.94L141.202 296.414L131.121 296.414L131.121 296.94L141.202 296.94Z" stroke="#02435F" stroke-width="0.424" stroke-miterlimit="10"/>
<path d="M128.776 215.298L128.776 214.772L118.695 214.772L118.695 215.298L128.776 215.298Z" fill="white"/>
<path d="M128.776 215.298L128.776 214.772L118.695 214.772L118.695 215.298L128.776 215.298Z" stroke="#02435F" stroke-width="0.424" stroke-miterlimit="10"/>
<path d="M65.9299 215.298L65.9299 214.772L55.8485 214.772L55.8485 215.298L65.9299 215.298Z" fill="white"/>
<path d="M65.9299 215.298L65.9299 214.772L55.8485 214.772L55.8485 215.298L65.9299 215.298Z" stroke="#02435F" stroke-width="0.424" stroke-miterlimit="10"/>
<path d="M87.2888 147.312L87.2888 146.786L77.2074 146.786L77.2074 147.312L87.2888 147.312Z" fill="white"/>
<path d="M87.2888 147.312L87.2888 146.786L77.2074 146.786L77.2074 147.312L87.2888 147.312Z" stroke="#02435F" stroke-width="0.424" stroke-miterlimit="10"/>
<path d="M54.0782 297.61L54.0782 297.084L43.9968 297.084L43.9968 297.61L54.0782 297.61Z" fill="white"/>
<path d="M54.0782 297.61L54.0782 297.084L43.9968 297.084L43.9968 297.61L54.0782 297.61Z" stroke="#02435F" stroke-width="0.424" stroke-miterlimit="10"/>
<path d="M76.8794 146.608L92.9344 146.608L92.9344 148.187L92.9344 150.176C92.9344 151.242 92.0733 152.103 91.007 152.103L74.0497 152.103" stroke="#02435F" stroke-width="0.356" stroke-miterlimit="10"/>
<path d="M89.0864 150.251L89.0864 146.786L87.8083 146.786L87.8083 150.251L89.0864 150.251Z" stroke="#02435F" stroke-width="0.28" stroke-miterlimit="10"/>
<path d="M92.9344 150.251L92.9344 146.786L91.6563 146.786L91.6563 150.251L92.9344 150.251Z" stroke="#02435F" stroke-width="0.28" stroke-miterlimit="10"/>
<path d="M130.608 214.259L130.608 213.48L115.025 213.48L115.025 214.259L130.608 214.259Z" fill="#02435F"/>
<path d="M53.2102 214.252L53.3948 213.48L68.9783 213.48L68.9783 214.252L53.2102 214.252Z" fill="#02435F"/>
<path d="M52.0483 254.421L52.0483 229.029L48.5352 254.421L52.0483 254.421Z" stroke="#02435F" stroke-width="0.35" stroke-miterlimit="10"/>
<path d="M52.0483 249.274L49.2461 249.274" stroke="#02435F" stroke-width="0.35" stroke-miterlimit="10"/>
<path d="M52.0483 241.373L50.3396 241.373" stroke="#02435F" stroke-width="0.35" stroke-miterlimit="10"/>
<path d="M132.419 254.421L132.419 229.029L135.926 254.421L132.419 254.421Z" stroke="#02435F" stroke-width="0.35" stroke-miterlimit="10"/>
<path d="M132.419 249.274L135.215 249.274" stroke="#02435F" stroke-width="0.35" stroke-miterlimit="10"/>
<path d="M132.419 241.373L134.121 241.373" stroke="#02435F" stroke-width="0.35" stroke-miterlimit="10"/>
<path d="M45.5278 282.97L50.2917 282.97L50.2917 257.688L48.501 257.654L45.5278 282.97Z" stroke="#02435F" stroke-width="0.35" stroke-miterlimit="10"/>
<path d="M50.2917 264.748L47.6672 264.748" stroke="#02435F" stroke-width="0.35" stroke-miterlimit="10"/>
<path d="M50.2917 275.062L46.4916 275.062" stroke="#02435F" stroke-width="0.35" stroke-miterlimit="10"/>
<path d="M139.316 282.97L134.552 282.97L134.552 257.688L136.343 257.654L139.316 282.97Z" stroke="#02435F" stroke-width="0.35" stroke-miterlimit="10"/>
<path d="M134.552 264.748L137.177 264.748" stroke="#02435F" stroke-width="0.35" stroke-miterlimit="10"/>
<path d="M134.552 275.062L138.352 275.062" stroke="#02435F" stroke-width="0.35" stroke-miterlimit="10"/>
<path d="M110.384 155.691L110.384 182.812L95.6616 182.812L95.6616 157.072C95.6616 156.306 96.2836 155.691 97.0423 155.691L110.384 155.691Z" fill="white"/>
<path d="M110.384 155.691L110.384 182.812L95.6616 182.812L95.6616 157.072C95.6616 156.306 96.2836 155.691 97.0423 155.691L110.384 155.691V155.691Z" stroke="#02435F" stroke-width="0.393" stroke-miterlimit="10"/>
<path d="M110.384 169.033L110.384 165.978L95.6616 165.978L95.6616 169.033L110.384 169.033Z" fill="white"/>
<path d="M110.384 169.033L110.384 165.978L95.6616 165.978L95.6616 169.033L110.384 169.033Z" stroke="#02435F" stroke-width="0.393" stroke-miterlimit="10"/>
<path d="M108.115 176.722L108.115 178.691C108.115 179.654 107.336 180.433 106.372 180.433L99.6669 180.433C98.7031 180.433 97.924 179.654 97.924 178.691L97.924 176.722C97.924 175.758 98.7031 174.979 99.6669 174.979L106.372 174.979C107.336 174.986 108.115 175.765 108.115 176.722Z" stroke="#02435F" stroke-width="0.393" stroke-miterlimit="10"/>
<path d="M99.0995 180.297L99.0995 175.13" stroke="#02435F" stroke-width="0.393" stroke-miterlimit="10"/>
<path d="M110.227 166.19L110.227 157.667L95.8051 157.667L95.8051 166.19L110.227 166.19Z" fill="#8FBAB8"/>
<path d="M29.1925 428.423C29.1925 427.521 29.1994 426.618 29.2131 425.716L29.7325 278.206C29.7462 274.098 29.9444 269.936 30.3203 265.828L37.203 190.658C39.0484 163.463 45.7671 137.094 57.1608 112.297L72.7238 78.4369L88.6627 42.5402L88.6627 28.9593L96.7141 28.9593L96.7141 42.5539L112.332 78.6283L127.984 112.399C139.446 137.128 146.246 163.442 148.194 190.631L154.749 268.692C154.906 270.9 155.002 273.128 155.029 275.322L156.02 426.666C156.082 431.389 155.945 436.18 155.61 440.903L150.833 522.204C150.088 532.771 141.216 541.041 130.636 541.041L55.247 541.041C44.7487 541.041 35.8839 532.846 35.0637 522.382L29.6983 441.826C29.3703 437.39 29.1925 432.893 29.1925 428.423ZM89.1411 29.4378L89.1206 42.6906L73.1612 78.6351L57.5982 112.495C46.225 137.237 39.5269 163.551 37.6815 190.699L30.7987 265.869C30.4228 269.963 30.2246 274.112 30.2109 278.206L29.6915 425.716C29.6095 431.068 29.7735 436.467 30.1904 441.785L35.5558 522.341C36.3555 532.552 45.0084 540.556 55.2607 540.556L130.649 540.556C140.977 540.556 149.636 532.477 150.368 522.163L155.145 440.862C155.48 436.153 155.617 431.375 155.555 426.659L154.564 275.315C154.537 273.128 154.441 270.907 154.284 268.713L147.73 190.652C145.782 163.517 139.001 137.258 127.56 112.584L111.901 78.806L96.2425 42.6359L96.2425 29.4378L89.1411 29.4378ZM32.07 428.409C32.07 427.521 32.0769 426.632 32.0905 425.744L32.61 278.22C32.6236 274.18 32.8219 270.1 33.1841 266.095L40.0668 190.891C41.8917 164.023 48.5215 137.982 59.7717 113.5L75.3415 79.6262L91.5333 43.1554L91.5333 31.8368L93.8298 31.8368L93.8298 43.1485L109.7 79.797L125.373 113.602C136.691 138.01 143.403 164.003 145.33 190.85L151.885 268.911C152.042 271.057 152.131 273.217 152.159 275.349L153.15 426.694C153.211 431.341 153.074 436.064 152.746 440.712L147.969 522.013C147.333 531.069 139.719 538.156 130.642 538.156L55.2539 538.156C46.2524 538.156 38.6452 531.13 37.9412 522.163L32.5826 441.614C32.2409 437.247 32.07 432.818 32.07 428.409ZM92.0186 32.3153L91.9981 43.2989L75.7858 79.8175L60.216 113.698C48.9931 138.126 42.377 164.112 40.5521 190.932L33.6694 266.136C33.3071 270.134 33.1089 274.194 33.0953 278.22L32.5758 425.75C32.4938 431.02 32.6578 436.344 33.0679 441.58L38.4333 522.136C39.1168 530.85 46.5121 537.685 55.2675 537.685L130.649 537.685C139.473 537.685 146.875 530.788 147.497 521.985L152.268 440.685C152.596 436.044 152.733 431.341 152.671 426.7L151.68 275.356C151.653 273.244 151.564 271.084 151.414 268.952L144.859 190.891C142.938 164.098 136.24 138.167 124.949 113.807L109.277 80.0021L93.3651 43.251L93.3651 32.3153L92.0186 32.3153Z" fill="#8FBAB8"/>
<path d="M75.7858 79.9133L73.0587 85.8596L112.25 85.8596L109.714 79.9133L93.3719 79.9133L93.3719 53.7494L98.7919 54.6721L95.5727 46.6138L94.2741 41.7406L94.2741 29.1986L91.1779 29.1986L91.1779 41.7406L89.9613 46.9487L87.0291 54.4192L92.333 53.7494L92.333 79.9133L75.7858 79.9133Z" fill="#8FBAB8"/>
<path d="M72.8946 155.691L72.8946 182.812L88.8813 182.812L88.8813 157.133C88.8813 156.334 88.232 155.691 87.4392 155.691L72.8946 155.691Z" fill="white"/>
<path d="M72.8946 155.691L72.8946 182.812L88.8813 182.812L88.8813 157.133C88.8813 156.334 88.232 155.691 87.4392 155.691L72.8946 155.691Z" stroke="#02435F" stroke-width="0.409" stroke-miterlimit="10"/>
<path d="M88.8882 169.033L88.8882 165.978L72.9014 165.978L72.9014 169.033L88.8882 169.033Z" fill="white"/>
<path d="M88.8882 169.033L88.8882 165.978L72.9014 165.978L72.9014 169.033L88.8882 169.033Z" stroke="#02435F" stroke-width="0.409" stroke-miterlimit="10"/>
<path d="M75.3621 176.797L75.3621 178.616C75.3621 179.62 76.1754 180.427 77.1733 180.427L84.6097 180.427C85.6144 180.427 86.4209 179.613 86.4209 178.616L86.4209 176.797C86.4209 175.793 85.6075 174.986 84.6097 174.986L77.1733 174.986C76.1754 174.986 75.3621 175.793 75.3621 176.797Z" stroke="#02435F" stroke-width="0.409" stroke-miterlimit="10"/>
<path d="M85.1564 180.297L85.1564 175.13" stroke="#02435F" stroke-width="0.409" stroke-miterlimit="10"/>
<path d="M88.8882 166.19L88.8882 157.667L72.8946 157.667L72.8946 166.19L88.8882 166.19Z" fill="#8FBAB8"/>
<path d="M95.807 178.897L95.4994 178.896L95.4837 182.573L95.7912 182.574L95.807 178.897Z" stroke="#02435F" stroke-width="0.227" stroke-miterlimit="10"/>
<path d="M95.7504 178.902C94.0758 178.896 92.7089 180.789 92.702 182.518" stroke="#02435F" stroke-width="0.227" stroke-miterlimit="10" stroke-dasharray="0.55 0.55"/>
<path d="M95.231 182.525L92.6679 182.511" stroke="#02435F" stroke-width="0.227" stroke-miterlimit="10" stroke-dasharray="0.55 0.55"/>
<path d="M89.4078 182.574L89.3921 178.897L89.0845 178.898L89.1002 182.575L89.4078 182.574Z" stroke="#02435F" stroke-width="0.227" stroke-miterlimit="10"/>
<path d="M89.1411 178.902C90.8156 178.896 92.1826 180.789 92.1895 182.518" stroke="#02435F" stroke-width="0.227" stroke-miterlimit="10" stroke-dasharray="0.55 0.55"/>
<path d="M89.6606 182.525L92.2236 182.511" stroke="#02435F" stroke-width="0.227" stroke-miterlimit="10" stroke-dasharray="0.55 0.55"/>
</g>
<defs>
<clipPath id="clip0">
<rect width="570" height="184.767" fill="white" transform="translate(185) rotate(90)"/>
</clipPath>
</defs>
</svg>
