<svg width="185" height="570" viewBox="0 0 185 570" fill="none" xmlns="http://www.w3.org/2000/svg">
<g clip-path="url(#clip0)">
<path d="M89.0611 28.9836L96.6336 28.9836L96.6336 42.3981L112.285 78.5438L127.957 112.35C139.415 137.072 146.214 163.388 148.164 190.566L154.724 268.692C154.881 270.902 154.977 273.118 155.004 275.314L155.996 426.785C156.058 431.505 155.921 436.294 155.586 441.014L150.804 522.389C150.066 532.842 141.296 541.016 130.83 541.016L55.3779 541.016C45.0007 541.016 36.2311 532.91 35.4171 522.56L30.0472 441.937C29.6299 436.615 29.4589 431.191 29.5478 425.834L30.0677 278.2C30.0814 274.089 30.2798 269.93 30.656 265.833L37.5445 190.6C39.3915 163.408 46.1089 137.038 57.4985 112.247L73.0746 78.3591L89.0474 42.3844L89.0474 28.9836L89.0611 28.9836Z" fill="white"/>
<path d="M89.0611 28.9836L96.6336 28.9836L96.6336 42.3981L112.285 78.5438L127.957 112.35C139.415 137.072 146.214 163.388 148.164 190.565L154.724 268.692C154.881 270.902 154.977 273.118 155.004 275.314L155.996 426.785C156.058 431.505 155.921 436.294 155.586 441.014L150.804 522.389C150.066 532.842 141.296 541.016 130.83 541.016L55.3779 541.016C45.0007 541.016 36.2311 532.91 35.4171 522.56L30.0472 441.937C29.6299 436.615 29.4589 431.191 29.5478 425.834L30.0677 278.2C30.0814 274.089 30.2798 269.93 30.656 265.833L37.5445 190.6C39.3915 163.408 46.1089 137.038 57.4985 112.247L73.0746 78.3591L89.0474 42.3844L89.0474 28.9836L89.0611 28.9836Z" stroke="#0D3F57" stroke-width="0.702" stroke-miterlimit="10"/>
<path d="M99.9987 102.883L99.9987 98.751L84.7305 98.751L84.7305 102.883L99.9987 102.883Z" stroke="#02435F" stroke-miterlimit="10"/>
<path d="M61.8281 450.337L62.6969 454.811C62.82 455.454 62.4027 456.077 61.7597 456.207L57.1765 457.096C56.595 457.212 56.0341 456.829 55.9178 456.248L55.008 451.555C54.8986 450.974 55.2748 450.406 55.8562 450.296L60.4394 449.407C61.0756 449.27 61.6981 449.694 61.8281 450.337Z" stroke="#0D3F57" stroke-width="0.351" stroke-miterlimit="10"/>
<path d="M61.0414 451.535L61.5545 454.182C61.6776 454.825 61.2603 455.447 60.6173 455.57L55.952 456.473L54.9875 451.493L59.6528 450.59C60.2958 450.467 60.9183 450.891 61.0414 451.535Z" stroke="#0D3F57" stroke-width="0.351" stroke-miterlimit="10"/>
<path d="M60.1316 451.363L60.7746 454.681C60.8636 455.139 60.5626 455.584 60.1043 455.673L55.952 456.48L54.9875 451.5L59.1397 450.693C59.5981 450.604 60.0427 450.905 60.1316 451.363Z" stroke="#0D3F57" stroke-width="0.351" stroke-miterlimit="10"/>
<path d="M63.6956 460.701L64.5643 465.175C64.6875 465.818 64.2702 466.44 63.6272 466.563L59.044 467.452C58.4625 467.569 57.9016 467.186 57.7853 466.604L56.8755 461.912C56.7592 461.33 57.1423 460.762 57.7237 460.653L62.3069 459.764C62.95 459.641 63.5725 460.058 63.6956 460.701Z" stroke="#0D3F57" stroke-width="0.351" stroke-miterlimit="10"/>
<path d="M62.9157 461.898L63.4288 464.545C63.5519 465.188 63.1346 465.811 62.4916 465.941L57.8263 466.844L56.8618 461.864L61.5271 460.961C62.1701 460.838 62.7926 461.255 62.9157 461.898Z" stroke="#0D3F57" stroke-width="0.351" stroke-miterlimit="10"/>
<path d="M61.9991 461.727L62.6421 465.045C62.7311 465.503 62.4301 465.948 61.9718 466.037L57.8195 466.844L56.855 461.864L61.0072 461.057C61.4724 460.968 61.9102 461.269 61.9991 461.727Z" stroke="#0D3F57" stroke-width="0.351" stroke-miterlimit="10"/>
<path d="M55.7331 540.633L129.167 540.633L129.707 540.633C140.488 540.633 149.224 531.898 149.224 521.117L149.224 508.448L129.167 508.448L129.167 519.359C129.167 520.33 128.38 521.117 127.409 521.117L57.4912 521.117C56.5198 521.117 55.7331 520.33 55.7331 519.359L55.7331 508.448L36.1074 508.448L36.1074 521.117C36.1074 531.898 44.8429 540.633 55.6237 540.633L55.7331 540.633Z" fill="#02435F"/>
<path d="M56.8686 539.573L128.674 539.573L129.208 539.573C139.989 539.573 148.724 531.405 148.724 521.322L148.724 509.481L130.2 509.481L130.043 519.523C130.043 521.001 128.757 522.205 127.176 522.205L57.409 522.205C55.8289 522.205 54.5428 521.008 54.5428 519.523L54.7002 509.481L37.2361 509.481L37.2361 521.322C37.2361 531.398 45.9716 539.573 56.7523 539.573L56.8686 539.573Z" fill="white"/>
<path d="M93.8353 540.633L93.8353 521.336L92.4877 521.336L92.4877 540.633L93.8353 540.633Z" fill="#02435F"/>
<path d="M49.2825 435.288L57.2928 435.397C57.9564 435.404 58.5036 435.904 58.5925 436.554L59.9333 447.198C60.0154 447.82 59.5092 448.36 58.8798 448.326L58.3941 448.299C57.7785 448.265 57.2791 448.785 57.3407 449.4L59.0508 466.898C59.1945 468.369 60.4258 469.484 61.9034 469.484L71.3981 469.484C72.8141 469.484 73.9634 468.335 73.9634 466.919L73.9634 449.53C73.9634 448.388 74.8868 447.464 76.0292 447.464L99.7935 447.464C100.936 447.464 101.859 448.388 101.859 449.53L101.859 466.919C101.859 468.335 103.009 469.484 104.425 469.484L117.654 469.484C119.118 469.484 120.343 468.383 120.5 466.926L122.573 447.861L135.31 447.861L133.634 476.66L52.7096 476.66L49.2825 435.288Z" fill="white"/>
<path d="M49.2825 435.288L57.2928 435.397C57.9564 435.404 58.5036 435.904 58.5925 436.554L59.9333 447.198C60.0154 447.82 59.5092 448.36 58.8798 448.326L58.3941 448.299C57.7785 448.265 57.2791 448.785 57.3407 449.4L59.0509 466.898C59.1945 468.369 60.4258 469.484 61.9034 469.484L71.3981 469.484C72.8141 469.484 73.9634 468.335 73.9634 466.919L73.9634 449.53C73.9634 448.388 74.8868 447.464 76.0292 447.464L99.7935 447.464C100.936 447.464 101.859 448.388 101.859 449.53L101.859 466.919C101.859 468.335 103.009 469.484 104.425 469.484L117.654 469.484C119.118 469.484 120.343 468.383 120.5 466.926L122.573 447.861L135.31 447.861L133.634 476.66L52.7096 476.66L49.2825 435.288Z" stroke="#02435F" stroke-width="0.702" stroke-miterlimit="10"/>
<path d="M36.47 397.282L47.1003 396.714L47.1755 397.672L36.5521 398.239L36.47 397.282Z" stroke="#02435F" stroke-width="0.351" stroke-miterlimit="10"/>
<path d="M136.069 445.542L144.271 438.77L144.907 439.495L136.699 446.267L136.069 445.542Z" stroke="#02435F" stroke-width="0.351" stroke-miterlimit="10"/>
<path d="M139.12 402.056L145.53 396.741L146.186 397.384L139.777 402.699L139.12 402.056Z" stroke="#02435F" stroke-width="0.351" stroke-miterlimit="10"/>
<path d="M36.2579 397.473C36.2579 397.309 36.2648 397.152 36.2716 396.994" stroke="#02435F" stroke-width="0.281" stroke-miterlimit="10"/>
<path d="M36.3605 396.064C36.9967 391.761 40.4991 388.396 44.8634 387.965" stroke="#02435F" stroke-width="0.281" stroke-miterlimit="10" stroke-dasharray="1.37 1.37"/>
<path d="M45.3354 387.931C45.4928 387.924 45.6569 387.917 45.8143 387.917" stroke="#02435F" stroke-width="0.281" stroke-miterlimit="10"/>
<path d="M145.571 396.741C145.468 396.618 145.359 396.502 145.249 396.386" stroke="#02435F" stroke-width="0.281" stroke-miterlimit="10"/>
<path d="M144.504 395.695C143.053 394.498 141.241 393.814 139.373 393.684" stroke="#02435F" stroke-width="0.281" stroke-miterlimit="10" stroke-dasharray="1.49 1.49"/>
<path d="M138.853 393.656C138.696 393.656 138.532 393.656 138.374 393.656" stroke="#02435F" stroke-width="0.281" stroke-miterlimit="10"/>
<path d="M83.4786 414.479L88.4038 409.485L88.9648 410.026L84.0464 415.019L83.4786 414.479Z" stroke="#0D3F57" stroke-width="0.351" stroke-miterlimit="10"/>
<path d="M88.438 409.485C88.3286 409.362 88.2191 409.246 88.1097 409.136" stroke="#02435F" stroke-width="0.281" stroke-miterlimit="10"/>
<path d="M87.494 408.589C86.2832 407.631 84.8125 407.118 83.3281 407.077" stroke="#02435F" stroke-width="0.281" stroke-miterlimit="10" stroke-dasharray="1.2 1.2"/>
<path d="M82.9177 407.077C82.7603 407.084 82.5962 407.091 82.4388 407.105" stroke="#02435F" stroke-width="0.281" stroke-miterlimit="10"/>
<path d="M65.0364 414.479L60.118 409.485L59.5502 410.026L64.4754 415.019L65.0364 414.479Z" stroke="#0D3F57" stroke-width="0.351" stroke-miterlimit="10"/>
<path d="M60.0838 409.485C60.1864 409.362 60.2958 409.246 60.4121 409.136" stroke="#02435F" stroke-width="0.281" stroke-miterlimit="10"/>
<path d="M61.0277 408.589C62.2385 407.631 63.7093 407.118 65.1937 407.077" stroke="#02435F" stroke-width="0.281" stroke-miterlimit="10" stroke-dasharray="1.2 1.2"/>
<path d="M65.5973 407.077C65.7546 407.084 65.9188 407.091 66.0761 407.105" stroke="#02435F" stroke-width="0.281" stroke-miterlimit="10"/>
<path d="M143.908 438.517C143.785 438.414 143.655 438.318 143.532 438.223" stroke="#02435F" stroke-width="0.281" stroke-miterlimit="10"/>
<path d="M142.664 437.655C140.953 436.683 139.011 436.341 137.15 436.601" stroke="#02435F" stroke-width="0.281" stroke-miterlimit="10" stroke-dasharray="1.52 1.52"/>
<path d="M136.63 436.69C136.473 436.725 136.315 436.759 136.165 436.8" stroke="#02435F" stroke-width="0.281" stroke-miterlimit="10"/>
<path d="M141.076 336.756L147.479 330.976L148.136 331.673L141.733 337.454L141.076 336.756Z" stroke="#02435F" stroke-width="0.351" stroke-miterlimit="10"/>
<path d="M147.52 330.976C147.418 330.846 147.322 330.723 147.212 330.606" stroke="#02435F" stroke-width="0.281" stroke-miterlimit="10"/>
<path d="M146.576 329.943C145.304 328.759 143.744 328.014 142.103 327.74" stroke="#02435F" stroke-width="0.281" stroke-miterlimit="10" stroke-dasharray="1.34 1.34"/>
<path d="M141.651 327.672C141.494 327.651 141.33 327.637 141.172 327.631" stroke="#02435F" stroke-width="0.281" stroke-miterlimit="10"/>
<path d="M82.0968 329.348L82.0968 326.331L62.3001 326.331L82.0968 329.348Z" fill="#02435F"/>
<path d="M82.0968 319.531L82.0968 316.515L62.3001 316.515L82.0968 319.531Z" fill="#02435F"/>
<path d="M63.9761 316.515L63.9761 326.331" stroke="#02435F" stroke-width="0.351" stroke-miterlimit="10"/>
<path d="M62.3001 316.515L62.3001 326.331" stroke="#02435F" stroke-width="0.351" stroke-miterlimit="10"/>
<path d="M66.5755 316.515L66.5755 326.331" stroke="#02435F" stroke-width="0.351" stroke-miterlimit="10"/>
<path d="M69.0107 316.515L69.0107 326.331" stroke="#02435F" stroke-width="0.351" stroke-miterlimit="10"/>
<path d="M71.6102 316.515L71.6102 326.331" stroke="#02435F" stroke-width="0.351" stroke-miterlimit="10"/>
<path d="M74.2917 316.515L74.2917 326.331" stroke="#02435F" stroke-width="0.351" stroke-miterlimit="10"/>
<path d="M76.98 316.515L76.98 326.331" stroke="#02435F" stroke-width="0.351" stroke-miterlimit="10"/>
<path d="M79.4084 316.515L79.4084 326.331" stroke="#02435F" stroke-width="0.351" stroke-miterlimit="10"/>
<path d="M82.0968 316.515L82.0968 329.348" stroke="#02435F" stroke-width="0.351" stroke-miterlimit="10"/>
<path d="M104.103 283.885L101.079 283.885L101.079 316.515L104.103 283.885Z" fill="#02435F"/>
<path d="M94.2868 283.885L91.2701 283.885L91.2701 316.515L94.2868 283.885Z" fill="#02435F"/>
<path d="M91.27 314.839L101.079 314.839" stroke="#02435F" stroke-width="0.351" stroke-miterlimit="10"/>
<path d="M91.27 316.515L101.079 316.515" stroke="#02435F" stroke-width="0.351" stroke-miterlimit="10"/>
<path d="M91.27 312.239L101.079 312.239" stroke="#02435F" stroke-width="0.351" stroke-miterlimit="10"/>
<path d="M91.27 309.804L101.079 309.804" stroke="#02435F" stroke-width="0.351" stroke-miterlimit="10"/>
<path d="M91.27 307.205L101.079 307.205" stroke="#02435F" stroke-width="0.351" stroke-miterlimit="10"/>
<path d="M91.27 304.523L101.079 304.523" stroke="#02435F" stroke-width="0.351" stroke-miterlimit="10"/>
<path d="M91.27 301.486L101.079 301.486" stroke="#02435F" stroke-width="0.351" stroke-miterlimit="10"/>
<path d="M91.27 298.565L101.079 298.565" stroke="#02435F" stroke-width="0.351" stroke-miterlimit="10"/>
<path d="M91.8652 295.569L102.201 295.569" stroke="#02435F" stroke-width="0.351" stroke-miterlimit="10"/>
<path d="M91.8652 292.894L102.201 292.894" stroke="#02435F" stroke-width="0.351" stroke-miterlimit="10"/>
<path d="M91.8652 289.946L102.201 289.946" stroke="#02435F" stroke-width="0.351" stroke-miterlimit="10"/>
<path d="M91.8652 287.435L102.201 287.435" stroke="#02435F" stroke-width="0.351" stroke-miterlimit="10"/>
<path d="M91.8925 284.2L102.229 284.2" stroke="#02435F" stroke-width="0.702" stroke-miterlimit="10"/>
<path d="M84.0874 247.698L87.9729 247.698L87.9729 222.217L84.0874 247.698Z" fill="#02435F"/>
<path d="M96.7152 247.698L100.601 247.698L100.601 222.217L96.7152 247.698Z" fill="#02435F"/>
<path d="M100.601 224.379L87.9729 224.379" stroke="#02435F" stroke-width="0.702" stroke-miterlimit="10"/>
<path d="M100.601 222.217L87.9729 222.217" stroke="#02435F" stroke-width="0.702" stroke-miterlimit="10"/>
<path d="M100.601 227.724L87.9729 227.724" stroke="#02435F" stroke-width="0.702" stroke-miterlimit="10"/>
<path d="M100.601 230.857L87.9729 230.857" stroke="#02435F" stroke-width="0.702" stroke-miterlimit="10"/>
<path d="M100.601 234.202L87.9729 234.202" stroke="#02435F" stroke-width="0.702" stroke-miterlimit="10"/>
<path d="M100.601 237.656L87.9729 237.656" stroke="#02435F" stroke-width="0.702" stroke-miterlimit="10"/>
<path d="M100.601 241.111L87.9729 241.111" stroke="#02435F" stroke-width="0.702" stroke-miterlimit="10"/>
<path d="M100.601 244.244L87.9729 244.244" stroke="#02435F" stroke-width="0.702" stroke-miterlimit="10"/>
<path d="M100.601 247.698L84.0874 247.698" stroke="#02435F" stroke-width="0.702" stroke-miterlimit="10"/>
<g opacity="0.5">
<g opacity="0.5">
<path opacity="0.5" d="M122.58 392.924L126.472 392.924L126.472 367.443L122.58 392.924Z" fill="#02435F"/>
<path opacity="0.5" d="M135.214 392.924L139.1 392.924L139.1 367.443L135.214 392.924Z" fill="#02435F"/>
<path opacity="0.5" d="M139.1 370.207L126.472 370.207" stroke="#02435F" stroke-width="0.351" stroke-miterlimit="10"/>
<path opacity="0.5" d="M139.1 367.443L126.472 367.443" stroke="#02435F" stroke-width="0.702" stroke-miterlimit="10"/>
<path opacity="0.5" d="M139.1 372.95L126.472 372.95" stroke="#02435F" stroke-width="0.351" stroke-miterlimit="10"/>
<path opacity="0.5" d="M139.1 376.076L126.472 376.076" stroke="#02435F" stroke-width="0.351" stroke-miterlimit="10"/>
<path opacity="0.5" d="M139.1 379.428L126.472 379.428" stroke="#02435F" stroke-width="0.351" stroke-miterlimit="10"/>
<path opacity="0.5" d="M139.1 382.882L126.472 382.882" stroke="#02435F" stroke-width="0.351" stroke-miterlimit="10"/>
<path opacity="0.5" d="M139.1 386.337L126.472 386.337" stroke="#02435F" stroke-width="0.351" stroke-miterlimit="10"/>
<path opacity="0.5" d="M139.1 389.47L126.472 389.47" stroke="#02435F" stroke-width="0.351" stroke-miterlimit="10"/>
<path opacity="0.5" d="M139.1 392.924L122.579 392.924" stroke="#02435F" stroke-width="0.702" stroke-miterlimit="10"/>
</g>
</g>
<path d="M56.2257 381.637L56.2257 385.53L81.7069 385.53L56.2257 381.637Z" fill="#02435F"/>
<path d="M56.2257 394.272L56.2257 398.157L81.7069 398.157L56.2257 394.272Z" fill="#02435F"/>
<path d="M79.5521 398.157L79.5521 385.529" stroke="#0D3F57" stroke-width="0.351" stroke-miterlimit="10"/>
<path d="M81.7069 398.157L81.7069 385.529" stroke="#0D3F57" stroke-width="0.351" stroke-miterlimit="10"/>
<path d="M76.2002 398.157L76.2002 385.529" stroke="#0D3F57" stroke-width="0.351" stroke-miterlimit="10"/>
<path d="M73.0672 398.157L73.0672 385.529" stroke="#0D3F57" stroke-width="0.351" stroke-miterlimit="10"/>
<path d="M69.7221 398.157L69.7221 385.529" stroke="#0D3F57" stroke-width="0.351" stroke-miterlimit="10"/>
<path d="M66.2676 398.157L66.2676 385.529" stroke="#0D3F57" stroke-width="0.351" stroke-miterlimit="10"/>
<path d="M62.8131 398.157L62.8131 385.529" stroke="#0D3F57" stroke-width="0.351" stroke-miterlimit="10"/>
<path d="M59.6802 398.157L59.6802 385.529" stroke="#0D3F57" stroke-width="0.351" stroke-miterlimit="10"/>
<path d="M56.2256 398.157L56.2256 381.637" stroke="#0D3F57" stroke-width="0.351" stroke-miterlimit="10"/>
<path d="M82.5072 406.749L82.5072 398.369L65.652 398.369L65.652 406.749L82.5072 406.749Z" stroke="#0D3F57" stroke-width="0.351" stroke-miterlimit="10"/>
<path d="M71.5417 405.066L67.7862 405.066C67.0338 405.066 66.425 404.457 66.425 403.705L66.425 401.749C66.425 400.996 67.0338 400.387 67.7862 400.387L71.5417 400.387C72.2942 400.387 72.903 400.996 72.903 401.749L72.903 403.705C72.903 404.457 72.2942 405.066 71.5417 405.066Z" stroke="#0D3F57" stroke-width="0.351" stroke-miterlimit="10"/>
<path d="M79.9489 405.066L76.1934 405.066C75.4409 405.066 74.8321 404.457 74.8321 403.705L74.8321 401.749C74.8321 400.996 75.4409 400.387 76.1934 400.387L79.9489 400.387C80.7014 400.387 81.3102 400.996 81.3102 401.749L81.3102 403.705C81.3102 404.457 80.7014 405.066 79.9489 405.066Z" stroke="#0D3F57" stroke-width="0.351" stroke-miterlimit="10"/>
<path d="M70.0641 401.824L70.0641 399.477L69.2638 399.477L69.2638 401.824L70.0641 401.824Z" stroke="#0D3F57" stroke-width="0.351" stroke-miterlimit="10"/>
<path d="M78.4713 401.824L78.4713 399.477L77.6709 399.477L77.6709 401.824L78.4713 401.824Z" stroke="#0D3F57" stroke-width="0.351" stroke-miterlimit="10"/>
<path d="M70.0026 403.315C70.0026 403.568 69.7974 403.773 69.5443 403.773C69.2912 403.773 69.086 403.568 69.086 403.315C69.086 403.062 69.2912 402.857 69.5443 402.857C69.7974 402.857 70.0026 403.062 70.0026 403.315Z" stroke="#0D3F57" stroke-width="0.351" stroke-miterlimit="10"/>
<path d="M78.3481 403.315C78.3481 403.568 78.1429 403.773 77.8898 403.773C77.6367 403.773 77.4315 403.568 77.4315 403.315C77.4315 403.062 77.6367 402.857 77.8898 402.857C78.1429 402.857 78.3481 403.062 78.3481 403.315Z" stroke="#0D3F57" stroke-width="0.351" stroke-miterlimit="10"/>
<path d="M130.59 397.131L130.59 400.887C130.59 401.639 129.981 402.248 129.229 402.248L127.272 402.248C126.52 402.248 125.911 401.639 125.911 400.887L125.911 397.131C125.911 396.379 126.52 395.77 127.272 395.77L129.229 395.77C129.981 395.77 130.59 396.379 130.59 397.131Z" stroke="#02435F" stroke-width="0.351" stroke-miterlimit="10"/>
<path d="M127.354 399.409L127.354 398.609L125.008 398.609L125.008 399.409L127.354 399.409Z" fill="white"/>
<path d="M127.354 399.409L127.354 398.609L125.008 398.609L125.008 399.409L127.354 399.409Z" stroke="#02435F" stroke-width="0.351" stroke-miterlimit="10"/>
<path d="M128.572 398.547C128.825 398.547 129.03 398.752 129.03 399.005C129.03 399.259 128.825 399.464 128.572 399.464C128.319 399.464 128.114 399.259 128.114 399.005C128.107 398.752 128.319 398.547 128.572 398.547Z" fill="white"/>
<path d="M128.572 398.547C128.825 398.547 129.03 398.752 129.03 399.005C129.03 399.259 128.825 399.464 128.572 399.464C128.319 399.464 128.114 399.259 128.114 399.005C128.107 398.752 128.319 398.547 128.572 398.547Z" stroke="#02435F" stroke-width="0.351" stroke-miterlimit="10"/>
<path d="M54.6728 398.636L58.1068 398.636L57.4775 399.218L55.2543 399.218L54.6728 398.636Z" stroke="#0D3F57" stroke-width="0.351" stroke-miterlimit="10"/>
<path d="M55.7126 400.757C55.7126 400.401 55.9999 398.629 56.3556 398.629C56.7113 398.629 56.9987 400.401 56.9987 400.757C56.9987 401.112 56.7113 401.4 56.3556 401.4C55.9999 401.4 55.7126 401.112 55.7126 400.757Z" stroke="#0D3F57" stroke-width="0.351" stroke-miterlimit="10"/>
<path d="M94.0542 400.962L90.6271 400.962C90.3603 400.962 90.1414 400.743 90.1414 400.476L90.1414 399.347C90.1414 399.081 90.3603 398.862 90.6271 398.862L94.0542 398.862C94.321 398.862 94.5399 399.081 94.5399 399.347L94.5399 400.476C94.5399 400.743 94.321 400.962 94.0542 400.962Z" stroke="#0D3F57" stroke-width="0.351" stroke-miterlimit="10"/>
<path d="M94.2115 403.821C94.2115 405.401 93.377 406.688 92.3441 406.688C91.3111 406.688 90.4766 405.401 90.4766 403.821C90.4766 402.241 91.3111 400.955 92.3441 400.955C93.377 400.962 94.2115 402.241 94.2115 403.821Z" stroke="#0D3F57" stroke-width="0.351" stroke-miterlimit="10"/>
<path d="M90.5723 402.918L94.1636 402.918" stroke="#0D3F57" stroke-width="0.351" stroke-miterlimit="10"/>
<path d="M132.163 381.172L128.743 381.172C128.476 381.172 128.257 380.953 128.257 380.686L128.257 379.558C128.257 379.291 128.476 379.072 128.743 379.072L132.163 379.072C132.43 379.072 132.649 379.291 132.649 379.558L132.649 380.686C132.649 380.953 132.437 381.172 132.163 381.172Z" fill="white"/>
<path d="M132.163 381.172L128.743 381.172C128.476 381.172 128.257 380.953 128.257 380.686L128.257 379.558C128.257 379.291 128.476 379.072 128.743 379.072L132.163 379.072C132.43 379.072 132.649 379.291 132.649 379.558L132.649 380.686C132.649 380.953 132.437 381.172 132.163 381.172Z" stroke="#02435F" stroke-width="0.351" stroke-miterlimit="10"/>
<path d="M132.32 384.038C132.32 385.618 131.486 386.904 130.453 386.904C129.42 386.904 128.586 385.618 128.586 384.038C128.586 382.458 129.42 381.172 130.453 381.172C131.486 381.172 132.32 382.451 132.32 384.038Z" fill="white"/>
<path d="M132.32 384.038C132.32 385.618 131.486 386.904 130.453 386.904C129.42 386.904 128.586 385.618 128.586 384.038C128.586 382.458 129.42 381.172 130.453 381.172C131.486 381.172 132.32 382.451 132.32 384.038Z" stroke="#02435F" stroke-width="0.351" stroke-miterlimit="10"/>
<path d="M128.681 383.128L132.273 383.128" stroke="#02435F" stroke-width="0.351" stroke-miterlimit="10"/>
<path d="M135.098 449.147L125.76 448.607C124.57 448.538 123.53 449.421 123.4 450.604L120.739 475.586L133.005 475.586L135.098 449.147Z" fill="white"/>
<path d="M135.098 449.147L125.76 448.607C124.57 448.538 123.53 449.421 123.4 450.604L120.739 475.586L133.005 475.586L135.098 449.147Z" stroke="#02435F" stroke-width="0.351" stroke-miterlimit="10"/>
<path d="M121.601 467.507L133.661 468.205" stroke="#02435F" stroke-width="0.351" stroke-miterlimit="10"/>
<path d="M122.614 457.992L134.215 458.662" stroke="#02435F" stroke-width="0.351" stroke-miterlimit="10"/>
<path d="M102.632 415.108L102.632 403.869L101.675 403.869L101.675 415.108L102.632 415.108Z" stroke="#02435F" stroke-width="0.702" stroke-miterlimit="10"/>
<path d="M101.846 415.108C102.003 415.108 102.167 415.101 102.324 415.095" stroke="#02435F" stroke-width="0.281" stroke-miterlimit="10"/>
<path d="M103.262 414.999C107.564 414.363 110.93 410.86 111.361 406.496" stroke="#02435F" stroke-width="0.281" stroke-miterlimit="10" stroke-dasharray="1.37 1.37"/>
<path d="M111.395 406.031C111.402 405.873 111.409 405.709 111.409 405.552" stroke="#02435F" stroke-width="0.281" stroke-miterlimit="10"/>
<path d="M103.433 404.02L111.498 404.02" stroke="#02435F" stroke-width="0.281" stroke-miterlimit="10" stroke-dasharray="1.4 1.4"/>
<path d="M46.7993 352.825L46.7993 341.585L45.8416 341.585L45.8416 352.825L46.7993 352.825Z" stroke="#02435F" stroke-width="0.351" stroke-miterlimit="10"/>
<path d="M46.0127 352.825C46.17 352.825 46.3342 352.818 46.4915 352.811" stroke="#02435F" stroke-width="0.351" stroke-miterlimit="10"/>
<path d="M47.4286 352.722C51.7314 352.086 55.0969 348.583 55.5279 344.219" stroke="#02435F" stroke-width="0.351" stroke-miterlimit="10" stroke-dasharray="1.37 1.37"/>
<path d="M55.5622 343.747C55.569 343.59 55.5759 343.426 55.5759 343.268" stroke="#02435F" stroke-width="0.351" stroke-miterlimit="10"/>
<path d="M47.5997 341.736L55.6647 341.736" stroke="#02435F" stroke-width="0.351" stroke-miterlimit="10" stroke-dasharray="1.4 1.4"/>
<path d="M47.6573 307.12L46.8026 307.096L46.525 317.114L47.3797 317.137L47.6573 307.12Z" stroke="#02435F" stroke-width="0.351" stroke-miterlimit="10"/>
<path d="M46.9703 307.088C47.1277 307.095 47.2918 307.102 47.4492 307.116" stroke="#02435F" stroke-width="0.351" stroke-miterlimit="10"/>
<path d="M48.4 307.246C52.0939 307.978 54.9123 311.09 55.2269 314.88" stroke="#02435F" stroke-width="0.351" stroke-miterlimit="10" stroke-dasharray="1.4 1.4"/>
<path d="M55.2543 315.359C55.2612 315.516 55.2612 315.68 55.2543 315.837" stroke="#02435F" stroke-width="0.351" stroke-miterlimit="10"/>
<path d="M48.1127 317.007L55.2953 317.206" stroke="#02435F" stroke-width="0.351" stroke-miterlimit="10" stroke-dasharray="1.4 1.4"/>
<path d="M124.775 366.643L124.775 355.212L123.756 355.212L123.756 366.643L124.775 366.643Z" stroke="#02435F" stroke-width="0.702" stroke-miterlimit="10"/>
<path d="M123.941 366.643C124.098 366.643 124.262 366.636 124.42 366.629" stroke="#02435F" stroke-width="0.281" stroke-miterlimit="10"/>
<path d="M125.391 366.547C129.995 365.918 133.613 362.347 134.072 357.893" stroke="#02435F" stroke-width="0.281" stroke-miterlimit="10" stroke-dasharray="1.43 1.43"/>
<path d="M134.113 357.408C134.12 357.25 134.126 357.086 134.126 356.929" stroke="#02435F" stroke-width="0.281" stroke-miterlimit="10"/>
<path d="M125.63 355.369L134.222 355.369" stroke="#02435F" stroke-width="0.281" stroke-miterlimit="10" stroke-dasharray="1.4 1.4"/>
<path d="M57.8332 416.401L65.0364 416.401L65.0364 422.736C65.0364 423.18 64.6807 423.536 64.236 423.536L57.8332 423.536L57.8332 416.401V416.401Z" stroke="#0D3F57" stroke-width="0.351" stroke-miterlimit="10"/>
<path d="M50.7532 416.401L57.8332 416.401L57.8332 423.543L51.5535 423.543C51.1089 423.543 50.7532 423.18 50.7532 422.742L50.7532 416.401Z" stroke="#0D3F57" stroke-width="0.351" stroke-miterlimit="10"/>
<path d="M57.8332 419.972L50.7532 419.972" stroke="#0D3F57" stroke-width="0.351" stroke-miterlimit="10"/>
<path d="M57.0192 422.017L57.0192 417.927" stroke="#0D3F57" stroke-width="0.351" stroke-miterlimit="10"/>
<path d="M56.2667 422.017L56.2667 417.927" stroke="#0D3F57" stroke-width="0.351" stroke-miterlimit="10"/>
<path d="M55.5142 422.017L55.5142 417.927" stroke="#0D3F57" stroke-width="0.351" stroke-miterlimit="10"/>
<path d="M54.0435 422.017L54.0435 417.927" stroke="#0D3F57" stroke-width="0.351" stroke-miterlimit="10"/>
<path d="M53.4825 422.017L53.4825 417.927" stroke="#0D3F57" stroke-width="0.351" stroke-miterlimit="10"/>
<path d="M52.7028 422.017L52.7028 417.927" stroke="#0D3F57" stroke-width="0.351" stroke-miterlimit="10"/>
<path d="M51.9982 422.017L51.9982 417.927" stroke="#0D3F57" stroke-width="0.351" stroke-miterlimit="10"/>
<path d="M76.857 447.505L98.9453 447.505L98.9453 439.864C98.9453 438.996 98.2407 438.284 97.3651 438.284L78.4303 438.284C77.5615 438.284 76.8501 438.989 76.8501 439.864L76.8501 447.505L76.857 447.505Z" stroke="#0D3F57" stroke-width="0.351" stroke-miterlimit="10"/>
<path d="M96.4758 447.56L98.2202 447.56L98.2202 439.303C98.2202 438.77 97.7892 438.339 97.2556 438.339L96.4758 438.339L96.4758 447.56Z" stroke="#0D3F57" stroke-width="0.351" stroke-miterlimit="10"/>
<path d="M124.399 315.605L119.843 315.66C119.187 315.666 119.214 314.579 119.207 313.922L118.578 309.818C118.571 309.223 119.043 308.737 119.638 308.73L124.42 308.669C125.015 308.662 125.5 309.134 125.507 309.729L124.885 313.847C124.898 314.51 125.056 315.598 124.399 315.605Z" stroke="#02435F" stroke-width="0.351" stroke-miterlimit="10"/>
<path d="M123.4 313.026L120.753 313.06C120.288 313.067 119.905 312.691 119.898 312.226L119.85 308.737L124.187 308.682L124.228 312.171C124.242 312.636 123.872 313.019 123.4 313.026Z" stroke="#02435F" stroke-width="0.351" stroke-miterlimit="10"/>
<path d="M119.754 260.326L124.31 260.271C124.967 260.264 124.939 261.352 124.946 262.009L125.569 266.113C125.576 266.708 125.104 267.194 124.509 267.201L119.727 267.262C119.132 267.269 118.646 266.797 118.639 266.202L119.262 262.084C119.255 261.42 119.098 260.333 119.754 260.326Z" stroke="#02435F" stroke-width="0.351" stroke-miterlimit="10"/>
<path d="M120.753 262.905L123.394 262.871C123.859 262.864 124.242 263.24 124.249 263.705L124.297 267.194L119.96 267.249L119.912 263.76C119.912 263.295 120.288 262.912 120.753 262.905Z" stroke="#02435F" stroke-width="0.351" stroke-miterlimit="10"/>
<path d="M134.537 302.854L134.592 307.41C134.598 308.067 133.511 308.039 132.854 308.046L128.75 308.669C128.155 308.675 127.669 308.203 127.662 307.608L127.6 302.827C127.594 302.232 128.066 301.746 128.661 301.739L132.779 302.362C133.442 302.362 134.53 302.197 134.537 302.854Z" stroke="#02435F" stroke-width="0.351" stroke-miterlimit="10"/>
<path d="M131.958 303.853L131.992 306.493C131.999 306.958 131.623 307.341 131.158 307.348L127.669 307.396L127.614 303.059L131.103 303.011C131.568 303.011 131.951 303.388 131.958 303.853Z" stroke="#02435F" stroke-width="0.351" stroke-miterlimit="10"/>
<path d="M134.537 294.803L134.592 299.358C134.598 300.015 133.511 299.988 132.854 299.995L128.75 300.617C128.155 300.624 127.669 300.152 127.662 299.557L127.6 294.775C127.594 294.18 128.066 293.694 128.661 293.688L132.779 294.31C133.442 294.303 134.53 294.146 134.537 294.803Z" stroke="#02435F" stroke-width="0.351" stroke-miterlimit="10"/>
<path d="M131.958 295.801L131.992 298.442C131.999 298.907 131.623 299.29 131.158 299.297L127.669 299.345L127.614 295.008L131.103 294.96C131.568 294.96 131.951 295.336 131.958 295.801Z" stroke="#02435F" stroke-width="0.351" stroke-miterlimit="10"/>
<path d="M134.537 285.404L134.592 289.959C134.598 290.616 133.511 290.589 132.854 290.596L128.75 291.218C128.155 291.225 127.669 290.753 127.662 290.158L127.6 285.376C127.594 284.781 128.066 284.295 128.661 284.289L132.779 284.911C133.442 284.911 134.53 284.754 134.537 285.404Z" stroke="#02435F" stroke-width="0.351" stroke-miterlimit="10"/>
<path d="M131.958 286.402L131.992 289.043C131.999 289.508 131.623 289.891 131.158 289.898L127.669 289.946L127.614 285.609L131.103 285.561C131.568 285.561 131.951 285.937 131.958 286.402Z" stroke="#02435F" stroke-width="0.351" stroke-miterlimit="10"/>
<path d="M134.537 276.258L134.592 280.814C134.598 281.47 133.511 281.443 132.854 281.45L128.75 282.072C128.155 282.079 127.669 281.607 127.662 281.012L127.6 276.23C127.594 275.635 128.066 275.15 128.661 275.143L132.779 275.765C133.442 275.758 134.53 275.601 134.537 276.258Z" stroke="#02435F" stroke-width="0.351" stroke-miterlimit="10"/>
<path d="M131.958 277.256L131.992 279.897C131.999 280.362 131.623 280.745 131.158 280.752L127.669 280.8L127.614 276.463L131.103 276.415C131.568 276.415 131.951 276.791 131.958 277.256Z" stroke="#02435F" stroke-width="0.351" stroke-miterlimit="10"/>
<path d="M109.678 302.854L109.617 307.41C109.61 308.067 110.697 308.039 111.354 308.046L115.458 308.669C116.054 308.675 116.539 308.203 116.546 307.608L116.608 302.827C116.614 302.232 116.142 301.746 115.547 301.739L111.429 302.362C110.779 302.362 109.692 302.197 109.678 302.854Z" stroke="#02435F" stroke-width="0.351" stroke-miterlimit="10"/>
<path d="M112.264 303.853L112.23 306.493C112.223 306.958 112.599 307.341 113.064 307.348L116.553 307.396L116.608 303.059L113.119 303.011C112.647 303.011 112.264 303.388 112.264 303.853Z" stroke="#02435F" stroke-width="0.351" stroke-miterlimit="10"/>
<path d="M109.678 294.803L109.617 299.358C109.61 300.015 110.697 299.988 111.354 299.995L115.458 300.617C116.054 300.624 116.539 300.152 116.546 299.557L116.608 294.775C116.614 294.18 116.142 293.694 115.547 293.688L111.429 294.31C110.779 294.303 109.692 294.146 109.678 294.803Z" stroke="#02435F" stroke-width="0.351" stroke-miterlimit="10"/>
<path d="M112.264 295.801L112.23 298.442C112.223 298.907 112.599 299.29 113.064 299.297L116.553 299.345L116.608 295.008L113.119 294.96C112.647 294.96 112.264 295.336 112.264 295.801Z" stroke="#02435F" stroke-width="0.351" stroke-miterlimit="10"/>
<path d="M109.678 285.404L109.617 289.959C109.61 290.616 110.697 290.589 111.354 290.596L115.458 291.218C116.054 291.225 116.539 290.753 116.546 290.158L116.608 285.376C116.614 284.781 116.142 284.295 115.547 284.289L111.429 284.911C110.779 284.911 109.692 284.754 109.678 285.404Z" stroke="#02435F" stroke-width="0.351" stroke-miterlimit="10"/>
<path d="M112.264 286.402L112.23 289.043C112.223 289.508 112.599 289.891 113.064 289.898L116.553 289.946L116.608 285.609L113.119 285.561C112.647 285.561 112.264 285.937 112.264 286.402Z" stroke="#02435F" stroke-width="0.351" stroke-miterlimit="10"/>
<path d="M109.678 276.258L109.617 280.814C109.61 281.47 110.697 281.443 111.354 281.45L115.458 282.072C116.054 282.079 116.539 281.607 116.546 281.012L116.608 276.23C116.614 275.635 116.142 275.15 115.547 275.143L111.429 275.765C110.779 275.758 109.692 275.601 109.678 276.258Z" stroke="#02435F" stroke-width="0.351" stroke-miterlimit="10"/>
<path d="M112.264 277.256L112.23 279.897C112.223 280.362 112.599 280.745 113.064 280.752L116.553 280.8L116.608 276.463L113.119 276.415C112.647 276.415 112.264 276.791 112.264 277.256Z" stroke="#02435F" stroke-width="0.351" stroke-miterlimit="10"/>
<path d="M134.537 267.112L134.592 271.668C134.598 272.324 133.511 272.297 132.854 272.304L128.75 272.926C128.155 272.933 127.669 272.461 127.662 271.866L127.6 267.084C127.594 266.489 128.066 266.004 128.661 265.997L132.779 266.619C133.442 266.612 134.53 266.455 134.537 267.112Z" stroke="#02435F" stroke-width="0.351" stroke-miterlimit="10"/>
<path d="M131.958 268.111L131.992 270.751C131.999 271.216 131.623 271.599 131.158 271.606L127.669 271.654L127.614 267.317L131.103 267.269C131.568 267.269 131.951 267.645 131.958 268.111Z" stroke="#02435F" stroke-width="0.351" stroke-miterlimit="10"/>
<path d="M109.678 267.112L109.617 271.668C109.61 272.324 110.697 272.297 111.354 272.304L115.458 272.926C116.054 272.933 116.539 272.461 116.546 271.866L116.608 267.084C116.614 266.489 116.142 266.004 115.547 265.997L111.429 266.619C110.779 266.612 109.692 266.455 109.678 267.112Z" stroke="#02435F" stroke-width="0.351" stroke-miterlimit="10"/>
<path d="M112.264 268.111L112.23 270.751C112.223 271.216 112.599 271.599 113.064 271.606L116.553 271.654L116.608 267.317L113.119 267.269C112.647 267.269 112.264 267.645 112.264 268.111Z" stroke="#02435F" stroke-width="0.351" stroke-miterlimit="10"/>
<path d="M100.902 474.136L74.9005 474.136L74.9005 449.106C74.9005 448.566 75.3383 448.135 75.8719 448.135L99.9234 448.135C100.464 448.135 100.895 448.573 100.895 449.106L100.895 474.136L100.902 474.136Z" fill="white"/>
<path d="M100.902 474.136L74.9005 474.136L74.9005 449.106C74.9005 448.566 75.3383 448.135 75.8719 448.135L99.9234 448.135C100.464 448.135 100.895 448.573 100.895 449.106L100.895 474.136L100.902 474.136Z" stroke="#02435F" stroke-width="0.351" stroke-miterlimit="10"/>
<path d="M100.902 463.314L100.902 450.228L74.9005 450.228L74.9005 463.314L100.902 463.314Z" stroke="#02435F" stroke-width="0.351" stroke-miterlimit="10"/>
<path d="M100.655 459.059L100.655 449.975L75.1946 449.975L75.1946 459.059L100.655 459.059Z" fill="#8FBAB8"/>
<path d="M77.4931 470.059L77.4931 467.719C77.4931 466.857 78.1909 466.166 79.0459 466.166L84.0601 466.166C84.922 466.166 85.6129 466.864 85.6129 467.719L85.6129 470.059C85.6129 470.921 84.9152 471.612 84.0601 471.612L79.0459 471.612C78.1909 471.612 77.4931 470.914 77.4931 470.059Z" stroke="#02435F" stroke-width="0.351" stroke-miterlimit="10"/>
<path d="M84.6894 466.297L84.6894 471.461" stroke="#02435F" stroke-width="0.351" stroke-miterlimit="10"/>
<path d="M89.2043 470.059L89.2043 467.719C89.2043 466.857 89.902 466.166 90.7571 466.166L95.7712 466.166C96.6331 466.166 97.324 466.864 97.324 467.719L97.324 470.059C97.324 470.921 96.6263 471.612 95.7712 471.612L90.7571 471.612C89.902 471.612 89.2043 470.914 89.2043 470.059Z" stroke="#02435F" stroke-width="0.351" stroke-miterlimit="10"/>
<path d="M96.4005 466.297L96.4005 471.461" stroke="#02435F" stroke-width="0.351" stroke-miterlimit="10"/>
<path d="M135.72 446.534L133.627 476.66L52.7027 476.66L46.3752 400.011L46.3204 397.76" stroke="#0D3F57" stroke-width="0.702" stroke-miterlimit="10"/>
<path d="M138.771 402.72L136.439 436.3" stroke="#0D3F57" stroke-width="0.702" stroke-miterlimit="10"/>
<path d="M141.172 337.454L139.1 393.704" stroke="#0D3F57" stroke-width="0.702" stroke-miterlimit="10"/>
<path d="M46.7993 282.845L48.3521 247.903L137.492 247.903L141.692 327.617" stroke="#0D3F57" stroke-width="0.702" stroke-miterlimit="10"/>
<path d="M44.9387 325.325L46.3752 292.668" stroke="#0D3F57" stroke-width="2.806" stroke-miterlimit="10"/>
<path d="M46.1085 388.04L44.9387 335.148" stroke="#0D3F57" stroke-width="0.702" stroke-miterlimit="10"/>
<path d="M44.7266 334.444L38.3238 328.664L37.6671 329.368L44.0699 335.148L44.7266 334.444Z" stroke="#02435F" stroke-width="0.351" stroke-miterlimit="10"/>
<path d="M38.2828 328.664C38.3854 328.534 38.4811 328.41 38.5906 328.294" stroke="#02435F" stroke-width="0.351" stroke-miterlimit="10"/>
<path d="M39.2267 327.638C40.4991 326.454 42.0588 325.708 43.7005 325.435" stroke="#02435F" stroke-width="0.351" stroke-miterlimit="10" stroke-dasharray="1.34 1.34"/>
<path d="M44.152 325.366C44.3093 325.346 44.4735 325.332 44.6309 325.325" stroke="#02435F" stroke-width="0.351" stroke-miterlimit="10"/>
<path d="M46.1085 291.971L39.6988 286.19L39.0489 286.888L45.4518 292.668L46.1085 291.971Z" stroke="#02435F" stroke-width="0.351" stroke-miterlimit="10"/>
<path d="M39.6646 286.19C39.7603 286.06 39.863 285.937 39.9724 285.821" stroke="#02435F" stroke-width="0.351" stroke-miterlimit="10"/>
<path d="M40.6086 285.157C41.8809 283.974 43.4406 283.228 45.0823 282.955" stroke="#02435F" stroke-width="0.351" stroke-miterlimit="10" stroke-dasharray="1.34 1.34"/>
<path d="M45.5338 282.893C45.6911 282.873 45.8485 282.859 46.0126 282.852" stroke="#02435F" stroke-width="0.351" stroke-miterlimit="10"/>
<path d="M55.6511 342.181L100.902 342.181L100.902 398.239L46.341 398.239" stroke="#0D3F57" stroke-width="0.702" stroke-miterlimit="10"/>
<path d="M65.652 415.498L47.6954 415.498" stroke="#0D3F57" stroke-width="0.702" stroke-miterlimit="10"/>
<path d="M46.341 398.369L65.652 398.369L65.652 406.865" stroke="#0D3F57" stroke-width="0.702" stroke-miterlimit="10"/>
<path d="M82.5072 415.498L100.902 415.498L100.902 398.239L82.5072 398.239L82.5072 407.194" stroke="#0D3F57" stroke-width="0.702" stroke-miterlimit="10"/>
<path d="M82.5073 416.456L101.852 416.456L101.852 421.983C101.852 422.845 101.155 423.543 100.293 423.543L84.0669 423.543C83.205 423.543 82.5073 422.845 82.5073 421.983L82.5073 416.456Z" fill="white"/>
<path d="M82.5073 416.456L101.852 416.456L101.852 421.983C101.852 422.845 101.155 423.543 100.293 423.543L84.0669 423.543C83.205 423.543 82.5073 422.845 82.5073 421.983L82.5073 416.456Z" stroke="#02435F" stroke-width="0.702" stroke-miterlimit="10"/>
<path d="M136.746 447.293L120.349 447.293C115.643 447.293 111.826 443.476 111.826 438.77L111.826 403.821L138.696 403.821" stroke="#0D3F57" stroke-width="0.702" stroke-miterlimit="10"/>
<path d="M100.088 419.917L100.088 419.096L84.279 419.096L84.279 419.917L100.088 419.917Z" fill="#02435F"/>
<path d="M96.3116 420.868L96.3116 418.152L88.0481 418.152L88.0481 420.868L96.3116 420.868Z" fill="#02435F"/>
<path d="M123.065 404.02L123.065 354.911" stroke="#0D3F57" stroke-width="0.702" stroke-miterlimit="10"/>
<path d="M140.502 355.369L134.126 355.369" stroke="#0D3F57" stroke-width="0.702" stroke-miterlimit="10"/>
<path d="M132.102 403.527L132.102 394.491L123.783 394.491L123.783 403.527L132.102 403.527Z" stroke="#02435F" stroke-width="0.351" stroke-miterlimit="10"/>
<path d="M139.667 379.236L139.667 377.314L123.058 377.314L123.058 379.236L139.667 379.236Z" stroke="#02435F" stroke-width="0.281" stroke-miterlimit="10" stroke-dasharray="1.4 1.4"/>
<path d="M129.783 311.186L129.783 264.889L114.638 264.889L114.638 311.186L129.783 311.186Z" fill="white"/>
<path d="M129.783 311.186L129.783 264.889L114.638 264.889L114.638 311.186L129.783 311.186Z" stroke="#02435F" stroke-width="0.702" stroke-miterlimit="10"/>
<path d="M47.4492 257.74L47.6133 271.517L56.3967 271.572C57.2791 271.572 57.9905 270.86 57.9905 269.978L57.9905 259.532C57.9905 258.13 59.1261 256.995 60.5284 256.995L82.1652 256.995C83.0408 256.995 83.7591 256.283 83.7591 255.401L83.7591 247.404L47.8254 247.404L47.456 256.865L47.456 257.74L47.4492 257.74Z" fill="#02435F"/>
<path d="M47.9143 257.809L47.9143 271.073L55.9384 271.073C56.814 271.073 57.5322 270.361 57.5322 269.479L57.5322 259.026C57.5322 257.624 58.6678 256.488 60.0701 256.488L81.7069 256.488C82.5825 256.488 83.3008 255.777 83.3008 254.895L83.3008 247.903L48.2632 247.903L47.9485 257.248L47.9143 257.809Z" fill="white"/>
<path d="M47.9143 257.809L47.9143 271.073L55.9384 271.073C56.814 271.073 57.5322 270.361 57.5322 269.479L57.5322 259.026C57.5322 257.624 58.6678 256.488 60.0701 256.488L81.7069 256.488C82.5825 256.488 83.3008 255.777 83.3008 254.895L83.3008 247.903L48.2632 247.903L47.9485 257.248L47.9143 257.809Z" stroke="#02435F" stroke-width="0.702" stroke-miterlimit="10"/>
<path d="M63.3741 256.495L63.3741 247.103" stroke="#02435F" stroke-width="0.702" stroke-miterlimit="10"/>
<path d="M57.5253 260.572L48.1469 260.572" stroke="#02435F" stroke-width="0.702" stroke-miterlimit="10"/>
<path d="M104.13 248.396L134.913 248.396L134.913 253.656C134.913 254.128 134.53 254.505 134.065 254.505L104.979 254.505C104.513 254.505 104.13 254.128 104.13 253.656L104.13 248.396Z" fill="white"/>
<path d="M104.13 248.396L134.913 248.396L134.913 253.656C134.913 254.128 134.53 254.505 134.065 254.505L104.979 254.505C104.513 254.505 104.13 254.128 104.13 253.656L104.13 248.396V248.396Z" stroke="#02435F" stroke-width="0.702" stroke-miterlimit="10"/>
<path d="M55.268 316.679L90.757 316.679L90.757 342.181L55.268 342.181" stroke="#0D3F57" stroke-width="0.702" stroke-miterlimit="10"/>
<path d="M79.7026 269.896L79.7026 262.077L66.7534 262.077L66.7534 269.896L79.7026 269.896Z" fill="white"/>
<path d="M79.7026 269.896L79.7026 262.077L66.7534 262.077L66.7534 269.896L79.7026 269.896Z" stroke="#02435F" stroke-width="0.702" stroke-miterlimit="10"/>
<path d="M49.6108 231.418L83.8891 231.418C84.7784 231.418 85.5035 232.136 85.5035 233.025L85.5035 248.027L48.0033 248.027L48.0033 233.025C48.0033 232.143 48.7216 231.418 49.6108 231.418Z" fill="#02435F"/>
<path d="M84.6347 246.932L84.6347 232.451L48.8105 232.451L48.8105 246.932L84.6347 246.932Z" fill="white"/>
<path d="M72.7252 246.932L72.7252 232.451" stroke="#02435F" stroke-width="0.351" stroke-miterlimit="10"/>
<path d="M60.8431 246.932L60.8431 232.451" stroke="#02435F" stroke-width="0.351" stroke-miterlimit="10"/>
<path d="M102.194 231.773L135.987 231.773C136.863 231.773 137.574 232.485 137.574 233.36L137.574 248.15L100.601 248.15L100.601 233.36C100.601 232.485 101.312 231.773 102.194 231.773Z" fill="#02435F"/>
<path d="M136.719 247.069L136.719 232.793L101.401 232.793L101.401 247.069L136.719 247.069Z" fill="white"/>
<path d="M124.981 247.069L124.981 232.793" stroke="#02435F" stroke-width="0.346" stroke-miterlimit="10"/>
<path d="M113.269 247.069L113.269 232.793" stroke="#02435F" stroke-width="0.346" stroke-miterlimit="10"/>
<path d="M77.9925 198.932L77.9925 197.707L52.094 197.707L52.094 198.932L77.9925 198.932Z" fill="#02435F"/>
<path d="M77.9925 170.379L77.9925 169.154L52.094 169.154L52.094 170.379L77.9925 170.379Z" fill="#02435F"/>
<path d="M77.9925 188.575L77.9925 179.504L52.094 179.504L52.094 188.575L77.9925 188.575Z" fill="#02435F"/>
<path d="M77.9925 198.925L77.9925 170.372L52.094 170.372L52.094 198.925L77.9925 198.925Z" stroke="#02435F" stroke-width="0.351" stroke-miterlimit="10"/>
<path d="M69.3185 197.707L69.3185 170.646" stroke="#02435F" stroke-width="0.351" stroke-miterlimit="10"/>
<path d="M60.7678 197.707L60.7678 170.646" stroke="#02435F" stroke-width="0.351" stroke-miterlimit="10"/>
<path d="M76.8638 187.528L76.8638 180.756L53.2158 180.756L53.2158 187.528L76.8638 187.528Z" fill="white"/>
<path d="M76.1661 186.878L78.6218 189.163" stroke="white" stroke-width="0.351" stroke-miterlimit="10"/>
<path d="M76.3713 181.297L78.4508 178.998" stroke="white" stroke-width="0.351" stroke-miterlimit="10"/>
<path d="M53.7151 181.317L51.6151 178.971" stroke="white" stroke-width="0.351" stroke-miterlimit="10"/>
<path d="M53.681 187.09L51.6562 188.985" stroke="white" stroke-width="0.351" stroke-miterlimit="10"/>
<path d="M133.203 198.932L133.203 197.707L107.304 197.707L107.304 198.932L133.203 198.932Z" fill="#02435F"/>
<path d="M133.203 170.379L133.203 169.154L107.304 169.154L107.304 170.379L133.203 170.379Z" fill="#02435F"/>
<path d="M133.203 188.575L133.203 179.504L107.304 179.504L107.304 188.575L133.203 188.575Z" fill="#02435F"/>
<path d="M133.203 198.925L133.203 170.372L107.304 170.372L107.304 198.925L133.203 198.925Z" stroke="#02435F" stroke-width="0.351" stroke-miterlimit="10"/>
<path d="M124.536 197.707L124.536 170.646" stroke="#02435F" stroke-width="0.351" stroke-miterlimit="10"/>
<path d="M115.985 197.707L115.985 170.646" stroke="#02435F" stroke-width="0.351" stroke-miterlimit="10"/>
<path d="M132.074 187.528L132.074 180.756L108.426 180.756L108.426 187.528L132.074 187.528Z" fill="white"/>
<path d="M131.383 186.878L133.839 189.163" stroke="white" stroke-width="0.351" stroke-miterlimit="10"/>
<path d="M131.589 181.297L133.668 178.998" stroke="white" stroke-width="0.351" stroke-miterlimit="10"/>
<path d="M108.932 181.317L106.832 178.971" stroke="white" stroke-width="0.351" stroke-miterlimit="10"/>
<path d="M108.898 187.09L106.873 188.985" stroke="white" stroke-width="0.351" stroke-miterlimit="10"/>
<path d="M90.757 316.679L90.757 283.782" stroke="#0D3F57" stroke-width="2.806" stroke-miterlimit="10"/>
<path d="M90.2029 316.309L90.2029 307.15L58.3189 307.15L58.3189 316.309L90.2029 316.309Z" fill="white"/>
<path d="M90.2029 316.309L90.2029 307.15L58.3189 307.15L58.3189 316.309L90.2029 316.309Z" stroke="#0D3F57" stroke-width="0.702" stroke-miterlimit="10"/>
<path d="M90.2029 289.07L90.2029 283.94L58.3189 283.94L58.3189 289.07L90.2029 289.07Z" fill="white"/>
<path d="M90.2029 289.07L90.2029 283.94L58.3189 283.94L58.3189 289.07L90.2029 289.07Z" stroke="#0D3F57" stroke-width="0.702" stroke-miterlimit="10"/>
<path d="M83.7523 278.946C85.0178 278.946 86.0712 279.828 86.3517 281.012C86.4406 280.745 86.4954 280.471 86.4954 280.177C86.4954 278.7 85.2983 277.503 83.8207 277.503C82.3431 277.503 81.146 278.7 81.146 280.177C81.146 280.389 81.1734 280.595 81.2213 280.786C81.577 279.719 82.5689 278.946 83.7523 278.946Z" stroke="#02435F" stroke-width="0.351" stroke-miterlimit="10" stroke-linecap="round" stroke-linejoin="round"/>
<path d="M83.7523 278.946C82.5688 278.946 81.5769 279.719 81.2212 280.786C81.5017 281.97 82.5552 282.852 83.8207 282.852C85.0041 282.852 85.996 282.079 86.3517 281.012C86.0712 279.828 85.0178 278.946 83.7523 278.946Z" stroke="#02435F" stroke-width="0.351" stroke-miterlimit="10" stroke-linecap="round" stroke-linejoin="round"/>
<path d="M74.9552 278.946C76.2207 278.946 77.2742 279.828 77.5546 281.012C77.6436 280.745 77.6983 280.471 77.6983 280.177C77.6983 278.7 76.5012 277.503 75.0236 277.503C73.5461 277.503 72.349 278.7 72.349 280.177C72.349 280.389 72.3763 280.595 72.4242 280.786C72.7799 279.719 73.7718 278.946 74.9552 278.946Z" stroke="#02435F" stroke-width="0.351" stroke-miterlimit="10" stroke-linecap="round" stroke-linejoin="round"/>
<path d="M74.9552 278.946C73.7718 278.946 72.7799 279.719 72.4242 280.786C72.6978 281.97 73.7581 282.852 75.0236 282.852C76.207 282.852 77.1989 282.079 77.5546 281.012C77.2742 279.828 76.2207 278.946 74.9552 278.946Z" stroke="#02435F" stroke-width="0.351" stroke-miterlimit="10" stroke-linecap="round" stroke-linejoin="round"/>
<path d="M66.2676 278.946C67.5332 278.946 68.5866 279.828 68.8671 281.012C68.956 280.745 69.0107 280.471 69.0107 280.177C69.0107 278.7 67.8136 277.503 66.3361 277.503C64.8585 277.503 63.6614 278.7 63.6614 280.177C63.6614 280.389 63.6956 280.595 63.7366 280.786C64.0855 279.719 65.0842 278.946 66.2676 278.946Z" stroke="#02435F" stroke-width="0.351" stroke-miterlimit="10" stroke-linecap="round" stroke-linejoin="round"/>
<path d="M66.2676 278.946C65.0842 278.946 64.0923 279.719 63.7366 280.786C64.0102 281.97 65.0705 282.852 66.336 282.852C67.5195 282.852 68.5114 282.079 68.8671 281.012C68.5866 279.828 67.5331 278.946 66.2676 278.946Z" stroke="#02435F" stroke-width="0.351" stroke-miterlimit="10" stroke-linecap="round" stroke-linejoin="round"/>
<path d="M122.709 403.773L122.709 387.766L117.203 387.766L117.203 403.773L122.709 403.773Z" fill="white"/>
<path d="M122.709 403.773L122.709 387.766L117.203 387.766L117.203 403.773L122.709 403.773Z" stroke="#02435F" stroke-width="0.702" stroke-miterlimit="10"/>
<path d="M89.0606 28.9836L96.64 28.9836L96.64 42.3981L112.291 78.5438L127.963 112.35C139.421 137.072 146.221 163.388 148.17 190.565L154.73 268.692C154.888 270.902 154.983 273.118 155.011 275.314L156.003 426.778C156.064 431.498 155.927 436.287 155.592 441.007L150.811 522.376C150.072 532.828 141.302 541.003 130.836 541.003L55.3843 541.003C45.0071 541.003 36.2374 532.897 35.4234 522.547L30.0535 441.923C29.6362 436.601 29.4652 431.177 29.5541 425.821L30.074 278.187C30.0877 274.076 30.2861 269.916 30.6623 265.819L37.5508 190.586C39.3978 163.395 46.1153 137.024 57.5049 112.234L73.0809 78.3454L89.0537 42.3707L89.0537 28.9836L89.0606 28.9836ZM93.7601 31.8635L91.9405 31.8635L91.9405 43L75.7146 79.5494L60.1317 113.451C48.8857 137.92 42.2572 163.956 40.4307 190.832L33.5422 266.099C33.1728 270.108 32.9813 274.185 32.9676 278.214L32.4477 425.868C32.3656 431.156 32.5298 436.485 32.9403 441.732L38.3101 522.355C39.001 531.2 46.512 538.136 55.3979 538.136L130.843 538.136C139.804 538.136 147.308 531.139 147.944 522.205L152.726 440.836C153.054 436.177 153.191 431.471 153.13 426.819L152.138 275.348C152.11 273.22 152.021 271.059 151.864 268.925L145.304 190.798C143.375 163.949 136.664 137.975 125.357 113.568L109.671 79.7272L93.7669 43L93.7669 31.8635L93.7601 31.8635Z" fill="white"/>
<path d="M89.0606 28.9836L96.64 28.9836L96.64 42.3981L112.291 78.5438L127.963 112.35C139.421 137.072 146.221 163.388 148.17 190.565L154.73 268.692C154.888 270.902 154.983 273.118 155.011 275.314L156.003 426.778C156.064 431.498 155.927 436.287 155.592 441.007L150.811 522.376C150.072 532.828 141.302 541.003 130.836 541.003L55.3843 541.003C45.0071 541.003 36.2374 532.897 35.4234 522.547L30.0535 441.923C29.6362 436.601 29.4652 431.177 29.5541 425.821L30.074 278.187C30.0877 274.076 30.2861 269.916 30.6623 265.819L37.5508 190.586C39.3978 163.395 46.1153 137.024 57.5049 112.234L73.0809 78.3454L89.0537 42.3707L89.0537 28.9836L89.0606 28.9836ZM93.7601 31.8635L91.9405 31.8635L91.9405 43L75.7146 79.5494L60.1317 113.451C48.8857 137.92 42.2572 163.956 40.4307 190.832L33.5422 266.099C33.1728 270.108 32.9813 274.185 32.9676 278.214L32.4477 425.869C32.3656 431.156 32.5298 436.485 32.9403 441.732L38.3101 522.355C39.001 531.2 46.512 538.136 55.3979 538.136L130.843 538.136C139.804 538.136 147.308 531.139 147.944 522.205L152.726 440.836C153.054 436.177 153.191 431.471 153.13 426.819L152.138 275.348C152.11 273.22 152.021 271.059 151.864 268.925L145.304 190.798C143.375 163.949 136.664 137.975 125.357 113.568L109.671 79.7272L93.7669 43L93.7669 31.8635L93.7601 31.8635Z" stroke="#0D3F57" stroke-width="0.702" stroke-miterlimit="10"/>
<path d="M75.7077 79.7409L72.9715 85.6922L112.195 85.6922L109.658 79.7409L93.3018 79.7409L93.3018 53.5551L98.7264 54.4786L95.5113 46.4135L94.2116 41.5361L94.2116 28.9836L91.1059 28.9836L91.1059 41.5361L89.8883 46.7487L86.9537 54.2255L92.262 53.5551L92.262 79.7409L75.7077 79.7409Z" fill="white"/>
<path d="M75.7077 79.7409L72.9715 85.6922L112.195 85.6922L109.658 79.7409L93.3018 79.7409L93.3018 53.5551L98.7264 54.4786L95.5113 46.4135L94.2116 41.5361L94.2116 28.9836L91.1059 28.9836L91.1059 41.5361L89.8883 46.7487L86.9537 54.2255L92.262 53.5551L92.262 79.7409L75.7077 79.7409Z" stroke="#0D3F57" stroke-width="0.702" stroke-miterlimit="10"/>
<path d="M120.664 415.019L126.91 415.019C127.819 415.019 128.558 415.758 128.558 416.668L128.558 428.755C128.558 429.665 127.819 430.404 126.91 430.404L120.664 430.404C119.754 430.404 119.016 429.665 119.016 428.755L119.016 416.668C119.022 415.758 119.754 415.019 120.664 415.019Z" stroke="#0D3F57" stroke-width="0.351" stroke-miterlimit="10"/>
<path d="M120.616 430.397L126.978 430.397C127.854 430.397 128.565 431.108 128.565 431.984L128.565 437.422C128.565 438.298 127.854 439.009 126.978 439.009L120.616 439.009C119.741 439.009 119.029 438.298 119.029 437.422L119.029 431.984C119.029 431.108 119.741 430.397 120.616 430.397Z" stroke="#0D3F57" stroke-width="0.351" stroke-miterlimit="10"/>
<path d="M128.572 424.836L128.572 417.085L119.036 417.085L119.036 424.836L128.572 424.836Z" fill="#02435F"/>
<path d="M128.572 426.587L128.572 424.624L119.036 424.624L119.036 426.587L128.572 426.587Z" stroke="#0D3F57" stroke-width="0.351" stroke-miterlimit="10"/>
<path d="M113.297 423.919C113.379 422.53 114.569 421.47 115.958 421.552C117.346 421.634 118.407 422.824 118.325 424.213C118.243 425.602 117.052 426.662 115.664 426.58C114.275 426.498 113.215 425.308 113.297 423.919Z" stroke="#0D3F57" stroke-width="0.351" stroke-miterlimit="10"/>
<path d="M128.668 538.13L128.668 521.062" stroke="#02435F" stroke-width="0.351" stroke-miterlimit="10"/>
<path d="M58.1479 538.13L58.1479 521.89" stroke="#02435F" stroke-width="0.351" stroke-miterlimit="10"/>
<path d="M105.307 538.13L105.307 521.336" stroke="#02435F" stroke-width="0.351" stroke-miterlimit="10"/>
<path d="M80.6193 538.13L80.6193 521.336" stroke="#02435F" stroke-width="0.351" stroke-miterlimit="10"/>
<path d="M148.033 520.645L129.413 520.645" stroke="#02435F" stroke-width="0.351" stroke-miterlimit="10"/>
<path d="M55.6989 520.645L38.187 520.645" stroke="#02435F" stroke-width="0.351" stroke-miterlimit="10"/>
<path d="M99.9781 509.55L119.488 509.55L119.488 513.982C119.488 515.905 117.928 517.457 116.013 517.457L99.985 517.457L99.985 509.55L99.9781 509.55Z" fill="white"/>
<path d="M99.9781 509.55L119.488 509.55L119.488 513.982C119.488 515.905 117.928 517.457 116.013 517.457L99.985 517.457L99.985 509.55L99.9781 509.55Z" stroke="#02435F" stroke-width="0.702" stroke-miterlimit="10"/>
<path d="M86.2559 509.55L66.7465 509.55L66.7465 513.982C66.7465 515.905 68.3062 517.457 70.2216 517.457L86.2559 517.457L86.2559 509.55Z" fill="white"/>
<path d="M86.2559 509.55L66.7465 509.55L66.7465 513.982C66.7465 515.905 68.3062 517.457 70.2216 517.457L86.2559 517.457L86.2559 509.55Z" stroke="#02435F" stroke-width="0.702" stroke-miterlimit="10"/>
<path d="M46.3752 292.668L46.3752 282.845" stroke="#02435F" stroke-width="0.281" stroke-miterlimit="10" stroke-dasharray="1.4 1.4"/>
<path d="M44.9387 335.148L44.9387 324.662" stroke="#02435F" stroke-width="0.281" stroke-miterlimit="10" stroke-dasharray="1.4 1.4"/>
<path d="M141.172 327.631L141.172 336.811" stroke="#02435F" stroke-width="0.281" stroke-miterlimit="10" stroke-dasharray="1.4 1.4"/>
<path d="M138.771 393.704L138.771 402.248" stroke="#02435F" stroke-width="0.281" stroke-miterlimit="10" stroke-dasharray="1.4 1.4"/>
<path d="M136.165 436.8L136.165 445.433" stroke="#02435F" stroke-width="0.281" stroke-miterlimit="10" stroke-dasharray="1.4 1.4"/>
<path d="M47.1003 396.714L47.1003 387.917" stroke="#02435F" stroke-width="0.281" stroke-miterlimit="10" stroke-dasharray="1.4 1.4"/>
<path d="M82.5072 415.498L82.5072 407.105" stroke="#02435F" stroke-width="0.281" stroke-miterlimit="10" stroke-dasharray="1.4 1.4"/>
<path d="M65.652 415.498L65.652 406.865" stroke="#02435F" stroke-width="0.281" stroke-miterlimit="10" stroke-dasharray="1.4 1.4"/>
<path d="M125.172 173.82L130.487 172.438C131.076 172.287 131.678 172.636 131.828 173.225L132.355 175.263C132.505 175.851 132.156 176.453 131.568 176.604L126.253 177.986C125.665 178.136 125.063 177.787 124.912 177.199L124.385 175.16C124.228 174.572 124.584 173.97 125.172 173.82Z" fill="#8FBAB8"/>
<path d="M125.172 173.82L130.487 172.438C131.076 172.287 131.678 172.636 131.828 173.225L132.355 175.263C132.505 175.851 132.156 176.453 131.568 176.604L126.253 177.986C125.665 178.136 125.063 177.787 124.912 177.199L124.385 175.16C124.228 174.572 124.584 173.97 125.172 173.82Z" stroke="#02435F" stroke-width="0.351" stroke-miterlimit="10"/>
<path d="M109.918 173.82L115.233 172.438C115.821 172.287 116.423 172.636 116.573 173.225L117.1 175.263C117.251 175.851 116.902 176.453 116.313 176.604L110.998 177.986C110.41 178.136 109.808 177.787 109.658 177.199L109.131 175.16C108.974 174.572 109.329 173.97 109.918 173.82Z" fill="#8FBAB8"/>
<path d="M109.918 173.82L115.233 172.438C115.821 172.287 116.423 172.636 116.573 173.225L117.1 175.263C117.251 175.851 116.902 176.453 116.313 176.604L110.998 177.986C110.41 178.136 109.808 177.787 109.658 177.199L109.131 175.16C108.974 174.572 109.329 173.97 109.918 173.82Z" stroke="#02435F" stroke-width="0.351" stroke-miterlimit="10"/>
<path d="M125.172 192.118L130.487 190.736C131.076 190.586 131.678 190.935 131.828 191.523L132.355 193.562C132.505 194.15 132.156 194.752 131.568 194.902L126.253 196.284C125.665 196.435 125.063 196.086 124.912 195.498L124.385 193.459C124.228 192.871 124.584 192.269 125.172 192.118Z" fill="#8FBAB8"/>
<path d="M125.172 192.118L130.487 190.736C131.076 190.586 131.678 190.935 131.828 191.523L132.355 193.562C132.505 194.15 132.156 194.752 131.568 194.902L126.253 196.284C125.665 196.435 125.063 196.086 124.912 195.498L124.385 193.459C124.228 192.871 124.584 192.269 125.172 192.118Z" stroke="#02435F" stroke-width="0.351" stroke-miterlimit="10"/>
<path d="M109.918 192.118L115.233 190.736C115.821 190.586 116.423 190.935 116.573 191.523L117.1 193.562C117.251 194.15 116.902 194.752 116.313 194.902L110.998 196.284C110.41 196.435 109.808 196.086 109.658 195.498L109.131 193.459C108.974 192.871 109.329 192.269 109.918 192.118Z" fill="#8FBAB8"/>
<path d="M109.918 192.118L115.233 190.736C115.821 190.586 116.423 190.935 116.573 191.523L117.1 193.562C117.251 194.15 116.902 194.752 116.313 194.902L110.998 196.284C110.41 196.435 109.808 196.086 109.658 195.498L109.131 193.459C108.974 192.871 109.329 192.269 109.918 192.118Z" stroke="#02435F" stroke-width="0.351" stroke-miterlimit="10"/>
<path d="M69.4622 173.82L74.7774 172.438C75.3656 172.287 75.9676 172.636 76.1181 173.225L76.6448 175.263C76.7953 175.851 76.4465 176.453 75.8582 176.604L70.543 177.986C69.9547 178.136 69.3528 177.787 69.2023 177.199L68.6755 175.16C68.525 174.572 68.8739 173.97 69.4622 173.82Z" fill="#8FBAB8"/>
<path d="M69.4622 173.82L74.7774 172.438C75.3656 172.287 75.9676 172.636 76.1181 173.225L76.6448 175.263C76.7953 175.851 76.4465 176.453 75.8582 176.604L70.543 177.986C69.9547 178.136 69.3528 177.787 69.2023 177.199L68.6755 175.16C68.525 174.572 68.8739 173.97 69.4622 173.82Z" stroke="#02435F" stroke-width="0.351" stroke-miterlimit="10"/>
<path d="M54.2077 173.82L59.5228 172.438C60.1111 172.287 60.7131 172.636 60.8636 173.225L61.3903 175.263C61.5408 175.851 61.1919 176.453 60.6037 176.604L55.2885 177.986C54.7002 178.136 54.0982 177.787 53.9477 177.199L53.421 175.16C53.2705 174.572 53.6194 173.97 54.2077 173.82Z" fill="#8FBAB8"/>
<path d="M54.2077 173.82L59.5228 172.438C60.1111 172.287 60.7131 172.636 60.8636 173.225L61.3903 175.263C61.5408 175.851 61.1919 176.453 60.6037 176.604L55.2885 177.986C54.7002 178.136 54.0982 177.787 53.9477 177.199L53.421 175.16C53.2705 174.572 53.6194 173.97 54.2077 173.82Z" stroke="#02435F" stroke-width="0.351" stroke-miterlimit="10"/>
<path d="M138.395 513.442L143.71 512.06C144.298 511.91 144.9 512.259 145.051 512.847L145.578 514.885C145.728 515.474 145.379 516.076 144.791 516.226L139.476 517.608C138.887 517.758 138.286 517.41 138.135 516.821L137.608 514.783C137.451 514.194 137.807 513.599 138.395 513.442Z" fill="#8FBAB8"/>
<path d="M138.395 513.442L143.71 512.06C144.298 511.91 144.9 512.259 145.051 512.847L145.578 514.885C145.728 515.474 145.379 516.076 144.791 516.226L139.476 517.608C138.887 517.758 138.286 517.41 138.135 516.821L137.608 514.783C137.451 514.194 137.807 513.599 138.395 513.442Z" stroke="#02435F" stroke-width="0.351" stroke-miterlimit="10"/>
<path d="M125.583 470.722L124.201 465.407C124.05 464.819 124.399 464.217 124.987 464.067L127.026 463.54C127.614 463.389 128.216 463.738 128.367 464.326L129.748 469.642C129.899 470.23 129.55 470.832 128.962 470.982L126.923 471.516C126.342 471.666 125.74 471.311 125.583 470.722Z" fill="#8FBAB8"/>
<path d="M125.583 470.722L124.201 465.407C124.05 464.819 124.399 464.217 124.987 464.067L127.026 463.54C127.614 463.389 128.216 463.738 128.367 464.326L129.748 469.642C129.899 470.23 129.55 470.832 128.962 470.982L126.923 471.516C126.342 471.666 125.74 471.311 125.583 470.722Z" stroke="#02435F" stroke-width="0.351" stroke-miterlimit="10"/>
<path d="M127.484 458.484L128.052 453.019C128.114 452.41 128.654 451.972 129.263 452.041L131.356 452.26C131.958 452.321 132.403 452.862 132.334 453.47L131.766 458.936C131.705 459.538 131.164 459.983 130.556 459.914L128.462 459.695C127.86 459.627 127.416 459.086 127.484 458.484Z" fill="#8FBAB8"/>
<path d="M127.484 458.484L128.052 453.019C128.114 452.41 128.654 451.972 129.263 452.041L131.356 452.26C131.958 452.321 132.403 452.862 132.334 453.47L131.766 458.936C131.705 459.538 131.164 459.983 130.556 459.914L128.462 459.695C127.86 459.627 127.416 459.086 127.484 458.484Z" stroke="#02435F" stroke-width="0.351" stroke-miterlimit="10"/>
<path d="M41.6005 513.442L46.9156 512.06C47.5039 511.91 48.1059 512.259 48.2564 512.847L48.7831 514.885C48.9336 515.474 48.5847 516.076 47.9964 516.226L42.6813 517.608C42.093 517.758 41.491 517.41 41.3405 516.821L40.8138 514.783C40.6565 514.194 41.0122 513.599 41.6005 513.442Z" fill="#8FBAB8"/>
<path d="M41.6005 513.442L46.9156 512.06C47.5039 511.91 48.1059 512.259 48.2564 512.847L48.7831 514.885C48.9336 515.474 48.5847 516.076 47.9964 516.226L42.6813 517.608C42.093 517.758 41.491 517.41 41.3405 516.821L40.8138 514.783C40.6565 514.194 41.0122 513.599 41.6005 513.442Z" stroke="#02435F" stroke-width="0.351" stroke-miterlimit="10"/>
<path d="M69.4622 192.118L74.7774 190.736C75.3656 190.586 75.9676 190.935 76.1181 191.523L76.6448 193.562C76.7953 194.15 76.4465 194.752 75.8582 194.902L70.543 196.284C69.9547 196.435 69.3528 196.086 69.2023 195.498L68.6755 193.459C68.525 192.871 68.8739 192.269 69.4622 192.118Z" fill="#8FBAB8"/>
<path d="M69.4622 192.118L74.7774 190.736C75.3656 190.586 75.9676 190.935 76.1181 191.523L76.6448 193.562C76.7953 194.15 76.4465 194.752 75.8582 194.902L70.543 196.284C69.9547 196.435 69.3528 196.086 69.2023 195.498L68.6755 193.459C68.525 192.871 68.8739 192.269 69.4622 192.118Z" stroke="#02435F" stroke-width="0.351" stroke-miterlimit="10"/>
<path d="M54.2077 192.118L59.5228 190.736C60.1111 190.586 60.7131 190.935 60.8636 191.523L61.3903 193.562C61.5408 194.15 61.1919 194.752 60.6037 194.902L55.2885 196.284C54.7002 196.435 54.0982 196.086 53.9477 195.498L53.421 193.459C53.2705 192.871 53.6194 192.269 54.2077 192.118Z" fill="#8FBAB8"/>
<path d="M54.2077 192.118L59.5228 190.736C60.1111 190.586 60.7131 190.935 60.8636 191.523L61.3903 193.562C61.5408 194.15 61.1919 194.752 60.6037 194.902L55.2885 196.284C54.7002 196.435 54.0982 196.086 53.9477 195.498L53.421 193.459C53.2705 192.871 53.6194 192.269 54.2077 192.118Z" stroke="#02435F" stroke-width="0.351" stroke-miterlimit="10"/>
<path d="M130.48 239.962L135.166 239.962C135.891 239.962 136.473 240.55 136.473 241.268L136.473 242.93C136.473 243.655 135.884 244.237 135.166 244.237L130.48 244.237C129.755 244.237 129.174 243.649 129.174 242.93L129.174 241.268C129.167 240.55 129.755 239.962 130.48 239.962Z" fill="#8FBAB8"/>
<path d="M130.48 239.962L135.166 239.962C135.891 239.962 136.473 240.55 136.473 241.268L136.473 242.93C136.473 243.655 135.884 244.237 135.166 244.237L130.48 244.237C129.755 244.237 129.174 243.649 129.174 242.93L129.174 241.268C129.167 240.55 129.755 239.962 130.48 239.962Z" stroke="#02435F" stroke-width="0.351" stroke-miterlimit="10"/>
<path d="M128.866 238.99L133.449 238.374C134.154 238.279 134.804 238.778 134.899 239.483L135.118 241.104C135.214 241.808 134.715 242.458 134.01 242.554L129.427 243.17C128.722 243.265 128.073 242.766 127.977 242.062L127.758 240.44C127.662 239.736 128.155 239.086 128.866 238.99Z" fill="#8FBAB8"/>
<path d="M128.866 238.99L133.449 238.374C134.154 238.279 134.804 238.778 134.899 239.483L135.118 241.104C135.214 241.808 134.715 242.458 134.01 242.554L129.427 243.17C128.722 243.265 128.073 242.766 127.977 242.062L127.758 240.44C127.662 239.736 128.155 239.086 128.866 238.99Z" stroke="#02435F" stroke-width="0.346" stroke-miterlimit="10"/>
<path d="M117.962 239.962L122.648 239.962C123.373 239.962 123.954 240.55 123.954 241.268L123.954 242.93C123.954 243.655 123.366 244.237 122.648 244.237L117.962 244.237C117.237 244.237 116.656 243.649 116.656 242.93L116.656 241.268C116.649 240.55 117.237 239.962 117.962 239.962Z" fill="#8FBAB8"/>
<path d="M117.962 239.962L122.648 239.962C123.373 239.962 123.954 240.55 123.954 241.268L123.954 242.93C123.954 243.655 123.366 244.237 122.648 244.237L117.962 244.237C117.237 244.237 116.656 243.649 116.656 242.93L116.656 241.268C116.649 240.55 117.237 239.962 117.962 239.962Z" stroke="#02435F" stroke-width="0.351" stroke-miterlimit="10"/>
<path d="M116.519 238.99L121.102 238.374C121.807 238.279 122.456 238.778 122.552 239.483L122.771 241.104C122.867 241.808 122.367 242.458 121.663 242.554L117.08 243.17C116.375 243.265 115.725 242.766 115.629 242.062L115.411 240.44C115.315 239.736 115.814 239.086 116.519 238.99Z" fill="#8FBAB8"/>
<path d="M116.519 238.99L121.102 238.374C121.807 238.279 122.456 238.778 122.552 239.483L122.771 241.104C122.867 241.808 122.367 242.458 121.663 242.554L117.08 243.17C116.375 243.265 115.725 242.766 115.629 242.062L115.411 240.44C115.315 239.736 115.814 239.086 116.519 238.99Z" stroke="#02435F" stroke-width="0.346" stroke-miterlimit="10"/>
<path d="M105.916 239.962L110.54 239.962C111.251 239.962 111.833 240.536 111.833 241.254L111.833 242.889C111.833 243.601 111.251 244.182 110.54 244.182L105.916 244.182C105.204 244.182 104.623 243.608 104.623 242.889L104.623 241.254C104.623 240.543 105.204 239.962 105.916 239.962Z" fill="#8FBAB8"/>
<path d="M105.916 239.962L110.54 239.962C111.251 239.962 111.833 240.536 111.833 241.254L111.833 242.889C111.833 243.601 111.251 244.182 110.54 244.182L105.916 244.182C105.204 244.182 104.623 243.608 104.623 242.889L104.623 241.254C104.623 240.543 105.204 239.962 105.916 239.962Z" stroke="#02435F" stroke-width="0.346" stroke-miterlimit="10"/>
<path d="M104.199 238.99L108.782 238.374C109.487 238.279 110.136 238.778 110.232 239.483L110.451 241.104C110.547 241.808 110.048 242.458 109.343 242.554L104.76 243.17C104.055 243.265 103.405 242.766 103.31 242.062L103.091 240.44C103.002 239.736 103.494 239.086 104.199 238.99Z" fill="#8FBAB8"/>
<path d="M104.199 238.99L108.782 238.374C109.487 238.279 110.136 238.778 110.232 239.483L110.451 241.104C110.547 241.808 110.048 242.458 109.343 242.554L104.76 243.17C104.055 243.265 103.405 242.766 103.31 242.062L103.091 240.44C103.002 239.736 103.494 239.086 104.199 238.99Z" stroke="#02435F" stroke-width="0.346" stroke-miterlimit="10"/>
<path d="M76.679 239.366L81.3648 239.366C82.0899 239.366 82.6782 239.955 82.6782 240.673L82.6782 242.335C82.6782 243.06 82.0899 243.642 81.3648 243.642L76.679 243.642C75.9539 243.642 75.3725 243.053 75.3725 242.335L75.3725 240.673C75.3725 239.955 75.9608 239.366 76.679 239.366Z" fill="#8FBAB8"/>
<path d="M76.679 239.366L81.3648 239.366C82.0899 239.366 82.6782 239.955 82.6782 240.673L82.6782 242.335C82.6782 243.06 82.0899 243.642 81.3648 243.642L76.679 243.642C75.9539 243.642 75.3725 243.053 75.3725 242.335L75.3725 240.673C75.3725 239.955 75.9608 239.366 76.679 239.366Z" stroke="#02435F" stroke-width="0.351" stroke-miterlimit="10"/>
<path d="M74.9416 238.381L79.5863 237.759C80.3046 237.663 80.9613 238.169 81.0571 238.881L81.276 240.529C81.3717 241.248 80.8655 241.904 80.1541 242L75.5025 242.622C74.7842 242.718 74.1275 242.212 74.0318 241.501L73.8129 239.852C73.7239 239.134 74.2233 238.477 74.9416 238.381Z" fill="#8FBAB8"/>
<path d="M74.9416 238.381L79.5863 237.759C80.3046 237.663 80.9613 238.169 81.0571 238.881L81.276 240.529C81.3717 241.248 80.8655 241.904 80.1541 242L75.5025 242.622C74.7842 242.718 74.1275 242.212 74.0318 241.501L73.8129 239.852C73.7239 239.134 74.2233 238.477 74.9416 238.381Z" stroke="#02435F" stroke-width="0.351" stroke-miterlimit="10"/>
<path d="M61.3903 249.313L66.0761 249.313C66.8012 249.313 67.3895 249.901 67.3895 250.619L67.3895 252.281C67.3895 253.007 66.8012 253.588 66.0761 253.588L61.3903 253.588C60.6652 253.588 60.0838 253 60.0838 252.281L60.0838 250.619C60.0838 249.894 60.6652 249.313 61.3903 249.313Z" fill="#8FBAB8"/>
<path d="M61.3903 249.313L66.0761 249.313C66.8012 249.313 67.3895 249.901 67.3895 250.619L67.3895 252.281C67.3895 253.007 66.8012 253.588 66.0761 253.588L61.3903 253.588C60.6652 253.588 60.0838 253 60.0838 252.281L60.0838 250.619C60.0838 249.894 60.6652 249.313 61.3903 249.313Z" stroke="#02435F" stroke-width="0.351" stroke-miterlimit="10"/>
<path d="M75.3862 248.635L79.7915 250.236C80.4688 250.482 80.8245 251.235 80.5714 251.912L80.0036 253.472C79.7573 254.149 79.0049 254.505 78.3276 254.251L73.9223 252.651C73.2451 252.404 72.8894 251.652 73.1425 250.975L73.7102 249.415C73.9565 248.745 74.709 248.389 75.3862 248.635Z" fill="#8FBAB8"/>
<path d="M75.3862 248.635L79.7915 250.236C80.4688 250.482 80.8245 251.235 80.5714 251.912L80.0036 253.472C79.7573 254.149 79.0049 254.505 78.3276 254.251L73.9223 252.651C73.2451 252.404 72.8894 251.652 73.1425 250.975L73.7102 249.415C73.9565 248.745 74.709 248.389 75.3862 248.635Z" stroke="#02435F" stroke-width="0.351" stroke-miterlimit="10"/>
<path d="M51.5057 267.502L51.5057 262.809C51.5057 262.084 52.0939 261.503 52.8122 261.503L54.4745 261.503C55.1996 261.503 55.7811 262.091 55.7811 262.809L55.7811 267.502C55.7811 268.227 55.1928 268.808 54.4745 268.808L52.8122 268.808C52.0939 268.808 51.5057 268.22 51.5057 267.502Z" fill="#8FBAB8"/>
<path d="M51.5057 267.502L51.5057 262.809C51.5057 262.084 52.0939 261.503 52.8122 261.503L54.4745 261.503C55.1996 261.503 55.7811 262.091 55.7811 262.809L55.7811 267.502C55.7811 268.227 55.1928 268.808 54.4745 268.808L52.8122 268.808C52.0939 268.808 51.5057 268.22 51.5057 267.502Z" stroke="#02435F" stroke-width="0.351" stroke-miterlimit="10"/>
<path d="M65.1937 239.366L69.8795 239.366C70.6046 239.366 71.1929 239.955 71.1929 240.673L71.1929 242.335C71.1929 243.06 70.6046 243.642 69.8795 243.642L65.1937 243.642C64.4686 243.642 63.8872 243.053 63.8872 242.335L63.8872 240.673C63.8803 239.955 64.4686 239.366 65.1937 239.366Z" fill="#8FBAB8"/>
<path d="M65.1937 239.366L69.8795 239.366C70.6046 239.366 71.1929 239.955 71.1929 240.673L71.1929 242.335C71.1929 243.06 70.6046 243.642 69.8795 243.642L65.1937 243.642C64.4686 243.642 63.8872 243.053 63.8872 242.335L63.8872 240.673C63.8803 239.955 64.4686 239.366 65.1937 239.366Z" stroke="#02435F" stroke-width="0.351" stroke-miterlimit="10"/>
<path d="M63.4494 238.381L68.0941 237.759C68.8124 237.663 69.4691 238.169 69.5649 238.881L69.7838 240.529C69.8795 241.248 69.3733 241.904 68.6619 242L64.0103 242.622C63.292 242.718 62.6353 242.212 62.5396 241.501L62.3207 239.852C62.2317 239.134 62.7379 238.477 63.4494 238.381Z" fill="#8FBAB8"/>
<path d="M63.4494 238.381L68.0941 237.759C68.8124 237.663 69.4691 238.169 69.5649 238.881L69.7838 240.529C69.8795 241.248 69.3733 241.904 68.6619 242L64.0103 242.622C63.292 242.718 62.6353 242.212 62.5396 241.501L62.3207 239.852C62.2317 239.134 62.7379 238.477 63.4494 238.381Z" stroke="#02435F" stroke-width="0.351" stroke-miterlimit="10"/>
<path d="M52.3265 239.366L57.0123 239.366C57.7374 239.366 58.3257 239.955 58.3257 240.673L58.3257 242.335C58.3257 243.06 57.7374 243.642 57.0123 243.642L52.3265 243.642C51.6014 243.642 51.02 243.053 51.02 242.335L51.02 240.673C51.0131 239.955 51.6014 239.366 52.3265 239.366Z" fill="#8FBAB8"/>
<path d="M52.3265 239.366L57.0123 239.366C57.7374 239.366 58.3257 239.955 58.3257 240.673L58.3257 242.335C58.3257 243.06 57.7374 243.642 57.0123 243.642L52.3265 243.642C51.6014 243.642 51.02 243.053 51.02 242.335L51.02 240.673C51.0131 239.955 51.6014 239.366 52.3265 239.366Z" stroke="#02435F" stroke-width="0.351" stroke-miterlimit="10"/>
<path d="M50.589 238.381L55.2338 237.759C55.9521 237.663 56.6088 238.169 56.7045 238.881L56.9234 240.529C57.0192 241.248 56.513 241.904 55.8016 242L51.15 242.622C50.4317 242.718 49.775 242.212 49.6792 241.501L49.4603 239.852C49.3646 239.134 49.8708 238.477 50.589 238.381Z" fill="#8FBAB8"/>
<path d="M50.589 238.381L55.2338 237.759C55.9521 237.663 56.6088 238.169 56.7045 238.881L56.9234 240.529C57.0192 241.248 56.513 241.904 55.8016 242L51.15 242.622C50.4317 242.718 49.775 242.212 49.6792 241.501L49.4603 239.852C49.3646 239.134 49.8708 238.477 50.589 238.381Z" stroke="#02435F" stroke-width="0.351" stroke-miterlimit="10"/>
<path d="M103.392 83.9684L107.701 84.8235C108.365 84.9535 109.008 84.5225 109.145 83.859L109.446 82.3335C109.576 81.67 109.145 81.027 108.481 80.8902L104.171 80.0351C103.508 79.9051 102.865 80.3361 102.728 80.9996L102.427 82.5251C102.29 83.1886 102.728 83.8385 103.392 83.9684Z" fill="#8FBAB8"/>
<path d="M103.392 83.9684L107.701 84.8235C108.365 84.9535 109.008 84.5225 109.145 83.859L109.446 82.3335C109.576 81.67 109.145 81.027 108.481 80.8902L104.171 80.0351C103.508 79.9051 102.865 80.3361 102.728 80.9996L102.427 82.5251C102.29 83.1886 102.728 83.8385 103.392 83.9684Z" stroke="#02435F" stroke-width="0.351" stroke-miterlimit="10"/>
<path d="M94.9366 83.9684L99.2462 84.8235C99.9097 84.9535 100.553 84.5225 100.69 83.859L100.991 82.3335C101.121 81.67 100.69 81.027 100.026 80.8902L95.7164 80.0351C95.0529 79.9051 94.4099 80.3361 94.2731 80.9996L93.9721 82.5251C93.8421 83.1886 94.2731 83.8385 94.9366 83.9684Z" fill="#8FBAB8"/>
<path d="M94.9366 83.9684L99.2462 84.8235C99.9097 84.9535 100.553 84.5225 100.69 83.859L100.991 82.3335C101.121 81.67 100.69 81.027 100.026 80.8902L95.7164 80.0351C95.0529 79.9051 94.4099 80.3361 94.2731 80.9996L93.9721 82.5251C93.8421 83.1886 94.2731 83.8385 94.9366 83.9684Z" stroke="#02435F" stroke-width="0.351" stroke-miterlimit="10"/>
<path d="M82.0011 83.9684L77.6915 84.8235C77.0279 84.9535 76.3849 84.5225 76.2481 83.859L75.9471 82.3335C75.8171 81.67 76.2481 81.027 76.9116 80.8902L81.2212 80.0351C81.8848 79.9051 82.5278 80.3361 82.6646 80.9996L82.9656 82.5251C83.0956 83.1886 82.6646 83.8385 82.0011 83.9684Z" fill="#8FBAB8"/>
<path d="M82.0011 83.9684L77.6915 84.8235C77.0279 84.9535 76.3849 84.5225 76.2481 83.859L75.9471 82.3335C75.8171 81.67 76.2481 81.027 76.9116 80.8902L81.2212 80.0351C81.8848 79.9051 82.5278 80.3361 82.6646 80.9996L82.9656 82.5251C83.0956 83.1886 82.6646 83.8385 82.0011 83.9684Z" stroke="#02435F" stroke-width="0.351" stroke-miterlimit="10"/>
<path d="M90.3329 83.9684L86.0233 84.8235C85.3598 84.9535 84.7168 84.5225 84.58 83.859L84.279 82.3335C84.149 81.67 84.58 81.027 85.2435 80.8902L89.5531 80.0351C90.2166 79.9051 90.8596 80.3361 90.9964 80.9996L91.2974 82.5251C91.4274 83.1886 90.9964 83.8385 90.3329 83.9684Z" fill="#8FBAB8"/>
<path d="M90.3329 83.9684L86.0233 84.8235C85.3598 84.9535 84.7168 84.5225 84.58 83.859L84.279 82.3335C84.149 81.67 84.58 81.027 85.2435 80.8902L89.5531 80.0351C90.2166 79.9051 90.8596 80.3361 90.9964 80.9996L91.2974 82.5251C91.4274 83.1886 90.9964 83.8385 90.3329 83.9684Z" stroke="#02435F" stroke-width="0.351" stroke-miterlimit="10"/>
<path d="M117.456 531.939L122.142 531.939C122.867 531.939 123.455 532.527 123.455 533.245L123.455 534.908C123.455 535.633 122.867 536.214 122.142 536.214L117.456 536.214C116.731 536.214 116.149 535.626 116.149 534.908L116.149 533.245C116.149 532.52 116.738 531.939 117.456 531.939Z" fill="#8FBAB8"/>
<path d="M117.456 531.939L122.142 531.939C122.867 531.939 123.455 532.527 123.455 533.245L123.455 534.908C123.455 535.633 122.867 536.214 122.142 536.214L117.456 536.214C116.731 536.214 116.149 535.626 116.149 534.908L116.149 533.245C116.149 532.52 116.738 531.939 117.456 531.939Z" stroke="#02435F" stroke-width="0.351" stroke-miterlimit="10"/>
<path d="M115.718 530.947L120.363 530.325C121.081 530.229 121.738 530.735 121.834 531.446L122.053 533.095C122.149 533.813 121.642 534.47 120.931 534.566L116.279 535.188C115.561 535.284 114.904 534.778 114.809 534.066L114.59 532.418C114.501 531.706 115 531.043 115.718 530.947Z" fill="#8FBAB8"/>
<path d="M115.718 530.947L120.363 530.325C121.081 530.229 121.738 530.735 121.834 531.446L122.053 533.095C122.149 533.813 121.642 534.47 120.931 534.566L116.279 535.188C115.561 535.284 114.904 534.778 114.809 534.066L114.59 532.418C114.501 531.706 115 531.043 115.718 530.947Z" stroke="#02435F" stroke-width="0.351" stroke-miterlimit="10"/>
<path d="M135.597 526.665L140.283 526.665C141.008 526.665 141.596 527.253 141.596 527.971L141.596 529.634C141.596 530.359 141.008 530.94 140.283 530.94L135.597 530.94C134.872 530.94 134.291 530.352 134.291 529.634L134.291 527.971C134.291 527.253 134.872 526.665 135.597 526.665Z" fill="#8FBAB8"/>
<path d="M135.597 526.665L140.283 526.665C141.008 526.665 141.596 527.253 141.596 527.971L141.596 529.634C141.596 530.359 141.008 530.94 140.283 530.94L135.597 530.94C134.872 530.94 134.291 530.352 134.291 529.634L134.291 527.971C134.291 527.253 134.872 526.665 135.597 526.665Z" stroke="#02435F" stroke-width="0.351" stroke-miterlimit="10"/>
<path d="M133.86 525.68L138.504 525.057C139.223 524.961 139.879 525.468 139.975 526.179L140.194 527.828C140.29 528.546 139.784 529.203 139.072 529.298L134.421 529.921C133.702 530.017 133.046 529.51 132.95 528.799L132.731 527.15C132.635 526.432 133.141 525.775 133.86 525.68Z" fill="#8FBAB8"/>
<path d="M133.86 525.68L138.504 525.057C139.223 524.961 139.879 525.468 139.975 526.179L140.194 527.828C140.29 528.546 139.784 529.203 139.072 529.298L134.421 529.921C133.702 530.017 133.046 529.51 132.95 528.799L132.731 527.15C132.635 526.432 133.141 525.775 133.86 525.68Z" stroke="#02435F" stroke-width="0.351" stroke-miterlimit="10"/>
<path d="M46.1084 526.665L50.7942 526.665C51.5193 526.665 52.1076 527.253 52.1076 527.971L52.1076 529.634C52.1076 530.359 51.5193 530.94 50.7942 530.94L46.1084 530.94C45.3833 530.94 44.8018 530.352 44.8018 529.634L44.8018 527.971C44.8018 527.253 45.3901 526.665 46.1084 526.665Z" fill="#8FBAB8"/>
<path d="M46.1084 526.665L50.7942 526.665C51.5193 526.665 52.1076 527.253 52.1076 527.971L52.1076 529.634C52.1076 530.359 51.5193 530.94 50.7942 530.94L46.1084 530.94C45.3833 530.94 44.8018 530.352 44.8018 529.634L44.8018 527.971C44.8018 527.253 45.3901 526.665 46.1084 526.665Z" stroke="#02435F" stroke-width="0.351" stroke-miterlimit="10"/>
<path d="M44.3709 525.68L49.0157 525.057C49.7339 524.961 50.3906 525.468 50.4864 526.179L50.7053 527.828C50.8011 528.546 50.2948 529.203 49.5834 529.298L44.9318 529.921C44.2136 530.017 43.5569 529.51 43.4611 528.799L43.2422 527.15C43.1533 526.432 43.6526 525.775 44.3709 525.68Z" fill="#8FBAB8"/>
<path d="M44.3709 525.68L49.0157 525.057C49.7339 524.961 50.3906 525.468 50.4864 526.179L50.7053 527.828C50.8011 528.546 50.2948 529.203 49.5834 529.298L44.9318 529.921C44.2136 530.017 43.5569 529.51 43.4611 528.799L43.2422 527.15C43.1533 526.432 43.6526 525.775 44.3709 525.68Z" stroke="#02435F" stroke-width="0.351" stroke-miterlimit="10"/>
<path d="M67.4032 531.939L72.089 531.939C72.8141 531.939 73.3956 532.527 73.3956 533.245L73.3956 534.908C73.3956 535.633 72.8073 536.214 72.089 536.214L67.4032 536.214C66.6781 536.214 66.0966 535.626 66.0966 534.908L66.0966 533.245C66.0966 532.52 66.6849 531.939 67.4032 531.939Z" fill="#8FBAB8"/>
<path d="M67.4032 531.939L72.089 531.939C72.8141 531.939 73.3956 532.527 73.3956 533.245L73.3956 534.908C73.3956 535.633 72.8073 536.214 72.089 536.214L67.4032 536.214C66.6781 536.214 66.0966 535.626 66.0966 534.908L66.0966 533.245C66.0966 532.52 66.6849 531.939 67.4032 531.939Z" stroke="#02435F" stroke-width="0.351" stroke-miterlimit="10"/>
<path d="M65.6657 530.947L70.3104 530.325C71.0287 530.229 71.6854 530.735 71.7812 531.446L72.0001 533.095C72.0959 533.813 71.5896 534.47 70.8782 534.566L66.2266 535.188C65.5083 535.284 64.8516 534.778 64.7559 534.066L64.537 532.418C64.448 531.706 64.9474 531.043 65.6657 530.947Z" fill="#8FBAB8"/>
<path d="M65.6657 530.947L70.3104 530.325C71.0287 530.229 71.6854 530.735 71.7812 531.446L72.0001 533.095C72.0959 533.813 71.5896 534.47 70.8782 534.566L66.2266 535.188C65.5083 535.284 64.8516 534.778 64.7559 534.066L64.537 532.418C64.448 531.706 64.9474 531.043 65.6657 530.947Z" stroke="#02435F" stroke-width="0.351" stroke-miterlimit="10"/>
<path d="M106.62 136.101L106.62 114.053L78.4577 114.053L78.4577 136.101L106.62 136.101Z" stroke="#02435F" stroke-width="0.75" stroke-miterlimit="10"/>
<path d="M106.62 149.624L106.62 136.107L78.4577 136.107L78.4577 149.624L106.62 149.624Z" stroke="#02435F" stroke-width="0.587" stroke-miterlimit="10"/>
<path d="M106.408 148.332L78.2456 148.332" stroke="#02435F" stroke-width="0.587" stroke-miterlimit="10"/>
<path d="M106.408 146.964L78.2456 146.963" stroke="#02435F" stroke-width="0.587" stroke-miterlimit="10"/>
<path d="M106.408 145.595L78.2456 145.595" stroke="#02435F" stroke-width="0.587" stroke-miterlimit="10"/>
<path d="M106.408 144.227L78.2456 144.227" stroke="#02435F" stroke-width="0.587" stroke-miterlimit="10"/>
<path d="M106.408 142.859L78.2456 142.859" stroke="#02435F" stroke-width="0.587" stroke-miterlimit="10"/>
<path d="M106.408 141.491L78.2456 141.491" stroke="#02435F" stroke-width="0.587" stroke-miterlimit="10"/>
<path d="M106.408 140.123L78.2456 140.123" stroke="#02435F" stroke-width="0.587" stroke-miterlimit="10"/>
<path d="M106.408 138.755L78.2456 138.755" stroke="#02435F" stroke-width="0.587" stroke-miterlimit="10"/>
<path d="M106.408 137.387L78.2456 137.387" stroke="#02435F" stroke-width="0.587" stroke-miterlimit="10"/>
<path d="M105.498 149.624L105.498 136.107L104.404 136.107L104.404 149.624L105.498 149.624Z" fill="white"/>
<path d="M105.498 149.624L105.498 136.107L104.404 136.107L104.404 149.624L105.498 149.624Z" stroke="#02435F" stroke-width="0.587" stroke-miterlimit="10"/>
<path d="M80.886 149.624L80.886 136.107L79.7915 136.107L79.7915 149.624L80.886 149.624Z" fill="white"/>
<path d="M80.886 149.624L80.886 136.107L79.7915 136.107L79.7915 149.624L80.886 149.624Z" stroke="#02435F" stroke-width="0.587" stroke-miterlimit="10"/>
<path d="M99.1025 193.514L99.1025 171.638L85.7634 171.638L85.7634 193.514L99.1025 193.514Z" stroke="#02435F" stroke-width="0.281" stroke-miterlimit="10" stroke-dasharray="1.4 1.4"/>
<path d="M92.433 193.514L92.433 171.638" stroke="#02435F" stroke-width="0.281" stroke-miterlimit="10" stroke-dasharray="1.4 1.4"/>
<path d="M95.436 92.1908C94.8887 92.1908 94.4509 91.7462 94.4509 91.2057C94.4509 90.6653 94.8887 90.2207 95.436 90.2207C95.9764 90.2207 96.421 90.6585 96.421 91.2057C96.421 91.753 95.9832 92.1908 95.436 92.1908Z" stroke="#02435F" stroke-miterlimit="10"/>
<path d="M88.8622 92.1908C88.315 92.1908 87.8772 91.7462 87.8772 91.2057C87.8772 90.6653 88.315 90.2207 88.8622 90.2207C89.4026 90.2207 89.8472 90.6585 89.8472 91.2057C89.8472 91.753 89.4026 92.1908 88.8622 92.1908Z" stroke="#02435F" stroke-miterlimit="10"/>
<path d="M95.8875 98.8672L95.8875 91.623C95.8875 91.3972 96.0722 91.2125 96.298 91.2125L96.4553 91.2125C96.681 91.2125 96.8657 91.3972 96.8657 91.623L96.8657 98.8672C96.8657 99.0929 96.681 99.2776 96.4553 99.2776L96.298 99.2776C96.0722 99.2776 95.8875 99.0929 95.8875 98.8672Z" fill="#02435F"/>
<path d="M87.3846 98.8672L87.3846 91.623C87.3846 91.3972 87.5693 91.2125 87.795 91.2125L87.9524 91.2125C88.1781 91.2125 88.3628 91.3972 88.3628 91.623L88.3628 98.8672C88.3628 99.0929 88.1781 99.2776 87.9524 99.2776L87.795 99.2776C87.5693 99.2776 87.3846 99.0929 87.3846 98.8672Z" fill="#02435F"/>
<path d="M97.7413 105.208L97.7413 88.9005L86.6869 88.9005L86.6869 105.208L97.7413 105.208Z" stroke="#02435F" stroke-width="0.765" stroke-miterlimit="10"/>
<path d="M94.451 104.271L94.451 97.7385L90.0662 97.7385L90.0662 104.271L94.451 104.271Z" fill="white"/>
<path d="M94.451 104.271L94.451 97.7385L90.0662 97.7385L90.0662 104.271L94.451 104.271Z" stroke="#02435F" stroke-miterlimit="10"/>
<path d="M95.8875 105.208L95.8875 96.5756L94.4578 96.5756L94.4578 105.208L95.8875 105.208Z" fill="white"/>
<path d="M95.8875 105.208L95.8875 96.5756L94.4578 96.5756L94.4578 105.208L95.8875 105.208Z" stroke="#02435F" stroke-miterlimit="10"/>
<path d="M90.0661 105.208L90.0661 96.5756L88.6364 96.5756L88.6364 105.208L90.0661 105.208Z" fill="white"/>
<path d="M90.0661 105.208L90.0661 96.5756L88.6364 96.5756L88.6364 105.208L90.0661 105.208Z" stroke="#02435F" stroke-miterlimit="10"/>
<path d="M95.8875 103.047L95.8875 98.2857C95.8875 97.6085 96.4347 97.0544 97.1188 97.0544L97.3103 97.0544C97.9875 97.0544 98.5416 97.6017 98.5416 98.2857L98.5416 103.047C98.5416 103.724 97.9944 104.271 97.3103 104.271L97.1188 104.271C96.4347 104.271 95.8875 103.724 95.8875 103.047Z" fill="#02435F"/>
<path d="M86.0644 103.047L86.0644 98.2857C86.0644 97.6085 86.6116 97.0544 87.2888 97.0544L87.4804 97.0544C88.1576 97.0544 88.7048 97.6017 88.7048 98.2857L88.7048 103.047C88.7048 103.724 88.1576 104.271 87.4804 104.271L87.2888 104.271C86.6116 104.271 86.0644 103.724 86.0644 103.047Z" fill="#02435F"/>
<path d="M71.2066 88.9005L113.659 88.9005" stroke="#02435F" stroke-width="0.475" stroke-miterlimit="10"/>
<path d="M113.659 88.9005L104.103 88.9005L116.177 112.952C116.71 114.019 118.051 114.382 119.057 113.739L123.961 110.572L113.659 88.9005Z" fill="#02435F"/>
<path d="M114.015 89.4614L104.965 89.4614L116.58 112.596C116.984 113.404 118.003 113.684 118.769 113.191L123.763 109.97L114.015 89.4614Z" fill="white"/>
<path d="M121.56 105.339L114.316 108.964" stroke="#02435F" stroke-width="0.475" stroke-miterlimit="10"/>
<path d="M118.126 97.6085L110.602 100.947" stroke="#02435F" stroke-width="0.475" stroke-miterlimit="10"/>
<path d="M71.576 88.9005L81.1323 88.9005L69.0587 112.952C68.5251 114.019 67.1843 114.382 66.1788 113.739L61.2741 110.572L71.576 88.9005Z" fill="#02435F"/>
<path d="M71.2203 89.4614L80.2704 89.4614L68.655 112.596C68.2446 113.404 67.2322 113.684 66.4661 113.191L61.4724 109.97L71.2203 89.4614Z" fill="white"/>
<path d="M63.6751 105.339L70.9193 108.964" stroke="#02435F" stroke-width="0.475" stroke-miterlimit="10"/>
<path d="M67.109 97.6085L74.6337 100.947" stroke="#02435F" stroke-width="0.475" stroke-miterlimit="10"/>
<path d="M98.6579 342.181L98.6579 330.976L90.7502 330.976L90.7502 342.181L98.6579 342.181Z" fill="#8FBAB8"/>
<path d="M98.6579 342.181L98.6579 330.976L90.7502 330.976L90.7502 342.181L98.6579 342.181Z" stroke="#02435F" stroke-width="0.347" stroke-miterlimit="10"/>
<path d="M98.6579 332.221L98.6579 330.976L90.7502 330.976L90.7502 332.221L98.6579 332.221Z" fill="#8FBAB8"/>
<path d="M98.6579 332.221L98.6579 330.976L90.7502 330.976L90.7502 332.221L98.6579 332.221Z" stroke="#02435F" stroke-width="0.347" stroke-miterlimit="10"/>
<path d="M120.5 369.399L120.5 367.976L114.118 367.976L114.118 369.399L120.5 369.399Z" stroke="#0D3F57" stroke-width="0.702" stroke-miterlimit="10"/>
<path d="M118.715 365.487L118.017 365.487L118.017 363.523L118.715 362.525L118.715 361.02C118.715 360.247 118.085 359.617 117.312 359.617C116.539 359.617 115.91 360.247 115.91 361.02L115.91 362.525L116.437 363.523L116.437 365.487L115.91 365.487L115.91 367.983C115.91 368.756 116.539 369.386 117.312 369.386C118.085 369.386 118.715 368.756 118.715 367.983L118.715 365.487Z" fill="white"/>
<path d="M118.715 365.487L118.017 365.487L118.017 363.523L118.715 362.525L118.715 361.02C118.715 360.247 118.085 359.617 117.312 359.617C116.539 359.617 115.91 360.247 115.91 361.02L115.91 362.525L116.437 363.523L116.437 365.487L115.91 365.487L115.91 367.983C115.91 368.756 116.539 369.386 117.312 369.386C118.085 369.386 118.715 368.756 118.715 367.983L118.715 365.487Z" stroke="#0D3F57" stroke-width="0.702" stroke-miterlimit="10"/>
<path d="M117.305 367.443C116.84 367.443 116.457 366.704 116.457 365.794C116.457 364.885 116.833 364.146 117.305 364.146C117.771 364.146 118.154 364.885 118.154 365.794C118.154 366.704 117.777 367.443 117.305 367.443Z" fill="#8FBAB8"/>
<path d="M117.305 367.443C116.84 367.443 116.457 366.704 116.457 365.794C116.457 364.885 116.833 364.146 117.305 364.146C117.771 364.146 118.154 364.885 118.154 365.794C118.154 366.704 117.777 367.443 117.305 367.443Z" stroke="#0B3F57" stroke-width="0.347" stroke-miterlimit="10"/>
<path d="M119.296 364.666L119.296 363.434L118.605 363.434L118.605 364.666L119.296 364.666Z" fill="#8FBAB8"/>
<path d="M119.296 364.666L119.296 363.434L118.605 363.434L118.605 364.666L119.296 364.666Z" stroke="#0B3F57" stroke-width="0.256" stroke-miterlimit="10"/>
<path d="M115.903 364.666L115.903 363.434L115.212 363.434L115.212 364.666L115.903 364.666Z" fill="#8FBAB8"/>
<path d="M115.903 364.666L115.903 363.434L115.212 363.434L115.212 364.666L115.903 364.666Z" stroke="#0B3F57" stroke-width="0.256" stroke-miterlimit="10"/>
<path d="M120.336 358.926L119.645 358.926L119.645 359.378C119.645 360.055 119.091 360.609 118.414 360.609L116.197 360.609C115.52 360.609 114.966 360.055 114.966 359.378L114.966 358.926L114.275 358.926L114.275 359.337C114.275 360.356 115.103 361.184 116.122 361.184L118.489 361.184C119.508 361.184 120.336 360.356 120.336 359.337L120.336 358.926Z" fill="#02435F"/>
<path d="M118.605 364.214L118.605 363.995L118.017 363.995L118.017 364.214L118.605 364.214Z" fill="#0D3F57"/>
<path d="M116.402 364.214L116.402 363.995L115.814 363.995L115.814 364.214L116.402 364.214Z" fill="#0D3F57"/>
<path d="M100.902 504.187L100.902 485.307L86.2559 485.307L86.2559 504.187L100.902 504.187Z" fill="white"/>
<path d="M100.902 504.187L100.902 485.307L86.2559 485.307L86.2559 504.187L100.902 504.187Z" stroke="#02435F" stroke-width="0.325" stroke-miterlimit="10"/>
<path d="M86.2559 504.187L93.6848 485.546L100.902 504.187" stroke="#02435F" stroke-width="0.26" stroke-miterlimit="10" stroke-dasharray="1.3 1.3"/>
</g>
<defs>
<clipPath id="clip0">
<rect width="570" height="184.443" fill="white" transform="translate(185) rotate(90)"/>
</clipPath>
</defs>
</svg>
