<svg width="186" height="570" viewBox="0 0 186 570" fill="none" xmlns="http://www.w3.org/2000/svg">
<g clip-path="url(#clip0)">
<path d="M58.2945 500.79C45.3492 500.79 34.6937 490.613 34.0991 477.688L29.2053 371.912L29.6017 245.563C29.6496 236.623 39.4576 233.438 45.6705 233.438L142.028 233.745C148.234 233.745 155.534 236.623 156.006 247.723L156.006 374.564L152.212 477.47C151.734 490.49 141.037 500.797 128.003 500.797L58.2945 500.797L58.2945 500.79Z" fill="white"/>
<path d="M28.9593 247.716C28.9593 239.876 35.3362 233.499 43.1758 233.499L142.028 233.499C149.868 233.499 156.245 239.876 156.245 247.716L156.245 367.264L152.048 478.42C151.57 491.098 141.256 501.029 128.571 501.029L57.3718 501.029C44.7683 501.029 34.4545 491.167 33.9009 478.577L28.9593 367.34L28.9593 247.716ZM155.766 367.258L155.766 247.716C155.766 240.143 149.601 233.978 142.028 233.978L43.1758 233.978C35.6028 233.978 29.4377 240.143 29.4377 247.716L29.4377 367.326L34.3793 478.55C34.9261 490.88 45.028 500.544 57.3718 500.544L128.571 500.544C140.996 500.544 151.105 490.818 151.57 478.399L155.766 367.258ZM31.8368 247.716C31.8368 241.462 36.9219 236.377 43.1758 236.377L142.028 236.377C148.282 236.377 153.367 241.462 153.367 247.716L153.367 367.21L149.171 478.31C148.754 489.438 139.705 498.152 128.571 498.152L57.3718 498.152C46.313 498.152 37.2636 489.499 36.7715 478.447L31.8367 367.271L31.8368 247.716ZM152.889 367.203L152.889 247.716C152.889 241.729 148.016 236.855 142.028 236.855L43.1758 236.855C37.1884 236.855 32.3152 241.729 32.3152 247.716L32.3152 367.264L37.25 478.427C37.7284 489.219 46.5659 497.674 57.3718 497.674L128.571 497.674C139.445 497.674 148.282 489.164 148.692 478.297L152.889 367.203Z" fill="#8FBAB8"/>
<path d="M29.178 428.423C29.178 427.521 29.1849 426.618 29.1985 425.716L29.718 278.206C29.7317 274.098 29.9299 269.936 30.3058 265.828L37.1885 190.658C39.0339 163.463 45.7526 137.094 57.1463 112.297L72.7093 78.4369L88.6482 42.5402L88.6482 28.9593L96.6996 28.9593L96.6996 42.5539L112.317 78.6283L127.969 112.399C139.431 137.128 146.232 163.442 148.18 190.631L154.734 268.692C154.892 270.9 154.987 273.128 155.015 275.322L156.006 426.666C156.067 431.389 155.931 436.18 155.596 440.903L150.818 522.204C150.073 532.771 141.201 541.041 130.621 541.041L55.2325 541.041C44.7342 541.041 35.8694 532.846 35.0492 522.382L29.6838 441.826C29.3557 437.39 29.178 432.893 29.178 428.423ZM89.1266 29.4378L89.1061 42.6906L73.1467 78.6351L57.5837 112.495C46.2105 137.237 39.5124 163.551 37.6669 190.699L30.7842 265.869C30.4083 269.963 30.2169 274.112 30.1964 278.206L29.677 425.716C29.595 431.068 29.759 436.467 30.1759 441.785L35.5413 522.341C36.341 532.552 44.9939 540.556 55.2462 540.556L130.635 540.556C140.962 540.556 149.622 532.477 150.353 522.163L155.131 440.862C155.466 436.153 155.602 431.375 155.541 426.659L154.55 275.315C154.523 273.128 154.427 270.907 154.27 268.713L147.715 190.652C145.767 163.517 138.987 137.258 127.545 112.584L111.887 78.806L96.228 42.6359L96.228 29.4378L89.1266 29.4378ZM32.0555 428.409C32.0555 427.521 32.0624 426.632 32.076 425.744L32.5955 278.22C32.6091 274.18 32.8073 270.1 33.1696 266.095L40.0523 190.891C41.8772 164.023 48.507 137.982 59.7572 113.5L75.327 79.6262L91.5188 43.1554L91.5188 31.8368L93.8153 31.8368L93.8153 43.1485L109.686 79.797L125.358 113.602C136.677 138.01 143.389 164.003 145.316 190.85L151.871 268.911C152.021 271.057 152.117 273.217 152.144 275.349L153.135 426.694C153.197 431.341 153.06 436.064 152.732 440.712L147.961 522.013C147.325 531.069 139.711 538.156 130.635 538.156L55.2462 538.156C46.2447 538.156 38.6375 531.13 37.9335 522.163L32.5681 441.607C32.2264 437.247 32.0555 432.818 32.0555 428.409ZM92.0041 32.3153L91.9836 43.2989L75.7713 79.8175L60.2015 113.698C48.9786 138.126 42.3625 164.112 40.5376 190.932L33.6549 266.136C33.2858 270.134 33.0944 274.194 33.0807 278.22L32.5545 425.75C32.4724 431.02 32.6365 436.344 33.0466 441.58L38.4119 522.136C39.0954 530.85 46.4907 537.685 55.2462 537.685L130.635 537.685C139.458 537.685 146.861 530.788 147.483 521.985L152.253 440.685C152.581 436.044 152.718 431.341 152.657 426.7L151.666 275.356C151.638 273.244 151.549 271.084 151.399 268.952L144.844 190.891C142.924 164.098 136.226 138.167 124.934 113.807L109.262 80.0021L93.3437 43.251L93.3437 32.3153L92.0041 32.3153Z" fill="#8FBAB8"/>
<path d="M75.778 79.9133L73.044 85.8596L112.235 85.8596L109.699 79.9133L93.3572 79.9133L93.3572 53.7494L98.7773 54.6721L95.5649 46.6138L94.2663 41.7406L94.2663 29.1986L91.1632 29.1986L91.1632 41.7406L89.9466 46.9487L87.0145 54.4192L92.3183 53.7494L92.3183 79.9133L75.778 79.9133Z" fill="#8FBAB8"/>
<path d="M80.1046 445.756L135.207 445.667L139.609 407.406L139.616 277.694L46.3199 277.694L45.7047 311.847L45.5886 311.383L45.5885 407.296L50.619 445.804L80.1114 445.804L80.1046 445.756Z" fill="white"/>
<path d="M80.1046 445.756L135.207 445.667L139.609 407.406L139.616 277.694L46.3199 277.694L45.7047 311.847L45.5885 311.383L45.5885 407.296L50.619 445.804L80.1114 445.804L80.1046 445.756Z" stroke="#0D3F57" stroke-width="0.702" stroke-miterlimit="10"/>
<path d="M81.0068 442.967L132.131 442.878L136.212 405.813L136.219 280.127L49.6621 280.127L49.0948 313.214L48.9854 312.77L48.9854 405.704L53.6536 443.015L81.0204 443.015L81.0068 442.967Z" fill="white"/>
<path d="M81.0068 442.967L132.131 442.878L136.212 405.813L136.219 280.127L49.6621 280.127L49.0948 313.214L48.9854 312.77L48.9854 405.704L53.6536 443.015L81.0204 443.015L81.0068 442.967Z" stroke="#0D3F57" stroke-width="0.665" stroke-miterlimit="10"/>
<path d="M115.161 313.084L131.94 313.084L131.94 322.537L115.284 322.537C114.737 322.537 114.286 322.093 114.286 321.539L114.286 313.952C114.293 313.474 114.682 313.084 115.161 313.084Z" fill="white"/>
<path d="M115.161 313.084L131.94 313.084L131.94 322.537L115.284 322.537C114.737 322.537 114.286 322.093 114.286 321.539L114.286 313.952C114.293 313.474 114.682 313.084 115.161 313.084Z" stroke="#02435F" stroke-width="0.282" stroke-miterlimit="10"/>
<path d="M126.616 318.846L126.616 315.183C126.616 314.609 127.081 314.144 127.655 314.144L129.015 314.144C129.589 314.144 130.054 314.609 130.054 315.183L130.054 318.846C130.054 319.42 129.589 319.885 129.015 319.885L127.655 319.885C127.081 319.885 126.616 319.42 126.616 318.846Z" fill="#8FBAB8"/>
<path d="M126.616 318.846L126.616 315.183C126.616 314.609 127.081 314.144 127.655 314.144L129.015 314.144C129.589 314.144 130.054 314.609 130.054 315.183L130.054 318.846C130.054 319.42 129.589 319.885 129.015 319.885L127.655 319.885C127.081 319.885 126.616 319.42 126.616 318.846Z" stroke="#02435F" stroke-width="0.279" stroke-miterlimit="10"/>
<path d="M125.823 320.22L125.324 316.563C125.249 316.003 125.652 315.483 126.226 315.408L127.552 315.237C128.126 315.162 128.659 315.559 128.734 316.119L129.233 319.769C129.309 320.329 128.905 320.849 128.331 320.924L127.005 321.095C126.431 321.184 125.898 320.787 125.823 320.22Z" fill="#8FBAB8"/>
<path d="M125.823 320.22L125.324 316.563C125.249 316.003 125.652 315.483 126.226 315.408L127.552 315.237C128.126 315.162 128.659 315.559 128.734 316.119L129.233 319.769C129.309 320.329 128.905 320.849 128.331 320.924L127.005 321.095C126.431 321.184 125.898 320.787 125.823 320.22Z" stroke="#02435F" stroke-width="0.279" stroke-miterlimit="10"/>
<path d="M115.161 324.622L131.94 324.622L131.94 334.074L115.284 334.074C114.737 334.074 114.286 333.63 114.286 333.076L114.286 325.49C114.293 325.011 114.682 324.622 115.161 324.622Z" fill="white"/>
<path d="M115.161 324.622L131.94 324.622L131.94 334.074L115.284 334.074C114.737 334.074 114.286 333.63 114.286 333.076L114.286 325.49C114.293 325.011 114.682 324.622 115.161 324.622Z" stroke="#02435F" stroke-width="0.282" stroke-miterlimit="10"/>
<path d="M126.616 330.377L126.616 326.713C126.616 326.139 127.081 325.674 127.655 325.674L129.015 325.674C129.589 325.674 130.054 326.139 130.054 326.713L130.054 330.377C130.054 330.951 129.589 331.415 129.015 331.415L127.655 331.415C127.081 331.422 126.616 330.951 126.616 330.377Z" fill="#8FBAB8"/>
<path d="M126.616 330.377L126.616 326.713C126.616 326.139 127.081 325.674 127.655 325.674L129.015 325.674C129.589 325.674 130.054 326.139 130.054 326.713L130.054 330.377C130.054 330.951 129.589 331.415 129.015 331.415L127.655 331.415C127.081 331.422 126.616 330.951 126.616 330.377Z" stroke="#02435F" stroke-width="0.279" stroke-miterlimit="10"/>
<path d="M125.823 331.757L125.324 328.101C125.249 327.54 125.652 327.021 126.226 326.946L127.552 326.775C128.126 326.699 128.659 327.096 128.734 327.656L129.233 331.306C129.309 331.867 128.905 332.386 128.331 332.461L127.005 332.632C126.431 332.714 125.898 332.325 125.823 331.757Z" fill="#8FBAB8"/>
<path d="M125.823 331.757L125.324 328.101C125.249 327.54 125.652 327.021 126.226 326.946L127.552 326.775C128.126 326.699 128.659 327.096 128.734 327.656L129.233 331.306C129.309 331.867 128.905 332.386 128.331 332.461L127.005 332.632C126.431 332.714 125.898 332.325 125.823 331.757Z" stroke="#02435F" stroke-width="0.279" stroke-miterlimit="10"/>
<path d="M115.161 337.335L131.94 337.335L131.94 346.787L115.284 346.787C114.737 346.787 114.286 346.343 114.286 345.789L114.286 338.203C114.293 337.724 114.682 337.335 115.161 337.335Z" fill="white"/>
<path d="M115.161 337.335L131.94 337.335L131.94 346.787L115.284 346.787C114.737 346.787 114.286 346.343 114.286 345.789L114.286 338.203C114.293 337.724 114.682 337.335 115.161 337.335Z" stroke="#02435F" stroke-width="0.282" stroke-miterlimit="10"/>
<path d="M126.616 343.096L126.616 339.433C126.616 338.859 127.081 338.394 127.655 338.394L129.015 338.394C129.589 338.394 130.054 338.859 130.054 339.433L130.054 343.096C130.054 343.671 129.589 344.135 129.015 344.135L127.655 344.135C127.081 344.135 126.616 343.671 126.616 343.096Z" fill="#8FBAB8"/>
<path d="M126.616 343.096L126.616 339.433C126.616 338.859 127.081 338.394 127.655 338.394L129.015 338.394C129.589 338.394 130.054 338.859 130.054 339.433L130.054 343.096C130.054 343.671 129.589 344.135 129.015 344.135L127.655 344.135C127.081 344.135 126.616 343.671 126.616 343.096Z" stroke="#02435F" stroke-width="0.279" stroke-miterlimit="10"/>
<path d="M125.823 344.477L125.324 340.82C125.249 340.26 125.652 339.74 126.226 339.665L127.552 339.494C128.126 339.419 128.659 339.816 128.734 340.376L129.233 344.026C129.309 344.586 128.905 345.106 128.331 345.181L127.005 345.352C126.431 345.434 125.898 345.037 125.823 344.477Z" fill="#8FBAB8"/>
<path d="M125.823 344.477L125.324 340.82C125.249 340.26 125.652 339.74 126.226 339.665L127.552 339.494C128.126 339.419 128.659 339.816 128.734 340.376L129.233 344.026C129.309 344.586 128.905 345.106 128.331 345.181L127.005 345.352C126.431 345.434 125.898 345.037 125.823 344.477Z" stroke="#02435F" stroke-width="0.279" stroke-miterlimit="10"/>
<path d="M115.161 349.405L131.94 349.405L131.94 358.858L115.284 358.858C114.737 358.858 114.286 358.413 114.286 357.86L114.286 350.273C114.293 349.794 114.682 349.405 115.161 349.405Z" fill="white"/>
<path d="M115.161 349.405L131.94 349.405L131.94 358.858L115.284 358.858C114.737 358.858 114.286 358.413 114.286 357.86L114.286 350.273C114.293 349.794 114.682 349.405 115.161 349.405Z" stroke="#02435F" stroke-width="0.282" stroke-miterlimit="10"/>
<path d="M126.616 355.16L126.616 351.496C126.616 350.922 127.081 350.457 127.655 350.457L129.015 350.457C129.589 350.457 130.054 350.922 130.054 351.496L130.054 355.16C130.054 355.734 129.589 356.199 129.015 356.199L127.655 356.199C127.081 356.206 126.616 355.734 126.616 355.16Z" fill="#8FBAB8"/>
<path d="M126.616 355.16L126.616 351.496C126.616 350.922 127.081 350.457 127.655 350.457L129.015 350.457C129.589 350.457 130.054 350.922 130.054 351.496L130.054 355.16C130.054 355.734 129.589 356.199 129.015 356.199L127.655 356.199C127.081 356.206 126.616 355.734 126.616 355.16Z" stroke="#02435F" stroke-width="0.279" stroke-miterlimit="10"/>
<path d="M125.823 356.541L125.324 352.884C125.249 352.323 125.652 351.804 126.226 351.729L127.552 351.558C128.126 351.483 128.659 351.879 128.734 352.44L129.233 356.089C129.309 356.65 128.905 357.169 128.331 357.244L127.005 357.415C126.431 357.497 125.898 357.108 125.823 356.541Z" fill="#8FBAB8"/>
<path d="M125.823 356.541L125.324 352.884C125.249 352.323 125.652 351.804 126.226 351.729L127.552 351.558C128.126 351.483 128.659 351.879 128.734 352.44L129.233 356.089C129.309 356.65 128.905 357.169 128.331 357.244L127.005 357.415C126.431 357.497 125.898 357.108 125.823 356.541Z" stroke="#02435F" stroke-width="0.279" stroke-miterlimit="10"/>
<path d="M69.1961 358.851L52.4165 358.851L52.4165 349.398L69.073 349.398C69.6198 349.398 70.0709 349.842 70.0709 350.396L70.0709 357.983C70.0641 358.461 69.6745 358.851 69.1961 358.851Z" fill="white"/>
<path d="M69.1961 358.851L52.4165 358.851L52.4165 349.398L69.073 349.398C69.6198 349.398 70.0709 349.842 70.0709 350.396L70.0709 357.983C70.0641 358.461 69.6745 358.851 69.1961 358.851Z" stroke="#02435F" stroke-width="0.282" stroke-miterlimit="10"/>
<path d="M57.7408 353.096L57.7408 356.759C57.7408 357.333 57.2761 357.798 56.702 357.798L55.3418 357.798C54.7677 357.798 54.3029 357.333 54.3029 356.759L54.3029 353.096C54.3029 352.522 54.7677 352.057 55.3418 352.057L56.702 352.057C57.2692 352.057 57.7408 352.522 57.7408 353.096Z" fill="#8FBAB8"/>
<path d="M57.7408 353.096L57.7408 356.759C57.7408 357.333 57.2761 357.798 56.702 357.798L55.3418 357.798C54.7677 357.798 54.3029 357.333 54.3029 356.759L54.3029 353.096C54.3029 352.522 54.7677 352.057 55.3418 352.057L56.702 352.057C57.2692 352.057 57.7408 352.522 57.7408 353.096Z" stroke="#02435F" stroke-width="0.279" stroke-miterlimit="10"/>
<path d="M58.5337 351.715L59.0326 355.365C59.1078 355.925 58.7045 356.445 58.1304 356.52L56.8044 356.691C56.2303 356.766 55.6972 356.37 55.622 355.809L55.1231 352.159C55.0479 351.599 55.4511 351.079 56.0253 351.004L57.3512 350.833C57.9254 350.758 58.4585 351.155 58.5337 351.715Z" fill="#8FBAB8"/>
<path d="M58.5337 351.715L59.0326 355.365C59.1078 355.925 58.7045 356.445 58.1304 356.52L56.8044 356.691C56.2303 356.766 55.6972 356.37 55.622 355.809L55.1231 352.159C55.0479 351.599 55.4511 351.079 56.0253 351.004L57.3512 350.833C57.9254 350.758 58.4585 351.155 58.5337 351.715Z" stroke="#02435F" stroke-width="0.279" stroke-miterlimit="10"/>
<path d="M69.1961 347.32L52.4165 347.32L52.4165 337.868L69.073 337.868C69.6198 337.868 70.0709 338.312 70.0709 338.866L70.0709 346.452C70.0641 346.931 69.6745 347.32 69.1961 347.32Z" fill="white"/>
<path d="M69.1961 347.32L52.4165 347.32L52.4165 337.868L69.073 337.868C69.6198 337.868 70.0709 338.312 70.0709 338.866L70.0709 346.452C70.0641 346.931 69.6745 347.32 69.1961 347.32Z" stroke="#02435F" stroke-width="0.282" stroke-miterlimit="10"/>
<path d="M57.7408 341.558L57.7408 345.222C57.7408 345.796 57.2761 346.261 56.702 346.261L55.3418 346.261C54.7677 346.261 54.3029 345.796 54.3029 345.222L54.3029 341.558C54.3029 340.984 54.7677 340.52 55.3418 340.52L56.702 340.52C57.2692 340.52 57.7408 340.984 57.7408 341.558Z" fill="#8FBAB8"/>
<path d="M57.7408 341.558L57.7408 345.222C57.7408 345.796 57.2761 346.261 56.702 346.261L55.3418 346.261C54.7677 346.261 54.3029 345.796 54.3029 345.222L54.3029 341.558C54.3029 340.984 54.7677 340.52 55.3418 340.52L56.702 340.52C57.2692 340.52 57.7408 340.984 57.7408 341.558Z" stroke="#02435F" stroke-width="0.279" stroke-miterlimit="10"/>
<path d="M58.5337 340.178L59.0326 343.828C59.1078 344.388 58.7045 344.908 58.1304 344.983L56.8044 345.154C56.2303 345.229 55.6972 344.832 55.622 344.272L55.1231 340.622C55.0479 340.062 55.4511 339.542 56.0253 339.467L57.3512 339.296C57.9254 339.221 58.4585 339.617 58.5337 340.178Z" fill="#8FBAB8"/>
<path d="M58.5337 340.178L59.0326 343.828C59.1078 344.388 58.7045 344.908 58.1304 344.983L56.8044 345.154C56.2303 345.229 55.6972 344.832 55.622 344.272L55.1231 340.622C55.0479 340.062 55.4511 339.542 56.0253 339.467L57.3512 339.296C57.9254 339.221 58.4585 339.617 58.5337 340.178Z" stroke="#02435F" stroke-width="0.279" stroke-miterlimit="10"/>
<path d="M69.1961 334.601L52.4165 334.601L52.4165 325.148L69.073 325.148C69.6198 325.148 70.0709 325.592 70.0709 326.146L70.0709 333.733C70.0641 334.211 69.6745 334.601 69.1961 334.601Z" fill="white"/>
<path d="M69.1961 334.601L52.4165 334.601L52.4165 325.148L69.073 325.148C69.6198 325.148 70.0709 325.592 70.0709 326.146L70.0709 333.733C70.0641 334.211 69.6745 334.601 69.1961 334.601Z" stroke="#02435F" stroke-width="0.282" stroke-miterlimit="10"/>
<path d="M57.7408 328.846L57.7408 332.509C57.7408 333.083 57.2761 333.548 56.702 333.548L55.3418 333.548C54.7677 333.548 54.3029 333.083 54.3029 332.509L54.3029 328.846C54.3029 328.272 54.7677 327.807 55.3418 327.807L56.702 327.807C57.2692 327.8 57.7408 328.272 57.7408 328.846Z" fill="#8FBAB8"/>
<path d="M57.7408 328.846L57.7408 332.509C57.7408 333.083 57.2761 333.548 56.702 333.548L55.3418 333.548C54.7677 333.548 54.3029 333.083 54.3029 332.509L54.3029 328.846C54.3029 328.272 54.7677 327.807 55.3418 327.807L56.702 327.807C57.2692 327.8 57.7408 328.272 57.7408 328.846Z" stroke="#02435F" stroke-width="0.279" stroke-miterlimit="10"/>
<path d="M58.5337 327.465L59.0326 331.115C59.1078 331.675 58.7045 332.195 58.1304 332.27L56.8044 332.441C56.2303 332.516 55.6972 332.12 55.622 331.559L55.1231 327.909C55.0479 327.349 55.4511 326.829 56.0253 326.754L57.3512 326.583C57.9254 326.508 58.4585 326.905 58.5337 327.465Z" fill="#8FBAB8"/>
<path d="M58.5337 327.465L59.0326 331.115C59.1078 331.675 58.7045 332.195 58.1304 332.27L56.8044 332.441C56.2303 332.516 55.6972 332.12 55.622 331.559L55.1231 327.909C55.0479 327.349 55.4511 326.829 56.0253 326.754L57.3512 326.583C57.9254 326.508 58.4585 326.905 58.5337 327.465Z" stroke="#02435F" stroke-width="0.279" stroke-miterlimit="10"/>
<path d="M69.1961 322.537L52.4165 322.537L52.4165 313.084L69.073 313.084C69.6198 313.084 70.0709 313.529 70.0709 314.082L70.0709 321.669C70.0641 322.147 69.6745 322.537 69.1961 322.537Z" fill="white"/>
<path d="M69.1961 322.537L52.4165 322.537L52.4165 313.084L69.073 313.084C69.6198 313.084 70.0709 313.529 70.0709 314.082L70.0709 321.669C70.0641 322.147 69.6745 322.537 69.1961 322.537Z" stroke="#02435F" stroke-width="0.282" stroke-miterlimit="10"/>
<path d="M57.7408 316.775L57.7408 320.439C57.7408 321.013 57.2761 321.478 56.702 321.478L55.3418 321.478C54.7677 321.478 54.3029 321.013 54.3029 320.439L54.3029 316.775C54.3029 316.201 54.7677 315.736 55.3418 315.736L56.702 315.736C57.2692 315.736 57.7408 316.201 57.7408 316.775Z" fill="#8FBAB8"/>
<path d="M57.7408 316.775L57.7408 320.439C57.7408 321.013 57.2761 321.478 56.702 321.478L55.3418 321.478C54.7677 321.478 54.3029 321.013 54.3029 320.439L54.3029 316.775C54.3029 316.201 54.7677 315.736 55.3418 315.736L56.702 315.736C57.2692 315.736 57.7408 316.201 57.7408 316.775Z" stroke="#02435F" stroke-width="0.279" stroke-miterlimit="10"/>
<path d="M58.5337 315.401L59.0326 319.051C59.1078 319.612 58.7045 320.131 58.1304 320.206L56.8044 320.377C56.2303 320.452 55.6972 320.056 55.622 319.496L55.1231 315.846C55.0479 315.285 55.4511 314.766 56.0253 314.691L57.3512 314.52C57.9254 314.438 58.4585 314.834 58.5337 315.401Z" fill="#8FBAB8"/>
<path d="M58.5337 315.401L59.0326 319.051C59.1078 319.612 58.7045 320.131 58.1304 320.206L56.8044 320.377C56.2303 320.452 55.6972 320.056 55.622 319.496L55.1231 315.846C55.0479 315.285 55.4511 314.766 56.0253 314.691L57.3512 314.52C57.9254 314.438 58.4585 314.834 58.5337 315.401Z" stroke="#02435F" stroke-width="0.279" stroke-miterlimit="10"/>
<path d="M71.8686 302.053L71.8686 285.273L81.3212 285.273L81.3212 301.93C81.3212 302.477 80.8769 302.928 80.3233 302.928L72.7366 302.928C72.2581 302.921 71.8686 302.531 71.8686 302.053Z" fill="white"/>
<path d="M71.8686 302.053L71.8686 285.273L81.3212 285.273L81.3212 301.93C81.3212 302.477 80.8769 302.928 80.3233 302.928L72.7366 302.928C72.2581 302.921 71.8686 302.531 71.8686 302.053Z" stroke="#02435F" stroke-width="0.282" stroke-miterlimit="10"/>
<path d="M77.6303 290.598L73.9668 290.598C73.3927 290.598 72.9279 290.133 72.9279 289.559L72.9279 288.199C72.9279 287.625 73.3927 287.16 73.9668 287.16L77.6303 287.16C78.2044 287.16 78.6692 287.625 78.6692 288.199L78.6692 289.559C78.6692 290.126 78.2044 290.598 77.6303 290.598Z" fill="#8FBAB8"/>
<path d="M77.6303 290.598L73.9668 290.598C73.3927 290.598 72.9279 290.133 72.9279 289.559L72.9279 288.199C72.9279 287.625 73.3927 287.16 73.9668 287.16L77.6303 287.16C78.2044 287.16 78.6692 287.625 78.6692 288.199L78.6692 289.559C78.6692 290.126 78.2044 290.598 77.6303 290.598Z" stroke="#02435F" stroke-width="0.279" stroke-miterlimit="10"/>
<path d="M79.0042 291.391L75.3475 291.89C74.787 291.965 74.2676 291.562 74.1924 290.987L74.0215 289.661C73.9464 289.087 74.3428 288.554 74.9032 288.479L78.5531 287.98C79.1135 287.905 79.633 288.308 79.7082 288.882L79.879 290.208C79.9679 290.782 79.5715 291.315 79.0042 291.391Z" fill="#8FBAB8"/>
<path d="M79.0042 291.391L75.3475 291.89C74.787 291.965 74.2676 291.562 74.1924 290.987L74.0215 289.661C73.9464 289.087 74.3428 288.554 74.9032 288.479L78.5531 287.98C79.1135 287.905 79.633 288.308 79.7082 288.882L79.879 290.208C79.9679 290.782 79.5715 291.315 79.0042 291.391Z" stroke="#02435F" stroke-width="0.279" stroke-miterlimit="10"/>
<path d="M83.4058 302.053L83.4058 285.273L92.8516 285.273L92.8516 301.93C92.8516 302.477 92.4073 302.928 91.8605 302.928L84.2738 302.928C83.7954 302.921 83.4058 302.531 83.4058 302.053Z" fill="white"/>
<path d="M83.4058 302.053L83.4058 285.273L92.8516 285.273L92.8516 301.93C92.8516 302.477 92.4073 302.928 91.8605 302.928L84.2738 302.928C83.7954 302.921 83.4058 302.531 83.4058 302.053Z" stroke="#02435F" stroke-width="0.282" stroke-miterlimit="10"/>
<path d="M89.1607 290.598L85.4972 290.598C84.9231 290.598 84.4584 290.133 84.4584 289.559L84.4584 288.199C84.4584 287.625 84.9231 287.16 85.4972 287.16L89.1607 287.16C89.7349 287.16 90.1996 287.625 90.1996 288.199L90.1996 289.559C90.2065 290.126 89.7349 290.598 89.1607 290.598Z" fill="#8FBAB8"/>
<path d="M89.1607 290.598L85.4972 290.598C84.9231 290.598 84.4584 290.133 84.4584 289.559L84.4584 288.199C84.4584 287.625 84.9231 287.16 85.4972 287.16L89.1607 287.16C89.7349 287.16 90.1996 287.625 90.1996 288.199L90.1996 289.559C90.2065 290.126 89.7349 290.598 89.1607 290.598Z" stroke="#02435F" stroke-width="0.279" stroke-miterlimit="10"/>
<path d="M90.5414 291.391L86.8847 291.89C86.3243 291.965 85.8048 291.562 85.7296 290.987L85.5588 289.661C85.4836 289.087 85.88 288.554 86.4405 288.479L90.0903 287.98C90.6507 287.905 91.1702 288.308 91.2454 288.882L91.4162 290.208C91.4982 290.782 91.1087 291.315 90.5414 291.391Z" fill="#8FBAB8"/>
<path d="M90.5414 291.391L86.8847 291.89C86.3243 291.965 85.8048 291.562 85.7296 290.987L85.5588 289.661C85.4836 289.087 85.88 288.554 86.4405 288.479L90.0903 287.98C90.6507 287.905 91.1702 288.308 91.2454 288.882L91.4162 290.208C91.4982 290.782 91.1087 291.315 90.5414 291.391Z" stroke="#02435F" stroke-width="0.279" stroke-miterlimit="10"/>
<path d="M96.1187 302.053L96.1187 285.273L105.564 285.273L105.564 301.93C105.564 302.477 105.12 302.928 104.573 302.928L96.9867 302.928C96.5083 302.921 96.1187 302.531 96.1187 302.053Z" fill="white"/>
<path d="M96.1187 302.053L96.1187 285.273L105.564 285.273L105.564 301.93C105.564 302.477 105.12 302.928 104.573 302.928L96.9867 302.928C96.5083 302.921 96.1187 302.531 96.1187 302.053Z" stroke="#02435F" stroke-width="0.282" stroke-miterlimit="10"/>
<path d="M101.88 290.598L98.2168 290.598C97.6427 290.598 97.1779 290.133 97.1779 289.559L97.1779 288.199C97.1779 287.625 97.6427 287.16 98.2168 287.16L101.88 287.16C102.454 287.16 102.919 287.625 102.919 288.199L102.919 289.559C102.919 290.126 102.454 290.598 101.88 290.598Z" fill="#8FBAB8"/>
<path d="M101.88 290.598L98.2168 290.598C97.6427 290.598 97.1779 290.133 97.1779 289.559L97.1779 288.199C97.1779 287.625 97.6427 287.16 98.2168 287.16L101.88 287.16C102.454 287.16 102.919 287.625 102.919 288.199L102.919 289.559C102.919 290.126 102.454 290.598 101.88 290.598Z" stroke="#02435F" stroke-width="0.279" stroke-miterlimit="10"/>
<path d="M103.261 291.391L99.6045 291.89C99.044 291.965 98.5246 291.562 98.4494 290.987L98.2785 289.661C98.2033 289.087 98.5997 288.554 99.1602 288.479L102.81 287.98C103.37 287.905 103.89 288.308 103.965 288.882L104.136 290.208C104.218 290.782 103.822 291.315 103.261 291.391Z" fill="#8FBAB8"/>
<path d="M103.261 291.391L99.6045 291.89C99.044 291.965 98.5246 291.562 98.4494 290.987L98.2785 289.661C98.2033 289.087 98.5997 288.554 99.1602 288.479L102.81 287.98C103.37 287.905 103.89 288.308 103.965 288.882L104.136 290.208C104.218 290.782 103.822 291.315 103.261 291.391Z" stroke="#02435F" stroke-width="0.279" stroke-miterlimit="10"/>
<path d="M108.189 302.053L108.189 285.273L117.635 285.273L117.635 301.93C117.635 302.477 117.19 302.928 116.637 302.928L109.05 302.928C108.579 302.921 108.189 302.531 108.189 302.053Z" fill="white"/>
<path d="M108.189 302.053L108.189 285.273L117.635 285.273L117.635 301.93C117.635 302.477 117.19 302.928 116.637 302.928L109.05 302.928C108.579 302.921 108.189 302.531 108.189 302.053Z" stroke="#02435F" stroke-width="0.282" stroke-miterlimit="10"/>
<path d="M113.944 290.598L110.28 290.598C109.706 290.598 109.242 290.133 109.242 289.559L109.242 288.199C109.242 287.625 109.706 287.16 110.28 287.16L113.944 287.16C114.518 287.16 114.983 287.625 114.983 288.199L114.983 289.559C114.99 290.126 114.518 290.598 113.944 290.598Z" fill="#8FBAB8"/>
<path d="M113.944 290.598L110.28 290.598C109.706 290.598 109.242 290.133 109.242 289.559L109.242 288.199C109.242 287.625 109.706 287.16 110.28 287.16L113.944 287.16C114.518 287.16 114.983 287.625 114.983 288.199L114.983 289.559C114.99 290.126 114.518 290.598 113.944 290.598Z" stroke="#02435F" stroke-width="0.279" stroke-miterlimit="10"/>
<path d="M115.324 291.391L111.668 291.89C111.107 291.965 110.588 291.562 110.513 290.987L110.342 289.661C110.267 289.087 110.663 288.554 111.224 288.479L114.873 287.98C115.434 287.905 115.953 288.308 116.028 288.882L116.199 290.208C116.281 290.782 115.892 291.315 115.324 291.391Z" fill="#8FBAB8"/>
<path d="M115.324 291.391L111.668 291.89C111.107 291.965 110.588 291.562 110.513 290.987L110.342 289.661C110.267 289.087 110.663 288.554 111.224 288.479L114.873 287.98C115.434 287.905 115.953 288.308 116.028 288.882L116.199 290.208C116.281 290.782 115.892 291.315 115.324 291.391Z" stroke="#02435F" stroke-width="0.279" stroke-miterlimit="10"/>
<path d="M117.635 368.973L117.635 385.753L108.182 385.753L108.182 369.096C108.182 368.549 108.626 368.098 109.18 368.098L116.767 368.098C117.245 368.105 117.635 368.495 117.635 368.973Z" fill="white"/>
<path d="M117.635 368.973L117.635 385.753L108.182 385.753L108.182 369.096C108.182 368.549 108.626 368.098 109.18 368.098L116.767 368.098C117.245 368.105 117.635 368.495 117.635 368.973Z" stroke="#02435F" stroke-width="0.282" stroke-miterlimit="10"/>
<path d="M111.88 380.435L115.543 380.435C116.118 380.435 116.582 380.9 116.582 381.474L116.582 382.834C116.582 383.408 116.118 383.873 115.543 383.873L111.88 383.873C111.306 383.873 110.841 383.408 110.841 382.834L110.841 381.474C110.841 380.9 111.306 380.435 111.88 380.435Z" fill="#8FBAB8"/>
<path d="M111.88 380.435L115.543 380.435C116.118 380.435 116.582 380.9 116.582 381.474L116.582 382.834C116.582 383.408 116.118 383.873 115.543 383.873L111.88 383.873C111.306 383.873 110.841 383.408 110.841 382.834L110.841 381.474C110.841 380.9 111.306 380.435 111.88 380.435Z" stroke="#02435F" stroke-width="0.279" stroke-miterlimit="10"/>
<path d="M110.499 379.635L114.149 379.137C114.709 379.061 115.229 379.465 115.304 380.039L115.475 381.365C115.55 381.939 115.154 382.472 114.593 382.547L110.943 383.046C110.383 383.121 109.864 382.718 109.788 382.144L109.618 380.818C109.542 380.244 109.939 379.717 110.499 379.635Z" fill="#8FBAB8"/>
<path d="M110.499 379.635L114.149 379.137C114.709 379.061 115.229 379.465 115.304 380.039L115.475 381.365C115.55 381.939 115.154 382.472 114.593 382.547L110.943 383.046C110.383 383.121 109.864 382.718 109.788 382.144L109.618 380.818C109.542 380.244 109.939 379.717 110.499 379.635Z" stroke="#02435F" stroke-width="0.279" stroke-miterlimit="10"/>
<path d="M106.104 368.973L106.104 385.753L96.6516 385.753L96.6516 369.096C96.6516 368.549 97.0959 368.098 97.6495 368.098L105.236 368.098C105.715 368.105 106.104 368.495 106.104 368.973Z" fill="white"/>
<path d="M106.104 368.973L106.104 385.753L96.6516 385.753L96.6516 369.096C96.6516 368.549 97.0959 368.098 97.6495 368.098L105.236 368.098C105.715 368.105 106.104 368.495 106.104 368.973Z" stroke="#02435F" stroke-width="0.282" stroke-miterlimit="10"/>
<path d="M100.343 380.435L104.006 380.435C104.58 380.435 105.045 380.9 105.045 381.474L105.045 382.834C105.045 383.408 104.58 383.873 104.006 383.873L100.343 383.873C99.7684 383.873 99.3036 383.408 99.3036 382.834L99.3036 381.474C99.3036 380.9 99.7684 380.435 100.343 380.435Z" fill="#8FBAB8"/>
<path d="M100.343 380.435L104.006 380.435C104.58 380.435 105.045 380.9 105.045 381.474L105.045 382.834C105.045 383.408 104.58 383.873 104.006 383.873L100.343 383.873C99.7684 383.873 99.3036 383.408 99.3036 382.834L99.3036 381.474C99.3036 380.9 99.7684 380.435 100.343 380.435Z" stroke="#02435F" stroke-width="0.279" stroke-miterlimit="10"/>
<path d="M98.9619 379.635L102.612 379.137C103.172 379.061 103.692 379.465 103.767 380.039L103.938 381.365C104.013 381.939 103.616 382.472 103.056 382.547L99.4061 383.046C98.8457 383.121 98.3262 382.718 98.251 382.144L98.0802 380.818C98.005 380.244 98.4014 379.717 98.9619 379.635Z" fill="#8FBAB8"/>
<path d="M98.9619 379.635L102.612 379.137C103.172 379.061 103.692 379.465 103.767 380.039L103.938 381.365C104.013 381.939 103.616 382.472 103.056 382.547L99.4061 383.046C98.8457 383.121 98.3262 382.718 98.251 382.144L98.0802 380.818C98.005 380.244 98.4014 379.717 98.9619 379.635Z" stroke="#02435F" stroke-width="0.279" stroke-miterlimit="10"/>
<path d="M93.3846 368.973L93.3846 385.753L83.932 385.753L83.932 369.096C83.932 368.549 84.3763 368.098 84.9299 368.098L92.5166 368.098C92.9951 368.105 93.3846 368.495 93.3846 368.973Z" fill="white"/>
<path d="M93.3846 368.973L93.3846 385.753L83.932 385.753L83.932 369.096C83.932 368.549 84.3763 368.098 84.9299 368.098L92.5166 368.098C92.9951 368.105 93.3846 368.495 93.3846 368.973Z" stroke="#02435F" stroke-width="0.282" stroke-miterlimit="10"/>
<path d="M87.6297 380.435L91.2931 380.435C91.8673 380.435 92.332 380.9 92.332 381.474L92.332 382.834C92.332 383.408 91.8673 383.873 91.2931 383.873L87.6297 383.873C87.0555 383.873 86.5908 383.408 86.5908 382.834L86.5908 381.474C86.5839 380.9 87.0555 380.435 87.6297 380.435Z" fill="#8FBAB8"/>
<path d="M87.6297 380.435L91.2931 380.435C91.8673 380.435 92.332 380.9 92.332 381.474L92.332 382.834C92.332 383.408 91.8673 383.873 91.2931 383.873L87.6297 383.873C87.0555 383.873 86.5908 383.408 86.5908 382.834L86.5908 381.474C86.5839 380.9 87.0555 380.435 87.6297 380.435Z" stroke="#02435F" stroke-width="0.279" stroke-miterlimit="10"/>
<path d="M86.2491 379.635L89.8989 379.137C90.4594 379.061 90.9788 379.465 91.054 380.039L91.2249 381.365C91.3 381.939 90.9036 382.472 90.3432 382.547L86.6934 383.046C86.1329 383.121 85.6135 382.718 85.5383 382.144L85.3674 380.818C85.2922 380.244 85.6886 379.717 86.2491 379.635Z" fill="#8FBAB8"/>
<path d="M86.2491 379.635L89.8989 379.137C90.4594 379.061 90.9788 379.465 91.054 380.039L91.2249 381.365C91.3 381.939 90.9036 382.472 90.3432 382.547L86.6934 383.046C86.1329 383.121 85.6135 382.718 85.5383 382.144L85.3674 380.818C85.2922 380.244 85.6886 379.717 86.2491 379.635Z" stroke="#02435F" stroke-width="0.279" stroke-miterlimit="10"/>
<path d="M81.3212 368.973L81.3212 385.753L71.8686 385.753L71.8686 369.096C71.8686 368.549 72.3128 368.098 72.8664 368.098L80.4531 368.098C80.9316 368.105 81.3212 368.495 81.3212 368.973Z" fill="white"/>
<path d="M81.3212 368.973L81.3212 385.753L71.8686 385.753L71.8686 369.096C71.8686 368.549 72.3128 368.098 72.8664 368.098L80.4531 368.098C80.9316 368.105 81.3212 368.495 81.3212 368.973Z" stroke="#02435F" stroke-width="0.282" stroke-miterlimit="10"/>
<path d="M75.5593 380.435L79.2228 380.435C79.7969 380.435 80.2617 380.9 80.2617 381.474L80.2617 382.834C80.2617 383.408 79.7969 383.873 79.2228 383.873L75.5593 383.873C74.9852 383.873 74.5204 383.408 74.5204 382.834L74.5204 381.474C74.5204 380.9 74.9852 380.435 75.5593 380.435Z" fill="#8FBAB8"/>
<path d="M75.5593 380.435L79.2228 380.435C79.7969 380.435 80.2617 380.9 80.2617 381.474L80.2617 382.834C80.2617 383.408 79.7969 383.873 79.2228 383.873L75.5593 383.873C74.9852 383.873 74.5204 383.408 74.5204 382.834L74.5204 381.474C74.5204 380.9 74.9852 380.435 75.5593 380.435Z" stroke="#02435F" stroke-width="0.279" stroke-miterlimit="10"/>
<path d="M74.1786 379.635L77.8285 379.137C78.3889 379.061 78.9084 379.465 78.9836 380.039L79.1544 381.365C79.2296 381.939 78.8332 382.472 78.2727 382.547L74.6229 383.046C74.0625 383.121 73.543 382.718 73.4678 382.144L73.2969 380.818C73.2218 380.244 73.6182 379.717 74.1786 379.635Z" fill="#8FBAB8"/>
<path d="M74.1786 379.635L77.8285 379.137C78.3889 379.061 78.9084 379.465 78.9836 380.039L79.1544 381.365C79.2296 381.939 78.8332 382.472 78.2727 382.547L74.6229 383.046C74.0625 383.121 73.543 382.718 73.4678 382.144L73.2969 380.818C73.2218 380.244 73.6182 379.717 74.1786 379.635Z" stroke="#02435F" stroke-width="0.279" stroke-miterlimit="10"/>
<path d="M104.15 354.921L104.15 317.807L83.4058 317.807L83.4058 354.921L104.15 354.921Z" fill="#8FBAB8"/>
<path d="M48.9854 405.704L48.9854 388.965L136.219 388.145L136.212 405.704L132.131 442.878L53.6537 442.878L48.9854 405.704Z" fill="#8FBAB8"/>
<path d="M126.465 280.072L128.796 280.072L128.796 259.267L126.465 280.072Z" fill="#02435F"/>
<path d="M134.052 280.072L136.39 280.072L136.39 259.267L134.052 280.072Z" fill="#02435F"/>
<path d="M136.39 261.03L128.796 261.03" stroke="#02435F" stroke-width="0.261" stroke-miterlimit="10"/>
<path d="M136.39 259.273L128.796 259.273" stroke="#02435F" stroke-width="0.261" stroke-miterlimit="10"/>
<path d="M136.39 263.764L128.796 263.764" stroke="#02435F" stroke-width="0.261" stroke-miterlimit="10"/>
<path d="M136.39 266.32L128.796 266.32" stroke="#02435F" stroke-width="0.261" stroke-miterlimit="10"/>
<path d="M136.39 269.054L128.796 269.054" stroke="#02435F" stroke-width="0.261" stroke-miterlimit="10"/>
<path d="M136.39 271.877L128.796 271.877" stroke="#02435F" stroke-width="0.261" stroke-miterlimit="10"/>
<path d="M136.39 274.693L128.796 274.693" stroke="#02435F" stroke-width="0.261" stroke-miterlimit="10"/>
<path d="M136.39 277.256L128.796 277.256" stroke="#02435F" stroke-width="0.261" stroke-miterlimit="10"/>
<path d="M136.39 280.072L126.465 280.072" stroke="#02435F" stroke-width="0.261" stroke-miterlimit="10"/>
</g>
<defs>
<clipPath id="clip0">
<rect width="570" height="185.204" fill="white" transform="translate(185.204) rotate(90)"/>
</clipPath>
</defs>
</svg>
