<svg width="195" height="570" viewBox="0 0 195 570" fill="none" xmlns="http://www.w3.org/2000/svg">
<g clip-path="url(#clip0)">
<path d="M28.4809 428.423C28.4809 427.521 28.4877 426.618 28.5014 425.716L29.0208 278.206C29.0345 274.098 29.2327 269.936 29.6086 265.828L36.4913 190.658C38.3368 163.463 45.0554 137.094 56.4491 112.297L72.0121 78.4369L87.951 42.5402L87.951 28.9593L96.0025 28.9593L96.0025 42.5539L111.62 78.6283L127.272 112.399C138.734 137.128 145.535 163.442 147.483 190.631L154.037 268.692C154.194 270.9 154.29 273.128 154.317 275.322L155.309 426.666C155.37 431.389 155.233 436.18 154.898 440.903L150.128 522.204C149.383 532.771 140.511 541.041 129.931 541.041L54.5422 541.041C44.0439 541.041 35.179 532.846 34.3589 522.382L28.9935 441.826C28.6518 437.39 28.4809 432.893 28.4809 428.423ZM88.4295 29.4378L88.409 42.6906L72.4496 78.6351L56.8866 112.495C45.5134 137.237 38.8152 163.551 36.9698 190.699L30.0871 265.869C29.7112 269.963 29.513 274.112 29.4993 278.206L28.9798 425.716C28.8978 431.068 29.0618 436.467 29.4788 441.785L34.8441 522.341C35.6438 532.552 44.2968 540.556 54.549 540.556L129.931 540.556C140.258 540.556 148.918 532.477 149.649 522.163L154.427 440.862C154.762 436.153 154.898 431.375 154.837 426.659L153.846 275.315C153.819 273.128 153.723 270.907 153.566 268.713L147.011 190.652C145.063 163.517 138.276 137.258 126.841 112.584L111.183 78.806L95.524 42.6359L95.524 29.4378L88.4295 29.4378ZM31.3584 428.409C31.3584 427.521 31.3652 426.632 31.3789 425.744L31.8983 278.22C31.912 274.18 32.1034 270.1 32.4725 266.095L39.3552 190.891C41.1801 164.023 47.8099 137.982 59.0601 113.5L74.6299 79.6262L90.8217 43.1554L90.8217 31.8368L93.1182 31.8368L93.1182 43.1485L108.989 79.8039L124.661 113.609C135.98 138.016 142.691 164.009 144.619 190.857L151.173 268.918C151.324 271.064 151.42 273.224 151.447 275.356L152.438 426.7C152.499 431.348 152.363 436.071 152.035 440.719L147.257 522.019C146.621 531.076 139.007 538.163 129.931 538.163L54.5422 538.163C45.5407 538.163 37.9335 531.137 37.2295 522.17L31.8641 441.614C31.5292 437.247 31.3584 432.818 31.3584 428.409ZM91.3069 32.3153L91.2864 43.2989L75.0741 79.8175L59.5043 113.698C48.2815 138.126 41.6653 164.112 39.8404 190.932L32.9577 266.136C32.5955 270.134 32.3973 274.194 32.3836 278.22L31.8573 425.75C31.7753 431.02 31.9393 436.344 32.3494 441.58L37.7148 522.136C38.3983 530.85 45.7936 537.685 54.549 537.685L129.931 537.685C138.755 537.685 146.157 530.788 146.779 521.985L151.549 440.685C151.877 436.044 152.014 431.341 151.953 426.7L150.962 275.356C150.934 273.244 150.845 271.084 150.688 268.952L144.134 190.891C142.213 164.098 135.515 138.167 124.224 113.807L108.551 80.0021L92.6397 43.251L92.6397 32.3153L91.3069 32.3153Z" fill="#8FBAB8"/>
<path d="M75.0741 79.9133L72.3402 85.8596L111.538 85.8596L109.002 79.9133L92.6534 79.9133L92.6534 53.7494L98.0802 54.6721L94.861 46.6138L93.5624 41.7406L93.5624 29.1986L90.4662 29.1986L90.4662 41.7406L89.2428 46.9487L86.3175 54.4192L91.6145 53.7494L91.6145 79.9133L75.0741 79.9133Z" fill="#8FBAB8"/>
<path d="M57.5906 500.79C44.6454 500.79 33.9898 490.613 33.3952 477.688L28.5014 371.912L28.8979 245.563C28.9457 236.623 38.7537 233.438 44.9666 233.438L141.324 233.745C147.531 233.745 154.83 236.623 155.302 247.723L155.302 374.564L151.508 477.47C151.03 490.49 140.333 500.797 127.299 500.797L57.5906 500.797L57.5906 500.79Z" fill="white"/>
<path d="M123.198 424.288L123.663 419.756C123.732 419.107 124.313 418.628 124.962 418.697L129.603 419.175C130.191 419.237 130.621 419.763 130.56 420.351L130.074 425.108C130.013 425.696 129.487 426.126 128.899 426.065L124.258 425.586C123.602 425.525 123.13 424.944 123.198 424.288Z" stroke="#02435F" stroke-width="0.351" stroke-miterlimit="10"/>
<path d="M124.292 423.372L124.565 420.692C124.634 420.043 125.215 419.565 125.864 419.633L130.587 420.118L130.067 425.162L125.345 424.677C124.695 424.609 124.224 424.028 124.292 423.372Z" stroke="#02435F" stroke-width="0.351" stroke-miterlimit="10"/>
<path d="M125.112 423.802L125.454 420.44C125.502 419.975 125.919 419.64 126.383 419.688L130.587 420.118L130.067 425.162L125.864 424.732C125.406 424.677 125.064 424.267 125.112 423.802Z" stroke="#02435F" stroke-width="0.351" stroke-miterlimit="10"/>
<path d="M123.198 434.089L123.663 429.557C123.732 428.908 124.313 428.43 124.962 428.498L129.603 428.976C130.191 429.038 130.621 429.564 130.56 430.152L130.074 434.909C130.013 435.497 129.487 435.927 128.899 435.866L124.258 435.387C123.602 435.319 123.13 434.738 123.198 434.089Z" stroke="#02435F" stroke-width="0.351" stroke-miterlimit="10"/>
<path d="M124.292 433.173L124.565 430.494C124.634 429.844 125.215 429.366 125.864 429.434L130.587 429.913L130.067 434.957L125.345 434.472C124.695 434.403 124.224 433.822 124.292 433.173Z" stroke="#02435F" stroke-width="0.351" stroke-miterlimit="10"/>
<path d="M125.112 433.597L125.454 430.234C125.502 429.769 125.919 429.434 126.383 429.482L130.587 429.913L130.067 434.957L125.864 434.526C125.406 434.478 125.064 434.061 125.112 433.597Z" stroke="#02435F" stroke-width="0.351" stroke-miterlimit="10"/>
<path d="M42.4787 233.745L141.324 233.745C149.034 233.745 155.302 240.013 155.302 247.723L155.302 367.271L151.112 478.413C150.64 490.962 140.429 500.79 127.873 500.79L56.6747 500.79C44.2011 500.79 33.9966 491.03 33.443 478.563L28.5014 367.326L28.5014 247.716C28.5014 240.013 34.769 233.745 42.4787 233.745ZM127.873 497.913C138.878 497.913 147.824 489.301 148.235 478.304L152.424 367.21L152.424 247.716C152.424 241.599 147.449 236.616 141.324 236.616L42.4787 236.616C36.3615 236.616 31.3789 241.592 31.3789 247.716L31.3789 367.265L36.3137 478.44C36.7989 489.362 45.7389 497.913 56.6747 497.913L127.873 497.913Z" stroke="#0D3F57" stroke-width="0.702" stroke-miterlimit="10"/>
<path d="M45.6091 301.335L45.6979 277.694L138.994 277.694L138.987 407.406L134.585 445.66L105.441 444.963L104.464 444.847" stroke="#0D3F57" stroke-width="0.702" stroke-miterlimit="10"/>
<path d="M79.4963 445.804L49.9971 445.804L44.9666 407.296L44.9666 311.383" stroke="#0D3F57" stroke-width="0.702" stroke-miterlimit="10"/>
<path d="M104.635 458.872L104.635 444.963L103.678 444.963L103.678 458.872L104.635 458.872Z" stroke="#02435F" stroke-width="0.351" stroke-miterlimit="10"/>
<path d="M80.4531 458.872L80.4531 444.963L79.4962 444.963L79.4962 458.872L80.4531 458.872Z" stroke="#02435F" stroke-width="0.351" stroke-miterlimit="10"/>
<path d="M62.5936 349.473L62.5936 348.653L52.7924 348.653L52.7924 349.473L62.5936 349.473Z" stroke="#02435F" stroke-width="0.351" stroke-miterlimit="10"/>
<path d="M62.5936 348.209L62.5936 347.389L52.7924 347.389L52.7924 348.209L62.5936 348.209Z" stroke="#02435F" stroke-width="0.351" stroke-miterlimit="10"/>
<path d="M109.911 330.185L109.911 329.365L100.575 329.365L100.575 330.185L109.911 330.185Z" stroke="#02435F" stroke-width="0.351" stroke-miterlimit="10"/>
<path d="M103.671 446.357L103.671 444.963L80.4531 444.963L80.4531 446.357L103.671 446.357Z" stroke="#02435F" stroke-width="0.351" stroke-miterlimit="10"/>
<path d="M103.61 458.879C103.446 458.879 103.288 458.879 103.131 458.872" stroke="#02435F" stroke-width="0.281" stroke-miterlimit="10"/>
<path d="M102.12 458.783C96.7679 458.093 92.5577 453.739 92.0997 448.319" stroke="#02435F" stroke-width="0.281" stroke-miterlimit="10" stroke-dasharray="1.48 1.48"/>
<path d="M92.0724 447.813C92.0656 447.656 92.0656 447.492 92.0656 447.335" stroke="#02435F" stroke-width="0.281" stroke-miterlimit="10"/>
<path d="M80.3575 458.879C80.5147 458.879 80.6787 458.879 80.8359 458.872" stroke="#02435F" stroke-width="0.281" stroke-miterlimit="10"/>
<path d="M81.8474 458.783C87.1991 458.093 91.4094 453.739 91.8673 448.319" stroke="#02435F" stroke-width="0.281" stroke-miterlimit="10" stroke-dasharray="1.48 1.48"/>
<path d="M91.8947 447.813C91.9015 447.656 91.9015 447.492 91.9015 447.335" stroke="#02435F" stroke-width="0.281" stroke-miterlimit="10"/>
<path d="M52.7925 348.216C52.7925 348.052 52.7993 347.894 52.8062 347.737" stroke="#02435F" stroke-width="0.281" stroke-miterlimit="10"/>
<path d="M52.9019 346.801C53.558 342.515 57.1463 339.187 61.5206 338.763" stroke="#02435F" stroke-width="0.281" stroke-miterlimit="10" stroke-dasharray="1.37 1.37"/>
<path d="M61.9853 338.729C62.1425 338.722 62.3065 338.715 62.4637 338.715" stroke="#02435F" stroke-width="0.281" stroke-miterlimit="10"/>
<path d="M62.4706 358.201C62.3065 358.201 62.1494 358.195 61.9922 358.188" stroke="#02435F" stroke-width="0.281" stroke-miterlimit="10"/>
<path d="M61.0489 358.099C56.7361 357.463 53.2845 353.964 52.8403 349.603" stroke="#02435F" stroke-width="0.281" stroke-miterlimit="10" stroke-dasharray="1.38 1.38"/>
<path d="M52.8062 349.131C52.7993 348.974 52.7925 348.81 52.7925 348.653" stroke="#02435F" stroke-width="0.281" stroke-miterlimit="10"/>
<path d="M109.85 330.035C109.843 329.871 109.836 329.714 109.823 329.557" stroke="#02435F" stroke-width="0.281" stroke-miterlimit="10"/>
<path d="M109.686 328.586C108.927 324.799 105.729 321.929 101.846 321.621" stroke="#02435F" stroke-width="0.281" stroke-miterlimit="10" stroke-dasharray="1.43 1.43"/>
<path d="M101.354 321.601C101.197 321.594 101.033 321.601 100.876 321.601" stroke="#02435F" stroke-width="0.281" stroke-miterlimit="10"/>
<path d="M56.5312 309.811L56.5312 312.832L76.3113 312.832L56.5312 309.811Z" fill="#02435F"/>
<path d="M56.5312 319.619L56.5312 322.633L76.3113 322.633L56.5312 319.619Z" fill="#02435F"/>
<path d="M74.6299 322.633L74.6299 312.832" stroke="#02435F" stroke-width="0.351" stroke-miterlimit="10"/>
<path d="M76.3113 322.633L76.3113 312.832" stroke="#02435F" stroke-width="0.351" stroke-miterlimit="10"/>
<path d="M72.0326 322.633L72.0326 312.832" stroke="#02435F" stroke-width="0.351" stroke-miterlimit="10"/>
<path d="M69.6062 322.633L69.6062 312.832" stroke="#02435F" stroke-width="0.351" stroke-miterlimit="10"/>
<path d="M67.009 322.633L67.009 312.832" stroke="#02435F" stroke-width="0.351" stroke-miterlimit="10"/>
<path d="M64.3229 322.633L64.3229 312.832" stroke="#02435F" stroke-width="0.351" stroke-miterlimit="10"/>
<path d="M61.6437 322.633L61.6437 312.832" stroke="#02435F" stroke-width="0.351" stroke-miterlimit="10"/>
<path d="M59.2104 322.633L59.2104 312.832" stroke="#02435F" stroke-width="0.351" stroke-miterlimit="10"/>
<path d="M56.5311 322.633L56.5311 309.811" stroke="#02435F" stroke-width="0.351" stroke-miterlimit="10"/>
<path d="M121.968 388.562L125.85 388.562L125.85 363.102L121.968 388.562Z" fill="#02435F"/>
<path d="M134.585 388.562L138.474 388.562L138.474 363.102L134.585 388.562Z" fill="#02435F"/>
<path d="M138.474 365.255L125.85 365.255" stroke="#02435F" stroke-width="0.351" stroke-miterlimit="10"/>
<path d="M138.474 363.102L125.85 363.102" stroke="#02435F" stroke-width="0.351" stroke-miterlimit="10"/>
<path d="M138.474 368.604L125.85 368.604" stroke="#02435F" stroke-width="0.351" stroke-miterlimit="10"/>
<path d="M138.474 371.728L125.85 371.728" stroke="#02435F" stroke-width="0.351" stroke-miterlimit="10"/>
<path d="M138.474 375.077L125.85 375.077" stroke="#02435F" stroke-width="0.351" stroke-miterlimit="10"/>
<path d="M138.474 378.528L125.85 378.528" stroke="#02435F" stroke-width="0.351" stroke-miterlimit="10"/>
<path d="M138.474 381.98L125.85 381.98" stroke="#02435F" stroke-width="0.351" stroke-miterlimit="10"/>
<path d="M138.474 385.11L125.85 385.11" stroke="#02435F" stroke-width="0.351" stroke-miterlimit="10"/>
<path d="M138.474 388.562L121.968 388.562" stroke="#02435F" stroke-width="0.351" stroke-miterlimit="10"/>
<path d="M62.2314 358.454L62.2314 367.572" stroke="#02435F" stroke-width="0.351" stroke-miterlimit="10"/>
<path d="M62.5936 348.462L44.9665 348.462" stroke="#02435F" stroke-width="0.351" stroke-miterlimit="10"/>
<path d="M110.984 351.886L110.984 342.167L109.624 342.167L109.624 351.886L110.984 351.886Z" fill="#02435F"/>
<path d="M44.7889 323.884L87.6571 323.884L87.6571 342.133L87.6366 342.133L87.6366 343.493L87.6571 343.493L89.0173 343.493L138.994 343.493" stroke="#02435F" stroke-width="0.702" stroke-miterlimit="10"/>
<path d="M114.778 330.213L101.935 330.213L101.935 330.158L100.575 330.158L100.575 343.493" stroke="#02435F" stroke-width="0.702" stroke-miterlimit="10"/>
<path d="M138.474 311.136L101.935 311.136L100.753 311.136L100.575 311.136L100.575 321.314" stroke="#02435F" stroke-width="0.702" stroke-miterlimit="10"/>
<path d="M123.041 330.158L138.994 330.158" stroke="#02435F" stroke-width="0.702" stroke-miterlimit="10"/>
<path d="M111.791 312.565L138.912 312.565L138.912 324.301L113.021 324.301C112.338 324.301 111.784 323.747 111.784 323.063L111.784 312.565L111.791 312.565Z" fill="white"/>
<path d="M111.791 312.565L138.912 312.565L138.912 324.301L113.021 324.301C112.338 324.301 111.784 323.747 111.784 323.063L111.784 312.565L111.791 312.565Z" stroke="#02435F" stroke-width="0.351" stroke-miterlimit="10"/>
<path d="M125.133 324.301L125.133 312.565L122.077 312.565L122.077 324.301L125.133 324.301Z" fill="white"/>
<path d="M125.133 324.301L125.133 312.565L122.077 312.565L122.077 324.301L125.133 324.301Z" stroke="#02435F" stroke-width="0.351" stroke-miterlimit="10"/>
<path d="M62.2314 358.386L81.7655 358.386C82.4626 358.386 83.0299 358.953 83.0299 359.65L83.0299 367.572L62.2314 367.572L62.2314 358.386Z" stroke="#02435F" stroke-width="0.351" stroke-miterlimit="10"/>
<path d="M75.0263 359.377L80.2413 359.377C80.9931 359.377 81.6014 359.985 81.6014 360.737L81.6014 363.744C81.6014 364.496 80.9931 365.104 80.2413 365.104L75.0263 365.104C74.2745 365.104 73.6662 364.496 73.6662 363.744L73.6662 360.737C73.6662 359.985 74.2745 359.377 75.0263 359.377Z" stroke="#02435F" stroke-width="0.351" stroke-miterlimit="10"/>
<path d="M65.7104 359.377L70.9254 359.377C71.6772 359.377 72.2855 359.985 72.2855 360.737L72.2855 363.744C72.2855 364.496 71.6772 365.104 70.9254 365.104L65.7104 365.104C64.9585 365.104 64.3503 364.496 64.3503 363.744L64.3503 360.737C64.3503 359.985 64.9585 359.377 65.7104 359.377Z" stroke="#02435F" stroke-width="0.351" stroke-miterlimit="10"/>
<path d="M78.1224 366.219L78.1224 363.348L77.145 363.348L77.145 366.219L78.1224 366.219Z" stroke="#02435F" stroke-width="0.351" stroke-miterlimit="10"/>
<path d="M68.8065 366.219L68.8065 363.348L67.8291 363.348L67.8291 366.219L68.8065 366.219Z" stroke="#02435F" stroke-width="0.351" stroke-miterlimit="10"/>
<path d="M76.9947 361.851C76.9947 361.537 77.2476 361.284 77.5551 361.284C77.8695 361.284 78.1224 361.537 78.1224 361.851C78.1224 362.166 77.8695 362.412 77.5551 362.412C77.2476 362.419 76.9947 362.166 76.9947 361.851Z" stroke="#02435F" stroke-width="0.351" stroke-miterlimit="10"/>
<path d="M67.754 361.851C67.754 361.537 68.0068 361.284 68.3144 361.284C68.6288 361.284 68.8817 361.537 68.8817 361.851C68.8817 362.166 68.6288 362.412 68.3144 362.412C68.0068 362.419 67.754 362.166 67.754 361.851Z" stroke="#02435F" stroke-width="0.351" stroke-miterlimit="10"/>
<path d="M110.308 367.64L110.308 361.981L99.4404 361.981L99.4404 367.64L110.308 367.64Z" stroke="#02435F" stroke-width="0.351" stroke-miterlimit="10"/>
<path d="M135.795 348.838L135.795 343.554L110.308 343.554L110.308 348.838L135.795 348.838Z" stroke="#02435F" stroke-width="0.351" stroke-miterlimit="10"/>
<path d="M88.9353 367.572L88.9353 361.981L83.03 361.981L83.03 367.572L88.9353 367.572Z" stroke="#02435F" stroke-width="0.351" stroke-miterlimit="10"/>
<path d="M89.728 367.572L89.728 361.981L88.9352 361.981L88.9352 367.572L89.728 367.572Z" stroke="#02435F" stroke-width="0.351" stroke-miterlimit="10"/>
<path d="M99.4404 362.917L99.4404 361.981L89.7281 361.981L89.7281 362.917L99.4404 362.917Z" stroke="#02435F" stroke-width="0.351" stroke-miterlimit="10"/>
<path d="M76.9947 330.425C76.9947 330.11 77.2476 329.857 77.5551 329.857C77.8695 329.857 78.1224 330.11 78.1224 330.425C78.1224 330.739 77.8695 330.985 77.5551 330.985C77.2476 330.985 76.9947 330.732 76.9947 330.425Z" stroke="#02435F" stroke-width="0.351" stroke-miterlimit="10"/>
<path d="M87.6571 337.71L87.6571 323.925L62.2861 323.925L62.2861 337.71L87.6571 337.71Z" stroke="#02435F" stroke-width="0.351" stroke-miterlimit="10"/>
<path d="M70.071 325.811L81.2186 325.811C83.8501 325.811 85.9825 327.943 85.9825 330.575C85.9825 333.206 83.8501 335.339 81.2186 335.339L70.071 335.339C67.4396 335.339 65.3002 333.206 65.3002 330.575C65.3002 327.943 67.4396 325.811 70.071 325.811Z" stroke="#02435F" stroke-width="0.351" stroke-miterlimit="10"/>
<path d="M76.3044 328.039L76.3044 325.168L75.3271 325.168L75.3271 328.039L76.3044 328.039Z" stroke="#02435F" stroke-width="0.351" stroke-miterlimit="10"/>
<path d="M51.9245 324.335L55.3556 324.335L54.7268 324.922L52.5055 324.922L51.9245 324.335Z" fill="white"/>
<path d="M51.9245 324.335L55.3556 324.335L54.7268 324.922L52.5055 324.922L51.9245 324.335Z" stroke="#02435F" stroke-width="0.702" stroke-miterlimit="10"/>
<path d="M52.9633 326.453C52.9633 326.098 53.2504 324.328 53.6058 324.328C53.9612 324.328 54.2483 326.098 54.2483 326.453C54.2483 326.809 53.9612 327.096 53.6058 327.096C53.2504 327.096 52.9633 326.809 52.9633 326.453Z" fill="white"/>
<path d="M52.9633 326.453C52.9633 326.098 53.2504 324.328 53.6058 324.328C53.9612 324.328 54.2483 326.098 54.2483 326.453C54.2483 326.809 53.9612 327.096 53.6058 327.096C53.2504 327.096 52.9633 326.809 52.9633 326.453Z" stroke="#02435F" stroke-width="0.702" stroke-miterlimit="10"/>
<path d="M138.454 335.106L138.454 338.544L137.866 337.916L137.866 335.694L138.454 335.106Z" fill="white"/>
<path d="M138.454 335.106L138.454 338.544L137.866 337.916L137.866 335.694L138.454 335.106Z" stroke="#02435F" stroke-width="0.702" stroke-miterlimit="10"/>
<path d="M136.335 336.145C136.69 336.145 138.461 336.432 138.461 336.788C138.461 337.143 136.69 337.43 136.335 337.43C135.98 337.43 135.692 337.143 135.692 336.788C135.692 336.432 135.98 336.145 136.335 336.145Z" fill="white"/>
<path d="M136.335 336.145C136.69 336.145 138.461 336.432 138.461 336.788C138.461 337.143 136.69 337.43 136.335 337.43C135.98 337.43 135.692 337.143 135.692 336.788C135.692 336.432 135.98 336.145 136.335 336.145Z" stroke="#02435F" stroke-width="0.702" stroke-miterlimit="10"/>
<path d="M51.9723 364.182L55.3897 364.182C55.6563 364.182 55.875 364.401 55.875 364.667L55.875 365.795C55.875 366.061 55.6563 366.28 55.3897 366.28L51.9723 366.28C51.7057 366.28 51.487 366.061 51.487 365.795L51.487 364.667C51.487 364.394 51.7057 364.182 51.9723 364.182Z" fill="white"/>
<path d="M51.9723 364.182L55.3897 364.182C55.6563 364.182 55.875 364.401 55.875 364.667L55.875 365.795C55.875 366.061 55.6563 366.28 55.3897 366.28L51.9723 366.28C51.7057 366.28 51.487 366.061 51.487 365.795L51.487 364.667C51.487 364.394 51.7057 364.182 51.9723 364.182Z" stroke="#02435F" stroke-width="0.351" stroke-miterlimit="10"/>
<path d="M51.815 361.318C51.815 359.739 52.6489 358.454 53.681 358.454C54.713 358.454 55.5469 359.739 55.5469 361.318C55.5469 362.897 54.713 364.182 53.681 364.182C52.6489 364.182 51.815 362.897 51.815 361.318Z" fill="white"/>
<path d="M51.815 361.318C51.815 359.739 52.6489 358.454 53.681 358.454C54.713 358.454 55.5469 359.739 55.5469 361.318C55.5469 362.897 54.713 364.182 53.681 364.182C52.6489 364.182 51.815 362.897 51.815 361.318Z" stroke="#02435F" stroke-width="0.351" stroke-miterlimit="10"/>
<path d="M55.4513 362.227L51.863 362.227" stroke="#02435F" stroke-width="0.351" stroke-miterlimit="10"/>
<path d="M104.184 335.079L104.184 338.496C104.184 338.763 103.965 338.982 103.698 338.982L102.571 338.982C102.304 338.982 102.085 338.763 102.085 338.496L102.085 335.079C102.085 334.812 102.304 334.594 102.571 334.594L103.698 334.594C103.972 334.594 104.184 334.812 104.184 335.079Z" fill="white"/>
<path d="M104.184 335.079L104.184 338.496C104.184 338.763 103.965 338.982 103.698 338.982L102.571 338.982C102.304 338.982 102.085 338.763 102.085 338.496L102.085 335.079C102.085 334.812 102.304 334.594 102.571 334.594L103.698 334.594C103.972 334.594 104.184 334.812 104.184 335.079Z" stroke="#02435F" stroke-width="0.351" stroke-miterlimit="10"/>
<path d="M107.048 334.922C108.626 334.922 109.911 335.756 109.911 336.788C109.911 337.82 108.626 338.654 107.048 338.654C105.469 338.654 104.184 337.82 104.184 336.788C104.184 335.756 105.469 334.922 107.048 334.922Z" fill="white"/>
<path d="M107.048 334.922C108.626 334.922 109.911 335.756 109.911 336.788C109.911 337.82 108.626 338.654 107.048 338.654C105.469 338.654 104.184 337.82 104.184 336.788C104.184 335.756 105.469 334.922 107.048 334.922Z" stroke="#02435F" stroke-width="0.351" stroke-miterlimit="10"/>
<path d="M106.145 338.558L106.145 334.97" stroke="#02435F" stroke-width="0.351" stroke-miterlimit="10"/>
<path d="M60.304 396.278L59.1216 376.895C59.0396 375.5 60.1468 374.325 61.5411 374.325L70.6862 374.325C72.0258 374.325 73.1125 375.411 73.1125 376.751L73.1125 396.285L101.368 396.285L101.368 376.751C101.368 375.411 102.455 374.325 103.794 374.325L110.308 374.325L110.308 367.647L101.368 367.647L60.304 367.572L58.9644 367.572L44.9666 367.572L44.9666 396.278L60.304 396.278Z" fill="white"/>
<path d="M60.304 396.278L59.1216 376.895C59.0396 375.5 60.1468 374.325 61.5411 374.325L70.6862 374.325C72.0258 374.325 73.1125 375.411 73.1125 376.751L73.1125 396.285L101.368 396.285L101.368 376.751C101.368 375.411 102.455 374.325 103.794 374.325L110.308 374.325L110.308 367.647L101.368 367.647L60.304 367.572L58.9644 367.572L44.9666 367.572L44.9666 396.278L60.304 396.278Z" stroke="#02435F" stroke-width="0.702" stroke-miterlimit="10"/>
<path d="M46.5591 369.055L55.9023 369.055C57.0984 369.055 58.0826 369.992 58.1373 371.188L59.1762 392.683C59.2377 393.961 58.2193 395.034 56.9412 395.034L47.0238 395.034L46.5591 369.055Z" fill="white"/>
<path d="M46.5591 369.055L55.9023 369.055C57.0984 369.055 58.0826 369.992 58.1373 371.188L59.1762 392.683C59.2377 393.961 58.2193 395.034 56.9412 395.034L47.0238 395.034L46.5591 369.055Z" stroke="#02435F" stroke-width="0.351" stroke-miterlimit="10"/>
<path d="M58.9644 388.145L46.894 388.145" stroke="#02435F" stroke-width="0.351" stroke-miterlimit="10"/>
<path d="M58.4995 378.597L46.8939 378.597" stroke="#02435F" stroke-width="0.351" stroke-miterlimit="10"/>
<path d="M62.2314 358.201L62.2314 350.15" stroke="#02435F" stroke-width="0.281" stroke-miterlimit="10" stroke-dasharray="1.4 1.4"/>
<path d="M62.2314 346.193L62.2314 338.141" stroke="#02435F" stroke-width="0.281" stroke-miterlimit="10" stroke-dasharray="1.4 1.4"/>
<path d="M45.8073 311.383L45.8073 310.426L34.5776 310.426L34.5776 311.383L45.8073 311.383Z" stroke="#02435F" stroke-width="0.351" stroke-miterlimit="10"/>
<path d="M34.5776 311.212C34.5776 311.048 34.5845 310.89 34.5913 310.733" stroke="#02435F" stroke-width="0.281" stroke-miterlimit="10"/>
<path d="M34.6801 309.804C35.3157 305.505 38.8152 302.142 43.1758 301.711" stroke="#02435F" stroke-width="0.281" stroke-miterlimit="10" stroke-dasharray="1.37 1.37"/>
<path d="M43.6474 301.677C43.8046 301.67 43.9686 301.663 44.1259 301.663" stroke="#02435F" stroke-width="0.281" stroke-miterlimit="10"/>
<path d="M45.657 309.626L45.657 301.575" stroke="#02435F" stroke-width="0.281" stroke-miterlimit="10" stroke-dasharray="1.4 1.4"/>
<path d="M100.917 329.843L100.917 321.785" stroke="#02435F" stroke-width="0.281" stroke-miterlimit="10" stroke-dasharray="1.4 1.4"/>
<path d="M122.769 330.199L121.975 329.992L119.614 339.025L120.408 339.232L122.769 330.199Z" stroke="#02435F" stroke-width="0.351" stroke-miterlimit="10"/>
<path d="M114.99 330.233C114.969 330.39 114.956 330.554 114.942 330.712" stroke="#02435F" stroke-width="0.281" stroke-miterlimit="10"/>
<path d="M114.935 331.757C115.072 334.464 116.473 336.911 118.619 338.421" stroke="#02435F" stroke-width="0.281" stroke-miterlimit="10" stroke-dasharray="1.54 1.54"/>
<path d="M119.056 338.715C119.193 338.797 119.33 338.879 119.473 338.954" stroke="#02435F" stroke-width="0.281" stroke-miterlimit="10"/>
<path d="M114.723 329.973L122.775 329.973" stroke="#02435F" stroke-width="0.281" stroke-miterlimit="10" stroke-dasharray="1.4 1.4"/>
<path d="M109.624 350.69L109.624 343.554L101.252 343.554L101.252 350.69L109.624 350.69Z" stroke="#02435F" stroke-width="0.351" stroke-miterlimit="10"/>
<path d="M101.252 350.69L101.252 343.554L92.8789 343.554L92.8789 350.69L101.252 350.69Z" stroke="#02435F" stroke-width="0.351" stroke-miterlimit="10"/>
<path d="M101.252 347.122L92.8789 347.122" stroke="#02435F" stroke-width="0.351" stroke-miterlimit="10"/>
<path d="M100.021 349.159L100.021 345.072" stroke="#02435F" stroke-width="0.351" stroke-miterlimit="10"/>
<path d="M99.2695 349.159L99.2695 345.072" stroke="#02435F" stroke-width="0.351" stroke-miterlimit="10"/>
<path d="M98.5177 349.159L98.5177 345.072" stroke="#02435F" stroke-width="0.351" stroke-miterlimit="10"/>
<path d="M96.1665 349.159L96.1665 345.072" stroke="#02435F" stroke-width="0.351" stroke-miterlimit="10"/>
<path d="M95.6129 349.159L95.6129 345.072" stroke="#02435F" stroke-width="0.351" stroke-miterlimit="10"/>
<path d="M94.8269 349.159L94.8269 345.072" stroke="#02435F" stroke-width="0.351" stroke-miterlimit="10"/>
<path d="M94.1296 349.159L94.1296 345.072" stroke="#02435F" stroke-width="0.351" stroke-miterlimit="10"/>
<path d="M138.994 406.08L131.27 406.08C130.416 406.08 129.705 406.722 129.623 407.57L125.85 444.84L134.585 444.963L138.994 406.08Z" fill="white"/>
<path d="M138.994 406.08L131.27 406.08C130.416 406.08 129.705 406.722 129.623 407.57L125.85 444.84L134.585 444.963L138.994 406.08Z" stroke="#02435F" stroke-width="0.702" stroke-miterlimit="10"/>
<path d="M76.3932 396.278L98.463 396.278L98.463 403.913C98.463 404.781 97.759 405.492 96.8842 405.492L77.9653 405.492C77.0972 405.492 76.3864 404.788 76.3864 403.913L76.3864 396.278L76.3932 396.278Z" stroke="#02435F" stroke-width="0.351" stroke-miterlimit="10"/>
<path d="M95.9957 396.224L97.7385 396.224L97.7385 404.473C97.7385 405.007 97.3079 405.437 96.7748 405.437L95.9957 405.437L95.9957 396.224V396.224Z" stroke="#02435F" stroke-width="0.351" stroke-miterlimit="10"/>
<path d="M76.571 410.515L82.6609 416.605L77.3297 421.936C76.9128 422.353 76.2293 422.353 75.8124 421.936L71.2398 417.364C70.8229 416.947 70.8229 416.264 71.2398 415.847L76.571 410.515Z" stroke="#02435F" stroke-width="0.351" stroke-miterlimit="10"/>
<path d="M81.0502 416.742L76.5942 412.286L71.3795 417.501L75.8355 421.957L81.0502 416.742Z" stroke="#02435F" stroke-width="0.351" stroke-miterlimit="10"/>
<path d="M80.2936 417.504L75.8376 413.048L71.3817 417.504L75.8377 421.96L80.2936 417.504Z" stroke="#02435F" stroke-width="0.351" stroke-miterlimit="10"/>
<path d="M100.097 461.975L106.186 468.065L100.855 473.396C100.438 473.813 99.7548 473.813 99.3379 473.396L94.7653 468.824C94.3484 468.407 94.3484 467.723 94.7653 467.306L100.097 461.975Z" stroke="#02435F" stroke-width="0.351" stroke-miterlimit="10"/>
<path d="M104.576 468.2L100.12 463.744L94.9056 468.959L99.3616 473.415L104.576 468.2Z" stroke="#02435F" stroke-width="0.351" stroke-miterlimit="10"/>
<path d="M103.82 468.961L99.3639 464.505L94.9079 468.961L99.3639 473.417L103.82 468.961Z" stroke="#02435F" stroke-width="0.351" stroke-miterlimit="10"/>
<path d="M106.501 483.628L100.411 489.718L95.0797 484.387C94.6627 483.97 94.6627 483.286 95.0797 482.869L99.6522 478.297C100.069 477.88 100.753 477.88 101.17 478.297L106.501 483.628Z" stroke="#02435F" stroke-width="0.351" stroke-miterlimit="10"/>
<path d="M104.726 483.648L99.511 478.434L95.055 482.89L100.27 488.104L104.726 483.648Z" stroke="#02435F" stroke-width="0.351" stroke-miterlimit="10"/>
<path d="M103.965 482.892L99.5088 478.436L95.0528 482.892L99.5088 487.348L103.965 482.892Z" stroke="#02435F" stroke-width="0.351" stroke-miterlimit="10"/>
<path d="M85.1419 489.718L79.052 483.628L84.3832 478.297C84.8001 477.88 85.4836 477.88 85.9005 478.297L90.4731 482.869C90.89 483.286 90.89 483.97 90.4731 484.387L85.1419 489.718Z" stroke="#02435F" stroke-width="0.351" stroke-miterlimit="10"/>
<path d="M90.3256 482.725L85.8696 478.269L80.6549 483.484L85.1109 487.94L90.3256 482.725Z" stroke="#02435F" stroke-width="0.351" stroke-miterlimit="10"/>
<path d="M90.3282 482.727L85.8722 478.271L81.4162 482.727L85.8722 487.183L90.3282 482.727Z" stroke="#02435F" stroke-width="0.351" stroke-miterlimit="10"/>
<path d="M78.6487 468.612L84.7386 462.522L90.0698 467.853C90.4867 468.27 90.4867 468.953 90.0698 469.37L85.4972 473.943C85.0803 474.36 84.3968 474.36 83.9799 473.943L78.6487 468.612Z" stroke="#02435F" stroke-width="0.351" stroke-miterlimit="10"/>
<path d="M90.0879 469.34L84.8732 464.125L80.4172 468.581L85.632 473.796L90.0879 469.34Z" stroke="#02435F" stroke-width="0.351" stroke-miterlimit="10"/>
<path d="M90.0858 469.342L85.6299 464.886L81.1739 469.342L85.6299 473.798L90.0858 469.342Z" stroke="#02435F" stroke-width="0.351" stroke-miterlimit="10"/>
<path d="M59.5454 293.503L54.9933 293.496C54.3372 293.496 53.8109 292.963 53.8109 292.306L53.8177 287.638C53.8177 287.044 54.303 286.565 54.8908 286.565L59.6684 286.572C60.263 286.572 60.7415 287.057 60.7415 287.645L60.7346 292.313C60.7346 292.969 60.2015 293.503 59.5454 293.503Z" stroke="#02435F" stroke-width="0.351" stroke-miterlimit="10"/>
<path d="M58.5269 292.505L55.834 292.498C55.1778 292.498 54.6516 291.965 54.6516 291.309L54.6584 286.565L59.7299 286.572L59.723 291.315C59.7094 291.978 59.1762 292.505 58.5269 292.505Z" stroke="#02435F" stroke-width="0.351" stroke-miterlimit="10"/>
<path d="M58.8687 291.644L55.4922 291.637C55.0275 291.637 54.6447 291.254 54.6516 290.789L54.6584 286.565L59.723 286.572L59.7162 290.796C59.7094 291.268 59.3334 291.644 58.8687 291.644Z" stroke="#02435F" stroke-width="0.351" stroke-miterlimit="10"/>
<path d="M51.2 416.605L57.2898 410.515L62.621 415.847C63.0379 416.264 63.0379 416.947 62.621 417.364L58.0485 421.936C57.6316 422.353 56.9481 422.353 56.5311 421.936L51.2 416.605Z" stroke="#02435F" stroke-width="0.351" stroke-miterlimit="10"/>
<path d="M62.6429 417.34L57.4281 412.125L52.9721 416.581L58.1869 421.796L62.6429 417.34Z" stroke="#02435F" stroke-width="0.351" stroke-miterlimit="10"/>
<path d="M62.645 417.338L58.1891 412.882L53.7331 417.338L58.1891 421.794L62.645 417.338Z" stroke="#02435F" stroke-width="0.351" stroke-miterlimit="10"/>
<path d="M61.6026 425.067C61.6026 422.135 63.9812 419.756 66.9065 419.756C69.8386 419.756 72.2172 422.135 72.2172 425.067C72.2172 427.999 69.8386 430.371 66.9065 430.371C63.9812 430.377 61.6026 427.999 61.6026 425.067Z" fill="white"/>
<path d="M61.6026 425.067C61.6026 422.135 63.9812 419.756 66.9065 419.756C69.8386 419.756 72.2172 422.135 72.2172 425.067C72.2172 427.999 69.8386 430.371 66.9065 430.371C63.9812 430.377 61.6026 427.999 61.6026 425.067Z" stroke="#02435F" stroke-width="0.702" stroke-miterlimit="10"/>
<path d="M86.126 475.693C86.126 472.186 88.9693 469.343 92.4756 469.343C95.9819 469.343 98.8252 472.186 98.8252 475.693C98.8252 479.199 95.9819 482.042 92.4756 482.042C88.9693 482.049 86.126 479.206 86.126 475.693Z" fill="white"/>
<path d="M86.126 475.693C86.126 472.186 88.9693 469.343 92.4756 469.343C95.9819 469.343 98.8252 472.186 98.8252 475.693C98.8252 479.199 95.9819 482.042 92.4756 482.042C88.9693 482.049 86.126 479.206 86.126 475.693Z" stroke="#02435F" stroke-width="0.702" stroke-miterlimit="10"/>
<path d="M78.9905 444.97L78.9905 438.6L53.2914 438.6L53.2914 444.97L78.9905 444.97Z" fill="white"/>
<path d="M78.9905 444.97L78.9905 438.6L53.2914 438.6L53.2914 444.97L78.9905 444.97Z" stroke="#02435F" stroke-width="0.702" stroke-miterlimit="10"/>
<path d="M132.637 314.369L134.975 314.369C135.836 314.369 136.526 315.067 136.526 315.921L136.526 320.931C136.526 321.792 135.829 322.482 134.975 322.482L132.637 322.482C131.776 322.482 131.086 321.785 131.086 320.931L131.086 315.921C131.086 315.067 131.776 314.369 132.637 314.369Z" stroke="#02435F" stroke-width="0.351" stroke-miterlimit="10"/>
<path d="M136.396 321.56L131.229 321.56" stroke="#02435F" stroke-width="0.351" stroke-miterlimit="10"/>
<path d="M74.295 369.294L100.274 369.294L100.274 394.296C100.274 394.836 99.8369 395.267 99.3037 395.267L75.2724 395.267C74.7324 395.267 74.3018 394.829 74.3018 394.296L74.3018 369.294L74.295 369.294Z" fill="white"/>
<path d="M74.295 369.294L100.274 369.294L100.274 394.296C100.274 394.836 99.8369 395.267 99.3037 395.267L75.2724 395.267C74.7324 395.267 74.3018 394.829 74.3018 394.296L74.3018 369.294L74.295 369.294Z" stroke="#02435F" stroke-width="0.351" stroke-miterlimit="10"/>
<path d="M100.274 393.175L100.274 380.1L74.295 380.1L74.295 393.175L100.274 393.175Z" stroke="#02435F" stroke-width="0.351" stroke-miterlimit="10"/>
<path d="M100.028 393.579L100.028 384.352L74.5547 384.352L74.5547 393.579L100.028 393.579Z" fill="#8FBAB8"/>
<path d="M97.6838 373.368L97.6838 375.705C97.6838 376.567 96.9867 377.257 96.1323 377.257L91.1224 377.257C90.2612 377.257 89.5709 376.56 89.5709 375.705L89.5709 373.368C89.5709 372.507 90.268 371.816 91.1224 371.816L96.1323 371.816C96.9867 371.81 97.6838 372.507 97.6838 373.368Z" stroke="#02435F" stroke-width="0.351" stroke-miterlimit="10"/>
<path d="M90.4937 377.127L90.4937 371.96" stroke="#02435F" stroke-width="0.351" stroke-miterlimit="10"/>
<path d="M85.9825 373.368L85.9825 375.705C85.9825 376.567 85.2854 377.257 84.431 377.257L79.4211 377.257C78.5599 377.257 77.8696 376.56 77.8696 375.705L77.8696 373.368C77.8696 372.507 78.5667 371.816 79.4211 371.816L84.431 371.816C85.2854 371.81 85.9825 372.507 85.9825 373.368Z" stroke="#02435F" stroke-width="0.351" stroke-miterlimit="10"/>
<path d="M78.7991 377.127L78.7991 371.96" stroke="#02435F" stroke-width="0.351" stroke-miterlimit="10"/>
<path d="M68.8818 287.638L68.8818 286.073L114.921 286.073L114.921 277.817L68.8818 277.817L67.009 277.817L45.9303 277.817L45.9303 288.944L67.5695 288.944C68.294 288.95 68.8818 288.363 68.8818 287.638Z" fill="white"/>
<path d="M68.8818 287.638L68.8818 286.073L114.921 286.073L114.921 277.817L68.8818 277.817L67.009 277.817L45.9303 277.817L45.9303 288.944L67.5695 288.944C68.294 288.95 68.8818 288.363 68.8818 287.638Z" stroke="#02435F" stroke-width="0.702" stroke-miterlimit="10"/>
<path d="M80.4258 246.506L84.8616 246.506L84.8616 226.733L80.4258 246.506Z" fill="#02435F"/>
<path d="M94.8542 246.506L99.29 246.506L99.29 226.733L94.8542 246.506Z" fill="#02435F"/>
<path d="M99.29 228.407L84.8616 228.407" stroke="#02435F" stroke-width="0.351" stroke-miterlimit="10"/>
<path d="M99.29 226.733L84.8616 226.733" stroke="#02435F" stroke-width="0.351" stroke-miterlimit="10"/>
<path d="M99.29 231.005L84.8616 231.005" stroke="#02435F" stroke-width="0.351" stroke-miterlimit="10"/>
<path d="M99.29 233.438L84.8616 233.438" stroke="#02435F" stroke-width="0.351" stroke-miterlimit="10"/>
<path d="M99.29 236.035L84.8616 236.035" stroke="#02435F" stroke-width="0.351" stroke-miterlimit="10"/>
<path d="M99.29 238.714L84.8616 238.714" stroke="#02435F" stroke-width="0.351" stroke-miterlimit="10"/>
<path d="M99.29 241.401L84.8616 241.401" stroke="#02435F" stroke-width="0.351" stroke-miterlimit="10"/>
<path d="M99.29 243.827L84.8616 243.827" stroke="#02435F" stroke-width="0.351" stroke-miterlimit="10"/>
<path d="M99.29 246.506L80.4258 246.506" stroke="#02435F" stroke-width="0.351" stroke-miterlimit="10"/>
<path d="M128.331 277.495L130.669 277.495L130.669 256.69L128.331 277.495Z" fill="#02435F"/>
<path d="M135.918 277.495L138.256 277.495L138.256 256.69L135.918 277.495Z" fill="#02435F"/>
<path d="M138.256 258.453L130.669 258.453" stroke="#02435F" stroke-width="0.261" stroke-miterlimit="10"/>
<path d="M138.256 256.69L130.669 256.69" stroke="#02435F" stroke-width="0.261" stroke-miterlimit="10"/>
<path d="M138.256 261.187L130.669 261.187" stroke="#02435F" stroke-width="0.261" stroke-miterlimit="10"/>
<path d="M138.256 263.744L130.669 263.744" stroke="#02435F" stroke-width="0.261" stroke-miterlimit="10"/>
<path d="M138.256 266.478L130.669 266.478" stroke="#02435F" stroke-width="0.261" stroke-miterlimit="10"/>
<path d="M138.256 269.3L130.669 269.3" stroke="#02435F" stroke-width="0.261" stroke-miterlimit="10"/>
<path d="M138.256 272.116L130.669 272.116" stroke="#02435F" stroke-width="0.261" stroke-miterlimit="10"/>
<path d="M138.256 274.673L130.669 274.673" stroke="#02435F" stroke-width="0.261" stroke-miterlimit="10"/>
<path d="M138.256 277.495L128.331 277.495" stroke="#02435F" stroke-width="0.261" stroke-miterlimit="10"/>
<path d="M110.861 301.718L110.861 311.383L138.912 311.383L138.912 300.577L138.796 300.577L138.796 278.466L139.001 278.466L139.001 277.694L114.785 277.694L114.785 288.595C114.785 289.224 115.304 289.73 115.947 289.73L125.686 289.73C126.144 289.73 126.52 290.092 126.52 290.543L126.52 299.763C126.52 300.214 126.144 300.577 125.686 300.577L112.03 300.577C111.381 300.584 110.861 301.089 110.861 301.718Z" fill="#02435F"/>
<path d="M112.201 302.326L112.201 309.045C112.201 309.421 112.515 309.735 112.905 309.735L127.45 309.735L138.331 309.735L138.331 301.643L138.331 288.691L138.331 284.207L138.331 278.48L116.261 278.48C115.871 278.48 115.557 278.787 115.557 279.17L115.557 288.014C115.557 288.39 115.871 288.705 116.261 288.705L125.652 288.705C126.65 288.705 127.456 289.497 127.456 290.468L127.456 299.886C127.456 300.864 126.65 301.65 125.652 301.65L112.912 301.65C112.515 301.636 112.201 301.944 112.201 302.326Z" fill="white"/>
<path d="M125.973 310.446L125.973 301.014" stroke="#02435F" stroke-width="0.347" stroke-miterlimit="10"/>
<path d="M125.973 289.463L125.973 277.694" stroke="#02435F" stroke-width="0.347" stroke-miterlimit="10"/>
<path d="M138.912 299.264L127.477 299.264" stroke="#02435F" stroke-width="0.347" stroke-miterlimit="10"/>
<path d="M139.076 291.186L127.477 291.186" stroke="#02435F" stroke-width="0.347" stroke-miterlimit="10"/>
<path d="M73.9259 442.065L73.9259 441.245L58.1374 441.245L58.1374 442.065L73.9259 442.065Z" fill="#02435F"/>
<path d="M70.1599 443.015L70.1599 440.302L61.9034 440.302L61.9034 443.015L70.1599 443.015Z" fill="#02435F"/>
<path d="M51.3025 380.456L49.9219 375.145C49.7715 374.557 50.1201 373.956 50.7079 373.805L52.7447 373.279C53.3325 373.129 53.9339 373.477 54.0843 374.065L55.4649 379.376C55.6153 379.964 55.2667 380.565 54.6789 380.715L52.6421 381.249C52.0544 381.399 51.4529 381.043 51.3025 380.456Z" fill="#8FBAB8"/>
<path d="M51.3025 380.456L49.9219 375.145C49.7715 374.557 50.1201 373.956 50.7079 373.805L52.7447 373.279C53.3325 373.129 53.9339 373.477 54.0843 374.065L55.4649 379.376C55.6153 379.964 55.2667 380.565 54.6789 380.715L52.6421 381.249C52.0544 381.399 51.4529 381.043 51.3025 380.456Z" stroke="#02435F" stroke-width="0.351" stroke-miterlimit="10"/>
<path d="M49.0606 391.467L49.6279 386.006C49.6894 385.397 50.2293 384.96 50.8377 385.028L52.9291 385.247C53.5306 385.308 53.9749 385.848 53.9065 386.457L53.3392 391.918C53.2777 392.519 52.7377 392.964 52.1294 392.895L50.038 392.676C49.4365 392.615 48.9991 392.075 49.0606 391.467Z" fill="#8FBAB8"/>
<path d="M49.0606 391.467L49.6279 386.006C49.6894 385.397 50.2293 384.96 50.8377 385.028L52.9291 385.247C53.5306 385.308 53.9749 385.848 53.9065 386.457L53.3392 391.918C53.2777 392.519 52.7377 392.964 52.1294 392.895L50.038 392.676C49.4365 392.615 48.9991 392.075 49.0606 391.467Z" stroke="#02435F" stroke-width="0.351" stroke-miterlimit="10"/>
<path d="M132.179 285.533L132.179 280.988C132.179 280.277 132.76 279.696 133.471 279.696L135.166 279.696C135.877 279.696 136.458 280.277 136.458 280.988L136.458 285.533C136.458 286.244 135.877 286.825 135.166 286.825L133.478 286.825C132.76 286.832 132.179 286.251 132.179 285.533Z" fill="#8FBAB8"/>
<path d="M132.179 285.533L132.179 280.988C132.179 280.277 132.76 279.696 133.471 279.696L135.166 279.696C135.877 279.696 136.458 280.277 136.458 280.988L136.458 285.533C136.458 286.244 135.877 286.825 135.166 286.825L133.478 286.825C132.76 286.832 132.179 286.251 132.179 285.533Z" stroke="#02435F" stroke-width="0.347" stroke-miterlimit="10"/>
<path d="M131.195 287.249L130.573 282.71C130.478 282.013 130.983 281.371 131.694 281.275L133.341 281.056C134.059 280.961 134.715 281.453 134.811 282.157L135.433 286.695C135.529 287.392 135.023 288.035 134.312 288.13L132.665 288.342C131.947 288.438 131.291 287.946 131.195 287.249Z" fill="#8FBAB8"/>
<path d="M131.195 287.249L130.573 282.71C130.478 282.013 130.983 281.371 131.694 281.275L133.341 281.056C134.059 280.961 134.715 281.453 134.811 282.157L135.433 286.695C135.529 287.392 135.023 288.035 134.312 288.13L132.665 288.342C131.947 288.438 131.291 287.946 131.195 287.249Z" stroke="#02435F" stroke-width="0.347" stroke-miterlimit="10"/>
<path d="M131.093 306.714L131.093 302.169C131.093 301.458 131.674 300.877 132.384 300.877L134.073 300.877C134.79 300.877 135.364 301.458 135.364 302.169L135.364 306.714C135.364 307.425 134.783 308.006 134.073 308.006L132.384 308.006C131.674 308.006 131.093 307.425 131.093 306.714Z" fill="#8FBAB8"/>
<path d="M131.093 306.714L131.093 302.169C131.093 301.458 131.674 300.877 132.384 300.877L134.073 300.877C134.79 300.877 135.364 301.458 135.364 302.169L135.364 306.714C135.364 307.425 134.783 308.006 134.073 308.006L132.384 308.006C131.674 308.006 131.093 307.425 131.093 306.714Z" stroke="#02435F" stroke-width="0.347" stroke-miterlimit="10"/>
<path d="M130.108 308.423L129.486 303.885C129.391 303.188 129.897 302.545 130.607 302.449L132.255 302.231C132.972 302.135 133.628 302.627 133.724 303.331L134.346 307.87C134.442 308.567 133.936 309.209 133.225 309.305L131.578 309.517C130.86 309.619 130.204 309.127 130.108 308.423Z" fill="#8FBAB8"/>
<path d="M130.108 308.423L129.486 303.885C129.391 303.188 129.897 302.545 130.607 302.449L132.255 302.231C132.972 302.135 133.628 302.627 133.724 303.331L134.346 307.87C134.442 308.567 133.936 309.209 133.225 309.305L131.578 309.517C130.86 309.619 130.204 309.127 130.108 308.423Z" stroke="#02435F" stroke-width="0.347" stroke-miterlimit="10"/>
<path d="M122.296 324.184L122.296 312.688L113.773 312.688L113.773 324.184L122.296 324.184Z" fill="#8FBAB8"/>
<path d="M68.8817 286.073L68.8817 277.817" stroke="#02435F" stroke-width="0.75" stroke-miterlimit="10"/>
<path d="M118.496 255.617L118.496 272.397L109.043 272.397L109.043 255.74C109.043 255.193 109.488 254.742 110.041 254.742L117.628 254.742C118.106 254.742 118.496 255.132 118.496 255.617Z" fill="white"/>
<path d="M118.496 255.617L118.496 272.397L109.043 272.397L109.043 255.74C109.043 255.193 109.488 254.742 110.041 254.742L117.628 254.742C118.106 254.742 118.496 255.132 118.496 255.617Z" stroke="#02435F" stroke-width="0.282" stroke-miterlimit="10"/>
<path d="M112.734 267.072L116.398 267.072C116.972 267.072 117.437 267.537 117.437 268.111L117.437 269.471C117.437 270.045 116.972 270.51 116.398 270.51L112.734 270.51C112.16 270.51 111.695 270.045 111.695 269.471L111.695 268.111C111.695 267.537 112.16 267.072 112.734 267.072Z" fill="#8FBAB8"/>
<path d="M112.734 267.072L116.398 267.072C116.972 267.072 117.437 267.537 117.437 268.111L117.437 269.471C117.437 270.045 116.972 270.51 116.398 270.51L112.734 270.51C112.16 270.51 111.695 270.045 111.695 269.471L111.695 268.111C111.695 267.537 112.16 267.072 112.734 267.072Z" stroke="#02435F" stroke-width="0.279" stroke-miterlimit="10"/>
<path d="M111.354 266.279L115.003 265.781C115.564 265.705 116.083 266.109 116.158 266.683L116.329 268.009C116.405 268.583 116.008 269.116 115.448 269.191L111.798 269.69C111.237 269.765 110.718 269.362 110.643 268.788L110.472 267.462C110.397 266.888 110.793 266.355 111.354 266.279Z" fill="#8FBAB8"/>
<path d="M111.354 266.279L115.003 265.781C115.564 265.705 116.083 266.109 116.158 266.683L116.329 268.009C116.405 268.583 116.008 269.116 115.448 269.191L111.798 269.69C111.237 269.765 110.718 269.362 110.643 268.788L110.472 267.462C110.397 266.888 110.793 266.355 111.354 266.279Z" stroke="#02435F" stroke-width="0.279" stroke-miterlimit="10"/>
<path d="M103.186 255.617L103.186 272.397L93.7333 272.397L93.7333 255.74C93.7333 255.193 94.1776 254.742 94.7312 254.742L102.318 254.742C102.796 254.742 103.186 255.132 103.186 255.617Z" fill="white"/>
<path d="M103.186 255.617L103.186 272.397L93.7333 272.397L93.7333 255.74C93.7333 255.193 94.1776 254.742 94.7312 254.742L102.318 254.742C102.796 254.742 103.186 255.132 103.186 255.617Z" stroke="#02435F" stroke-width="0.282" stroke-miterlimit="10"/>
<path d="M97.431 267.072L101.095 267.072C101.669 267.072 102.133 267.537 102.133 268.111L102.133 269.471C102.133 270.045 101.669 270.51 101.095 270.51L97.431 270.51C96.8569 270.51 96.3922 270.045 96.3922 269.471L96.3922 268.111C96.3922 267.537 96.8569 267.072 97.431 267.072Z" fill="#8FBAB8"/>
<path d="M97.431 267.072L101.095 267.072C101.669 267.072 102.133 267.537 102.133 268.111L102.133 269.471C102.133 270.045 101.669 270.51 101.095 270.51L97.431 270.51C96.8569 270.51 96.3922 270.045 96.3922 269.471L96.3922 268.111C96.3922 267.537 96.8569 267.072 97.431 267.072Z" stroke="#02435F" stroke-width="0.279" stroke-miterlimit="10"/>
<path d="M96.0503 266.279L99.7002 265.781C100.261 265.705 100.78 266.109 100.855 266.683L101.026 268.009C101.101 268.583 100.705 269.116 100.144 269.191L96.4946 269.69C95.9341 269.765 95.4147 269.362 95.3395 268.788L95.1686 267.462C95.0935 266.888 95.4899 266.355 96.0503 266.279Z" fill="#8FBAB8"/>
<path d="M96.0503 266.279L99.7002 265.781C100.261 265.705 100.78 266.109 100.855 266.683L101.026 268.009C101.101 268.583 100.705 269.116 100.144 269.191L96.4946 269.69C95.9341 269.765 95.4147 269.362 95.3395 268.788L95.1686 267.462C95.0935 266.888 95.4899 266.355 96.0503 266.279Z" stroke="#02435F" stroke-width="0.279" stroke-miterlimit="10"/>
<path d="M82.2781 255.617L82.2781 272.397L72.8255 272.397L72.8255 255.74C72.8255 255.193 73.2697 254.742 73.8234 254.742L81.41 254.742C81.8885 254.742 82.2781 255.132 82.2781 255.617Z" fill="white"/>
<path d="M82.2781 255.617L82.2781 272.397L72.8255 272.397L72.8255 255.74C72.8255 255.193 73.2697 254.742 73.8234 254.742L81.41 254.742C81.8885 254.742 82.2781 255.132 82.2781 255.617Z" stroke="#02435F" stroke-width="0.282" stroke-miterlimit="10"/>
<path d="M76.5231 267.072L80.1866 267.072C80.7607 267.072 81.2255 267.537 81.2255 268.111L81.2255 269.471C81.2255 270.045 80.7607 270.51 80.1866 270.51L76.5231 270.51C75.949 270.51 75.4842 270.045 75.4842 269.471L75.4842 268.111C75.4842 267.537 75.949 267.072 76.5231 267.072Z" fill="#8FBAB8"/>
<path d="M76.5231 267.072L80.1866 267.072C80.7607 267.072 81.2255 267.537 81.2255 268.111L81.2255 269.471C81.2255 270.045 80.7607 270.51 80.1866 270.51L76.5231 270.51C75.9489 270.51 75.4842 270.045 75.4842 269.471L75.4842 268.111C75.4842 267.537 75.949 267.072 76.5231 267.072Z" stroke="#02435F" stroke-width="0.279" stroke-miterlimit="10"/>
<path d="M75.1425 266.279L78.7923 265.781C79.3528 265.705 79.8722 266.109 79.9474 266.683L80.1183 268.009C80.1935 268.583 79.7971 269.116 79.2366 269.191L75.5868 269.69C75.0263 269.765 74.5069 269.362 74.4317 268.788L74.2608 267.462C74.1856 266.888 74.582 266.355 75.1425 266.279Z" fill="#8FBAB8"/>
<path d="M75.1425 266.279L78.7923 265.781C79.3528 265.705 79.8722 266.109 79.9474 266.683L80.1183 268.009C80.1935 268.583 79.7971 269.116 79.2366 269.191L75.5868 269.69C75.0263 269.765 74.5069 269.362 74.4317 268.788L74.2608 267.462C74.1856 266.888 74.582 266.355 75.1425 266.279Z" stroke="#02435F" stroke-width="0.279" stroke-miterlimit="10"/>
<path d="M67.1936 255.617L67.1936 272.397L57.741 272.397L57.741 255.74C57.741 255.193 58.1853 254.742 58.7389 254.742L66.3256 254.742C66.804 254.742 67.1936 255.132 67.1936 255.617Z" fill="white"/>
<path d="M67.1936 255.617L67.1936 272.397L57.741 272.397L57.741 255.74C57.741 255.193 58.1853 254.742 58.7389 254.742L66.3256 254.742C66.804 254.742 67.1936 255.132 67.1936 255.617Z" stroke="#02435F" stroke-width="0.282" stroke-miterlimit="10"/>
<path d="M61.4318 267.072L65.0953 267.072C65.6694 267.072 66.1342 267.537 66.1342 268.111L66.1342 269.471C66.1342 270.045 65.6694 270.51 65.0953 270.51L61.4318 270.51C60.8577 270.51 60.3929 270.045 60.3929 269.471L60.3929 268.111C60.3929 267.537 60.8577 267.072 61.4318 267.072Z" fill="#8FBAB8"/>
<path d="M61.4318 267.072L65.0953 267.072C65.6694 267.072 66.1342 267.537 66.1342 268.111L66.1342 269.471C66.1342 270.045 65.6694 270.51 65.0953 270.51L61.4318 270.51C60.8577 270.51 60.3929 270.045 60.3929 269.471L60.3929 268.111C60.3929 267.537 60.8577 267.072 61.4318 267.072Z" stroke="#02435F" stroke-width="0.279" stroke-miterlimit="10"/>
<path d="M60.0579 266.279L63.7077 265.781C64.2682 265.705 64.7876 266.109 64.8628 266.683L65.0337 268.009C65.1089 268.583 64.7125 269.116 64.152 269.191L60.5022 269.69C59.9417 269.765 59.4223 269.362 59.3471 268.788L59.1762 267.462C59.0942 266.888 59.4906 266.355 60.0579 266.279Z" fill="#8FBAB8"/>
<path d="M60.0579 266.279L63.7077 265.781C64.2682 265.705 64.7876 266.109 64.8628 266.683L65.0337 268.009C65.1089 268.583 64.7125 269.116 64.152 269.191L60.5022 269.69C59.9417 269.765 59.4223 269.362 59.3471 268.788L59.1762 267.462C59.0942 266.888 59.4906 266.355 60.0579 266.279Z" stroke="#02435F" stroke-width="0.279" stroke-miterlimit="10"/>
<path d="M123.52 464.976C118.024 464.976 113.568 461.346 113.568 456.876C113.568 452.399 118.024 448.777 123.52 448.777C129.015 448.777 133.471 452.406 133.471 456.876C133.471 461.346 129.015 464.976 123.52 464.976Z" fill="white"/>
<path d="M123.52 464.976C118.024 464.976 113.568 461.346 113.568 456.876C113.568 452.399 118.024 448.777 123.52 448.777C129.015 448.777 133.471 452.406 133.471 456.876C133.471 461.346 129.015 464.976 123.52 464.976Z" stroke="#02435F" stroke-width="0.351" stroke-miterlimit="10"/>
<path d="M123.649 464.6C119.091 464.6 115.393 461.982 115.393 458.756C115.393 455.53 119.091 452.912 123.649 452.912C128.208 452.912 131.899 455.53 131.899 458.756C131.899 461.982 128.202 464.6 123.649 464.6Z" fill="#8FBAB8"/>
<path d="M123.649 464.6C119.091 464.6 115.393 461.982 115.393 458.756C115.393 455.53 119.091 452.912 123.649 452.912C128.208 452.912 131.899 455.53 131.899 458.756C131.899 461.982 128.202 464.6 123.649 464.6Z" stroke="#02435F" stroke-width="0.271" stroke-miterlimit="10"/>
<path d="M60.4954 464.976C55.0001 464.976 50.5438 461.346 50.5438 456.876C50.5438 452.399 55.0001 448.777 60.4954 448.777C65.9906 448.777 70.4469 452.406 70.4469 456.876C70.4469 461.346 65.9906 464.976 60.4954 464.976Z" fill="white"/>
<path d="M60.4954 464.976C55.0001 464.976 50.5438 461.346 50.5438 456.876C50.5438 452.399 55.0001 448.777 60.4954 448.777C65.9906 448.777 70.4469 452.406 70.4469 456.876C70.4469 461.346 65.9906 464.976 60.4954 464.976Z" stroke="#02435F" stroke-width="0.351" stroke-miterlimit="10"/>
<path d="M60.6252 464.6C56.0663 464.6 52.3687 461.982 52.3687 458.756C52.3687 455.53 56.0663 452.912 60.6252 452.912C65.184 452.912 68.8749 455.53 68.8749 458.756C68.8817 461.982 65.184 464.6 60.6252 464.6Z" fill="#8FBAB8"/>
<path d="M60.6252 464.6C56.0663 464.6 52.3687 461.982 52.3687 458.756C52.3687 455.53 56.0663 452.912 60.6252 452.912C65.184 452.912 68.8749 455.53 68.8749 458.756C68.8817 461.982 65.184 464.6 60.6252 464.6Z" stroke="#02435F" stroke-width="0.271" stroke-miterlimit="10"/>
<path d="M98.8111 357.661L93.526 350.5L92.8881 350.971L98.1732 358.131L98.8111 357.661Z" stroke="#02435F" stroke-width="0.365" stroke-miterlimit="10"/>
<path d="M99.2969 357.204C99.4131 357.081 99.5225 356.958 99.625 356.828" stroke="#02435F" stroke-width="0.365" stroke-miterlimit="10"/>
<path d="M100.158 356.096C100.718 355.215 101.101 354.203 101.245 353.13" stroke="#02435F" stroke-width="0.365" stroke-miterlimit="10" stroke-dasharray="1.33 1.33"/>
<path d="M101.293 352.679C101.306 352.515 101.313 352.344 101.313 352.18" stroke="#02435F" stroke-width="0.365" stroke-miterlimit="10"/>
<path d="M109.586 350.974L108.948 350.503L103.663 357.663L104.301 358.134L109.586 350.974Z" stroke="#02435F" stroke-width="0.365" stroke-miterlimit="10"/>
<path d="M103.165 357.204C103.049 357.081 102.94 356.958 102.837 356.828" stroke="#02435F" stroke-width="0.365" stroke-miterlimit="10"/>
<path d="M102.304 356.096C101.737 355.215 101.361 354.203 101.217 353.13" stroke="#02435F" stroke-width="0.365" stroke-miterlimit="10" stroke-dasharray="1.33 1.33"/>
<path d="M101.17 352.679C101.156 352.515 101.149 352.344 101.149 352.18" stroke="#02435F" stroke-width="0.365" stroke-miterlimit="10"/>
<path d="M81.2255 305.6L81.2255 298.061C81.2255 296.223 82.7155 294.733 84.5541 294.733L88.9694 294.733C90.808 294.733 92.298 296.223 92.298 298.061L92.298 305.6L81.2255 305.6Z" stroke="#02435F" stroke-width="0.365" stroke-miterlimit="10"/>
<path d="M92.3048 298.055L81.2255 298.055" stroke="#02435F" stroke-width="0.365" stroke-miterlimit="10"/>
<path d="M92.3048 304.438L81.2255 304.438" stroke="#02435F" stroke-width="0.365" stroke-miterlimit="10"/>
<path d="M95.6129 287.775L95.6129 286.832L81.2255 286.832L81.2255 287.775L95.6129 287.775Z" stroke="#02435F" stroke-width="0.365" stroke-miterlimit="10"/>
<path d="M89.1813 288.349L89.1813 286.825L87.6571 286.825L87.6571 288.349L89.1813 288.349Z" fill="white"/>
<path d="M89.1813 288.349L89.1813 286.825L87.6571 286.825L87.6571 288.349L89.1813 288.349Z" stroke="#02435F" stroke-width="0.365" stroke-miterlimit="10"/>
<path d="M96.3716 288.349L96.3716 286.825L94.8474 286.825L94.8474 288.349L96.3716 288.349Z" fill="white"/>
<path d="M96.3716 288.349L96.3716 286.825L94.8474 286.825L94.8474 288.349L96.3716 288.349Z" stroke="#02435F" stroke-width="0.365" stroke-miterlimit="10"/>
<path d="M82.3123 288.349L82.3123 286.825L80.7881 286.825L80.7881 288.349L82.3123 288.349Z" fill="white"/>
<path d="M82.3123 288.349L82.3123 286.825L80.7881 286.825L80.7881 288.349L82.3123 288.349Z" stroke="#02435F" stroke-width="0.365" stroke-miterlimit="10"/>
</g>
<defs>
<clipPath id="clip0">
<rect width="570" height="194.424" fill="white" transform="translate(194.424) rotate(90)"/>
</clipPath>
</defs>
</svg>
